<?xml version="1.0" encoding="utf-8" standalone="no"?>
<!DOCTYPE svg PUBLIC "-//W3C//DTD SVG 1.1//EN"
  "http://www.w3.org/Graphics/SVG/1.1/DTD/svg11.dtd">
<svg xmlns:xlink="http://www.w3.org/1999/xlink" width="241.2pt" height="144pt" viewBox="0 0 241.2 144" xmlns="http://www.w3.org/2000/svg" version="1.1">
 <metadata>
  <rdf:RDF xmlns:dc="http://purl.org/dc/elements/1.1/" xmlns:cc="http://creativecommons.org/ns#" xmlns:rdf="http://www.w3.org/1999/02/22-rdf-syntax-ns#">
   <cc:Work>
    <dc:type rdf:resource="http://purl.org/dc/dcmitype/StillImage"/>
    <dc:date>2025-11-12T23:29:48.961021</dc:date>
    <dc:format>image/svg+xml</dc:format>
    <dc:creator>
     <cc:Agent>
      <dc:title>Matplotlib v3.6.3, https://matplotlib.org/</dc:title>
     </cc:Agent>
    </dc:creator>
   </cc:Work>
  </rdf:RDF>
 </metadata>
 <defs>
  <style type="text/css">*{stroke-linejoin: round; stroke-linecap: butt}</style>
 </defs>
 <g id="figure_1">
  <g id="patch_1">
   <path d="M 0 144 
L 241.2 144 
L 241.2 0 
L 0 0 
z
" style="fill: #ffffff"/>
  </g>
  <g id="axes_1">
   <g id="patch_2">
    <path d="M 44.123453 109.29171 
L 238.19976 109.29171 
L 238.19976 3.00024 
L 44.123453 3.00024 
z
" style="fill: #ffffff"/>
   </g>
   <g id="matplotlib.axis_1">
    <g id="xtick_1">
     <g id="line2d_1">
      <defs>
       <path id="m4896e9b67d" d="M 0 0 
L 0 3.5 
" style="stroke: #000000; stroke-width: 0.8"/>
      </defs>
      <g>
       <use xlink:href="#m4896e9b67d" x="52.945104" y="109.29171" style="stroke: #000000; stroke-width: 0.8"/>
      </g>
     </g>
     <g id="text_1">
      <!-- $0$ -->
      <g transform="translate(50.454436 123.210208) scale(0.1 -0.1)">
       <defs>
        <path id="CMR17-30" d="M 2688 2038 
C 2688 2430 2682 3099 2413 3613 
C 2176 4063 1798 4224 1466 4224 
C 1158 4224 768 4082 525 3620 
C 269 3137 243 2539 243 2038 
C 243 1671 250 1112 448 623 
C 723 -39 1216 -128 1466 -128 
C 1760 -128 2208 -7 2470 604 
C 2662 1048 2688 1568 2688 2038 
z
M 1466 -26 
C 1056 -26 813 328 723 816 
C 653 1196 653 1749 653 2109 
C 653 2604 653 3015 736 3407 
C 858 3954 1216 4121 1466 4121 
C 1728 4121 2067 3947 2189 3420 
C 2272 3054 2278 2623 2278 2109 
C 2278 1691 2278 1176 2202 797 
C 2067 96 1690 -26 1466 -26 
z
" transform="scale(0.015625)"/>
       </defs>
       <use xlink:href="#CMR17-30" transform="scale(0.996264)"/>
      </g>
     </g>
    </g>
    <g id="xtick_2">
     <g id="line2d_2">
      <g>
       <use xlink:href="#m4896e9b67d" x="82.350605" y="109.29171" style="stroke: #000000; stroke-width: 0.8"/>
      </g>
     </g>
     <g id="text_2">
      <!-- $\frac{\pi}{6}$ -->
      <g transform="translate(79.896072 123.216942) scale(0.1 -0.1)">
       <defs>
        <path id="CMMI12-19" d="M 1658 2406 
L 2381 2406 
C 2208 1691 2099 1225 2099 715 
C 2099 625 2099 -64 2362 -64 
C 2496 -64 2611 57 2611 166 
C 2611 198 2611 210 2566 306 
C 2394 746 2394 1295 2394 1340 
C 2394 1378 2394 1832 2528 2406 
L 3245 2406 
C 3328 2406 3539 2406 3539 2611 
C 3539 2752 3418 2752 3302 2752 
L 1197 2752 
C 1050 2752 832 2752 538 2438 
C 371 2253 166 1915 166 1876 
C 166 1838 198 1825 237 1825 
C 282 1825 288 1844 320 1883 
C 653 2406 986 2406 1146 2406 
L 1510 2406 
C 1370 1927 1210 1372 685 255 
C 634 153 634 140 634 102 
C 634 -32 749 -64 806 -64 
C 992 -64 1043 102 1120 370 
C 1222 695 1222 708 1286 964 
L 1658 2406 
z
" transform="scale(0.015625)"/>
        <path id="CMR17-36" d="M 678 2198 
C 678 3712 1395 4076 1811 4076 
C 1946 4076 2272 4049 2400 3782 
C 2298 3782 2106 3782 2106 3558 
C 2106 3385 2246 3328 2336 3328 
C 2394 3328 2566 3353 2566 3571 
C 2566 3987 2246 4224 1805 4224 
C 1043 4224 243 3411 243 2011 
C 243 257 966 -128 1478 -128 
C 2099 -128 2688 431 2688 1295 
C 2688 2101 2170 2688 1517 2688 
C 1126 2688 838 2430 678 1979 
L 678 2198 
z
M 1478 25 
C 691 25 691 1212 691 1450 
C 691 1914 909 2585 1504 2585 
C 1613 2585 1926 2585 2138 2140 
C 2253 1889 2253 1624 2253 1302 
C 2253 954 2253 696 2118 438 
C 1978 173 1773 25 1478 25 
z
" transform="scale(0.015625)"/>
       </defs>
       <use xlink:href="#CMMI12-19" transform="translate(0 39.226102) scale(0.697382)"/>
       <use xlink:href="#CMR17-36" transform="translate(4.627027 -34.355253) scale(0.697382)"/>
       <path d="M 0 22.914133 
L 41.237221 22.914133 
L 41.237221 26.899083 
L 0 26.899083 
L 0 22.914133 
z
"/>
      </g>
     </g>
    </g>
    <g id="xtick_3">
     <g id="line2d_3">
      <g>
       <use xlink:href="#m4896e9b67d" x="111.756106" y="109.29171" style="stroke: #000000; stroke-width: 0.8"/>
      </g>
     </g>
     <g id="text_3">
      <!-- $\frac{\pi}{3}$ -->
      <g transform="translate(109.301573 123.216942) scale(0.1 -0.1)">
       <defs>
        <path id="CMR17-33" d="M 1414 2176 
C 1984 2176 2234 1673 2234 1094 
C 2234 322 1824 25 1453 25 
C 1114 25 563 193 390 691 
C 422 678 454 678 486 678 
C 640 678 755 780 755 947 
C 755 1132 614 1216 486 1216 
C 378 1216 211 1164 211 927 
C 211 335 787 -128 1466 -128 
C 2176 -128 2720 432 2720 1087 
C 2720 1718 2208 2176 1600 2246 
C 2086 2347 2554 2776 2554 3353 
C 2554 3856 2048 4224 1472 4224 
C 890 4224 378 3862 378 3347 
C 378 3123 544 3084 627 3084 
C 762 3084 877 3167 877 3334 
C 877 3500 762 3584 627 3584 
C 602 3584 570 3584 544 3571 
C 730 3999 1235 4076 1459 4076 
C 1683 4076 2106 3966 2106 3347 
C 2106 3167 2080 2851 1862 2574 
C 1670 2329 1453 2316 1242 2297 
C 1210 2297 1062 2284 1037 2284 
C 992 2278 966 2272 966 2227 
C 966 2182 973 2176 1101 2176 
L 1414 2176 
z
" transform="scale(0.015625)"/>
       </defs>
       <use xlink:href="#CMMI12-19" transform="translate(0 39.226102) scale(0.697382)"/>
       <use xlink:href="#CMR17-33" transform="translate(4.627027 -34.355253) scale(0.697382)"/>
       <path d="M 0 22.914133 
L 41.237221 22.914133 
L 41.237221 26.899083 
L 0 26.899083 
L 0 22.914133 
z
"/>
      </g>
     </g>
    </g>
    <g id="xtick_4">
     <g id="line2d_4">
      <g>
       <use xlink:href="#m4896e9b67d" x="141.161607" y="109.29171" style="stroke: #000000; stroke-width: 0.8"/>
      </g>
     </g>
     <g id="text_4">
      <!-- $\frac{\pi}{2}$ -->
      <g transform="translate(138.707074 123.216942) scale(0.1 -0.1)">
       <defs>
        <path id="CMR17-32" d="M 2669 990 
L 2554 990 
C 2490 537 2438 460 2413 422 
C 2381 371 1920 371 1830 371 
L 602 371 
C 832 620 1280 1073 1824 1596 
C 2214 1966 2669 2400 2669 3033 
C 2669 3788 2067 4224 1395 4224 
C 691 4224 262 3603 262 3027 
C 262 2777 448 2745 525 2745 
C 589 2745 781 2783 781 3007 
C 781 3206 614 3264 525 3264 
C 486 3264 448 3257 422 3244 
C 544 3788 915 4057 1306 4057 
C 1862 4057 2227 3616 2227 3033 
C 2227 2477 1901 1998 1536 1583 
L 262 147 
L 262 0 
L 2515 0 
L 2669 990 
z
" transform="scale(0.015625)"/>
       </defs>
       <use xlink:href="#CMMI12-19" transform="translate(0 39.226102) scale(0.697382)"/>
       <use xlink:href="#CMR17-32" transform="translate(4.627027 -34.355253) scale(0.697382)"/>
       <path d="M 0 22.914133 
L 41.237221 22.914133 
L 41.237221 26.899083 
L 0 26.899083 
L 0 22.914133 
z
"/>
      </g>
     </g>
    </g>
    <g id="xtick_5">
     <g id="line2d_5">
      <g>
       <use xlink:href="#m4896e9b67d" x="170.567108" y="109.29171" style="stroke: #000000; stroke-width: 0.8"/>
      </g>
     </g>
     <g id="text_5">
      <!-- $\frac{2\pi}{3}$ -->
      <g transform="translate(166.126956 124.708572) scale(0.1 -0.1)">
       <use xlink:href="#CMR17-32" transform="translate(0 39.226102) scale(0.697382)"/>
       <use xlink:href="#CMMI12-19" transform="translate(31.983182 39.226102) scale(0.697382)"/>
       <use xlink:href="#CMR17-33" transform="translate(20.618618 -34.355253) scale(0.697382)"/>
       <path d="M 0 22.914133 
L 73.220403 22.914133 
L 73.220403 26.899083 
L 0 26.899083 
L 0 22.914133 
z
"/>
      </g>
     </g>
    </g>
    <g id="xtick_6">
     <g id="line2d_6">
      <g>
       <use xlink:href="#m4896e9b67d" x="199.972609" y="109.29171" style="stroke: #000000; stroke-width: 0.8"/>
      </g>
     </g>
     <g id="text_6">
      <!-- $\frac{5\pi}{6}$ -->
      <g transform="translate(195.532457 124.708572) scale(0.1 -0.1)">
       <defs>
        <path id="CMR17-35" d="M 730 3750 
C 794 3724 1056 3641 1325 3641 
C 1920 3641 2246 3961 2432 4140 
C 2432 4191 2432 4224 2394 4224 
C 2387 4224 2374 4224 2323 4198 
C 2099 4102 1837 4032 1517 4032 
C 1325 4032 1037 4055 723 4191 
C 653 4224 640 4224 634 4224 
C 602 4224 595 4217 595 4090 
L 595 2231 
C 595 2113 595 2080 659 2080 
C 691 2080 704 2093 736 2139 
C 941 2435 1222 2560 1542 2560 
C 1766 2560 2246 2415 2246 1293 
C 2246 1087 2246 716 2054 422 
C 1894 159 1645 25 1370 25 
C 947 25 518 319 403 812 
C 429 806 480 793 506 793 
C 589 793 749 838 749 1036 
C 749 1209 627 1280 506 1280 
C 358 1280 262 1190 262 1011 
C 262 454 704 -128 1382 -128 
C 2042 -128 2669 441 2669 1267 
C 2669 2054 2170 2662 1549 2662 
C 1222 2662 947 2540 730 2304 
L 730 3750 
z
" transform="scale(0.015625)"/>
       </defs>
       <use xlink:href="#CMR17-35" transform="translate(0 39.226102) scale(0.697382)"/>
       <use xlink:href="#CMMI12-19" transform="translate(31.983182 39.226102) scale(0.697382)"/>
       <use xlink:href="#CMR17-36" transform="translate(20.618618 -34.355253) scale(0.697382)"/>
       <path d="M 0 22.914133 
L 73.220403 22.914133 
L 73.220403 26.899083 
L 0 26.899083 
L 0 22.914133 
z
"/>
      </g>
     </g>
    </g>
    <g id="xtick_7">
     <g id="line2d_7">
      <g>
       <use xlink:href="#m4896e9b67d" x="229.37811" y="109.29171" style="stroke: #000000; stroke-width: 0.8"/>
      </g>
     </g>
     <g id="text_7">
      <!-- $\pi$ -->
      <g transform="translate(226.538622 123.210208) scale(0.1 -0.1)">
       <use xlink:href="#CMMI12-19" transform="scale(0.996264)"/>
      </g>
     </g>
    </g>
    <g id="text_8">
     <!-- $\phi$ -->
     <g transform="translate(138.193565 139.062582) scale(0.1 -0.1)">
      <defs>
       <path id="CMMI12-1e" d="M 2752 4358 
C 2752 4416 2707 4416 2688 4416 
C 2630 4416 2624 4403 2598 4294 
L 2253 2924 
C 2234 2841 2227 2835 2221 2828 
C 2214 2816 2170 2809 2157 2809 
C 1107 2720 301 1863 301 1071 
C 301 387 832 -32 1498 -71 
C 1446 -266 1402 -467 1350 -662 
C 1261 -995 1210 -1204 1210 -1229 
C 1210 -1242 1210 -1280 1274 -1280 
C 1293 -1280 1318 -1280 1331 -1255 
C 1344 -1242 1382 -1089 1408 -1008 
L 1645 -71 
C 2739 -13 3571 875 3571 1673 
C 3571 2313 3085 2771 2374 2816 
L 2752 4358 
z
M 2336 2688 
C 2758 2662 3181 2428 3181 1806 
C 3181 1090 2675 140 1677 64 
L 2336 2688 
z
M 1530 57 
C 1216 76 691 241 691 938 
C 691 1737 1274 2624 2195 2681 
L 1530 57 
z
" transform="scale(0.015625)"/>
      </defs>
      <use xlink:href="#CMMI12-1e" transform="scale(0.996264)"/>
     </g>
    </g>
   </g>
   <g id="matplotlib.axis_2">
    <g id="ytick_1">
     <g id="line2d_8">
      <defs>
       <path id="m51fc0b1f3e" d="M 0 0 
L -3.5 0 
" style="stroke: #000000; stroke-width: 0.8"/>
      </defs>
      <g>
       <use xlink:href="#m51fc0b1f3e" x="44.123453" y="80.34989" style="stroke: #000000; stroke-width: 0.8"/>
      </g>
     </g>
     <g id="text_9">
      <!-- $\mathdefault{10^{-1}}$ -->
      <g transform="translate(16.96288 83.809139) scale(0.1 -0.1)">
       <defs>
        <path id="CMR17-31" d="M 1702 4083 
C 1702 4217 1696 4224 1606 4224 
C 1357 3927 979 3833 621 3820 
C 602 3820 570 3820 563 3808 
C 557 3795 557 3782 557 3648 
C 755 3648 1088 3686 1344 3839 
L 1344 467 
C 1344 243 1331 166 781 166 
L 589 166 
L 589 0 
C 896 6 1216 12 1523 12 
C 1830 12 2150 6 2458 0 
L 2458 166 
L 2266 166 
C 1715 166 1702 236 1702 467 
L 1702 4083 
z
" transform="scale(0.015625)"/>
        <path id="CMSY10-0" d="M 4218 1472 
C 4326 1472 4442 1472 4442 1600 
C 4442 1728 4326 1728 4218 1728 
L 755 1728 
C 646 1728 531 1728 531 1600 
C 531 1472 646 1472 755 1472 
L 4218 1472 
z
" transform="scale(0.015625)"/>
       </defs>
       <use xlink:href="#CMR17-31" transform="scale(0.996264)"/>
       <use xlink:href="#CMR17-30" transform="translate(45.690477 0) scale(0.996264)"/>
       <use xlink:href="#CMSY10-0" transform="translate(91.380954 36.153639) scale(0.697382)"/>
       <use xlink:href="#CMR17-31" transform="translate(145.621947 36.153639) scale(0.697382)"/>
      </g>
     </g>
    </g>
    <g id="ytick_2">
     <g id="line2d_9">
      <g>
       <use xlink:href="#m51fc0b1f3e" x="44.123453" y="35.859264" style="stroke: #000000; stroke-width: 0.8"/>
      </g>
     </g>
     <g id="text_10">
      <!-- $\mathdefault{10^{1}}$ -->
      <g transform="translate(23.189545 39.318514) scale(0.1 -0.1)">
       <use xlink:href="#CMR17-31" transform="scale(0.996264)"/>
       <use xlink:href="#CMR17-30" transform="translate(45.690477 0) scale(0.996264)"/>
       <use xlink:href="#CMR17-31" transform="translate(91.380954 36.153639) scale(0.697382)"/>
      </g>
     </g>
    </g>
    <g id="text_11">
     <!-- $\sigma / \lambda$ -->
     <g transform="translate(10.47222 64.567534) rotate(-90) scale(0.1 -0.1)">
      <defs>
       <path id="CMMI12-1b" d="M 3251 2406 
C 3334 2406 3546 2406 3546 2611 
C 3546 2752 3424 2752 3309 2752 
L 1894 2752 
C 934 2752 243 1685 243 932 
C 243 389 595 -64 1171 -64 
C 1926 -64 2752 746 2752 1704 
C 2752 1953 2694 2195 2541 2406 
L 3251 2406 
z
M 1178 64 
C 851 64 614 312 614 753 
C 614 1136 845 2406 1786 2406 
C 2061 2406 2368 2272 2368 1780 
C 2368 1557 2266 1021 2042 651 
C 1811 274 1466 64 1178 64 
z
" transform="scale(0.015625)"/>
       <path id="CMMI12-3d" d="M 2746 4563 
C 2746 4569 2784 4665 2784 4678 
C 2784 4755 2720 4800 2669 4800 
C 2637 4800 2579 4800 2528 4659 
L 384 -1364 
C 384 -1370 346 -1466 346 -1479 
C 346 -1556 410 -1600 461 -1600 
C 499 -1600 557 -1594 602 -1460 
L 2746 4563 
z
" transform="scale(0.015625)"/>
       <path id="CMMI12-15" d="M 1978 3963 
C 1818 4416 1312 4416 1229 4416 
C 1190 4416 1120 4416 1120 4351 
C 1120 4300 1158 4294 1190 4287 
C 1286 4275 1363 4262 1466 4078 
C 1530 3957 2189 2055 2189 2042 
C 2189 2036 2182 2029 2131 1978 
L 467 305 
C 390 229 339 178 339 95 
C 339 6 416 -71 518 -71 
C 544 -71 614 -58 653 -20 
C 755 76 1670 1190 2253 1877 
C 2419 1380 2624 795 2822 261 
C 2854 165 2886 76 2976 -7 
C 3040 -64 3053 -64 3232 -64 
L 3354 -64 
C 3379 -64 3424 -64 3424 -13 
C 3424 12 3418 19 3392 44 
C 3334 114 3290 229 3264 305 
L 1978 3963 
z
" transform="scale(0.015625)"/>
      </defs>
      <use xlink:href="#CMMI12-1b" transform="scale(0.996264)"/>
      <use xlink:href="#CMMI12-3d" transform="translate(59.020054 0) scale(0.996264)"/>
      <use xlink:href="#CMMI12-15" transform="translate(107.794972 0) scale(0.996264)"/>
     </g>
    </g>
   </g>
   <g id="line2d_10">
    <path d="M 52.945104 27.871405 
L 55.885654 27.970031 
L 58.826204 28.266879 
L 61.766754 28.764908 
L 64.707304 29.469228 
L 67.647854 30.387385 
L 70.588404 31.529809 
L 73.528954 32.910487 
L 76.469505 34.547945 
L 79.410055 36.466711 
L 82.350605 38.699516 
L 85.291155 41.290678 
L 88.231705 44.301457 
L 90.192072 46.58325 
L 92.152438 49.124174 
L 94.112805 51.96955 
L 96.073172 55.178856 
L 98.033539 58.829591 
L 99.993905 63.017363 
L 101.954272 67.833488 
L 105.875006 78.576915 
L 106.855189 80.58084 
L 107.835372 81.620881 
L 108.815556 81.499759 
L 109.795739 80.39689 
L 111.756106 76.806023 
L 113.716472 73.114021 
L 115.676839 70.01509 
L 117.637206 67.556842 
L 119.597573 65.651866 
L 121.557939 64.207262 
L 123.518306 63.148279 
L 125.478673 62.418515 
L 127.43904 61.976109 
L 129.399406 61.790125 
L 131.359773 61.837797 
L 133.32014 62.102551 
L 135.280507 62.572587 
L 137.240873 63.239842 
L 139.20124 64.09919 
L 141.161607 65.147744 
L 143.121973 66.38411 
L 145.08234 67.807432 
L 148.02289 70.288219 
L 150.96344 73.160289 
L 154.884174 77.440631 
L 157.824724 80.664763 
L 159.785091 82.545614 
L 161.745457 83.971869 
L 162.725641 84.455916 
L 163.705824 84.768853 
L 164.686008 84.909243 
L 165.666191 84.886079 
L 166.646374 84.717048 
L 168.606741 84.037317 
L 170.567108 83.069267 
L 178.408575 78.836588 
L 182.329308 77.065363 
L 198.992425 69.966342 
L 206.833892 66.418043 
L 210.754626 64.84953 
L 214.675359 63.516807 
L 218.596093 62.465784 
L 221.536643 61.879726 
L 224.477193 61.475122 
L 227.417743 61.256131 
L 229.37811 61.214333 
L 229.37811 61.214333 
" clip-path="url(#p2dea944a16)" style="fill: none; stroke: #0000ff; stroke-width: 0.75; stroke-linecap: square"/>
   </g>
   <g id="line2d_11">
    <path d="M 52.945104 43.928238 
L 57.846021 44.065738 
L 62.746937 44.439943 
L 76.469505 45.676664 
L 81.370421 45.803848 
L 95.092989 45.938504 
L 98.033539 46.256313 
L 100.974089 46.796501 
L 103.914639 47.616353 
L 105.875006 48.349488 
L 107.835372 49.257153 
L 109.795739 50.365329 
L 111.756106 51.705816 
L 113.716472 53.318945 
L 115.676839 55.257694 
L 117.637206 57.594149 
L 119.597573 60.429947 
L 121.557939 63.913073 
L 123.518306 68.261536 
L 124.49849 70.850901 
L 126.458856 77.018708 
L 128.419223 83.872512 
L 129.399406 86.178505 
L 130.37959 86.289739 
L 131.359773 84.164223 
L 135.280507 71.493433 
L 137.240873 66.772851 
L 139.20124 63.084347 
L 141.161607 60.171761 
L 143.121973 57.859168 
L 145.08234 56.029476 
L 147.042707 54.603705 
L 149.003074 53.527688 
L 150.96344 52.763972 
L 152.923807 52.286879 
L 154.884174 52.079465 
L 156.844541 52.131667 
L 158.804907 52.439236 
L 160.765274 53.003236 
L 162.725641 53.830032 
L 164.686008 54.931725 
L 166.646374 56.327132 
L 168.606741 58.04344 
L 170.567108 60.118832 
L 172.527474 62.606478 
L 174.487841 65.580321 
L 176.448208 69.142356 
L 178.408575 73.426025 
L 180.368941 78.563221 
L 183.309491 87.33604 
L 184.289675 89.672899 
L 185.269858 90.863101 
L 186.250042 90.569583 
L 187.230225 89.056493 
L 191.150958 80.400162 
L 193.111325 77.043438 
L 195.071692 74.484783 
L 197.032059 72.578417 
L 198.992425 71.19935 
L 200.952792 70.252033 
L 202.913159 69.663262 
L 204.873526 69.374698 
L 206.833892 69.337151 
L 208.794259 69.506462 
L 211.734809 70.056571 
L 215.655543 71.123368 
L 221.536643 72.770039 
L 224.477193 73.359787 
L 227.417743 73.694377 
L 229.37811 73.759332 
L 229.37811 73.759332 
" clip-path="url(#p2dea944a16)" style="fill: none; stroke: #ff0000; stroke-width: 0.75; stroke-linecap: square"/>
   </g>
   <g id="line2d_12">
    <path d="M 52.945104 54.571101 
L 54.905471 54.723231 
L 56.865837 55.181623 
L 58.826204 55.951743 
L 60.786571 57.040464 
L 62.746937 58.450876 
L 64.707304 60.170117 
L 67.647854 63.181498 
L 69.608221 65.193695 
L 70.588404 66.055691 
L 71.568588 66.725864 
L 72.548771 67.128168 
L 73.528954 67.202383 
L 74.509138 66.922092 
L 75.489321 66.30369 
L 76.469505 65.400545 
L 78.429871 63.036204 
L 83.330788 56.549008 
L 85.291155 54.299818 
L 87.251522 52.335231 
L 89.211888 50.652403 
L 91.172255 49.237443 
L 93.132622 48.074012 
L 95.092989 47.146826 
L 97.053355 46.442961 
L 99.013722 45.952224 
L 100.974089 45.667195 
L 102.934455 45.583163 
L 104.894822 45.698092 
L 106.855189 46.012666 
L 108.815556 46.53046 
L 110.775922 47.258276 
L 112.736289 48.206708 
L 114.696656 49.391038 
L 116.657023 50.832621 
L 118.617389 52.561058 
L 120.577756 54.617668 
L 122.538123 57.061253 
L 124.49849 59.978181 
L 126.458856 63.501178 
L 128.419223 67.847532 
L 129.399406 70.439779 
L 130.37959 73.405812 
L 131.359773 76.856903 
L 132.339956 80.961836 
L 133.32014 85.984879 
L 134.300323 92.324471 
L 135.280507 100.252327 
L 136.26069 106.736549 
L 137.240873 103.087852 
L 138.221057 95.485156 
L 139.20124 89.26761 
L 140.181423 84.493369 
L 141.161607 80.736342 
L 142.14179 77.696574 
L 143.121973 75.182956 
L 144.102157 73.070869 
L 145.08234 71.2758 
L 146.062524 69.738244 
L 148.02289 67.273426 
L 149.983257 65.442197 
L 151.943624 64.102901 
L 153.903991 63.163798 
L 155.864357 62.562301 
L 157.824724 62.253892 
L 159.785091 62.205725 
L 161.745457 62.392665 
L 163.705824 62.794633 
L 165.666191 63.394642 
L 167.626558 64.177145 
L 170.567108 65.658141 
L 173.507658 67.449518 
L 177.428391 70.148314 
L 181.349125 72.81557 
L 183.309491 73.927954 
L 185.269858 74.748861 
L 187.230225 75.177506 
L 188.210408 75.223404 
L 189.190592 75.15298 
L 191.150958 74.675952 
L 193.111325 73.806732 
L 195.071692 72.641322 
L 198.012242 70.559019 
L 205.853709 64.716046 
L 208.794259 62.775098 
L 211.734809 61.056826 
L 214.675359 59.583869 
L 217.615909 58.369001 
L 220.556459 57.419433 
L 223.49701 56.73917 
L 226.43756 56.330341 
L 229.37811 56.193966 
L 229.37811 56.193966 
" clip-path="url(#p2dea944a16)" style="fill: none; stroke: #00bfbf; stroke-width: 0.75; stroke-linecap: square"/>
   </g>
   <g id="line2d_13">
    <path d="M 52.945104 35.472533 
L 56.865837 35.617564 
L 60.786571 36.050818 
L 64.707304 36.766354 
L 68.628038 37.752869 
L 72.548771 38.991689 
L 76.469505 40.454357 
L 81.370421 42.53529 
L 88.231705 45.735017 
L 101.954272 52.407949 
L 106.855189 55.05346 
L 110.775922 57.442805 
L 115.676839 60.759946 
L 118.617389 62.716684 
L 120.577756 63.821769 
L 122.538123 64.604146 
L 123.518306 64.828827 
L 124.49849 64.923483 
L 125.478673 64.880474 
L 126.458856 64.699026 
L 127.43904 64.385426 
L 129.399406 63.416251 
L 131.359773 62.115216 
L 141.161607 54.981784 
L 144.102157 53.376043 
L 147.042707 52.121514 
L 149.983257 51.21773 
L 152.923807 50.655327 
L 155.864357 50.421481 
L 158.804907 50.501412 
L 161.745457 50.877596 
L 164.686008 51.527207 
L 167.626558 52.417723 
L 171.547291 53.892356 
L 179.388758 57.01629 
L 182.329308 57.844241 
L 184.289675 58.184627 
L 186.250042 58.331433 
L 188.210408 58.284513 
L 190.170775 58.061583 
L 193.111325 57.466126 
L 197.032059 56.377314 
L 206.833892 53.514659 
L 211.734809 52.378793 
L 216.635726 51.511539 
L 221.536643 50.92018 
L 225.457376 50.648353 
L 229.37811 50.557478 
L 229.37811 50.557478 
" clip-path="url(#p2dea944a16)" style="fill: none; stroke: #000000; stroke-width: 0.75; stroke-linecap: square"/>
   </g>
   <g id="line2d_14">
    <path d="M 52.945104 27.757693 
L 55.885654 27.869315 
L 58.826204 28.197184 
L 61.766754 28.733965 
L 64.707304 29.471367 
L 67.647854 30.42175 
L 70.588404 31.596884 
L 73.528954 33.002464 
L 76.469505 34.63819 
L 79.410055 36.507233 
L 82.350605 38.63055 
L 85.291155 41.093326 
L 87.251522 42.998787 
L 89.211888 45.190051 
L 91.172255 47.746034 
L 93.132622 50.755753 
L 95.092989 54.30845 
L 97.053355 58.487121 
L 99.013722 63.359962 
L 100.974089 68.948609 
L 105.875006 83.992076 
L 106.855189 85.493057 
L 107.835372 85.551165 
L 108.815556 84.272673 
L 109.795739 82.145787 
L 112.736289 74.84602 
L 114.696656 70.754382 
L 116.657023 67.527956 
L 117.637206 66.21903 
L 118.617389 65.103583 
L 119.597573 64.162435 
L 120.577756 63.399556 
L 121.557939 62.799792 
L 122.538123 62.356677 
L 123.518306 62.06459 
L 124.49849 61.914775 
L 126.458856 61.980925 
L 128.419223 62.414164 
L 132.339956 63.528912 
L 134.300323 63.850061 
L 141.161607 64.52505 
L 143.121973 65.177927 
L 145.08234 66.1962 
L 147.042707 67.639335 
L 149.003074 69.582736 
L 150.96344 72.134014 
L 152.923807 75.361026 
L 154.884174 79.260161 
L 158.804907 87.764548 
L 159.785091 89.478911 
L 160.765274 90.752079 
L 161.745457 91.499414 
L 162.725641 91.679625 
L 163.705824 91.346243 
L 164.686008 90.592474 
L 165.666191 89.544179 
L 168.606741 85.719303 
L 170.567108 83.298683 
L 172.527474 81.232929 
L 174.487841 79.508698 
L 176.448208 78.052002 
L 178.408575 76.830891 
L 180.368941 75.868676 
L 182.329308 75.202769 
L 184.289675 74.825392 
L 187.230225 74.629704 
L 190.170775 74.402572 
L 192.131142 73.959296 
L 194.091509 73.178422 
L 196.051875 72.081218 
L 198.992425 70.072499 
L 202.913159 67.379122 
L 204.873526 66.231562 
L 206.833892 65.269138 
L 208.794259 64.491075 
L 211.734809 63.633892 
L 214.675359 63.061979 
L 219.576276 62.406509 
L 226.43756 61.611697 
L 229.37811 61.486447 
L 229.37811 61.486447 
" clip-path="url(#p2dea944a16)" style="fill: none; stroke-dasharray: 2.775,1.2; stroke-dashoffset: 0; stroke: #0000ff; stroke-width: 0.75"/>
   </g>
   <g id="line2d_15">
    <path d="M 52.945104 43.422623 
L 55.885654 43.543189 
L 60.786571 44.056292 
L 69.608221 44.983392 
L 79.410055 45.889978 
L 84.310972 46.013749 
L 90.192072 46.14875 
L 94.112805 46.465632 
L 100.974089 47.289155 
L 103.914639 47.760914 
L 105.875006 48.234621 
L 107.835372 48.919936 
L 109.795739 49.891108 
L 111.756106 51.210802 
L 113.716472 52.924223 
L 115.676839 55.060444 
L 117.637206 57.632665 
L 119.597573 60.64879 
L 121.557939 64.140077 
L 123.518306 68.208847 
L 125.478673 73.08633 
L 127.43904 79.10336 
L 129.399406 85.70147 
L 130.37959 87.683747 
L 131.359773 87.207018 
L 132.339956 84.421989 
L 135.280507 73.344223 
L 136.26069 70.2497 
L 137.240873 67.531045 
L 138.221057 65.150242 
L 139.20124 63.071038 
L 140.181423 61.254214 
L 141.161607 59.675242 
L 142.14179 58.308451 
L 144.102157 56.128546 
L 146.062524 54.572656 
L 148.02289 53.528832 
L 149.983257 52.878943 
L 151.943624 52.522336 
L 153.903991 52.36346 
L 156.844541 52.382928 
L 158.804907 52.547507 
L 160.765274 52.875875 
L 162.725641 53.414952 
L 164.686008 54.237356 
L 166.646374 55.408404 
L 168.606741 56.991896 
L 170.567108 59.038647 
L 172.527474 61.612431 
L 174.487841 64.760883 
L 176.448208 68.551109 
L 178.408575 73.07137 
L 180.368941 78.357639 
L 182.329308 84.051774 
L 183.309491 86.556503 
L 184.289675 88.259167 
L 185.269858 88.72036 
L 186.250042 87.900162 
L 187.230225 86.20874 
L 190.170775 80.099547 
L 192.131142 76.816535 
L 193.111325 75.498158 
L 194.091509 74.370202 
L 196.051875 72.601833 
L 198.012242 71.340572 
L 199.972609 70.439097 
L 201.932975 69.790035 
L 203.893342 69.348702 
L 205.853709 69.11476 
L 207.814076 69.110834 
L 209.774442 69.369543 
L 211.734809 69.894559 
L 213.695176 70.6343 
L 217.615909 72.28378 
L 219.576276 72.845396 
L 221.536643 73.051442 
L 223.49701 72.919191 
L 229.37811 72.080666 
L 229.37811 72.080666 
" clip-path="url(#p2dea944a16)" style="fill: none; stroke-dasharray: 2.775,1.2; stroke-dashoffset: 0; stroke: #ff0000; stroke-width: 0.75"/>
   </g>
   <g id="line2d_16">
    <path d="M 52.945104 51.836444 
L 53.925287 51.924451 
L 54.905471 52.137689 
L 56.865837 52.922524 
L 58.826204 54.137594 
L 60.786571 55.70341 
L 63.727121 58.4913 
L 67.647854 62.381792 
L 69.608221 64.080827 
L 71.568588 65.387836 
L 72.548771 65.82581 
L 73.528954 66.077826 
L 74.509138 66.112567 
L 75.489321 65.906775 
L 76.469505 65.450063 
L 77.449688 64.750672 
L 78.429871 63.842021 
L 80.390238 61.580457 
L 85.291155 55.463866 
L 87.251522 53.377591 
L 89.211888 51.586303 
L 91.172255 50.072452 
L 93.132622 48.811837 
L 95.092989 47.77576 
L 97.053355 46.95695 
L 99.013722 46.338579 
L 100.974089 45.924989 
L 102.934455 45.720246 
L 104.894822 45.723516 
L 106.855189 45.957311 
L 108.815556 46.430259 
L 110.775922 47.15423 
L 112.736289 48.127768 
L 114.696656 49.356955 
L 116.657023 50.839319 
L 118.617389 52.57791 
L 120.577756 54.590967 
L 122.538123 56.920952 
L 124.49849 59.642113 
L 126.458856 62.90418 
L 128.419223 66.916334 
L 129.399406 69.309959 
L 130.37959 72.045253 
L 131.359773 75.210162 
L 132.339956 78.918548 
L 133.32014 83.30845 
L 135.280507 94.054566 
L 136.26069 97.895938 
L 137.240873 96.711777 
L 140.181423 83.381514 
L 141.161607 80.088673 
L 142.14179 77.397159 
L 143.121973 75.177923 
L 144.102157 73.331065 
L 145.08234 71.77839 
L 147.042707 69.327062 
L 149.003074 67.48112 
L 150.96344 66.023006 
L 152.923807 64.813912 
L 154.884174 63.806962 
L 156.844541 62.992621 
L 158.804907 62.41694 
L 160.765274 62.137906 
L 162.725641 62.202033 
L 164.686008 62.635426 
L 166.646374 63.43257 
L 168.606741 64.541338 
L 171.547291 66.558463 
L 174.487841 68.595013 
L 176.448208 69.766635 
L 178.408575 70.737394 
L 181.349125 71.919151 
L 186.250042 73.674786 
L 188.210408 74.211098 
L 190.170775 74.406488 
L 191.150958 74.313596 
L 192.131142 74.071309 
L 193.111325 73.674015 
L 194.091509 73.128696 
L 196.051875 71.675401 
L 198.992425 69.016784 
L 201.932975 66.392763 
L 203.893342 64.852368 
L 205.853709 63.510061 
L 208.794259 61.799276 
L 212.714992 59.82467 
L 217.615909 57.589854 
L 220.556459 56.459162 
L 223.49701 55.597588 
L 226.43756 55.059201 
L 228.397926 54.890423 
L 229.37811 54.865312 
L 229.37811 54.865312 
" clip-path="url(#p2dea944a16)" style="fill: none; stroke-dasharray: 2.775,1.2; stroke-dashoffset: 0; stroke: #00bfbf; stroke-width: 0.75"/>
   </g>
   <g id="line2d_17">
    <path d="M 52.945104 35.311115 
L 55.885654 35.470709 
L 58.826204 35.873135 
L 64.707304 37.012207 
L 70.588404 38.3468 
L 73.528954 39.236028 
L 76.469505 40.358245 
L 80.390238 42.154162 
L 97.053355 50.294937 
L 99.993905 51.393744 
L 104.894822 53.031174 
L 106.855189 53.955967 
L 108.815556 55.183294 
L 110.775922 56.722107 
L 116.657023 61.809895 
L 117.637206 62.412441 
L 118.617389 62.880026 
L 120.577756 63.442562 
L 123.518306 63.782546 
L 128.419223 64.186024 
L 129.399406 64.066017 
L 130.37959 63.77438 
L 131.359773 63.282919 
L 132.339956 62.59925 
L 134.300323 60.781284 
L 138.221057 56.72585 
L 140.181423 55.043018 
L 142.14179 53.715834 
L 144.102157 52.725379 
L 146.062524 52.007973 
L 149.003074 51.277918 
L 155.864357 50.032219 
L 158.804907 49.703466 
L 160.765274 49.707879 
L 162.725641 49.943794 
L 164.686008 50.409192 
L 167.626558 51.442152 
L 175.468025 54.553753 
L 179.388758 55.713629 
L 186.250042 57.503804 
L 188.210408 57.819842 
L 190.170775 57.934722 
L 192.131142 57.834662 
L 195.071692 57.360107 
L 198.992425 56.373167 
L 212.714992 52.627772 
L 215.655543 52.16318 
L 218.596093 51.931961 
L 222.516826 51.902023 
L 229.37811 52.067273 
L 229.37811 52.067273 
" clip-path="url(#p2dea944a16)" style="fill: none; stroke-dasharray: 2.775,1.2; stroke-dashoffset: 0; stroke: #000000; stroke-width: 0.75"/>
   </g>
   <g id="patch_3">
    <path d="M 44.123453 109.29171 
L 44.123453 3.00024 
" style="fill: none; stroke: #000000; stroke-width: 0.8; stroke-linejoin: miter; stroke-linecap: square"/>
   </g>
   <g id="patch_4">
    <path d="M 238.19976 109.29171 
L 238.19976 3.00024 
" style="fill: none; stroke: #000000; stroke-width: 0.8; stroke-linejoin: miter; stroke-linecap: square"/>
   </g>
   <g id="patch_5">
    <path d="M 44.123453 109.29171 
L 238.19976 109.29171 
" style="fill: none; stroke: #000000; stroke-width: 0.8; stroke-linejoin: miter; stroke-linecap: square"/>
   </g>
   <g id="patch_6">
    <path d="M 44.123453 3.00024 
L 238.19976 3.00024 
" style="fill: none; stroke: #000000; stroke-width: 0.8; stroke-linejoin: miter; stroke-linecap: square"/>
   </g>
   <g id="legend_1">
    <g id="patch_7">
     <path d="M 91.574007 38.874597 
L 231.19976 38.874597 
Q 233.19976 38.874597 233.19976 36.874597 
L 233.19976 10.00024 
Q 233.19976 8.00024 231.19976 8.00024 
L 91.574007 8.00024 
Q 89.574007 8.00024 89.574007 10.00024 
L 89.574007 36.874597 
Q 89.574007 38.874597 91.574007 38.874597 
z
" style="fill: #ffffff; opacity: 0.8; stroke: #cccccc; stroke-linejoin: miter"/>
    </g>
    <g id="patch_8">
     <path d="M 93.574007 19.00024 
L 113.574007 19.00024 
L 113.574007 12.00024 
L 93.574007 12.00024 
z
" style="fill: #0000ff; stroke: #0000ff; stroke-linejoin: miter"/>
    </g>
    <g id="text_12">
     <!-- $\varepsilon_r = 2$ -->
     <g transform="translate(121.574007 19.00024) scale(0.1 -0.1)">
      <defs>
       <path id="CMMI12-22" d="M 890 1427 
C 1094 1344 1312 1344 1434 1344 
C 1600 1344 1933 1344 1933 1554 
C 1933 1683 1811 1728 1485 1728 
C 1325 1728 1133 1708 909 1612 
C 710 1708 634 1853 634 1991 
C 634 2379 1261 2604 1830 2604 
C 1939 2604 2170 2604 2438 2410 
C 2477 2385 2496 2366 2541 2366 
C 2618 2366 2701 2448 2701 2523 
C 2701 2636 2330 2880 1888 2880 
C 1171 2880 493 2454 493 1991 
C 493 1759 646 1612 755 1508 
C 384 1288 166 953 166 649 
C 166 221 563 -128 1178 -128 
C 2022 -128 2362 426 2362 513 
C 2362 544 2336 568 2304 568 
C 2272 568 2259 550 2234 513 
C 2163 395 1997 147 1235 147 
C 838 147 314 246 314 686 
C 314 897 474 1213 890 1427 
z
M 1088 1517 
C 1261 1599 1427 1599 1472 1599 
C 1651 1599 1683 1581 1786 1545 
C 1677 1472 1664 1472 1434 1472 
C 1318 1472 1216 1472 1088 1517 
z
" transform="scale(0.015625)"/>
       <path id="CMMI12-72" d="M 2490 2633 
C 2291 2598 2189 2457 2189 2316 
C 2189 2163 2310 2111 2400 2111 
C 2579 2111 2726 2265 2726 2457 
C 2726 2651 2528 2816 2208 2816 
C 1952 2816 1658 2700 1389 2335 
C 1344 2660 1088 2816 832 2816 
C 582 2816 454 2642 378 2508 
C 269 2278 173 1892 173 1860 
C 173 1834 198 1801 243 1801 
C 294 1801 301 1808 339 1957 
C 435 2342 557 2687 813 2687 
C 966 2687 1011 2604 1011 2419 
C 1011 2278 947 2028 902 1827 
L 723 1130 
C 698 1007 627 716 595 600 
C 550 432 480 128 480 96 
C 480 6 550 -64 646 -64 
C 717 -64 838 -20 877 109 
C 896 160 1133 1136 1171 1285 
C 1203 1427 1242 1562 1274 1705 
C 1299 1795 1325 1898 1344 1982 
C 1363 2040 1536 2355 1696 2495 
C 1773 2566 1939 2687 2202 2687 
C 2304 2687 2406 2674 2490 2633 
z
" transform="scale(0.015625)"/>
       <path id="CMR17-3d" d="M 4115 2048 
C 4211 2048 4307 2048 4307 2156 
C 4307 2272 4198 2272 4090 2272 
L 512 2272 
C 403 2272 294 2272 294 2156 
C 294 2048 390 2048 486 2048 
L 4115 2048 
z
M 4090 927 
C 4198 927 4307 927 4307 1043 
C 4307 1152 4211 1152 4115 1152 
L 486 1152 
C 390 1152 294 1152 294 1043 
C 294 927 403 927 512 927 
L 4090 927 
z
" transform="scale(0.015625)"/>
      </defs>
      <use xlink:href="#CMMI12-22" transform="scale(0.996264)"/>
      <use xlink:href="#CMMI12-72" transform="translate(45.650192 -14.943915) scale(0.697382)"/>
      <use xlink:href="#CMR17-3d" transform="translate(106.491602 0) scale(0.996264)"/>
      <use xlink:href="#CMR17-32" transform="translate(205.880399 0) scale(0.996264)"/>
     </g>
    </g>
    <g id="patch_9">
     <path d="M 93.574007 32.937418 
L 113.574007 32.937418 
L 113.574007 25.937418 
L 93.574007 25.937418 
z
" style="fill: #ff0000; stroke: #ff0000; stroke-linejoin: miter"/>
    </g>
    <g id="text_13">
     <!-- $\varepsilon_r = 5$ -->
     <g transform="translate(121.574007 32.937418) scale(0.1 -0.1)">
      <use xlink:href="#CMMI12-22" transform="scale(0.996264)"/>
      <use xlink:href="#CMMI12-72" transform="translate(45.650192 -14.943915) scale(0.697382)"/>
      <use xlink:href="#CMR17-3d" transform="translate(106.491602 0) scale(0.996264)"/>
      <use xlink:href="#CMR17-35" transform="translate(205.880399 0) scale(0.996264)"/>
     </g>
    </g>
    <g id="patch_10">
     <path d="M 168.896216 19.00024 
L 188.896216 19.00024 
L 188.896216 12.00024 
L 168.896216 12.00024 
z
" style="fill: #00bfbf; stroke: #00bfbf; stroke-linejoin: miter"/>
    </g>
    <g id="text_14">
     <!-- $\varepsilon_r = 10$ -->
     <g transform="translate(196.896216 19.00024) scale(0.1 -0.1)">
      <use xlink:href="#CMMI12-22" transform="scale(0.996264)"/>
      <use xlink:href="#CMMI12-72" transform="translate(45.650192 -14.943915) scale(0.697382)"/>
      <use xlink:href="#CMR17-3d" transform="translate(106.491602 0) scale(0.996264)"/>
      <use xlink:href="#CMR17-31" transform="translate(205.880399 0) scale(0.996264)"/>
      <use xlink:href="#CMR17-30" transform="translate(251.570876 0) scale(0.996264)"/>
     </g>
    </g>
    <g id="patch_11">
     <path d="M 168.896216 32.937418 
L 188.896216 32.937418 
L 188.896216 25.937418 
L 168.896216 25.937418 
z
" style="stroke: #000000; stroke-linejoin: miter"/>
    </g>
    <g id="text_15">
     <!-- $\varepsilon_r = 20$ -->
     <g transform="translate(196.896216 32.937418) scale(0.1 -0.1)">
      <use xlink:href="#CMMI12-22" transform="scale(0.996264)"/>
      <use xlink:href="#CMMI12-72" transform="translate(45.650192 -14.943915) scale(0.697382)"/>
      <use xlink:href="#CMR17-3d" transform="translate(106.491602 0) scale(0.996264)"/>
      <use xlink:href="#CMR17-32" transform="translate(205.880399 0) scale(0.996264)"/>
      <use xlink:href="#CMR17-30" transform="translate(251.570876 0) scale(0.996264)"/>
     </g>
    </g>
   </g>
  </g>
 </g>
 <defs>
  <clipPath id="p2dea944a16">
   <rect x="44.123453" y="3.00024" width="194.076307" height="106.29147"/>
  </clipPath>
 </defs>
</svg>
