<?xml version="1.0" encoding="utf-8" standalone="no"?>
<!DOCTYPE svg PUBLIC "-//W3C//DTD SVG 1.1//EN"
  "http://www.w3.org/Graphics/SVG/1.1/DTD/svg11.dtd">
<svg xmlns:xlink="http://www.w3.org/1999/xlink" width="160.56pt" height="160.56pt" viewBox="0 0 160.56 160.56" xmlns="http://www.w3.org/2000/svg" version="1.1">
 <metadata>
  <rdf:RDF xmlns:dc="http://purl.org/dc/elements/1.1/" xmlns:cc="http://creativecommons.org/ns#" xmlns:rdf="http://www.w3.org/1999/02/22-rdf-syntax-ns#">
   <cc:Work>
    <dc:type rdf:resource="http://purl.org/dc/dcmitype/StillImage"/>
    <dc:date>2025-09-28T15:36:54.461715</dc:date>
    <dc:format>image/svg+xml</dc:format>
    <dc:creator>
     <cc:Agent>
      <dc:title>Matplotlib v3.6.3, https://matplotlib.org/</dc:title>
     </cc:Agent>
    </dc:creator>
   </cc:Work>
  </rdf:RDF>
 </metadata>
 <defs>
  <style type="text/css">*{stroke-linejoin: round; stroke-linecap: butt}</style>
 </defs>
 <g id="figure_1">
  <g id="patch_1">
   <path d="M 0 160.56 
L 160.56 160.56 
L 160.56 0 
L 0 0 
z
" style="fill: #ffffff"/>
  </g>
  <g id="axes_1">
   <g id="patch_2">
    <path d="M 157.55976 80.28 
C 157.55976 70.131715 155.560769 60.082109 151.677189 50.706316 
C 147.793608 41.330523 142.100964 32.810879 134.925042 25.634958 
C 127.749121 18.459036 119.229477 12.766392 109.853684 8.882811 
C 100.477891 4.999231 90.428285 3.00024 80.28 3.00024 
C 70.131715 3.00024 60.082109 4.999231 50.706316 8.882811 
C 41.330523 12.766392 32.810879 18.459036 25.634958 25.634958 
C 18.459036 32.810879 12.766392 41.330523 8.882811 50.706316 
C 4.999231 60.082109 3.00024 70.131715 3.00024 80.28 
C 3.00024 90.428285 4.999231 100.477891 8.882811 109.853684 
C 12.766392 119.229477 18.459036 127.749121 25.634958 134.925042 
C 32.810879 142.100964 41.330523 147.793608 50.706316 151.677189 
C 60.082109 155.560769 70.131715 157.55976 80.28 157.55976 
C 90.428285 157.55976 100.477891 155.560769 109.853684 151.677189 
C 119.229477 147.793608 127.749121 142.100964 134.925042 134.925042 
C 142.100964 127.749121 147.793608 119.229477 151.677189 109.853684 
C 155.560769 100.477891 157.55976 90.428285 157.55976 80.28 
M 80.28 80.28 
C 80.28 80.28 80.28 80.28 80.28 80.28 
C 80.28 80.28 80.28 80.28 80.28 80.28 
C 80.28 80.28 80.28 80.28 80.28 80.28 
C 80.28 80.28 80.28 80.28 80.28 80.28 
C 80.28 80.28 80.28 80.28 80.28 80.28 
C 80.28 80.28 80.28 80.28 80.28 80.28 
C 80.28 80.28 80.28 80.28 80.28 80.28 
C 80.28 80.28 80.28 80.28 80.28 80.28 
C 80.28 80.28 80.28 80.28 80.28 80.28 
C 80.28 80.28 80.28 80.28 80.28 80.28 
C 80.28 80.28 80.28 80.28 80.28 80.28 
C 80.28 80.28 80.28 80.28 80.28 80.28 
C 80.28 80.28 80.28 80.28 80.28 80.28 
C 80.28 80.28 80.28 80.28 80.28 80.28 
C 80.28 80.28 80.28 80.28 80.28 80.28 
C 80.28 80.28 80.28 80.28 80.28 80.28 
M 157.55976 80.28 
z
" style="fill: #ffffff"/>
   </g>
   <g id="matplotlib.axis_1">
    <g id="xtick_1">
     <g id="line2d_1">
      <path d="M 80.28 80.28 
L 134.925042 25.634958 
" clip-path="url(#p6dc7478aae)" style="fill: none; stroke: #b0b0b0; stroke-width: 0.8; stroke-linecap: square"/>
     </g>
     <g id="text_1">
      <!-- $\pi/4$ -->
      <g transform="translate(136.824995 18.226123) scale(0.1 -0.1)">
       <defs>
        <path id="CMMI12-19" d="M 1658 2406 
L 2381 2406 
C 2208 1691 2099 1225 2099 715 
C 2099 625 2099 -64 2362 -64 
C 2496 -64 2611 57 2611 166 
C 2611 198 2611 210 2566 306 
C 2394 746 2394 1295 2394 1340 
C 2394 1378 2394 1832 2528 2406 
L 3245 2406 
C 3328 2406 3539 2406 3539 2611 
C 3539 2752 3418 2752 3302 2752 
L 1197 2752 
C 1050 2752 832 2752 538 2438 
C 371 2253 166 1915 166 1876 
C 166 1838 198 1825 237 1825 
C 282 1825 288 1844 320 1883 
C 653 2406 986 2406 1146 2406 
L 1510 2406 
C 1370 1927 1210 1372 685 255 
C 634 153 634 140 634 102 
C 634 -32 749 -64 806 -64 
C 992 -64 1043 102 1120 370 
C 1222 695 1222 708 1286 964 
L 1658 2406 
z
" transform="scale(0.015625)"/>
        <path id="CMMI12-3d" d="M 2746 4563 
C 2746 4569 2784 4665 2784 4678 
C 2784 4755 2720 4800 2669 4800 
C 2637 4800 2579 4800 2528 4659 
L 384 -1364 
C 384 -1370 346 -1466 346 -1479 
C 346 -1556 410 -1600 461 -1600 
C 499 -1600 557 -1594 602 -1460 
L 2746 4563 
z
" transform="scale(0.015625)"/>
        <path id="CMR17-34" d="M 2150 4147 
C 2150 4281 2144 4288 2029 4288 
L 128 1254 
L 128 1088 
L 1779 1088 
L 1779 460 
C 1779 230 1766 166 1318 166 
L 1197 166 
L 1197 0 
C 1402 12 1747 12 1965 12 
C 2182 12 2528 12 2733 0 
L 2733 166 
L 2611 166 
C 2163 166 2150 230 2150 460 
L 2150 1088 
L 2803 1088 
L 2803 1254 
L 2150 1254 
L 2150 4147 
z
M 1798 3723 
L 1798 1254 
L 256 1254 
L 1798 3723 
z
" transform="scale(0.015625)"/>
       </defs>
       <use xlink:href="#CMMI12-19" transform="scale(0.996264)"/>
       <use xlink:href="#CMMI12-3d" transform="translate(58.910601 0) scale(0.996264)"/>
       <use xlink:href="#CMR17-34" transform="translate(107.68552 0) scale(0.996264)"/>
      </g>
     </g>
    </g>
    <g id="xtick_2">
     <g id="line2d_2">
      <path d="M 80.28 80.28 
L 25.634958 25.634958 
" clip-path="url(#p6dc7478aae)" style="fill: none; stroke: #b0b0b0; stroke-width: 0.8; stroke-linecap: square"/>
     </g>
     <g id="text_2">
      <!-- $3\pi/4$ -->
      <g transform="translate(5.245252 18.226123) scale(0.1 -0.1)">
       <defs>
        <path id="CMR17-33" d="M 1414 2176 
C 1984 2176 2234 1673 2234 1094 
C 2234 322 1824 25 1453 25 
C 1114 25 563 193 390 691 
C 422 678 454 678 486 678 
C 640 678 755 780 755 947 
C 755 1132 614 1216 486 1216 
C 378 1216 211 1164 211 927 
C 211 335 787 -128 1466 -128 
C 2176 -128 2720 432 2720 1087 
C 2720 1718 2208 2176 1600 2246 
C 2086 2347 2554 2776 2554 3353 
C 2554 3856 2048 4224 1472 4224 
C 890 4224 378 3862 378 3347 
C 378 3123 544 3084 627 3084 
C 762 3084 877 3167 877 3334 
C 877 3500 762 3584 627 3584 
C 602 3584 570 3584 544 3571 
C 730 3999 1235 4076 1459 4076 
C 1683 4076 2106 3966 2106 3347 
C 2106 3167 2080 2851 1862 2574 
C 1670 2329 1453 2316 1242 2297 
C 1210 2297 1062 2284 1037 2284 
C 992 2278 966 2272 966 2227 
C 966 2182 973 2176 1101 2176 
L 1414 2176 
z
" transform="scale(0.015625)"/>
       </defs>
       <use xlink:href="#CMR17-33" transform="scale(0.996264)"/>
       <use xlink:href="#CMMI12-19" transform="translate(45.690477 0) scale(0.996264)"/>
       <use xlink:href="#CMMI12-3d" transform="translate(104.601078 0) scale(0.996264)"/>
       <use xlink:href="#CMR17-34" transform="translate(153.375997 0) scale(0.996264)"/>
      </g>
     </g>
    </g>
    <g id="xtick_3">
     <g id="line2d_3">
      <path d="M 80.28 80.28 
L 25.634958 134.925042 
" clip-path="url(#p6dc7478aae)" style="fill: none; stroke: #b0b0b0; stroke-width: 0.8; stroke-linecap: square"/>
     </g>
     <g id="text_3">
      <!-- $5\pi/4$ -->
      <g transform="translate(5.245252 147.315197) scale(0.1 -0.1)">
       <defs>
        <path id="CMR17-35" d="M 730 3750 
C 794 3724 1056 3641 1325 3641 
C 1920 3641 2246 3961 2432 4140 
C 2432 4191 2432 4224 2394 4224 
C 2387 4224 2374 4224 2323 4198 
C 2099 4102 1837 4032 1517 4032 
C 1325 4032 1037 4055 723 4191 
C 653 4224 640 4224 634 4224 
C 602 4224 595 4217 595 4090 
L 595 2231 
C 595 2113 595 2080 659 2080 
C 691 2080 704 2093 736 2139 
C 941 2435 1222 2560 1542 2560 
C 1766 2560 2246 2415 2246 1293 
C 2246 1087 2246 716 2054 422 
C 1894 159 1645 25 1370 25 
C 947 25 518 319 403 812 
C 429 806 480 793 506 793 
C 589 793 749 838 749 1036 
C 749 1209 627 1280 506 1280 
C 358 1280 262 1190 262 1011 
C 262 454 704 -128 1382 -128 
C 2042 -128 2669 441 2669 1267 
C 2669 2054 2170 2662 1549 2662 
C 1222 2662 947 2540 730 2304 
L 730 3750 
z
" transform="scale(0.015625)"/>
       </defs>
       <use xlink:href="#CMR17-35" transform="scale(0.996264)"/>
       <use xlink:href="#CMMI12-19" transform="translate(45.690477 0) scale(0.996264)"/>
       <use xlink:href="#CMMI12-3d" transform="translate(104.601078 0) scale(0.996264)"/>
       <use xlink:href="#CMR17-34" transform="translate(153.375997 0) scale(0.996264)"/>
      </g>
     </g>
    </g>
    <g id="xtick_4">
     <g id="line2d_4">
      <path d="M 80.28 80.28 
L 134.925042 134.925042 
" clip-path="url(#p6dc7478aae)" style="fill: none; stroke: #b0b0b0; stroke-width: 0.8; stroke-linecap: square"/>
     </g>
     <g id="text_4">
      <!-- $7\pi/4$ -->
      <g transform="translate(134.334327 147.315197) scale(0.1 -0.1)">
       <defs>
        <path id="CMR17-37" d="M 2886 3955 
L 2886 4096 
L 1382 4096 
C 634 4096 621 4166 595 4288 
L 480 4288 
L 294 3104 
L 410 3104 
C 429 3226 474 3552 550 3673 
C 589 3724 1062 3724 1171 3724 
L 2579 3724 
L 1869 2670 
C 1395 1961 1069 1003 1069 166 
C 1069 89 1069 -128 1299 -128 
C 1530 -128 1530 89 1530 172 
L 1530 466 
C 1530 1514 1709 2204 2003 2644 
L 2886 3955 
z
" transform="scale(0.015625)"/>
       </defs>
       <use xlink:href="#CMR17-37" transform="scale(0.996264)"/>
       <use xlink:href="#CMMI12-19" transform="translate(45.690477 0) scale(0.996264)"/>
       <use xlink:href="#CMMI12-3d" transform="translate(104.601078 0) scale(0.996264)"/>
       <use xlink:href="#CMR17-34" transform="translate(153.375997 0) scale(0.996264)"/>
      </g>
     </g>
    </g>
   </g>
   <g id="matplotlib.axis_2">
    <g id="ytick_1">
     <g id="line2d_5">
      <path d="M 90.941045 80.28 
C 90.941045 78.880004 90.665276 77.493622 90.129521 76.200195 
C 89.593766 74.906768 88.808443 73.731449 87.818497 72.741503 
C 86.828551 71.751557 85.653232 70.966234 84.359805 70.430479 
C 83.066378 69.894724 81.679996 69.618955 80.28 69.618955 
C 78.880004 69.618955 77.493622 69.894724 76.200195 70.430479 
C 74.906768 70.966234 73.731449 71.751557 72.741503 72.741503 
C 71.751557 73.731449 70.966234 74.906768 70.430479 76.200195 
C 69.894724 77.493622 69.618955 78.880004 69.618955 80.28 
C 69.618955 81.679996 69.894724 83.066378 70.430479 84.359805 
C 70.966234 85.653232 71.751557 86.828551 72.741503 87.818497 
C 73.731449 88.808443 74.906768 89.593766 76.200195 90.129521 
C 77.493622 90.665276 78.880004 90.941045 80.28 90.941045 
C 81.679996 90.941045 83.066378 90.665276 84.359805 90.129521 
C 85.653232 89.593766 86.828551 88.808443 87.818497 87.818497 
C 88.808443 86.828551 89.593766 85.653232 90.129521 84.359805 
C 90.665276 83.066378 90.941045 81.679996 90.941045 80.28 
" clip-path="url(#p6dc7478aae)" style="fill: none; stroke: #b0b0b0; stroke-width: 0.8; stroke-linecap: square"/>
     </g>
     <g id="text_5">
      <!-- $\mathdefault{10^{0}}$ -->
      <g transform="translate(74.165076 87.075838) scale(0.1 -0.1)">
       <defs>
        <path id="CMR17-31" d="M 1702 4083 
C 1702 4217 1696 4224 1606 4224 
C 1357 3927 979 3833 621 3820 
C 602 3820 570 3820 563 3808 
C 557 3795 557 3782 557 3648 
C 755 3648 1088 3686 1344 3839 
L 1344 467 
C 1344 243 1331 166 781 166 
L 589 166 
L 589 0 
C 896 6 1216 12 1523 12 
C 1830 12 2150 6 2458 0 
L 2458 166 
L 2266 166 
C 1715 166 1702 236 1702 467 
L 1702 4083 
z
" transform="scale(0.015625)"/>
        <path id="CMR17-30" d="M 2688 2038 
C 2688 2430 2682 3099 2413 3613 
C 2176 4063 1798 4224 1466 4224 
C 1158 4224 768 4082 525 3620 
C 269 3137 243 2539 243 2038 
C 243 1671 250 1112 448 623 
C 723 -39 1216 -128 1466 -128 
C 1760 -128 2208 -7 2470 604 
C 2662 1048 2688 1568 2688 2038 
z
M 1466 -26 
C 1056 -26 813 328 723 816 
C 653 1196 653 1749 653 2109 
C 653 2604 653 3015 736 3407 
C 858 3954 1216 4121 1466 4121 
C 1728 4121 2067 3947 2189 3420 
C 2272 3054 2278 2623 2278 2109 
C 2278 1691 2278 1176 2202 797 
C 2067 96 1690 -26 1466 -26 
z
" transform="scale(0.015625)"/>
       </defs>
       <use xlink:href="#CMR17-31" transform="scale(0.996264)"/>
       <use xlink:href="#CMR17-30" transform="translate(45.690477 0) scale(0.996264)"/>
       <use xlink:href="#CMR17-30" transform="translate(91.380954 36.153639) scale(0.697382)"/>
      </g>
     </g>
    </g>
    <g id="ytick_2">
     <g id="line2d_6">
      <path d="M 115.015241 80.28 
C 115.015241 75.71861 114.116746 71.201574 112.371178 66.987399 
C 110.625609 62.773224 108.066914 58.943866 104.841524 55.718476 
C 101.616134 52.493086 97.786776 49.934391 93.572601 48.188822 
C 89.358426 46.443254 84.84139 45.544759 80.28 45.544759 
C 75.71861 45.544759 71.201574 46.443254 66.987399 48.188822 
C 62.773224 49.934391 58.943866 52.493086 55.718476 55.718476 
C 52.493086 58.943866 49.934391 62.773224 48.188822 66.987399 
C 46.443254 71.201574 45.544759 75.71861 45.544759 80.28 
C 45.544759 84.84139 46.443254 89.358426 48.188822 93.572601 
C 49.934391 97.786776 52.493086 101.616134 55.718476 104.841524 
C 58.943866 108.066914 62.773224 110.625609 66.987399 112.371178 
C 71.201574 114.116746 75.71861 115.015241 80.28 115.015241 
C 84.84139 115.015241 89.358426 114.116746 93.572601 112.371178 
C 97.786776 110.625609 101.616134 108.066914 104.841524 104.841524 
C 108.066914 101.616134 110.625609 97.786776 112.371178 93.572601 
C 114.116746 89.358426 115.015241 84.84139 115.015241 80.28 
" clip-path="url(#p6dc7478aae)" style="fill: none; stroke: #b0b0b0; stroke-width: 0.8; stroke-linecap: square"/>
     </g>
     <g id="text_6">
      <!-- $\mathdefault{10^{1}}$ -->
      <g transform="translate(60.356685 106.796265) scale(0.1 -0.1)">
       <use xlink:href="#CMR17-31" transform="scale(0.996264)"/>
       <use xlink:href="#CMR17-30" transform="translate(45.690477 0) scale(0.996264)"/>
       <use xlink:href="#CMR17-31" transform="translate(91.380954 36.153639) scale(0.697382)"/>
      </g>
     </g>
    </g>
    <g id="ytick_3">
     <g id="line2d_7">
      <path d="M 134.205121 80.28 
C 134.205121 73.198618 132.810243 66.186093 130.100316 59.64375 
C 127.390388 53.101406 123.418112 47.156474 118.410819 42.149181 
C 113.403526 37.141888 107.458594 33.169612 100.91625 30.459684 
C 94.373907 27.749757 87.361382 26.354879 80.28 26.354879 
C 73.198618 26.354879 66.186093 27.749757 59.64375 30.459684 
C 53.101406 33.169612 47.156474 37.141888 42.149181 42.149181 
C 37.141888 47.156474 33.169612 53.101406 30.459684 59.64375 
C 27.749757 66.186093 26.354879 73.198618 26.354879 80.28 
C 26.354879 87.361382 27.749757 94.373907 30.459684 100.91625 
C 33.169612 107.458594 37.141888 113.403526 42.149181 118.410819 
C 47.156474 123.418112 53.101406 127.390388 59.64375 130.100316 
C 66.186093 132.810243 73.198618 134.205121 80.28 134.205121 
C 87.361382 134.205121 94.373907 132.810243 100.91625 130.100316 
C 107.458594 127.390388 113.403526 123.418112 118.410819 118.410819 
C 123.418112 113.403526 127.390388 107.458594 130.100316 100.91625 
C 132.810243 94.373907 134.205121 87.361382 134.205121 80.28 
" clip-path="url(#p6dc7478aae)" style="fill: none; stroke: #b0b0b0; stroke-width: 0.8; stroke-linecap: square"/>
     </g>
     <g id="text_7">
      <!-- $\mathdefault{10^{2}}$ -->
      <g transform="translate(49.349821 122.515695) scale(0.1 -0.1)">
       <defs>
        <path id="CMR17-32" d="M 2669 990 
L 2554 990 
C 2490 537 2438 460 2413 422 
C 2381 371 1920 371 1830 371 
L 602 371 
C 832 620 1280 1073 1824 1596 
C 2214 1966 2669 2400 2669 3033 
C 2669 3788 2067 4224 1395 4224 
C 691 4224 262 3603 262 3027 
C 262 2777 448 2745 525 2745 
C 589 2745 781 2783 781 3007 
C 781 3206 614 3264 525 3264 
C 486 3264 448 3257 422 3244 
C 544 3788 915 4057 1306 4057 
C 1862 4057 2227 3616 2227 3033 
C 2227 2477 1901 1998 1536 1583 
L 262 147 
L 262 0 
L 2515 0 
L 2669 990 
z
" transform="scale(0.015625)"/>
       </defs>
       <use xlink:href="#CMR17-31" transform="scale(0.996264)"/>
       <use xlink:href="#CMR17-30" transform="translate(45.690477 0) scale(0.996264)"/>
       <use xlink:href="#CMR17-32" transform="translate(91.380954 36.153639) scale(0.697382)"/>
      </g>
     </g>
    </g>
    <g id="ytick_4">
     <g id="line2d_8">
      <path d="M 153.395002 80.28 
C 153.395002 70.678626 151.50374 61.170613 147.829454 52.3001 
C 144.155167 43.429587 138.76931 35.369083 131.980114 28.579886 
C 125.190917 21.79069 117.130413 16.404833 108.2599 12.730546 
C 99.389387 9.05626 89.881374 7.164998 80.28 7.164998 
C 70.678626 7.164998 61.170613 9.05626 52.3001 12.730546 
C 43.429587 16.404833 35.369083 21.79069 28.579886 28.579886 
C 21.79069 35.369083 16.404833 43.429587 12.730546 52.3001 
C 9.05626 61.170613 7.164998 70.678626 7.164998 80.28 
C 7.164998 89.881374 9.05626 99.389387 12.730546 108.2599 
C 16.404833 117.130413 21.79069 125.190917 28.579886 131.980114 
C 35.369083 138.76931 43.429587 144.155167 52.3001 147.829454 
C 61.170613 151.50374 70.678626 153.395002 80.28 153.395002 
C 89.881374 153.395002 99.389387 151.50374 108.2599 147.829454 
C 117.130413 144.155167 125.190917 138.76931 131.980114 131.980114 
C 138.76931 125.190917 144.155167 117.130413 147.829454 108.2599 
C 151.50374 99.389387 153.395002 89.881374 153.395002 80.28 
" clip-path="url(#p6dc7478aae)" style="fill: none; stroke: #b0b0b0; stroke-width: 0.8; stroke-linecap: square"/>
     </g>
     <g id="text_8">
      <!-- $\mathdefault{10^{3}}$ -->
      <g transform="translate(38.342958 138.235125) scale(0.1 -0.1)">
       <use xlink:href="#CMR17-31" transform="scale(0.996264)"/>
       <use xlink:href="#CMR17-30" transform="translate(45.690477 0) scale(0.996264)"/>
       <use xlink:href="#CMR17-33" transform="translate(91.380954 36.153639) scale(0.697382)"/>
      </g>
     </g>
    </g>
    <g id="ytick_5"/>
   </g>
   <g id="line2d_9">
    <path d="M 153.880994 80.28 
L 153.101507 79.008896 
L 150.675459 77.821736 
L 146.281926 76.820986 
L 139.085562 76.167915 
L 126.386326 76.246219 
L 90.754647 79.17907 
L 121.396884 75.231481 
L 128.470586 73.507255 
L 129.791907 72.438084 
L 127.735599 71.912297 
L 122.594101 72.054972 
L 113.33815 73.253273 
L 92.889062 77.368969 
L 102.246539 74.803127 
L 111.507883 71.912514 
L 115.511301 70.177587 
L 116.842025 69.101867 
L 116.153691 68.623931 
L 113.271165 68.920231 
L 107.34409 70.429477 
L 95.290498 74.51801 
L 108.540192 68.28426 
L 112.441213 65.960906 
L 113.159373 64.948097 
L 111.116428 65.240069 
L 106.084327 67.132039 
L 98.158188 70.773999 
L 99.629654 69.554312 
L 105.489141 65.725496 
L 108.28253 63.454383 
L 108.158673 62.859472 
L 105.342957 64.003925 
L 99.745131 67.150604 
L 91.545996 72.391465 
L 98.578586 66.985299 
L 102.530069 63.513371 
L 103.613005 62.050259 
L 102.063915 62.639734 
L 97.797451 65.581113 
L 87.628274 73.892243 
L 88.494727 72.883427 
L 96.855473 64.823121 
L 98.928237 62.271606 
L 98.417126 62.142874 
L 95.481798 64.538078 
L 83.717424 76.462354 
L 87.88917 71.526651 
L 93.429126 64.609482 
L 94.057031 63.266784 
L 90.558781 67.12376 
L 82.164845 77.685734 
L 86.949678 70.391796 
L 88.414301 67.754275 
L 86.623318 70.128569 
L 83.201408 75.417961 
L 81.02652 78.986989 
L 81.5707 77.951515 
L 83.784622 73.688764 
L 85.303488 70.420849 
L 84.662127 71.295307 
L 82.472008 75.579223 
L 80.529351 79.692566 
L 81.834815 76.431699 
L 83.067573 73.018124 
L 83.039725 72.697719 
L 81.863475 75.681254 
L 80.299788 80.215276 
L 80.836928 78.337761 
L 81.576951 75.078214 
L 81.091167 76.766449 
L 80.2849 80.254791 
L 80.410193 79.541641 
L 80.661221 77.567468 
L 80.282215 80.248331 
L 80.301496 79.869826 
L 80.302074 79.015385 
L 80.265941 80.01174 
L 80.222271 79.454441 
L 80.034464 77.943878 
L 80.057714 78.87654 
L 79.531265 76.757477 
L 79.517239 76.976119 
L 79.718491 78.184422 
L 79.655533 78.102224 
L 79.386952 77.531482 
L 79.454604 77.882875 
L 80.267728 80.25692 
L 79.954739 79.779142 
L 79.407226 79.033549 
L 79.931771 79.834287 
L 79.877027 79.78237 
L 79.118251 78.989747 
L 80.180176 80.183601 
L 79.999191 80.018141 
L 78.068127 78.424018 
L 76.913371 77.649701 
L 78.472238 79.014192 
L 77.758589 78.579287 
L 73.379893 75.968335 
L 70.592496 74.459161 
L 68.155801 73.28009 
L 66.740083 72.774701 
L 66.862855 73.145978 
L 68.357753 74.205312 
L 70.952053 75.930307 
L 70.28091 75.828118 
L 69.014903 75.49825 
L 68.489637 75.516384 
L 69.140969 76.004127 
L 70.538945 76.925886 
L 70.584789 77.129835 
L 71.602189 77.626927 
L 74.334617 78.575189 
L 79.615079 80.114217 
L 79.194047 80.029288 
L 77.397325 79.719665 
L 78.154115 79.905149 
L 77.712573 79.873359 
L 73.686997 79.353414 
L 66.483554 78.586009 
L 59.244567 78.069087 
L 57.49237 78.286341 
L 55.783894 78.996213 
L 52.983318 79.803535 
L 52.44945 80.28 
L 52.983318 80.756465 
L 57.49237 82.273659 
L 59.244567 82.490913 
L 66.483554 81.973991 
L 79.194047 80.530712 
L 79.615079 80.445783 
L 74.334617 81.984811 
L 71.602189 82.933073 
L 70.584789 83.430165 
L 70.538945 83.634114 
L 70.142634 83.9697 
L 68.489637 85.043616 
L 69.014903 85.06175 
L 70.952053 84.629693 
L 70.160282 85.215716 
L 66.862855 87.414022 
L 66.740083 87.785299 
L 68.155801 87.27991 
L 70.592496 86.100839 
L 75.939681 83.098636 
L 78.472238 81.545808 
L 78.141841 81.833463 
L 76.913371 82.910299 
L 77.21132 82.764968 
L 79.635972 80.859886 
L 80.180176 80.376399 
L 79.895331 80.678336 
L 79.118251 81.570253 
L 79.692749 81.059308 
L 79.407226 81.526451 
L 80.267728 80.30308 
L 80.180888 80.483211 
L 79.849166 81.402362 
L 79.386952 83.028518 
L 79.718491 82.375578 
L 79.531265 83.802523 
L 80.057714 81.68346 
L 80.010943 82.471293 
L 80.034464 82.616122 
L 80.265941 80.54826 
L 80.301496 80.690174 
L 80.282215 80.311669 
L 80.382108 81.251494 
L 80.661221 82.992532 
L 80.2849 80.305209 
L 81.091167 83.793551 
L 81.576951 85.481786 
L 81.486979 84.784509 
L 80.299788 80.344724 
L 80.636742 81.37794 
L 81.863475 84.878746 
L 83.039725 87.862281 
L 83.067573 87.541876 
L 81.834815 84.128301 
L 80.529351 80.867434 
L 80.638941 81.086196 
L 82.472008 84.980777 
L 84.662127 89.264693 
L 85.303488 90.139151 
L 83.784622 86.871236 
L 81.02652 81.573011 
L 83.201408 85.142039 
L 86.623318 90.431431 
L 88.414301 92.805725 
L 86.949678 90.168204 
L 82.164845 82.874266 
L 84.898093 86.408416 
L 90.558781 93.43624 
L 94.057031 97.293216 
L 93.429126 95.950518 
L 87.88917 89.033349 
L 83.717424 84.097646 
L 95.481798 96.021922 
L 98.417126 98.417126 
L 98.928237 98.288394 
L 96.855473 95.736879 
L 88.494727 87.676573 
L 87.628274 86.667757 
L 97.797451 94.978887 
L 102.063915 97.920266 
L 103.613005 98.509741 
L 102.530069 97.046629 
L 98.578586 93.574701 
L 91.545996 88.168535 
L 99.745131 93.409396 
L 105.342957 96.556075 
L 108.158673 97.700528 
L 108.28253 97.105617 
L 105.489141 94.834504 
L 99.629654 91.005688 
L 98.158188 89.786001 
L 106.084327 93.427961 
L 111.116428 95.319931 
L 113.159373 95.611903 
L 112.441213 94.599094 
L 108.540192 92.27574 
L 95.290498 86.04199 
L 107.34409 90.130523 
L 113.271165 91.639769 
L 116.153691 91.936069 
L 116.842025 91.458133 
L 115.511301 90.382413 
L 111.507883 88.647486 
L 102.246539 85.756873 
L 92.889062 83.191031 
L 113.33815 87.306727 
L 122.594101 88.505028 
L 127.735599 88.647703 
L 129.791907 88.121916 
L 128.470586 87.052745 
L 121.396884 85.328519 
L 90.754647 81.38093 
L 126.386326 84.313781 
L 139.085562 84.392085 
L 146.281926 83.739014 
L 150.675459 82.738264 
L 153.101507 81.551104 
L 153.880994 80.28 
L 153.880994 80.28 
" clip-path="url(#p6dc7478aae)" style="fill: none; stroke: #000000; stroke-width: 0.75; stroke-linecap: square"/>
   </g>
   <g id="line2d_10">
    <path d="M 153.800973 80.28 
L 153.023114 79.010264 
L 150.61705 77.823776 
L 146.270021 76.82161 
L 139.168687 76.162102 
L 126.671338 76.221284 
L 80.817865 80.223468 
L 120.083296 75.39277 
L 127.793191 73.602457 
L 129.336992 72.510136 
L 127.464257 71.960142 
L 122.627849 72.048412 
L 114.249788 73.059499 
L 101.556964 75.367826 
L 101.763855 74.923473 
L 109.629555 72.41581 
L 113.608711 70.723146 
L 115.179842 69.610047 
L 114.931808 69.020945 
L 112.744189 69.101683 
L 108.086856 70.159132 
L 101.216462 72.243245 
L 101.093162 71.870937 
L 107.524329 68.715468 
L 111.408272 66.420801 
L 112.370629 65.315894 
L 110.726518 65.430241 
L 106.482621 66.929098 
L 100.73909 69.401709 
L 100.736551 68.940749 
L 105.276197 65.848439 
L 107.822536 63.730775 
L 107.781778 63.094982 
L 105.246301 64.066694 
L 100.152507 66.875825 
L 91.858496 72.17265 
L 97.519841 67.754522 
L 101.544681 64.255913 
L 102.987976 62.538585 
L 101.932572 62.746093 
L 98.391287 65.082826 
L 87.541399 73.741807 
L 95.481499 66.104373 
L 98.199532 62.975309 
L 98.102591 62.457409 
L 95.549796 64.467663 
L 83.391437 76.8244 
L 87.236802 72.277115 
L 93.330547 64.726964 
L 94.340952 62.91617 
L 91.717801 65.640283 
L 85.639739 73.167386 
L 82.370781 77.402287 
L 88.252557 68.460198 
L 90.580943 64.417939 
L 88.790618 66.660165 
L 84.563259 73.15146 
L 81.537579 78.10181 
L 81.788386 77.558799 
L 84.204223 72.899611 
L 85.98886 69.075731 
L 85.405896 69.770356 
L 83.082043 74.271 
L 80.64889 79.410951 
L 82.936257 73.360215 
L 83.024562 72.739377 
L 81.979647 75.343868 
L 80.352181 80.043906 
L 80.865646 78.237611 
L 81.80275 74.172584 
L 81.319245 75.778534 
L 80.304862 80.152098 
L 80.441227 79.365636 
L 80.874079 76.052912 
L 80.727765 76.63325 
L 80.28837 80.160304 
L 80.340491 79.125771 
L 80.323081 77.811887 
L 80.276632 80.18354 
L 80.255216 79.807101 
L 80.137911 78.655918 
L 80.247832 80.076898 
L 80.176581 79.693483 
L 80.027307 79.091174 
L 80.248034 80.160701 
L 80.057997 79.553861 
L 79.86182 79.065518 
L 80.255271 80.218793 
L 80.005302 79.663018 
L 79.903831 79.473302 
L 80.141592 80.030305 
L 79.888764 79.653892 
L 79.865515 79.641749 
L 79.922966 79.750676 
L 80.220611 80.201188 
L 79.842935 79.74027 
L 79.504517 79.387909 
L 80.248482 80.249564 
L 80.100446 80.112563 
L 77.789089 78.114684 
L 77.031787 77.554426 
L 79.035199 79.341975 
L 78.26933 78.819162 
L 78.045016 78.715047 
L 78.653635 79.183003 
L 78.155084 78.900063 
L 74.778387 76.842211 
L 69.760752 73.959398 
L 66.478124 72.311483 
L 66.631645 72.714593 
L 69.730159 74.904587 
L 69.658765 75.099677 
L 68.840906 75.186987 
L 67.388539 75.071511 
L 67.580339 75.405057 
L 68.170047 75.872338 
L 67.787409 75.978456 
L 66.703687 75.868788 
L 67.500782 76.373001 
L 71.887486 77.873485 
L 80.121054 80.24037 
L 78.03985 79.762821 
L 74.940172 79.144984 
L 75.151078 79.283039 
L 77.945298 79.868329 
L 77.449922 79.83176 
L 68.90383 78.681184 
L 57.47573 77.479988 
L 54.218944 77.540873 
L 53.521263 77.938914 
L 54.810306 78.498985 
L 57.377952 79.079755 
L 63.91191 79.994294 
L 64.458827 80.28 
L 64.247715 80.559845 
L 57.492061 81.474265 
L 54.854655 82.057913 
L 53.527514 82.620539 
L 54.186151 83.022574 
L 57.375521 83.092316 
L 68.60092 81.921388 
L 78.06905 80.66985 
L 74.895739 81.42446 
L 80.107473 80.323016 
L 77.430886 81.043418 
L 71.387549 82.829869 
L 66.910516 84.367461 
L 66.552677 84.740278 
L 68.127061 84.464593 
L 68.354286 84.620605 
L 67.09166 85.34253 
L 66.618027 85.799795 
L 69.349474 85.376988 
L 69.079107 85.743041 
L 69.098367 85.977327 
L 68.627667 86.475655 
L 67.183943 87.539263 
L 66.611762 88.171361 
L 69.167008 86.957359 
L 74.082319 84.152741 
L 78.867869 81.232494 
L 78.087617 81.815123 
L 78.005306 81.932662 
L 79.070705 81.224805 
L 77.25057 82.821994 
L 80.237771 80.32078 
L 80.036237 80.532424 
L 79.496099 81.181774 
L 80.200945 80.38491 
L 79.86701 80.892283 
L 80.144919 80.523693 
L 79.887337 81.085079 
L 79.903775 81.086817 
L 80.253926 80.344534 
L 79.994287 81.06499 
L 79.862642 81.492097 
L 80.24782 80.400099 
L 80.157397 80.771734 
L 80.002178 81.587048 
L 80.254365 80.441856 
L 80.189813 81.01451 
L 80.131696 81.975124 
L 80.277636 80.347702 
L 80.270246 80.838822 
L 80.324628 82.83676 
L 80.286813 80.377426 
L 80.30916 80.613304 
L 80.729035 83.937095 
L 80.848123 84.322404 
L 80.410162 81.018188 
L 80.308251 80.425341 
L 80.655059 82.044514 
L 81.780002 86.296179 
L 81.593921 85.183618 
L 80.363624 80.553522 
L 80.768282 81.782777 
L 82.012864 85.312604 
L 83.111841 88.060418 
L 83.03094 87.446443 
L 80.662253 81.180533 
L 81.082258 82.081901 
L 83.188905 86.518168 
L 85.443104 90.865932 
L 85.885119 91.280665 
L 84.040352 87.352193 
L 81.458109 82.320545 
L 84.391423 87.122557 
L 88.511457 93.453084 
L 90.3185 95.737934 
L 88.090861 91.860078 
L 82.373145 83.160967 
L 85.841663 87.660576 
L 92.119668 95.434084 
L 94.470024 97.80322 
L 93.487337 96.019891 
L 87.264466 88.314709 
L 83.495637 83.851327 
L 87.009605 87.496617 
L 95.535983 96.078033 
L 98.045456 98.045456 
L 98.150856 97.537685 
L 95.419886 94.398172 
L 87.437922 86.725022 
L 89.051172 87.904663 
L 98.377506 95.465611 
L 101.967058 97.841834 
L 103.016175 98.043447 
L 101.543191 96.302963 
L 97.540295 92.820339 
L 92.089072 88.548801 
L 100.158101 93.687948 
L 105.147826 96.429355 
L 107.653105 97.384614 
L 107.699322 96.755191 
L 105.163893 94.646722 
L 100.653551 91.573244 
L 100.859528 91.222329 
L 106.684544 93.733787 
L 110.896802 95.212812 
L 112.475681 95.293093 
L 111.428523 94.148216 
L 107.430699 91.804788 
L 100.76862 88.55794 
L 100.814333 88.162392 
L 107.907689 90.335656 
L 112.713846 91.447869 
L 115.021356 91.568151 
L 115.350476 91.00212 
L 113.797938 89.891114 
L 109.777877 88.183932 
L 101.80482 85.64674 
L 101.331812 85.140194 
L 114.105956 87.469929 
L 122.541677 88.494838 
L 127.428758 88.593598 
L 129.35096 88.052077 
L 127.857232 86.966544 
L 120.220154 85.184034 
L 80.692267 80.323331 
L 126.650024 84.336851 
L 139.188321 84.399271 
L 146.296644 83.739786 
L 150.639221 82.736998 
L 153.035375 81.54995 
L 153.800973 80.28 
L 153.800973 80.28 
" clip-path="url(#p6dc7478aae)" style="fill: none; stroke-dasharray: 2.775,1.2; stroke-dashoffset: 0; stroke: #ff0000; stroke-width: 0.75"/>
   </g>
   <g id="patch_3">
    <path d="M 157.55976 80.28 
C 157.55976 70.131715 155.560769 60.082109 151.677189 50.706316 
C 147.793608 41.330523 142.100964 32.810879 134.925042 25.634958 
C 127.749121 18.459036 119.229477 12.766392 109.853684 8.882811 
C 100.477891 4.999231 90.428285 3.00024 80.28 3.00024 
C 70.131715 3.00024 60.082109 4.999231 50.706316 8.882811 
C 41.330523 12.766392 32.810879 18.459036 25.634958 25.634958 
C 18.459036 32.810879 12.766392 41.330523 8.882811 50.706316 
C 4.999231 60.082109 3.00024 70.131715 3.00024 80.28 
C 3.00024 90.428285 4.999231 100.477891 8.882811 109.853684 
C 12.766392 119.229477 18.459036 127.749121 25.634958 134.925042 
C 32.810879 142.100964 41.330523 147.793608 50.706316 151.677189 
C 60.082109 155.560769 70.131715 157.55976 80.28 157.55976 
C 90.428285 157.55976 100.477891 155.560769 109.853684 151.677189 
C 119.229477 147.793608 127.749121 142.100964 134.925042 134.925042 
C 142.100964 127.749121 147.793608 119.229477 151.677189 109.853684 
C 155.560769 100.477891 157.55976 90.428285 157.55976 80.28 
" style="fill: none; stroke: #000000; stroke-width: 0.8; stroke-linejoin: miter; stroke-linecap: square"/>
   </g>
  </g>
 </g>
 <defs>
  <clipPath id="p6dc7478aae">
   <path d="M 157.55976 80.28 
C 157.55976 70.131715 155.560769 60.082109 151.677189 50.706316 
C 147.793608 41.330523 142.100964 32.810879 134.925042 25.634958 
C 127.749121 18.459036 119.229477 12.766392 109.853684 8.882811 
C 100.477891 4.999231 90.428285 3.00024 80.28 3.00024 
C 70.131715 3.00024 60.082109 4.999231 50.706316 8.882811 
C 41.330523 12.766392 32.810879 18.459036 25.634958 25.634958 
C 18.459036 32.810879 12.766392 41.330523 8.882811 50.706316 
C 4.999231 60.082109 3.00024 70.131715 3.00024 80.28 
C 3.00024 90.428285 4.999231 100.477891 8.882811 109.853684 
C 12.766392 119.229477 18.459036 127.749121 25.634958 134.925042 
C 32.810879 142.100964 41.330523 147.793608 50.706316 151.677189 
C 60.082109 155.560769 70.131715 157.55976 80.28 157.55976 
C 90.428285 157.55976 100.477891 155.560769 109.853684 151.677189 
C 119.229477 147.793608 127.749121 142.100964 134.925042 134.925042 
C 142.100964 127.749121 147.793608 119.229477 151.677189 109.853684 
C 155.560769 100.477891 157.55976 90.428285 157.55976 80.28 
M 80.28 80.28 
C 80.28 80.28 80.28 80.28 80.28 80.28 
C 80.28 80.28 80.28 80.28 80.28 80.28 
C 80.28 80.28 80.28 80.28 80.28 80.28 
C 80.28 80.28 80.28 80.28 80.28 80.28 
C 80.28 80.28 80.28 80.28 80.28 80.28 
C 80.28 80.28 80.28 80.28 80.28 80.28 
C 80.28 80.28 80.28 80.28 80.28 80.28 
C 80.28 80.28 80.28 80.28 80.28 80.28 
C 80.28 80.28 80.28 80.28 80.28 80.28 
C 80.28 80.28 80.28 80.28 80.28 80.28 
C 80.28 80.28 80.28 80.28 80.28 80.28 
C 80.28 80.28 80.28 80.28 80.28 80.28 
C 80.28 80.28 80.28 80.28 80.28 80.28 
C 80.28 80.28 80.28 80.28 80.28 80.28 
C 80.28 80.28 80.28 80.28 80.28 80.28 
C 80.28 80.28 80.28 80.28 80.28 80.28 
M 157.55976 80.28 
z
"/>
  </clipPath>
 </defs>
</svg>
