<?xml version="1.0" encoding="utf-8" standalone="no"?>
<!DOCTYPE svg PUBLIC "-//W3C//DTD SVG 1.1//EN"
  "http://www.w3.org/Graphics/SVG/1.1/DTD/svg11.dtd">
<svg xmlns:xlink="http://www.w3.org/1999/xlink" width="160.56pt" height="160.56pt" viewBox="0 0 160.56 160.56" xmlns="http://www.w3.org/2000/svg" version="1.1">
 <metadata>
  <rdf:RDF xmlns:dc="http://purl.org/dc/elements/1.1/" xmlns:cc="http://creativecommons.org/ns#" xmlns:rdf="http://www.w3.org/1999/02/22-rdf-syntax-ns#">
   <cc:Work>
    <dc:type rdf:resource="http://purl.org/dc/dcmitype/StillImage"/>
    <dc:date>2025-08-18T21:35:54.031924</dc:date>
    <dc:format>image/svg+xml</dc:format>
    <dc:creator>
     <cc:Agent>
      <dc:title>Matplotlib v3.6.3, https://matplotlib.org/</dc:title>
     </cc:Agent>
    </dc:creator>
   </cc:Work>
  </rdf:RDF>
 </metadata>
 <defs>
  <style type="text/css">*{stroke-linejoin: round; stroke-linecap: butt}</style>
 </defs>
 <g id="figure_1">
  <g id="patch_1">
   <path d="M 0 160.56 
L 160.56 160.56 
L 160.56 0 
L 0 0 
z
" style="fill: #ffffff"/>
  </g>
  <g id="axes_1">
   <g id="patch_2">
    <path d="M 157.55976 80.28 
C 157.55976 70.131715 155.560769 60.082109 151.677189 50.706316 
C 147.793608 41.330523 142.100964 32.810879 134.925042 25.634958 
C 127.749121 18.459036 119.229477 12.766392 109.853684 8.882811 
C 100.477891 4.999231 90.428285 3.00024 80.28 3.00024 
C 70.131715 3.00024 60.082109 4.999231 50.706316 8.882811 
C 41.330523 12.766392 32.810879 18.459036 25.634958 25.634958 
C 18.459036 32.810879 12.766392 41.330523 8.882811 50.706316 
C 4.999231 60.082109 3.00024 70.131715 3.00024 80.28 
C 3.00024 90.428285 4.999231 100.477891 8.882811 109.853684 
C 12.766392 119.229477 18.459036 127.749121 25.634958 134.925042 
C 32.810879 142.100964 41.330523 147.793608 50.706316 151.677189 
C 60.082109 155.560769 70.131715 157.55976 80.28 157.55976 
C 90.428285 157.55976 100.477891 155.560769 109.853684 151.677189 
C 119.229477 147.793608 127.749121 142.100964 134.925042 134.925042 
C 142.100964 127.749121 147.793608 119.229477 151.677189 109.853684 
C 155.560769 100.477891 157.55976 90.428285 157.55976 80.28 
M 80.28 80.28 
C 80.28 80.28 80.28 80.28 80.28 80.28 
C 80.28 80.28 80.28 80.28 80.28 80.28 
C 80.28 80.28 80.28 80.28 80.28 80.28 
C 80.28 80.28 80.28 80.28 80.28 80.28 
C 80.28 80.28 80.28 80.28 80.28 80.28 
C 80.28 80.28 80.28 80.28 80.28 80.28 
C 80.28 80.28 80.28 80.28 80.28 80.28 
C 80.28 80.28 80.28 80.28 80.28 80.28 
C 80.28 80.28 80.28 80.28 80.28 80.28 
C 80.28 80.28 80.28 80.28 80.28 80.28 
C 80.28 80.28 80.28 80.28 80.28 80.28 
C 80.28 80.28 80.28 80.28 80.28 80.28 
C 80.28 80.28 80.28 80.28 80.28 80.28 
C 80.28 80.28 80.28 80.28 80.28 80.28 
C 80.28 80.28 80.28 80.28 80.28 80.28 
C 80.28 80.28 80.28 80.28 80.28 80.28 
M 157.55976 80.28 
z
" style="fill: #ffffff"/>
   </g>
   <g id="matplotlib.axis_1">
    <g id="xtick_1">
     <g id="line2d_1">
      <path d="M 80.28 80.28 
L 134.925042 25.634958 
" clip-path="url(#p9b818dba6e)" style="fill: none; stroke: #b0b0b0; stroke-width: 0.8; stroke-linecap: square"/>
     </g>
     <g id="text_1">
      <!-- $\pi/4$ -->
      <g transform="translate(136.824995 18.226123) scale(0.1 -0.1)">
       <defs>
        <path id="CMMI12-19" d="M 1658 2406 
L 2381 2406 
C 2208 1691 2099 1225 2099 715 
C 2099 625 2099 -64 2362 -64 
C 2496 -64 2611 57 2611 166 
C 2611 198 2611 210 2566 306 
C 2394 746 2394 1295 2394 1340 
C 2394 1378 2394 1832 2528 2406 
L 3245 2406 
C 3328 2406 3539 2406 3539 2611 
C 3539 2752 3418 2752 3302 2752 
L 1197 2752 
C 1050 2752 832 2752 538 2438 
C 371 2253 166 1915 166 1876 
C 166 1838 198 1825 237 1825 
C 282 1825 288 1844 320 1883 
C 653 2406 986 2406 1146 2406 
L 1510 2406 
C 1370 1927 1210 1372 685 255 
C 634 153 634 140 634 102 
C 634 -32 749 -64 806 -64 
C 992 -64 1043 102 1120 370 
C 1222 695 1222 708 1286 964 
L 1658 2406 
z
" transform="scale(0.015625)"/>
        <path id="CMMI12-3d" d="M 2746 4563 
C 2746 4569 2784 4665 2784 4678 
C 2784 4755 2720 4800 2669 4800 
C 2637 4800 2579 4800 2528 4659 
L 384 -1364 
C 384 -1370 346 -1466 346 -1479 
C 346 -1556 410 -1600 461 -1600 
C 499 -1600 557 -1594 602 -1460 
L 2746 4563 
z
" transform="scale(0.015625)"/>
        <path id="CMR17-34" d="M 2150 4147 
C 2150 4281 2144 4288 2029 4288 
L 128 1254 
L 128 1088 
L 1779 1088 
L 1779 460 
C 1779 230 1766 166 1318 166 
L 1197 166 
L 1197 0 
C 1402 12 1747 12 1965 12 
C 2182 12 2528 12 2733 0 
L 2733 166 
L 2611 166 
C 2163 166 2150 230 2150 460 
L 2150 1088 
L 2803 1088 
L 2803 1254 
L 2150 1254 
L 2150 4147 
z
M 1798 3723 
L 1798 1254 
L 256 1254 
L 1798 3723 
z
" transform="scale(0.015625)"/>
       </defs>
       <use xlink:href="#CMMI12-19" transform="scale(0.996264)"/>
       <use xlink:href="#CMMI12-3d" transform="translate(58.910601 0) scale(0.996264)"/>
       <use xlink:href="#CMR17-34" transform="translate(107.68552 0) scale(0.996264)"/>
      </g>
     </g>
    </g>
    <g id="xtick_2">
     <g id="line2d_2">
      <path d="M 80.28 80.28 
L 25.634958 25.634958 
" clip-path="url(#p9b818dba6e)" style="fill: none; stroke: #b0b0b0; stroke-width: 0.8; stroke-linecap: square"/>
     </g>
     <g id="text_2">
      <!-- $3\pi/4$ -->
      <g transform="translate(5.245252 18.226123) scale(0.1 -0.1)">
       <defs>
        <path id="CMR17-33" d="M 1414 2176 
C 1984 2176 2234 1673 2234 1094 
C 2234 322 1824 25 1453 25 
C 1114 25 563 193 390 691 
C 422 678 454 678 486 678 
C 640 678 755 780 755 947 
C 755 1132 614 1216 486 1216 
C 378 1216 211 1164 211 927 
C 211 335 787 -128 1466 -128 
C 2176 -128 2720 432 2720 1087 
C 2720 1718 2208 2176 1600 2246 
C 2086 2347 2554 2776 2554 3353 
C 2554 3856 2048 4224 1472 4224 
C 890 4224 378 3862 378 3347 
C 378 3123 544 3084 627 3084 
C 762 3084 877 3167 877 3334 
C 877 3500 762 3584 627 3584 
C 602 3584 570 3584 544 3571 
C 730 3999 1235 4076 1459 4076 
C 1683 4076 2106 3966 2106 3347 
C 2106 3167 2080 2851 1862 2574 
C 1670 2329 1453 2316 1242 2297 
C 1210 2297 1062 2284 1037 2284 
C 992 2278 966 2272 966 2227 
C 966 2182 973 2176 1101 2176 
L 1414 2176 
z
" transform="scale(0.015625)"/>
       </defs>
       <use xlink:href="#CMR17-33" transform="scale(0.996264)"/>
       <use xlink:href="#CMMI12-19" transform="translate(45.690477 0) scale(0.996264)"/>
       <use xlink:href="#CMMI12-3d" transform="translate(104.601078 0) scale(0.996264)"/>
       <use xlink:href="#CMR17-34" transform="translate(153.375997 0) scale(0.996264)"/>
      </g>
     </g>
    </g>
    <g id="xtick_3">
     <g id="line2d_3">
      <path d="M 80.28 80.28 
L 25.634958 134.925042 
" clip-path="url(#p9b818dba6e)" style="fill: none; stroke: #b0b0b0; stroke-width: 0.8; stroke-linecap: square"/>
     </g>
     <g id="text_3">
      <!-- $5\pi/4$ -->
      <g transform="translate(5.245252 147.315197) scale(0.1 -0.1)">
       <defs>
        <path id="CMR17-35" d="M 730 3750 
C 794 3724 1056 3641 1325 3641 
C 1920 3641 2246 3961 2432 4140 
C 2432 4191 2432 4224 2394 4224 
C 2387 4224 2374 4224 2323 4198 
C 2099 4102 1837 4032 1517 4032 
C 1325 4032 1037 4055 723 4191 
C 653 4224 640 4224 634 4224 
C 602 4224 595 4217 595 4090 
L 595 2231 
C 595 2113 595 2080 659 2080 
C 691 2080 704 2093 736 2139 
C 941 2435 1222 2560 1542 2560 
C 1766 2560 2246 2415 2246 1293 
C 2246 1087 2246 716 2054 422 
C 1894 159 1645 25 1370 25 
C 947 25 518 319 403 812 
C 429 806 480 793 506 793 
C 589 793 749 838 749 1036 
C 749 1209 627 1280 506 1280 
C 358 1280 262 1190 262 1011 
C 262 454 704 -128 1382 -128 
C 2042 -128 2669 441 2669 1267 
C 2669 2054 2170 2662 1549 2662 
C 1222 2662 947 2540 730 2304 
L 730 3750 
z
" transform="scale(0.015625)"/>
       </defs>
       <use xlink:href="#CMR17-35" transform="scale(0.996264)"/>
       <use xlink:href="#CMMI12-19" transform="translate(45.690477 0) scale(0.996264)"/>
       <use xlink:href="#CMMI12-3d" transform="translate(104.601078 0) scale(0.996264)"/>
       <use xlink:href="#CMR17-34" transform="translate(153.375997 0) scale(0.996264)"/>
      </g>
     </g>
    </g>
    <g id="xtick_4">
     <g id="line2d_4">
      <path d="M 80.28 80.28 
L 134.925042 134.925042 
" clip-path="url(#p9b818dba6e)" style="fill: none; stroke: #b0b0b0; stroke-width: 0.8; stroke-linecap: square"/>
     </g>
     <g id="text_4">
      <!-- $7\pi/4$ -->
      <g transform="translate(134.334327 147.315197) scale(0.1 -0.1)">
       <defs>
        <path id="CMR17-37" d="M 2886 3955 
L 2886 4096 
L 1382 4096 
C 634 4096 621 4166 595 4288 
L 480 4288 
L 294 3104 
L 410 3104 
C 429 3226 474 3552 550 3673 
C 589 3724 1062 3724 1171 3724 
L 2579 3724 
L 1869 2670 
C 1395 1961 1069 1003 1069 166 
C 1069 89 1069 -128 1299 -128 
C 1530 -128 1530 89 1530 172 
L 1530 466 
C 1530 1514 1709 2204 2003 2644 
L 2886 3955 
z
" transform="scale(0.015625)"/>
       </defs>
       <use xlink:href="#CMR17-37" transform="scale(0.996264)"/>
       <use xlink:href="#CMMI12-19" transform="translate(45.690477 0) scale(0.996264)"/>
       <use xlink:href="#CMMI12-3d" transform="translate(104.601078 0) scale(0.996264)"/>
       <use xlink:href="#CMR17-34" transform="translate(153.375997 0) scale(0.996264)"/>
      </g>
     </g>
    </g>
   </g>
   <g id="matplotlib.axis_2">
    <g id="ytick_1">
     <g id="line2d_5">
      <path d="M 97.472998 80.28 
C 97.472998 78.022236 97.028267 75.786426 96.164259 73.700525 
C 95.30025 71.614623 94.033765 69.719195 92.437285 68.122715 
C 90.840805 66.526235 88.945377 65.25975 86.859475 64.395741 
C 84.773574 63.531733 82.537764 63.087002 80.28 63.087002 
C 78.022236 63.087002 75.786426 63.531733 73.700525 64.395741 
C 71.614623 65.25975 69.719195 66.526235 68.122715 68.122715 
C 66.526235 69.719195 65.25975 71.614623 64.395741 73.700525 
C 63.531733 75.786426 63.087002 78.022236 63.087002 80.28 
C 63.087002 82.537764 63.531733 84.773574 64.395741 86.859475 
C 65.25975 88.945377 66.526235 90.840805 68.122715 92.437285 
C 69.719195 94.033765 71.614623 95.30025 73.700525 96.164259 
C 75.786426 97.028267 78.022236 97.472998 80.28 97.472998 
C 82.537764 97.472998 84.773574 97.028267 86.859475 96.164259 
C 88.945377 95.30025 90.840805 94.033765 92.437285 92.437285 
C 94.033765 90.840805 95.30025 88.945377 96.164259 86.859475 
C 97.028267 84.773574 97.472998 82.537764 97.472998 80.28 
" clip-path="url(#p9b818dba6e)" style="fill: none; stroke: #b0b0b0; stroke-width: 0.8; stroke-linecap: square"/>
     </g>
     <g id="text_5">
      <!-- $\mathdefault{10^{0}}$ -->
      <g transform="translate(70.418502 92.426501) scale(0.1 -0.1)">
       <defs>
        <path id="CMR17-31" d="M 1702 4083 
C 1702 4217 1696 4224 1606 4224 
C 1357 3927 979 3833 621 3820 
C 602 3820 570 3820 563 3808 
C 557 3795 557 3782 557 3648 
C 755 3648 1088 3686 1344 3839 
L 1344 467 
C 1344 243 1331 166 781 166 
L 589 166 
L 589 0 
C 896 6 1216 12 1523 12 
C 1830 12 2150 6 2458 0 
L 2458 166 
L 2266 166 
C 1715 166 1702 236 1702 467 
L 1702 4083 
z
" transform="scale(0.015625)"/>
        <path id="CMR17-30" d="M 2688 2038 
C 2688 2430 2682 3099 2413 3613 
C 2176 4063 1798 4224 1466 4224 
C 1158 4224 768 4082 525 3620 
C 269 3137 243 2539 243 2038 
C 243 1671 250 1112 448 623 
C 723 -39 1216 -128 1466 -128 
C 1760 -128 2208 -7 2470 604 
C 2662 1048 2688 1568 2688 2038 
z
M 1466 -26 
C 1056 -26 813 328 723 816 
C 653 1196 653 1749 653 2109 
C 653 2604 653 3015 736 3407 
C 858 3954 1216 4121 1466 4121 
C 1728 4121 2067 3947 2189 3420 
C 2272 3054 2278 2623 2278 2109 
C 2278 1691 2278 1176 2202 797 
C 2067 96 1690 -26 1466 -26 
z
" transform="scale(0.015625)"/>
       </defs>
       <use xlink:href="#CMR17-31" transform="scale(0.996264)"/>
       <use xlink:href="#CMR17-30" transform="translate(45.690477 0) scale(0.996264)"/>
       <use xlink:href="#CMR17-30" transform="translate(91.380954 36.153639) scale(0.697382)"/>
      </g>
     </g>
    </g>
    <g id="ytick_2">
     <g id="line2d_6">
      <path d="M 136.297296 80.28 
C 136.297296 72.923876 134.8483 65.639281 132.033233 58.843109 
C 129.218167 52.046936 125.091775 45.871355 119.89021 40.66979 
C 114.688645 35.468225 108.513064 31.341833 101.716891 28.526767 
C 94.920719 25.7117 87.636124 24.262704 80.28 24.262704 
C 72.923876 24.262704 65.639281 25.7117 58.843109 28.526767 
C 52.046936 31.341833 45.871355 35.468225 40.66979 40.66979 
C 35.468225 45.871355 31.341833 52.046936 28.526767 58.843109 
C 25.7117 65.639281 24.262704 72.923876 24.262704 80.28 
C 24.262704 87.636124 25.7117 94.920719 28.526767 101.716891 
C 31.341833 108.513064 35.468225 114.688645 40.66979 119.89021 
C 45.871355 125.091775 52.046936 129.218167 58.843109 132.033233 
C 65.639281 134.8483 72.923876 136.297296 80.28 136.297296 
C 87.636124 136.297296 94.920719 134.8483 101.716891 132.033233 
C 108.513064 129.218167 114.688645 125.091775 119.89021 119.89021 
C 125.091775 114.688645 129.218167 108.513064 132.033233 101.716891 
C 134.8483 94.920719 136.297296 87.636124 136.297296 80.28 
" clip-path="url(#p9b818dba6e)" style="fill: none; stroke: #b0b0b0; stroke-width: 0.8; stroke-linecap: square"/>
     </g>
     <g id="text_6">
      <!-- $\mathdefault{10^{1}}$ -->
      <g transform="translate(48.149799 124.229504) scale(0.1 -0.1)">
       <use xlink:href="#CMR17-31" transform="scale(0.996264)"/>
       <use xlink:href="#CMR17-30" transform="translate(45.690477 0) scale(0.996264)"/>
       <use xlink:href="#CMR17-31" transform="translate(91.380954 36.153639) scale(0.697382)"/>
      </g>
     </g>
    </g>
    <g id="ytick_3"/>
   </g>
   <g id="line2d_7">
    <path d="M 153.89033 80.28 
L 153.693811 77.716333 
L 153.105941 75.187514 
L 152.131713 72.728081 
L 150.779219 70.371981 
L 149.059197 68.152372 
L 146.984211 66.101582 
L 144.567257 64.251387 
L 141.819577 62.63381 
L 138.747437 61.282778 
L 135.347706 60.236994 
L 133.520061 59.843055 
L 131.602117 59.544519 
L 129.58806 59.34997 
L 127.470177 59.269579 
L 125.238567 59.315476 
L 122.880868 59.502168 
L 120.382059 59.846981 
L 117.724458 60.370429 
L 114.888298 61.096307 
L 111.853684 62.050925 
L 106.95753 64.250523 
L 100.290005 67.776361 
L 91.039828 73.022404 
L 86.964081 75.423731 
L 86.716437 75.429796 
L 89.357517 72.929171 
L 95.375283 67.15787 
L 99.283903 63.168809 
L 103.568896 58.562753 
L 106.134689 55.312417 
L 107.284991 53.275009 
L 108.152699 51.416976 
L 108.764911 49.733673 
L 109.145704 48.221387 
L 109.315907 46.87801 
L 109.293354 45.703231 
L 109.093277 44.698566 
L 108.728678 43.867353 
L 108.210649 43.214776 
L 107.54862 42.747965 
L 106.750526 42.476171 
L 105.82291 42.411079 
L 104.770943 42.567256 
L 103.598358 42.962826 
L 102.307285 43.620442 
L 100.897929 44.568699 
L 99.368057 45.844234 
L 97.712155 47.494885 
L 95.920074 49.584626 
L 92.208192 55.823582 
L 88.904926 61.783787 
L 86.126093 67.149459 
L 82.284313 75.319151 
L 80.633378 79.253715 
L 80.967598 78.16379 
L 82.450166 72.711732 
L 83.403209 68.624027 
L 84.370203 63.875092 
L 85.265567 58.685137 
L 86.016725 53.29083 
L 86.567313 47.934577 
L 86.484537 45.09232 
L 86.106282 43.494301 
L 85.624229 42.253832 
L 85.06094 41.342366 
L 84.435817 40.740043 
L 83.766098 40.433715 
L 83.067582 40.415726 
L 82.35518 40.683214 
L 81.643383 41.237821 
L 80.946683 42.085767 
L 80.28 43.238292 
L 79.659168 44.712549 
L 79.133922 47.460623 
L 78.818496 52.39284 
L 78.674976 57.32709 
L 78.687611 62.078908 
L 79.066559 70.397314 
L 79.659119 76.359912 
L 80.2339 80.063118 
L 80.056454 79.383406 
L 79.34112 77.005736 
L 78.19294 73.85669 
L 76.837294 70.821242 
L 75.545739 68.562292 
L 74.552233 67.415225 
L 74.21262 67.268461 
L 73.984898 67.373128 
L 73.863125 67.686174 
L 73.873449 68.722275 
L 74.168334 71.219082 
L 74.068256 71.40871 
L 73.879102 71.469919 
L 73.241506 71.271139 
L 71.413715 70.432993 
L 70.665664 70.324063 
L 70.431049 70.431049 
L 70.314361 70.656295 
L 70.324018 70.995896 
L 70.706692 71.958051 
L 71.867502 73.707436 
L 72.788548 75.034429 
L 72.815091 75.244855 
L 72.622143 75.30693 
L 71.423993 74.958774 
L 62.820614 71.764488 
L 57.249809 70.026298 
L 50.796193 68.367769 
L 47.854365 67.832965 
L 45.101637 68.167118 
L 42.718998 68.796449 
L 40.683354 69.670111 
L 38.966273 70.741975 
L 37.540239 71.972232 
L 36.381735 73.327198 
L 35.47251 74.778332 
L 34.799646 76.300985 
L 34.354866 77.873166 
L 34.133499 79.47451 
L 34.133499 81.08549 
L 34.354866 82.686834 
L 34.799646 84.259015 
L 35.47251 85.781668 
L 36.381735 87.232802 
L 37.540239 88.587768 
L 38.966273 89.818025 
L 40.683354 90.889889 
L 42.718998 91.763551 
L 45.101637 92.392882 
L 47.854365 92.727035 
L 50.796193 92.192231 
L 57.249809 90.533702 
L 62.820614 88.795512 
L 68.969811 86.54934 
L 72.169373 85.348082 
L 72.815091 85.315145 
L 72.788548 85.525571 
L 72.26466 86.319992 
L 71.046283 88.028009 
L 70.458673 89.123163 
L 70.314361 89.903705 
L 70.431049 90.128951 
L 70.665664 90.235937 
L 71.413715 90.127007 
L 72.817865 89.494969 
L 73.879102 89.090081 
L 74.068256 89.15129 
L 74.168334 89.340918 
L 74.143605 90.100285 
L 73.833044 92.40496 
L 73.984898 93.186872 
L 74.21262 93.291539 
L 74.552233 93.144775 
L 75.000648 92.717374 
L 76.167068 90.994554 
L 77.524162 88.283535 
L 78.809111 85.091062 
L 80.056454 81.176594 
L 80.2339 80.496882 
L 80.132103 81.040867 
L 79.659119 84.200088 
L 79.066559 90.162686 
L 78.829813 94.077607 
L 78.687611 98.481092 
L 78.674976 103.23291 
L 78.818496 108.16716 
L 79.133922 113.099377 
L 79.659168 115.847451 
L 80.28 117.321708 
L 80.946683 118.474233 
L 81.643383 119.322179 
L 82.35518 119.876786 
L 83.067582 120.144274 
L 83.766098 120.126285 
L 84.435817 119.819957 
L 85.06094 119.217634 
L 85.624229 118.306168 
L 86.106282 117.065699 
L 86.484537 115.46768 
L 86.567313 112.625423 
L 86.016725 107.26917 
L 85.265567 101.874863 
L 84.370203 96.684908 
L 83.403209 91.935973 
L 81.605504 84.615529 
L 80.633378 81.306285 
L 80.692746 81.41401 
L 82.284313 85.240849 
L 83.914376 88.842053 
L 86.126093 93.410541 
L 88.904926 98.776213 
L 92.208192 104.736418 
L 95.920074 110.975374 
L 97.712155 113.065115 
L 99.368057 114.715766 
L 100.897929 115.991301 
L 102.307285 116.939558 
L 103.598358 117.597174 
L 104.770943 117.992744 
L 105.82291 118.148921 
L 106.750526 118.083829 
L 107.54862 117.812035 
L 108.210649 117.345224 
L 108.728678 116.692647 
L 109.093277 115.861434 
L 109.293354 114.856769 
L 109.315907 113.68199 
L 109.145704 112.338613 
L 108.764911 110.826327 
L 108.152699 109.143024 
L 107.284991 107.284991 
L 106.134689 105.247583 
L 103.568896 101.997247 
L 99.283903 97.391191 
L 92.013664 90.125713 
L 86.716437 85.130204 
L 86.964081 85.136269 
L 100.290005 92.783639 
L 106.95753 96.309477 
L 111.853684 98.509075 
L 114.888298 99.463693 
L 117.724458 100.189571 
L 120.382059 100.713019 
L 122.880868 101.057832 
L 125.238567 101.244524 
L 127.470177 101.290421 
L 129.58806 101.21003 
L 131.602117 101.015481 
L 135.347706 100.323006 
L 138.747437 99.277222 
L 141.819577 97.92619 
L 144.567257 96.308613 
L 146.984211 94.458418 
L 149.059197 92.407628 
L 150.779219 90.188019 
L 152.131713 87.831919 
L 153.105941 85.372486 
L 153.693811 82.843667 
L 153.89033 80.28 
L 153.89033 80.28 
" clip-path="url(#p9b818dba6e)" style="fill: none; stroke: #000000; stroke-width: 0.75; stroke-linecap: square"/>
   </g>
   <g id="line2d_8">
    <path d="M 153.868683 80.28 
L 153.690289 77.716456 
L 153.130456 75.1858 
L 152.174994 72.723532 
L 150.819097 70.366376 
L 149.073801 68.149797 
L 146.964444 66.105784 
L 144.520957 64.262931 
L 141.764525 62.649596 
L 138.698747 61.298598 
L 135.310289 60.250613 
L 133.487625 59.855507 
L 131.574017 59.555872 
L 129.564149 59.36012 
L 127.450964 59.278134 
L 125.224968 59.321817 
L 122.873597 59.505715 
L 120.380791 59.847626 
L 117.726974 60.369091 
L 114.889692 61.095534 
L 111.845623 62.055579 
L 106.887633 64.292521 
L 100.165739 67.854011 
L 90.809328 73.177879 
L 86.657871 75.646205 
L 86.388663 75.676793 
L 89.024866 73.198547 
L 95.089512 67.406288 
L 99.036292 63.391759 
L 103.363903 58.753912 
L 106.077833 55.367322 
L 107.247857 53.312143 
L 108.127705 51.442857 
L 108.746471 49.753448 
L 109.129651 48.239216 
L 109.29908 46.897367 
L 109.27333 45.727095 
L 109.068236 44.72949 
L 108.69739 43.9074 
L 108.172528 43.265365 
L 107.503779 42.809683 
L 106.699781 42.548642 
L 105.767692 42.492943 
L 104.713111 42.656308 
L 103.539945 43.056307 
L 102.250216 43.71542 
L 100.843786 44.662477 
L 99.317927 45.93467 
L 97.666604 47.580554 
L 95.861083 49.700403 
L 92.135107 55.973428 
L 88.856862 61.886861 
L 86.09686 67.215119 
L 82.275524 75.340905 
L 80.621694 79.287647 
L 80.952609 78.209923 
L 82.439391 72.749309 
L 83.402367 68.627169 
L 84.383528 63.821649 
L 85.294672 58.559069 
L 86.05984 53.087992 
L 86.619488 47.666163 
L 86.503643 44.983969 
L 86.121716 43.396857 
L 85.635225 42.175594 
L 85.067514 41.288825 
L 84.438646 40.713128 
L 83.76631 40.431295 
L 83.06648 40.431479 
L 82.353934 40.706984 
L 81.642729 41.256534 
L 80.946698 42.084897 
L 80.28 43.203795 
L 79.65778 44.633034 
L 79.122674 47.138519 
L 78.798415 52.00968 
L 78.647407 56.932829 
L 78.656361 61.721725 
L 78.799739 66.196253 
L 79.339278 73.586418 
L 79.920968 78.24383 
L 80.225456 80.023389 
L 80.058472 79.391499 
L 79.371684 77.112325 
L 78.247465 74.0245 
L 76.895149 70.980197 
L 75.616063 68.736351 
L 74.683641 67.710371 
L 74.39026 67.649411 
L 74.209652 67.833941 
L 74.122708 68.699818 
L 74.292987 71.72966 
L 74.092142 71.763143 
L 73.426021 71.507306 
L 71.458731 70.482988 
L 70.639351 70.296816 
L 70.399557 70.399557 
L 70.304705 70.64697 
L 70.357902 71.027493 
L 70.835796 72.070279 
L 71.998302 73.809628 
L 73.062994 75.412068 
L 72.964776 75.529438 
L 72.599713 75.480824 
L 70.864163 74.843764 
L 65.539364 72.769271 
L 60.421926 71.020028 
L 54.328031 69.264043 
L 50.975585 68.440248 
L 47.89943 67.850264 
L 45.073698 68.157498 
L 42.627688 68.768533 
L 40.554165 69.635495 
L 38.812249 70.706415 
L 37.353696 71.935972 
L 36.150608 73.290591 
L 35.198659 74.744707 
L 34.499526 76.274728 
L 34.044887 77.85692 
L 33.817389 79.468992 
L 33.805472 81.091216 
L 34.016357 82.704575 
L 34.472738 84.287616 
L 35.193034 85.815983 
L 36.172521 87.265938 
L 37.387694 88.61742 
L 38.828644 89.849799 
L 40.532365 90.930347 
L 42.576965 91.806975 
L 45.029661 92.417665 
L 47.894137 92.711768 
L 51.013025 92.104625 
L 57.555424 90.397633 
L 63.1473 88.636176 
L 69.413375 86.303469 
L 72.542004 85.115237 
L 72.899861 85.072718 
L 72.99416 85.194361 
L 72.649267 85.824052 
L 70.723552 88.587294 
L 70.22898 89.652728 
L 70.185712 90.027941 
L 70.300049 90.259951 
L 70.561598 90.3437 
L 71.402279 90.139708 
L 73.33922 89.163794 
L 74.027769 88.885458 
L 74.247309 88.895576 
L 74.375665 89.033536 
L 74.389925 89.70609 
L 74.088725 91.924096 
L 74.19366 92.758847 
L 74.384123 92.923748 
L 74.683582 92.849761 
L 75.095381 92.494197 
L 75.612453 91.832585 
L 76.877595 89.628031 
L 78.225025 86.604562 
L 79.357868 83.495856 
L 80.226457 80.531899 
L 80.123867 81.083234 
L 79.644967 84.289439 
L 79.039632 90.381985 
L 78.798343 94.377026 
L 78.65558 98.84721 
L 78.646961 103.633549 
L 78.798007 108.558103 
L 79.122181 113.435597 
L 79.657624 115.935893 
L 80.28 117.368887 
L 80.946988 118.491698 
L 81.643445 119.323948 
L 82.355205 119.877275 
L 83.068424 120.156323 
L 83.769006 120.159522 
L 84.442092 119.879657 
L 85.071565 119.304166 
L 85.639532 118.415051 
L 86.125691 117.188242 
L 86.506479 115.592119 
L 86.621397 112.903658 
L 86.055407 107.451153 
L 85.285472 101.961081 
L 84.372505 96.694143 
L 83.392796 91.897112 
L 81.587893 84.557926 
L 80.617645 81.260593 
L 80.674652 81.364297 
L 82.258778 85.177647 
L 83.89065 88.786157 
L 86.110599 93.375741 
L 88.901233 98.768293 
L 92.212433 104.745114 
L 95.919582 110.974408 
L 97.703426 113.048699 
L 99.348068 114.679705 
L 100.867071 115.937854 
L 102.269435 116.876565 
L 103.560065 117.535892 
L 104.73985 117.944866 
L 105.805773 118.123514 
L 106.751374 118.08504 
L 107.567627 117.838197 
L 108.244094 117.389606 
L 108.770077 116.745635 
L 109.135422 115.913478 
L 109.33066 114.901229 
L 109.346342 113.717001 
L 109.171573 112.367343 
L 108.792061 110.855442 
L 108.188151 109.179737 
L 107.333517 107.333517 
L 106.195239 105.306056 
L 103.718483 102.136739 
L 99.37118 97.469776 
L 95.374341 93.40131 
L 89.178999 87.486267 
L 86.433283 84.916831 
L 86.654149 84.911091 
L 100.069435 92.645811 
L 106.819887 96.226773 
L 111.832447 98.496814 
L 114.879004 99.458541 
L 117.706627 100.18009 
L 120.344338 100.6938 
L 122.822151 101.029193 
L 125.166412 101.210878 
L 127.396942 101.257814 
L 129.526009 101.183691 
L 131.559174 100.998131 
L 133.497519 100.708292 
L 137.087947 99.840545 
L 140.30765 98.632294 
L 143.19412 97.137788 
L 145.78083 95.402058 
L 148.062439 93.455571 
L 149.998567 91.322336 
L 151.547368 89.030533 
L 152.6925 86.615273 
L 153.443711 84.114348 
L 153.818862 81.563626 
L 153.868535 80.28 
L 153.868535 80.28 
" clip-path="url(#p9b818dba6e)" style="fill: none; stroke-dasharray: 2.775,1.2; stroke-dashoffset: 0; stroke: #ff0000; stroke-width: 0.75"/>
   </g>
   <g id="patch_3">
    <path d="M 157.55976 80.28 
C 157.55976 70.131715 155.560769 60.082109 151.677189 50.706316 
C 147.793608 41.330523 142.100964 32.810879 134.925042 25.634958 
C 127.749121 18.459036 119.229477 12.766392 109.853684 8.882811 
C 100.477891 4.999231 90.428285 3.00024 80.28 3.00024 
C 70.131715 3.00024 60.082109 4.999231 50.706316 8.882811 
C 41.330523 12.766392 32.810879 18.459036 25.634958 25.634958 
C 18.459036 32.810879 12.766392 41.330523 8.882811 50.706316 
C 4.999231 60.082109 3.00024 70.131715 3.00024 80.28 
C 3.00024 90.428285 4.999231 100.477891 8.882811 109.853684 
C 12.766392 119.229477 18.459036 127.749121 25.634958 134.925042 
C 32.810879 142.100964 41.330523 147.793608 50.706316 151.677189 
C 60.082109 155.560769 70.131715 157.55976 80.28 157.55976 
C 90.428285 157.55976 100.477891 155.560769 109.853684 151.677189 
C 119.229477 147.793608 127.749121 142.100964 134.925042 134.925042 
C 142.100964 127.749121 147.793608 119.229477 151.677189 109.853684 
C 155.560769 100.477891 157.55976 90.428285 157.55976 80.28 
" style="fill: none; stroke: #000000; stroke-width: 0.8; stroke-linejoin: miter; stroke-linecap: square"/>
   </g>
   <g id="legend_1">
    <g id="patch_4">
     <path d="M 73.727758 38.874597 
L 150.55976 38.874597 
Q 152.55976 38.874597 152.55976 36.874597 
L 152.55976 10.00024 
Q 152.55976 8.00024 150.55976 8.00024 
L 73.727758 8.00024 
Q 71.727758 8.00024 71.727758 10.00024 
L 71.727758 36.874597 
Q 71.727758 38.874597 73.727758 38.874597 
z
" style="fill: #ffffff; opacity: 0.8; stroke: #cccccc; stroke-linejoin: miter"/>
    </g>
    <g id="line2d_9">
     <path d="M 75.727758 15.50024 
L 85.727758 15.50024 
L 95.727758 15.50024 
" style="fill: none; stroke: #000000; stroke-width: 0.75; stroke-linecap: square"/>
    </g>
    <g id="text_7">
     <!-- Analytical -->
     <g transform="translate(103.727758 19.00024) scale(0.1 -0.1)">
      <defs>
       <path id="CMR17-41" d="M 2323 4441 
C 2291 4524 2278 4544 2214 4544 
C 2150 4544 2138 4524 2106 4441 
L 749 580 
C 627 236 371 166 147 166 
L 147 0 
C 262 12 518 12 640 12 
C 800 12 1056 12 1210 0 
L 1210 166 
C 909 179 864 382 864 459 
C 864 516 877 548 890 586 
L 1229 1536 
L 2906 1536 
L 3290 453 
C 3322 376 3322 363 3322 338 
C 3322 166 3046 166 2925 166 
L 2925 0 
C 3110 12 3443 12 3642 12 
C 3808 12 4128 12 4282 0 
L 4282 166 
C 3942 166 3827 166 3744 402 
L 2323 4441 
z
M 2067 3924 
L 2848 1702 
L 1286 1702 
L 2067 3924 
z
" transform="scale(0.015625)"/>
       <path id="CMR17-6e" d="M 2656 1954 
C 2656 2282 2592 2816 1837 2816 
C 1331 2816 1069 2424 973 2166 
L 966 2166 
L 966 2816 
L 211 2745 
L 211 2578 
C 589 2578 646 2540 646 2231 
L 646 443 
C 646 198 621 166 211 166 
L 211 0 
C 365 12 646 12 813 12 
C 979 12 1267 12 1421 0 
L 1421 166 
C 1011 166 986 192 986 443 
L 986 1678 
C 986 2269 1344 2713 1792 2713 
C 2266 2713 2317 2289 2317 1980 
L 2317 443 
C 2317 198 2291 166 1882 166 
L 1882 0 
C 2035 12 2317 12 2483 12 
C 2650 12 2938 12 3091 0 
L 3091 166 
C 2682 166 2656 192 2656 443 
L 2656 1954 
z
" transform="scale(0.015625)"/>
       <path id="CMR17-61" d="M 2304 1656 
C 2304 2048 2304 2275 2035 2534 
C 1798 2751 1523 2816 1306 2816 
C 800 2816 435 2408 435 1977 
C 435 1740 627 1728 666 1728 
C 749 1728 896 1779 896 1958 
C 896 2118 774 2188 666 2188 
C 640 2188 608 2182 589 2176 
C 723 2594 1069 2713 1293 2713 
C 1613 2713 1965 2421 1965 1875 
L 1965 1632 
C 1587 1619 1133 1568 774 1373 
C 371 1147 256 822 256 576 
C 256 77 832 -64 1171 -64 
C 1523 -64 1850 135 1990 505 
C 2003 219 2182 -39 2464 -39 
C 2598 -39 2938 51 2938 563 
L 2938 926 
L 2822 926 
L 2822 557 
C 2822 161 2650 109 2566 109 
C 2304 109 2304 446 2304 732 
L 2304 1656 
z
M 1965 887 
C 1965 323 1568 38 1216 38 
C 896 38 646 278 646 576 
C 646 771 730 1114 1101 1322 
C 1408 1497 1760 1523 1965 1536 
L 1965 887 
z
" transform="scale(0.015625)"/>
       <path id="CMR17-6c" d="M 979 4416 
L 218 4345 
L 218 4179 
C 595 4179 653 4141 653 3835 
L 653 439 
C 653 198 627 166 218 166 
L 218 0 
C 371 12 653 12 813 12 
C 979 12 1261 12 1414 0 
L 1414 166 
C 1005 166 979 191 979 439 
L 979 4416 
z
" transform="scale(0.015625)"/>
       <path id="CMR17-79" d="M 2496 2183 
C 2656 2579 2944 2585 3034 2585 
L 3034 2752 
C 2912 2745 2752 2739 2630 2739 
C 2496 2739 2285 2739 2157 2752 
L 2157 2585 
C 2400 2566 2406 2384 2406 2332 
C 2406 2268 2394 2235 2362 2158 
L 1664 409 
L 902 2300 
C 870 2378 870 2423 870 2430 
C 870 2572 1018 2585 1171 2585 
L 1171 2752 
C 1018 2739 742 2739 582 2739 
C 410 2739 205 2739 64 2752 
L 64 2585 
C 410 2585 448 2553 531 2345 
L 1485 -31 
C 1197 -795 1030 -1242 627 -1242 
C 557 -1242 397 -1223 282 -1106 
C 429 -1093 493 -1002 493 -892 
C 493 -782 416 -685 288 -685 
C 147 -685 77 -782 77 -899 
C 77 -1158 339 -1344 627 -1344 
C 998 -1344 1229 -983 1357 -659 
L 2496 2183 
z
" transform="scale(0.015625)"/>
       <path id="CMR17-74" d="M 966 2585 
L 1862 2585 
L 1862 2752 
L 966 2752 
L 966 3968 
L 851 3968 
C 838 3292 614 2700 70 2687 
L 70 2585 
L 627 2585 
L 627 778 
C 627 655 627 -64 1370 -64 
C 1747 -64 1965 308 1965 784 
L 1965 1151 
L 1850 1151 
L 1850 790 
C 1850 347 1677 51 1408 51 
C 1222 51 966 179 966 765 
L 966 2585 
z
" transform="scale(0.015625)"/>
       <path id="CMR17-69" d="M 992 3961 
C 992 4102 877 4224 730 4224 
C 589 4224 467 4108 467 3961 
C 467 3820 582 3699 730 3699 
C 870 3699 992 3814 992 3961 
z
M 243 2745 
L 243 2579 
C 602 2579 653 2540 653 2231 
L 653 443 
C 653 198 627 166 218 166 
L 218 0 
C 371 12 646 12 806 12 
C 960 12 1222 12 1370 0 
L 1370 166 
C 992 166 979 205 979 436 
L 979 2816 
L 243 2745 
z
" transform="scale(0.015625)"/>
       <path id="CMR17-63" d="M 2234 2240 
C 2112 2240 1933 2240 1933 2015 
C 1933 1836 2080 1785 2163 1785 
C 2208 1785 2394 1804 2394 2028 
C 2394 2476 1958 2816 1466 2816 
C 787 2816 211 2201 211 1379 
C 211 521 813 -64 1466 -64 
C 2259 -64 2458 676 2458 747 
C 2458 773 2451 792 2406 792 
C 2362 792 2355 786 2330 702 
C 2163 180 1798 51 1523 51 
C 1114 51 621 431 621 1385 
C 621 2358 1094 2700 1472 2700 
C 1722 2700 2093 2582 2234 2240 
z
" transform="scale(0.015625)"/>
      </defs>
      <use xlink:href="#CMR17-41" transform="scale(0.996264)"/>
      <use xlink:href="#CMR17-6e" transform="translate(69.07243 0) scale(0.996264)"/>
      <use xlink:href="#CMR17-61" transform="translate(119.9678 0) scale(0.996264)"/>
      <use xlink:href="#CMR17-6c" transform="translate(165.658277 0) scale(0.996264)"/>
      <use xlink:href="#CMR17-79" transform="translate(190.529335 0) scale(0.996264)"/>
      <use xlink:href="#CMR17-74" transform="translate(238.822251 0) scale(0.996264)"/>
      <use xlink:href="#CMR17-69" transform="translate(274.103019 0) scale(0.996264)"/>
      <use xlink:href="#CMR17-63" transform="translate(298.974077 0) scale(0.996264)"/>
      <use xlink:href="#CMR17-61" transform="translate(339.459738 0) scale(0.996264)"/>
      <use xlink:href="#CMR17-6c" transform="translate(385.150215 0) scale(0.996264)"/>
     </g>
    </g>
    <g id="line2d_10">
     <path d="M 75.727758 29.437418 
L 85.727758 29.437418 
L 95.727758 29.437418 
" style="fill: none; stroke-dasharray: 2.775,1.2; stroke-dashoffset: 0; stroke: #ff0000; stroke-width: 0.75"/>
    </g>
    <g id="text_8">
     <!-- LBM -->
     <g transform="translate(103.727758 32.937418) scale(0.1 -0.1)">
      <defs>
       <path id="CMR17-4c" d="M 3469 1612 
L 3354 1612 
C 3302 981 3219 166 2125 166 
L 1530 166 
C 1274 166 1261 198 1261 414 
L 1261 3892 
C 1261 4121 1274 4185 1760 4185 
L 1901 4185 
L 1901 4352 
C 1638 4339 1331 4339 1069 4339 
C 870 4339 512 4339 326 4352 
L 326 4185 
C 768 4185 838 4185 838 3898 
L 838 453 
C 838 166 768 166 326 166 
L 326 0 
L 3315 0 
L 3469 1612 
z
" transform="scale(0.015625)"/>
       <path id="CMR17-42" d="M 333 4352 
L 333 4185 
C 774 4185 845 4185 845 3897 
L 845 451 
C 845 166 774 166 333 166 
L 333 0 
L 2534 0 
C 3354 0 3885 578 3885 1155 
C 3885 1726 3360 2214 2675 2259 
C 3290 2380 3718 2790 3718 3276 
C 3718 3808 3194 4352 2368 4352 
L 333 4352 
z
M 1248 2304 
L 1248 3936 
C 1248 4153 1261 4185 1517 4185 
L 2336 4185 
C 2970 4185 3251 3673 3251 3276 
C 3251 2790 2861 2304 2170 2304 
L 1248 2304 
z
M 1517 166 
C 1261 166 1248 198 1248 413 
L 1248 2201 
L 2432 2201 
C 3091 2201 3411 1624 3411 1161 
C 3411 698 3046 166 2349 166 
L 1517 166 
z
" transform="scale(0.015625)"/>
       <path id="CMR17-4d" d="M 1338 4249 
C 1299 4345 1293 4352 1158 4352 
L 339 4352 
L 339 4185 
C 781 4185 851 4185 851 3898 
L 851 624 
C 851 465 851 166 339 166 
L 339 0 
C 486 12 755 12 915 12 
C 1075 12 1344 12 1491 0 
L 1491 166 
C 979 166 979 465 979 624 
L 979 4159 
L 986 4159 
L 2490 102 
C 2515 38 2528 0 2579 0 
C 2630 0 2643 38 2669 102 
L 4186 4191 
L 4192 4191 
L 4192 453 
C 4192 166 4122 166 3680 166 
L 3680 0 
C 3853 12 4198 12 4384 12 
C 4570 12 4922 12 5094 0 
L 5094 166 
C 4653 166 4582 166 4582 453 
L 4582 3898 
C 4582 4185 4653 4185 5094 4185 
L 5094 4352 
L 4282 4352 
C 4147 4352 4141 4345 4102 4249 
L 2720 516 
L 1338 4249 
z
" transform="scale(0.015625)"/>
      </defs>
      <use xlink:href="#CMR17-4c" transform="scale(0.996264)"/>
      <use xlink:href="#CMR17-42" transform="translate(57.381408 0) scale(0.996264)"/>
      <use xlink:href="#CMR17-4d" transform="translate(122.570162 0) scale(0.996264)"/>
     </g>
    </g>
   </g>
  </g>
 </g>
 <defs>
  <clipPath id="p9b818dba6e">
   <path d="M 157.55976 80.28 
C 157.55976 70.131715 155.560769 60.082109 151.677189 50.706316 
C 147.793608 41.330523 142.100964 32.810879 134.925042 25.634958 
C 127.749121 18.459036 119.229477 12.766392 109.853684 8.882811 
C 100.477891 4.999231 90.428285 3.00024 80.28 3.00024 
C 70.131715 3.00024 60.082109 4.999231 50.706316 8.882811 
C 41.330523 12.766392 32.810879 18.459036 25.634958 25.634958 
C 18.459036 32.810879 12.766392 41.330523 8.882811 50.706316 
C 4.999231 60.082109 3.00024 70.131715 3.00024 80.28 
C 3.00024 90.428285 4.999231 100.477891 8.882811 109.853684 
C 12.766392 119.229477 18.459036 127.749121 25.634958 134.925042 
C 32.810879 142.100964 41.330523 147.793608 50.706316 151.677189 
C 60.082109 155.560769 70.131715 157.55976 80.28 157.55976 
C 90.428285 157.55976 100.477891 155.560769 109.853684 151.677189 
C 119.229477 147.793608 127.749121 142.100964 134.925042 134.925042 
C 142.100964 127.749121 147.793608 119.229477 151.677189 109.853684 
C 155.560769 100.477891 157.55976 90.428285 157.55976 80.28 
M 80.28 80.28 
C 80.28 80.28 80.28 80.28 80.28 80.28 
C 80.28 80.28 80.28 80.28 80.28 80.28 
C 80.28 80.28 80.28 80.28 80.28 80.28 
C 80.28 80.28 80.28 80.28 80.28 80.28 
C 80.28 80.28 80.28 80.28 80.28 80.28 
C 80.28 80.28 80.28 80.28 80.28 80.28 
C 80.28 80.28 80.28 80.28 80.28 80.28 
C 80.28 80.28 80.28 80.28 80.28 80.28 
C 80.28 80.28 80.28 80.28 80.28 80.28 
C 80.28 80.28 80.28 80.28 80.28 80.28 
C 80.28 80.28 80.28 80.28 80.28 80.28 
C 80.28 80.28 80.28 80.28 80.28 80.28 
C 80.28 80.28 80.28 80.28 80.28 80.28 
C 80.28 80.28 80.28 80.28 80.28 80.28 
C 80.28 80.28 80.28 80.28 80.28 80.28 
C 80.28 80.28 80.28 80.28 80.28 80.28 
M 157.55976 80.28 
z
"/>
  </clipPath>
 </defs>
</svg>
