<?xml version="1.0" encoding="utf-8" standalone="no"?>
<!DOCTYPE svg PUBLIC "-//W3C//DTD SVG 1.1//EN"
  "http://www.w3.org/Graphics/SVG/1.1/DTD/svg11.dtd">
<svg xmlns:xlink="http://www.w3.org/1999/xlink" width="160.56pt" height="160.56pt" viewBox="0 0 160.56 160.56" xmlns="http://www.w3.org/2000/svg" version="1.1">
 <metadata>
  <rdf:RDF xmlns:dc="http://purl.org/dc/elements/1.1/" xmlns:cc="http://creativecommons.org/ns#" xmlns:rdf="http://www.w3.org/1999/02/22-rdf-syntax-ns#">
   <cc:Work>
    <dc:type rdf:resource="http://purl.org/dc/dcmitype/StillImage"/>
    <dc:date>2025-08-18T21:35:54.481678</dc:date>
    <dc:format>image/svg+xml</dc:format>
    <dc:creator>
     <cc:Agent>
      <dc:title>Matplotlib v3.6.3, https://matplotlib.org/</dc:title>
     </cc:Agent>
    </dc:creator>
   </cc:Work>
  </rdf:RDF>
 </metadata>
 <defs>
  <style type="text/css">*{stroke-linejoin: round; stroke-linecap: butt}</style>
 </defs>
 <g id="figure_1">
  <g id="patch_1">
   <path d="M 0 160.56 
L 160.56 160.56 
L 160.56 0 
L 0 0 
z
" style="fill: #ffffff"/>
  </g>
  <g id="axes_1">
   <g id="patch_2">
    <path d="M 157.55976 80.28 
C 157.55976 70.131715 155.560769 60.082109 151.677189 50.706316 
C 147.793608 41.330523 142.100964 32.810879 134.925042 25.634958 
C 127.749121 18.459036 119.229477 12.766392 109.853684 8.882811 
C 100.477891 4.999231 90.428285 3.00024 80.28 3.00024 
C 70.131715 3.00024 60.082109 4.999231 50.706316 8.882811 
C 41.330523 12.766392 32.810879 18.459036 25.634958 25.634958 
C 18.459036 32.810879 12.766392 41.330523 8.882811 50.706316 
C 4.999231 60.082109 3.00024 70.131715 3.00024 80.28 
C 3.00024 90.428285 4.999231 100.477891 8.882811 109.853684 
C 12.766392 119.229477 18.459036 127.749121 25.634958 134.925042 
C 32.810879 142.100964 41.330523 147.793608 50.706316 151.677189 
C 60.082109 155.560769 70.131715 157.55976 80.28 157.55976 
C 90.428285 157.55976 100.477891 155.560769 109.853684 151.677189 
C 119.229477 147.793608 127.749121 142.100964 134.925042 134.925042 
C 142.100964 127.749121 147.793608 119.229477 151.677189 109.853684 
C 155.560769 100.477891 157.55976 90.428285 157.55976 80.28 
M 80.28 80.28 
C 80.28 80.28 80.28 80.28 80.28 80.28 
C 80.28 80.28 80.28 80.28 80.28 80.28 
C 80.28 80.28 80.28 80.28 80.28 80.28 
C 80.28 80.28 80.28 80.28 80.28 80.28 
C 80.28 80.28 80.28 80.28 80.28 80.28 
C 80.28 80.28 80.28 80.28 80.28 80.28 
C 80.28 80.28 80.28 80.28 80.28 80.28 
C 80.28 80.28 80.28 80.28 80.28 80.28 
C 80.28 80.28 80.28 80.28 80.28 80.28 
C 80.28 80.28 80.28 80.28 80.28 80.28 
C 80.28 80.28 80.28 80.28 80.28 80.28 
C 80.28 80.28 80.28 80.28 80.28 80.28 
C 80.28 80.28 80.28 80.28 80.28 80.28 
C 80.28 80.28 80.28 80.28 80.28 80.28 
C 80.28 80.28 80.28 80.28 80.28 80.28 
C 80.28 80.28 80.28 80.28 80.28 80.28 
M 157.55976 80.28 
z
" style="fill: #ffffff"/>
   </g>
   <g id="matplotlib.axis_1">
    <g id="xtick_1">
     <g id="line2d_1">
      <path d="M 80.28 80.28 
L 134.925042 25.634958 
" clip-path="url(#p608cd2c26a)" style="fill: none; stroke: #b0b0b0; stroke-width: 0.8; stroke-linecap: square"/>
     </g>
     <g id="text_1">
      <!-- $\pi/4$ -->
      <g transform="translate(136.824995 18.226123) scale(0.1 -0.1)">
       <defs>
        <path id="CMMI12-19" d="M 1658 2406 
L 2381 2406 
C 2208 1691 2099 1225 2099 715 
C 2099 625 2099 -64 2362 -64 
C 2496 -64 2611 57 2611 166 
C 2611 198 2611 210 2566 306 
C 2394 746 2394 1295 2394 1340 
C 2394 1378 2394 1832 2528 2406 
L 3245 2406 
C 3328 2406 3539 2406 3539 2611 
C 3539 2752 3418 2752 3302 2752 
L 1197 2752 
C 1050 2752 832 2752 538 2438 
C 371 2253 166 1915 166 1876 
C 166 1838 198 1825 237 1825 
C 282 1825 288 1844 320 1883 
C 653 2406 986 2406 1146 2406 
L 1510 2406 
C 1370 1927 1210 1372 685 255 
C 634 153 634 140 634 102 
C 634 -32 749 -64 806 -64 
C 992 -64 1043 102 1120 370 
C 1222 695 1222 708 1286 964 
L 1658 2406 
z
" transform="scale(0.015625)"/>
        <path id="CMMI12-3d" d="M 2746 4563 
C 2746 4569 2784 4665 2784 4678 
C 2784 4755 2720 4800 2669 4800 
C 2637 4800 2579 4800 2528 4659 
L 384 -1364 
C 384 -1370 346 -1466 346 -1479 
C 346 -1556 410 -1600 461 -1600 
C 499 -1600 557 -1594 602 -1460 
L 2746 4563 
z
" transform="scale(0.015625)"/>
        <path id="CMR17-34" d="M 2150 4147 
C 2150 4281 2144 4288 2029 4288 
L 128 1254 
L 128 1088 
L 1779 1088 
L 1779 460 
C 1779 230 1766 166 1318 166 
L 1197 166 
L 1197 0 
C 1402 12 1747 12 1965 12 
C 2182 12 2528 12 2733 0 
L 2733 166 
L 2611 166 
C 2163 166 2150 230 2150 460 
L 2150 1088 
L 2803 1088 
L 2803 1254 
L 2150 1254 
L 2150 4147 
z
M 1798 3723 
L 1798 1254 
L 256 1254 
L 1798 3723 
z
" transform="scale(0.015625)"/>
       </defs>
       <use xlink:href="#CMMI12-19" transform="scale(0.996264)"/>
       <use xlink:href="#CMMI12-3d" transform="translate(58.910601 0) scale(0.996264)"/>
       <use xlink:href="#CMR17-34" transform="translate(107.68552 0) scale(0.996264)"/>
      </g>
     </g>
    </g>
    <g id="xtick_2">
     <g id="line2d_2">
      <path d="M 80.28 80.28 
L 25.634958 25.634958 
" clip-path="url(#p608cd2c26a)" style="fill: none; stroke: #b0b0b0; stroke-width: 0.8; stroke-linecap: square"/>
     </g>
     <g id="text_2">
      <!-- $3\pi/4$ -->
      <g transform="translate(5.245252 18.226123) scale(0.1 -0.1)">
       <defs>
        <path id="CMR17-33" d="M 1414 2176 
C 1984 2176 2234 1673 2234 1094 
C 2234 322 1824 25 1453 25 
C 1114 25 563 193 390 691 
C 422 678 454 678 486 678 
C 640 678 755 780 755 947 
C 755 1132 614 1216 486 1216 
C 378 1216 211 1164 211 927 
C 211 335 787 -128 1466 -128 
C 2176 -128 2720 432 2720 1087 
C 2720 1718 2208 2176 1600 2246 
C 2086 2347 2554 2776 2554 3353 
C 2554 3856 2048 4224 1472 4224 
C 890 4224 378 3862 378 3347 
C 378 3123 544 3084 627 3084 
C 762 3084 877 3167 877 3334 
C 877 3500 762 3584 627 3584 
C 602 3584 570 3584 544 3571 
C 730 3999 1235 4076 1459 4076 
C 1683 4076 2106 3966 2106 3347 
C 2106 3167 2080 2851 1862 2574 
C 1670 2329 1453 2316 1242 2297 
C 1210 2297 1062 2284 1037 2284 
C 992 2278 966 2272 966 2227 
C 966 2182 973 2176 1101 2176 
L 1414 2176 
z
" transform="scale(0.015625)"/>
       </defs>
       <use xlink:href="#CMR17-33" transform="scale(0.996264)"/>
       <use xlink:href="#CMMI12-19" transform="translate(45.690477 0) scale(0.996264)"/>
       <use xlink:href="#CMMI12-3d" transform="translate(104.601078 0) scale(0.996264)"/>
       <use xlink:href="#CMR17-34" transform="translate(153.375997 0) scale(0.996264)"/>
      </g>
     </g>
    </g>
    <g id="xtick_3">
     <g id="line2d_3">
      <path d="M 80.28 80.28 
L 25.634958 134.925042 
" clip-path="url(#p608cd2c26a)" style="fill: none; stroke: #b0b0b0; stroke-width: 0.8; stroke-linecap: square"/>
     </g>
     <g id="text_3">
      <!-- $5\pi/4$ -->
      <g transform="translate(5.245252 147.315197) scale(0.1 -0.1)">
       <defs>
        <path id="CMR17-35" d="M 730 3750 
C 794 3724 1056 3641 1325 3641 
C 1920 3641 2246 3961 2432 4140 
C 2432 4191 2432 4224 2394 4224 
C 2387 4224 2374 4224 2323 4198 
C 2099 4102 1837 4032 1517 4032 
C 1325 4032 1037 4055 723 4191 
C 653 4224 640 4224 634 4224 
C 602 4224 595 4217 595 4090 
L 595 2231 
C 595 2113 595 2080 659 2080 
C 691 2080 704 2093 736 2139 
C 941 2435 1222 2560 1542 2560 
C 1766 2560 2246 2415 2246 1293 
C 2246 1087 2246 716 2054 422 
C 1894 159 1645 25 1370 25 
C 947 25 518 319 403 812 
C 429 806 480 793 506 793 
C 589 793 749 838 749 1036 
C 749 1209 627 1280 506 1280 
C 358 1280 262 1190 262 1011 
C 262 454 704 -128 1382 -128 
C 2042 -128 2669 441 2669 1267 
C 2669 2054 2170 2662 1549 2662 
C 1222 2662 947 2540 730 2304 
L 730 3750 
z
" transform="scale(0.015625)"/>
       </defs>
       <use xlink:href="#CMR17-35" transform="scale(0.996264)"/>
       <use xlink:href="#CMMI12-19" transform="translate(45.690477 0) scale(0.996264)"/>
       <use xlink:href="#CMMI12-3d" transform="translate(104.601078 0) scale(0.996264)"/>
       <use xlink:href="#CMR17-34" transform="translate(153.375997 0) scale(0.996264)"/>
      </g>
     </g>
    </g>
    <g id="xtick_4">
     <g id="line2d_4">
      <path d="M 80.28 80.28 
L 134.925042 134.925042 
" clip-path="url(#p608cd2c26a)" style="fill: none; stroke: #b0b0b0; stroke-width: 0.8; stroke-linecap: square"/>
     </g>
     <g id="text_4">
      <!-- $7\pi/4$ -->
      <g transform="translate(134.334327 147.315197) scale(0.1 -0.1)">
       <defs>
        <path id="CMR17-37" d="M 2886 3955 
L 2886 4096 
L 1382 4096 
C 634 4096 621 4166 595 4288 
L 480 4288 
L 294 3104 
L 410 3104 
C 429 3226 474 3552 550 3673 
C 589 3724 1062 3724 1171 3724 
L 2579 3724 
L 1869 2670 
C 1395 1961 1069 1003 1069 166 
C 1069 89 1069 -128 1299 -128 
C 1530 -128 1530 89 1530 172 
L 1530 466 
C 1530 1514 1709 2204 2003 2644 
L 2886 3955 
z
" transform="scale(0.015625)"/>
       </defs>
       <use xlink:href="#CMR17-37" transform="scale(0.996264)"/>
       <use xlink:href="#CMMI12-19" transform="translate(45.690477 0) scale(0.996264)"/>
       <use xlink:href="#CMMI12-3d" transform="translate(104.601078 0) scale(0.996264)"/>
       <use xlink:href="#CMR17-34" transform="translate(153.375997 0) scale(0.996264)"/>
      </g>
     </g>
    </g>
   </g>
   <g id="matplotlib.axis_2">
    <g id="ytick_1">
     <g id="line2d_5">
      <path d="M 97.663244 80.28 
C 97.663244 77.997253 97.213593 75.736703 96.340023 73.627721 
C 95.466454 71.518738 94.185955 69.602336 92.57181 67.98819 
C 90.957664 66.374045 89.041262 65.093546 86.932279 64.219977 
C 84.823297 63.346407 82.562747 62.896756 80.28 62.896756 
C 77.997253 62.896756 75.736703 63.346407 73.627721 64.219977 
C 71.518738 65.093546 69.602336 66.374045 67.98819 67.98819 
C 66.374045 69.602336 65.093546 71.518738 64.219977 73.627721 
C 63.346407 75.736703 62.896756 77.997253 62.896756 80.28 
C 62.896756 82.562747 63.346407 84.823297 64.219977 86.932279 
C 65.093546 89.041262 66.374045 90.957664 67.98819 92.57181 
C 69.602336 94.185955 71.518738 95.466454 73.627721 96.340023 
C 75.736703 97.213593 77.997253 97.663244 80.28 97.663244 
C 82.562747 97.663244 84.823297 97.213593 86.932279 96.340023 
C 89.041262 95.466454 90.957664 94.185955 92.57181 92.57181 
C 94.185955 90.957664 95.466454 89.041262 96.340023 86.932279 
C 97.213593 84.823297 97.663244 82.562747 97.663244 80.28 
" clip-path="url(#p608cd2c26a)" style="fill: none; stroke: #b0b0b0; stroke-width: 0.8; stroke-linecap: square"/>
     </g>
     <g id="text_5">
      <!-- $\mathdefault{10^{0}}$ -->
      <g transform="translate(70.309381 92.582341) scale(0.1 -0.1)">
       <defs>
        <path id="CMR17-31" d="M 1702 4083 
C 1702 4217 1696 4224 1606 4224 
C 1357 3927 979 3833 621 3820 
C 602 3820 570 3820 563 3808 
C 557 3795 557 3782 557 3648 
C 755 3648 1088 3686 1344 3839 
L 1344 467 
C 1344 243 1331 166 781 166 
L 589 166 
L 589 0 
C 896 6 1216 12 1523 12 
C 1830 12 2150 6 2458 0 
L 2458 166 
L 2266 166 
C 1715 166 1702 236 1702 467 
L 1702 4083 
z
" transform="scale(0.015625)"/>
        <path id="CMR17-30" d="M 2688 2038 
C 2688 2430 2682 3099 2413 3613 
C 2176 4063 1798 4224 1466 4224 
C 1158 4224 768 4082 525 3620 
C 269 3137 243 2539 243 2038 
C 243 1671 250 1112 448 623 
C 723 -39 1216 -128 1466 -128 
C 1760 -128 2208 -7 2470 604 
C 2662 1048 2688 1568 2688 2038 
z
M 1466 -26 
C 1056 -26 813 328 723 816 
C 653 1196 653 1749 653 2109 
C 653 2604 653 3015 736 3407 
C 858 3954 1216 4121 1466 4121 
C 1728 4121 2067 3947 2189 3420 
C 2272 3054 2278 2623 2278 2109 
C 2278 1691 2278 1176 2202 797 
C 2067 96 1690 -26 1466 -26 
z
" transform="scale(0.015625)"/>
       </defs>
       <use xlink:href="#CMR17-31" transform="scale(0.996264)"/>
       <use xlink:href="#CMR17-30" transform="translate(45.690477 0) scale(0.996264)"/>
       <use xlink:href="#CMR17-30" transform="translate(91.380954 36.153639) scale(0.697382)"/>
      </g>
     </g>
    </g>
    <g id="ytick_2">
     <g id="line2d_6">
      <path d="M 136.917147 80.28 
C 136.917147 72.842478 135.452117 65.477277 132.605901 58.605902 
C 129.759684 51.734528 125.587633 45.490612 120.32851 40.23149 
C 115.069388 34.972367 108.825472 30.800316 101.954098 27.954099 
C 95.082723 25.107883 87.717522 23.642853 80.28 23.642853 
C 72.842478 23.642853 65.477277 25.107883 58.605902 27.954099 
C 51.734528 30.800316 45.490612 34.972367 40.23149 40.23149 
C 34.972367 45.490612 30.800316 51.734528 27.954099 58.605902 
C 25.107883 65.477277 23.642853 72.842478 23.642853 80.28 
C 23.642853 87.717522 25.107883 95.082723 27.954099 101.954098 
C 30.800316 108.825472 34.972367 115.069388 40.23149 120.32851 
C 45.490612 125.587633 51.734528 129.759684 58.605902 132.605901 
C 65.477277 135.452117 72.842478 136.917147 80.28 136.917147 
C 87.717522 136.917147 95.082723 135.452117 101.954098 132.605901 
C 108.825472 129.759684 115.069388 125.587633 120.32851 120.32851 
C 125.587633 115.069388 129.759684 108.825472 132.605901 101.954098 
C 135.452117 95.082723 136.917147 87.717522 136.917147 80.28 
" clip-path="url(#p608cd2c26a)" style="fill: none; stroke: #b0b0b0; stroke-width: 0.8; stroke-linecap: square"/>
     </g>
     <g id="text_6">
      <!-- $\mathdefault{10^{1}}$ -->
      <g transform="translate(47.794267 124.737256) scale(0.1 -0.1)">
       <use xlink:href="#CMR17-31" transform="scale(0.996264)"/>
       <use xlink:href="#CMR17-30" transform="translate(45.690477 0) scale(0.996264)"/>
       <use xlink:href="#CMR17-31" transform="translate(91.380954 36.153639) scale(0.697382)"/>
      </g>
     </g>
    </g>
    <g id="ytick_3"/>
   </g>
   <g id="line2d_7">
    <path d="M 153.882928 80.28 
L 153.822653 78.996308 
L 153.641926 77.718145 
L 153.341045 76.451033 
L 152.92052 75.20048 
L 152.381099 73.971971 
L 151.723803 72.770954 
L 150.949975 71.602818 
L 150.061343 70.472872 
L 149.060103 69.386302 
L 147.949022 68.348126 
L 145.412073 66.43575 
L 142.489692 64.769382 
L 139.24145 63.373076 
L 135.754792 62.255148 
L 132.150543 61.400666 
L 126.855356 60.509934 
L 116.809796 59.189513 
L 114.286307 59.030501 
L 111.547653 59.189702 
L 110.020596 59.45541 
L 108.251379 59.957604 
L 104.333851 62.154123 
L 100.469328 64.506368 
L 96.722009 66.965524 
L 93.169267 69.464621 
L 86.986803 74.241167 
L 82.578315 78.060543 
L 80.325202 80.231527 
L 80.830224 79.668915 
L 83.605889 76.31636 
L 85.762115 73.510152 
L 88.323328 69.985009 
L 91.190371 65.801448 
L 94.253654 61.046915 
L 97.397442 55.833759 
L 100.021287 51.012339 
L 100.712158 48.817235 
L 101.149805 46.881331 
L 101.369545 45.181103 
L 101.399268 43.700354 
L 101.261565 42.428255 
L 100.975142 41.358099 
L 100.555795 40.486513 
L 100.017086 39.812978 
L 99.370836 39.339569 
L 98.627483 39.070878 
L 97.796338 39.014094 
L 96.885782 39.179248 
L 95.903398 39.579658 
L 94.856062 40.232598 
L 93.749987 41.160318 
L 92.590714 42.391518 
L 91.383054 43.963548 
L 90.130936 45.925702 
L 88.217667 50.656224 
L 86.140254 56.775804 
L 84.380897 62.517063 
L 82.96126 67.665663 
L 81.13694 75.420053 
L 80.488478 78.796603 
L 80.484725 78.612649 
L 80.792365 74.423644 
L 80.961902 70.528344 
L 81.050309 65.581637 
L 80.997016 59.747349 
L 80.752256 53.22445 
L 80.28 46.239855 
L 79.632708 43.196685 
L 78.909485 41.033597 
L 78.12992 39.254026 
L 77.31062 37.815888 
L 76.466172 36.687744 
L 75.609788 35.845901 
L 74.753769 35.272457 
L 73.90984 34.953958 
L 73.089418 34.880454 
L 72.303815 35.044807 
L 71.56441 35.442177 
L 70.882786 36.069583 
L 70.270821 36.925483 
L 69.740726 38.009279 
L 69.304963 39.320604 
L 68.975976 40.858184 
L 68.765546 42.617917 
L 68.683477 44.589573 
L 68.735099 46.751172 
L 69.665173 51.116003 
L 72.000746 59.788128 
L 73.342935 64.699097 
L 73.4321 65.59463 
L 73.053126 65.462713 
L 72.172377 64.367893 
L 66.551547 56.501622 
L 63.81989 52.885777 
L 61.448799 50.143778 
L 59.990695 49.037211 
L 58.610408 48.153509 
L 57.322052 47.492653 
L 56.135398 47.047806 
L 55.057725 46.80891 
L 54.094936 46.764646 
L 53.252207 46.903455 
L 52.534368 47.214043 
L 51.946105 47.685583 
L 51.492057 48.307751 
L 51.176826 49.070667 
L 51.00492 49.964767 
L 50.980613 50.980613 
L 51.107722 52.108659 
L 51.389231 53.338922 
L 51.826748 54.660577 
L 52.419679 56.061393 
L 53.164043 57.527011 
L 55.207402 59.976611 
L 60.465015 65.348338 
L 68.901992 73.443403 
L 69.030245 73.784951 
L 68.833025 73.934838 
L 67.612431 73.825551 
L 61.628158 72.744167 
L 58.745212 72.441978 
L 55.792973 72.323682 
L 52.802467 72.400944 
L 49.771732 72.673435 
L 46.710997 73.144688 
L 45.77947 73.573776 
L 44.556196 74.621905 
L 43.507718 75.764931 
L 42.674647 76.989958 
L 42.095029 78.27881 
L 41.79758 79.608287 
L 41.79758 80.951713 
L 42.095029 82.28119 
L 42.674647 83.570042 
L 43.507718 84.795069 
L 44.556196 85.938095 
L 45.77947 86.986224 
L 46.710997 87.415312 
L 49.771732 87.886565 
L 52.802467 88.159056 
L 55.792973 88.236318 
L 58.745212 88.118022 
L 61.628158 87.815833 
L 65.567617 87.140497 
L 68.346824 86.624982 
L 68.833025 86.625162 
L 69.030245 86.775049 
L 68.901992 87.116597 
L 68.418887 87.691646 
L 66.322254 89.694619 
L 60.465015 95.211662 
L 55.207402 100.583389 
L 53.164043 103.032989 
L 51.826748 105.899423 
L 51.389231 107.221078 
L 51.107722 108.451341 
L 50.980613 109.579387 
L 51.00492 110.595233 
L 51.176826 111.489333 
L 51.492057 112.252249 
L 51.946105 112.874417 
L 52.534368 113.345957 
L 53.252207 113.656545 
L 54.094936 113.795354 
L 55.057725 113.75109 
L 56.135398 113.512194 
L 57.322052 113.067347 
L 58.610408 112.406491 
L 59.990695 111.522789 
L 61.448799 110.416222 
L 63.81989 107.674223 
L 68.893186 100.822356 
L 73.053126 95.097287 
L 73.4321 94.96537 
L 73.342935 95.860903 
L 72.000746 100.771872 
L 69.665173 109.443997 
L 68.735099 113.808828 
L 68.683477 115.970427 
L 68.765546 117.942083 
L 68.975976 119.701816 
L 69.304963 121.239396 
L 69.740726 122.550721 
L 70.270821 123.634517 
L 70.882786 124.490417 
L 71.56441 125.117823 
L 72.303815 125.515193 
L 73.089418 125.679546 
L 73.90984 125.606042 
L 74.753769 125.287543 
L 75.609788 124.714099 
L 76.466172 123.872256 
L 77.31062 122.744112 
L 78.12992 121.305974 
L 78.909485 119.526403 
L 79.632708 117.363315 
L 80.28 114.320145 
L 80.752256 107.33555 
L 80.997016 100.812651 
L 81.050309 94.978363 
L 80.792365 86.136356 
L 80.488478 81.763397 
L 81.13694 85.139947 
L 81.884758 88.535766 
L 82.96126 92.894337 
L 84.380897 98.042937 
L 86.140254 103.784196 
L 88.217667 109.903776 
L 90.130936 114.634298 
L 91.383054 116.596452 
L 92.590714 118.168482 
L 93.749987 119.399682 
L 94.856062 120.327402 
L 95.903398 120.980342 
L 96.885782 121.380752 
L 97.796338 121.545906 
L 98.627483 121.489122 
L 99.370836 121.220431 
L 100.017086 120.747022 
L 100.555795 120.073487 
L 100.975142 119.201901 
L 101.261565 118.131745 
L 101.399268 116.859646 
L 101.369545 115.378897 
L 101.149805 113.678669 
L 100.712158 111.742765 
L 100.021287 109.547661 
L 97.397442 104.726241 
L 94.253654 99.513085 
L 91.190371 94.758552 
L 88.323328 90.574991 
L 83.605889 84.24364 
L 80.325202 80.328473 
L 81.207187 81.207187 
L 84.523903 84.237504 
L 89.895635 88.638744 
L 93.169267 91.095379 
L 96.722009 93.594476 
L 100.469328 96.053632 
L 104.333851 98.405877 
L 108.251379 100.602396 
L 110.020596 101.10459 
L 111.547653 101.370298 
L 114.286307 101.529499 
L 116.809796 101.370487 
L 123.614628 100.487269 
L 130.350631 99.500315 
L 133.958505 98.762991 
L 137.521179 97.780385 
L 140.901578 96.523503 
L 143.995903 94.989975 
L 146.73157 93.196877 
L 149.060103 91.173698 
L 150.061343 90.087128 
L 150.949975 88.957182 
L 151.723803 87.789046 
L 152.381099 86.588029 
L 152.92052 85.35952 
L 153.341045 84.108967 
L 153.641926 82.841855 
L 153.822653 81.563692 
L 153.882928 80.28 
L 153.882928 80.28 
" clip-path="url(#p608cd2c26a)" style="fill: none; stroke: #000000; stroke-width: 0.75; stroke-linecap: square"/>
   </g>
   <g id="line2d_8">
    <path d="M 153.8647 80.28 
L 153.798769 78.996725 
L 153.610076 77.719257 
L 153.300036 76.453182 
L 152.870019 75.204011 
L 152.32138 73.977196 
L 151.655399 72.778143 
L 150.873296 71.612233 
L 149.97633 70.48482 
L 148.965995 69.401207 
L 147.84429 68.366593 
L 145.279335 66.463965 
L 142.320562 64.811551 
L 139.035065 63.432256 
L 135.520926 62.331135 
L 131.904297 61.490292 
L 126.61301 60.612804 
L 116.609107 59.30538 
L 114.057253 59.17363 
L 111.266572 59.379293 
L 109.705604 59.675971 
L 107.359698 60.605448 
L 103.446575 62.822734 
L 99.594659 65.189735 
L 95.873385 67.652726 
L 92.367447 70.137428 
L 86.361449 74.804239 
L 82.221464 78.40515 
L 80.375318 80.181296 
L 80.995307 79.485572 
L 83.963665 75.889979 
L 86.194805 72.975824 
L 88.808385 69.364165 
L 91.698225 65.127503 
L 94.751687 60.361431 
L 97.856874 55.177622 
L 100.171191 50.790096 
L 100.821048 48.64956 
L 101.231624 46.750393 
L 101.435806 45.070827 
L 101.458334 43.598049 
L 101.318435 42.325658 
L 101.031826 41.251492 
L 100.612151 40.375906 
L 100.071887 39.700618 
L 99.422778 39.22818 
L 98.675933 38.962057 
L 97.841716 38.90719 
L 96.929566 39.070878 
L 95.947858 39.463834 
L 94.903848 40.101308 
L 93.80371 41.004295 
L 92.652632 42.200956 
L 91.454898 43.728556 
L 90.213899 45.636378 
L 88.434618 49.846552 
L 86.334576 55.996421 
L 84.545395 61.804546 
L 83.091689 67.052042 
L 81.200222 75.061161 
L 80.504847 78.680128 
L 80.48861 78.581006 
L 80.789436 74.457116 
L 80.960663 70.546063 
L 81.051345 65.561862 
L 80.999424 59.678388 
L 80.754386 53.102455 
L 80.28 46.063709 
L 79.63136 43.119423 
L 78.906472 40.9473 
L 78.124686 39.154156 
L 77.302283 37.696669 
L 76.453565 36.543644 
L 75.591622 35.673059 
L 74.728892 35.069853 
L 73.877539 34.724119 
L 73.049678 34.629543 
L 72.25748 34.782031 
L 71.513164 35.17854 
L 70.828921 35.81617 
L 70.216812 36.691544 
L 69.688669 37.800491 
L 69.256015 39.137928 
L 68.929948 40.697665 
L 68.720826 42.471644 
L 68.637398 44.447754 
L 68.684745 46.604935 
L 69.534817 50.757852 
L 71.887417 59.507628 
L 73.241081 64.47033 
L 73.31934 65.352816 
L 72.913064 65.175543 
L 71.991185 64.012284 
L 66.257473 55.992271 
L 63.520533 52.387563 
L 61.343296 49.974939 
L 59.903777 48.903368 
L 58.536862 48.044473 
L 57.255626 47.397786 
L 56.070749 46.958824 
L 54.991796 46.72142 
L 54.027528 46.678369 
L 53.185754 46.821392 
L 52.473098 47.141024 
L 51.894896 47.626673 
L 51.455302 48.26693 
L 51.157569 49.050017 
L 51.004384 49.964212 
L 50.998101 50.998101 
L 51.140748 52.140552 
L 51.433715 53.380404 
L 51.877119 54.705931 
L 53.203496 57.560115 
L 55.254353 60.014631 
L 60.37107 65.277545 
L 68.518327 73.212874 
L 68.594586 73.533423 
L 68.332916 73.657623 
L 66.966651 73.49651 
L 62.336144 72.663285 
L 59.744582 72.397192 
L 57.138943 72.311895 
L 54.498567 72.397825 
L 51.801582 72.649231 
L 49.068305 73.074212 
L 46.350336 73.684741 
L 45.647977 74.17344 
L 44.595343 75.264849 
L 43.725542 76.437972 
L 43.089035 77.679354 
L 42.725493 78.968568 
L 42.641459 80.28 
L 42.808943 81.588518 
L 43.191249 82.873498 
L 43.776225 84.116701 
L 44.581711 85.297067 
L 45.619182 86.391637 
L 46.312512 86.882611 
L 49.120594 87.473716 
L 53.150532 88.05925 
L 55.739775 88.253603 
L 58.412001 88.239301 
L 61.178414 87.997542 
L 65.093147 87.361746 
L 67.884251 86.870936 
L 68.382231 86.875041 
L 68.595566 87.026011 
L 68.488946 87.36478 
L 68.036426 87.930634 
L 66.045343 89.881398 
L 60.421014 95.244819 
L 55.237654 100.558892 
L 53.172648 103.025769 
L 51.817926 105.907367 
L 51.376545 107.232908 
L 51.095052 108.463577 
L 50.968826 109.591174 
L 50.990927 110.609722 
L 51.154467 111.51331 
L 51.454283 112.294202 
L 51.887564 112.941761 
L 52.453379 113.442476 
L 53.151428 113.780996 
L 53.980515 113.941805 
L 54.93726 113.910952 
L 56.015407 113.677347 
L 57.205805 113.233366 
L 58.496825 112.574886 
L 59.874717 111.701381 
L 61.323182 110.61725 
L 63.482706 108.235392 
L 68.580706 101.386084 
L 72.846943 95.520025 
L 73.255471 95.344152 
L 73.184351 96.21709 
L 71.855161 101.132208 
L 69.532566 109.808331 
L 68.688853 113.943134 
L 68.6442 116.09131 
L 68.728483 118.063309 
L 68.937195 119.83706 
L 69.262112 121.399318 
L 69.693302 122.740925 
L 70.219973 123.854766 
L 70.830777 124.7351 
L 71.513953 125.3774 
L 72.25744 125.7782 
L 73.049008 125.934687 
L 73.876399 125.843988 
L 74.727418 125.50215 
L 75.589944 124.902907 
L 76.45182 124.036293 
L 77.30062 122.887122 
L 78.123249 121.433267 
L 78.905394 119.643558 
L 79.63076 117.474932 
L 80.28 114.593388 
L 80.755935 107.546322 
L 81.002251 100.962573 
L 81.055197 95.071636 
L 80.794302 86.158497 
L 80.507117 81.896019 
L 81.199211 85.493105 
L 81.977731 89.01407 
L 83.087306 93.487336 
L 84.538606 98.726051 
L 86.32455 104.523367 
L 88.420955 110.662458 
L 90.208069 114.90329 
L 91.450007 116.815447 
L 92.649715 118.350068 
L 93.803662 119.555566 
L 94.907091 120.467603 
L 95.954098 121.11242 
L 96.937733 121.509335 
L 97.850168 121.672721 
L 98.682895 121.613579 
L 99.426916 121.340694 
L 100.072843 120.861342 
L 100.610842 120.181523 
L 101.030342 119.305717 
L 101.319499 118.23626 
L 101.464408 116.972471 
L 101.448109 115.509649 
L 101.249402 113.838059 
L 100.841444 111.941847 
L 100.189912 109.797659 
L 97.885682 105.42352 
L 94.759764 100.209686 
L 91.694901 95.428085 
L 88.805714 91.192417 
L 83.979915 84.689387 
L 80.36994 80.373136 
L 80.988988 80.988988 
L 84.04175 83.787889 
L 89.185055 88.021046 
L 92.364413 90.420026 
L 95.844625 92.883985 
L 99.550342 95.335641 
L 103.411442 97.710792 
L 107.364079 99.957735 
L 109.729429 100.900712 
L 111.309067 101.20937 
L 114.108918 101.418654 
L 116.640158 101.272547 
L 123.430168 100.401254 
L 130.130348 99.415756 
L 133.730138 98.684358 
L 137.309412 97.715641 
L 140.719332 96.47467 
L 143.841491 94.954326 
L 146.600933 93.171483 
L 148.955267 91.157094 
L 149.971453 90.074495 
L 150.876017 88.948101 
L 151.665835 87.782954 
L 152.337974 86.584256 
L 152.88987 85.357377 
L 153.319505 84.107838 
L 153.625529 82.841282 
L 153.8073 81.563424 
L 153.864996 80.28 
L 153.864996 80.28 
" clip-path="url(#p608cd2c26a)" style="fill: none; stroke-dasharray: 2.775,1.2; stroke-dashoffset: 0; stroke: #ff0000; stroke-width: 0.75"/>
   </g>
   <g id="patch_3">
    <path d="M 157.55976 80.28 
C 157.55976 70.131715 155.560769 60.082109 151.677189 50.706316 
C 147.793608 41.330523 142.100964 32.810879 134.925042 25.634958 
C 127.749121 18.459036 119.229477 12.766392 109.853684 8.882811 
C 100.477891 4.999231 90.428285 3.00024 80.28 3.00024 
C 70.131715 3.00024 60.082109 4.999231 50.706316 8.882811 
C 41.330523 12.766392 32.810879 18.459036 25.634958 25.634958 
C 18.459036 32.810879 12.766392 41.330523 8.882811 50.706316 
C 4.999231 60.082109 3.00024 70.131715 3.00024 80.28 
C 3.00024 90.428285 4.999231 100.477891 8.882811 109.853684 
C 12.766392 119.229477 18.459036 127.749121 25.634958 134.925042 
C 32.810879 142.100964 41.330523 147.793608 50.706316 151.677189 
C 60.082109 155.560769 70.131715 157.55976 80.28 157.55976 
C 90.428285 157.55976 100.477891 155.560769 109.853684 151.677189 
C 119.229477 147.793608 127.749121 142.100964 134.925042 134.925042 
C 142.100964 127.749121 147.793608 119.229477 151.677189 109.853684 
C 155.560769 100.477891 157.55976 90.428285 157.55976 80.28 
" style="fill: none; stroke: #000000; stroke-width: 0.8; stroke-linejoin: miter; stroke-linecap: square"/>
   </g>
  </g>
 </g>
 <defs>
  <clipPath id="p608cd2c26a">
   <path d="M 157.55976 80.28 
C 157.55976 70.131715 155.560769 60.082109 151.677189 50.706316 
C 147.793608 41.330523 142.100964 32.810879 134.925042 25.634958 
C 127.749121 18.459036 119.229477 12.766392 109.853684 8.882811 
C 100.477891 4.999231 90.428285 3.00024 80.28 3.00024 
C 70.131715 3.00024 60.082109 4.999231 50.706316 8.882811 
C 41.330523 12.766392 32.810879 18.459036 25.634958 25.634958 
C 18.459036 32.810879 12.766392 41.330523 8.882811 50.706316 
C 4.999231 60.082109 3.00024 70.131715 3.00024 80.28 
C 3.00024 90.428285 4.999231 100.477891 8.882811 109.853684 
C 12.766392 119.229477 18.459036 127.749121 25.634958 134.925042 
C 32.810879 142.100964 41.330523 147.793608 50.706316 151.677189 
C 60.082109 155.560769 70.131715 157.55976 80.28 157.55976 
C 90.428285 157.55976 100.477891 155.560769 109.853684 151.677189 
C 119.229477 147.793608 127.749121 142.100964 134.925042 134.925042 
C 142.100964 127.749121 147.793608 119.229477 151.677189 109.853684 
C 155.560769 100.477891 157.55976 90.428285 157.55976 80.28 
M 80.28 80.28 
C 80.28 80.28 80.28 80.28 80.28 80.28 
C 80.28 80.28 80.28 80.28 80.28 80.28 
C 80.28 80.28 80.28 80.28 80.28 80.28 
C 80.28 80.28 80.28 80.28 80.28 80.28 
C 80.28 80.28 80.28 80.28 80.28 80.28 
C 80.28 80.28 80.28 80.28 80.28 80.28 
C 80.28 80.28 80.28 80.28 80.28 80.28 
C 80.28 80.28 80.28 80.28 80.28 80.28 
C 80.28 80.28 80.28 80.28 80.28 80.28 
C 80.28 80.28 80.28 80.28 80.28 80.28 
C 80.28 80.28 80.28 80.28 80.28 80.28 
C 80.28 80.28 80.28 80.28 80.28 80.28 
C 80.28 80.28 80.28 80.28 80.28 80.28 
C 80.28 80.28 80.28 80.28 80.28 80.28 
C 80.28 80.28 80.28 80.28 80.28 80.28 
C 80.28 80.28 80.28 80.28 80.28 80.28 
M 157.55976 80.28 
z
"/>
  </clipPath>
 </defs>
</svg>
