<?xml version="1.0" encoding="utf-8" standalone="no"?>
<!DOCTYPE svg PUBLIC "-//W3C//DTD SVG 1.1//EN"
  "http://www.w3.org/Graphics/SVG/1.1/DTD/svg11.dtd">
<svg xmlns:xlink="http://www.w3.org/1999/xlink" width="160.56pt" height="160.56pt" viewBox="0 0 160.56 160.56" xmlns="http://www.w3.org/2000/svg" version="1.1">
 <metadata>
  <rdf:RDF xmlns:dc="http://purl.org/dc/elements/1.1/" xmlns:cc="http://creativecommons.org/ns#" xmlns:rdf="http://www.w3.org/1999/02/22-rdf-syntax-ns#">
   <cc:Work>
    <dc:type rdf:resource="http://purl.org/dc/dcmitype/StillImage"/>
    <dc:date>2025-08-18T21:36:57.854444</dc:date>
    <dc:format>image/svg+xml</dc:format>
    <dc:creator>
     <cc:Agent>
      <dc:title>Matplotlib v3.6.3, https://matplotlib.org/</dc:title>
     </cc:Agent>
    </dc:creator>
   </cc:Work>
  </rdf:RDF>
 </metadata>
 <defs>
  <style type="text/css">*{stroke-linejoin: round; stroke-linecap: butt}</style>
 </defs>
 <g id="figure_1">
  <g id="patch_1">
   <path d="M 0 160.56 
L 160.56 160.56 
L 160.56 0 
L 0 0 
z
" style="fill: #ffffff"/>
  </g>
  <g id="axes_1">
   <g id="patch_2">
    <path d="M 157.55976 80.28 
C 157.55976 70.131715 155.560769 60.082109 151.677189 50.706316 
C 147.793608 41.330523 142.100964 32.810879 134.925042 25.634958 
C 127.749121 18.459036 119.229477 12.766392 109.853684 8.882811 
C 100.477891 4.999231 90.428285 3.00024 80.28 3.00024 
C 70.131715 3.00024 60.082109 4.999231 50.706316 8.882811 
C 41.330523 12.766392 32.810879 18.459036 25.634958 25.634958 
C 18.459036 32.810879 12.766392 41.330523 8.882811 50.706316 
C 4.999231 60.082109 3.00024 70.131715 3.00024 80.28 
C 3.00024 90.428285 4.999231 100.477891 8.882811 109.853684 
C 12.766392 119.229477 18.459036 127.749121 25.634958 134.925042 
C 32.810879 142.100964 41.330523 147.793608 50.706316 151.677189 
C 60.082109 155.560769 70.131715 157.55976 80.28 157.55976 
C 90.428285 157.55976 100.477891 155.560769 109.853684 151.677189 
C 119.229477 147.793608 127.749121 142.100964 134.925042 134.925042 
C 142.100964 127.749121 147.793608 119.229477 151.677189 109.853684 
C 155.560769 100.477891 157.55976 90.428285 157.55976 80.28 
M 80.28 80.28 
C 80.28 80.28 80.28 80.28 80.28 80.28 
C 80.28 80.28 80.28 80.28 80.28 80.28 
C 80.28 80.28 80.28 80.28 80.28 80.28 
C 80.28 80.28 80.28 80.28 80.28 80.28 
C 80.28 80.28 80.28 80.28 80.28 80.28 
C 80.28 80.28 80.28 80.28 80.28 80.28 
C 80.28 80.28 80.28 80.28 80.28 80.28 
C 80.28 80.28 80.28 80.28 80.28 80.28 
C 80.28 80.28 80.28 80.28 80.28 80.28 
C 80.28 80.28 80.28 80.28 80.28 80.28 
C 80.28 80.28 80.28 80.28 80.28 80.28 
C 80.28 80.28 80.28 80.28 80.28 80.28 
C 80.28 80.28 80.28 80.28 80.28 80.28 
C 80.28 80.28 80.28 80.28 80.28 80.28 
C 80.28 80.28 80.28 80.28 80.28 80.28 
C 80.28 80.28 80.28 80.28 80.28 80.28 
M 157.55976 80.28 
z
" style="fill: #ffffff"/>
   </g>
   <g id="matplotlib.axis_1">
    <g id="xtick_1">
     <g id="line2d_1">
      <path d="M 80.28 80.28 
L 134.925042 25.634958 
" clip-path="url(#p1534d33ee1)" style="fill: none; stroke: #b0b0b0; stroke-width: 0.8; stroke-linecap: square"/>
     </g>
     <g id="text_1">
      <!-- $\pi/4$ -->
      <g transform="translate(136.824995 18.226123) scale(0.1 -0.1)">
       <defs>
        <path id="CMMI12-19" d="M 1658 2406 
L 2381 2406 
C 2208 1691 2099 1225 2099 715 
C 2099 625 2099 -64 2362 -64 
C 2496 -64 2611 57 2611 166 
C 2611 198 2611 210 2566 306 
C 2394 746 2394 1295 2394 1340 
C 2394 1378 2394 1832 2528 2406 
L 3245 2406 
C 3328 2406 3539 2406 3539 2611 
C 3539 2752 3418 2752 3302 2752 
L 1197 2752 
C 1050 2752 832 2752 538 2438 
C 371 2253 166 1915 166 1876 
C 166 1838 198 1825 237 1825 
C 282 1825 288 1844 320 1883 
C 653 2406 986 2406 1146 2406 
L 1510 2406 
C 1370 1927 1210 1372 685 255 
C 634 153 634 140 634 102 
C 634 -32 749 -64 806 -64 
C 992 -64 1043 102 1120 370 
C 1222 695 1222 708 1286 964 
L 1658 2406 
z
" transform="scale(0.015625)"/>
        <path id="CMMI12-3d" d="M 2746 4563 
C 2746 4569 2784 4665 2784 4678 
C 2784 4755 2720 4800 2669 4800 
C 2637 4800 2579 4800 2528 4659 
L 384 -1364 
C 384 -1370 346 -1466 346 -1479 
C 346 -1556 410 -1600 461 -1600 
C 499 -1600 557 -1594 602 -1460 
L 2746 4563 
z
" transform="scale(0.015625)"/>
        <path id="CMR17-34" d="M 2150 4147 
C 2150 4281 2144 4288 2029 4288 
L 128 1254 
L 128 1088 
L 1779 1088 
L 1779 460 
C 1779 230 1766 166 1318 166 
L 1197 166 
L 1197 0 
C 1402 12 1747 12 1965 12 
C 2182 12 2528 12 2733 0 
L 2733 166 
L 2611 166 
C 2163 166 2150 230 2150 460 
L 2150 1088 
L 2803 1088 
L 2803 1254 
L 2150 1254 
L 2150 4147 
z
M 1798 3723 
L 1798 1254 
L 256 1254 
L 1798 3723 
z
" transform="scale(0.015625)"/>
       </defs>
       <use xlink:href="#CMMI12-19" transform="scale(0.996264)"/>
       <use xlink:href="#CMMI12-3d" transform="translate(58.910601 0) scale(0.996264)"/>
       <use xlink:href="#CMR17-34" transform="translate(107.68552 0) scale(0.996264)"/>
      </g>
     </g>
    </g>
    <g id="xtick_2">
     <g id="line2d_2">
      <path d="M 80.28 80.28 
L 25.634958 25.634958 
" clip-path="url(#p1534d33ee1)" style="fill: none; stroke: #b0b0b0; stroke-width: 0.8; stroke-linecap: square"/>
     </g>
     <g id="text_2">
      <!-- $3\pi/4$ -->
      <g transform="translate(5.245252 18.226123) scale(0.1 -0.1)">
       <defs>
        <path id="CMR17-33" d="M 1414 2176 
C 1984 2176 2234 1673 2234 1094 
C 2234 322 1824 25 1453 25 
C 1114 25 563 193 390 691 
C 422 678 454 678 486 678 
C 640 678 755 780 755 947 
C 755 1132 614 1216 486 1216 
C 378 1216 211 1164 211 927 
C 211 335 787 -128 1466 -128 
C 2176 -128 2720 432 2720 1087 
C 2720 1718 2208 2176 1600 2246 
C 2086 2347 2554 2776 2554 3353 
C 2554 3856 2048 4224 1472 4224 
C 890 4224 378 3862 378 3347 
C 378 3123 544 3084 627 3084 
C 762 3084 877 3167 877 3334 
C 877 3500 762 3584 627 3584 
C 602 3584 570 3584 544 3571 
C 730 3999 1235 4076 1459 4076 
C 1683 4076 2106 3966 2106 3347 
C 2106 3167 2080 2851 1862 2574 
C 1670 2329 1453 2316 1242 2297 
C 1210 2297 1062 2284 1037 2284 
C 992 2278 966 2272 966 2227 
C 966 2182 973 2176 1101 2176 
L 1414 2176 
z
" transform="scale(0.015625)"/>
       </defs>
       <use xlink:href="#CMR17-33" transform="scale(0.996264)"/>
       <use xlink:href="#CMMI12-19" transform="translate(45.690477 0) scale(0.996264)"/>
       <use xlink:href="#CMMI12-3d" transform="translate(104.601078 0) scale(0.996264)"/>
       <use xlink:href="#CMR17-34" transform="translate(153.375997 0) scale(0.996264)"/>
      </g>
     </g>
    </g>
    <g id="xtick_3">
     <g id="line2d_3">
      <path d="M 80.28 80.28 
L 25.634958 134.925042 
" clip-path="url(#p1534d33ee1)" style="fill: none; stroke: #b0b0b0; stroke-width: 0.8; stroke-linecap: square"/>
     </g>
     <g id="text_3">
      <!-- $5\pi/4$ -->
      <g transform="translate(5.245252 147.315197) scale(0.1 -0.1)">
       <defs>
        <path id="CMR17-35" d="M 730 3750 
C 794 3724 1056 3641 1325 3641 
C 1920 3641 2246 3961 2432 4140 
C 2432 4191 2432 4224 2394 4224 
C 2387 4224 2374 4224 2323 4198 
C 2099 4102 1837 4032 1517 4032 
C 1325 4032 1037 4055 723 4191 
C 653 4224 640 4224 634 4224 
C 602 4224 595 4217 595 4090 
L 595 2231 
C 595 2113 595 2080 659 2080 
C 691 2080 704 2093 736 2139 
C 941 2435 1222 2560 1542 2560 
C 1766 2560 2246 2415 2246 1293 
C 2246 1087 2246 716 2054 422 
C 1894 159 1645 25 1370 25 
C 947 25 518 319 403 812 
C 429 806 480 793 506 793 
C 589 793 749 838 749 1036 
C 749 1209 627 1280 506 1280 
C 358 1280 262 1190 262 1011 
C 262 454 704 -128 1382 -128 
C 2042 -128 2669 441 2669 1267 
C 2669 2054 2170 2662 1549 2662 
C 1222 2662 947 2540 730 2304 
L 730 3750 
z
" transform="scale(0.015625)"/>
       </defs>
       <use xlink:href="#CMR17-35" transform="scale(0.996264)"/>
       <use xlink:href="#CMMI12-19" transform="translate(45.690477 0) scale(0.996264)"/>
       <use xlink:href="#CMMI12-3d" transform="translate(104.601078 0) scale(0.996264)"/>
       <use xlink:href="#CMR17-34" transform="translate(153.375997 0) scale(0.996264)"/>
      </g>
     </g>
    </g>
    <g id="xtick_4">
     <g id="line2d_4">
      <path d="M 80.28 80.28 
L 134.925042 134.925042 
" clip-path="url(#p1534d33ee1)" style="fill: none; stroke: #b0b0b0; stroke-width: 0.8; stroke-linecap: square"/>
     </g>
     <g id="text_4">
      <!-- $7\pi/4$ -->
      <g transform="translate(134.334327 147.315197) scale(0.1 -0.1)">
       <defs>
        <path id="CMR17-37" d="M 2886 3955 
L 2886 4096 
L 1382 4096 
C 634 4096 621 4166 595 4288 
L 480 4288 
L 294 3104 
L 410 3104 
C 429 3226 474 3552 550 3673 
C 589 3724 1062 3724 1171 3724 
L 2579 3724 
L 1869 2670 
C 1395 1961 1069 1003 1069 166 
C 1069 89 1069 -128 1299 -128 
C 1530 -128 1530 89 1530 172 
L 1530 466 
C 1530 1514 1709 2204 2003 2644 
L 2886 3955 
z
" transform="scale(0.015625)"/>
       </defs>
       <use xlink:href="#CMR17-37" transform="scale(0.996264)"/>
       <use xlink:href="#CMMI12-19" transform="translate(45.690477 0) scale(0.996264)"/>
       <use xlink:href="#CMMI12-3d" transform="translate(104.601078 0) scale(0.996264)"/>
       <use xlink:href="#CMR17-34" transform="translate(153.375997 0) scale(0.996264)"/>
      </g>
     </g>
    </g>
   </g>
   <g id="matplotlib.axis_2">
    <g id="ytick_1">
     <g id="line2d_5">
      <path d="M 97.710424 80.28 
C 97.710424 77.991058 97.259552 75.724372 96.383612 73.609666 
C 95.507672 71.494959 94.223698 69.573356 92.605171 67.954829 
C 90.986644 66.336302 89.065041 65.052328 86.950334 64.176388 
C 84.835628 63.300448 82.568942 62.849576 80.28 62.849576 
C 77.991058 62.849576 75.724372 63.300448 73.609666 64.176388 
C 71.494959 65.052328 69.573356 66.336302 67.954829 67.954829 
C 66.336302 69.573356 65.052328 71.494959 64.176388 73.609666 
C 63.300448 75.724372 62.849576 77.991058 62.849576 80.28 
C 62.849576 82.568942 63.300448 84.835628 64.176388 86.950334 
C 65.052328 89.065041 66.336302 90.986644 67.954829 92.605171 
C 69.573356 94.223698 71.494959 95.507672 73.609666 96.383612 
C 75.724372 97.259552 77.991058 97.710424 80.28 97.710424 
C 82.568942 97.710424 84.835628 97.259552 86.950334 96.383612 
C 89.065041 95.507672 90.986644 94.223698 92.605171 92.605171 
C 94.223698 90.986644 95.507672 89.065041 96.383612 86.950334 
C 97.259552 84.835628 97.710424 82.568942 97.710424 80.28 
" clip-path="url(#p1534d33ee1)" style="fill: none; stroke: #b0b0b0; stroke-width: 0.8; stroke-linecap: square"/>
     </g>
     <g id="text_5">
      <!-- $\mathdefault{10^{0}}$ -->
      <g transform="translate(70.28232 92.620989) scale(0.1 -0.1)">
       <defs>
        <path id="CMR17-31" d="M 1702 4083 
C 1702 4217 1696 4224 1606 4224 
C 1357 3927 979 3833 621 3820 
C 602 3820 570 3820 563 3808 
C 557 3795 557 3782 557 3648 
C 755 3648 1088 3686 1344 3839 
L 1344 467 
C 1344 243 1331 166 781 166 
L 589 166 
L 589 0 
C 896 6 1216 12 1523 12 
C 1830 12 2150 6 2458 0 
L 2458 166 
L 2266 166 
C 1715 166 1702 236 1702 467 
L 1702 4083 
z
" transform="scale(0.015625)"/>
        <path id="CMR17-30" d="M 2688 2038 
C 2688 2430 2682 3099 2413 3613 
C 2176 4063 1798 4224 1466 4224 
C 1158 4224 768 4082 525 3620 
C 269 3137 243 2539 243 2038 
C 243 1671 250 1112 448 623 
C 723 -39 1216 -128 1466 -128 
C 1760 -128 2208 -7 2470 604 
C 2662 1048 2688 1568 2688 2038 
z
M 1466 -26 
C 1056 -26 813 328 723 816 
C 653 1196 653 1749 653 2109 
C 653 2604 653 3015 736 3407 
C 858 3954 1216 4121 1466 4121 
C 1728 4121 2067 3947 2189 3420 
C 2272 3054 2278 2623 2278 2109 
C 2278 1691 2278 1176 2202 797 
C 2067 96 1690 -26 1466 -26 
z
" transform="scale(0.015625)"/>
       </defs>
       <use xlink:href="#CMR17-31" transform="scale(0.996264)"/>
       <use xlink:href="#CMR17-30" transform="translate(45.690477 0) scale(0.996264)"/>
       <use xlink:href="#CMR17-30" transform="translate(91.380954 36.153639) scale(0.697382)"/>
      </g>
     </g>
    </g>
    <g id="ytick_2">
     <g id="line2d_6">
      <path d="M 137.070866 80.28 
C 137.070866 72.822292 135.60186 65.4371 132.747919 58.547076 
C 129.893978 51.657052 125.710603 45.396189 120.437207 40.122793 
C 115.163811 34.849397 108.902948 30.666022 102.012924 27.812081 
C 95.1229 24.95814 87.737708 23.489134 80.28 23.489134 
C 72.822292 23.489134 65.4371 24.95814 58.547076 27.812081 
C 51.657052 30.666022 45.396189 34.849397 40.122793 40.122793 
C 34.849397 45.396189 30.666022 51.657052 27.812081 58.547076 
C 24.95814 65.4371 23.489134 72.822292 23.489134 80.28 
C 23.489134 87.737708 24.95814 95.1229 27.812081 102.012924 
C 30.666022 108.902948 34.849397 115.163811 40.122793 120.437207 
C 45.396189 125.710603 51.657052 129.893978 58.547076 132.747919 
C 65.4371 135.60186 72.822292 137.070866 80.28 137.070866 
C 87.737708 137.070866 95.1229 135.60186 102.012924 132.747919 
C 108.902948 129.893978 115.163811 125.710603 120.437207 120.437207 
C 125.710603 115.163811 129.893978 108.902948 132.747919 102.012924 
C 135.60186 95.1229 137.070866 87.737708 137.070866 80.28 
" clip-path="url(#p1534d33ee1)" style="fill: none; stroke: #b0b0b0; stroke-width: 0.8; stroke-linecap: square"/>
     </g>
     <g id="text_6">
      <!-- $\mathdefault{10^{1}}$ -->
      <g transform="translate(47.706097 124.863176) scale(0.1 -0.1)">
       <use xlink:href="#CMR17-31" transform="scale(0.996264)"/>
       <use xlink:href="#CMR17-30" transform="translate(45.690477 0) scale(0.996264)"/>
       <use xlink:href="#CMR17-31" transform="translate(91.380954 36.153639) scale(0.697382)"/>
      </g>
     </g>
    </g>
    <g id="ytick_3"/>
   </g>
   <g id="line2d_7">
    <path d="M 153.521953 80.28 
L 153.413914 79.003443 
L 153.089295 77.737443 
L 152.546573 76.492669 
L 151.783159 75.280012 
L 150.79533 74.110708 
L 149.57813 72.996473 
L 148.125245 71.949651 
L 146.428872 70.983382 
L 144.479607 70.111781 
L 142.26641 69.350124 
L 139.776781 68.714997 
L 136.997448 68.224334 
L 133.916132 67.897123 
L 130.525678 67.752346 
L 126.833088 67.806138 
L 122.878436 68.065095 
L 118.771722 68.5119 
L 114.75384 69.07877 
L 103.91969 71.675857 
L 102.513132 71.7455 
L 103.652284 70.836984 
L 110.897237 66.648328 
L 113.310617 64.87757 
L 114.755583 63.465135 
L 115.906467 62.127408 
L 116.75565 60.885553 
L 117.321888 59.747346 
L 117.635089 58.71303 
L 117.729316 57.778181 
L 117.639658 56.935095 
L 117.400717 56.173524 
L 116.605267 54.844774 
L 115.573067 53.684766 
L 113.313985 51.563995 
L 112.085585 50.620812 
L 110.657419 49.902581 
L 109.826186 49.684029 
L 108.895119 49.594041 
L 107.849129 49.66138 
L 106.673867 49.917329 
L 105.355089 50.396673 
L 103.877617 51.139369 
L 102.223827 52.193182 
L 99.105711 55.297438 
L 95.312507 59.589529 
L 91.754084 63.893309 
L 88.545615 68.025721 
L 83.553052 75.042022 
L 80.37086 80.116084 
L 81.04343 78.781684 
L 83.3703 73.652831 
L 84.918239 69.862346 
L 86.585216 65.425842 
L 88.271093 60.501351 
L 89.883915 55.260947 
L 91.343736 49.882636 
L 91.988253 46.276763 
L 91.933617 44.413855 
L 91.724045 42.848216 
L 91.386088 41.548467 
L 90.941396 40.491129 
L 90.408033 39.65868 
L 89.80139 39.038331 
L 89.134837 38.621266 
L 88.420221 38.402193 
L 87.668257 38.379113 
L 86.888866 38.553261 
L 86.091478 38.929185 
L 85.285319 39.514951 
L 84.479704 40.322487 
L 83.684351 41.368086 
L 82.909731 42.673089 
L 82.167478 44.264777 
L 81.432525 47.275994 
L 80.767117 52.373069 
L 80.28 57.378089 
L 79.96299 62.118524 
L 79.746859 70.107068 
L 79.827988 75.979398 
L 79.732576 75.821588 
L 78.188316 68.41747 
L 77.076924 63.801605 
L 75.610528 58.31186 
L 73.781832 52.133344 
L 71.753274 46.081171 
L 70.506073 43.80321 
L 69.281825 41.924805 
L 68.088858 40.40457 
L 66.93502 39.208374 
L 65.827859 38.307935 
L 64.774673 37.679465 
L 63.782477 37.302483 
L 62.857903 37.158797 
L 62.007034 37.23159 
L 61.235145 37.504554 
L 60.546341 37.961032 
L 59.943062 38.583098 
L 59.425411 39.350565 
L 58.630513 41.223291 
L 57.84658 44.379023 
L 57.308628 46.223541 
L 56.937499 46.943454 
L 56.460725 47.495581 
L 55.863364 47.87803 
L 55.144889 48.108525 
L 53.409084 48.25649 
L 50.486313 48.330182 
L 48.666524 48.666524 
L 47.864195 48.976421 
L 47.155287 49.390706 
L 46.552005 49.911177 
L 46.063828 50.536335 
L 45.697857 51.262137 
L 45.459037 52.082541 
L 45.350251 52.98989 
L 45.372282 53.975148 
L 45.523658 55.028039 
L 46.195538 57.28974 
L 47.296291 59.669491 
L 48.694934 62.044354 
L 49.445247 63.188018 
L 51.211461 64.823984 
L 56.141416 69.023993 
L 57.051231 69.937886 
L 57.583395 70.645863 
L 57.736366 71.171781 
L 57.50822 71.538733 
L 56.895047 71.768573 
L 55.890422 71.881995 
L 52.673317 71.83979 
L 47.80448 71.578211 
L 45.807208 71.684968 
L 43.172816 72.392625 
L 40.61427 73.285862 
L 38.314142 74.382083 
L 36.40774 75.66884 
L 35.632742 76.373871 
L 34.988296 77.112896 
L 34.480821 77.879767 
L 34.115081 78.667885 
L 33.894359 79.470336 
L 33.820574 80.28 
L 33.894359 81.089664 
L 34.115081 81.892115 
L 34.480821 82.680233 
L 34.988296 83.447104 
L 35.632742 84.186129 
L 36.40774 84.89116 
L 38.314142 86.177917 
L 40.61427 87.274138 
L 43.172816 88.167375 
L 45.807208 88.875032 
L 47.80448 88.981789 
L 54.486017 88.660973 
L 56.895047 88.791427 
L 57.50822 89.021267 
L 57.736366 89.388219 
L 57.583395 89.914137 
L 57.051231 90.622114 
L 54.857586 92.67934 
L 49.445247 97.371982 
L 47.969341 99.694203 
L 46.69888 102.087835 
L 45.800377 104.422892 
L 45.372282 106.584852 
L 45.350251 107.57011 
L 45.459037 108.477459 
L 45.697857 109.297863 
L 46.063828 110.023665 
L 46.552005 110.648823 
L 47.155287 111.169294 
L 47.864195 111.583579 
L 48.666524 111.893476 
L 50.486313 112.229818 
L 55.144889 112.451475 
L 55.863364 112.68197 
L 56.460725 113.064419 
L 56.937499 113.616546 
L 57.308628 114.336459 
L 57.84658 116.180977 
L 58.630513 119.336709 
L 59.425411 121.209435 
L 59.943062 121.976902 
L 60.546341 122.598968 
L 61.235145 123.055446 
L 62.007034 123.32841 
L 62.857903 123.401203 
L 63.782477 123.257517 
L 64.774673 122.880535 
L 65.827859 122.252065 
L 66.93502 121.351626 
L 68.088858 120.15543 
L 69.281825 118.635195 
L 70.506073 116.75679 
L 71.753274 114.478829 
L 73.781832 108.426656 
L 75.610528 102.24814 
L 77.076924 96.758395 
L 78.971114 88.54398 
L 79.827988 84.580602 
L 79.79596 94.141091 
L 79.96299 98.441476 
L 80.28 103.181911 
L 80.767117 108.186931 
L 81.432525 113.284006 
L 82.167478 116.295223 
L 82.909731 117.886911 
L 83.684351 119.191914 
L 84.479704 120.237513 
L 85.285319 121.045049 
L 86.091478 121.630815 
L 86.888866 122.006739 
L 87.668257 122.180887 
L 88.420221 122.157807 
L 89.134837 121.938734 
L 89.80139 121.521669 
L 90.408033 120.90132 
L 90.941396 120.068871 
L 91.386088 119.011533 
L 91.724045 117.711784 
L 91.933617 116.146145 
L 91.988253 114.283237 
L 91.343736 110.677364 
L 89.883915 105.299053 
L 88.271093 100.058649 
L 86.585216 95.134158 
L 84.918239 90.697654 
L 82.044916 83.898613 
L 80.37086 80.443916 
L 80.8383 81.247003 
L 83.553052 85.517978 
L 85.786263 88.758901 
L 88.545615 92.534279 
L 91.754084 96.666691 
L 95.312507 100.970471 
L 99.105711 105.262562 
L 102.223827 108.366818 
L 103.877617 109.420631 
L 105.355089 110.163327 
L 106.673867 110.642671 
L 107.849129 110.89862 
L 108.895119 110.965959 
L 109.826186 110.875971 
L 110.657419 110.657419 
L 112.085585 109.939188 
L 113.313985 108.996005 
L 115.573067 106.875234 
L 116.605267 105.715226 
L 117.400717 104.386476 
L 117.639658 103.624905 
L 117.729316 102.781819 
L 117.635089 101.84697 
L 117.321888 100.812654 
L 116.75565 99.674447 
L 115.906467 98.432592 
L 114.755583 97.094865 
L 113.310617 95.68243 
L 110.897237 93.911672 
L 103.652284 89.723016 
L 102.513132 88.8145 
L 103.91969 88.884143 
L 114.75384 91.48123 
L 118.771722 92.0481 
L 122.878436 92.494905 
L 126.833088 92.753862 
L 130.525678 92.807654 
L 133.916132 92.662877 
L 136.997448 92.335666 
L 139.776781 91.845003 
L 142.26641 91.209876 
L 144.479607 90.448219 
L 146.428872 89.576618 
L 148.125245 88.610349 
L 149.57813 87.563527 
L 150.79533 86.449292 
L 151.783159 85.279988 
L 152.546573 84.067331 
L 153.089295 82.822557 
L 153.413914 81.556557 
L 153.521953 80.28 
L 153.521953 80.28 
" clip-path="url(#p1534d33ee1)" style="fill: none; stroke: #000000; stroke-width: 0.75; stroke-linecap: square"/>
   </g>
   <g id="line2d_8">
    <path d="M 153.884171 80.28 
L 153.774127 78.997155 
L 153.448552 77.724898 
L 152.90488 76.473891 
L 152.138846 75.25514 
L 151.144672 74.080145 
L 149.915185 72.961047 
L 148.441865 71.910775 
L 146.714831 70.943193 
L 144.722765 70.073269 
L 142.452879 69.317244 
L 139.891052 68.692785 
L 137.022487 68.219012 
L 133.833558 67.916187 
L 130.316329 67.804542 
L 126.478773 67.901076 
L 122.366793 68.211806 
L 118.10802 68.714814 
L 113.984532 69.328734 
L 102.89279 72.049618 
L 102.099839 71.904148 
L 103.831377 70.764626 
L 112.070113 66.12613 
L 113.831319 64.634763 
L 115.277521 63.210568 
L 116.39559 61.878188 
L 117.187695 60.655831 
L 117.67878 59.549518 
L 117.904226 58.557643 
L 117.904295 57.673043 
L 117.721169 56.884161 
L 117.396637 56.176174 
L 116.474337 54.936453 
L 114.808363 53.303486 
L 112.476721 51.289942 
L 111.206622 50.414508 
L 110.499389 50.060611 
L 109.716773 49.797329 
L 108.836437 49.656971 
L 107.836564 49.675335 
L 106.697061 49.890647 
L 105.399941 50.34322 
L 103.928699 51.076289 
L 102.266601 52.138434 
L 99.157102 55.22924 
L 95.298948 59.608192 
L 91.690043 63.98477 
L 88.451522 68.16522 
L 83.452049 75.203661 
L 80.325291 80.198294 
L 81.056131 78.756758 
L 83.444539 73.493624 
L 85.016072 69.642608 
L 86.698227 65.159604 
L 88.390791 60.205088 
L 90.004242 54.947482 
L 91.462827 49.555435 
L 92.031518 46.151115 
L 91.974159 44.289081 
L 91.765066 42.714041 
L 91.429881 41.395746 
L 90.989273 40.312447 
L 90.460382 39.448718 
L 89.857791 38.79403 
L 89.194225 38.341869 
L 88.481059 38.089207 
L 87.728724 38.036189 
L 86.947043 38.185947 
L 86.145543 38.544492 
L 85.333727 39.120698 
L 84.521329 39.926446 
L 83.718563 40.977049 
L 82.936373 42.29209 
L 82.186761 43.896835 
L 81.462803 46.408942 
L 80.779258 51.677508 
L 80.28 56.853697 
L 79.956961 61.773134 
L 79.749886 70.164817 
L 79.886132 76.532601 
L 79.798358 76.357344 
L 78.968305 71.998284 
L 78.088109 67.849166 
L 76.831786 62.540478 
L 75.17773 56.275709 
L 73.129231 49.306616 
L 71.430667 44.787264 
L 70.162987 42.522794 
L 68.922981 40.673368 
L 67.715385 39.182997 
L 66.545533 38.009658 
L 65.420085 37.123672 
L 64.347336 36.505364 
L 63.337005 36.141989 
L 62.399503 36.024216 
L 61.544801 36.142637 
L 60.781132 36.484825 
L 60.11377 37.033381 
L 59.544163 37.765234 
L 59.069584 38.652215 
L 58.375125 40.76256 
L 57.934182 43.090314 
L 57.343643 46.275452 
L 57.01623 47.055893 
L 56.553604 47.623417 
L 55.931458 47.968394 
L 55.150336 48.115497 
L 53.228314 48.041056 
L 51.115705 47.889769 
L 49.102842 47.995108 
L 48.190881 48.190881 
L 47.363222 48.492637 
L 46.634465 48.905031 
L 46.019092 49.43134 
L 45.530768 50.072953 
L 45.180974 50.82842 
L 44.977639 51.692712 
L 44.924336 52.657128 
L 45.020271 53.709889 
L 45.261054 54.837246 
L 46.148596 57.258078 
L 47.517142 59.807494 
L 49.259857 62.370512 
L 50.854234 63.969032 
L 60.062999 71.278811 
L 60.658894 71.951335 
L 60.857179 72.432671 
L 60.669001 72.752043 
L 60.097187 72.934057 
L 59.134547 72.999037 
L 55.966535 72.846628 
L 47.79456 72.18047 
L 45.482636 72.246396 
L 42.461049 72.928741 
L 39.638739 73.843057 
L 37.216911 74.992518 
L 36.201922 75.647207 
L 35.33449 76.347777 
L 34.623043 77.087355 
L 34.072899 77.858388 
L 33.686572 78.652922 
L 33.464153 79.462826 
L 33.403786 80.28 
L 33.502245 81.096509 
L 33.755599 81.904668 
L 34.159879 82.697053 
L 34.711634 83.466451 
L 35.408204 84.205773 
L 36.247545 84.907998 
L 37.227452 85.566188 
L 38.344168 86.173697 
L 40.953463 87.21433 
L 43.93914 88.004488 
L 45.494981 88.310754 
L 47.910232 88.35069 
L 57.851166 87.56757 
L 60.140714 87.610101 
L 60.734678 87.782746 
L 60.971544 88.081123 
L 60.835358 88.533761 
L 60.29733 89.176858 
L 57.893451 91.19865 
L 50.910933 96.559539 
L 49.245346 98.197866 
L 47.477008 100.777585 
L 46.136359 103.310177 
L 45.279218 105.709557 
L 45.041574 106.834059 
L 44.939611 107.890938 
L 44.980576 108.86491 
L 45.169782 109.740971 
L 45.508328 110.506553 
L 45.991753 111.153276 
L 46.610008 111.677775 
L 47.348636 112.081449 
L 48.190546 112.369454 
L 50.110497 112.632831 
L 52.206246 112.575159 
L 55.146514 112.449395 
L 55.916554 112.611384 
L 56.533948 112.963636 
L 56.999164 113.528479 
L 57.334768 114.297705 
L 57.769213 116.30479 
L 58.379727 119.789138 
L 59.057975 121.930569 
L 59.526657 122.830659 
L 60.093307 123.570502 
L 60.760629 124.121225 
L 61.526493 124.460495 
L 62.384617 124.572627 
L 63.325775 124.447266 
L 64.339263 124.076814 
L 65.41433 123.45304 
L 66.541287 122.563412 
L 67.712111 121.387713 
L 68.920483 119.895344 
L 70.161316 118.043443 
L 71.429932 115.775683 
L 73.129611 111.251737 
L 75.179004 104.278299 
L 76.832439 98.016165 
L 78.966093 88.575682 
L 79.885003 84.038144 
L 79.751404 90.366217 
L 79.7919 94.257343 
L 79.957583 98.751272 
L 80.28 103.673196 
L 80.778728 108.852102 
L 81.461786 114.121915 
L 82.186238 116.65319 
L 82.935819 118.259979 
L 83.718167 119.578427 
L 84.521397 120.634195 
L 85.334593 121.44636 
L 86.147421 122.028867 
L 86.949841 122.391718 
L 87.731924 122.541962 
L 88.483725 122.484506 
L 89.19519 122.222669 
L 89.856035 121.758366 
L 90.455521 121.091787 
L 90.982024 120.220498 
L 91.422335 119.137939 
L 91.760618 117.83141 
L 91.976995 116.279649 
L 92.045692 114.450051 
L 91.530808 111.191341 
L 90.089295 105.834086 
L 88.476346 100.566669 
L 86.767892 95.564517 
L 85.05945 91.014821 
L 82.086583 83.984043 
L 80.327656 80.365975 
L 80.77621 81.139462 
L 83.45113 85.354868 
L 85.682083 88.598478 
L 88.472085 92.425266 
L 91.754655 96.667505 
L 95.426126 101.126854 
L 99.34798 105.584064 
L 102.351658 108.530434 
L 104.003827 109.576486 
L 105.456564 110.284261 
L 106.733422 110.711181 
L 107.858494 110.90902 
L 108.855425 110.923392 
L 109.745618 110.79254 
L 111.272858 110.209455 
L 112.54691 109.333256 
L 115.969078 106.209633 
L 117.044054 105.077667 
L 117.466813 104.429399 
L 117.768598 103.705476 
L 117.91946 102.896069 
L 117.890934 101.994683 
L 117.653062 100.996226 
L 117.171902 99.895772 
L 116.409788 98.689046 
L 115.331006 97.375518 
L 113.917041 95.96521 
L 112.199136 94.491315 
L 102.100811 88.656224 
L 102.936789 88.526397 
L 114.10882 91.27165 
L 118.229008 91.882176 
L 122.451032 92.372349 
L 126.514033 92.668372 
L 130.30725 92.753194 
L 133.793905 92.634658 
L 136.968521 92.329517 
L 139.837068 91.856721 
L 142.408863 91.234995 
L 144.693787 90.482142 
L 146.701633 89.614952 
L 148.44211 88.649255 
L 149.924878 87.599972 
L 151.159423 86.481146 
L 152.154743 85.305972 
L 152.918947 84.086846 
L 153.458825 82.835461 
L 153.779502 81.562939 
L 153.88422 80.28 
L 153.88422 80.28 
" clip-path="url(#p1534d33ee1)" style="fill: none; stroke-dasharray: 2.775,1.2; stroke-dashoffset: 0; stroke: #ff0000; stroke-width: 0.75"/>
   </g>
   <g id="patch_3">
    <path d="M 157.55976 80.28 
C 157.55976 70.131715 155.560769 60.082109 151.677189 50.706316 
C 147.793608 41.330523 142.100964 32.810879 134.925042 25.634958 
C 127.749121 18.459036 119.229477 12.766392 109.853684 8.882811 
C 100.477891 4.999231 90.428285 3.00024 80.28 3.00024 
C 70.131715 3.00024 60.082109 4.999231 50.706316 8.882811 
C 41.330523 12.766392 32.810879 18.459036 25.634958 25.634958 
C 18.459036 32.810879 12.766392 41.330523 8.882811 50.706316 
C 4.999231 60.082109 3.00024 70.131715 3.00024 80.28 
C 3.00024 90.428285 4.999231 100.477891 8.882811 109.853684 
C 12.766392 119.229477 18.459036 127.749121 25.634958 134.925042 
C 32.810879 142.100964 41.330523 147.793608 50.706316 151.677189 
C 60.082109 155.560769 70.131715 157.55976 80.28 157.55976 
C 90.428285 157.55976 100.477891 155.560769 109.853684 151.677189 
C 119.229477 147.793608 127.749121 142.100964 134.925042 134.925042 
C 142.100964 127.749121 147.793608 119.229477 151.677189 109.853684 
C 155.560769 100.477891 157.55976 90.428285 157.55976 80.28 
" style="fill: none; stroke: #000000; stroke-width: 0.8; stroke-linejoin: miter; stroke-linecap: square"/>
   </g>
  </g>
 </g>
 <defs>
  <clipPath id="p1534d33ee1">
   <path d="M 157.55976 80.28 
C 157.55976 70.131715 155.560769 60.082109 151.677189 50.706316 
C 147.793608 41.330523 142.100964 32.810879 134.925042 25.634958 
C 127.749121 18.459036 119.229477 12.766392 109.853684 8.882811 
C 100.477891 4.999231 90.428285 3.00024 80.28 3.00024 
C 70.131715 3.00024 60.082109 4.999231 50.706316 8.882811 
C 41.330523 12.766392 32.810879 18.459036 25.634958 25.634958 
C 18.459036 32.810879 12.766392 41.330523 8.882811 50.706316 
C 4.999231 60.082109 3.00024 70.131715 3.00024 80.28 
C 3.00024 90.428285 4.999231 100.477891 8.882811 109.853684 
C 12.766392 119.229477 18.459036 127.749121 25.634958 134.925042 
C 32.810879 142.100964 41.330523 147.793608 50.706316 151.677189 
C 60.082109 155.560769 70.131715 157.55976 80.28 157.55976 
C 90.428285 157.55976 100.477891 155.560769 109.853684 151.677189 
C 119.229477 147.793608 127.749121 142.100964 134.925042 134.925042 
C 142.100964 127.749121 147.793608 119.229477 151.677189 109.853684 
C 155.560769 100.477891 157.55976 90.428285 157.55976 80.28 
M 80.28 80.28 
C 80.28 80.28 80.28 80.28 80.28 80.28 
C 80.28 80.28 80.28 80.28 80.28 80.28 
C 80.28 80.28 80.28 80.28 80.28 80.28 
C 80.28 80.28 80.28 80.28 80.28 80.28 
C 80.28 80.28 80.28 80.28 80.28 80.28 
C 80.28 80.28 80.28 80.28 80.28 80.28 
C 80.28 80.28 80.28 80.28 80.28 80.28 
C 80.28 80.28 80.28 80.28 80.28 80.28 
C 80.28 80.28 80.28 80.28 80.28 80.28 
C 80.28 80.28 80.28 80.28 80.28 80.28 
C 80.28 80.28 80.28 80.28 80.28 80.28 
C 80.28 80.28 80.28 80.28 80.28 80.28 
C 80.28 80.28 80.28 80.28 80.28 80.28 
C 80.28 80.28 80.28 80.28 80.28 80.28 
C 80.28 80.28 80.28 80.28 80.28 80.28 
C 80.28 80.28 80.28 80.28 80.28 80.28 
M 157.55976 80.28 
z
"/>
  </clipPath>
 </defs>
</svg>
