<?xml version="1.0" encoding="utf-8" standalone="no"?>
<!DOCTYPE svg PUBLIC "-//W3C//DTD SVG 1.1//EN"
  "http://www.w3.org/Graphics/SVG/1.1/DTD/svg11.dtd">
<svg xmlns:xlink="http://www.w3.org/1999/xlink" width="160.56pt" height="160.56pt" viewBox="0 0 160.56 160.56" xmlns="http://www.w3.org/2000/svg" version="1.1">
 <metadata>
  <rdf:RDF xmlns:dc="http://purl.org/dc/elements/1.1/" xmlns:cc="http://creativecommons.org/ns#" xmlns:rdf="http://www.w3.org/1999/02/22-rdf-syntax-ns#">
   <cc:Work>
    <dc:type rdf:resource="http://purl.org/dc/dcmitype/StillImage"/>
    <dc:date>2025-08-18T17:31:49.390135</dc:date>
    <dc:format>image/svg+xml</dc:format>
    <dc:creator>
     <cc:Agent>
      <dc:title>Matplotlib v3.6.3, https://matplotlib.org/</dc:title>
     </cc:Agent>
    </dc:creator>
   </cc:Work>
  </rdf:RDF>
 </metadata>
 <defs>
  <style type="text/css">*{stroke-linejoin: round; stroke-linecap: butt}</style>
 </defs>
 <g id="figure_1">
  <g id="patch_1">
   <path d="M 0 160.56 
L 160.56 160.56 
L 160.56 0 
L 0 0 
z
" style="fill: #ffffff"/>
  </g>
  <g id="axes_1">
   <g id="patch_2">
    <path d="M 157.55976 80.28 
C 157.55976 70.131715 155.560769 60.082109 151.677189 50.706316 
C 147.793608 41.330523 142.100964 32.810879 134.925042 25.634958 
C 127.749121 18.459036 119.229477 12.766392 109.853684 8.882811 
C 100.477891 4.999231 90.428285 3.00024 80.28 3.00024 
C 70.131715 3.00024 60.082109 4.999231 50.706316 8.882811 
C 41.330523 12.766392 32.810879 18.459036 25.634958 25.634958 
C 18.459036 32.810879 12.766392 41.330523 8.882811 50.706316 
C 4.999231 60.082109 3.00024 70.131715 3.00024 80.28 
C 3.00024 90.428285 4.999231 100.477891 8.882811 109.853684 
C 12.766392 119.229477 18.459036 127.749121 25.634958 134.925042 
C 32.810879 142.100964 41.330523 147.793608 50.706316 151.677189 
C 60.082109 155.560769 70.131715 157.55976 80.28 157.55976 
C 90.428285 157.55976 100.477891 155.560769 109.853684 151.677189 
C 119.229477 147.793608 127.749121 142.100964 134.925042 134.925042 
C 142.100964 127.749121 147.793608 119.229477 151.677189 109.853684 
C 155.560769 100.477891 157.55976 90.428285 157.55976 80.28 
M 80.28 80.28 
C 80.28 80.28 80.28 80.28 80.28 80.28 
C 80.28 80.28 80.28 80.28 80.28 80.28 
C 80.28 80.28 80.28 80.28 80.28 80.28 
C 80.28 80.28 80.28 80.28 80.28 80.28 
C 80.28 80.28 80.28 80.28 80.28 80.28 
C 80.28 80.28 80.28 80.28 80.28 80.28 
C 80.28 80.28 80.28 80.28 80.28 80.28 
C 80.28 80.28 80.28 80.28 80.28 80.28 
C 80.28 80.28 80.28 80.28 80.28 80.28 
C 80.28 80.28 80.28 80.28 80.28 80.28 
C 80.28 80.28 80.28 80.28 80.28 80.28 
C 80.28 80.28 80.28 80.28 80.28 80.28 
C 80.28 80.28 80.28 80.28 80.28 80.28 
C 80.28 80.28 80.28 80.28 80.28 80.28 
C 80.28 80.28 80.28 80.28 80.28 80.28 
C 80.28 80.28 80.28 80.28 80.28 80.28 
M 157.55976 80.28 
z
" style="fill: #ffffff"/>
   </g>
   <g id="matplotlib.axis_1">
    <g id="xtick_1">
     <g id="line2d_1">
      <path d="M 80.28 80.28 
L 134.925042 25.634958 
" clip-path="url(#pf5147c338f)" style="fill: none; stroke: #b0b0b0; stroke-width: 0.8; stroke-linecap: square"/>
     </g>
     <g id="text_1">
      <!-- $\pi/4$ -->
      <g transform="translate(136.824995 18.226123) scale(0.1 -0.1)">
       <defs>
        <path id="CMMI12-19" d="M 1658 2406 
L 2381 2406 
C 2208 1691 2099 1225 2099 715 
C 2099 625 2099 -64 2362 -64 
C 2496 -64 2611 57 2611 166 
C 2611 198 2611 210 2566 306 
C 2394 746 2394 1295 2394 1340 
C 2394 1378 2394 1832 2528 2406 
L 3245 2406 
C 3328 2406 3539 2406 3539 2611 
C 3539 2752 3418 2752 3302 2752 
L 1197 2752 
C 1050 2752 832 2752 538 2438 
C 371 2253 166 1915 166 1876 
C 166 1838 198 1825 237 1825 
C 282 1825 288 1844 320 1883 
C 653 2406 986 2406 1146 2406 
L 1510 2406 
C 1370 1927 1210 1372 685 255 
C 634 153 634 140 634 102 
C 634 -32 749 -64 806 -64 
C 992 -64 1043 102 1120 370 
C 1222 695 1222 708 1286 964 
L 1658 2406 
z
" transform="scale(0.015625)"/>
        <path id="CMMI12-3d" d="M 2746 4563 
C 2746 4569 2784 4665 2784 4678 
C 2784 4755 2720 4800 2669 4800 
C 2637 4800 2579 4800 2528 4659 
L 384 -1364 
C 384 -1370 346 -1466 346 -1479 
C 346 -1556 410 -1600 461 -1600 
C 499 -1600 557 -1594 602 -1460 
L 2746 4563 
z
" transform="scale(0.015625)"/>
        <path id="CMR17-34" d="M 2150 4147 
C 2150 4281 2144 4288 2029 4288 
L 128 1254 
L 128 1088 
L 1779 1088 
L 1779 460 
C 1779 230 1766 166 1318 166 
L 1197 166 
L 1197 0 
C 1402 12 1747 12 1965 12 
C 2182 12 2528 12 2733 0 
L 2733 166 
L 2611 166 
C 2163 166 2150 230 2150 460 
L 2150 1088 
L 2803 1088 
L 2803 1254 
L 2150 1254 
L 2150 4147 
z
M 1798 3723 
L 1798 1254 
L 256 1254 
L 1798 3723 
z
" transform="scale(0.015625)"/>
       </defs>
       <use xlink:href="#CMMI12-19" transform="scale(0.996264)"/>
       <use xlink:href="#CMMI12-3d" transform="translate(58.910601 0) scale(0.996264)"/>
       <use xlink:href="#CMR17-34" transform="translate(107.68552 0) scale(0.996264)"/>
      </g>
     </g>
    </g>
    <g id="xtick_2">
     <g id="line2d_2">
      <path d="M 80.28 80.28 
L 25.634958 25.634958 
" clip-path="url(#pf5147c338f)" style="fill: none; stroke: #b0b0b0; stroke-width: 0.8; stroke-linecap: square"/>
     </g>
     <g id="text_2">
      <!-- $3\pi/4$ -->
      <g transform="translate(5.245252 18.226123) scale(0.1 -0.1)">
       <defs>
        <path id="CMR17-33" d="M 1414 2176 
C 1984 2176 2234 1673 2234 1094 
C 2234 322 1824 25 1453 25 
C 1114 25 563 193 390 691 
C 422 678 454 678 486 678 
C 640 678 755 780 755 947 
C 755 1132 614 1216 486 1216 
C 378 1216 211 1164 211 927 
C 211 335 787 -128 1466 -128 
C 2176 -128 2720 432 2720 1087 
C 2720 1718 2208 2176 1600 2246 
C 2086 2347 2554 2776 2554 3353 
C 2554 3856 2048 4224 1472 4224 
C 890 4224 378 3862 378 3347 
C 378 3123 544 3084 627 3084 
C 762 3084 877 3167 877 3334 
C 877 3500 762 3584 627 3584 
C 602 3584 570 3584 544 3571 
C 730 3999 1235 4076 1459 4076 
C 1683 4076 2106 3966 2106 3347 
C 2106 3167 2080 2851 1862 2574 
C 1670 2329 1453 2316 1242 2297 
C 1210 2297 1062 2284 1037 2284 
C 992 2278 966 2272 966 2227 
C 966 2182 973 2176 1101 2176 
L 1414 2176 
z
" transform="scale(0.015625)"/>
       </defs>
       <use xlink:href="#CMR17-33" transform="scale(0.996264)"/>
       <use xlink:href="#CMMI12-19" transform="translate(45.690477 0) scale(0.996264)"/>
       <use xlink:href="#CMMI12-3d" transform="translate(104.601078 0) scale(0.996264)"/>
       <use xlink:href="#CMR17-34" transform="translate(153.375997 0) scale(0.996264)"/>
      </g>
     </g>
    </g>
    <g id="xtick_3">
     <g id="line2d_3">
      <path d="M 80.28 80.28 
L 25.634958 134.925042 
" clip-path="url(#pf5147c338f)" style="fill: none; stroke: #b0b0b0; stroke-width: 0.8; stroke-linecap: square"/>
     </g>
     <g id="text_3">
      <!-- $5\pi/4$ -->
      <g transform="translate(5.245252 147.315197) scale(0.1 -0.1)">
       <defs>
        <path id="CMR17-35" d="M 730 3750 
C 794 3724 1056 3641 1325 3641 
C 1920 3641 2246 3961 2432 4140 
C 2432 4191 2432 4224 2394 4224 
C 2387 4224 2374 4224 2323 4198 
C 2099 4102 1837 4032 1517 4032 
C 1325 4032 1037 4055 723 4191 
C 653 4224 640 4224 634 4224 
C 602 4224 595 4217 595 4090 
L 595 2231 
C 595 2113 595 2080 659 2080 
C 691 2080 704 2093 736 2139 
C 941 2435 1222 2560 1542 2560 
C 1766 2560 2246 2415 2246 1293 
C 2246 1087 2246 716 2054 422 
C 1894 159 1645 25 1370 25 
C 947 25 518 319 403 812 
C 429 806 480 793 506 793 
C 589 793 749 838 749 1036 
C 749 1209 627 1280 506 1280 
C 358 1280 262 1190 262 1011 
C 262 454 704 -128 1382 -128 
C 2042 -128 2669 441 2669 1267 
C 2669 2054 2170 2662 1549 2662 
C 1222 2662 947 2540 730 2304 
L 730 3750 
z
" transform="scale(0.015625)"/>
       </defs>
       <use xlink:href="#CMR17-35" transform="scale(0.996264)"/>
       <use xlink:href="#CMMI12-19" transform="translate(45.690477 0) scale(0.996264)"/>
       <use xlink:href="#CMMI12-3d" transform="translate(104.601078 0) scale(0.996264)"/>
       <use xlink:href="#CMR17-34" transform="translate(153.375997 0) scale(0.996264)"/>
      </g>
     </g>
    </g>
    <g id="xtick_4">
     <g id="line2d_4">
      <path d="M 80.28 80.28 
L 134.925042 134.925042 
" clip-path="url(#pf5147c338f)" style="fill: none; stroke: #b0b0b0; stroke-width: 0.8; stroke-linecap: square"/>
     </g>
     <g id="text_4">
      <!-- $7\pi/4$ -->
      <g transform="translate(134.334327 147.315197) scale(0.1 -0.1)">
       <defs>
        <path id="CMR17-37" d="M 2886 3955 
L 2886 4096 
L 1382 4096 
C 634 4096 621 4166 595 4288 
L 480 4288 
L 294 3104 
L 410 3104 
C 429 3226 474 3552 550 3673 
C 589 3724 1062 3724 1171 3724 
L 2579 3724 
L 1869 2670 
C 1395 1961 1069 1003 1069 166 
C 1069 89 1069 -128 1299 -128 
C 1530 -128 1530 89 1530 172 
L 1530 466 
C 1530 1514 1709 2204 2003 2644 
L 2886 3955 
z
" transform="scale(0.015625)"/>
       </defs>
       <use xlink:href="#CMR17-37" transform="scale(0.996264)"/>
       <use xlink:href="#CMMI12-19" transform="translate(45.690477 0) scale(0.996264)"/>
       <use xlink:href="#CMMI12-3d" transform="translate(104.601078 0) scale(0.996264)"/>
       <use xlink:href="#CMR17-34" transform="translate(153.375997 0) scale(0.996264)"/>
      </g>
     </g>
    </g>
   </g>
   <g id="matplotlib.axis_2">
    <g id="ytick_1">
     <g id="line2d_5">
      <path d="M 96.483025 80.28 
C 96.483025 78.152238 96.063902 76.045166 95.249643 74.079371 
C 94.435384 72.113575 93.241823 70.327286 91.737269 68.822731 
C 90.232714 67.318177 88.446425 66.124616 86.480629 65.310357 
C 84.514834 64.496098 82.407762 64.076975 80.28 64.076975 
C 78.152238 64.076975 76.045166 64.496098 74.079371 65.310357 
C 72.113575 66.124616 70.327286 67.318177 68.822731 68.822731 
C 67.318177 70.327286 66.124616 72.113575 65.310357 74.079371 
C 64.496098 76.045166 64.076975 78.152238 64.076975 80.28 
C 64.076975 82.407762 64.496098 84.514834 65.310357 86.480629 
C 66.124616 88.446425 67.318177 90.232714 68.822731 91.737269 
C 70.327286 93.241823 72.113575 94.435384 74.079371 95.249643 
C 76.045166 96.063902 78.152238 96.483025 80.28 96.483025 
C 82.407762 96.483025 84.514834 96.063902 86.480629 95.249643 
C 88.446425 94.435384 90.232714 93.241823 91.737269 91.737269 
C 93.241823 90.232714 94.435384 88.446425 95.249643 86.480629 
C 96.063902 84.514834 96.483025 82.407762 96.483025 80.28 
" clip-path="url(#pf5147c338f)" style="fill: none; stroke: #b0b0b0; stroke-width: 0.8; stroke-linecap: square"/>
     </g>
     <g id="text_5">
      <!-- $\mathdefault{10^{0}}$ -->
      <g transform="translate(70.986327 91.615562) scale(0.1 -0.1)">
       <defs>
        <path id="CMR17-31" d="M 1702 4083 
C 1702 4217 1696 4224 1606 4224 
C 1357 3927 979 3833 621 3820 
C 602 3820 570 3820 563 3808 
C 557 3795 557 3782 557 3648 
C 755 3648 1088 3686 1344 3839 
L 1344 467 
C 1344 243 1331 166 781 166 
L 589 166 
L 589 0 
C 896 6 1216 12 1523 12 
C 1830 12 2150 6 2458 0 
L 2458 166 
L 2266 166 
C 1715 166 1702 236 1702 467 
L 1702 4083 
z
" transform="scale(0.015625)"/>
        <path id="CMR17-30" d="M 2688 2038 
C 2688 2430 2682 3099 2413 3613 
C 2176 4063 1798 4224 1466 4224 
C 1158 4224 768 4082 525 3620 
C 269 3137 243 2539 243 2038 
C 243 1671 250 1112 448 623 
C 723 -39 1216 -128 1466 -128 
C 1760 -128 2208 -7 2470 604 
C 2662 1048 2688 1568 2688 2038 
z
M 1466 -26 
C 1056 -26 813 328 723 816 
C 653 1196 653 1749 653 2109 
C 653 2604 653 3015 736 3407 
C 858 3954 1216 4121 1466 4121 
C 1728 4121 2067 3947 2189 3420 
C 2272 3054 2278 2623 2278 2109 
C 2278 1691 2278 1176 2202 797 
C 2067 96 1690 -26 1466 -26 
z
" transform="scale(0.015625)"/>
       </defs>
       <use xlink:href="#CMR17-31" transform="scale(0.996264)"/>
       <use xlink:href="#CMR17-30" transform="translate(45.690477 0) scale(0.996264)"/>
       <use xlink:href="#CMR17-30" transform="translate(91.380954 36.153639) scale(0.697382)"/>
      </g>
     </g>
    </g>
    <g id="ytick_2">
     <g id="line2d_6">
      <path d="M 133.07182 80.28 
C 133.07182 73.347442 131.706257 66.482294 129.053282 60.077445 
C 126.400306 53.672597 122.511513 47.852605 117.609454 42.950546 
C 112.707395 38.048487 106.887403 34.159694 100.482555 31.506718 
C 94.077706 28.853743 87.212558 27.48818 80.28 27.48818 
C 73.347442 27.48818 66.482294 28.853743 60.077445 31.506718 
C 53.672597 34.159694 47.852605 38.048487 42.950546 42.950546 
C 38.048487 47.852605 34.159694 53.672597 31.506718 60.077445 
C 28.853743 66.482294 27.48818 73.347442 27.48818 80.28 
C 27.48818 87.212558 28.853743 94.077706 31.506718 100.482555 
C 34.159694 106.887403 38.048487 112.707395 42.950546 117.609454 
C 47.852605 122.511513 53.672597 126.400306 60.077445 129.053282 
C 66.482294 131.706257 73.347442 133.07182 80.28 133.07182 
C 87.212558 133.07182 94.077706 131.706257 100.482555 129.053282 
C 106.887403 126.400306 112.707395 122.511513 117.609454 117.609454 
C 122.511513 112.707395 126.400306 106.887403 129.053282 100.482555 
C 131.706257 94.077706 133.07182 87.212558 133.07182 80.28 
" clip-path="url(#pf5147c338f)" style="fill: none; stroke: #b0b0b0; stroke-width: 0.8; stroke-linecap: square"/>
     </g>
     <g id="text_6">
      <!-- $\mathdefault{10^{1}}$ -->
      <g transform="translate(49.999856 121.587349) scale(0.1 -0.1)">
       <use xlink:href="#CMR17-31" transform="scale(0.996264)"/>
       <use xlink:href="#CMR17-30" transform="translate(45.690477 0) scale(0.996264)"/>
       <use xlink:href="#CMR17-31" transform="translate(91.380954 36.153639) scale(0.697382)"/>
      </g>
     </g>
    </g>
    <g id="ytick_3"/>
   </g>
   <g id="line2d_7">
    <path d="M 153.892373 80.28 
L 153.812888 78.996479 
L 153.574205 77.72051 
L 153.175629 76.459702 
L 152.615999 75.221774 
L 151.893681 74.014615 
L 151.006559 72.846339 
L 149.95205 71.725348 
L 148.727128 70.660383 
L 147.328409 69.660575 
L 145.752315 68.735464 
L 143.995397 67.894981 
L 142.054933 67.149333 
L 139.930004 66.508711 
L 137.623389 65.982687 
L 135.144837 65.579011 
L 132.516554 65.301409 
L 127.018406 65.093771 
L 121.964176 65.108201 
L 120.074723 65.004237 
L 118.873988 64.687017 
L 118.43253 64.085212 
L 118.656762 63.193565 
L 119.338725 62.066617 
L 122.091585 58.048386 
L 122.828688 56.694877 
L 123.384199 55.393779 
L 123.743547 54.164466 
L 123.90416 53.0206 
L 123.869839 51.972428 
L 123.647473 51.02827 
L 123.245184 50.195454 
L 122.671305 49.480914 
L 121.933834 48.891585 
L 121.040159 48.434674 
L 119.996937 48.117859 
L 118.810062 47.949439 
L 117.484698 47.93845 
L 116.02537 48.094724 
L 114.436138 48.428886 
L 112.720896 48.952191 
L 110.883915 49.676085 
L 108.930801 50.611227 
L 106.870195 51.765507 
L 104.71679 53.140195 
L 102.496526 54.72281 
L 99.033391 57.930579 
L 88.702303 68.687694 
L 88.242503 68.908367 
L 88.397743 68.244951 
L 93.677067 56.111051 
L 94.783204 53.00344 
L 95.257419 50.885161 
L 95.163763 49.763763 
L 94.938876 48.843939 
L 94.59451 48.129084 
L 94.142476 47.622054 
L 93.594107 47.326429 
L 92.960052 47.247335 
L 92.250229 47.392067 
L 91.473854 47.770688 
L 90.639506 48.396719 
L 89.755193 49.288039 
L 88.282203 52.373002 
L 86.848954 55.764331 
L 85.502852 59.332287 
L 84.282359 62.943878 
L 82.32347 69.767257 
L 81.076608 75.250415 
L 80.344155 79.546702 
L 80.365398 79.058757 
L 80.414779 76.420424 
L 80.28 72.128487 
L 79.819302 67.087325 
L 79.023525 62.311575 
L 78.534118 60.324475 
L 78.016027 58.739733 
L 77.499444 57.634189 
L 77.016721 57.060564 
L 76.599948 57.045064 
L 76.278487 57.586294 
L 76.076629 58.655531 
L 76.011517 60.198367 
L 76.091505 62.137635 
L 76.315052 64.377464 
L 77.135098 69.312423 
L 78.261023 74.066228 
L 79.364634 77.765052 
L 80.176602 80.03641 
L 79.732158 79.10515 
L 78.367854 76.527202 
L 76.206893 72.93192 
L 73.575845 69.122412 
L 70.943821 65.903545 
L 69.788867 64.726256 
L 68.822448 63.916919 
L 68.095889 63.510009 
L 67.64893 63.518004 
L 67.507108 63.931444 
L 67.679913 64.720189 
L 68.159869 65.83579 
L 68.922588 67.214792 
L 71.121605 70.458824 
L 73.807468 73.807468 
L 76.397244 76.659272 
L 79.173212 79.383741 
L 78.768348 79.140889 
L 76.134545 77.483855 
L 73.640761 76.131343 
L 71.21677 75.047342 
L 69.399642 74.494811 
L 68.840572 74.45132 
L 68.547169 74.557516 
L 68.519877 74.796164 
L 68.739083 75.141653 
L 69.744133 76.023233 
L 72.195754 77.808398 
L 72.02793 77.913757 
L 70.530745 77.849238 
L 65.192471 77.347282 
L 59.970398 77.063275 
L 54.175366 77.074754 
L 51.335586 77.237819 
L 48.68889 77.516136 
L 47.340131 77.97662 
L 46.616094 78.515749 
L 46.099016 79.086374 
L 45.788884 79.677955 
L 45.685533 80.28 
L 45.788884 80.882045 
L 46.099016 81.473626 
L 46.616094 82.044251 
L 47.340131 82.58338 
L 48.68889 83.043864 
L 51.335586 83.322181 
L 54.175366 83.485246 
L 59.970398 83.496725 
L 65.192471 83.212718 
L 72.02793 82.646243 
L 72.195754 82.751602 
L 72.042661 82.956474 
L 68.739083 85.418347 
L 68.519877 85.763836 
L 68.547169 86.002484 
L 68.840572 86.10868 
L 69.399642 86.065189 
L 71.21677 85.512658 
L 73.640761 84.428657 
L 76.134545 83.076145 
L 79.173212 81.176259 
L 78.901597 81.436617 
L 76.397244 83.900728 
L 73.807468 86.752532 
L 71.121605 90.101176 
L 68.922588 93.345208 
L 68.159869 94.72421 
L 67.679913 95.839811 
L 67.507108 96.628556 
L 67.64893 97.041996 
L 68.095889 97.049991 
L 68.822448 96.643081 
L 69.788867 95.833744 
L 70.943821 94.656455 
L 73.575845 91.437588 
L 76.206893 87.62808 
L 78.367854 84.032798 
L 80.176602 80.52359 
L 79.791175 81.553432 
L 78.838868 84.465351 
L 77.678313 88.789734 
L 76.670261 93.751729 
L 76.091505 98.422365 
L 76.011517 100.361633 
L 76.076629 101.904469 
L 76.278487 102.973706 
L 76.599948 103.514936 
L 77.016721 103.499436 
L 77.499444 102.925811 
L 78.016027 101.820267 
L 78.534118 100.235525 
L 79.023525 98.248425 
L 79.819302 93.472675 
L 80.28 88.431513 
L 80.414779 84.139576 
L 80.344155 81.013298 
L 80.481146 81.918204 
L 81.076608 85.309585 
L 82.32347 90.792743 
L 84.282359 97.616122 
L 85.502852 101.227713 
L 86.848954 104.795669 
L 88.282203 108.186998 
L 89.755193 111.271961 
L 90.639506 112.163281 
L 91.473854 112.789312 
L 92.250229 113.167933 
L 92.960052 113.312665 
L 93.594107 113.233571 
L 94.142476 112.937946 
L 94.59451 112.430916 
L 94.938876 111.716061 
L 95.163763 110.796237 
L 95.257419 109.674839 
L 94.783204 107.55656 
L 93.677067 104.448949 
L 91.18428 98.427769 
L 88.397743 92.315049 
L 88.242503 91.651633 
L 88.702303 91.872306 
L 89.906666 93.055018 
L 99.033391 102.629421 
L 102.496526 105.83719 
L 104.71679 107.419805 
L 106.870195 108.794493 
L 108.930801 109.948773 
L 110.883915 110.883915 
L 112.720896 111.607809 
L 114.436138 112.131114 
L 116.02537 112.465276 
L 117.484698 112.62155 
L 118.810062 112.610561 
L 119.996937 112.442141 
L 121.040159 112.125326 
L 121.933834 111.668415 
L 122.671305 111.079086 
L 123.245184 110.364546 
L 123.647473 109.53173 
L 123.869839 108.587572 
L 123.90416 107.5394 
L 123.743547 106.395534 
L 123.384199 105.166221 
L 122.828688 103.865123 
L 122.091585 102.511614 
L 120.250434 99.774883 
L 118.656762 97.366435 
L 118.43253 96.474788 
L 118.873988 95.872983 
L 120.074723 95.555763 
L 121.964176 95.451799 
L 129.781969 95.414271 
L 132.516554 95.258591 
L 135.144837 94.980989 
L 137.623389 94.577313 
L 139.930004 94.051289 
L 142.054933 93.410667 
L 143.995397 92.665019 
L 145.752315 91.824536 
L 147.328409 90.899425 
L 148.727128 89.899617 
L 149.95205 88.834652 
L 151.006559 87.713661 
L 151.893681 86.545385 
L 152.615999 85.338226 
L 153.175629 84.100298 
L 153.574205 82.83949 
L 153.812888 81.563521 
L 153.892373 80.28 
L 153.892373 80.28 
" clip-path="url(#pf5147c338f)" style="fill: none; stroke: #000000; stroke-width: 0.75; stroke-linecap: square"/>
   </g>
   <g id="line2d_8">
    <path d="M 153.890625 80.28 
L 153.802985 78.996652 
L 153.559721 77.721016 
L 153.161157 76.46046 
L 152.606187 75.22246 
L 151.892533 74.014715 
L 151.016895 72.845253 
L 149.975149 71.722512 
L 148.762575 70.655402 
L 147.3741 69.653339 
L 145.804588 68.726247 
L 144.049275 67.884509 
L 142.104477 67.138802 
L 139.968801 66.499754 
L 137.645226 65.977243 
L 135.144578 65.579081 
L 132.491236 65.308669 
L 126.948949 65.116339 
L 121.890768 65.134919 
L 120.021651 65.024609 
L 118.850885 64.696351 
L 118.439459 64.082271 
L 118.685746 63.18066 
L 120.293105 60.764305 
L 122.121866 58.032285 
L 122.848389 56.683957 
L 123.392606 55.388925 
L 123.741585 54.165645 
L 123.894319 53.026749 
L 123.855798 51.981546 
L 123.633413 51.037754 
L 123.23494 50.202627 
L 122.667596 49.483609 
L 121.937823 48.888578 
L 121.051482 48.425827 
L 120.014195 48.103883 
L 118.831613 47.931356 
L 117.509455 47.916928 
L 116.053307 48.069569 
L 114.468277 48.398916 
L 112.758721 48.915664 
L 110.928352 49.631648 
L 108.981062 50.559181 
L 106.922856 51.709035 
L 104.765407 53.086201 
L 102.531935 54.682077 
L 99.059364 57.899625 
L 88.037576 69.201034 
L 88.176904 68.572358 
L 93.579436 56.287182 
L 94.73553 53.093101 
L 95.255107 50.889697 
L 95.171275 49.748361 
L 94.950527 48.818954 
L 94.606946 48.101152 
L 94.154685 47.59329 
L 93.606982 47.294562 
L 92.975709 47.206547 
L 92.271293 47.334193 
L 91.502876 47.686401 
L 90.678591 48.276426 
L 89.805842 49.122376 
L 88.428123 51.86412 
L 87.002655 55.190709 
L 85.655441 58.720282 
L 84.424789 62.326944 
L 82.423195 69.254215 
L 81.121531 74.966779 
L 80.338511 79.611218 
L 80.362616 79.098532 
L 80.4191 76.2967 
L 80.28 71.833138 
L 79.807198 66.740723 
L 78.999833 61.972757 
L 78.501332 59.94973 
L 77.96713 58.274514 
L 77.424311 57.022279 
L 76.904936 56.265169 
L 76.445015 56.066859 
L 76.081937 56.471604 
L 75.850175 57.490526 
L 75.775875 59.089756 
L 75.871653 61.185353 
L 76.133254 63.648311 
L 77.054719 69.032108 
L 78.237612 73.994177 
L 79.332274 77.676144 
L 80.123887 79.91222 
L 79.640453 78.908488 
L 78.126536 76.053589 
L 75.741055 72.091526 
L 72.945977 68.074136 
L 70.246616 64.829943 
L 69.059816 63.645393 
L 68.04231 62.802768 
L 67.243592 62.336923 
L 66.716147 62.28016 
L 66.508213 62.652916 
L 66.652618 63.451585 
L 67.156203 64.639668 
L 67.994342 66.146967 
L 70.437382 69.725084 
L 73.369036 73.369036 
L 76.158938 76.437048 
L 79.311891 79.523631 
L 79.001854 79.316848 
L 76.463955 77.706045 
L 74.009696 76.361879 
L 71.549297 75.239326 
L 69.597895 74.600224 
L 68.957686 74.510993 
L 68.593962 74.580338 
L 68.519697 74.796081 
L 68.721761 75.133941 
L 69.776612 76.036356 
L 72.578171 77.925315 
L 72.489206 78.046026 
L 71.129523 77.99853 
L 63.37395 77.299007 
L 57.727235 77.110416 
L 54.80396 77.151936 
L 51.977728 77.305311 
L 49.370365 77.575757 
L 47.621485 77.996294 
L 46.913765 78.53135 
L 46.419119 79.097552 
L 46.133179 79.683965 
L 46.051423 80.28 
L 46.169912 80.875394 
L 46.486012 81.460112 
L 46.999046 82.024181 
L 47.710719 82.557466 
L 49.564085 82.967294 
L 52.111095 83.240671 
L 54.877643 83.399017 
L 60.642351 83.390298 
L 65.928668 83.069616 
L 72.526965 82.503147 
L 72.604902 82.626513 
L 71.915458 83.160143 
L 69.186093 84.989084 
L 68.437756 85.802129 
L 68.480549 86.034977 
L 68.843529 86.107173 
L 69.51159 86.005665 
L 71.548237 85.321286 
L 74.039992 84.17919 
L 76.470084 82.849821 
L 79.359159 80.99944 
L 78.998839 81.355022 
L 76.184467 84.099147 
L 73.42561 87.13439 
L 70.53137 90.734126 
L 68.059333 94.338269 
L 67.183473 95.887833 
L 66.640765 97.123053 
L 66.467686 97.958956 
L 66.664393 98.348521 
L 67.19802 98.2858 
L 68.014367 97.79714 
L 69.052291 96.925763 
L 70.254558 95.717827 
L 71.57142 94.216642 
L 74.363557 90.52758 
L 77.005631 86.438193 
L 79.001939 82.900414 
L 80.130272 80.632737 
L 79.75239 81.654472 
L 78.813704 84.538432 
L 77.634175 88.934104 
L 76.548448 94.20634 
L 75.890273 99.293995 
L 75.795004 101.380245 
L 75.86651 102.98544 
L 76.092953 104.025922 
L 76.449563 104.464428 
L 76.903376 104.305926 
L 77.418206 103.587443 
L 77.958638 102.366285 
L 78.49255 100.710652 
L 78.992305 98.69489 
L 79.80389 93.913995 
L 80.28 88.795822 
L 80.420675 84.308402 
L 80.338663 80.950524 
L 80.482371 81.92818 
L 81.112748 85.537761 
L 82.408107 91.228161 
L 83.32139 94.588613 
L 84.401739 98.133214 
L 85.630848 101.741081 
L 86.982301 105.293327 
L 88.421665 108.67336 
L 89.813471 111.46258 
L 90.699135 112.346801 
L 91.537219 112.973338 
L 92.317973 113.354058 
L 93.030663 113.496614 
L 93.663942 113.406419 
L 94.206257 113.088205 
L 94.646231 112.547084 
L 94.972946 111.789124 
L 95.17611 110.821551 
L 95.246238 109.652896 
L 94.700199 107.40045 
L 93.558062 104.234258 
L 91.036237 98.181385 
L 88.24159 92.083543 
L 88.089547 91.43319 
L 88.560336 91.676904 
L 91.874126 95.119805 
L 98.993259 102.581593 
L 102.495909 105.836479 
L 104.733832 107.438732 
L 106.908136 108.83518 
L 108.992344 110.012503 
L 110.968661 110.968661 
L 112.824008 111.707383 
L 114.548607 112.235993 
L 116.135725 112.56464 
L 117.58166 112.705838 
L 118.885363 112.673746 
L 120.047485 112.483075 
L 121.068879 112.147765 
L 121.948857 111.679736 
L 122.683672 111.088071 
L 123.26568 110.378897 
L 123.683496 109.556027 
L 123.923211 108.622232 
L 123.970482 107.580843 
L 123.813255 106.437419 
L 123.445005 105.201327 
L 122.868744 103.887326 
L 122.102533 102.517435 
L 120.201173 99.750857 
L 118.580144 97.332323 
L 118.36066 96.444281 
L 118.818048 95.850382 
L 120.042958 95.543569 
L 121.96026 95.450374 
L 129.83136 95.429371 
L 132.564102 95.272225 
L 135.182244 94.991012 
L 137.64616 94.58299 
L 139.937961 94.053125 
L 142.05166 93.409972 
L 143.986886 92.663364 
L 145.745219 91.823284 
L 147.328365 90.899418 
L 148.737517 89.901077 
L 149.973422 88.837276 
L 151.036759 87.716835 
L 151.928547 86.548436 
L 152.650425 85.340633 
L 153.204702 84.101822 
L 153.594209 82.840189 
L 153.821976 81.56368 
L 153.891033 80.28 
L 153.891033 80.28 
" clip-path="url(#pf5147c338f)" style="fill: none; stroke-dasharray: 2.775,1.2; stroke-dashoffset: 0; stroke: #ff0000; stroke-width: 0.75"/>
   </g>
   <g id="patch_3">
    <path d="M 157.55976 80.28 
C 157.55976 70.131715 155.560769 60.082109 151.677189 50.706316 
C 147.793608 41.330523 142.100964 32.810879 134.925042 25.634958 
C 127.749121 18.459036 119.229477 12.766392 109.853684 8.882811 
C 100.477891 4.999231 90.428285 3.00024 80.28 3.00024 
C 70.131715 3.00024 60.082109 4.999231 50.706316 8.882811 
C 41.330523 12.766392 32.810879 18.459036 25.634958 25.634958 
C 18.459036 32.810879 12.766392 41.330523 8.882811 50.706316 
C 4.999231 60.082109 3.00024 70.131715 3.00024 80.28 
C 3.00024 90.428285 4.999231 100.477891 8.882811 109.853684 
C 12.766392 119.229477 18.459036 127.749121 25.634958 134.925042 
C 32.810879 142.100964 41.330523 147.793608 50.706316 151.677189 
C 60.082109 155.560769 70.131715 157.55976 80.28 157.55976 
C 90.428285 157.55976 100.477891 155.560769 109.853684 151.677189 
C 119.229477 147.793608 127.749121 142.100964 134.925042 134.925042 
C 142.100964 127.749121 147.793608 119.229477 151.677189 109.853684 
C 155.560769 100.477891 157.55976 90.428285 157.55976 80.28 
" style="fill: none; stroke: #000000; stroke-width: 0.8; stroke-linejoin: miter; stroke-linecap: square"/>
   </g>
  </g>
 </g>
 <defs>
  <clipPath id="pf5147c338f">
   <path d="M 157.55976 80.28 
C 157.55976 70.131715 155.560769 60.082109 151.677189 50.706316 
C 147.793608 41.330523 142.100964 32.810879 134.925042 25.634958 
C 127.749121 18.459036 119.229477 12.766392 109.853684 8.882811 
C 100.477891 4.999231 90.428285 3.00024 80.28 3.00024 
C 70.131715 3.00024 60.082109 4.999231 50.706316 8.882811 
C 41.330523 12.766392 32.810879 18.459036 25.634958 25.634958 
C 18.459036 32.810879 12.766392 41.330523 8.882811 50.706316 
C 4.999231 60.082109 3.00024 70.131715 3.00024 80.28 
C 3.00024 90.428285 4.999231 100.477891 8.882811 109.853684 
C 12.766392 119.229477 18.459036 127.749121 25.634958 134.925042 
C 32.810879 142.100964 41.330523 147.793608 50.706316 151.677189 
C 60.082109 155.560769 70.131715 157.55976 80.28 157.55976 
C 90.428285 157.55976 100.477891 155.560769 109.853684 151.677189 
C 119.229477 147.793608 127.749121 142.100964 134.925042 134.925042 
C 142.100964 127.749121 147.793608 119.229477 151.677189 109.853684 
C 155.560769 100.477891 157.55976 90.428285 157.55976 80.28 
M 80.28 80.28 
C 80.28 80.28 80.28 80.28 80.28 80.28 
C 80.28 80.28 80.28 80.28 80.28 80.28 
C 80.28 80.28 80.28 80.28 80.28 80.28 
C 80.28 80.28 80.28 80.28 80.28 80.28 
C 80.28 80.28 80.28 80.28 80.28 80.28 
C 80.28 80.28 80.28 80.28 80.28 80.28 
C 80.28 80.28 80.28 80.28 80.28 80.28 
C 80.28 80.28 80.28 80.28 80.28 80.28 
C 80.28 80.28 80.28 80.28 80.28 80.28 
C 80.28 80.28 80.28 80.28 80.28 80.28 
C 80.28 80.28 80.28 80.28 80.28 80.28 
C 80.28 80.28 80.28 80.28 80.28 80.28 
C 80.28 80.28 80.28 80.28 80.28 80.28 
C 80.28 80.28 80.28 80.28 80.28 80.28 
C 80.28 80.28 80.28 80.28 80.28 80.28 
C 80.28 80.28 80.28 80.28 80.28 80.28 
M 157.55976 80.28 
z
"/>
  </clipPath>
 </defs>
</svg>
