<?xml version="1.0" encoding="utf-8" standalone="no"?>
<!DOCTYPE svg PUBLIC "-//W3C//DTD SVG 1.1//EN"
  "http://www.w3.org/Graphics/SVG/1.1/DTD/svg11.dtd">
<svg xmlns:xlink="http://www.w3.org/1999/xlink" width="160.56pt" height="160.56pt" viewBox="0 0 160.56 160.56" xmlns="http://www.w3.org/2000/svg" version="1.1">
 <metadata>
  <rdf:RDF xmlns:dc="http://purl.org/dc/elements/1.1/" xmlns:cc="http://creativecommons.org/ns#" xmlns:rdf="http://www.w3.org/1999/02/22-rdf-syntax-ns#">
   <cc:Work>
    <dc:type rdf:resource="http://purl.org/dc/dcmitype/StillImage"/>
    <dc:date>2025-08-18T17:31:50.431089</dc:date>
    <dc:format>image/svg+xml</dc:format>
    <dc:creator>
     <cc:Agent>
      <dc:title>Matplotlib v3.6.3, https://matplotlib.org/</dc:title>
     </cc:Agent>
    </dc:creator>
   </cc:Work>
  </rdf:RDF>
 </metadata>
 <defs>
  <style type="text/css">*{stroke-linejoin: round; stroke-linecap: butt}</style>
 </defs>
 <g id="figure_1">
  <g id="patch_1">
   <path d="M 0 160.56 
L 160.56 160.56 
L 160.56 0 
L 0 0 
z
" style="fill: #ffffff"/>
  </g>
  <g id="axes_1">
   <g id="patch_2">
    <path d="M 157.55976 80.28 
C 157.55976 70.131715 155.560769 60.082109 151.677189 50.706316 
C 147.793608 41.330523 142.100964 32.810879 134.925042 25.634958 
C 127.749121 18.459036 119.229477 12.766392 109.853684 8.882811 
C 100.477891 4.999231 90.428285 3.00024 80.28 3.00024 
C 70.131715 3.00024 60.082109 4.999231 50.706316 8.882811 
C 41.330523 12.766392 32.810879 18.459036 25.634958 25.634958 
C 18.459036 32.810879 12.766392 41.330523 8.882811 50.706316 
C 4.999231 60.082109 3.00024 70.131715 3.00024 80.28 
C 3.00024 90.428285 4.999231 100.477891 8.882811 109.853684 
C 12.766392 119.229477 18.459036 127.749121 25.634958 134.925042 
C 32.810879 142.100964 41.330523 147.793608 50.706316 151.677189 
C 60.082109 155.560769 70.131715 157.55976 80.28 157.55976 
C 90.428285 157.55976 100.477891 155.560769 109.853684 151.677189 
C 119.229477 147.793608 127.749121 142.100964 134.925042 134.925042 
C 142.100964 127.749121 147.793608 119.229477 151.677189 109.853684 
C 155.560769 100.477891 157.55976 90.428285 157.55976 80.28 
M 80.28 80.28 
C 80.28 80.28 80.28 80.28 80.28 80.28 
C 80.28 80.28 80.28 80.28 80.28 80.28 
C 80.28 80.28 80.28 80.28 80.28 80.28 
C 80.28 80.28 80.28 80.28 80.28 80.28 
C 80.28 80.28 80.28 80.28 80.28 80.28 
C 80.28 80.28 80.28 80.28 80.28 80.28 
C 80.28 80.28 80.28 80.28 80.28 80.28 
C 80.28 80.28 80.28 80.28 80.28 80.28 
C 80.28 80.28 80.28 80.28 80.28 80.28 
C 80.28 80.28 80.28 80.28 80.28 80.28 
C 80.28 80.28 80.28 80.28 80.28 80.28 
C 80.28 80.28 80.28 80.28 80.28 80.28 
C 80.28 80.28 80.28 80.28 80.28 80.28 
C 80.28 80.28 80.28 80.28 80.28 80.28 
C 80.28 80.28 80.28 80.28 80.28 80.28 
C 80.28 80.28 80.28 80.28 80.28 80.28 
M 157.55976 80.28 
z
" style="fill: #ffffff"/>
   </g>
   <g id="matplotlib.axis_1">
    <g id="xtick_1">
     <g id="line2d_1">
      <path d="M 80.28 80.28 
L 134.925042 25.634958 
" clip-path="url(#pe497754077)" style="fill: none; stroke: #b0b0b0; stroke-width: 0.8; stroke-linecap: square"/>
     </g>
     <g id="text_1">
      <!-- $\pi/4$ -->
      <g transform="translate(136.824995 18.226123) scale(0.1 -0.1)">
       <defs>
        <path id="CMMI12-19" d="M 1658 2406 
L 2381 2406 
C 2208 1691 2099 1225 2099 715 
C 2099 625 2099 -64 2362 -64 
C 2496 -64 2611 57 2611 166 
C 2611 198 2611 210 2566 306 
C 2394 746 2394 1295 2394 1340 
C 2394 1378 2394 1832 2528 2406 
L 3245 2406 
C 3328 2406 3539 2406 3539 2611 
C 3539 2752 3418 2752 3302 2752 
L 1197 2752 
C 1050 2752 832 2752 538 2438 
C 371 2253 166 1915 166 1876 
C 166 1838 198 1825 237 1825 
C 282 1825 288 1844 320 1883 
C 653 2406 986 2406 1146 2406 
L 1510 2406 
C 1370 1927 1210 1372 685 255 
C 634 153 634 140 634 102 
C 634 -32 749 -64 806 -64 
C 992 -64 1043 102 1120 370 
C 1222 695 1222 708 1286 964 
L 1658 2406 
z
" transform="scale(0.015625)"/>
        <path id="CMMI12-3d" d="M 2746 4563 
C 2746 4569 2784 4665 2784 4678 
C 2784 4755 2720 4800 2669 4800 
C 2637 4800 2579 4800 2528 4659 
L 384 -1364 
C 384 -1370 346 -1466 346 -1479 
C 346 -1556 410 -1600 461 -1600 
C 499 -1600 557 -1594 602 -1460 
L 2746 4563 
z
" transform="scale(0.015625)"/>
        <path id="CMR17-34" d="M 2150 4147 
C 2150 4281 2144 4288 2029 4288 
L 128 1254 
L 128 1088 
L 1779 1088 
L 1779 460 
C 1779 230 1766 166 1318 166 
L 1197 166 
L 1197 0 
C 1402 12 1747 12 1965 12 
C 2182 12 2528 12 2733 0 
L 2733 166 
L 2611 166 
C 2163 166 2150 230 2150 460 
L 2150 1088 
L 2803 1088 
L 2803 1254 
L 2150 1254 
L 2150 4147 
z
M 1798 3723 
L 1798 1254 
L 256 1254 
L 1798 3723 
z
" transform="scale(0.015625)"/>
       </defs>
       <use xlink:href="#CMMI12-19" transform="scale(0.996264)"/>
       <use xlink:href="#CMMI12-3d" transform="translate(58.910601 0) scale(0.996264)"/>
       <use xlink:href="#CMR17-34" transform="translate(107.68552 0) scale(0.996264)"/>
      </g>
     </g>
    </g>
    <g id="xtick_2">
     <g id="line2d_2">
      <path d="M 80.28 80.28 
L 25.634958 25.634958 
" clip-path="url(#pe497754077)" style="fill: none; stroke: #b0b0b0; stroke-width: 0.8; stroke-linecap: square"/>
     </g>
     <g id="text_2">
      <!-- $3\pi/4$ -->
      <g transform="translate(5.245252 18.226123) scale(0.1 -0.1)">
       <defs>
        <path id="CMR17-33" d="M 1414 2176 
C 1984 2176 2234 1673 2234 1094 
C 2234 322 1824 25 1453 25 
C 1114 25 563 193 390 691 
C 422 678 454 678 486 678 
C 640 678 755 780 755 947 
C 755 1132 614 1216 486 1216 
C 378 1216 211 1164 211 927 
C 211 335 787 -128 1466 -128 
C 2176 -128 2720 432 2720 1087 
C 2720 1718 2208 2176 1600 2246 
C 2086 2347 2554 2776 2554 3353 
C 2554 3856 2048 4224 1472 4224 
C 890 4224 378 3862 378 3347 
C 378 3123 544 3084 627 3084 
C 762 3084 877 3167 877 3334 
C 877 3500 762 3584 627 3584 
C 602 3584 570 3584 544 3571 
C 730 3999 1235 4076 1459 4076 
C 1683 4076 2106 3966 2106 3347 
C 2106 3167 2080 2851 1862 2574 
C 1670 2329 1453 2316 1242 2297 
C 1210 2297 1062 2284 1037 2284 
C 992 2278 966 2272 966 2227 
C 966 2182 973 2176 1101 2176 
L 1414 2176 
z
" transform="scale(0.015625)"/>
       </defs>
       <use xlink:href="#CMR17-33" transform="scale(0.996264)"/>
       <use xlink:href="#CMMI12-19" transform="translate(45.690477 0) scale(0.996264)"/>
       <use xlink:href="#CMMI12-3d" transform="translate(104.601078 0) scale(0.996264)"/>
       <use xlink:href="#CMR17-34" transform="translate(153.375997 0) scale(0.996264)"/>
      </g>
     </g>
    </g>
    <g id="xtick_3">
     <g id="line2d_3">
      <path d="M 80.28 80.28 
L 25.634958 134.925042 
" clip-path="url(#pe497754077)" style="fill: none; stroke: #b0b0b0; stroke-width: 0.8; stroke-linecap: square"/>
     </g>
     <g id="text_3">
      <!-- $5\pi/4$ -->
      <g transform="translate(5.245252 147.315197) scale(0.1 -0.1)">
       <defs>
        <path id="CMR17-35" d="M 730 3750 
C 794 3724 1056 3641 1325 3641 
C 1920 3641 2246 3961 2432 4140 
C 2432 4191 2432 4224 2394 4224 
C 2387 4224 2374 4224 2323 4198 
C 2099 4102 1837 4032 1517 4032 
C 1325 4032 1037 4055 723 4191 
C 653 4224 640 4224 634 4224 
C 602 4224 595 4217 595 4090 
L 595 2231 
C 595 2113 595 2080 659 2080 
C 691 2080 704 2093 736 2139 
C 941 2435 1222 2560 1542 2560 
C 1766 2560 2246 2415 2246 1293 
C 2246 1087 2246 716 2054 422 
C 1894 159 1645 25 1370 25 
C 947 25 518 319 403 812 
C 429 806 480 793 506 793 
C 589 793 749 838 749 1036 
C 749 1209 627 1280 506 1280 
C 358 1280 262 1190 262 1011 
C 262 454 704 -128 1382 -128 
C 2042 -128 2669 441 2669 1267 
C 2669 2054 2170 2662 1549 2662 
C 1222 2662 947 2540 730 2304 
L 730 3750 
z
" transform="scale(0.015625)"/>
       </defs>
       <use xlink:href="#CMR17-35" transform="scale(0.996264)"/>
       <use xlink:href="#CMMI12-19" transform="translate(45.690477 0) scale(0.996264)"/>
       <use xlink:href="#CMMI12-3d" transform="translate(104.601078 0) scale(0.996264)"/>
       <use xlink:href="#CMR17-34" transform="translate(153.375997 0) scale(0.996264)"/>
      </g>
     </g>
    </g>
    <g id="xtick_4">
     <g id="line2d_4">
      <path d="M 80.28 80.28 
L 134.925042 134.925042 
" clip-path="url(#pe497754077)" style="fill: none; stroke: #b0b0b0; stroke-width: 0.8; stroke-linecap: square"/>
     </g>
     <g id="text_4">
      <!-- $7\pi/4$ -->
      <g transform="translate(134.334327 147.315197) scale(0.1 -0.1)">
       <defs>
        <path id="CMR17-37" d="M 2886 3955 
L 2886 4096 
L 1382 4096 
C 634 4096 621 4166 595 4288 
L 480 4288 
L 294 3104 
L 410 3104 
C 429 3226 474 3552 550 3673 
C 589 3724 1062 3724 1171 3724 
L 2579 3724 
L 1869 2670 
C 1395 1961 1069 1003 1069 166 
C 1069 89 1069 -128 1299 -128 
C 1530 -128 1530 89 1530 172 
L 1530 466 
C 1530 1514 1709 2204 2003 2644 
L 2886 3955 
z
" transform="scale(0.015625)"/>
       </defs>
       <use xlink:href="#CMR17-37" transform="scale(0.996264)"/>
       <use xlink:href="#CMMI12-19" transform="translate(45.690477 0) scale(0.996264)"/>
       <use xlink:href="#CMMI12-3d" transform="translate(104.601078 0) scale(0.996264)"/>
       <use xlink:href="#CMR17-34" transform="translate(153.375997 0) scale(0.996264)"/>
      </g>
     </g>
    </g>
   </g>
   <g id="matplotlib.axis_2">
    <g id="ytick_1">
     <g id="line2d_5">
      <path d="M 87.72766 80.28 
C 87.72766 79.301982 87.535012 78.333474 87.160741 77.429904 
C 86.78647 76.526333 86.237854 75.705272 85.546291 75.013709 
C 84.854728 74.322146 84.033667 73.77353 83.130096 73.399259 
C 82.226526 73.024988 81.258018 72.83234 80.28 72.83234 
C 79.301982 72.83234 78.333474 73.024988 77.429904 73.399259 
C 76.526333 73.77353 75.705272 74.322146 75.013709 75.013709 
C 74.322146 75.705272 73.77353 76.526333 73.399259 77.429904 
C 73.024988 78.333474 72.83234 79.301982 72.83234 80.28 
C 72.83234 81.258018 73.024988 82.226526 73.399259 83.130096 
C 73.77353 84.033667 74.322146 84.854728 75.013709 85.546291 
C 75.705272 86.237854 76.526333 86.78647 77.429904 87.160741 
C 78.333474 87.535012 79.301982 87.72766 80.28 87.72766 
C 81.258018 87.72766 82.226526 87.535012 83.130096 87.160741 
C 84.033667 86.78647 84.854728 86.237854 85.546291 85.546291 
C 86.237854 84.854728 86.78647 84.033667 87.160741 83.130096 
C 87.535012 82.226526 87.72766 81.258018 87.72766 80.28 
" clip-path="url(#pe497754077)" style="fill: none; stroke: #b0b0b0; stroke-width: 0.8; stroke-linecap: square"/>
     </g>
     <g id="text_5">
      <!-- $\mathdefault{10^{0}}$ -->
      <g transform="translate(76.008198 84.443588) scale(0.1 -0.1)">
       <defs>
        <path id="CMR17-31" d="M 1702 4083 
C 1702 4217 1696 4224 1606 4224 
C 1357 3927 979 3833 621 3820 
C 602 3820 570 3820 563 3808 
C 557 3795 557 3782 557 3648 
C 755 3648 1088 3686 1344 3839 
L 1344 467 
C 1344 243 1331 166 781 166 
L 589 166 
L 589 0 
C 896 6 1216 12 1523 12 
C 1830 12 2150 6 2458 0 
L 2458 166 
L 2266 166 
C 1715 166 1702 236 1702 467 
L 1702 4083 
z
" transform="scale(0.015625)"/>
        <path id="CMR17-30" d="M 2688 2038 
C 2688 2430 2682 3099 2413 3613 
C 2176 4063 1798 4224 1466 4224 
C 1158 4224 768 4082 525 3620 
C 269 3137 243 2539 243 2038 
C 243 1671 250 1112 448 623 
C 723 -39 1216 -128 1466 -128 
C 1760 -128 2208 -7 2470 604 
C 2662 1048 2688 1568 2688 2038 
z
M 1466 -26 
C 1056 -26 813 328 723 816 
C 653 1196 653 1749 653 2109 
C 653 2604 653 3015 736 3407 
C 858 3954 1216 4121 1466 4121 
C 1728 4121 2067 3947 2189 3420 
C 2272 3054 2278 2623 2278 2109 
C 2278 1691 2278 1176 2202 797 
C 2067 96 1690 -26 1466 -26 
z
" transform="scale(0.015625)"/>
       </defs>
       <use xlink:href="#CMR17-31" transform="scale(0.996264)"/>
       <use xlink:href="#CMR17-30" transform="translate(45.690477 0) scale(0.996264)"/>
       <use xlink:href="#CMR17-30" transform="translate(91.380954 36.153639) scale(0.697382)"/>
      </g>
     </g>
    </g>
    <g id="ytick_2">
     <g id="line2d_6">
      <path d="M 104.545564 80.28 
C 104.545564 77.093475 103.917888 73.937936 102.698458 70.993971 
C 101.479028 68.050006 99.691558 65.374868 97.438345 63.121655 
C 95.185132 60.868442 92.509994 59.080972 89.566029 57.861542 
C 86.622064 56.642112 83.466525 56.014436 80.28 56.014436 
C 77.093475 56.014436 73.937936 56.642112 70.993971 57.861542 
C 68.050006 59.080972 65.374868 60.868442 63.121655 63.121655 
C 60.868442 65.374868 59.080972 68.050006 57.861542 70.993971 
C 56.642112 73.937936 56.014436 77.093475 56.014436 80.28 
C 56.014436 83.466525 56.642112 86.622064 57.861542 89.566029 
C 59.080972 92.509994 60.868442 95.185132 63.121655 97.438345 
C 65.374868 99.691558 68.050006 101.479028 70.993971 102.698458 
C 73.937936 103.917888 77.093475 104.545564 80.28 104.545564 
C 83.466525 104.545564 86.622064 103.917888 89.566029 102.698458 
C 92.509994 101.479028 95.185132 99.691558 97.438345 97.438345 
C 99.691558 95.185132 101.479028 92.509994 102.698458 89.566029 
C 103.917888 86.622064 104.545564 83.466525 104.545564 80.28 
" clip-path="url(#pe497754077)" style="fill: none; stroke: #b0b0b0; stroke-width: 0.8; stroke-linecap: square"/>
     </g>
     <g id="text_6">
      <!-- $\mathdefault{10^{1}}$ -->
      <g transform="translate(66.361844 98.220008) scale(0.1 -0.1)">
       <use xlink:href="#CMR17-31" transform="scale(0.996264)"/>
       <use xlink:href="#CMR17-30" transform="translate(45.690477 0) scale(0.996264)"/>
       <use xlink:href="#CMR17-31" transform="translate(91.380954 36.153639) scale(0.697382)"/>
      </g>
     </g>
    </g>
    <g id="ytick_3">
     <g id="line2d_7">
      <path d="M 117.951352 80.28 
C 117.951352 75.333043 116.976909 70.43419 115.083791 65.863798 
C 113.190673 61.293406 110.415695 57.140358 106.917668 53.642332 
C 103.419642 50.144305 99.266594 47.369327 94.696202 45.476209 
C 90.12581 43.583091 85.226957 42.608648 80.28 42.608648 
C 75.333043 42.608648 70.43419 43.583091 65.863798 45.476209 
C 61.293406 47.369327 57.140358 50.144305 53.642332 53.642332 
C 50.144305 57.140358 47.369327 61.293406 45.476209 65.863798 
C 43.583091 70.43419 42.608648 75.333043 42.608648 80.28 
C 42.608648 85.226957 43.583091 90.12581 45.476209 94.696202 
C 47.369327 99.266594 50.144305 103.419642 53.642332 106.917668 
C 57.140358 110.415695 61.293406 113.190673 65.863798 115.083791 
C 70.43419 116.976909 75.333043 117.951352 80.28 117.951352 
C 85.226957 117.951352 90.12581 116.976909 94.696202 115.083791 
C 99.266594 113.190673 103.419642 110.415695 106.917668 106.917668 
C 110.415695 103.419642 113.190673 99.266594 115.083791 94.696202 
C 116.976909 90.12581 117.951352 85.226957 117.951352 80.28 
" clip-path="url(#pe497754077)" style="fill: none; stroke: #b0b0b0; stroke-width: 0.8; stroke-linecap: square"/>
     </g>
     <g id="text_7">
      <!-- $\mathdefault{10^{2}}$ -->
      <g transform="translate(58.6726 109.201387) scale(0.1 -0.1)">
       <defs>
        <path id="CMR17-32" d="M 2669 990 
L 2554 990 
C 2490 537 2438 460 2413 422 
C 2381 371 1920 371 1830 371 
L 602 371 
C 832 620 1280 1073 1824 1596 
C 2214 1966 2669 2400 2669 3033 
C 2669 3788 2067 4224 1395 4224 
C 691 4224 262 3603 262 3027 
C 262 2777 448 2745 525 2745 
C 589 2745 781 2783 781 3007 
C 781 3206 614 3264 525 3264 
C 486 3264 448 3257 422 3244 
C 544 3788 915 4057 1306 4057 
C 1862 4057 2227 3616 2227 3033 
C 2227 2477 1901 1998 1536 1583 
L 262 147 
L 262 0 
L 2515 0 
L 2669 990 
z
" transform="scale(0.015625)"/>
       </defs>
       <use xlink:href="#CMR17-31" transform="scale(0.996264)"/>
       <use xlink:href="#CMR17-30" transform="translate(45.690477 0) scale(0.996264)"/>
       <use xlink:href="#CMR17-32" transform="translate(91.380954 36.153639) scale(0.697382)"/>
      </g>
     </g>
    </g>
    <g id="ytick_4">
     <g id="line2d_8">
      <path d="M 131.35714 80.28 
C 131.35714 73.572611 130.035931 66.930444 127.469124 60.733625 
C 124.902318 54.536806 121.139832 48.905848 116.396992 44.163008 
C 111.654152 39.420168 106.023194 35.657682 99.826375 33.090876 
C 93.629556 30.524069 86.987389 29.20286 80.28 29.20286 
C 73.572611 29.20286 66.930444 30.524069 60.733625 33.090876 
C 54.536806 35.657682 48.905848 39.420168 44.163008 44.163008 
C 39.420168 48.905848 35.657682 54.536806 33.090876 60.733625 
C 30.524069 66.930444 29.20286 73.572611 29.20286 80.28 
C 29.20286 86.987389 30.524069 93.629556 33.090876 99.826375 
C 35.657682 106.023194 39.420168 111.654152 44.163008 116.396992 
C 48.905848 121.139832 54.536806 124.902318 60.733625 127.469124 
C 66.930444 130.035931 73.572611 131.35714 80.28 131.35714 
C 86.987389 131.35714 93.629556 130.035931 99.826375 127.469124 
C 106.023194 124.902318 111.654152 121.139832 116.396992 116.396992 
C 121.139832 111.654152 124.902318 106.023194 127.469124 99.826375 
C 130.035931 93.629556 131.35714 86.987389 131.35714 80.28 
" clip-path="url(#pe497754077)" style="fill: none; stroke: #b0b0b0; stroke-width: 0.8; stroke-linecap: square"/>
     </g>
     <g id="text_8">
      <!-- $\mathdefault{10^{3}}$ -->
      <g transform="translate(50.983356 120.182765) scale(0.1 -0.1)">
       <use xlink:href="#CMR17-31" transform="scale(0.996264)"/>
       <use xlink:href="#CMR17-30" transform="translate(45.690477 0) scale(0.996264)"/>
       <use xlink:href="#CMR17-33" transform="translate(91.380954 36.153639) scale(0.697382)"/>
      </g>
     </g>
    </g>
    <g id="ytick_5">
     <g id="line2d_9">
      <path d="M 144.762928 80.28 
C 144.762928 71.812179 143.094952 63.426698 139.854458 55.603452 
C 136.613963 47.780206 131.863969 40.671337 125.876316 34.683684 
C 119.888663 28.696031 112.779794 23.946037 104.956548 20.705542 
C 97.133302 17.465048 88.747821 15.797072 80.28 15.797072 
C 71.812179 15.797072 63.426698 17.465048 55.603452 20.705542 
C 47.780206 23.946037 40.671337 28.696031 34.683684 34.683684 
C 28.696031 40.671337 23.946037 47.780206 20.705542 55.603452 
C 17.465048 63.426698 15.797072 71.812179 15.797072 80.28 
C 15.797072 88.747821 17.465048 97.133302 20.705542 104.956548 
C 23.946037 112.779794 28.696031 119.888663 34.683684 125.876316 
C 40.671337 131.863969 47.780206 136.613963 55.603452 139.854458 
C 63.426698 143.094952 71.812179 144.762928 80.28 144.762928 
C 88.747821 144.762928 97.133302 143.094952 104.956548 139.854458 
C 112.779794 136.613963 119.888663 131.863969 125.876316 125.876316 
C 131.863969 119.888663 136.613963 112.779794 139.854458 104.956548 
C 143.094952 97.133302 144.762928 88.747821 144.762928 80.28 
" clip-path="url(#pe497754077)" style="fill: none; stroke: #b0b0b0; stroke-width: 0.8; stroke-linecap: square"/>
     </g>
     <g id="text_9">
      <!-- $\mathdefault{10^{4}}$ -->
      <g transform="translate(43.294112 131.164144) scale(0.1 -0.1)">
       <use xlink:href="#CMR17-31" transform="scale(0.996264)"/>
       <use xlink:href="#CMR17-30" transform="translate(45.690477 0) scale(0.996264)"/>
       <use xlink:href="#CMR17-34" transform="translate(91.380954 36.153639) scale(0.697382)"/>
      </g>
     </g>
    </g>
    <g id="ytick_6"/>
   </g>
   <g id="line2d_10">
    <path d="M 153.948622 80.28 
L 137.815741 79.27571 
L 134.97206 78.370111 
L 131.569828 77.592014 
L 128.992329 76.873702 
L 129.54982 75.969449 
L 130.350209 75.017409 
L 128.695442 74.335331 
L 127.591023 73.630869 
L 127.162713 72.854508 
L 126.096973 72.201231 
L 124.532595 71.678167 
L 124.888298 70.798214 
L 126.066444 69.709367 
L 125.914039 68.902156 
L 124.239897 68.500981 
L 122.358331 68.214233 
L 124.772021 66.677424 
L 124.971015 65.759009 
L 120.781142 66.334338 
L 124.339007 63.367332 
L 117.943628 65.062907 
L 122.47152 62.370762 
L 120.99201 62.153845 
L 117.676419 62.841764 
L 121.992498 59.935455 
L 115.756533 62.203803 
L 119.428751 59.46424 
L 117.611448 59.586841 
L 118.026303 58.487162 
L 116.311081 58.630343 
L 115.101409 58.521169 
L 116.535556 56.735367 
L 113.775551 57.686966 
L 114.446227 56.35655 
L 113.111659 56.426403 
L 113.172032 55.494076 
L 114.000974 53.934288 
L 108.835749 57.15601 
L 112.587266 53.170985 
L 106.932515 57.111322 
L 111.668112 52.018017 
L 106.591912 55.743745 
L 109.756959 51.814431 
L 105.485299 55.074701 
L 106.547179 53.07954 
L 106.65082 52.000758 
L 100.543818 57.774751 
L 106.946351 49.603873 
L 101.901675 54.512291 
L 104.111301 50.850794 
L 102.852014 51.38914 
L 99.99859 54.112547 
L 102.193635 50.11847 
L 89.568247 67.015008 
L 100.929639 49.665651 
L 98.769694 51.808368 
L 97.213617 53.180549 
L 98.619472 49.757993 
L 92.769169 58.648125 
L 98.359432 47.663841 
L 94.47227 53.588222 
L 94.746849 51.887209 
L 95.66765 48.730641 
L 88.870399 61.857829 
L 93.672553 50.199833 
L 87.40167 63.502396 
L 92.139638 50.926366 
L 91.280558 51.622568 
L 87.198814 61.270715 
L 90.138581 51.648603 
L 85.462883 64.328727 
L 89.594871 49.812431 
L 86.576001 58.323236 
L 88.368842 50.09203 
L 86.717109 54.462165 
L 86.607243 50.51266 
L 83.167993 65.422565 
L 86.051687 47.547136 
L 80.645133 77.974644 
L 85.039594 46.413732 
L 81.478057 70.52261 
L 83.72676 47.486265 
L 81.757827 63.388363 
L 82.344328 50.75874 
L 81.015155 66.252409 
L 81.274386 51.804503 
L 80.28 60.614645 
L 80.224516 77.10132 
L 79.310314 52.511828 
L 78.868287 53.342913 
L 79.792547 73.309091 
L 78.350507 58.225797 
L 76.970766 48.79474 
L 77.59729 61.191524 
L 75.262841 48.602908 
L 75.097817 50.890377 
L 79.72354 77.417261 
L 75.212809 56.440738 
L 74.630124 55.807697 
L 75.51561 61.171074 
L 71.986095 49.326727 
L 72.068745 51.643951 
L 74.634204 61.813432 
L 71.239479 52.456136 
L 70.895479 53.025371 
L 72.350476 59.622883 
L 69.803931 54.350818 
L 70.910181 58.20609 
L 72.223033 62.183755 
L 68.19756 54.369123 
L 73.381149 66.13526 
L 70.529305 61.143184 
L 69.506617 60.018213 
L 68.70876 59.40493 
L 70.849715 63.946268 
L 66.964459 58.119218 
L 70.666504 64.89519 
L 69.862819 64.238948 
L 66.907349 60.45423 
L 67.240321 61.657409 
L 69.355525 65.24375 
L 65.326206 60.435645 
L 67.716602 64.199584 
L 67.404442 64.38001 
L 66.93796 64.379576 
L 62.977364 60.375595 
L 69.587637 68.404927 
L 65.758281 64.707363 
L 66.443131 65.951503 
L 62.60194 62.60194 
L 64.844571 65.37418 
L 68.579146 69.368777 
L 62.168154 63.972021 
L 64.803655 66.826619 
L 61.909107 64.864991 
L 66.018682 68.731412 
L 67.216205 70.073445 
L 61.106629 65.831829 
L 65.822753 70.156927 
L 59.473826 66.246058 
L 54.831983 63.753864 
L 52.263153 62.773131 
L 46.81409 60.171652 
L 44.870724 59.836445 
L 46.432878 61.518234 
L 54.333104 66.483791 
L 51.195547 65.460731 
L 48.049629 64.560198 
L 54.215912 68.126116 
L 54.683539 68.883721 
L 50.893873 67.806329 
L 57.551081 71.096921 
L 52.584408 69.648658 
L 57.048507 71.824428 
L 52.472229 70.705017 
L 55.164095 72.119348 
L 51.910055 71.606437 
L 63.373163 75.432043 
L 48.947247 71.884414 
L 59.644052 75.13488 
L 51.265491 73.581473 
L 46.868918 73.178255 
L 58.054312 75.959764 
L 45.537018 74.777252 
L 47.930325 75.73355 
L 61.082932 77.922896 
L 52.843633 77.396322 
L 46.832157 77.353693 
L 46.523124 77.919489 
L 49.157533 78.648941 
L 52.91477 79.324385 
L 52.20021 79.789865 
L 51.087778 80.28 
L 52.20021 80.770135 
L 52.91477 81.235615 
L 49.157533 81.911059 
L 46.523124 82.640511 
L 46.832157 83.206307 
L 52.843633 83.163678 
L 61.082932 82.637104 
L 47.930325 84.82645 
L 45.537018 85.782748 
L 58.054312 84.600236 
L 46.868918 87.381745 
L 51.265491 86.978527 
L 59.644052 85.42512 
L 48.947247 88.675586 
L 63.373163 85.127957 
L 51.910055 88.953563 
L 55.164095 88.440652 
L 52.472229 89.854983 
L 57.048507 88.735572 
L 52.584408 90.911342 
L 57.551081 89.463079 
L 50.893873 92.753671 
L 54.683539 91.676279 
L 54.215912 92.433884 
L 48.049629 95.999802 
L 51.195547 95.099269 
L 54.333104 94.076209 
L 46.432878 99.041766 
L 44.870724 100.723555 
L 46.81409 100.388348 
L 52.263153 97.786869 
L 54.831983 96.806136 
L 59.473826 94.313942 
L 65.822753 90.403073 
L 61.106629 94.728171 
L 67.216205 90.486555 
L 66.018682 91.828588 
L 61.909107 95.695009 
L 64.803655 93.733381 
L 62.168154 96.587979 
L 68.579146 91.191223 
L 64.844571 95.18582 
L 62.60194 97.95806 
L 66.443131 94.608497 
L 65.758281 95.852637 
L 69.587637 92.155073 
L 62.977364 100.184405 
L 66.93796 96.180424 
L 67.404442 96.17999 
L 67.716602 96.360416 
L 65.326206 100.124355 
L 69.355525 95.31625 
L 67.240321 98.902591 
L 66.907349 100.10577 
L 69.862819 96.321052 
L 70.666504 95.66481 
L 66.964459 102.440782 
L 70.849715 96.613732 
L 68.70876 101.15507 
L 69.506617 100.541787 
L 70.529305 99.416816 
L 73.381149 94.42474 
L 68.19756 106.190877 
L 72.223033 98.376245 
L 70.910181 102.35391 
L 69.803931 106.209182 
L 72.350476 100.937117 
L 70.895479 107.534629 
L 71.239479 108.103864 
L 74.634204 98.746568 
L 72.068745 108.916049 
L 71.986095 111.233273 
L 75.51561 99.388926 
L 74.630124 104.752303 
L 75.212809 104.119262 
L 79.72354 83.142739 
L 75.097817 109.669623 
L 75.262841 111.957092 
L 77.59729 99.368476 
L 76.970766 111.76526 
L 78.350507 102.334203 
L 79.792547 87.250909 
L 78.868287 107.217087 
L 79.310314 108.048172 
L 80.224516 83.45868 
L 80.28 99.945355 
L 81.274386 108.755497 
L 81.015155 94.307591 
L 82.344328 109.80126 
L 81.757827 97.171637 
L 83.72676 113.073735 
L 81.478057 90.03739 
L 85.039594 114.146268 
L 80.645133 82.585356 
L 86.051687 113.012864 
L 83.167993 95.137435 
L 86.607243 110.04734 
L 86.717109 106.097835 
L 88.368842 110.46797 
L 86.576001 102.236764 
L 89.594871 110.747569 
L 85.462883 96.231273 
L 90.138581 108.911397 
L 87.198814 99.289285 
L 91.280558 108.937432 
L 92.139638 109.633634 
L 87.40167 97.057604 
L 93.672553 110.360167 
L 88.870399 98.702171 
L 95.66765 111.829359 
L 94.746849 108.672791 
L 94.47227 106.971778 
L 98.359432 112.896159 
L 92.769169 101.911875 
L 98.619472 110.802007 
L 97.213617 107.379451 
L 98.769694 108.751632 
L 100.929639 110.894349 
L 89.568247 93.544992 
L 102.193635 110.44153 
L 99.99859 106.447453 
L 102.852014 109.17086 
L 104.111301 109.709206 
L 101.901675 106.047709 
L 106.946351 110.956127 
L 100.543818 102.785249 
L 106.65082 108.559242 
L 106.547179 107.48046 
L 105.485299 105.485299 
L 109.756959 108.745569 
L 106.591912 104.816255 
L 111.668112 108.541983 
L 106.932515 103.448678 
L 112.587266 107.389015 
L 108.835749 103.40399 
L 114.000974 106.625712 
L 113.172032 105.065924 
L 113.111659 104.133597 
L 114.446227 104.20345 
L 113.775551 102.873034 
L 116.535556 103.824633 
L 115.101409 102.038831 
L 116.311081 101.929657 
L 118.026303 102.072838 
L 117.611448 100.973159 
L 119.428751 101.09576 
L 115.756533 98.356197 
L 121.992498 100.624545 
L 117.676419 97.718236 
L 120.99201 98.406155 
L 122.47152 98.189238 
L 117.943628 95.497093 
L 124.339007 97.192668 
L 120.781142 94.225662 
L 124.971015 94.800991 
L 124.772021 93.882576 
L 122.358331 92.345767 
L 124.239897 92.059019 
L 125.914039 91.657844 
L 126.066444 90.850633 
L 124.888298 89.761786 
L 124.532595 88.881833 
L 126.096973 88.358769 
L 127.162713 87.705492 
L 127.591023 86.929131 
L 128.695442 86.224669 
L 130.350209 85.542591 
L 129.54982 84.590551 
L 128.992329 83.686298 
L 131.569828 82.967986 
L 134.97206 82.189889 
L 137.815741 81.28429 
L 153.948622 80.28 
L 153.948622 80.28 
" clip-path="url(#pe497754077)" style="fill: none; stroke: #000000; stroke-width: 0.75; stroke-linecap: square"/>
   </g>
   <g id="line2d_11">
    <path d="M 153.631753 80.28 
L 138.563722 79.262654 
L 135.683121 78.34528 
L 129.910092 76.809526 
L 130.001974 75.929891 
L 130.630419 74.987958 
L 129.557502 74.229484 
L 127.900456 73.587381 
L 127.201935 72.848296 
L 122.668484 72.040513 
L 124.707286 70.836689 
L 126.546135 69.598621 
L 127.149852 68.594034 
L 121.544091 68.447712 
L 124.576456 66.737214 
L 125.356027 65.633911 
L 120.961764 66.272145 
L 122.211497 65.018183 
L 124.013903 63.492127 
L 119.361343 64.490113 
L 121.655897 62.716974 
L 121.74721 61.817609 
L 117.25326 63.039086 
L 121.531187 60.160452 
L 116.513154 61.818286 
L 119.799759 59.266971 
L 117.060507 59.892232 
L 117.345608 58.880161 
L 117.149382 58.12664 
L 115.483788 58.282232 
L 116.159505 56.979577 
L 114.076457 57.484002 
L 114.750561 56.143453 
L 113.380867 56.230812 
L 112.664328 55.876658 
L 112.919996 54.77884 
L 109.872708 56.316297 
L 112.486086 53.255885 
L 106.839268 57.19238 
L 111.626586 52.055407 
L 104.935784 57.28811 
L 109.817505 51.755963 
L 106.134996 54.425004 
L 106.444133 53.186247 
L 107.140687 51.47544 
L 101.86671 56.305529 
L 106.506596 50.109752 
L 100.092922 56.667879 
L 104.441648 50.44285 
L 102.630204 51.673044 
L 99.753389 54.43794 
L 102.934449 49.098825 
L 95.797401 58.118855 
L 101.208626 49.252035 
L 98.444615 52.308946 
L 97.316998 53.015104 
L 99.189016 48.810113 
L 90.541881 62.505902 
L 97.441058 49.320632 
L 94.168412 54.159695 
L 94.706929 51.965557 
L 94.824882 50.458573 
L 87.79108 64.172437 
L 94.292212 48.808057 
L 88.991498 59.756997 
L 92.157061 50.883242 
L 90.916454 52.57109 
L 87.857539 59.460883 
L 91.170166 48.652663 
L 80.736739 78.874302 
L 89.047588 51.602511 
L 86.461205 58.723578 
L 87.914614 51.787232 
L 87.052749 53.115987 
L 85.758364 56.550601 
L 85.69804 54.790127 
L 82.196088 70.422584 
L 85.348421 51.535556 
L 83.452389 60.250323 
L 84.405084 50.928503 
L 82.724775 60.368909 
L 83.334976 51.213845 
L 82.351601 56.601487 
L 82.035974 55.168408 
L 81.205123 62.627603 
L 81.136964 55.739748 
L 80.662468 58.36842 
L 80.28 58.487893 
L 80.038707 66.456325 
L 79.452783 56.591605 
L 79.094996 57.668771 
L 78.94126 61.135125 
L 78.439107 59.238502 
L 77.329457 52.207457 
L 77.347577 56.39733 
L 76.854427 55.905784 
L 76.009871 53.319464 
L 75.271127 51.873272 
L 77.284245 64.868178 
L 76.086598 60.551596 
L 75.187743 58.223012 
L 76.191502 63.88193 
L 72.67162 51.885139 
L 71.813405 50.753474 
L 74.767532 62.249531 
L 71.469989 53.165574 
L 69.793196 49.82411 
L 72.110024 57.833175 
L 72.281345 59.442791 
L 69.406791 53.367862 
L 72.283624 61.441719 
L 71.747702 61.116144 
L 70.156682 58.570475 
L 71.673777 62.634629 
L 69.951655 60.009481 
L 70.120191 61.172179 
L 69.852714 61.468678 
L 69.458555 61.536708 
L 69.549717 62.42181 
L 69.821875 63.543501 
L 67.721597 60.941756 
L 68.585548 62.942261 
L 68.584524 63.57713 
L 66.710678 62.272902 
L 68.464852 65.689508 
L 67.498463 65.047558 
L 66.091824 63.95837 
L 65.628311 64.007651 
L 65.53854 64.471719 
L 66.960887 66.487655 
L 65.265127 65.265127 
L 64.908153 65.43558 
L 65.669042 66.655061 
L 66.939325 68.268002 
L 66.196717 68.037589 
L 62.448253 65.840136 
L 64.359234 67.841334 
L 65.262668 68.963628 
L 66.42096 70.210818 
L 70.129859 73.172794 
L 65.348122 70.208321 
L 57.218093 65.303422 
L 51.628917 62.376816 
L 46.512176 59.990244 
L 44.771954 59.77942 
L 46.076072 61.320453 
L 55.533041 67.121808 
L 55.674072 67.742654 
L 48.438208 64.74972 
L 58.211134 69.989119 
L 53.216244 68.23044 
L 48.897452 66.958898 
L 64.247958 73.802635 
L 52.068133 69.450479 
L 61.295268 73.370123 
L 53.188094 70.951509 
L 59.425179 73.503858 
L 50.695235 71.23503 
L 58.726582 74.099657 
L 50.538777 72.310863 
L 55.633479 74.134932 
L 54.224698 74.26466 
L 48.950425 73.620693 
L 57.86036 75.922063 
L 54.297052 75.698505 
L 47.666546 75.114536 
L 50.421874 76.083714 
L 57.84692 77.525564 
L 64.464389 78.617712 
L 50.251193 77.65282 
L 50.318943 78.184919 
L 48.409186 78.609721 
L 50.778048 79.249769 
L 50.213445 79.755186 
L 53.948486 80.28 
L 50.199176 80.805063 
L 50.783574 81.310038 
L 48.406695 81.950409 
L 50.342544 82.373431 
L 50.21508 82.91034 
L 64.506258 81.937887 
L 57.80416 83.039686 
L 50.398577 84.47956 
L 47.699572 85.440233 
L 57.865061 84.637023 
L 48.978181 86.933407 
L 54.227994 86.29458 
L 55.610369 86.43083 
L 50.508881 88.257147 
L 58.658319 86.479917 
L 50.681857 89.32906 
L 59.486001 87.03638 
L 53.197527 89.605243 
L 61.210712 87.220653 
L 52.002621 91.134669 
L 64.190522 86.780571 
L 48.902085 93.599135 
L 53.219199 92.328245 
L 58.116457 90.61503 
L 48.470892 95.794339 
L 55.603441 92.853335 
L 55.484556 93.463971 
L 46.074132 99.240622 
L 44.773427 100.779729 
L 46.525242 100.561905 
L 51.647352 98.171664 
L 57.174952 95.284593 
L 70.375772 87.215015 
L 66.491212 90.298141 
L 62.492674 94.683893 
L 66.132863 92.577918 
L 67.075872 92.169051 
L 65.598696 93.970538 
L 65.13697 94.903454 
L 65.092547 95.467453 
L 67.107387 93.92064 
L 65.567599 96.057118 
L 65.513081 96.680325 
L 65.937628 96.779011 
L 67.430262 95.593722 
L 68.296004 95.079003 
L 67.780459 96.278683 
L 66.624572 98.401365 
L 68.6847 96.839805 
L 68.538237 97.687879 
L 67.734401 99.598528 
L 69.861447 96.95317 
L 69.484594 98.246573 
L 69.459947 99.020881 
L 69.909635 98.988634 
L 70.049512 99.52075 
L 69.918775 100.61505 
L 71.676384 97.920028 
L 70.11456 102.079856 
L 71.716 99.515058 
L 72.30672 99.063872 
L 69.387404 107.240121 
L 72.310692 101.040757 
L 72.114759 102.713815 
L 69.790342 110.744179 
L 71.469355 107.396377 
L 74.74468 98.385216 
L 71.826108 109.762227 
L 72.666116 108.695404 
L 76.221921 96.556066 
L 75.21102 102.236164 
L 76.068309 100.09445 
L 77.253212 95.851472 
L 75.283366 108.617319 
L 76.000274 107.301126 
L 76.848367 104.697336 
L 77.356192 104.092504 
L 77.32456 108.399134 
L 78.430837 101.416029 
L 78.950011 99.299723 
L 79.101851 102.760425 
L 79.448991 104.076993 
L 80.031299 94.528064 
L 80.28 102.011795 
L 80.660278 102.06611 
L 81.138734 104.870919 
L 81.212506 98.073265 
L 82.042623 105.486679 
L 82.356778 104.017679 
L 83.329013 109.289417 
L 82.711913 100.086341 
L 84.3983 109.583224 
L 83.437422 100.215177 
L 85.34936 109.029767 
L 82.149019 89.89527 
L 85.719931 105.872864 
L 85.762673 104.028065 
L 87.044809 107.412165 
L 87.916252 108.778881 
L 86.438839 101.758423 
L 89.035105 108.916658 
L 80.726795 81.655094 
L 91.169009 111.903978 
L 87.84698 101.070106 
L 90.944203 108.061199 
L 92.141737 109.63883 
L 89.032376 100.899306 
L 94.279003 111.722275 
L 87.899245 96.619523 
L 94.812223 110.075472 
L 94.729918 108.639562 
L 94.189956 106.440822 
L 97.448551 111.252885 
L 90.43139 97.862724 
L 99.152545 111.689189 
L 97.335985 107.575281 
L 98.409934 108.19765 
L 101.237644 111.350985 
L 95.832915 102.491865 
L 102.939375 111.467954 
L 99.798244 106.181585 
L 102.613931 108.866128 
L 104.434001 110.107707 
L 100.064803 103.85861 
L 106.503321 110.44648 
L 101.880688 104.269994 
L 107.131951 109.075193 
L 106.449534 107.379346 
L 106.130802 106.130802 
L 109.840269 108.82602 
L 104.927044 103.26374 
L 111.627888 108.505765 
L 106.841783 103.369806 
L 112.489883 107.307301 
L 109.864667 104.237191 
L 112.922672 105.783251 
L 112.686405 104.699978 
L 113.389535 104.335485 
L 114.752164 104.417669 
L 114.069734 103.071463 
L 116.154724 103.577318 
L 115.488074 102.280446 
L 117.163692 102.441958 
L 117.364665 101.690841 
L 117.034955 100.653604 
L 119.790955 101.288348 
L 116.525243 98.747874 
L 121.538714 100.40322 
L 117.266427 97.527054 
L 121.752497 98.744746 
L 121.662285 97.845738 
L 119.360659 96.069611 
L 124.021999 97.07098 
L 122.206446 95.539978 
L 120.958506 94.286733 
L 125.359644 94.927264 
L 124.579446 93.8237 
L 121.547503 92.113266 
L 127.146618 91.96516 
L 126.545589 90.961253 
L 124.705106 89.722848 
L 122.670566 88.519891 
L 127.198169 87.711108 
L 127.904833 86.973234 
L 129.550461 86.329652 
L 130.634241 85.572444 
L 130.010217 84.63083 
L 129.904588 83.750089 
L 132.445384 83.013872 
L 135.684255 82.214759 
L 138.561534 81.297308 
L 153.631752 80.28 
L 153.631752 80.28 
" clip-path="url(#pe497754077)" style="fill: none; stroke-dasharray: 2.775,1.2; stroke-dashoffset: 0; stroke: #ff0000; stroke-width: 0.75"/>
   </g>
   <g id="patch_3">
    <path d="M 157.55976 80.28 
C 157.55976 70.131715 155.560769 60.082109 151.677189 50.706316 
C 147.793608 41.330523 142.100964 32.810879 134.925042 25.634958 
C 127.749121 18.459036 119.229477 12.766392 109.853684 8.882811 
C 100.477891 4.999231 90.428285 3.00024 80.28 3.00024 
C 70.131715 3.00024 60.082109 4.999231 50.706316 8.882811 
C 41.330523 12.766392 32.810879 18.459036 25.634958 25.634958 
C 18.459036 32.810879 12.766392 41.330523 8.882811 50.706316 
C 4.999231 60.082109 3.00024 70.131715 3.00024 80.28 
C 3.00024 90.428285 4.999231 100.477891 8.882811 109.853684 
C 12.766392 119.229477 18.459036 127.749121 25.634958 134.925042 
C 32.810879 142.100964 41.330523 147.793608 50.706316 151.677189 
C 60.082109 155.560769 70.131715 157.55976 80.28 157.55976 
C 90.428285 157.55976 100.477891 155.560769 109.853684 151.677189 
C 119.229477 147.793608 127.749121 142.100964 134.925042 134.925042 
C 142.100964 127.749121 147.793608 119.229477 151.677189 109.853684 
C 155.560769 100.477891 157.55976 90.428285 157.55976 80.28 
" style="fill: none; stroke: #000000; stroke-width: 0.8; stroke-linejoin: miter; stroke-linecap: square"/>
   </g>
  </g>
 </g>
 <defs>
  <clipPath id="pe497754077">
   <path d="M 157.55976 80.28 
C 157.55976 70.131715 155.560769 60.082109 151.677189 50.706316 
C 147.793608 41.330523 142.100964 32.810879 134.925042 25.634958 
C 127.749121 18.459036 119.229477 12.766392 109.853684 8.882811 
C 100.477891 4.999231 90.428285 3.00024 80.28 3.00024 
C 70.131715 3.00024 60.082109 4.999231 50.706316 8.882811 
C 41.330523 12.766392 32.810879 18.459036 25.634958 25.634958 
C 18.459036 32.810879 12.766392 41.330523 8.882811 50.706316 
C 4.999231 60.082109 3.00024 70.131715 3.00024 80.28 
C 3.00024 90.428285 4.999231 100.477891 8.882811 109.853684 
C 12.766392 119.229477 18.459036 127.749121 25.634958 134.925042 
C 32.810879 142.100964 41.330523 147.793608 50.706316 151.677189 
C 60.082109 155.560769 70.131715 157.55976 80.28 157.55976 
C 90.428285 157.55976 100.477891 155.560769 109.853684 151.677189 
C 119.229477 147.793608 127.749121 142.100964 134.925042 134.925042 
C 142.100964 127.749121 147.793608 119.229477 151.677189 109.853684 
C 155.560769 100.477891 157.55976 90.428285 157.55976 80.28 
M 80.28 80.28 
C 80.28 80.28 80.28 80.28 80.28 80.28 
C 80.28 80.28 80.28 80.28 80.28 80.28 
C 80.28 80.28 80.28 80.28 80.28 80.28 
C 80.28 80.28 80.28 80.28 80.28 80.28 
C 80.28 80.28 80.28 80.28 80.28 80.28 
C 80.28 80.28 80.28 80.28 80.28 80.28 
C 80.28 80.28 80.28 80.28 80.28 80.28 
C 80.28 80.28 80.28 80.28 80.28 80.28 
C 80.28 80.28 80.28 80.28 80.28 80.28 
C 80.28 80.28 80.28 80.28 80.28 80.28 
C 80.28 80.28 80.28 80.28 80.28 80.28 
C 80.28 80.28 80.28 80.28 80.28 80.28 
C 80.28 80.28 80.28 80.28 80.28 80.28 
C 80.28 80.28 80.28 80.28 80.28 80.28 
C 80.28 80.28 80.28 80.28 80.28 80.28 
C 80.28 80.28 80.28 80.28 80.28 80.28 
M 157.55976 80.28 
z
"/>
  </clipPath>
 </defs>
</svg>
