<?xml version="1.0" encoding="utf-8" standalone="no"?>
<!DOCTYPE svg PUBLIC "-//W3C//DTD SVG 1.1//EN"
  "http://www.w3.org/Graphics/SVG/1.1/DTD/svg11.dtd">
<svg xmlns:xlink="http://www.w3.org/1999/xlink" width="160.56pt" height="160.56pt" viewBox="0 0 160.56 160.56" xmlns="http://www.w3.org/2000/svg" version="1.1">
 <metadata>
  <rdf:RDF xmlns:dc="http://purl.org/dc/elements/1.1/" xmlns:cc="http://creativecommons.org/ns#" xmlns:rdf="http://www.w3.org/1999/02/22-rdf-syntax-ns#">
   <cc:Work>
    <dc:type rdf:resource="http://purl.org/dc/dcmitype/StillImage"/>
    <dc:date>2025-09-22T21:50:32.155338</dc:date>
    <dc:format>image/svg+xml</dc:format>
    <dc:creator>
     <cc:Agent>
      <dc:title>Matplotlib v3.6.3, https://matplotlib.org/</dc:title>
     </cc:Agent>
    </dc:creator>
   </cc:Work>
  </rdf:RDF>
 </metadata>
 <defs>
  <style type="text/css">*{stroke-linejoin: round; stroke-linecap: butt}</style>
 </defs>
 <g id="figure_1">
  <g id="patch_1">
   <path d="M 0 160.56 
L 160.56 160.56 
L 160.56 0 
L 0 0 
z
" style="fill: #ffffff"/>
  </g>
  <g id="axes_1">
   <g id="patch_2">
    <path d="M 157.55976 80.28 
C 157.55976 70.131715 155.560769 60.082109 151.677189 50.706316 
C 147.793608 41.330523 142.100964 32.810879 134.925042 25.634958 
C 127.749121 18.459036 119.229477 12.766392 109.853684 8.882811 
C 100.477891 4.999231 90.428285 3.00024 80.28 3.00024 
C 70.131715 3.00024 60.082109 4.999231 50.706316 8.882811 
C 41.330523 12.766392 32.810879 18.459036 25.634958 25.634958 
C 18.459036 32.810879 12.766392 41.330523 8.882811 50.706316 
C 4.999231 60.082109 3.00024 70.131715 3.00024 80.28 
C 3.00024 90.428285 4.999231 100.477891 8.882811 109.853684 
C 12.766392 119.229477 18.459036 127.749121 25.634958 134.925042 
C 32.810879 142.100964 41.330523 147.793608 50.706316 151.677189 
C 60.082109 155.560769 70.131715 157.55976 80.28 157.55976 
C 90.428285 157.55976 100.477891 155.560769 109.853684 151.677189 
C 119.229477 147.793608 127.749121 142.100964 134.925042 134.925042 
C 142.100964 127.749121 147.793608 119.229477 151.677189 109.853684 
C 155.560769 100.477891 157.55976 90.428285 157.55976 80.28 
M 80.28 80.28 
C 80.28 80.28 80.28 80.28 80.28 80.28 
C 80.28 80.28 80.28 80.28 80.28 80.28 
C 80.28 80.28 80.28 80.28 80.28 80.28 
C 80.28 80.28 80.28 80.28 80.28 80.28 
C 80.28 80.28 80.28 80.28 80.28 80.28 
C 80.28 80.28 80.28 80.28 80.28 80.28 
C 80.28 80.28 80.28 80.28 80.28 80.28 
C 80.28 80.28 80.28 80.28 80.28 80.28 
C 80.28 80.28 80.28 80.28 80.28 80.28 
C 80.28 80.28 80.28 80.28 80.28 80.28 
C 80.28 80.28 80.28 80.28 80.28 80.28 
C 80.28 80.28 80.28 80.28 80.28 80.28 
C 80.28 80.28 80.28 80.28 80.28 80.28 
C 80.28 80.28 80.28 80.28 80.28 80.28 
C 80.28 80.28 80.28 80.28 80.28 80.28 
C 80.28 80.28 80.28 80.28 80.28 80.28 
M 157.55976 80.28 
z
" style="fill: #ffffff"/>
   </g>
   <g id="matplotlib.axis_1">
    <g id="xtick_1">
     <g id="line2d_1">
      <path d="M 80.28 80.28 
L 134.925042 25.634958 
" clip-path="url(#pae420b7be5)" style="fill: none; stroke: #b0b0b0; stroke-width: 0.8; stroke-linecap: square"/>
     </g>
     <g id="text_1">
      <!-- $\pi/4$ -->
      <g transform="translate(136.824995 18.226123) scale(0.1 -0.1)">
       <defs>
        <path id="CMMI12-19" d="M 1658 2406 
L 2381 2406 
C 2208 1691 2099 1225 2099 715 
C 2099 625 2099 -64 2362 -64 
C 2496 -64 2611 57 2611 166 
C 2611 198 2611 210 2566 306 
C 2394 746 2394 1295 2394 1340 
C 2394 1378 2394 1832 2528 2406 
L 3245 2406 
C 3328 2406 3539 2406 3539 2611 
C 3539 2752 3418 2752 3302 2752 
L 1197 2752 
C 1050 2752 832 2752 538 2438 
C 371 2253 166 1915 166 1876 
C 166 1838 198 1825 237 1825 
C 282 1825 288 1844 320 1883 
C 653 2406 986 2406 1146 2406 
L 1510 2406 
C 1370 1927 1210 1372 685 255 
C 634 153 634 140 634 102 
C 634 -32 749 -64 806 -64 
C 992 -64 1043 102 1120 370 
C 1222 695 1222 708 1286 964 
L 1658 2406 
z
" transform="scale(0.015625)"/>
        <path id="CMMI12-3d" d="M 2746 4563 
C 2746 4569 2784 4665 2784 4678 
C 2784 4755 2720 4800 2669 4800 
C 2637 4800 2579 4800 2528 4659 
L 384 -1364 
C 384 -1370 346 -1466 346 -1479 
C 346 -1556 410 -1600 461 -1600 
C 499 -1600 557 -1594 602 -1460 
L 2746 4563 
z
" transform="scale(0.015625)"/>
        <path id="CMR17-34" d="M 2150 4147 
C 2150 4281 2144 4288 2029 4288 
L 128 1254 
L 128 1088 
L 1779 1088 
L 1779 460 
C 1779 230 1766 166 1318 166 
L 1197 166 
L 1197 0 
C 1402 12 1747 12 1965 12 
C 2182 12 2528 12 2733 0 
L 2733 166 
L 2611 166 
C 2163 166 2150 230 2150 460 
L 2150 1088 
L 2803 1088 
L 2803 1254 
L 2150 1254 
L 2150 4147 
z
M 1798 3723 
L 1798 1254 
L 256 1254 
L 1798 3723 
z
" transform="scale(0.015625)"/>
       </defs>
       <use xlink:href="#CMMI12-19" transform="scale(0.996264)"/>
       <use xlink:href="#CMMI12-3d" transform="translate(58.910601 0) scale(0.996264)"/>
       <use xlink:href="#CMR17-34" transform="translate(107.68552 0) scale(0.996264)"/>
      </g>
     </g>
    </g>
    <g id="xtick_2">
     <g id="line2d_2">
      <path d="M 80.28 80.28 
L 25.634958 25.634958 
" clip-path="url(#pae420b7be5)" style="fill: none; stroke: #b0b0b0; stroke-width: 0.8; stroke-linecap: square"/>
     </g>
     <g id="text_2">
      <!-- $3\pi/4$ -->
      <g transform="translate(5.245252 18.226123) scale(0.1 -0.1)">
       <defs>
        <path id="CMR17-33" d="M 1414 2176 
C 1984 2176 2234 1673 2234 1094 
C 2234 322 1824 25 1453 25 
C 1114 25 563 193 390 691 
C 422 678 454 678 486 678 
C 640 678 755 780 755 947 
C 755 1132 614 1216 486 1216 
C 378 1216 211 1164 211 927 
C 211 335 787 -128 1466 -128 
C 2176 -128 2720 432 2720 1087 
C 2720 1718 2208 2176 1600 2246 
C 2086 2347 2554 2776 2554 3353 
C 2554 3856 2048 4224 1472 4224 
C 890 4224 378 3862 378 3347 
C 378 3123 544 3084 627 3084 
C 762 3084 877 3167 877 3334 
C 877 3500 762 3584 627 3584 
C 602 3584 570 3584 544 3571 
C 730 3999 1235 4076 1459 4076 
C 1683 4076 2106 3966 2106 3347 
C 2106 3167 2080 2851 1862 2574 
C 1670 2329 1453 2316 1242 2297 
C 1210 2297 1062 2284 1037 2284 
C 992 2278 966 2272 966 2227 
C 966 2182 973 2176 1101 2176 
L 1414 2176 
z
" transform="scale(0.015625)"/>
       </defs>
       <use xlink:href="#CMR17-33" transform="scale(0.996264)"/>
       <use xlink:href="#CMMI12-19" transform="translate(45.690477 0) scale(0.996264)"/>
       <use xlink:href="#CMMI12-3d" transform="translate(104.601078 0) scale(0.996264)"/>
       <use xlink:href="#CMR17-34" transform="translate(153.375997 0) scale(0.996264)"/>
      </g>
     </g>
    </g>
    <g id="xtick_3">
     <g id="line2d_3">
      <path d="M 80.28 80.28 
L 25.634958 134.925042 
" clip-path="url(#pae420b7be5)" style="fill: none; stroke: #b0b0b0; stroke-width: 0.8; stroke-linecap: square"/>
     </g>
     <g id="text_3">
      <!-- $5\pi/4$ -->
      <g transform="translate(5.245252 147.315197) scale(0.1 -0.1)">
       <defs>
        <path id="CMR17-35" d="M 730 3750 
C 794 3724 1056 3641 1325 3641 
C 1920 3641 2246 3961 2432 4140 
C 2432 4191 2432 4224 2394 4224 
C 2387 4224 2374 4224 2323 4198 
C 2099 4102 1837 4032 1517 4032 
C 1325 4032 1037 4055 723 4191 
C 653 4224 640 4224 634 4224 
C 602 4224 595 4217 595 4090 
L 595 2231 
C 595 2113 595 2080 659 2080 
C 691 2080 704 2093 736 2139 
C 941 2435 1222 2560 1542 2560 
C 1766 2560 2246 2415 2246 1293 
C 2246 1087 2246 716 2054 422 
C 1894 159 1645 25 1370 25 
C 947 25 518 319 403 812 
C 429 806 480 793 506 793 
C 589 793 749 838 749 1036 
C 749 1209 627 1280 506 1280 
C 358 1280 262 1190 262 1011 
C 262 454 704 -128 1382 -128 
C 2042 -128 2669 441 2669 1267 
C 2669 2054 2170 2662 1549 2662 
C 1222 2662 947 2540 730 2304 
L 730 3750 
z
" transform="scale(0.015625)"/>
       </defs>
       <use xlink:href="#CMR17-35" transform="scale(0.996264)"/>
       <use xlink:href="#CMMI12-19" transform="translate(45.690477 0) scale(0.996264)"/>
       <use xlink:href="#CMMI12-3d" transform="translate(104.601078 0) scale(0.996264)"/>
       <use xlink:href="#CMR17-34" transform="translate(153.375997 0) scale(0.996264)"/>
      </g>
     </g>
    </g>
    <g id="xtick_4">
     <g id="line2d_4">
      <path d="M 80.28 80.28 
L 134.925042 134.925042 
" clip-path="url(#pae420b7be5)" style="fill: none; stroke: #b0b0b0; stroke-width: 0.8; stroke-linecap: square"/>
     </g>
     <g id="text_4">
      <!-- $7\pi/4$ -->
      <g transform="translate(134.334327 147.315197) scale(0.1 -0.1)">
       <defs>
        <path id="CMR17-37" d="M 2886 3955 
L 2886 4096 
L 1382 4096 
C 634 4096 621 4166 595 4288 
L 480 4288 
L 294 3104 
L 410 3104 
C 429 3226 474 3552 550 3673 
C 589 3724 1062 3724 1171 3724 
L 2579 3724 
L 1869 2670 
C 1395 1961 1069 1003 1069 166 
C 1069 89 1069 -128 1299 -128 
C 1530 -128 1530 89 1530 172 
L 1530 466 
C 1530 1514 1709 2204 2003 2644 
L 2886 3955 
z
" transform="scale(0.015625)"/>
       </defs>
       <use xlink:href="#CMR17-37" transform="scale(0.996264)"/>
       <use xlink:href="#CMMI12-19" transform="translate(45.690477 0) scale(0.996264)"/>
       <use xlink:href="#CMMI12-3d" transform="translate(104.601078 0) scale(0.996264)"/>
       <use xlink:href="#CMR17-34" transform="translate(153.375997 0) scale(0.996264)"/>
      </g>
     </g>
    </g>
   </g>
   <g id="matplotlib.axis_2">
    <g id="ytick_1">
     <g id="line2d_5">
      <path d="M 95.541786 80.28 
C 95.541786 78.275841 95.14701 76.291169 94.380052 74.439567 
C 93.613093 72.587966 92.488867 70.905442 91.071712 69.488288 
C 89.654558 68.071133 87.972034 66.946907 86.120433 66.179948 
C 84.268831 65.41299 82.284159 65.018214 80.28 65.018214 
C 78.275841 65.018214 76.291169 65.41299 74.439567 66.179948 
C 72.587966 66.946907 70.905442 68.071133 69.488288 69.488288 
C 68.071133 70.905442 66.946907 72.587966 66.179948 74.439567 
C 65.41299 76.291169 65.018214 78.275841 65.018214 80.28 
C 65.018214 82.284159 65.41299 84.268831 66.179948 86.120433 
C 66.946907 87.972034 68.071133 89.654558 69.488288 91.071712 
C 70.905442 92.488867 72.587966 93.613093 74.439567 94.380052 
C 76.291169 95.14701 78.275841 95.541786 80.28 95.541786 
C 82.284159 95.541786 84.268831 95.14701 86.120433 94.380052 
C 87.972034 93.613093 89.654558 92.488867 91.071712 91.071712 
C 92.488867 89.654558 93.613093 87.972034 94.380052 86.120433 
C 95.14701 84.268831 95.541786 82.284159 95.541786 80.28 
" clip-path="url(#pae420b7be5)" style="fill: none; stroke: #b0b0b0; stroke-width: 0.8; stroke-linecap: square"/>
     </g>
     <g id="text_5">
      <!-- $\mathdefault{10^{0}}$ -->
      <g transform="translate(71.526199 90.844545) scale(0.1 -0.1)">
       <defs>
        <path id="CMR17-31" d="M 1702 4083 
C 1702 4217 1696 4224 1606 4224 
C 1357 3927 979 3833 621 3820 
C 602 3820 570 3820 563 3808 
C 557 3795 557 3782 557 3648 
C 755 3648 1088 3686 1344 3839 
L 1344 467 
C 1344 243 1331 166 781 166 
L 589 166 
L 589 0 
C 896 6 1216 12 1523 12 
C 1830 12 2150 6 2458 0 
L 2458 166 
L 2266 166 
C 1715 166 1702 236 1702 467 
L 1702 4083 
z
" transform="scale(0.015625)"/>
        <path id="CMR17-30" d="M 2688 2038 
C 2688 2430 2682 3099 2413 3613 
C 2176 4063 1798 4224 1466 4224 
C 1158 4224 768 4082 525 3620 
C 269 3137 243 2539 243 2038 
C 243 1671 250 1112 448 623 
C 723 -39 1216 -128 1466 -128 
C 1760 -128 2208 -7 2470 604 
C 2662 1048 2688 1568 2688 2038 
z
M 1466 -26 
C 1056 -26 813 328 723 816 
C 653 1196 653 1749 653 2109 
C 653 2604 653 3015 736 3407 
C 858 3954 1216 4121 1466 4121 
C 1728 4121 2067 3947 2189 3420 
C 2272 3054 2278 2623 2278 2109 
C 2278 1691 2278 1176 2202 797 
C 2067 96 1690 -26 1466 -26 
z
" transform="scale(0.015625)"/>
       </defs>
       <use xlink:href="#CMR17-31" transform="scale(0.996264)"/>
       <use xlink:href="#CMR17-30" transform="translate(45.690477 0) scale(0.996264)"/>
       <use xlink:href="#CMR17-30" transform="translate(91.380954 36.153639) scale(0.697382)"/>
      </g>
     </g>
    </g>
    <g id="ytick_2">
     <g id="line2d_6">
      <path d="M 130.005127 80.28 
C 130.005127 73.750156 128.71889 67.283807 126.220027 61.251018 
C 123.721164 55.218229 120.058271 49.736322 115.440974 45.119026 
C 110.823678 40.501729 105.341771 36.838836 99.308982 34.339973 
C 93.276193 31.84111 86.809844 30.554873 80.28 30.554873 
C 73.750156 30.554873 67.283807 31.84111 61.251018 34.339973 
C 55.218229 36.838836 49.736322 40.501729 45.119026 45.119026 
C 40.501729 49.736322 36.838836 55.218229 34.339973 61.251018 
C 31.84111 67.283807 30.554873 73.750156 30.554873 80.28 
C 30.554873 86.809844 31.84111 93.276193 34.339973 99.308982 
C 36.838836 105.341771 40.501729 110.823678 45.119026 115.440974 
C 49.736322 120.058271 55.218229 123.721164 61.251018 126.220027 
C 67.283807 128.71889 73.750156 130.005127 80.28 130.005127 
C 86.809844 130.005127 93.276193 128.71889 99.308982 126.220027 
C 105.341771 123.721164 110.823678 120.058271 115.440974 115.440974 
C 120.058271 110.823678 123.721164 105.341771 126.220027 99.308982 
C 128.71889 93.276193 130.005127 86.809844 130.005127 80.28 
" clip-path="url(#pae420b7be5)" style="fill: none; stroke: #b0b0b0; stroke-width: 0.8; stroke-linecap: square"/>
     </g>
     <g id="text_6">
      <!-- $\mathdefault{10^{1}}$ -->
      <g transform="translate(51.758839 119.075261) scale(0.1 -0.1)">
       <use xlink:href="#CMR17-31" transform="scale(0.996264)"/>
       <use xlink:href="#CMR17-30" transform="translate(45.690477 0) scale(0.996264)"/>
       <use xlink:href="#CMR17-31" transform="translate(91.380954 36.153639) scale(0.697382)"/>
      </g>
     </g>
    </g>
    <g id="ytick_3">
     <g id="line2d_7">
      <path d="M 157.476342 80.28 
C 157.476342 70.142669 155.479509 60.103911 151.60012 50.738239 
C 147.720732 41.372567 142.034232 32.862119 134.866057 25.693943 
C 127.697881 18.525768 119.187433 12.839268 109.821761 8.95988 
C 100.456089 5.080491 90.417331 3.083658 80.28 3.083658 
C 70.142669 3.083658 60.103911 5.080491 50.738239 8.95988 
C 41.372567 12.839268 32.862119 18.525768 25.693943 25.693943 
C 18.525768 32.862119 12.839268 41.372567 8.95988 50.738239 
C 5.080491 60.103911 3.083658 70.142669 3.083658 80.28 
C 3.083658 90.417331 5.080491 100.456089 8.95988 109.821761 
C 12.839268 119.187433 18.525768 127.697881 25.693943 134.866057 
C 32.862119 142.034232 41.372567 147.720732 50.738239 151.60012 
C 60.103911 155.479509 70.142669 157.476342 80.28 157.476342 
C 90.417331 157.476342 100.456089 155.479509 109.821761 151.60012 
C 119.187433 147.720732 127.697881 142.034232 134.866057 134.866057 
C 142.034232 127.697881 147.720732 119.187433 151.60012 109.821761 
C 155.479509 100.456089 157.476342 90.417331 157.476342 80.28 
" clip-path="url(#pae420b7be5)" style="fill: none; stroke: #b0b0b0; stroke-width: 0.8; stroke-linecap: square"/>
     </g>
     <g id="text_7">
      <!-- $\mathdefault{10^{2}}$ -->
      <g transform="translate(36.001997 141.578363) scale(0.1 -0.1)">
       <defs>
        <path id="CMR17-32" d="M 2669 990 
L 2554 990 
C 2490 537 2438 460 2413 422 
C 2381 371 1920 371 1830 371 
L 602 371 
C 832 620 1280 1073 1824 1596 
C 2214 1966 2669 2400 2669 3033 
C 2669 3788 2067 4224 1395 4224 
C 691 4224 262 3603 262 3027 
C 262 2777 448 2745 525 2745 
C 589 2745 781 2783 781 3007 
C 781 3206 614 3264 525 3264 
C 486 3264 448 3257 422 3244 
C 544 3788 915 4057 1306 4057 
C 1862 4057 2227 3616 2227 3033 
C 2227 2477 1901 1998 1536 1583 
L 262 147 
L 262 0 
L 2515 0 
L 2669 990 
z
" transform="scale(0.015625)"/>
       </defs>
       <use xlink:href="#CMR17-31" transform="scale(0.996264)"/>
       <use xlink:href="#CMR17-30" transform="translate(45.690477 0) scale(0.996264)"/>
       <use xlink:href="#CMR17-32" transform="translate(91.380954 36.153639) scale(0.697382)"/>
      </g>
     </g>
    </g>
    <g id="ytick_4"/>
   </g>
   <g id="line2d_8">
    <path d="M 153.914722 80.28 
L 153.744753 77.942033 
L 153.23475 75.63182 
L 152.384425 73.377325 
L 151.193347 71.206937 
L 149.661037 69.149664 
L 147.787193 67.235303 
L 145.572157 65.49452 
L 143.017866 63.95873 
L 140.129713 62.659524 
L 136.920161 61.627152 
L 133.415563 60.887043 
L 129.668589 60.452526 
L 125.779056 60.310907 
L 121.922564 60.400574 
L 115.45149 60.651862 
L 114.313581 60.570505 
L 113.406176 60.385745 
L 112.716481 60.091063 
L 112.213798 59.692082 
L 111.855802 59.20442 
L 111.390384 58.052863 
L 110.756034 56.230058 
L 110.105633 55.163359 
L 109.180213 54.327416 
L 107.962241 53.78295 
L 106.461868 53.5723 
L 104.70367 53.726523 
L 102.720491 54.268503 
L 100.551667 55.212623 
L 99.411967 55.836753 
L 97.55803 57.466841 
L 93.35371 61.826577 
L 89.945426 65.673629 
L 86.331021 70.112982 
L 83.03538 74.200086 
L 82.790886 74.235189 
L 82.584929 73.885792 
L 82.233308 73.123138 
L 81.926662 72.871753 
L 81.565691 72.834684 
L 81.056475 73.076103 
L 80.573259 73.580243 
L 80.07281 74.493463 
L 79.735521 75.579659 
L 79.363689 77.800028 
L 79.34201 78.411622 
L 79.591401 79.221188 
L 79.803359 79.718542 
L 79.672798 79.630296 
L 78.525755 78.872866 
L 77.727534 78.605522 
L 77.364012 78.682957 
L 76.903369 78.893138 
L 76.015694 78.913167 
L 73.651067 78.944287 
L 72.093074 79.166269 
L 71.122165 79.476755 
L 70.501355 79.890928 
L 70.338145 80.200927 
L 70.392913 80.515953 
L 70.66131 80.816063 
L 71.414073 81.199966 
L 72.467559 81.469643 
L 74.043822 81.64014 
L 77.364012 81.877043 
L 77.727534 81.954478 
L 78.372793 81.760597 
L 79.266945 81.234359 
L 79.81396 80.847008 
L 79.765514 80.970649 
L 79.360564 82.040993 
L 79.349359 82.680594 
L 80.07281 86.066537 
L 80.573259 86.979757 
L 81.056475 87.483897 
L 81.565691 87.725316 
L 81.926662 87.688247 
L 82.233308 87.436862 
L 82.526284 86.836603 
L 82.790886 86.324811 
L 83.03538 86.359914 
L 83.477979 86.778426 
L 85.48736 89.354889 
L 88.547419 93.216217 
L 91.547009 96.731932 
L 95.361087 100.864692 
L 97.55803 103.093159 
L 99.411967 104.723247 
L 101.656555 105.87019 
L 103.737898 106.612082 
L 105.613101 106.957807 
L 107.246058 106.926254 
L 108.607611 106.544224 
L 109.679265 105.847797 
L 110.462463 104.887334 
L 110.99682 103.736837 
L 111.855802 101.35558 
L 112.213798 100.867918 
L 112.716481 100.468937 
L 113.406176 100.174255 
L 114.313581 99.989495 
L 116.812313 99.91212 
L 125.779056 100.249093 
L 129.668589 100.107474 
L 133.415563 99.672957 
L 136.920161 98.932848 
L 140.129713 97.900476 
L 143.017866 96.60127 
L 145.572157 95.06548 
L 147.787193 93.324697 
L 149.661037 91.410336 
L 151.193347 89.353063 
L 152.384425 87.182675 
L 153.23475 84.92818 
L 153.744753 82.617967 
L 153.914722 80.28 
L 153.914722 80.28 
" clip-path="url(#pae420b7be5)" style="fill: none; stroke: #000000; stroke-width: 0.75; stroke-linecap: square"/>
   </g>
   <g id="line2d_9">
    <path d="M 153.834002 80.28 
L 153.622247 77.718832 
L 153.005905 75.194509 
L 151.984396 72.743564 
L 150.556699 70.403254 
L 148.721717 68.211879 
L 146.478926 66.208984 
L 143.829613 64.435302 
L 140.779248 62.93212 
L 137.342171 61.739377 
L 133.550761 60.891029 
L 129.472827 60.404808 
L 125.241654 60.261782 
L 119.166033 60.466577 
L 115.848866 60.563856 
L 114.547992 60.495366 
L 113.511236 60.312659 
L 112.725183 60.005999 
L 112.152275 59.581902 
L 111.739605 59.060229 
L 111.168599 57.838119 
L 110.625484 56.57151 
L 109.8735 55.448105 
L 109.381987 54.982029 
L 108.805101 54.595884 
L 108.141182 54.299028 
L 107.391008 54.099204 
L 106.557095 54.002905 
L 105.643218 54.015619 
L 103.595286 54.385752 
L 101.294164 55.236295 
L 100.066647 55.845526 
L 98.386704 57.104476 
L 93.702911 61.804949 
L 89.949949 65.943711 
L 86.097188 70.598573 
L 83.060406 74.3174 
L 82.760703 74.435829 
L 82.572949 74.306664 
L 82.0436 73.698156 
L 81.697677 73.610353 
L 81.199328 73.738642 
L 80.599793 74.177992 
L 80.183186 74.733519 
L 79.793481 75.651084 
L 79.513705 76.960812 
L 79.378613 78.584738 
L 79.685041 79.545287 
L 79.465292 79.406333 
L 78.356751 78.722583 
L 77.606307 78.476571 
L 77.097152 78.515719 
L 76.19018 78.951137 
L 72.440272 79.317402 
L 71.513994 79.667021 
L 71.153536 79.961297 
L 71.050142 80.28 
L 71.215247 80.596548 
L 71.628808 80.88495 
L 72.602584 81.222668 
L 74.16945 81.467771 
L 76.591492 81.770254 
L 77.210483 82.124352 
L 77.72954 82.065851 
L 78.516277 81.759939 
L 79.610748 81.106457 
L 79.56938 81.294871 
L 79.36192 82.162343 
L 79.478221 83.076136 
L 79.79039 84.938332 
L 80.181492 85.923545 
L 80.723161 86.6175 
L 81.346209 87.011777 
L 81.855001 87.102078 
L 82.203045 86.986455 
L 83.048408 86.497945 
L 83.498509 86.878921 
L 84.859623 88.541859 
L 88.930168 93.60009 
L 92.276505 97.412784 
L 96.550695 101.871941 
L 99.001739 104.242733 
L 101.476269 105.54073 
L 103.71591 106.308215 
L 105.707643 106.611096 
L 107.407271 106.476501 
L 108.13692 106.256998 
L 108.782767 105.944007 
L 109.343925 105.544885 
L 110.220991 104.525737 
L 110.826448 103.2984 
L 111.615401 101.415995 
L 112.012017 100.887013 
L 112.568537 100.456117 
L 113.339998 100.144451 
L 114.366587 99.9599 
L 117.220008 99.921351 
L 125.14151 100.253631 
L 129.424886 100.135823 
L 133.548915 99.6683 
L 137.376196 98.831679 
L 140.837929 97.644707 
L 143.902342 96.142831 
L 146.556456 94.367496 
L 148.796449 92.361299 
L 150.622711 90.166023 
L 152.037317 87.821998 
L 153.042723 85.368065 
L 153.641099 82.841826 
L 153.834003 80.28 
L 153.834003 80.28 
" clip-path="url(#pae420b7be5)" style="fill: none; stroke-dasharray: 2.775,1.2; stroke-dashoffset: 0; stroke: #ff0000; stroke-width: 0.75"/>
   </g>
   <g id="patch_3">
    <path d="M 157.55976 80.28 
C 157.55976 70.131715 155.560769 60.082109 151.677189 50.706316 
C 147.793608 41.330523 142.100964 32.810879 134.925042 25.634958 
C 127.749121 18.459036 119.229477 12.766392 109.853684 8.882811 
C 100.477891 4.999231 90.428285 3.00024 80.28 3.00024 
C 70.131715 3.00024 60.082109 4.999231 50.706316 8.882811 
C 41.330523 12.766392 32.810879 18.459036 25.634958 25.634958 
C 18.459036 32.810879 12.766392 41.330523 8.882811 50.706316 
C 4.999231 60.082109 3.00024 70.131715 3.00024 80.28 
C 3.00024 90.428285 4.999231 100.477891 8.882811 109.853684 
C 12.766392 119.229477 18.459036 127.749121 25.634958 134.925042 
C 32.810879 142.100964 41.330523 147.793608 50.706316 151.677189 
C 60.082109 155.560769 70.131715 157.55976 80.28 157.55976 
C 90.428285 157.55976 100.477891 155.560769 109.853684 151.677189 
C 119.229477 147.793608 127.749121 142.100964 134.925042 134.925042 
C 142.100964 127.749121 147.793608 119.229477 151.677189 109.853684 
C 155.560769 100.477891 157.55976 90.428285 157.55976 80.28 
" style="fill: none; stroke: #000000; stroke-width: 0.8; stroke-linejoin: miter; stroke-linecap: square"/>
   </g>
  </g>
 </g>
 <defs>
  <clipPath id="pae420b7be5">
   <path d="M 157.55976 80.28 
C 157.55976 70.131715 155.560769 60.082109 151.677189 50.706316 
C 147.793608 41.330523 142.100964 32.810879 134.925042 25.634958 
C 127.749121 18.459036 119.229477 12.766392 109.853684 8.882811 
C 100.477891 4.999231 90.428285 3.00024 80.28 3.00024 
C 70.131715 3.00024 60.082109 4.999231 50.706316 8.882811 
C 41.330523 12.766392 32.810879 18.459036 25.634958 25.634958 
C 18.459036 32.810879 12.766392 41.330523 8.882811 50.706316 
C 4.999231 60.082109 3.00024 70.131715 3.00024 80.28 
C 3.00024 90.428285 4.999231 100.477891 8.882811 109.853684 
C 12.766392 119.229477 18.459036 127.749121 25.634958 134.925042 
C 32.810879 142.100964 41.330523 147.793608 50.706316 151.677189 
C 60.082109 155.560769 70.131715 157.55976 80.28 157.55976 
C 90.428285 157.55976 100.477891 155.560769 109.853684 151.677189 
C 119.229477 147.793608 127.749121 142.100964 134.925042 134.925042 
C 142.100964 127.749121 147.793608 119.229477 151.677189 109.853684 
C 155.560769 100.477891 157.55976 90.428285 157.55976 80.28 
M 80.28 80.28 
C 80.28 80.28 80.28 80.28 80.28 80.28 
C 80.28 80.28 80.28 80.28 80.28 80.28 
C 80.28 80.28 80.28 80.28 80.28 80.28 
C 80.28 80.28 80.28 80.28 80.28 80.28 
C 80.28 80.28 80.28 80.28 80.28 80.28 
C 80.28 80.28 80.28 80.28 80.28 80.28 
C 80.28 80.28 80.28 80.28 80.28 80.28 
C 80.28 80.28 80.28 80.28 80.28 80.28 
C 80.28 80.28 80.28 80.28 80.28 80.28 
C 80.28 80.28 80.28 80.28 80.28 80.28 
C 80.28 80.28 80.28 80.28 80.28 80.28 
C 80.28 80.28 80.28 80.28 80.28 80.28 
C 80.28 80.28 80.28 80.28 80.28 80.28 
C 80.28 80.28 80.28 80.28 80.28 80.28 
C 80.28 80.28 80.28 80.28 80.28 80.28 
C 80.28 80.28 80.28 80.28 80.28 80.28 
M 157.55976 80.28 
z
"/>
  </clipPath>
 </defs>
</svg>
