<?xml version="1.0" encoding="utf-8" standalone="no"?>
<!DOCTYPE svg PUBLIC "-//W3C//DTD SVG 1.1//EN"
  "http://www.w3.org/Graphics/SVG/1.1/DTD/svg11.dtd">
<svg xmlns:xlink="http://www.w3.org/1999/xlink" width="160.56pt" height="160.56pt" viewBox="0 0 160.56 160.56" xmlns="http://www.w3.org/2000/svg" version="1.1">
 <metadata>
  <rdf:RDF xmlns:dc="http://purl.org/dc/elements/1.1/" xmlns:cc="http://creativecommons.org/ns#" xmlns:rdf="http://www.w3.org/1999/02/22-rdf-syntax-ns#">
   <cc:Work>
    <dc:type rdf:resource="http://purl.org/dc/dcmitype/StillImage"/>
    <dc:date>2025-09-28T15:43:37.139524</dc:date>
    <dc:format>image/svg+xml</dc:format>
    <dc:creator>
     <cc:Agent>
      <dc:title>Matplotlib v3.6.3, https://matplotlib.org/</dc:title>
     </cc:Agent>
    </dc:creator>
   </cc:Work>
  </rdf:RDF>
 </metadata>
 <defs>
  <style type="text/css">*{stroke-linejoin: round; stroke-linecap: butt}</style>
 </defs>
 <g id="figure_1">
  <g id="patch_1">
   <path d="M 0 160.56 
L 160.56 160.56 
L 160.56 0 
L 0 0 
z
" style="fill: #ffffff"/>
  </g>
  <g id="axes_1">
   <g id="patch_2">
    <path d="M 157.55976 80.28 
C 157.55976 70.131715 155.560769 60.082109 151.677189 50.706316 
C 147.793608 41.330523 142.100964 32.810879 134.925042 25.634958 
C 127.749121 18.459036 119.229477 12.766392 109.853684 8.882811 
C 100.477891 4.999231 90.428285 3.00024 80.28 3.00024 
C 70.131715 3.00024 60.082109 4.999231 50.706316 8.882811 
C 41.330523 12.766392 32.810879 18.459036 25.634958 25.634958 
C 18.459036 32.810879 12.766392 41.330523 8.882811 50.706316 
C 4.999231 60.082109 3.00024 70.131715 3.00024 80.28 
C 3.00024 90.428285 4.999231 100.477891 8.882811 109.853684 
C 12.766392 119.229477 18.459036 127.749121 25.634958 134.925042 
C 32.810879 142.100964 41.330523 147.793608 50.706316 151.677189 
C 60.082109 155.560769 70.131715 157.55976 80.28 157.55976 
C 90.428285 157.55976 100.477891 155.560769 109.853684 151.677189 
C 119.229477 147.793608 127.749121 142.100964 134.925042 134.925042 
C 142.100964 127.749121 147.793608 119.229477 151.677189 109.853684 
C 155.560769 100.477891 157.55976 90.428285 157.55976 80.28 
M 80.28 80.28 
C 80.28 80.28 80.28 80.28 80.28 80.28 
C 80.28 80.28 80.28 80.28 80.28 80.28 
C 80.28 80.28 80.28 80.28 80.28 80.28 
C 80.28 80.28 80.28 80.28 80.28 80.28 
C 80.28 80.28 80.28 80.28 80.28 80.28 
C 80.28 80.28 80.28 80.28 80.28 80.28 
C 80.28 80.28 80.28 80.28 80.28 80.28 
C 80.28 80.28 80.28 80.28 80.28 80.28 
C 80.28 80.28 80.28 80.28 80.28 80.28 
C 80.28 80.28 80.28 80.28 80.28 80.28 
C 80.28 80.28 80.28 80.28 80.28 80.28 
C 80.28 80.28 80.28 80.28 80.28 80.28 
C 80.28 80.28 80.28 80.28 80.28 80.28 
C 80.28 80.28 80.28 80.28 80.28 80.28 
C 80.28 80.28 80.28 80.28 80.28 80.28 
C 80.28 80.28 80.28 80.28 80.28 80.28 
M 157.55976 80.28 
z
" style="fill: #ffffff"/>
   </g>
   <g id="matplotlib.axis_1">
    <g id="xtick_1">
     <g id="line2d_1">
      <path d="M 80.28 80.28 
L 134.925042 25.634958 
" clip-path="url(#pe2578c748c)" style="fill: none; stroke: #b0b0b0; stroke-width: 0.8; stroke-linecap: square"/>
     </g>
     <g id="text_1">
      <!-- $\pi/4$ -->
      <g transform="translate(136.824995 18.226123) scale(0.1 -0.1)">
       <defs>
        <path id="CMMI12-19" d="M 1658 2406 
L 2381 2406 
C 2208 1691 2099 1225 2099 715 
C 2099 625 2099 -64 2362 -64 
C 2496 -64 2611 57 2611 166 
C 2611 198 2611 210 2566 306 
C 2394 746 2394 1295 2394 1340 
C 2394 1378 2394 1832 2528 2406 
L 3245 2406 
C 3328 2406 3539 2406 3539 2611 
C 3539 2752 3418 2752 3302 2752 
L 1197 2752 
C 1050 2752 832 2752 538 2438 
C 371 2253 166 1915 166 1876 
C 166 1838 198 1825 237 1825 
C 282 1825 288 1844 320 1883 
C 653 2406 986 2406 1146 2406 
L 1510 2406 
C 1370 1927 1210 1372 685 255 
C 634 153 634 140 634 102 
C 634 -32 749 -64 806 -64 
C 992 -64 1043 102 1120 370 
C 1222 695 1222 708 1286 964 
L 1658 2406 
z
" transform="scale(0.015625)"/>
        <path id="CMMI12-3d" d="M 2746 4563 
C 2746 4569 2784 4665 2784 4678 
C 2784 4755 2720 4800 2669 4800 
C 2637 4800 2579 4800 2528 4659 
L 384 -1364 
C 384 -1370 346 -1466 346 -1479 
C 346 -1556 410 -1600 461 -1600 
C 499 -1600 557 -1594 602 -1460 
L 2746 4563 
z
" transform="scale(0.015625)"/>
        <path id="CMR17-34" d="M 2150 4147 
C 2150 4281 2144 4288 2029 4288 
L 128 1254 
L 128 1088 
L 1779 1088 
L 1779 460 
C 1779 230 1766 166 1318 166 
L 1197 166 
L 1197 0 
C 1402 12 1747 12 1965 12 
C 2182 12 2528 12 2733 0 
L 2733 166 
L 2611 166 
C 2163 166 2150 230 2150 460 
L 2150 1088 
L 2803 1088 
L 2803 1254 
L 2150 1254 
L 2150 4147 
z
M 1798 3723 
L 1798 1254 
L 256 1254 
L 1798 3723 
z
" transform="scale(0.015625)"/>
       </defs>
       <use xlink:href="#CMMI12-19" transform="scale(0.996264)"/>
       <use xlink:href="#CMMI12-3d" transform="translate(58.910601 0) scale(0.996264)"/>
       <use xlink:href="#CMR17-34" transform="translate(107.68552 0) scale(0.996264)"/>
      </g>
     </g>
    </g>
    <g id="xtick_2">
     <g id="line2d_2">
      <path d="M 80.28 80.28 
L 25.634958 25.634958 
" clip-path="url(#pe2578c748c)" style="fill: none; stroke: #b0b0b0; stroke-width: 0.8; stroke-linecap: square"/>
     </g>
     <g id="text_2">
      <!-- $3\pi/4$ -->
      <g transform="translate(5.245252 18.226123) scale(0.1 -0.1)">
       <defs>
        <path id="CMR17-33" d="M 1414 2176 
C 1984 2176 2234 1673 2234 1094 
C 2234 322 1824 25 1453 25 
C 1114 25 563 193 390 691 
C 422 678 454 678 486 678 
C 640 678 755 780 755 947 
C 755 1132 614 1216 486 1216 
C 378 1216 211 1164 211 927 
C 211 335 787 -128 1466 -128 
C 2176 -128 2720 432 2720 1087 
C 2720 1718 2208 2176 1600 2246 
C 2086 2347 2554 2776 2554 3353 
C 2554 3856 2048 4224 1472 4224 
C 890 4224 378 3862 378 3347 
C 378 3123 544 3084 627 3084 
C 762 3084 877 3167 877 3334 
C 877 3500 762 3584 627 3584 
C 602 3584 570 3584 544 3571 
C 730 3999 1235 4076 1459 4076 
C 1683 4076 2106 3966 2106 3347 
C 2106 3167 2080 2851 1862 2574 
C 1670 2329 1453 2316 1242 2297 
C 1210 2297 1062 2284 1037 2284 
C 992 2278 966 2272 966 2227 
C 966 2182 973 2176 1101 2176 
L 1414 2176 
z
" transform="scale(0.015625)"/>
       </defs>
       <use xlink:href="#CMR17-33" transform="scale(0.996264)"/>
       <use xlink:href="#CMMI12-19" transform="translate(45.690477 0) scale(0.996264)"/>
       <use xlink:href="#CMMI12-3d" transform="translate(104.601078 0) scale(0.996264)"/>
       <use xlink:href="#CMR17-34" transform="translate(153.375997 0) scale(0.996264)"/>
      </g>
     </g>
    </g>
    <g id="xtick_3">
     <g id="line2d_3">
      <path d="M 80.28 80.28 
L 25.634958 134.925042 
" clip-path="url(#pe2578c748c)" style="fill: none; stroke: #b0b0b0; stroke-width: 0.8; stroke-linecap: square"/>
     </g>
     <g id="text_3">
      <!-- $5\pi/4$ -->
      <g transform="translate(5.245252 147.315197) scale(0.1 -0.1)">
       <defs>
        <path id="CMR17-35" d="M 730 3750 
C 794 3724 1056 3641 1325 3641 
C 1920 3641 2246 3961 2432 4140 
C 2432 4191 2432 4224 2394 4224 
C 2387 4224 2374 4224 2323 4198 
C 2099 4102 1837 4032 1517 4032 
C 1325 4032 1037 4055 723 4191 
C 653 4224 640 4224 634 4224 
C 602 4224 595 4217 595 4090 
L 595 2231 
C 595 2113 595 2080 659 2080 
C 691 2080 704 2093 736 2139 
C 941 2435 1222 2560 1542 2560 
C 1766 2560 2246 2415 2246 1293 
C 2246 1087 2246 716 2054 422 
C 1894 159 1645 25 1370 25 
C 947 25 518 319 403 812 
C 429 806 480 793 506 793 
C 589 793 749 838 749 1036 
C 749 1209 627 1280 506 1280 
C 358 1280 262 1190 262 1011 
C 262 454 704 -128 1382 -128 
C 2042 -128 2669 441 2669 1267 
C 2669 2054 2170 2662 1549 2662 
C 1222 2662 947 2540 730 2304 
L 730 3750 
z
" transform="scale(0.015625)"/>
       </defs>
       <use xlink:href="#CMR17-35" transform="scale(0.996264)"/>
       <use xlink:href="#CMMI12-19" transform="translate(45.690477 0) scale(0.996264)"/>
       <use xlink:href="#CMMI12-3d" transform="translate(104.601078 0) scale(0.996264)"/>
       <use xlink:href="#CMR17-34" transform="translate(153.375997 0) scale(0.996264)"/>
      </g>
     </g>
    </g>
    <g id="xtick_4">
     <g id="line2d_4">
      <path d="M 80.28 80.28 
L 134.925042 134.925042 
" clip-path="url(#pe2578c748c)" style="fill: none; stroke: #b0b0b0; stroke-width: 0.8; stroke-linecap: square"/>
     </g>
     <g id="text_4">
      <!-- $7\pi/4$ -->
      <g transform="translate(134.334327 147.315197) scale(0.1 -0.1)">
       <defs>
        <path id="CMR17-37" d="M 2886 3955 
L 2886 4096 
L 1382 4096 
C 634 4096 621 4166 595 4288 
L 480 4288 
L 294 3104 
L 410 3104 
C 429 3226 474 3552 550 3673 
C 589 3724 1062 3724 1171 3724 
L 2579 3724 
L 1869 2670 
C 1395 1961 1069 1003 1069 166 
C 1069 89 1069 -128 1299 -128 
C 1530 -128 1530 89 1530 172 
L 1530 466 
C 1530 1514 1709 2204 2003 2644 
L 2886 3955 
z
" transform="scale(0.015625)"/>
       </defs>
       <use xlink:href="#CMR17-37" transform="scale(0.996264)"/>
       <use xlink:href="#CMMI12-19" transform="translate(45.690477 0) scale(0.996264)"/>
       <use xlink:href="#CMMI12-3d" transform="translate(104.601078 0) scale(0.996264)"/>
       <use xlink:href="#CMR17-34" transform="translate(153.375997 0) scale(0.996264)"/>
      </g>
     </g>
    </g>
   </g>
   <g id="matplotlib.axis_2">
    <g id="ytick_1">
     <g id="line2d_5">
      <path d="M 92.525333 80.28 
C 92.525333 78.671958 92.208583 77.079551 91.593212 75.593914 
C 90.977841 74.108277 90.075815 72.7583 88.938758 71.621242 
C 87.8017 70.484185 86.451723 69.582159 84.966086 68.966788 
C 83.480449 68.351417 81.888042 68.034667 80.28 68.034667 
C 78.671958 68.034667 77.079551 68.351417 75.593914 68.966788 
C 74.108277 69.582159 72.7583 70.484185 71.621242 71.621242 
C 70.484185 72.7583 69.582159 74.108277 68.966788 75.593914 
C 68.351417 77.079551 68.034667 78.671958 68.034667 80.28 
C 68.034667 81.888042 68.351417 83.480449 68.966788 84.966086 
C 69.582159 86.451723 70.484185 87.8017 71.621242 88.938758 
C 72.7583 90.075815 74.108277 90.977841 75.593914 91.593212 
C 77.079551 92.208583 78.671958 92.525333 80.28 92.525333 
C 81.888042 92.525333 83.480449 92.208583 84.966086 91.593212 
C 86.451723 90.977841 87.8017 90.075815 88.938758 88.938758 
C 90.075815 87.8017 90.977841 86.451723 91.593212 84.966086 
C 92.208583 83.480449 92.525333 81.888042 92.525333 80.28 
" clip-path="url(#pe2578c748c)" style="fill: none; stroke: #b0b0b0; stroke-width: 0.8; stroke-linecap: square"/>
     </g>
     <g id="text_5">
      <!-- $\mathdefault{10^{0}}$ -->
      <g transform="translate(73.256366 88.373611) scale(0.1 -0.1)">
       <defs>
        <path id="CMR17-31" d="M 1702 4083 
C 1702 4217 1696 4224 1606 4224 
C 1357 3927 979 3833 621 3820 
C 602 3820 570 3820 563 3808 
C 557 3795 557 3782 557 3648 
C 755 3648 1088 3686 1344 3839 
L 1344 467 
C 1344 243 1331 166 781 166 
L 589 166 
L 589 0 
C 896 6 1216 12 1523 12 
C 1830 12 2150 6 2458 0 
L 2458 166 
L 2266 166 
C 1715 166 1702 236 1702 467 
L 1702 4083 
z
" transform="scale(0.015625)"/>
        <path id="CMR17-30" d="M 2688 2038 
C 2688 2430 2682 3099 2413 3613 
C 2176 4063 1798 4224 1466 4224 
C 1158 4224 768 4082 525 3620 
C 269 3137 243 2539 243 2038 
C 243 1671 250 1112 448 623 
C 723 -39 1216 -128 1466 -128 
C 1760 -128 2208 -7 2470 604 
C 2662 1048 2688 1568 2688 2038 
z
M 1466 -26 
C 1056 -26 813 328 723 816 
C 653 1196 653 1749 653 2109 
C 653 2604 653 3015 736 3407 
C 858 3954 1216 4121 1466 4121 
C 1728 4121 2067 3947 2189 3420 
C 2272 3054 2278 2623 2278 2109 
C 2278 1691 2278 1176 2202 797 
C 2067 96 1690 -26 1466 -26 
z
" transform="scale(0.015625)"/>
       </defs>
       <use xlink:href="#CMR17-31" transform="scale(0.996264)"/>
       <use xlink:href="#CMR17-30" transform="translate(45.690477 0) scale(0.996264)"/>
       <use xlink:href="#CMR17-30" transform="translate(91.380954 36.153639) scale(0.697382)"/>
      </g>
     </g>
    </g>
    <g id="ytick_2">
     <g id="line2d_6">
      <path d="M 120.177082 80.28 
C 120.177082 75.040763 119.145067 69.852471 117.140097 65.012048 
C 115.135128 60.171624 112.196197 55.773203 108.491497 52.068503 
C 104.786797 48.363803 100.388376 45.424872 95.547952 43.419903 
C 90.707529 41.414933 85.519237 40.382918 80.28 40.382918 
C 75.040763 40.382918 69.852471 41.414933 65.012048 43.419903 
C 60.171624 45.424872 55.773203 48.363803 52.068503 52.068503 
C 48.363803 55.773203 45.424872 60.171624 43.419903 65.012048 
C 41.414933 69.852471 40.382918 75.040763 40.382918 80.28 
C 40.382918 85.519237 41.414933 90.707529 43.419903 95.547952 
C 45.424872 100.388376 48.363803 104.786797 52.068503 108.491497 
C 55.773203 112.196197 60.171624 115.135128 65.012048 117.140097 
C 69.852471 119.145067 75.040763 120.177082 80.28 120.177082 
C 85.519237 120.177082 90.707529 119.145067 95.547952 117.140097 
C 100.388376 115.135128 104.786797 112.196197 108.491497 108.491497 
C 112.196197 104.786797 115.135128 100.388376 117.140097 95.547952 
C 119.145067 90.707529 120.177082 85.519237 120.177082 80.28 
" clip-path="url(#pe2578c748c)" style="fill: none; stroke: #b0b0b0; stroke-width: 0.8; stroke-linecap: square"/>
     </g>
     <g id="text_6">
      <!-- $\mathdefault{10^{1}}$ -->
      <g transform="translate(57.395974 111.024598) scale(0.1 -0.1)">
       <use xlink:href="#CMR17-31" transform="scale(0.996264)"/>
       <use xlink:href="#CMR17-30" transform="translate(45.690477 0) scale(0.996264)"/>
       <use xlink:href="#CMR17-31" transform="translate(91.380954 36.153639) scale(0.697382)"/>
      </g>
     </g>
    </g>
    <g id="ytick_3">
     <g id="line2d_7">
      <path d="M 142.218681 80.28 
C 142.218681 72.146287 140.616517 64.091664 137.50388 56.577093 
C 134.391242 49.062522 129.828665 42.234142 124.077261 36.482739 
C 118.325858 30.731335 111.497478 26.168758 103.982907 23.05612 
C 96.468336 19.943483 88.413713 18.341319 80.28 18.341319 
C 72.146287 18.341319 64.091664 19.943483 56.577093 23.05612 
C 49.062522 26.168758 42.234142 30.731335 36.482739 36.482739 
C 30.731335 42.234142 26.168758 49.062522 23.05612 56.577093 
C 19.943483 64.091664 18.341319 72.146287 18.341319 80.28 
C 18.341319 88.413713 19.943483 96.468336 23.05612 103.982907 
C 26.168758 111.497478 30.731335 118.325858 36.482739 124.077261 
C 42.234142 129.828665 49.062522 134.391242 56.577093 137.50388 
C 64.091664 140.616517 72.146287 142.218681 80.28 142.218681 
C 88.413713 142.218681 96.468336 140.616517 103.982907 137.50388 
C 111.497478 134.391242 118.325858 129.828665 124.077261 124.077261 
C 129.828665 118.325858 134.391242 111.497478 137.50388 103.982907 
C 140.616517 96.468336 142.218681 88.413713 142.218681 80.28 
" clip-path="url(#pe2578c748c)" style="fill: none; stroke: #b0b0b0; stroke-width: 0.8; stroke-linecap: square"/>
     </g>
     <g id="text_7">
      <!-- $\mathdefault{10^{2}}$ -->
      <g transform="translate(44.753432 129.080019) scale(0.1 -0.1)">
       <defs>
        <path id="CMR17-32" d="M 2669 990 
L 2554 990 
C 2490 537 2438 460 2413 422 
C 2381 371 1920 371 1830 371 
L 602 371 
C 832 620 1280 1073 1824 1596 
C 2214 1966 2669 2400 2669 3033 
C 2669 3788 2067 4224 1395 4224 
C 691 4224 262 3603 262 3027 
C 262 2777 448 2745 525 2745 
C 589 2745 781 2783 781 3007 
C 781 3206 614 3264 525 3264 
C 486 3264 448 3257 422 3244 
C 544 3788 915 4057 1306 4057 
C 1862 4057 2227 3616 2227 3033 
C 2227 2477 1901 1998 1536 1583 
L 262 147 
L 262 0 
L 2515 0 
L 2669 990 
z
" transform="scale(0.015625)"/>
       </defs>
       <use xlink:href="#CMR17-31" transform="scale(0.996264)"/>
       <use xlink:href="#CMR17-30" transform="translate(45.690477 0) scale(0.996264)"/>
       <use xlink:href="#CMR17-32" transform="translate(91.380954 36.153639) scale(0.697382)"/>
      </g>
     </g>
    </g>
    <g id="ytick_4"/>
   </g>
   <g id="line2d_8">
    <path d="M 153.471272 80.28 
L 153.339019 79.00475 
L 152.941867 77.742592 
L 152.278614 76.506713 
L 151.347177 75.310499 
L 150.144443 74.167653 
L 148.666026 73.092339 
L 146.905844 72.099375 
L 144.85543 71.204515 
L 142.502778 70.42488 
L 139.830407 69.779657 
L 136.81209 69.291275 
L 133.407248 68.987455 
L 129.551116 68.904867 
L 125.136985 69.095898 
L 119.98286 69.641651 
L 113.76821 70.67741 
L 105.943838 72.433777 
L 86.220621 78.23448 
L 92.970847 75.660909 
L 104.662857 70.920298 
L 109.255717 68.57305 
L 112.35572 66.664665 
L 114.41122 65.083802 
L 115.672145 63.776372 
L 116.277945 62.722629 
L 116.305511 61.924085 
L 115.79277 61.397525 
L 114.74981 61.173072 
L 113.163274 61.294833 
L 110.997298 61.823185 
L 108.195654 62.836363 
L 104.701659 64.420389 
L 100.541223 66.613633 
L 89.568354 73.531616 
L 91.459523 71.855625 
L 96.8664 67.321284 
L 100.989725 63.509596 
L 102.7664 61.41167 
L 103.782942 59.849204 
L 104.130844 58.804603 
L 103.889179 58.264084 
L 103.112064 58.231332 
L 101.830599 58.729401 
L 100.057557 59.799741 
L 97.796654 61.495688 
L 93.052779 66.094392 
L 84.373999 75.224332 
L 84.777861 74.523001 
L 87.914815 69.771579 
L 89.533904 67.064055 
L 90.625297 64.942467 
L 90.99209 63.784827 
L 90.622549 63.728462 
L 89.650183 64.685397 
L 88.292718 66.401566 
L 85.339344 70.764759 
L 82.374639 75.788032 
L 81.313863 77.586696 
L 81.404466 77.014312 
L 82.002817 73.850358 
L 81.942621 73.078398 
L 81.739391 73.414106 
L 81.108642 75.580539 
L 80.520396 78.569493 
L 80.286902 80.214331 
L 80.361623 79.11274 
L 80.431548 75.940238 
L 80.28 73.045061 
L 80.142998 72.431164 
L 80.01005 72.549637 
L 79.916168 73.337681 
L 79.9057 76.001732 
L 79.999732 78.285786 
L 79.901935 77.892994 
L 79.118202 74.81417 
L 78.647031 73.730517 
L 78.588206 73.966137 
L 78.867669 75.660473 
L 79.533445 78.335157 
L 79.422624 78.15792 
L 78.71529 77.071869 
L 79.052957 77.972267 
L 80.234256 80.206795 
L 79.586164 79.325017 
L 79.462579 79.195245 
L 79.680334 79.539474 
L 80.109019 80.083309 
L 79.633938 79.587183 
L 77.536755 77.536755 
L 74.618392 75.000465 
L 73.495373 74.171095 
L 72.963731 73.920064 
L 73.186728 74.328038 
L 74.16343 75.326899 
L 77.444298 78.143146 
L 79.651632 79.840012 
L 79.270787 79.599278 
L 74.766718 76.834919 
L 71.111286 74.770881 
L 67.22339 72.741763 
L 63.779963 71.13388 
L 61.407532 70.245331 
L 60.534219 70.219022 
L 61.275753 71.011009 
L 63.384923 72.401696 
L 69.158468 75.55919 
L 71.154337 76.592993 
L 71.541209 76.925492 
L 66.243204 75.446743 
L 61.025911 74.023967 
L 56.19185 72.915513 
L 54.265763 72.820537 
L 52.995697 72.969193 
L 52.390849 73.326454 
L 52.452983 73.855627 
L 53.182013 74.520145 
L 54.558897 75.280324 
L 56.986913 76.1728 
L 64.988147 78.13087 
L 65.474893 78.462161 
L 62.989524 78.462698 
L 57.803772 78.313585 
L 54.043239 78.445347 
L 51.825932 78.788786 
L 50.201152 79.229623 
L 49.2212 79.737867 
L 48.894574 80.28 
L 49.2212 80.822133 
L 50.201152 81.330377 
L 51.825932 81.771214 
L 54.043239 82.114653 
L 57.803772 82.246415 
L 65.474893 82.097839 
L 64.988147 82.42913 
L 56.986913 84.3872 
L 54.558897 85.279676 
L 53.182013 86.039855 
L 52.452983 86.704373 
L 52.390849 87.233546 
L 52.995697 87.590807 
L 54.265763 87.739463 
L 56.19185 87.644487 
L 61.025911 86.536033 
L 71.541209 83.634508 
L 71.154337 83.967007 
L 66.281054 86.512732 
L 63.384923 88.158304 
L 61.275753 89.548991 
L 60.534219 90.340978 
L 61.407532 90.314669 
L 63.779963 89.42612 
L 67.22339 87.818237 
L 71.111286 85.789119 
L 77.609554 82.014208 
L 79.651632 80.719988 
L 78.919056 81.268784 
L 75.703111 83.855858 
L 73.186728 86.231962 
L 72.963731 86.639936 
L 73.495373 86.388905 
L 74.618392 85.559535 
L 77.536755 83.023245 
L 80.109019 80.476691 
L 79.497384 81.281703 
L 79.462579 81.364755 
L 79.586164 81.234983 
L 80.234256 80.353205 
L 79.773397 81.157461 
L 78.806939 83.171045 
L 78.71529 83.488131 
L 78.783772 83.488671 
L 79.533445 82.224843 
L 79.510141 82.395169 
L 78.67076 85.892087 
L 78.647031 86.829483 
L 78.83762 86.527634 
L 79.427981 84.663257 
L 79.999732 82.274214 
L 80.00831 82.49274 
L 79.882024 85.971321 
L 80.01005 88.010363 
L 80.142998 88.128836 
L 80.28 87.514939 
L 80.431548 84.619762 
L 80.286902 80.345669 
L 80.520396 81.990507 
L 81.108642 84.979461 
L 81.739391 87.145894 
L 81.942621 87.481602 
L 82.030186 87.299614 
L 81.885265 85.878224 
L 81.313863 82.973304 
L 81.390213 83.027874 
L 82.374639 84.771968 
L 84.087362 87.752369 
L 86.787633 92.020081 
L 88.292718 94.158434 
L 89.650183 95.874603 
L 90.622549 96.831538 
L 90.99209 96.775173 
L 90.625297 95.617533 
L 89.533904 93.495945 
L 87.914815 90.788421 
L 84.373999 85.335668 
L 88.349595 89.563007 
L 93.052779 94.465608 
L 97.796654 99.064312 
L 100.057557 100.760259 
L 101.830599 101.830599 
L 103.112064 102.328668 
L 103.889179 102.295916 
L 104.130844 101.755397 
L 103.782942 100.710796 
L 102.7664 99.14833 
L 100.989725 97.050404 
L 96.8664 93.238716 
L 89.568354 87.028384 
L 92.421092 88.781284 
L 100.541223 93.946367 
L 104.701659 96.139611 
L 108.195654 97.723637 
L 110.997298 98.736815 
L 113.163274 99.265167 
L 114.74981 99.386928 
L 115.79277 99.162475 
L 116.305511 98.635915 
L 116.277945 97.837371 
L 115.672145 96.783628 
L 114.41122 95.476198 
L 112.35572 93.895335 
L 109.255717 91.98695 
L 104.662857 89.639702 
L 92.970847 84.899091 
L 86.220621 82.32552 
L 105.943838 88.126223 
L 113.76821 89.88259 
L 119.98286 90.918349 
L 125.136985 91.464102 
L 129.551116 91.655133 
L 133.407248 91.572545 
L 136.81209 91.268725 
L 139.830407 90.780343 
L 142.502778 90.13512 
L 144.85543 89.355485 
L 146.905844 88.460625 
L 148.666026 87.467661 
L 150.144443 86.392347 
L 151.347177 85.249501 
L 152.278614 84.053287 
L 152.941867 82.817408 
L 153.339019 81.55525 
L 153.471272 80.28 
L 153.471272 80.28 
" clip-path="url(#pe2578c748c)" style="fill: none; stroke: #000000; stroke-width: 0.75; stroke-linecap: square"/>
   </g>
   <g id="line2d_9">
    <path d="M 153.879851 80.28 
L 153.734086 78.997854 
L 153.316584 77.729506 
L 152.626196 76.488497 
L 151.660464 75.288592 
L 150.415482 74.14394 
L 148.885668 73.069254 
L 147.063385 72.080031 
L 144.938306 71.192868 
L 142.496377 70.425894 
L 139.71808 69.799463 
L 136.575511 69.337261 
L 133.027363 69.068202 
L 129.010159 69.029756 
L 124.422623 69.274008 
L 119.097673 69.878836 
L 112.75672 70.967451 
L 104.994453 72.724033 
L 86.917422 77.994552 
L 92.513094 75.827518 
L 103.468058 71.378939 
L 107.655503 69.219579 
L 110.544393 67.433527 
L 112.492154 65.938225 
L 113.713141 64.68987 
L 114.329832 63.672787 
L 114.410097 62.889847 
L 113.987672 62.357313 
L 113.072863 62.102619 
L 111.658188 62.163795 
L 109.722631 62.589083 
L 107.240593 63.433152 
L 104.212967 64.737749 
L 100.774414 66.456343 
L 91.496035 72.131074 
L 92.603606 70.993497 
L 96.692823 67.456897 
L 100.466143 63.933584 
L 102.068924 61.996922 
L 103.059475 60.478104 
L 103.468463 59.401014 
L 103.350597 58.766321 
L 102.755053 58.576094 
L 101.720534 58.839466 
L 100.278206 59.571251 
L 98.460268 60.784049 
L 95.800998 63.042186 
L 88.065522 71.001577 
L 85.623958 73.440046 
L 85.958941 72.743791 
L 87.920567 69.36814 
L 88.875043 67.537325 
L 89.512269 66.063552 
L 89.736541 65.14637 
L 89.537792 64.872447 
L 88.964306 65.23834 
L 88.09628 66.179058 
L 87.026409 67.59185 
L 84.655679 71.308529 
L 82.560341 75.158271 
L 81.089135 78.172131 
L 81.131041 77.941783 
L 82.17559 74.079803 
L 82.733258 71.124318 
L 82.748338 70.380039 
L 82.562064 70.395293 
L 82.205752 71.22005 
L 81.255638 74.746881 
L 80.50397 78.686372 
L 80.28359 80.245843 
L 80.333129 79.672736 
L 80.483621 76.394681 
L 80.414239 72.589427 
L 80.28 71.429845 
L 80.119447 71.08191 
L 79.976016 71.57504 
L 79.868 74.388126 
L 80.087216 78.908273 
L 79.850235 77.84268 
L 79.281421 75.582056 
L 78.713372 73.996598 
L 78.567521 73.888943 
L 78.565608 74.301204 
L 78.98777 76.302924 
L 80.054298 79.721367 
L 79.620537 78.865778 
L 79.264566 78.287099 
L 79.411081 78.712429 
L 80.276498 80.274809 
L 80.101922 80.075145 
L 78.55942 78.498287 
L 76.55008 76.801793 
L 76.280964 76.679252 
L 76.358709 76.871273 
L 77.556653 78.074677 
L 80.241341 80.252931 
L 79.689187 79.881492 
L 76.342541 77.819602 
L 71.439247 75.175789 
L 69.400486 74.249387 
L 68.179125 73.845851 
L 68.001129 74.023603 
L 68.848097 74.704288 
L 72.239789 76.700267 
L 73.929605 77.714274 
L 69.590976 76.389513 
L 64.799595 74.949669 
L 58.724504 73.276195 
L 55.157983 72.599429 
L 53.205957 72.516643 
L 51.827678 72.656223 
L 51.003648 72.980586 
L 50.717354 73.454925 
L 50.956704 74.047141 
L 51.709535 74.726464 
L 52.95255 75.461433 
L 54.628991 76.217279 
L 57.467865 77.073964 
L 66.218502 79.049778 
L 66.17219 79.293486 
L 62.902302 79.976671 
L 62.580067 80.28 
L 63.086217 80.580119 
L 65.629441 81.047803 
L 66.62988 81.234509 
L 66.644791 81.472926 
L 65.216095 81.86328 
L 57.629755 83.463284 
L 54.653531 84.338834 
L 52.950969 85.098846 
L 51.69085 85.837168 
L 50.924981 86.519602 
L 50.674443 87.114981 
L 50.95117 87.592499 
L 51.768445 87.919648 
L 53.145038 88.060825 
L 55.103425 87.977252 
L 58.635979 87.312569 
L 64.78326 85.615956 
L 73.840921 82.881557 
L 73.408373 83.196833 
L 70.006833 85.070457 
L 68.401794 86.073388 
L 67.60859 86.736406 
L 67.894896 86.865276 
L 69.24255 86.398159 
L 71.387089 85.414324 
L 76.362613 82.727855 
L 80.227721 80.316606 
L 79.524917 80.848996 
L 77.82442 82.26849 
L 76.69487 83.396506 
L 76.599143 83.594259 
L 76.826046 83.500864 
L 77.974392 82.585608 
L 80.13111 80.451278 
L 80.279069 80.281381 
L 80.128761 80.522033 
L 79.328336 82.069819 
L 79.331789 82.140969 
L 79.669975 81.588203 
L 80.066466 80.808514 
L 79.946895 81.147768 
L 79.024942 84.14267 
L 78.581731 86.202568 
L 78.567753 86.670192 
L 78.701508 86.610984 
L 79.268562 85.03844 
L 80.101763 81.548221 
L 80.079124 81.916004 
L 79.912355 84.482207 
L 79.879072 87.930171 
L 80.116756 89.632236 
L 80.28 89.253297 
L 80.415605 88.048795 
L 80.483167 84.156651 
L 80.282731 80.30598 
L 80.333157 80.712926 
L 80.860616 83.945867 
L 81.830781 88.258075 
L 82.679941 90.675287 
L 82.861011 90.631868 
L 82.825774 89.780959 
L 82.208045 86.586351 
L 81.161277 82.575805 
L 81.422359 83.107439 
L 82.722445 85.76582 
L 84.776181 89.498538 
L 87.071633 93.053204 
L 88.12204 94.427414 
L 88.992409 95.370335 
L 89.589417 95.773472 
L 89.826945 95.558306 
L 89.647783 94.705122 
L 89.052344 93.285535 
L 87.067655 89.622405 
L 85.819229 87.369889 
L 86.404412 87.843019 
L 96.141734 97.89624 
L 98.607482 99.933818 
L 100.429843 101.145773 
L 101.868026 101.868026 
L 102.886973 102.1113 
L 103.453784 101.889903 
L 103.528544 101.213083 
L 103.060713 100.082971 
L 101.993092 98.499447 
L 100.290236 96.48397 
L 96.044493 92.596572 
L 91.910539 89.04424 
L 90.795835 87.920201 
L 93.511814 89.545016 
L 100.311201 93.791216 
L 104.003851 95.686449 
L 107.102257 97.040406 
L 109.651664 97.928276 
L 111.657647 98.395893 
L 113.146257 98.498063 
L 114.135352 98.28121 
L 114.627178 97.780761 
L 114.605207 97.021522 
L 114.029471 96.017637 
L 112.826758 94.77075 
L 110.870814 93.26503 
L 107.944655 91.457246 
L 103.684252 89.26405 
L 92.607663 84.766902 
L 86.723627 82.498719 
L 104.714582 87.750401 
L 112.528426 89.527087 
L 118.899768 90.628136 
L 124.255847 91.24441 
L 128.879974 91.500188 
L 132.937591 91.472716 
L 136.526484 91.213209 
L 139.706693 90.758529 
L 142.51689 90.137355 
L 144.98334 89.373461 
L 147.124837 88.487514 
L 148.955447 87.49808 
L 150.48605 86.422233 
L 151.725203 85.275935 
L 152.679641 84.074304 
L 153.354559 82.83182 
L 153.75378 81.56249 
L 153.879851 80.28 
L 153.879851 80.28 
" clip-path="url(#pe2578c748c)" style="fill: none; stroke-dasharray: 2.775,1.2; stroke-dashoffset: 0; stroke: #ff0000; stroke-width: 0.75"/>
   </g>
   <g id="patch_3">
    <path d="M 157.55976 80.28 
C 157.55976 70.131715 155.560769 60.082109 151.677189 50.706316 
C 147.793608 41.330523 142.100964 32.810879 134.925042 25.634958 
C 127.749121 18.459036 119.229477 12.766392 109.853684 8.882811 
C 100.477891 4.999231 90.428285 3.00024 80.28 3.00024 
C 70.131715 3.00024 60.082109 4.999231 50.706316 8.882811 
C 41.330523 12.766392 32.810879 18.459036 25.634958 25.634958 
C 18.459036 32.810879 12.766392 41.330523 8.882811 50.706316 
C 4.999231 60.082109 3.00024 70.131715 3.00024 80.28 
C 3.00024 90.428285 4.999231 100.477891 8.882811 109.853684 
C 12.766392 119.229477 18.459036 127.749121 25.634958 134.925042 
C 32.810879 142.100964 41.330523 147.793608 50.706316 151.677189 
C 60.082109 155.560769 70.131715 157.55976 80.28 157.55976 
C 90.428285 157.55976 100.477891 155.560769 109.853684 151.677189 
C 119.229477 147.793608 127.749121 142.100964 134.925042 134.925042 
C 142.100964 127.749121 147.793608 119.229477 151.677189 109.853684 
C 155.560769 100.477891 157.55976 90.428285 157.55976 80.28 
" style="fill: none; stroke: #000000; stroke-width: 0.8; stroke-linejoin: miter; stroke-linecap: square"/>
   </g>
  </g>
 </g>
 <defs>
  <clipPath id="pe2578c748c">
   <path d="M 157.55976 80.28 
C 157.55976 70.131715 155.560769 60.082109 151.677189 50.706316 
C 147.793608 41.330523 142.100964 32.810879 134.925042 25.634958 
C 127.749121 18.459036 119.229477 12.766392 109.853684 8.882811 
C 100.477891 4.999231 90.428285 3.00024 80.28 3.00024 
C 70.131715 3.00024 60.082109 4.999231 50.706316 8.882811 
C 41.330523 12.766392 32.810879 18.459036 25.634958 25.634958 
C 18.459036 32.810879 12.766392 41.330523 8.882811 50.706316 
C 4.999231 60.082109 3.00024 70.131715 3.00024 80.28 
C 3.00024 90.428285 4.999231 100.477891 8.882811 109.853684 
C 12.766392 119.229477 18.459036 127.749121 25.634958 134.925042 
C 32.810879 142.100964 41.330523 147.793608 50.706316 151.677189 
C 60.082109 155.560769 70.131715 157.55976 80.28 157.55976 
C 90.428285 157.55976 100.477891 155.560769 109.853684 151.677189 
C 119.229477 147.793608 127.749121 142.100964 134.925042 134.925042 
C 142.100964 127.749121 147.793608 119.229477 151.677189 109.853684 
C 155.560769 100.477891 157.55976 90.428285 157.55976 80.28 
M 80.28 80.28 
C 80.28 80.28 80.28 80.28 80.28 80.28 
C 80.28 80.28 80.28 80.28 80.28 80.28 
C 80.28 80.28 80.28 80.28 80.28 80.28 
C 80.28 80.28 80.28 80.28 80.28 80.28 
C 80.28 80.28 80.28 80.28 80.28 80.28 
C 80.28 80.28 80.28 80.28 80.28 80.28 
C 80.28 80.28 80.28 80.28 80.28 80.28 
C 80.28 80.28 80.28 80.28 80.28 80.28 
C 80.28 80.28 80.28 80.28 80.28 80.28 
C 80.28 80.28 80.28 80.28 80.28 80.28 
C 80.28 80.28 80.28 80.28 80.28 80.28 
C 80.28 80.28 80.28 80.28 80.28 80.28 
C 80.28 80.28 80.28 80.28 80.28 80.28 
C 80.28 80.28 80.28 80.28 80.28 80.28 
C 80.28 80.28 80.28 80.28 80.28 80.28 
C 80.28 80.28 80.28 80.28 80.28 80.28 
M 157.55976 80.28 
z
"/>
  </clipPath>
 </defs>
</svg>
