<?xml version="1.0" encoding="utf-8" standalone="no"?>
<!DOCTYPE svg PUBLIC "-//W3C//DTD SVG 1.1//EN"
  "http://www.w3.org/Graphics/SVG/1.1/DTD/svg11.dtd">
<svg xmlns:xlink="http://www.w3.org/1999/xlink" width="160.56pt" height="160.56pt" viewBox="0 0 160.56 160.56" xmlns="http://www.w3.org/2000/svg" version="1.1">
 <metadata>
  <rdf:RDF xmlns:dc="http://purl.org/dc/elements/1.1/" xmlns:cc="http://creativecommons.org/ns#" xmlns:rdf="http://www.w3.org/1999/02/22-rdf-syntax-ns#">
   <cc:Work>
    <dc:type rdf:resource="http://purl.org/dc/dcmitype/StillImage"/>
    <dc:date>2025-09-28T15:46:45.908856</dc:date>
    <dc:format>image/svg+xml</dc:format>
    <dc:creator>
     <cc:Agent>
      <dc:title>Matplotlib v3.6.3, https://matplotlib.org/</dc:title>
     </cc:Agent>
    </dc:creator>
   </cc:Work>
  </rdf:RDF>
 </metadata>
 <defs>
  <style type="text/css">*{stroke-linejoin: round; stroke-linecap: butt}</style>
 </defs>
 <g id="figure_1">
  <g id="patch_1">
   <path d="M 0 160.56 
L 160.56 160.56 
L 160.56 0 
L 0 0 
z
" style="fill: #ffffff"/>
  </g>
  <g id="axes_1">
   <g id="patch_2">
    <path d="M 157.55976 80.28 
C 157.55976 70.131715 155.560769 60.082109 151.677189 50.706316 
C 147.793608 41.330523 142.100964 32.810879 134.925042 25.634958 
C 127.749121 18.459036 119.229477 12.766392 109.853684 8.882811 
C 100.477891 4.999231 90.428285 3.00024 80.28 3.00024 
C 70.131715 3.00024 60.082109 4.999231 50.706316 8.882811 
C 41.330523 12.766392 32.810879 18.459036 25.634958 25.634958 
C 18.459036 32.810879 12.766392 41.330523 8.882811 50.706316 
C 4.999231 60.082109 3.00024 70.131715 3.00024 80.28 
C 3.00024 90.428285 4.999231 100.477891 8.882811 109.853684 
C 12.766392 119.229477 18.459036 127.749121 25.634958 134.925042 
C 32.810879 142.100964 41.330523 147.793608 50.706316 151.677189 
C 60.082109 155.560769 70.131715 157.55976 80.28 157.55976 
C 90.428285 157.55976 100.477891 155.560769 109.853684 151.677189 
C 119.229477 147.793608 127.749121 142.100964 134.925042 134.925042 
C 142.100964 127.749121 147.793608 119.229477 151.677189 109.853684 
C 155.560769 100.477891 157.55976 90.428285 157.55976 80.28 
M 80.28 80.28 
C 80.28 80.28 80.28 80.28 80.28 80.28 
C 80.28 80.28 80.28 80.28 80.28 80.28 
C 80.28 80.28 80.28 80.28 80.28 80.28 
C 80.28 80.28 80.28 80.28 80.28 80.28 
C 80.28 80.28 80.28 80.28 80.28 80.28 
C 80.28 80.28 80.28 80.28 80.28 80.28 
C 80.28 80.28 80.28 80.28 80.28 80.28 
C 80.28 80.28 80.28 80.28 80.28 80.28 
C 80.28 80.28 80.28 80.28 80.28 80.28 
C 80.28 80.28 80.28 80.28 80.28 80.28 
C 80.28 80.28 80.28 80.28 80.28 80.28 
C 80.28 80.28 80.28 80.28 80.28 80.28 
C 80.28 80.28 80.28 80.28 80.28 80.28 
C 80.28 80.28 80.28 80.28 80.28 80.28 
C 80.28 80.28 80.28 80.28 80.28 80.28 
C 80.28 80.28 80.28 80.28 80.28 80.28 
M 157.55976 80.28 
z
" style="fill: #ffffff"/>
   </g>
   <g id="matplotlib.axis_1">
    <g id="xtick_1">
     <g id="line2d_1">
      <path d="M 80.28 80.28 
L 134.925042 25.634958 
" clip-path="url(#p72e9fd5a23)" style="fill: none; stroke: #b0b0b0; stroke-width: 0.8; stroke-linecap: square"/>
     </g>
     <g id="text_1">
      <!-- $\pi/4$ -->
      <g transform="translate(136.824995 18.226123) scale(0.1 -0.1)">
       <defs>
        <path id="CMMI12-19" d="M 1658 2406 
L 2381 2406 
C 2208 1691 2099 1225 2099 715 
C 2099 625 2099 -64 2362 -64 
C 2496 -64 2611 57 2611 166 
C 2611 198 2611 210 2566 306 
C 2394 746 2394 1295 2394 1340 
C 2394 1378 2394 1832 2528 2406 
L 3245 2406 
C 3328 2406 3539 2406 3539 2611 
C 3539 2752 3418 2752 3302 2752 
L 1197 2752 
C 1050 2752 832 2752 538 2438 
C 371 2253 166 1915 166 1876 
C 166 1838 198 1825 237 1825 
C 282 1825 288 1844 320 1883 
C 653 2406 986 2406 1146 2406 
L 1510 2406 
C 1370 1927 1210 1372 685 255 
C 634 153 634 140 634 102 
C 634 -32 749 -64 806 -64 
C 992 -64 1043 102 1120 370 
C 1222 695 1222 708 1286 964 
L 1658 2406 
z
" transform="scale(0.015625)"/>
        <path id="CMMI12-3d" d="M 2746 4563 
C 2746 4569 2784 4665 2784 4678 
C 2784 4755 2720 4800 2669 4800 
C 2637 4800 2579 4800 2528 4659 
L 384 -1364 
C 384 -1370 346 -1466 346 -1479 
C 346 -1556 410 -1600 461 -1600 
C 499 -1600 557 -1594 602 -1460 
L 2746 4563 
z
" transform="scale(0.015625)"/>
        <path id="CMR17-34" d="M 2150 4147 
C 2150 4281 2144 4288 2029 4288 
L 128 1254 
L 128 1088 
L 1779 1088 
L 1779 460 
C 1779 230 1766 166 1318 166 
L 1197 166 
L 1197 0 
C 1402 12 1747 12 1965 12 
C 2182 12 2528 12 2733 0 
L 2733 166 
L 2611 166 
C 2163 166 2150 230 2150 460 
L 2150 1088 
L 2803 1088 
L 2803 1254 
L 2150 1254 
L 2150 4147 
z
M 1798 3723 
L 1798 1254 
L 256 1254 
L 1798 3723 
z
" transform="scale(0.015625)"/>
       </defs>
       <use xlink:href="#CMMI12-19" transform="scale(0.996264)"/>
       <use xlink:href="#CMMI12-3d" transform="translate(58.910601 0) scale(0.996264)"/>
       <use xlink:href="#CMR17-34" transform="translate(107.68552 0) scale(0.996264)"/>
      </g>
     </g>
    </g>
    <g id="xtick_2">
     <g id="line2d_2">
      <path d="M 80.28 80.28 
L 25.634958 25.634958 
" clip-path="url(#p72e9fd5a23)" style="fill: none; stroke: #b0b0b0; stroke-width: 0.8; stroke-linecap: square"/>
     </g>
     <g id="text_2">
      <!-- $3\pi/4$ -->
      <g transform="translate(5.245252 18.226123) scale(0.1 -0.1)">
       <defs>
        <path id="CMR17-33" d="M 1414 2176 
C 1984 2176 2234 1673 2234 1094 
C 2234 322 1824 25 1453 25 
C 1114 25 563 193 390 691 
C 422 678 454 678 486 678 
C 640 678 755 780 755 947 
C 755 1132 614 1216 486 1216 
C 378 1216 211 1164 211 927 
C 211 335 787 -128 1466 -128 
C 2176 -128 2720 432 2720 1087 
C 2720 1718 2208 2176 1600 2246 
C 2086 2347 2554 2776 2554 3353 
C 2554 3856 2048 4224 1472 4224 
C 890 4224 378 3862 378 3347 
C 378 3123 544 3084 627 3084 
C 762 3084 877 3167 877 3334 
C 877 3500 762 3584 627 3584 
C 602 3584 570 3584 544 3571 
C 730 3999 1235 4076 1459 4076 
C 1683 4076 2106 3966 2106 3347 
C 2106 3167 2080 2851 1862 2574 
C 1670 2329 1453 2316 1242 2297 
C 1210 2297 1062 2284 1037 2284 
C 992 2278 966 2272 966 2227 
C 966 2182 973 2176 1101 2176 
L 1414 2176 
z
" transform="scale(0.015625)"/>
       </defs>
       <use xlink:href="#CMR17-33" transform="scale(0.996264)"/>
       <use xlink:href="#CMMI12-19" transform="translate(45.690477 0) scale(0.996264)"/>
       <use xlink:href="#CMMI12-3d" transform="translate(104.601078 0) scale(0.996264)"/>
       <use xlink:href="#CMR17-34" transform="translate(153.375997 0) scale(0.996264)"/>
      </g>
     </g>
    </g>
    <g id="xtick_3">
     <g id="line2d_3">
      <path d="M 80.28 80.28 
L 25.634958 134.925042 
" clip-path="url(#p72e9fd5a23)" style="fill: none; stroke: #b0b0b0; stroke-width: 0.8; stroke-linecap: square"/>
     </g>
     <g id="text_3">
      <!-- $5\pi/4$ -->
      <g transform="translate(5.245252 147.315197) scale(0.1 -0.1)">
       <defs>
        <path id="CMR17-35" d="M 730 3750 
C 794 3724 1056 3641 1325 3641 
C 1920 3641 2246 3961 2432 4140 
C 2432 4191 2432 4224 2394 4224 
C 2387 4224 2374 4224 2323 4198 
C 2099 4102 1837 4032 1517 4032 
C 1325 4032 1037 4055 723 4191 
C 653 4224 640 4224 634 4224 
C 602 4224 595 4217 595 4090 
L 595 2231 
C 595 2113 595 2080 659 2080 
C 691 2080 704 2093 736 2139 
C 941 2435 1222 2560 1542 2560 
C 1766 2560 2246 2415 2246 1293 
C 2246 1087 2246 716 2054 422 
C 1894 159 1645 25 1370 25 
C 947 25 518 319 403 812 
C 429 806 480 793 506 793 
C 589 793 749 838 749 1036 
C 749 1209 627 1280 506 1280 
C 358 1280 262 1190 262 1011 
C 262 454 704 -128 1382 -128 
C 2042 -128 2669 441 2669 1267 
C 2669 2054 2170 2662 1549 2662 
C 1222 2662 947 2540 730 2304 
L 730 3750 
z
" transform="scale(0.015625)"/>
       </defs>
       <use xlink:href="#CMR17-35" transform="scale(0.996264)"/>
       <use xlink:href="#CMMI12-19" transform="translate(45.690477 0) scale(0.996264)"/>
       <use xlink:href="#CMMI12-3d" transform="translate(104.601078 0) scale(0.996264)"/>
       <use xlink:href="#CMR17-34" transform="translate(153.375997 0) scale(0.996264)"/>
      </g>
     </g>
    </g>
    <g id="xtick_4">
     <g id="line2d_4">
      <path d="M 80.28 80.28 
L 134.925042 134.925042 
" clip-path="url(#p72e9fd5a23)" style="fill: none; stroke: #b0b0b0; stroke-width: 0.8; stroke-linecap: square"/>
     </g>
     <g id="text_4">
      <!-- $7\pi/4$ -->
      <g transform="translate(134.334327 147.315197) scale(0.1 -0.1)">
       <defs>
        <path id="CMR17-37" d="M 2886 3955 
L 2886 4096 
L 1382 4096 
C 634 4096 621 4166 595 4288 
L 480 4288 
L 294 3104 
L 410 3104 
C 429 3226 474 3552 550 3673 
C 589 3724 1062 3724 1171 3724 
L 2579 3724 
L 1869 2670 
C 1395 1961 1069 1003 1069 166 
C 1069 89 1069 -128 1299 -128 
C 1530 -128 1530 89 1530 172 
L 1530 466 
C 1530 1514 1709 2204 2003 2644 
L 2886 3955 
z
" transform="scale(0.015625)"/>
       </defs>
       <use xlink:href="#CMR17-37" transform="scale(0.996264)"/>
       <use xlink:href="#CMMI12-19" transform="translate(45.690477 0) scale(0.996264)"/>
       <use xlink:href="#CMMI12-3d" transform="translate(104.601078 0) scale(0.996264)"/>
       <use xlink:href="#CMR17-34" transform="translate(153.375997 0) scale(0.996264)"/>
      </g>
     </g>
    </g>
   </g>
   <g id="matplotlib.axis_2">
    <g id="ytick_1">
     <g id="line2d_5">
      <path d="M 94.15759 80.28 
C 94.15759 78.457612 93.798619 76.652944 93.101221 74.969276 
C 92.403824 73.285609 91.381561 71.755685 90.092938 70.467062 
C 88.804315 69.178439 87.274391 68.156176 85.590724 67.458779 
C 83.907056 66.761381 82.102388 66.40241 80.28 66.40241 
C 78.457612 66.40241 76.652944 66.761381 74.969276 67.458779 
C 73.285609 68.156176 71.755685 69.178439 70.467062 70.467062 
C 69.178439 71.755685 68.156176 73.285609 67.458779 74.969276 
C 66.761381 76.652944 66.40241 78.457612 66.40241 80.28 
C 66.40241 82.102388 66.761381 83.907056 67.458779 85.590724 
C 68.156176 87.274391 69.178439 88.804315 70.467062 90.092938 
C 71.755685 91.381561 73.285609 92.403824 74.969276 93.101221 
C 76.652944 93.798619 78.457612 94.15759 80.28 94.15759 
C 82.102388 94.15759 83.907056 93.798619 85.590724 93.101221 
C 87.274391 92.403824 88.804315 91.381561 90.092938 90.092938 
C 91.381561 88.804315 92.403824 87.274391 93.101221 85.590724 
C 93.798619 83.907056 94.15759 82.102388 94.15759 80.28 
" clip-path="url(#p72e9fd5a23)" style="fill: none; stroke: #b0b0b0; stroke-width: 0.8; stroke-linecap: square"/>
     </g>
     <g id="text_5">
      <!-- $\mathdefault{10^{0}}$ -->
      <g transform="translate(72.320141 89.710678) scale(0.1 -0.1)">
       <defs>
        <path id="CMR17-31" d="M 1702 4083 
C 1702 4217 1696 4224 1606 4224 
C 1357 3927 979 3833 621 3820 
C 602 3820 570 3820 563 3808 
C 557 3795 557 3782 557 3648 
C 755 3648 1088 3686 1344 3839 
L 1344 467 
C 1344 243 1331 166 781 166 
L 589 166 
L 589 0 
C 896 6 1216 12 1523 12 
C 1830 12 2150 6 2458 0 
L 2458 166 
L 2266 166 
C 1715 166 1702 236 1702 467 
L 1702 4083 
z
" transform="scale(0.015625)"/>
        <path id="CMR17-30" d="M 2688 2038 
C 2688 2430 2682 3099 2413 3613 
C 2176 4063 1798 4224 1466 4224 
C 1158 4224 768 4082 525 3620 
C 269 3137 243 2539 243 2038 
C 243 1671 250 1112 448 623 
C 723 -39 1216 -128 1466 -128 
C 1760 -128 2208 -7 2470 604 
C 2662 1048 2688 1568 2688 2038 
z
M 1466 -26 
C 1056 -26 813 328 723 816 
C 653 1196 653 1749 653 2109 
C 653 2604 653 3015 736 3407 
C 858 3954 1216 4121 1466 4121 
C 1728 4121 2067 3947 2189 3420 
C 2272 3054 2278 2623 2278 2109 
C 2278 1691 2278 1176 2202 797 
C 2067 96 1690 -26 1466 -26 
z
" transform="scale(0.015625)"/>
       </defs>
       <use xlink:href="#CMR17-31" transform="scale(0.996264)"/>
       <use xlink:href="#CMR17-30" transform="translate(45.690477 0) scale(0.996264)"/>
       <use xlink:href="#CMR17-30" transform="translate(91.380954 36.153639) scale(0.697382)"/>
      </g>
     </g>
    </g>
    <g id="ytick_2">
     <g id="line2d_6">
      <path d="M 125.495215 80.28 
C 125.495215 74.342392 124.325635 68.462521 122.053411 62.976886 
C 119.781187 57.491252 116.450508 52.506538 112.251985 48.308015 
C 108.053462 44.109492 103.068748 40.778813 97.583114 38.506589 
C 92.097479 36.234365 86.217608 35.064785 80.28 35.064785 
C 74.342392 35.064785 68.462521 36.234365 62.976886 38.506589 
C 57.491252 40.778813 52.506538 44.109492 48.308015 48.308015 
C 44.109492 52.506538 40.778813 57.491252 38.506589 62.976886 
C 36.234365 68.462521 35.064785 74.342392 35.064785 80.28 
C 35.064785 86.217608 36.234365 92.097479 38.506589 97.583114 
C 40.778813 103.068748 44.109492 108.053462 48.308015 112.251985 
C 52.506538 116.450508 57.491252 119.781187 62.976886 122.053411 
C 68.462521 124.325635 74.342392 125.495215 80.28 125.495215 
C 86.217608 125.495215 92.097479 124.325635 97.583114 122.053411 
C 103.068748 119.781187 108.053462 116.450508 112.251985 112.251985 
C 116.450508 108.053462 119.781187 103.068748 122.053411 97.583114 
C 124.325635 92.097479 125.495215 86.217608 125.495215 80.28 
" clip-path="url(#p72e9fd5a23)" style="fill: none; stroke: #b0b0b0; stroke-width: 0.8; stroke-linecap: square"/>
     </g>
     <g id="text_6">
      <!-- $\mathdefault{10^{1}}$ -->
      <g transform="translate(54.345618 115.380957) scale(0.1 -0.1)">
       <use xlink:href="#CMR17-31" transform="scale(0.996264)"/>
       <use xlink:href="#CMR17-30" transform="translate(45.690477 0) scale(0.996264)"/>
       <use xlink:href="#CMR17-31" transform="translate(91.380954 36.153639) scale(0.697382)"/>
      </g>
     </g>
    </g>
    <g id="ytick_3">
     <g id="line2d_7">
      <path d="M 150.474877 80.28 
C 150.474877 71.062093 148.65915 61.933819 145.13161 53.417584 
C 141.60407 44.901348 136.433318 37.162771 129.915273 30.644727 
C 123.397229 24.126682 115.658652 18.95593 107.142416 15.42839 
C 98.626181 11.90085 89.497907 10.085123 80.28 10.085123 
C 71.062093 10.085123 61.933819 11.90085 53.417584 15.42839 
C 44.901348 18.95593 37.162771 24.126682 30.644727 30.644727 
C 24.126682 37.162771 18.95593 44.901348 15.42839 53.417584 
C 11.90085 61.933819 10.085123 71.062093 10.085123 80.28 
C 10.085123 89.497907 11.90085 98.626181 15.42839 107.142416 
C 18.95593 115.658652 24.126682 123.397229 30.644727 129.915273 
C 37.162771 136.433318 44.901348 141.60407 53.417584 145.13161 
C 61.933819 148.65915 71.062093 150.474877 80.28 150.474877 
C 89.497907 150.474877 98.626181 148.65915 107.142416 145.13161 
C 115.658652 141.60407 123.397229 136.433318 129.915273 129.915273 
C 136.433318 123.397229 141.60407 115.658652 145.13161 107.142416 
C 148.65915 98.626181 150.474877 89.497907 150.474877 80.28 
" clip-path="url(#p72e9fd5a23)" style="fill: none; stroke: #b0b0b0; stroke-width: 0.8; stroke-linecap: square"/>
     </g>
     <g id="text_7">
      <!-- $\mathdefault{10^{2}}$ -->
      <g transform="translate(40.017873 135.843099) scale(0.1 -0.1)">
       <defs>
        <path id="CMR17-32" d="M 2669 990 
L 2554 990 
C 2490 537 2438 460 2413 422 
C 2381 371 1920 371 1830 371 
L 602 371 
C 832 620 1280 1073 1824 1596 
C 2214 1966 2669 2400 2669 3033 
C 2669 3788 2067 4224 1395 4224 
C 691 4224 262 3603 262 3027 
C 262 2777 448 2745 525 2745 
C 589 2745 781 2783 781 3007 
C 781 3206 614 3264 525 3264 
C 486 3264 448 3257 422 3244 
C 544 3788 915 4057 1306 4057 
C 1862 4057 2227 3616 2227 3033 
C 2227 2477 1901 1998 1536 1583 
L 262 147 
L 262 0 
L 2515 0 
L 2669 990 
z
" transform="scale(0.015625)"/>
       </defs>
       <use xlink:href="#CMR17-31" transform="scale(0.996264)"/>
       <use xlink:href="#CMR17-30" transform="translate(45.690477 0) scale(0.996264)"/>
       <use xlink:href="#CMR17-32" transform="translate(91.380954 36.153639) scale(0.697382)"/>
      </g>
     </g>
    </g>
    <g id="ytick_4"/>
   </g>
   <g id="line2d_8">
    <path d="M 153.881637 80.28 
L 153.661609 77.717458 
L 153.386178 76.448668 
L 152.999825 75.194934 
L 152.501778 73.961413 
L 151.891006 72.75338 
L 151.166196 71.57627 
L 150.325714 70.435717 
L 149.367558 69.337606 
L 148.289305 68.288125 
L 147.088036 67.293833 
L 145.760255 66.361742 
L 144.30179 65.499405 
L 142.707671 64.715034 
L 140.971999 64.017628 
L 139.087811 63.417132 
L 137.04695 62.924602 
L 134.840013 62.552377 
L 132.456467 62.314202 
L 129.885198 62.225185 
L 127.116001 62.301344 
L 124.143152 62.558136 
L 120.973406 63.006674 
L 117.64306 63.644894 
L 111.015817 65.28914 
L 108.317032 65.994419 
L 106.622642 66.273369 
L 106.184182 65.921077 
L 106.791566 64.97354 
L 110.463811 60.678404 
L 111.446011 59.25826 
L 112.177581 57.945073 
L 112.657723 56.756207 
L 112.899147 55.69971 
L 112.918718 54.779838 
L 112.733414 53.999744 
L 112.358694 53.362779 
L 111.807955 52.873166 
L 111.092419 52.536373 
L 110.221187 52.359392 
L 109.201327 52.350999 
L 108.037937 52.522063 
L 106.734147 52.885929 
L 105.291075 53.458906 
L 103.707723 54.260878 
L 101.980883 55.31599 
L 100.105167 56.653286 
L 98.073552 58.306793 
L 93.95429 62.777707 
L 87.092915 70.902827 
L 82.464829 76.783542 
L 86.176392 68.70768 
L 87.863615 64.016886 
L 88.44273 61.946207 
L 88.796479 60.216433 
L 88.911389 58.916563 
L 88.79087 58.108426 
L 88.452852 57.825275 
L 87.926885 58.071832 
L 87.250922 58.825709 
L 86.467967 60.040071 
L 85.622828 61.647345 
L 83.916606 65.694368 
L 82.423599 70.195159 
L 81.322174 74.36954 
L 80.474956 78.692213 
L 80.308855 79.867348 
L 80.322763 79.055415 
L 80.213176 76.451672 
L 79.822813 73.741928 
L 79.474473 72.615921 
L 79.160857 72.316887 
L 79.04602 72.488955 
L 78.94116 73.392265 
L 79.019486 74.820114 
L 79.39869 77.206506 
L 79.946111 79.453597 
L 79.776743 79.149667 
L 78.990736 77.855247 
L 78.433579 77.207039 
L 78.293866 77.221622 
L 78.402892 77.599212 
L 79.116653 78.843386 
L 79.396412 79.298676 
L 79.28725 79.215406 
L 76.237187 76.639835 
L 73.797906 74.840877 
L 70.905334 72.955709 
L 67.908477 71.291562 
L 65.232567 70.130378 
L 64.150425 69.805332 
L 63.3039 69.672156 
L 62.732839 69.736602 
L 62.467206 69.995778 
L 62.525275 70.438395 
L 62.912341 71.045452 
L 63.620011 71.791311 
L 64.626154 72.645109 
L 67.380982 74.536987 
L 70.764257 76.43539 
L 74.245421 78.083593 
L 77.268531 79.301514 
L 80.184625 80.25622 
L 79.673566 80.151098 
L 76.790929 79.727385 
L 74.059913 79.516269 
L 71.317963 79.495923 
L 69.116057 79.694923 
L 67.89354 80.063794 
L 67.734788 80.28 
L 67.89354 80.496206 
L 68.361815 80.696192 
L 70.118288 80.990576 
L 72.654436 81.081479 
L 75.46275 80.95702 
L 78.954106 80.537728 
L 80.184625 80.30378 
L 79.353254 80.54574 
L 77.268531 81.258486 
L 74.245421 82.476407 
L 70.764257 84.12461 
L 67.380982 86.023013 
L 64.626154 87.914891 
L 62.912341 89.514548 
L 62.525275 90.121605 
L 62.467206 90.564222 
L 62.732839 90.823398 
L 63.3039 90.887844 
L 64.150425 90.754668 
L 65.232567 90.429622 
L 67.908477 89.268438 
L 70.905334 87.604291 
L 73.797906 85.719123 
L 77.212397 83.140586 
L 79.396412 81.261324 
L 79.281355 81.470139 
L 78.402892 82.960788 
L 78.333737 83.394672 
L 78.58497 83.215879 
L 79.213957 82.372228 
L 79.946111 81.106403 
L 79.908071 81.301866 
L 79.39869 83.353494 
L 79.019486 85.739886 
L 78.971046 87.703447 
L 79.160857 88.243113 
L 79.307237 88.202521 
L 79.65047 87.475566 
L 79.979935 86.005587 
L 80.28 83.141887 
L 80.308855 80.692652 
L 80.368112 81.118331 
L 80.937886 84.433727 
L 81.817964 88.19214 
L 83.129252 92.621468 
L 84.759106 96.996253 
L 86.467967 100.519929 
L 87.250922 101.734291 
L 87.926885 102.488168 
L 88.452852 102.734725 
L 88.79087 102.451574 
L 88.911389 101.643437 
L 88.796479 100.343567 
L 88.44273 98.613793 
L 87.863615 96.543114 
L 86.176392 91.85232 
L 84.217918 87.384192 
L 82.464829 83.776458 
L 82.65786 83.941583 
L 87.092915 89.657173 
L 90.110694 93.325771 
L 93.95429 97.782293 
L 98.073552 102.253207 
L 100.105167 103.906714 
L 101.980883 105.24401 
L 103.707723 106.299122 
L 105.291075 107.101094 
L 106.734147 107.674071 
L 108.037937 108.037937 
L 109.201327 108.209001 
L 110.221187 108.200608 
L 111.092419 108.023627 
L 111.807955 107.686834 
L 112.358694 107.197221 
L 112.733414 106.560256 
L 112.918718 105.780162 
L 112.899147 104.86029 
L 112.657723 103.803793 
L 112.177581 102.614927 
L 111.446011 101.30174 
L 110.463811 99.881596 
L 107.95988 96.91175 
L 106.791566 95.58646 
L 106.184182 94.638923 
L 106.622642 94.286631 
L 108.317032 94.565581 
L 117.64306 96.915106 
L 120.973406 97.553326 
L 124.143152 98.001864 
L 127.116001 98.258656 
L 129.885198 98.334815 
L 132.456467 98.245798 
L 134.840013 98.007623 
L 137.04695 97.635398 
L 139.087811 97.142868 
L 140.971999 96.542372 
L 142.707671 95.844966 
L 144.30179 95.060595 
L 145.760255 94.198258 
L 147.088036 93.266167 
L 148.289305 92.271875 
L 149.367558 91.222394 
L 150.325714 90.124283 
L 151.166196 88.98373 
L 151.891006 87.80662 
L 152.501778 86.598587 
L 152.999825 85.365066 
L 153.661609 82.842542 
L 153.881637 80.28 
L 153.881637 80.28 
" clip-path="url(#p72e9fd5a23)" style="fill: none; stroke: #000000; stroke-width: 0.75; stroke-linecap: square"/>
   </g>
   <g id="line2d_9">
    <path d="M 153.769964 80.28 
L 153.537535 77.721791 
L 152.871275 75.203924 
L 152.374054 73.972588 
L 151.766193 72.766498 
L 151.046411 71.590977 
L 150.213126 70.45154 
L 149.264407 69.353943 
L 148.197941 68.304235 
L 147.010964 67.308815 
L 145.700202 66.374507 
L 144.261784 65.508641 
L 142.691149 64.719153 
L 140.982944 64.014695 
L 139.130919 63.404771 
L 137.127849 62.899868 
L 134.965531 62.511594 
L 132.634961 62.252741 
L 130.126907 62.13721 
L 127.43335 62.179525 
L 124.550715 62.39347 
L 121.486795 62.788753 
L 118.274908 63.363577 
L 111.84519 64.884628 
L 109.12367 65.583416 
L 107.242607 65.943728 
L 106.481043 65.756525 
L 106.750428 64.997291 
L 110.86802 59.64812 
L 111.588077 58.357848 
L 112.07164 57.182022 
L 112.324541 56.132706 
L 112.359684 55.216604 
L 112.191739 54.438384 
L 111.834811 53.802369 
L 111.301492 53.313429 
L 110.602524 52.977477 
L 109.746737 52.801824 
L 108.741066 52.795468 
L 107.590579 52.969421 
L 106.298475 53.33708 
L 104.866047 53.914693 
L 103.292616 54.721901 
L 101.575524 55.782302 
L 99.71033 57.123834 
L 97.606219 58.883901 
L 93.23028 63.704397 
L 86.799156 71.307152 
L 82.591852 76.580263 
L 86.293425 68.477989 
L 87.926224 63.882619 
L 88.481372 61.859416 
L 88.815737 60.171063 
L 88.916675 58.90348 
L 88.787741 58.116577 
L 88.446473 57.842799 
L 87.921649 58.087041 
L 87.250216 58.827881 
L 86.474096 60.020026 
L 85.637032 61.597808 
L 83.947009 65.572429 
L 82.46571 69.997043 
L 81.368278 74.108067 
L 80.511143 78.397489 
L 80.322852 79.667194 
L 80.324328 79.010605 
L 80.218621 76.763575 
L 79.872601 74.453929 
L 79.570028 73.52507 
L 79.299214 73.301342 
L 79.198897 73.454183 
L 79.098899 74.20376 
L 79.212183 75.99722 
L 79.633149 78.289199 
L 79.854738 79.227438 
L 79.76705 79.127895 
L 78.957946 77.990136 
L 78.714877 77.869921 
L 78.770201 78.123784 
L 79.373334 79.199477 
L 79.423731 79.294975 
L 79.238314 79.162929 
L 77.090111 77.30538 
L 75.018762 75.706475 
L 72.467485 73.95355 
L 69.760896 72.353287 
L 67.308345 71.197149 
L 65.518227 70.693593 
L 64.976931 70.717581 
L 64.709885 70.924531 
L 64.731895 71.303297 
L 65.045561 71.835412 
L 65.641175 72.496399 
L 67.581453 74.086505 
L 70.260807 75.819168 
L 73.270477 77.447969 
L 76.152884 78.777853 
L 79.312753 79.984283 
L 80.213576 80.263439 
L 79.420831 80.097378 
L 76.566589 79.691854 
L 74.084365 79.519272 
L 71.673826 79.527057 
L 69.786893 79.73008 
L 68.776013 80.079197 
L 68.664934 80.28 
L 68.827215 80.479909 
L 69.254466 80.66502 
L 70.808931 80.942282 
L 73.035074 81.041472 
L 75.520242 80.94894 
L 78.747739 80.577841 
L 80.241982 80.289479 
L 79.339813 80.567444 
L 76.217035 81.758798 
L 73.343453 83.082547 
L 70.306218 84.720614 
L 67.557586 86.485136 
L 65.518334 88.128917 
L 64.869583 88.822134 
L 64.505059 89.387666 
L 64.437765 89.798975 
L 64.667751 90.035616 
L 65.181935 90.084798 
L 65.954677 89.942552 
L 68.119389 89.115201 
L 70.774605 87.706428 
L 73.482241 85.983997 
L 76.828352 83.498714 
L 79.309634 81.396279 
L 79.149984 81.726355 
L 78.881251 82.433884 
L 78.998543 82.412702 
L 79.466324 81.87693 
L 79.786562 81.442468 
L 79.773022 81.600723 
L 79.231696 84.192323 
L 79.057539 86.031228 
L 79.10519 86.942677 
L 79.291163 87.315944 
L 79.424425 87.248101 
L 79.729204 86.575625 
L 80.017939 85.280415 
L 80.28 82.805632 
L 80.322025 80.880982 
L 80.409405 81.511209 
L 81.035644 85.050948 
L 81.959132 88.918385 
L 83.317264 93.435834 
L 84.995633 97.878981 
L 85.88288 99.819566 
L 86.749845 101.441909 
L 87.551756 102.660165 
L 88.242561 103.404956 
L 88.778087 103.628301 
L 89.119513 103.307719 
L 89.236934 102.449189 
L 89.112783 101.088732 
L 88.744877 99.292426 
L 88.148822 97.154743 
L 86.431725 92.353439 
L 84.472331 87.843165 
L 82.81023 84.329214 
L 83.05245 84.549198 
L 87.586046 90.33591 
L 90.578747 93.946899 
L 94.344876 98.28222 
L 98.165304 102.366511 
L 100.114052 103.917303 
L 101.91655 105.170004 
L 103.57743 106.154418 
L 105.100653 106.896891 
L 106.488621 107.419822 
L 107.741915 107.741915 
L 108.859237 107.878648 
L 109.837411 107.842731 
L 110.671366 107.644508 
L 111.354088 107.292293 
L 111.876545 106.792649 
L 112.227607 106.150662 
L 112.394043 105.37024 
L 112.360728 104.454563 
L 112.111412 103.406875 
L 111.630727 102.232015 
L 110.908961 100.939495 
L 109.952672 99.549659 
L 106.192133 94.64333 
L 106.855325 94.410351 
L 108.707182 94.764373 
L 114.697639 96.329208 
L 118.05389 97.098019 
L 121.34173 97.70967 
L 124.471046 98.134341 
L 127.408159 98.370805 
L 130.146258 98.429833 
L 132.69017 98.326269 
L 135.049082 98.075554 
L 137.233227 97.692349 
L 139.252452 97.190078 
L 141.115671 96.580869 
L 142.83072 95.875646 
L 144.404383 95.08428 
L 145.84249 94.215737 
L 147.150027 93.278217 
L 148.331251 92.279272 
L 149.389788 91.225915 
L 150.328717 90.124705 
L 151.150643 88.981821 
L 151.857757 87.803125 
L 152.934507 85.360498 
L 153.569781 82.839336 
L 153.769964 80.28 
L 153.769964 80.28 
" clip-path="url(#p72e9fd5a23)" style="fill: none; stroke-dasharray: 2.775,1.2; stroke-dashoffset: 0; stroke: #ff0000; stroke-width: 0.75"/>
   </g>
   <g id="patch_3">
    <path d="M 157.55976 80.28 
C 157.55976 70.131715 155.560769 60.082109 151.677189 50.706316 
C 147.793608 41.330523 142.100964 32.810879 134.925042 25.634958 
C 127.749121 18.459036 119.229477 12.766392 109.853684 8.882811 
C 100.477891 4.999231 90.428285 3.00024 80.28 3.00024 
C 70.131715 3.00024 60.082109 4.999231 50.706316 8.882811 
C 41.330523 12.766392 32.810879 18.459036 25.634958 25.634958 
C 18.459036 32.810879 12.766392 41.330523 8.882811 50.706316 
C 4.999231 60.082109 3.00024 70.131715 3.00024 80.28 
C 3.00024 90.428285 4.999231 100.477891 8.882811 109.853684 
C 12.766392 119.229477 18.459036 127.749121 25.634958 134.925042 
C 32.810879 142.100964 41.330523 147.793608 50.706316 151.677189 
C 60.082109 155.560769 70.131715 157.55976 80.28 157.55976 
C 90.428285 157.55976 100.477891 155.560769 109.853684 151.677189 
C 119.229477 147.793608 127.749121 142.100964 134.925042 134.925042 
C 142.100964 127.749121 147.793608 119.229477 151.677189 109.853684 
C 155.560769 100.477891 157.55976 90.428285 157.55976 80.28 
" style="fill: none; stroke: #000000; stroke-width: 0.8; stroke-linejoin: miter; stroke-linecap: square"/>
   </g>
  </g>
 </g>
 <defs>
  <clipPath id="p72e9fd5a23">
   <path d="M 157.55976 80.28 
C 157.55976 70.131715 155.560769 60.082109 151.677189 50.706316 
C 147.793608 41.330523 142.100964 32.810879 134.925042 25.634958 
C 127.749121 18.459036 119.229477 12.766392 109.853684 8.882811 
C 100.477891 4.999231 90.428285 3.00024 80.28 3.00024 
C 70.131715 3.00024 60.082109 4.999231 50.706316 8.882811 
C 41.330523 12.766392 32.810879 18.459036 25.634958 25.634958 
C 18.459036 32.810879 12.766392 41.330523 8.882811 50.706316 
C 4.999231 60.082109 3.00024 70.131715 3.00024 80.28 
C 3.00024 90.428285 4.999231 100.477891 8.882811 109.853684 
C 12.766392 119.229477 18.459036 127.749121 25.634958 134.925042 
C 32.810879 142.100964 41.330523 147.793608 50.706316 151.677189 
C 60.082109 155.560769 70.131715 157.55976 80.28 157.55976 
C 90.428285 157.55976 100.477891 155.560769 109.853684 151.677189 
C 119.229477 147.793608 127.749121 142.100964 134.925042 134.925042 
C 142.100964 127.749121 147.793608 119.229477 151.677189 109.853684 
C 155.560769 100.477891 157.55976 90.428285 157.55976 80.28 
M 80.28 80.28 
C 80.28 80.28 80.28 80.28 80.28 80.28 
C 80.28 80.28 80.28 80.28 80.28 80.28 
C 80.28 80.28 80.28 80.28 80.28 80.28 
C 80.28 80.28 80.28 80.28 80.28 80.28 
C 80.28 80.28 80.28 80.28 80.28 80.28 
C 80.28 80.28 80.28 80.28 80.28 80.28 
C 80.28 80.28 80.28 80.28 80.28 80.28 
C 80.28 80.28 80.28 80.28 80.28 80.28 
C 80.28 80.28 80.28 80.28 80.28 80.28 
C 80.28 80.28 80.28 80.28 80.28 80.28 
C 80.28 80.28 80.28 80.28 80.28 80.28 
C 80.28 80.28 80.28 80.28 80.28 80.28 
C 80.28 80.28 80.28 80.28 80.28 80.28 
C 80.28 80.28 80.28 80.28 80.28 80.28 
C 80.28 80.28 80.28 80.28 80.28 80.28 
C 80.28 80.28 80.28 80.28 80.28 80.28 
M 157.55976 80.28 
z
"/>
  </clipPath>
 </defs>
</svg>
