<?xml version="1.0" encoding="utf-8" standalone="no"?>
<!DOCTYPE svg PUBLIC "-//W3C//DTD SVG 1.1//EN"
  "http://www.w3.org/Graphics/SVG/1.1/DTD/svg11.dtd">
<svg xmlns:xlink="http://www.w3.org/1999/xlink" width="241.2pt" height="342pt" viewBox="0 0 241.2 342" xmlns="http://www.w3.org/2000/svg" version="1.1">
 <metadata>
  <rdf:RDF xmlns:dc="http://purl.org/dc/elements/1.1/" xmlns:cc="http://creativecommons.org/ns#" xmlns:rdf="http://www.w3.org/1999/02/22-rdf-syntax-ns#">
   <cc:Work>
    <dc:type rdf:resource="http://purl.org/dc/dcmitype/StillImage"/>
    <dc:date>2025-11-12T23:25:15.545606</dc:date>
    <dc:format>image/svg+xml</dc:format>
    <dc:creator>
     <cc:Agent>
      <dc:title>Matplotlib v3.6.3, https://matplotlib.org/</dc:title>
     </cc:Agent>
    </dc:creator>
   </cc:Work>
  </rdf:RDF>
 </metadata>
 <defs>
  <style type="text/css">*{stroke-linejoin: round; stroke-linecap: butt}</style>
 </defs>
 <g id="figure_1">
  <g id="patch_1">
   <path d="M 0 342 
L 241.2 342 
L 241.2 0 
L 0 0 
z
" style="fill: #ffffff"/>
  </g>
  <g id="axes_1">
   <g id="patch_2">
    <path d="M 37.896788 307.29171 
L 238.19976 307.29171 
L 238.19976 55.910895 
L 37.896788 55.910895 
z
" style="fill: #ffffff"/>
   </g>
   <g id="matplotlib.axis_1">
    <g id="xtick_1">
     <g id="line2d_1">
      <defs>
       <path id="m46fc25c709" d="M 0 0 
L 0 3.5 
" style="stroke: #000000; stroke-width: 0.8"/>
      </defs>
      <g>
       <use xlink:href="#m46fc25c709" x="47.001469" y="307.29171" style="stroke: #000000; stroke-width: 0.8"/>
      </g>
     </g>
     <g id="text_1">
      <!-- $0$ -->
      <g transform="translate(44.510801 321.210208) scale(0.1 -0.1)">
       <defs>
        <path id="CMR17-30" d="M 2688 2038 
C 2688 2430 2682 3099 2413 3613 
C 2176 4063 1798 4224 1466 4224 
C 1158 4224 768 4082 525 3620 
C 269 3137 243 2539 243 2038 
C 243 1671 250 1112 448 623 
C 723 -39 1216 -128 1466 -128 
C 1760 -128 2208 -7 2470 604 
C 2662 1048 2688 1568 2688 2038 
z
M 1466 -26 
C 1056 -26 813 328 723 816 
C 653 1196 653 1749 653 2109 
C 653 2604 653 3015 736 3407 
C 858 3954 1216 4121 1466 4121 
C 1728 4121 2067 3947 2189 3420 
C 2272 3054 2278 2623 2278 2109 
C 2278 1691 2278 1176 2202 797 
C 2067 96 1690 -26 1466 -26 
z
" transform="scale(0.015625)"/>
       </defs>
       <use xlink:href="#CMR17-30" transform="scale(0.996264)"/>
      </g>
     </g>
    </g>
    <g id="xtick_2">
     <g id="line2d_2">
      <g>
       <use xlink:href="#m46fc25c709" x="77.350404" y="307.29171" style="stroke: #000000; stroke-width: 0.8"/>
      </g>
     </g>
     <g id="text_2">
      <!-- $\frac{\pi}{6}$ -->
      <g transform="translate(74.895871 321.216942) scale(0.1 -0.1)">
       <defs>
        <path id="CMMI12-19" d="M 1658 2406 
L 2381 2406 
C 2208 1691 2099 1225 2099 715 
C 2099 625 2099 -64 2362 -64 
C 2496 -64 2611 57 2611 166 
C 2611 198 2611 210 2566 306 
C 2394 746 2394 1295 2394 1340 
C 2394 1378 2394 1832 2528 2406 
L 3245 2406 
C 3328 2406 3539 2406 3539 2611 
C 3539 2752 3418 2752 3302 2752 
L 1197 2752 
C 1050 2752 832 2752 538 2438 
C 371 2253 166 1915 166 1876 
C 166 1838 198 1825 237 1825 
C 282 1825 288 1844 320 1883 
C 653 2406 986 2406 1146 2406 
L 1510 2406 
C 1370 1927 1210 1372 685 255 
C 634 153 634 140 634 102 
C 634 -32 749 -64 806 -64 
C 992 -64 1043 102 1120 370 
C 1222 695 1222 708 1286 964 
L 1658 2406 
z
" transform="scale(0.015625)"/>
        <path id="CMR17-36" d="M 678 2198 
C 678 3712 1395 4076 1811 4076 
C 1946 4076 2272 4049 2400 3782 
C 2298 3782 2106 3782 2106 3558 
C 2106 3385 2246 3328 2336 3328 
C 2394 3328 2566 3353 2566 3571 
C 2566 3987 2246 4224 1805 4224 
C 1043 4224 243 3411 243 2011 
C 243 257 966 -128 1478 -128 
C 2099 -128 2688 431 2688 1295 
C 2688 2101 2170 2688 1517 2688 
C 1126 2688 838 2430 678 1979 
L 678 2198 
z
M 1478 25 
C 691 25 691 1212 691 1450 
C 691 1914 909 2585 1504 2585 
C 1613 2585 1926 2585 2138 2140 
C 2253 1889 2253 1624 2253 1302 
C 2253 954 2253 696 2118 438 
C 1978 173 1773 25 1478 25 
z
" transform="scale(0.015625)"/>
       </defs>
       <use xlink:href="#CMMI12-19" transform="translate(0 39.226102) scale(0.697382)"/>
       <use xlink:href="#CMR17-36" transform="translate(4.627027 -34.355253) scale(0.697382)"/>
       <path d="M 0 22.914133 
L 41.237221 22.914133 
L 41.237221 26.899083 
L 0 26.899083 
L 0 22.914133 
z
"/>
      </g>
     </g>
    </g>
    <g id="xtick_3">
     <g id="line2d_3">
      <g>
       <use xlink:href="#m46fc25c709" x="107.699339" y="307.29171" style="stroke: #000000; stroke-width: 0.8"/>
      </g>
     </g>
     <g id="text_3">
      <!-- $\frac{\pi}{3}$ -->
      <g transform="translate(105.244806 321.216942) scale(0.1 -0.1)">
       <defs>
        <path id="CMR17-33" d="M 1414 2176 
C 1984 2176 2234 1673 2234 1094 
C 2234 322 1824 25 1453 25 
C 1114 25 563 193 390 691 
C 422 678 454 678 486 678 
C 640 678 755 780 755 947 
C 755 1132 614 1216 486 1216 
C 378 1216 211 1164 211 927 
C 211 335 787 -128 1466 -128 
C 2176 -128 2720 432 2720 1087 
C 2720 1718 2208 2176 1600 2246 
C 2086 2347 2554 2776 2554 3353 
C 2554 3856 2048 4224 1472 4224 
C 890 4224 378 3862 378 3347 
C 378 3123 544 3084 627 3084 
C 762 3084 877 3167 877 3334 
C 877 3500 762 3584 627 3584 
C 602 3584 570 3584 544 3571 
C 730 3999 1235 4076 1459 4076 
C 1683 4076 2106 3966 2106 3347 
C 2106 3167 2080 2851 1862 2574 
C 1670 2329 1453 2316 1242 2297 
C 1210 2297 1062 2284 1037 2284 
C 992 2278 966 2272 966 2227 
C 966 2182 973 2176 1101 2176 
L 1414 2176 
z
" transform="scale(0.015625)"/>
       </defs>
       <use xlink:href="#CMMI12-19" transform="translate(0 39.226102) scale(0.697382)"/>
       <use xlink:href="#CMR17-33" transform="translate(4.627027 -34.355253) scale(0.697382)"/>
       <path d="M 0 22.914133 
L 41.237221 22.914133 
L 41.237221 26.899083 
L 0 26.899083 
L 0 22.914133 
z
"/>
      </g>
     </g>
    </g>
    <g id="xtick_4">
     <g id="line2d_4">
      <g>
       <use xlink:href="#m46fc25c709" x="138.048274" y="307.29171" style="stroke: #000000; stroke-width: 0.8"/>
      </g>
     </g>
     <g id="text_4">
      <!-- $\frac{\pi}{2}$ -->
      <g transform="translate(135.593741 321.216942) scale(0.1 -0.1)">
       <defs>
        <path id="CMR17-32" d="M 2669 990 
L 2554 990 
C 2490 537 2438 460 2413 422 
C 2381 371 1920 371 1830 371 
L 602 371 
C 832 620 1280 1073 1824 1596 
C 2214 1966 2669 2400 2669 3033 
C 2669 3788 2067 4224 1395 4224 
C 691 4224 262 3603 262 3027 
C 262 2777 448 2745 525 2745 
C 589 2745 781 2783 781 3007 
C 781 3206 614 3264 525 3264 
C 486 3264 448 3257 422 3244 
C 544 3788 915 4057 1306 4057 
C 1862 4057 2227 3616 2227 3033 
C 2227 2477 1901 1998 1536 1583 
L 262 147 
L 262 0 
L 2515 0 
L 2669 990 
z
" transform="scale(0.015625)"/>
       </defs>
       <use xlink:href="#CMMI12-19" transform="translate(0 39.226102) scale(0.697382)"/>
       <use xlink:href="#CMR17-32" transform="translate(4.627027 -34.355253) scale(0.697382)"/>
       <path d="M 0 22.914133 
L 41.237221 22.914133 
L 41.237221 26.899083 
L 0 26.899083 
L 0 22.914133 
z
"/>
      </g>
     </g>
    </g>
    <g id="xtick_5">
     <g id="line2d_5">
      <g>
       <use xlink:href="#m46fc25c709" x="168.397209" y="307.29171" style="stroke: #000000; stroke-width: 0.8"/>
      </g>
     </g>
     <g id="text_5">
      <!-- $\frac{2\pi}{3}$ -->
      <g transform="translate(163.957057 322.708572) scale(0.1 -0.1)">
       <use xlink:href="#CMR17-32" transform="translate(0 39.226102) scale(0.697382)"/>
       <use xlink:href="#CMMI12-19" transform="translate(31.983182 39.226102) scale(0.697382)"/>
       <use xlink:href="#CMR17-33" transform="translate(20.618618 -34.355253) scale(0.697382)"/>
       <path d="M 0 22.914133 
L 73.220403 22.914133 
L 73.220403 26.899083 
L 0 26.899083 
L 0 22.914133 
z
"/>
      </g>
     </g>
    </g>
    <g id="xtick_6">
     <g id="line2d_6">
      <g>
       <use xlink:href="#m46fc25c709" x="198.746144" y="307.29171" style="stroke: #000000; stroke-width: 0.8"/>
      </g>
     </g>
     <g id="text_6">
      <!-- $\frac{5\pi}{6}$ -->
      <g transform="translate(194.305993 322.708572) scale(0.1 -0.1)">
       <defs>
        <path id="CMR17-35" d="M 730 3750 
C 794 3724 1056 3641 1325 3641 
C 1920 3641 2246 3961 2432 4140 
C 2432 4191 2432 4224 2394 4224 
C 2387 4224 2374 4224 2323 4198 
C 2099 4102 1837 4032 1517 4032 
C 1325 4032 1037 4055 723 4191 
C 653 4224 640 4224 634 4224 
C 602 4224 595 4217 595 4090 
L 595 2231 
C 595 2113 595 2080 659 2080 
C 691 2080 704 2093 736 2139 
C 941 2435 1222 2560 1542 2560 
C 1766 2560 2246 2415 2246 1293 
C 2246 1087 2246 716 2054 422 
C 1894 159 1645 25 1370 25 
C 947 25 518 319 403 812 
C 429 806 480 793 506 793 
C 589 793 749 838 749 1036 
C 749 1209 627 1280 506 1280 
C 358 1280 262 1190 262 1011 
C 262 454 704 -128 1382 -128 
C 2042 -128 2669 441 2669 1267 
C 2669 2054 2170 2662 1549 2662 
C 1222 2662 947 2540 730 2304 
L 730 3750 
z
" transform="scale(0.015625)"/>
       </defs>
       <use xlink:href="#CMR17-35" transform="translate(0 39.226102) scale(0.697382)"/>
       <use xlink:href="#CMMI12-19" transform="translate(31.983182 39.226102) scale(0.697382)"/>
       <use xlink:href="#CMR17-36" transform="translate(20.618618 -34.355253) scale(0.697382)"/>
       <path d="M 0 22.914133 
L 73.220403 22.914133 
L 73.220403 26.899083 
L 0 26.899083 
L 0 22.914133 
z
"/>
      </g>
     </g>
    </g>
    <g id="xtick_7">
     <g id="line2d_7">
      <g>
       <use xlink:href="#m46fc25c709" x="229.095079" y="307.29171" style="stroke: #000000; stroke-width: 0.8"/>
      </g>
     </g>
     <g id="text_7">
      <!-- $\pi$ -->
      <g transform="translate(226.255592 321.210208) scale(0.1 -0.1)">
       <use xlink:href="#CMMI12-19" transform="scale(0.996264)"/>
      </g>
     </g>
    </g>
    <g id="text_8">
     <!-- $\phi$ -->
     <g transform="translate(135.080233 337.062582) scale(0.1 -0.1)">
      <defs>
       <path id="CMMI12-1e" d="M 2752 4358 
C 2752 4416 2707 4416 2688 4416 
C 2630 4416 2624 4403 2598 4294 
L 2253 2924 
C 2234 2841 2227 2835 2221 2828 
C 2214 2816 2170 2809 2157 2809 
C 1107 2720 301 1863 301 1071 
C 301 387 832 -32 1498 -71 
C 1446 -266 1402 -467 1350 -662 
C 1261 -995 1210 -1204 1210 -1229 
C 1210 -1242 1210 -1280 1274 -1280 
C 1293 -1280 1318 -1280 1331 -1255 
C 1344 -1242 1382 -1089 1408 -1008 
L 1645 -71 
C 2739 -13 3571 875 3571 1673 
C 3571 2313 3085 2771 2374 2816 
L 2752 4358 
z
M 2336 2688 
C 2758 2662 3181 2428 3181 1806 
C 3181 1090 2675 140 1677 64 
L 2336 2688 
z
M 1530 57 
C 1216 76 691 241 691 938 
C 691 1737 1274 2624 2195 2681 
L 1530 57 
z
" transform="scale(0.015625)"/>
      </defs>
      <use xlink:href="#CMMI12-1e" transform="scale(0.996264)"/>
     </g>
    </g>
   </g>
   <g id="matplotlib.axis_2">
    <g id="ytick_1">
     <g id="line2d_8">
      <defs>
       <path id="mf7879c40f5" d="M 0 0 
L -3.5 0 
" style="stroke: #000000; stroke-width: 0.8"/>
      </defs>
      <g>
       <use xlink:href="#mf7879c40f5" x="37.896788" y="254.821984" style="stroke: #000000; stroke-width: 0.8"/>
      </g>
     </g>
     <g id="text_9">
      <!-- $\mathdefault{10^{0}}$ -->
      <g transform="translate(16.96288 258.281233) scale(0.1 -0.1)">
       <defs>
        <path id="CMR17-31" d="M 1702 4083 
C 1702 4217 1696 4224 1606 4224 
C 1357 3927 979 3833 621 3820 
C 602 3820 570 3820 563 3808 
C 557 3795 557 3782 557 3648 
C 755 3648 1088 3686 1344 3839 
L 1344 467 
C 1344 243 1331 166 781 166 
L 589 166 
L 589 0 
C 896 6 1216 12 1523 12 
C 1830 12 2150 6 2458 0 
L 2458 166 
L 2266 166 
C 1715 166 1702 236 1702 467 
L 1702 4083 
z
" transform="scale(0.015625)"/>
       </defs>
       <use xlink:href="#CMR17-31" transform="scale(0.996264)"/>
       <use xlink:href="#CMR17-30" transform="translate(45.690477 0) scale(0.996264)"/>
       <use xlink:href="#CMR17-30" transform="translate(91.380954 36.153639) scale(0.697382)"/>
      </g>
     </g>
    </g>
    <g id="ytick_2">
     <g id="line2d_9">
      <g>
       <use xlink:href="#mf7879c40f5" x="37.896788" y="170.933734" style="stroke: #000000; stroke-width: 0.8"/>
      </g>
     </g>
     <g id="text_10">
      <!-- $\mathdefault{10^{1}}$ -->
      <g transform="translate(16.96288 174.392984) scale(0.1 -0.1)">
       <use xlink:href="#CMR17-31" transform="scale(0.996264)"/>
       <use xlink:href="#CMR17-30" transform="translate(45.690477 0) scale(0.996264)"/>
       <use xlink:href="#CMR17-31" transform="translate(91.380954 36.153639) scale(0.697382)"/>
      </g>
     </g>
    </g>
    <g id="ytick_3">
     <g id="line2d_10">
      <g>
       <use xlink:href="#mf7879c40f5" x="37.896788" y="87.045485" style="stroke: #000000; stroke-width: 0.8"/>
      </g>
     </g>
     <g id="text_11">
      <!-- $\mathdefault{10^{2}}$ -->
      <g transform="translate(16.96288 90.504734) scale(0.1 -0.1)">
       <use xlink:href="#CMR17-31" transform="scale(0.996264)"/>
       <use xlink:href="#CMR17-30" transform="translate(45.690477 0) scale(0.996264)"/>
       <use xlink:href="#CMR17-32" transform="translate(91.380954 36.153639) scale(0.697382)"/>
      </g>
     </g>
    </g>
    <g id="ytick_4">
     <g id="line2d_11">
      <defs>
       <path id="m27949743c0" d="M 0 0 
L -2 0 
" style="stroke: #000000; stroke-width: 0.6"/>
      </defs>
      <g>
       <use xlink:href="#m27949743c0" x="37.896788" y="298.685366" style="stroke: #000000; stroke-width: 0.6"/>
      </g>
     </g>
    </g>
    <g id="ytick_5">
     <g id="line2d_12">
      <g>
       <use xlink:href="#m27949743c0" x="37.896788" y="288.204474" style="stroke: #000000; stroke-width: 0.6"/>
      </g>
     </g>
    </g>
    <g id="ytick_6">
     <g id="line2d_13">
      <g>
       <use xlink:href="#m27949743c0" x="37.896788" y="280.074863" style="stroke: #000000; stroke-width: 0.6"/>
      </g>
     </g>
    </g>
    <g id="ytick_7">
     <g id="line2d_14">
      <g>
       <use xlink:href="#m27949743c0" x="37.896788" y="273.432487" style="stroke: #000000; stroke-width: 0.6"/>
      </g>
     </g>
    </g>
    <g id="ytick_8">
     <g id="line2d_15">
      <g>
       <use xlink:href="#m27949743c0" x="37.896788" y="267.816438" style="stroke: #000000; stroke-width: 0.6"/>
      </g>
     </g>
    </g>
    <g id="ytick_9">
     <g id="line2d_16">
      <g>
       <use xlink:href="#m27949743c0" x="37.896788" y="262.951595" style="stroke: #000000; stroke-width: 0.6"/>
      </g>
     </g>
    </g>
    <g id="ytick_10">
     <g id="line2d_17">
      <g>
       <use xlink:href="#m27949743c0" x="37.896788" y="258.6605" style="stroke: #000000; stroke-width: 0.6"/>
      </g>
     </g>
    </g>
    <g id="ytick_11">
     <g id="line2d_18">
      <g>
       <use xlink:href="#m27949743c0" x="37.896788" y="229.569104" style="stroke: #000000; stroke-width: 0.6"/>
      </g>
     </g>
    </g>
    <g id="ytick_12">
     <g id="line2d_19">
      <g>
       <use xlink:href="#m27949743c0" x="37.896788" y="214.797117" style="stroke: #000000; stroke-width: 0.6"/>
      </g>
     </g>
    </g>
    <g id="ytick_13">
     <g id="line2d_20">
      <g>
       <use xlink:href="#m27949743c0" x="37.896788" y="204.316225" style="stroke: #000000; stroke-width: 0.6"/>
      </g>
     </g>
    </g>
    <g id="ytick_14">
     <g id="line2d_21">
      <g>
       <use xlink:href="#m27949743c0" x="37.896788" y="196.186614" style="stroke: #000000; stroke-width: 0.6"/>
      </g>
     </g>
    </g>
    <g id="ytick_15">
     <g id="line2d_22">
      <g>
       <use xlink:href="#m27949743c0" x="37.896788" y="189.544238" style="stroke: #000000; stroke-width: 0.6"/>
      </g>
     </g>
    </g>
    <g id="ytick_16">
     <g id="line2d_23">
      <g>
       <use xlink:href="#m27949743c0" x="37.896788" y="183.928189" style="stroke: #000000; stroke-width: 0.6"/>
      </g>
     </g>
    </g>
    <g id="ytick_17">
     <g id="line2d_24">
      <g>
       <use xlink:href="#m27949743c0" x="37.896788" y="179.063346" style="stroke: #000000; stroke-width: 0.6"/>
      </g>
     </g>
    </g>
    <g id="ytick_18">
     <g id="line2d_25">
      <g>
       <use xlink:href="#m27949743c0" x="37.896788" y="174.77225" style="stroke: #000000; stroke-width: 0.6"/>
      </g>
     </g>
    </g>
    <g id="ytick_19">
     <g id="line2d_26">
      <g>
       <use xlink:href="#m27949743c0" x="37.896788" y="145.680855" style="stroke: #000000; stroke-width: 0.6"/>
      </g>
     </g>
    </g>
    <g id="ytick_20">
     <g id="line2d_27">
      <g>
       <use xlink:href="#m27949743c0" x="37.896788" y="130.908868" style="stroke: #000000; stroke-width: 0.6"/>
      </g>
     </g>
    </g>
    <g id="ytick_21">
     <g id="line2d_28">
      <g>
       <use xlink:href="#m27949743c0" x="37.896788" y="120.427976" style="stroke: #000000; stroke-width: 0.6"/>
      </g>
     </g>
    </g>
    <g id="ytick_22">
     <g id="line2d_29">
      <g>
       <use xlink:href="#m27949743c0" x="37.896788" y="112.298364" style="stroke: #000000; stroke-width: 0.6"/>
      </g>
     </g>
    </g>
    <g id="ytick_23">
     <g id="line2d_30">
      <g>
       <use xlink:href="#m27949743c0" x="37.896788" y="105.655988" style="stroke: #000000; stroke-width: 0.6"/>
      </g>
     </g>
    </g>
    <g id="ytick_24">
     <g id="line2d_31">
      <g>
       <use xlink:href="#m27949743c0" x="37.896788" y="100.039939" style="stroke: #000000; stroke-width: 0.6"/>
      </g>
     </g>
    </g>
    <g id="ytick_25">
     <g id="line2d_32">
      <g>
       <use xlink:href="#m27949743c0" x="37.896788" y="95.175096" style="stroke: #000000; stroke-width: 0.6"/>
      </g>
     </g>
    </g>
    <g id="ytick_26">
     <g id="line2d_33">
      <g>
       <use xlink:href="#m27949743c0" x="37.896788" y="90.884001" style="stroke: #000000; stroke-width: 0.6"/>
      </g>
     </g>
    </g>
    <g id="ytick_27">
     <g id="line2d_34">
      <g>
       <use xlink:href="#m27949743c0" x="37.896788" y="61.792606" style="stroke: #000000; stroke-width: 0.6"/>
      </g>
     </g>
    </g>
    <g id="text_12">
     <!-- $\sigma / \lambda$ -->
     <g transform="translate(10.47222 190.022862) rotate(-90) scale(0.1 -0.1)">
      <defs>
       <path id="CMMI12-1b" d="M 3251 2406 
C 3334 2406 3546 2406 3546 2611 
C 3546 2752 3424 2752 3309 2752 
L 1894 2752 
C 934 2752 243 1685 243 932 
C 243 389 595 -64 1171 -64 
C 1926 -64 2752 746 2752 1704 
C 2752 1953 2694 2195 2541 2406 
L 3251 2406 
z
M 1178 64 
C 851 64 614 312 614 753 
C 614 1136 845 2406 1786 2406 
C 2061 2406 2368 2272 2368 1780 
C 2368 1557 2266 1021 2042 651 
C 1811 274 1466 64 1178 64 
z
" transform="scale(0.015625)"/>
       <path id="CMMI12-3d" d="M 2746 4563 
C 2746 4569 2784 4665 2784 4678 
C 2784 4755 2720 4800 2669 4800 
C 2637 4800 2579 4800 2528 4659 
L 384 -1364 
C 384 -1370 346 -1466 346 -1479 
C 346 -1556 410 -1600 461 -1600 
C 499 -1600 557 -1594 602 -1460 
L 2746 4563 
z
" transform="scale(0.015625)"/>
       <path id="CMMI12-15" d="M 1978 3963 
C 1818 4416 1312 4416 1229 4416 
C 1190 4416 1120 4416 1120 4351 
C 1120 4300 1158 4294 1190 4287 
C 1286 4275 1363 4262 1466 4078 
C 1530 3957 2189 2055 2189 2042 
C 2189 2036 2182 2029 2131 1978 
L 467 305 
C 390 229 339 178 339 95 
C 339 6 416 -71 518 -71 
C 544 -71 614 -58 653 -20 
C 755 76 1670 1190 2253 1877 
C 2419 1380 2624 795 2822 261 
C 2854 165 2886 76 2976 -7 
C 3040 -64 3053 -64 3232 -64 
L 3354 -64 
C 3379 -64 3424 -64 3424 -13 
C 3424 12 3418 19 3392 44 
C 3334 114 3290 229 3264 305 
L 1978 3963 
z
" transform="scale(0.015625)"/>
      </defs>
      <use xlink:href="#CMMI12-1b" transform="scale(0.996264)"/>
      <use xlink:href="#CMMI12-3d" transform="translate(59.020054 0) scale(0.996264)"/>
      <use xlink:href="#CMMI12-15" transform="translate(107.794972 0) scale(0.996264)"/>
     </g>
    </g>
   </g>
   <g id="line2d_35">
    <path d="M 47.001469 283.564038 
L 57.11778 283.673409 
L 67.234092 283.99719 
L 78.362035 284.585424 
L 90.501609 285.471675 
L 103.652814 286.662237 
L 121.862175 288.561242 
L 155.246004 292.092414 
L 170.420472 293.443756 
L 183.571677 294.397604 
L 196.722882 295.12134 
L 208.862456 295.574641 
L 221.00203 295.818818 
L 229.095079 295.865309 
L 229.095079 295.865309 
" clip-path="url(#p374773c44c)" style="fill: none; stroke: #000000; stroke-width: 0.75; stroke-linecap: square"/>
   </g>
   <g id="line2d_36">
    <path d="M 47.001469 256.634077 
L 53.071256 256.748897 
L 59.141043 257.091276 
L 65.21083 257.654968 
L 71.280617 258.429547 
L 78.362035 259.580034 
L 85.443453 260.967167 
L 93.536503 262.793475 
L 103.652814 265.338085 
L 135.013381 273.463968 
L 143.10643 275.239351 
L 151.199479 276.77409 
L 158.280898 277.90202 
L 165.362316 278.828041 
L 173.455365 279.65294 
L 181.548414 280.257049 
L 190.653095 280.719608 
L 201.781038 281.052667 
L 215.943874 281.242288 
L 229.095079 281.286793 
L 229.095079 281.286793 
" clip-path="url(#p374773c44c)" style="fill: none; stroke: #ff0000; stroke-width: 0.75; stroke-linecap: square"/>
   </g>
   <g id="line2d_37">
    <path d="M 47.001469 175.858842 
L 49.024731 176.043933 
L 51.047993 176.598829 
L 53.071256 177.522341 
L 55.094518 178.812299 
L 57.11778 180.465241 
L 59.141043 182.475959 
L 61.164305 184.836855 
L 63.187567 187.537065 
L 65.21083 190.561322 
L 67.234092 193.88849 
L 70.268986 199.381603 
L 73.303879 205.348436 
L 82.40856 223.64833 
L 84.431822 227.156913 
L 86.455084 230.234903 
L 88.478347 232.80917 
L 90.501609 234.844527 
L 92.524871 236.348993 
L 94.548134 237.370696 
L 96.571396 237.987507 
L 98.594658 238.293023 
L 100.617921 238.382974 
L 104.664445 238.251564 
L 109.722601 238.102568 
L 112.757495 238.200181 
L 116.80402 238.578007 
L 122.873807 239.466211 
L 128.943594 240.28469 
L 132.990118 240.57712 
L 137.036643 240.599039 
L 141.083168 240.363129 
L 146.141323 239.79475 
L 155.246004 238.441462 
L 164.350685 237.162682 
L 173.455365 236.128255 
L 185.594939 234.996925 
L 199.757776 233.888573 
L 210.885718 233.243191 
L 219.990399 232.92318 
L 229.095079 232.814549 
L 229.095079 232.814549 
" clip-path="url(#p374773c44c)" style="fill: none; stroke: #0000ff; stroke-width: 0.75; stroke-linecap: square"/>
   </g>
   <g id="line2d_38">
    <path d="M 47.001469 135.452758 
L 48.0131 135.606898 
L 49.024731 136.069258 
L 50.036362 136.83963 
L 51.047993 137.917578 
L 52.059625 139.302298 
L 53.071256 140.992403 
L 54.082887 142.985623 
L 55.094518 145.278396 
L 57.11778 150.738426 
L 59.141043 157.292764 
L 61.164305 164.785203 
L 65.21083 181.27951 
L 67.234092 189.165314 
L 69.257355 195.842616 
L 70.268986 198.532927 
L 71.280617 200.738806 
L 72.292248 202.466373 
L 73.303879 203.757557 
L 74.31551 204.68251 
L 75.327142 205.328361 
L 77.350404 206.148039 
L 79.373666 206.867369 
L 81.396929 207.926918 
L 82.40856 208.657392 
L 84.431822 210.552939 
L 86.455084 212.950011 
L 91.51324 219.569105 
L 93.536503 221.664063 
L 94.548134 222.466703 
L 95.559765 223.088341 
L 96.571396 223.529371 
L 97.583027 223.800597 
L 98.594658 223.921508 
L 100.617921 223.81884 
L 103.652814 223.242626 
L 106.687708 222.735153 
L 108.71097 222.608464 
L 110.734233 222.6667 
L 114.780757 223.113668 
L 117.815651 223.411094 
L 119.838913 223.456589 
L 121.862175 223.340608 
L 124.897069 222.881316 
L 128.943594 221.937053 
L 135.013381 220.496492 
L 140.071536 219.569522 
L 150.187848 217.820849 
L 170.420472 213.890255 
L 180.536783 212.350258 
L 190.653095 211.015313 
L 198.746144 210.156583 
L 206.839194 209.506953 
L 215.943874 209.015472 
L 224.036924 208.788311 
L 229.095079 208.748586 
L 229.095079 208.748586 
" clip-path="url(#p374773c44c)" style="fill: none; stroke: #00bfbf; stroke-width: 0.75; stroke-linecap: square"/>
   </g>
   <g id="line2d_39">
    <path d="M 47.001469 96.062128 
L 48.0131 96.558514 
L 49.024731 98.043 
L 50.036362 100.500038 
L 51.047993 103.898401 
L 52.059625 108.182446 
L 53.071256 113.25873 
L 55.094518 125.115689 
L 57.11778 137.325931 
L 58.129412 142.619836 
L 59.141043 146.949612 
L 60.152674 150.237655 
L 61.164305 152.655805 
L 64.199199 158.357682 
L 65.21083 160.86708 
L 66.222461 163.996673 
L 67.234092 167.758762 
L 69.257355 176.631161 
L 71.280617 185.284173 
L 72.292248 188.587434 
L 73.303879 190.881981 
L 74.31551 192.205363 
L 75.327142 192.814367 
L 77.350404 193.336602 
L 78.362035 193.862524 
L 79.373666 194.794673 
L 80.385297 196.159372 
L 82.40856 199.799618 
L 84.431822 203.37556 
L 85.443453 204.631778 
L 86.455084 205.386247 
L 87.466716 205.663729 
L 88.478347 205.584539 
L 91.51324 204.881437 
L 92.524871 204.920572 
L 93.536503 205.176312 
L 95.559765 206.158719 
L 97.583027 207.185427 
L 98.594658 207.495026 
L 99.60629 207.603964 
L 100.617921 207.514928 
L 102.641183 206.924509 
L 104.664445 206.216907 
L 106.687708 205.775913 
L 108.71097 205.647241 
L 111.745864 205.530612 
L 113.769126 205.165368 
L 115.792388 204.539547 
L 119.838913 203.149814 
L 122.873807 202.386803 
L 126.920331 201.42438 
L 130.966856 200.150797 
L 136.025012 198.568575 
L 156.257635 193.056608 
L 166.373947 190.669473 
L 174.466996 189.033265 
L 182.560046 187.606122 
L 190.653095 186.419335 
L 198.746144 185.458341 
L 206.839194 184.726705 
L 214.932243 184.222408 
L 223.025292 183.942089 
L 229.095079 183.879101 
L 229.095079 183.879101 
" clip-path="url(#p374773c44c)" style="fill: none; stroke: #bf00bf; stroke-width: 0.75; stroke-linecap: square"/>
   </g>
   <g id="line2d_40">
    <path d="M 47.001469 67.337296 
L 48.0131 68.422468 
L 49.024731 71.444392 
L 52.059625 83.860644 
L 55.094518 92.279301 
L 56.106149 97.262055 
L 57.11778 104.221919 
L 59.141043 121.037604 
L 60.152674 127.761073 
L 61.164305 132.123704 
L 62.175936 135.23597 
L 63.187567 138.875488 
L 64.199199 144.117714 
L 66.222461 157.535323 
L 67.234092 162.463968 
L 68.245723 164.889264 
L 69.257355 166.022592 
L 70.268986 167.648845 
L 71.280617 170.682787 
L 73.303879 178.622735 
L 74.31551 180.905443 
L 75.327142 181.491954 
L 76.338773 181.482713 
L 77.350404 182.078896 
L 78.362035 183.707049 
L 79.373666 185.899602 
L 80.385297 187.705028 
L 81.396929 188.441562 
L 82.40856 188.259787 
L 83.420191 187.913046 
L 84.431822 188.06183 
L 85.443453 188.834408 
L 86.455084 189.840117 
L 87.466716 190.509723 
L 88.478347 190.544739 
L 90.501609 189.695502 
L 91.51324 189.591417 
L 94.548134 190.238227 
L 95.559765 189.980671 
L 97.583027 189.044222 
L 98.594658 188.777504 
L 101.629552 188.446981 
L 103.652814 187.588392 
L 105.676077 186.756615 
L 108.71097 185.924566 
L 128.943594 177.769887 
L 143.10643 172.602063 
L 151.199479 170.014567 
L 159.292529 167.709473 
L 166.373947 165.924693 
L 173.455365 164.352164 
L 180.536783 162.985133 
L 188.629833 161.666947 
L 196.722882 160.601137 
L 204.815931 159.780197 
L 212.908981 159.198083 
L 221.00203 158.850486 
L 229.095079 158.734892 
L 229.095079 158.734892 
" clip-path="url(#p374773c44c)" style="fill: none; stroke: #696969; stroke-width: 0.75; stroke-linecap: square"/>
   </g>
   <g id="line2d_41">
    <path d="M 47.001469 283.163235 
L 58.129412 283.293511 
L 68.245723 283.615748 
L 79.373666 284.216669 
L 90.501609 285.04043 
L 102.641183 286.16704 
L 117.815651 287.800216 
L 147.152955 291.038214 
L 159.292529 292.115283 
L 169.40884 292.805046 
L 180.536783 293.322118 
L 192.676357 293.64969 
L 210.885718 293.851311 
L 229.095079 293.860049 
L 229.095079 293.860049 
" clip-path="url(#p374773c44c)" style="fill: none; stroke-dasharray: 2.775,1.2; stroke-dashoffset: 0; stroke: #000000; stroke-width: 0.75"/>
   </g>
   <g id="line2d_42">
    <path d="M 47.001469 255.729011 
L 56.106149 255.843914 
L 64.199199 256.204456 
L 70.268986 256.679315 
L 76.338773 257.389162 
L 81.396929 258.173304 
L 86.455084 259.163923 
L 92.524871 260.623808 
L 98.594658 262.341713 
L 106.687708 264.949185 
L 127.931962 271.985945 
L 135.013381 273.973593 
L 140.071536 275.230053 
L 147.152955 276.778286 
L 154.234373 278.115072 
L 163.339053 279.585976 
L 171.432103 280.599894 
L 178.513521 281.286734 
L 189.641464 282.086303 
L 205.827563 282.991251 
L 226.060186 283.754888 
L 229.095079 283.806006 
L 229.095079 283.806006 
" clip-path="url(#p374773c44c)" style="fill: none; stroke-dasharray: 2.775,1.2; stroke-dashoffset: 0; stroke: #ff0000; stroke-width: 0.75"/>
   </g>
   <g id="line2d_43">
    <path d="M 47.001469 175.726239 
L 48.0131 175.785366 
L 49.024731 175.956775 
L 51.047993 176.668994 
L 53.071256 177.783246 
L 55.094518 179.235451 
L 57.11778 181.008336 
L 59.141043 183.091041 
L 61.164305 185.457624 
L 63.187567 188.081395 
L 65.21083 190.973234 
L 67.234092 194.15346 
L 69.257355 197.614905 
L 72.292248 203.340128 
L 75.327142 209.524696 
L 81.396929 222.351508 
L 83.420191 226.325882 
L 85.443453 229.936536 
L 87.466716 232.961649 
L 88.478347 234.19183 
L 89.489978 235.215508 
L 90.501609 236.011106 
L 91.51324 236.583536 
L 92.524871 236.979876 
L 94.548134 237.292968 
L 100.617921 237.346114 
L 102.641183 237.726534 
L 106.687708 238.892854 
L 108.71097 239.414103 
L 110.734233 239.651505 
L 112.757495 239.612588 
L 113.769126 239.583881 
L 116.80402 239.087711 
L 118.827282 239.031885 
L 120.850544 239.070261 
L 124.897069 239.877921 
L 129.955225 241.127804 
L 131.978487 241.210651 
L 145.129692 240.243452 
L 148.164586 239.707808 
L 153.222742 238.649116 
L 156.257635 238.37669 
L 164.350685 238.175104 
L 166.373947 237.795541 
L 169.40884 236.906217 
L 174.466996 235.330339 
L 176.490259 234.976709 
L 178.513521 234.878245 
L 181.548414 235.163452 
L 184.583308 235.568528 
L 186.60657 235.703907 
L 189.641464 235.590704 
L 197.734513 234.88176 
L 199.757776 234.898015 
L 205.827563 234.84399 
L 208.862456 234.419335 
L 212.908981 233.718617 
L 215.943874 233.449767 
L 217.967137 233.413594 
L 219.990399 233.505786 
L 223.025292 233.783064 
L 227.071817 234.210979 
L 229.095079 234.257133 
L 229.095079 234.257133 
" clip-path="url(#p374773c44c)" style="fill: none; stroke-dasharray: 2.775,1.2; stroke-dashoffset: 0; stroke: #0000ff; stroke-width: 0.75"/>
   </g>
   <g id="line2d_44">
    <path d="M 47.001469 135.655163 
L 48.0131 135.815141 
L 49.024731 136.291893 
L 50.036362 137.08796 
L 51.047993 138.214072 
L 52.059625 139.600416 
L 53.071256 141.289297 
L 54.082887 143.311506 
L 56.106149 148.272134 
L 58.129412 154.403595 
L 60.152674 161.535238 
L 63.187567 173.725742 
L 67.234092 190.32906 
L 68.245723 193.903152 
L 69.257355 197.022379 
L 70.268986 199.634849 
L 71.280617 201.79108 
L 72.292248 203.366232 
L 73.303879 204.567279 
L 74.31551 205.403469 
L 76.338773 206.501959 
L 79.373666 207.903281 
L 81.396929 208.963324 
L 83.420191 210.494135 
L 85.443453 212.474112 
L 86.455084 213.705914 
L 91.51324 221.100053 
L 92.524871 222.185854 
L 93.536503 223.06429 
L 94.548134 223.660469 
L 95.559765 224.047619 
L 96.571396 224.254048 
L 101.629552 224.444374 
L 102.641183 224.394325 
L 103.652814 224.534333 
L 106.687708 224.422305 
L 111.745864 223.776132 
L 113.769126 223.560412 
L 122.873807 223.336315 
L 123.885438 223.283312 
L 125.9087 222.887016 
L 128.943594 222.163024 
L 130.966856 221.764974 
L 136.025012 220.493777 
L 146.141323 218.417613 
L 153.222742 216.926327 
L 155.246004 216.539387 
L 157.269266 216.288661 
L 159.292529 215.869181 
L 161.315791 215.676571 
L 163.339053 215.712855 
L 166.373947 215.497322 
L 171.432103 214.285213 
L 173.455365 214.132712 
L 174.466996 214.267889 
L 175.478627 214.539466 
L 177.50189 214.800739 
L 178.513521 214.801682 
L 180.536783 214.414105 
L 185.594939 212.936933 
L 187.618201 212.807873 
L 193.687988 212.675376 
L 196.722882 212.308031 
L 199.757776 211.466585 
L 202.792669 210.446585 
L 203.8043 210.234098 
L 214.932243 209.762548 
L 219.990399 209.220604 
L 227.071817 208.900232 
L 229.095079 208.868055 
L 229.095079 208.868055 
" clip-path="url(#p374773c44c)" style="fill: none; stroke-dasharray: 2.775,1.2; stroke-dashoffset: 0; stroke: #00bfbf; stroke-width: 0.75"/>
   </g>
   <g id="line2d_45">
    <path d="M 47.001469 96.180264 
L 48.0131 96.684827 
L 49.024731 98.205014 
L 50.036362 100.775531 
L 51.047993 104.18919 
L 52.059625 108.582072 
L 53.071256 113.767824 
L 55.094518 125.763402 
L 57.11778 138.006534 
L 58.129412 143.231915 
L 59.141043 147.447095 
L 60.152674 150.648634 
L 61.164305 153.070113 
L 63.187567 156.811029 
L 64.199199 158.954138 
L 65.21083 161.626867 
L 66.222461 164.888925 
L 67.234092 168.807005 
L 71.280617 186.468692 
L 72.292248 189.670109 
L 73.303879 191.849436 
L 74.31551 193.14615 
L 75.327142 193.700718 
L 77.350404 194.268973 
L 78.362035 194.818877 
L 79.373666 195.808491 
L 80.385297 197.269734 
L 81.396929 198.933546 
L 83.420191 202.77868 
L 84.431822 204.506857 
L 85.443453 205.781502 
L 86.455084 206.508189 
L 87.466716 206.861408 
L 88.478347 206.818358 
L 91.51324 206.116406 
L 92.524871 206.189853 
L 93.536503 206.382708 
L 95.559765 207.342672 
L 96.571396 207.897475 
L 98.594658 208.695962 
L 99.60629 208.862985 
L 100.617921 208.821808 
L 102.641183 208.29532 
L 105.676077 207.122648 
L 107.699339 206.758906 
L 110.734233 206.320494 
L 113.769126 206.188668 
L 115.792388 205.535589 
L 120.850544 202.911697 
L 121.862175 202.507176 
L 122.873807 202.269805 
L 123.885438 201.888931 
L 127.931962 200.863795 
L 137.036643 197.551451 
L 145.129692 194.902578 
L 146.141323 194.464846 
L 151.199479 193.102808 
L 152.21111 193.09043 
L 153.222742 192.724971 
L 155.246004 192.483983 
L 156.257635 192.302539 
L 157.269266 191.986827 
L 162.327422 191.244499 
L 168.397209 190.678064 
L 172.443734 190.798388 
L 174.466996 190.624917 
L 177.50189 190.638799 
L 181.548414 190.355945 
L 185.594939 189.682392 
L 189.641464 188.962242 
L 191.664726 188.296293 
L 192.676357 188.063718 
L 196.722882 187.846278 
L 197.734513 187.56291 
L 199.757776 186.662672 
L 200.769407 186.316721 
L 206.839194 185.451383 
L 207.850825 185.159506 
L 208.862456 184.617573 
L 210.885718 184.06608 
L 212.908981 183.719151 
L 213.920612 183.678674 
L 214.932243 183.757472 
L 215.943874 183.646048 
L 217.967137 183.822838 
L 218.978768 183.781433 
L 221.00203 183.892191 
L 226.060186 184.142233 
L 229.095079 184.195674 
L 229.095079 184.195674 
" clip-path="url(#p374773c44c)" style="fill: none; stroke-dasharray: 2.775,1.2; stroke-dashoffset: 0; stroke: #bf00bf; stroke-width: 0.75"/>
   </g>
   <g id="line2d_46">
    <path d="M 47.001469 67.810483 
L 48.0131 68.943362 
L 49.024731 71.95862 
L 51.047993 80.408852 
L 52.059625 83.902253 
L 54.082887 88.907387 
L 55.094518 92.373166 
L 56.106149 97.68712 
L 57.11778 104.90739 
L 59.141043 121.787286 
L 60.152674 128.199006 
L 61.164305 132.310119 
L 62.175936 135.465684 
L 63.187567 139.476103 
L 64.199199 145.190245 
L 66.222461 158.737892 
L 67.234092 163.208054 
L 68.245723 165.27972 
L 69.257355 166.460882 
L 70.268986 168.390695 
L 71.280617 171.772533 
L 72.292248 176.002514 
L 73.303879 179.672115 
L 74.31551 181.701294 
L 75.327142 182.066918 
L 76.338773 182.112675 
L 77.350404 182.888885 
L 78.362035 184.722821 
L 79.373666 186.910454 
L 80.385297 188.641073 
L 81.396929 189.277187 
L 83.420191 188.769964 
L 84.431822 188.984077 
L 85.443453 189.819424 
L 86.455084 190.851621 
L 87.466716 191.469402 
L 88.478347 191.48036 
L 90.501609 190.609621 
L 91.51324 190.470345 
L 94.548134 191.12083 
L 95.559765 190.890334 
L 97.583027 189.901142 
L 98.594658 189.588163 
L 101.629552 189.230689 
L 102.641183 188.898092 
L 105.676077 187.407606 
L 108.71097 186.643995 
L 110.734233 185.801301 
L 112.757495 184.835737 
L 116.80402 183.395257 
L 122.873807 180.977876 
L 125.9087 179.506025 
L 128.943594 177.980189 
L 135.013381 175.39146 
L 136.025012 175.096595 
L 140.071536 172.947829 
L 144.118061 171.444962 
L 148.164586 170.577842 
L 150.187848 170.140137 
L 153.222742 169.428227 
L 154.234373 169.036098 
L 155.246004 168.781865 
L 156.257635 168.396183 
L 159.292529 167.63089 
L 160.30416 167.590418 
L 161.315791 167.434169 
L 164.350685 167.449434 
L 166.373947 166.950547 
L 168.397209 166.172743 
L 169.40884 165.530757 
L 172.443734 164.144693 
L 174.466996 163.852543 
L 176.490259 163.988609 
L 177.50189 164.201191 
L 183.571677 164.754832 
L 185.594939 164.695057 
L 186.60657 164.529748 
L 188.629833 163.786479 
L 193.687988 161.105134 
L 194.69962 160.83839 
L 195.711251 160.763319 
L 199.757776 161.005779 
L 200.769407 160.89992 
L 202.792669 160.139232 
L 204.815931 159.11192 
L 206.839194 158.478898 
L 207.850825 158.342953 
L 208.862456 158.35219 
L 210.885718 158.882785 
L 211.89735 159.264712 
L 212.908981 159.512055 
L 213.920612 159.557558 
L 215.943874 159.093256 
L 218.978768 158.232428 
L 219.990399 158.005821 
L 222.013661 158.223315 
L 223.025292 158.532039 
L 225.048555 159.543418 
L 227.071817 160.595028 
L 228.083448 160.892381 
L 229.095079 161.014458 
L 229.095079 161.014458 
" clip-path="url(#p374773c44c)" style="fill: none; stroke-dasharray: 2.775,1.2; stroke-dashoffset: 0; stroke: #696969; stroke-width: 0.75"/>
   </g>
   <g id="patch_3">
    <path d="M 37.896788 307.29171 
L 37.896788 55.910895 
" style="fill: none; stroke: #000000; stroke-width: 0.8; stroke-linejoin: miter; stroke-linecap: square"/>
   </g>
   <g id="patch_4">
    <path d="M 238.19976 307.29171 
L 238.19976 55.910895 
" style="fill: none; stroke: #000000; stroke-width: 0.8; stroke-linejoin: miter; stroke-linecap: square"/>
   </g>
   <g id="patch_5">
    <path d="M 37.896788 307.29171 
L 238.19976 307.29171 
" style="fill: none; stroke: #000000; stroke-width: 0.8; stroke-linejoin: miter; stroke-linecap: square"/>
   </g>
   <g id="patch_6">
    <path d="M 37.896788 55.910895 
L 238.19976 55.910895 
" style="fill: none; stroke: #000000; stroke-width: 0.8; stroke-linejoin: miter; stroke-linecap: square"/>
   </g>
   <g id="axes_2">
    <g id="patch_7">
     <path d="M 87.972531 131.32514 
L 230.187641 131.32514 
L 230.187641 63.45232 
L 87.972531 63.45232 
z
" style="fill: #ffffff"/>
    </g>
    <g id="matplotlib.axis_3">
     <g id="xtick_8">
      <g id="line2d_47">
       <g>
        <use xlink:href="#m46fc25c709" x="94.436854" y="131.32514" style="stroke: #000000; stroke-width: 0.8"/>
       </g>
      </g>
      <g id="text_13">
       <!-- $\mathdefault{2}$ -->
       <g transform="translate(91.946187 145.243638) scale(0.1 -0.1)">
        <use xlink:href="#CMR17-32" transform="scale(0.996264)"/>
       </g>
      </g>
     </g>
     <g id="xtick_9">
      <g id="line2d_48">
       <g>
        <use xlink:href="#m46fc25c709" x="137.532342" y="131.32514" style="stroke: #000000; stroke-width: 0.8"/>
       </g>
      </g>
      <g id="text_14">
       <!-- $\mathdefault{3}$ -->
       <g transform="translate(135.041675 145.243638) scale(0.1 -0.1)">
        <use xlink:href="#CMR17-33" transform="scale(0.996264)"/>
       </g>
      </g>
     </g>
     <g id="xtick_10">
      <g id="line2d_49">
       <g>
        <use xlink:href="#m46fc25c709" x="180.62783" y="131.32514" style="stroke: #000000; stroke-width: 0.8"/>
       </g>
      </g>
      <g id="text_15">
       <!-- $\mathdefault{4}$ -->
       <g transform="translate(178.137162 145.243638) scale(0.1 -0.1)">
        <defs>
         <path id="CMR17-34" d="M 2150 4147 
C 2150 4281 2144 4288 2029 4288 
L 128 1254 
L 128 1088 
L 1779 1088 
L 1779 460 
C 1779 230 1766 166 1318 166 
L 1197 166 
L 1197 0 
C 1402 12 1747 12 1965 12 
C 2182 12 2528 12 2733 0 
L 2733 166 
L 2611 166 
C 2163 166 2150 230 2150 460 
L 2150 1088 
L 2803 1088 
L 2803 1254 
L 2150 1254 
L 2150 4147 
z
M 1798 3723 
L 1798 1254 
L 256 1254 
L 1798 3723 
z
" transform="scale(0.015625)"/>
        </defs>
        <use xlink:href="#CMR17-34" transform="scale(0.996264)"/>
       </g>
      </g>
     </g>
     <g id="xtick_11">
      <g id="line2d_50">
       <g>
        <use xlink:href="#m46fc25c709" x="223.723318" y="131.32514" style="stroke: #000000; stroke-width: 0.8"/>
       </g>
      </g>
      <g id="text_16">
       <!-- $\mathdefault{5}$ -->
       <g transform="translate(221.23265 145.243638) scale(0.1 -0.1)">
        <use xlink:href="#CMR17-35" transform="scale(0.996264)"/>
       </g>
      </g>
     </g>
     <g id="text_17">
      <!-- $r/a$ -->
      <g transform="translate(151.570611 158.652796) scale(0.1 -0.1)">
       <defs>
        <path id="CMMI12-72" d="M 2490 2633 
C 2291 2598 2189 2457 2189 2316 
C 2189 2163 2310 2111 2400 2111 
C 2579 2111 2726 2265 2726 2457 
C 2726 2651 2528 2816 2208 2816 
C 1952 2816 1658 2700 1389 2335 
C 1344 2660 1088 2816 832 2816 
C 582 2816 454 2642 378 2508 
C 269 2278 173 1892 173 1860 
C 173 1834 198 1801 243 1801 
C 294 1801 301 1808 339 1957 
C 435 2342 557 2687 813 2687 
C 966 2687 1011 2604 1011 2419 
C 1011 2278 947 2028 902 1827 
L 723 1130 
C 698 1007 627 716 595 600 
C 550 432 480 128 480 96 
C 480 6 550 -64 646 -64 
C 717 -64 838 -20 877 109 
C 896 160 1133 1136 1171 1285 
C 1203 1427 1242 1562 1274 1705 
C 1299 1795 1325 1898 1344 1982 
C 1363 2040 1536 2355 1696 2495 
C 1773 2566 1939 2687 2202 2687 
C 2304 2687 2406 2674 2490 2633 
z
" transform="scale(0.015625)"/>
        <path id="CMMI12-61" d="M 1926 759 
C 1894 651 1894 638 1805 517 
C 1664 338 1382 64 1082 64 
C 819 64 672 300 672 676 
C 672 1028 870 1743 992 2011 
C 1210 2458 1510 2687 1760 2687 
C 2182 2687 2266 2164 2266 2113 
C 2266 2107 2246 2024 2240 2011 
L 1926 759 
z
M 2336 2394 
C 2266 2560 2093 2816 1760 2816 
C 1037 2816 256 1883 256 938 
C 256 306 627 -64 1062 -64 
C 1414 -64 1715 210 1894 421 
C 1958 44 2259 -64 2451 -64 
C 2643 -64 2797 51 2912 280 
C 3014 496 3104 885 3104 910 
C 3104 942 3078 968 3040 968 
C 2982 968 2976 936 2950 840 
C 2854 465 2733 64 2470 64 
C 2285 64 2272 229 2272 356 
C 2272 503 2291 573 2349 821 
C 2394 980 2426 1120 2477 1305 
C 2714 2260 2771 2489 2771 2528 
C 2771 2617 2701 2688 2605 2688 
C 2400 2688 2349 2464 2336 2388 
L 2336 2394 
z
" transform="scale(0.015625)"/>
       </defs>
       <use xlink:href="#CMMI12-72" transform="scale(0.996264)"/>
       <use xlink:href="#CMMI12-3d" transform="translate(46.670612 0) scale(0.996264)"/>
       <use xlink:href="#CMMI12-61" transform="translate(95.445531 0) scale(0.996264)"/>
      </g>
     </g>
    </g>
    <g id="matplotlib.axis_4">
     <g id="ytick_28">
      <g id="line2d_51">
       <g>
        <use xlink:href="#mf7879c40f5" x="87.972531" y="110.547643" style="stroke: #000000; stroke-width: 0.8"/>
       </g>
      </g>
      <g id="text_18">
       <!-- $\mathdefault{10^{0}}$ -->
       <g transform="translate(67.038623 114.006893) scale(0.1 -0.1)">
        <use xlink:href="#CMR17-31" transform="scale(0.996264)"/>
        <use xlink:href="#CMR17-30" transform="translate(45.690477 0) scale(0.996264)"/>
        <use xlink:href="#CMR17-30" transform="translate(91.380954 36.153639) scale(0.697382)"/>
       </g>
      </g>
     </g>
     <g id="ytick_29">
      <g id="line2d_52">
       <g>
        <use xlink:href="#mf7879c40f5" x="87.972531" y="74.611043" style="stroke: #000000; stroke-width: 0.8"/>
       </g>
      </g>
      <g id="text_19">
       <!-- $\mathdefault{10^{1}}$ -->
       <g transform="translate(67.038623 78.070292) scale(0.1 -0.1)">
        <use xlink:href="#CMR17-31" transform="scale(0.996264)"/>
        <use xlink:href="#CMR17-30" transform="translate(45.690477 0) scale(0.996264)"/>
        <use xlink:href="#CMR17-31" transform="translate(91.380954 36.153639) scale(0.697382)"/>
       </g>
      </g>
     </g>
     <g id="ytick_30">
      <g id="line2d_53">
       <g>
        <use xlink:href="#m27949743c0" x="87.972531" y="129.338128" style="stroke: #000000; stroke-width: 0.6"/>
       </g>
      </g>
     </g>
     <g id="ytick_31">
      <g id="line2d_54">
       <g>
        <use xlink:href="#m27949743c0" x="87.972531" y="124.848255" style="stroke: #000000; stroke-width: 0.6"/>
       </g>
      </g>
     </g>
     <g id="ytick_32">
      <g id="line2d_55">
       <g>
        <use xlink:href="#m27949743c0" x="87.972531" y="121.365638" style="stroke: #000000; stroke-width: 0.6"/>
       </g>
      </g>
     </g>
     <g id="ytick_33">
      <g id="line2d_56">
       <g>
        <use xlink:href="#m27949743c0" x="87.972531" y="118.520133" style="stroke: #000000; stroke-width: 0.6"/>
       </g>
      </g>
     </g>
     <g id="ytick_34">
      <g id="line2d_57">
       <g>
        <use xlink:href="#m27949743c0" x="87.972531" y="116.114293" style="stroke: #000000; stroke-width: 0.6"/>
       </g>
      </g>
     </g>
     <g id="ytick_35">
      <g id="line2d_58">
       <g>
        <use xlink:href="#m27949743c0" x="87.972531" y="114.03026" style="stroke: #000000; stroke-width: 0.6"/>
       </g>
      </g>
     </g>
     <g id="ytick_36">
      <g id="line2d_59">
       <g>
        <use xlink:href="#m27949743c0" x="87.972531" y="112.192012" style="stroke: #000000; stroke-width: 0.6"/>
       </g>
      </g>
     </g>
     <g id="ytick_37">
      <g id="line2d_60">
       <g>
        <use xlink:href="#m27949743c0" x="87.972531" y="99.729649" style="stroke: #000000; stroke-width: 0.6"/>
       </g>
      </g>
     </g>
     <g id="ytick_38">
      <g id="line2d_61">
       <g>
        <use xlink:href="#m27949743c0" x="87.972531" y="93.401528" style="stroke: #000000; stroke-width: 0.6"/>
       </g>
      </g>
     </g>
     <g id="ytick_39">
      <g id="line2d_62">
       <g>
        <use xlink:href="#m27949743c0" x="87.972531" y="88.911654" style="stroke: #000000; stroke-width: 0.6"/>
       </g>
      </g>
     </g>
     <g id="ytick_40">
      <g id="line2d_63">
       <g>
        <use xlink:href="#m27949743c0" x="87.972531" y="85.429038" style="stroke: #000000; stroke-width: 0.6"/>
       </g>
      </g>
     </g>
     <g id="ytick_41">
      <g id="line2d_64">
       <g>
        <use xlink:href="#m27949743c0" x="87.972531" y="82.583533" style="stroke: #000000; stroke-width: 0.6"/>
       </g>
      </g>
     </g>
     <g id="ytick_42">
      <g id="line2d_65">
       <g>
        <use xlink:href="#m27949743c0" x="87.972531" y="80.177693" style="stroke: #000000; stroke-width: 0.6"/>
       </g>
      </g>
     </g>
     <g id="ytick_43">
      <g id="line2d_66">
       <g>
        <use xlink:href="#m27949743c0" x="87.972531" y="78.093659" style="stroke: #000000; stroke-width: 0.6"/>
       </g>
      </g>
     </g>
     <g id="ytick_44">
      <g id="line2d_67">
       <g>
        <use xlink:href="#m27949743c0" x="87.972531" y="76.255412" style="stroke: #000000; stroke-width: 0.6"/>
       </g>
      </g>
     </g>
     <g id="ytick_45">
      <g id="line2d_68">
       <g>
        <use xlink:href="#m27949743c0" x="87.972531" y="63.793048" style="stroke: #000000; stroke-width: 0.6"/>
       </g>
      </g>
     </g>
    </g>
    <g id="line2d_69">
     <path d="M 94.436854 128.171946 
L 98.746403 128.154472 
L 103.055952 128.139596 
L 107.365501 128.126996 
L 111.675049 128.1164 
L 115.984598 128.10757 
L 120.294147 128.100299 
L 124.603696 128.094407 
L 128.913245 128.089738 
L 133.222793 128.086154 
L 137.532342 128.083534 
L 141.841891 128.08177 
L 146.15144 128.08077 
L 150.460989 128.080448 
L 154.770537 128.080732 
L 159.080086 128.081555 
L 163.389635 128.082858 
L 167.699184 128.08459 
L 172.008733 128.086702 
L 176.318281 128.089154 
L 180.62783 128.091908 
L 184.937379 128.094929 
L 189.246928 128.098189 
L 193.556476 128.101658 
L 197.866025 128.105314 
L 202.175574 128.109133 
L 206.485123 128.113097 
L 210.794672 128.117186 
L 215.10422 128.121385 
L 219.413769 128.125678 
L 223.723318 128.130053 
" clip-path="url(#pac94f1f35e)" style="fill: none; stroke: #000000; stroke-width: 0.75; stroke-linecap: square"/>
    </g>
    <g id="line2d_70">
     <path d="M 94.436854 119.865436 
L 98.746403 119.995995 
L 103.055952 120.118282 
L 107.365501 120.233081 
L 111.675049 120.341073 
L 115.984598 120.442859 
L 120.294147 120.538968 
L 124.603696 120.629869 
L 128.913245 120.715979 
L 133.222793 120.797672 
L 137.532342 120.875282 
L 141.841891 120.949109 
L 146.15144 121.019426 
L 150.460989 121.086477 
L 154.770537 121.150487 
L 159.080086 121.211657 
L 163.389635 121.270173 
L 167.699184 121.326204 
L 172.008733 121.379905 
L 176.318281 121.431418 
L 180.62783 121.480873 
L 184.937379 121.528392 
L 189.246928 121.574085 
L 193.556476 121.618056 
L 197.866025 121.660399 
L 202.175574 121.701203 
L 206.485123 121.740549 
L 210.794672 121.778515 
L 215.10422 121.81517 
L 219.413769 121.850582 
L 223.723318 121.884813 
" clip-path="url(#pac94f1f35e)" style="fill: none; stroke: #ff0000; stroke-width: 0.75; stroke-linecap: square"/>
    </g>
    <g id="line2d_71">
     <path d="M 94.436854 98.244461 
L 98.746403 98.486841 
L 103.055952 98.705095 
L 107.365501 98.902619 
L 111.675049 99.082204 
L 115.984598 99.246168 
L 120.294147 99.396451 
L 124.603696 99.534685 
L 128.913245 99.662256 
L 133.222793 99.780344 
L 137.532342 99.889965 
L 141.841891 99.991995 
L 146.15144 100.087192 
L 150.460989 100.176218 
L 154.770537 100.259653 
L 159.080086 100.338006 
L 163.389635 100.411727 
L 167.699184 100.481213 
L 172.008733 100.546819 
L 176.318281 100.60886 
L 180.62783 100.667619 
L 184.937379 100.723349 
L 189.246928 100.776278 
L 193.556476 100.826612 
L 197.866025 100.874536 
L 202.175574 100.92022 
L 206.485123 100.963817 
L 210.794672 101.005467 
L 215.10422 101.045297 
L 219.413769 101.083423 
L 223.723318 101.119954 
" clip-path="url(#pac94f1f35e)" style="fill: none; stroke: #0000ff; stroke-width: 0.75; stroke-linecap: square"/>
    </g>
    <g id="line2d_72">
     <path d="M 94.436854 87.940989 
L 98.746403 88.187333 
L 103.055952 88.408282 
L 107.365501 88.60757 
L 111.675049 88.788234 
L 115.984598 88.952767 
L 120.294147 89.103239 
L 124.603696 89.241379 
L 128.913245 89.368643 
L 133.222793 89.48627 
L 137.532342 89.595313 
L 141.841891 89.69668 
L 146.15144 89.791155 
L 150.460989 89.879418 
L 154.770537 89.962062 
L 159.080086 90.039608 
L 163.389635 90.112514 
L 167.699184 90.181184 
L 172.008733 90.245978 
L 176.318281 90.307215 
L 180.62783 90.365179 
L 184.937379 90.420128 
L 189.246928 90.472289 
L 193.556476 90.521871 
L 197.866025 90.56906 
L 202.175574 90.614025 
L 206.485123 90.65692 
L 210.794672 90.697884 
L 215.10422 90.737046 
L 219.413769 90.774522 
L 223.723318 90.810418 
" clip-path="url(#pac94f1f35e)" style="fill: none; stroke: #00bfbf; stroke-width: 0.75; stroke-linecap: square"/>
    </g>
    <g id="line2d_73">
     <path d="M 94.436854 77.303144 
L 98.746403 77.549315 
L 103.055952 77.769865 
L 107.365501 77.968607 
L 111.675049 78.148635 
L 115.984598 78.312479 
L 120.294147 78.462234 
L 124.603696 78.599647 
L 128.913245 78.726186 
L 133.222793 78.843096 
L 137.532342 78.951438 
L 141.841891 79.052123 
L 146.15144 79.145935 
L 150.460989 79.233557 
L 154.770537 79.315582 
L 159.080086 79.392532 
L 163.389635 79.464864 
L 167.699184 79.532981 
L 172.008733 79.597243 
L 176.318281 79.657968 
L 180.62783 79.71544 
L 184.937379 79.769915 
L 189.246928 79.821622 
L 193.556476 79.870765 
L 197.866025 79.917532 
L 202.175574 79.962091 
L 206.485123 80.004595 
L 210.794672 80.045183 
L 215.10422 80.083981 
L 219.413769 80.121106 
L 223.723318 80.156664 
" clip-path="url(#pac94f1f35e)" style="fill: none; stroke: #bf00bf; stroke-width: 0.75; stroke-linecap: square"/>
    </g>
    <g id="line2d_74">
     <path d="M 94.436854 66.537448 
L 98.746403 66.783356 
L 103.055952 67.003614 
L 107.365501 67.202055 
L 111.675049 67.381779 
L 115.984598 67.545325 
L 120.294147 67.694791 
L 124.603696 67.831926 
L 128.913245 67.958199 
L 133.222793 68.074855 
L 137.532342 68.182956 
L 141.841891 68.283412 
L 146.15144 68.377007 
L 150.460989 68.464423 
L 154.770537 68.546253 
L 159.080086 68.623017 
L 163.389635 68.695172 
L 167.699184 68.763123 
L 172.008733 68.827225 
L 176.318281 68.887799 
L 180.62783 68.945128 
L 184.937379 68.999465 
L 189.246928 69.051041 
L 193.556476 69.100059 
L 197.866025 69.146707 
L 202.175574 69.191152 
L 206.485123 69.233546 
L 210.794672 69.27403 
L 215.10422 69.312728 
L 219.413769 69.349757 
L 223.723318 69.385223 
" clip-path="url(#pac94f1f35e)" style="fill: none; stroke: #696969; stroke-width: 0.75; stroke-linecap: square"/>
    </g>
    <g id="line2d_75">
     <defs>
      <path id="m2ac2e44ba7" d="M 0 1 
C 0.265203 1 0.51958 0.894634 0.707107 0.707107 
C 0.894634 0.51958 1 0.265203 1 0 
C 1 -0.265203 0.894634 -0.51958 0.707107 -0.707107 
C 0.51958 -0.894634 0.265203 -1 0 -1 
C -0.265203 -1 -0.51958 -0.894634 -0.707107 -0.707107 
C -0.894634 -0.51958 -1 -0.265203 -1 0 
C -1 0.265203 -0.894634 0.51958 -0.707107 0.707107 
C -0.51958 0.894634 -0.265203 1 0 1 
z
" style="stroke: #000000"/>
     </defs>
     <g clip-path="url(#pac94f1f35e)">
      <use xlink:href="#m2ac2e44ba7" x="94.436854" y="128.240011" style="stroke: #000000"/>
      <use xlink:href="#m2ac2e44ba7" x="137.532342" y="128.080559" style="stroke: #000000"/>
      <use xlink:href="#m2ac2e44ba7" x="180.62783" y="127.782508" style="stroke: #000000"/>
      <use xlink:href="#m2ac2e44ba7" x="223.723318" y="127.271027" style="stroke: #000000"/>
     </g>
    </g>
    <g id="line2d_76">
     <defs>
      <path id="mb1a0bff0cc" d="M 0 1 
C 0.265203 1 0.51958 0.894634 0.707107 0.707107 
C 0.894634 0.51958 1 0.265203 1 0 
C 1 -0.265203 0.894634 -0.51958 0.707107 -0.707107 
C 0.51958 -0.894634 0.265203 -1 0 -1 
C -0.265203 -1 -0.51958 -0.894634 -0.707107 -0.707107 
C -0.894634 -0.51958 -1 -0.265203 -1 0 
C -1 0.265203 -0.894634 0.51958 -0.707107 0.707107 
C -0.51958 0.894634 -0.265203 1 0 1 
z
" style="stroke: #ff0000"/>
     </defs>
     <g clip-path="url(#pac94f1f35e)">
      <use xlink:href="#mb1a0bff0cc" x="94.436854" y="119.734314" style="fill: #ff0000; stroke: #ff0000"/>
      <use xlink:href="#mb1a0bff0cc" x="137.532342" y="121.168219" style="fill: #ff0000; stroke: #ff0000"/>
      <use xlink:href="#mb1a0bff0cc" x="180.62783" y="122.490399" style="fill: #ff0000; stroke: #ff0000"/>
      <use xlink:href="#mb1a0bff0cc" x="223.723318" y="122.96401" style="fill: #ff0000; stroke: #ff0000"/>
     </g>
    </g>
    <g id="line2d_77">
     <defs>
      <path id="ma3bb127eb7" d="M 0 1 
C 0.265203 1 0.51958 0.894634 0.707107 0.707107 
C 0.894634 0.51958 1 0.265203 1 0 
C 1 -0.265203 0.894634 -0.51958 0.707107 -0.707107 
C 0.51958 -0.894634 0.265203 -1 0 -1 
C -0.265203 -1 -0.51958 -0.894634 -0.707107 -0.707107 
C -0.894634 -0.51958 -1 -0.265203 -1 0 
C -1 0.265203 -0.894634 0.51958 -0.707107 0.707107 
C -0.51958 0.894634 -0.265203 1 0 1 
z
" style="stroke: #0000ff"/>
     </defs>
     <g clip-path="url(#pac94f1f35e)">
      <use xlink:href="#ma3bb127eb7" x="94.436854" y="98.418135" style="fill: #0000ff; stroke: #0000ff"/>
      <use xlink:href="#ma3bb127eb7" x="137.532342" y="100.127543" style="fill: #0000ff; stroke: #0000ff"/>
      <use xlink:href="#ma3bb127eb7" x="180.62783" y="100.981433" style="fill: #0000ff; stroke: #0000ff"/>
      <use xlink:href="#ma3bb127eb7" x="223.723318" y="101.737937" style="fill: #0000ff; stroke: #0000ff"/>
     </g>
    </g>
    <g id="line2d_78">
     <defs>
      <path id="m84e1c300ef" d="M 0 1 
C 0.265203 1 0.51958 0.894634 0.707107 0.707107 
C 0.894634 0.51958 1 0.265203 1 0 
C 1 -0.265203 0.894634 -0.51958 0.707107 -0.707107 
C 0.51958 -0.894634 0.265203 -1 0 -1 
C -0.265203 -1 -0.51958 -0.894634 -0.707107 -0.707107 
C -0.894634 -0.51958 -1 -0.265203 -1 0 
C -1 0.265203 -0.894634 0.51958 -0.707107 0.707107 
C -0.51958 0.894634 -0.265203 1 0 1 
z
" style="stroke: #00bfbf"/>
     </defs>
     <g clip-path="url(#pac94f1f35e)">
      <use xlink:href="#m84e1c300ef" x="94.436854" y="87.823746" style="fill: #00bfbf; stroke: #00bfbf"/>
      <use xlink:href="#m84e1c300ef" x="137.532342" y="89.550541" style="fill: #00bfbf; stroke: #00bfbf"/>
      <use xlink:href="#m84e1c300ef" x="180.62783" y="90.364272" style="fill: #00bfbf; stroke: #00bfbf"/>
      <use xlink:href="#m84e1c300ef" x="223.723318" y="90.861597" style="fill: #00bfbf; stroke: #00bfbf"/>
     </g>
    </g>
    <g id="line2d_79">
     <defs>
      <path id="m5bf09cf49f" d="M 0 1 
C 0.265203 1 0.51958 0.894634 0.707107 0.707107 
C 0.894634 0.51958 1 0.265203 1 0 
C 1 -0.265203 0.894634 -0.51958 0.707107 -0.707107 
C 0.51958 -0.894634 0.265203 -1 0 -1 
C -0.265203 -1 -0.51958 -0.894634 -0.707107 -0.707107 
C -0.894634 -0.51958 -1 -0.265203 -1 0 
C -1 0.265203 -0.894634 0.51958 -0.707107 0.707107 
C -0.51958 0.894634 -0.265203 1 0 1 
z
" style="stroke: #bf00bf"/>
     </defs>
     <g clip-path="url(#pac94f1f35e)">
      <use xlink:href="#m5bf09cf49f" x="94.436854" y="77.36894" style="fill: #bf00bf; stroke: #bf00bf"/>
      <use xlink:href="#m5bf09cf49f" x="137.532342" y="79.062662" style="fill: #bf00bf; stroke: #bf00bf"/>
      <use xlink:href="#m5bf09cf49f" x="180.62783" y="79.836317" style="fill: #bf00bf; stroke: #bf00bf"/>
      <use xlink:href="#m5bf09cf49f" x="223.723318" y="80.29228" style="fill: #bf00bf; stroke: #bf00bf"/>
     </g>
    </g>
    <g id="line2d_80">
     <defs>
      <path id="m90da015df8" d="M 0 1 
C 0.265203 1 0.51958 0.894634 0.707107 0.707107 
C 0.894634 0.51958 1 0.265203 1 0 
C 1 -0.265203 0.894634 -0.51958 0.707107 -0.707107 
C 0.51958 -0.894634 0.265203 -1 0 -1 
C -0.265203 -1 -0.51958 -0.894634 -0.707107 -0.707107 
C -0.894634 -0.51958 -1 -0.265203 -1 0 
C -1 0.265203 -0.894634 0.51958 -0.707107 0.707107 
C -0.51958 0.894634 -0.265203 1 0 1 
z
" style="stroke: #696969"/>
     </defs>
     <g clip-path="url(#pac94f1f35e)">
      <use xlink:href="#m90da015df8" x="94.436854" y="66.631484" style="fill: #696969; stroke: #696969"/>
      <use xlink:href="#m90da015df8" x="137.532342" y="68.745202" style="fill: #696969; stroke: #696969"/>
      <use xlink:href="#m90da015df8" x="180.62783" y="69.817762" style="fill: #696969; stroke: #696969"/>
      <use xlink:href="#m90da015df8" x="223.723318" y="70.361758" style="fill: #696969; stroke: #696969"/>
     </g>
    </g>
    <g id="patch_8">
     <path d="M 87.972531 131.32514 
L 87.972531 63.45232 
" style="fill: none; stroke: #000000; stroke-width: 0.8; stroke-linejoin: miter; stroke-linecap: square"/>
    </g>
    <g id="patch_9">
     <path d="M 230.187641 131.32514 
L 230.187641 63.45232 
" style="fill: none; stroke: #000000; stroke-width: 0.8; stroke-linejoin: miter; stroke-linecap: square"/>
    </g>
    <g id="patch_10">
     <path d="M 87.972531 131.32514 
L 230.187641 131.32514 
" style="fill: none; stroke: #000000; stroke-width: 0.8; stroke-linejoin: miter; stroke-linecap: square"/>
    </g>
    <g id="patch_11">
     <path d="M 87.972531 63.45232 
L 230.187641 63.45232 
" style="fill: none; stroke: #000000; stroke-width: 0.8; stroke-linejoin: miter; stroke-linecap: square"/>
    </g>
   </g>
   <g id="legend_1">
    <g id="patch_12">
     <path d="M 43.902848 50.883279 
L 230.205819 50.883279 
Q 232.205819 50.883279 232.205819 48.883279 
L 232.205819 4.995359 
Q 232.205819 2.995359 230.205819 2.995359 
L 43.902848 2.995359 
Q 41.902848 2.995359 41.902848 4.995359 
L 41.902848 48.883279 
Q 41.902848 50.883279 43.902848 50.883279 
z
" style="fill: #ffffff; opacity: 0.8; stroke: #cccccc; stroke-linejoin: miter"/>
    </g>
    <g id="patch_13">
     <path d="M 45.902848 14.467339 
L 65.902848 14.467339 
L 65.902848 7.467339 
L 45.902848 7.467339 
z
" style="stroke: #000000; stroke-linejoin: miter"/>
    </g>
    <g id="text_20">
     <!-- $a/ \lambda = 0.05$ -->
     <g transform="translate(73.902848 14.467339) scale(0.1 -0.1)">
      <defs>
       <path id="CMR17-3d" d="M 4115 2048 
C 4211 2048 4307 2048 4307 2156 
C 4307 2272 4198 2272 4090 2272 
L 512 2272 
C 403 2272 294 2272 294 2156 
C 294 2048 390 2048 486 2048 
L 4115 2048 
z
M 4090 927 
C 4198 927 4307 927 4307 1043 
C 4307 1152 4211 1152 4115 1152 
L 486 1152 
C 390 1152 294 1152 294 1043 
C 294 927 403 927 512 927 
L 4090 927 
z
" transform="scale(0.015625)"/>
       <path id="CMMI12-3a" d="M 1178 307 
C 1178 492 1024 620 870 620 
C 685 620 557 467 557 313 
C 557 128 710 0 864 0 
C 1050 0 1178 153 1178 307 
z
" transform="scale(0.015625)"/>
      </defs>
      <use xlink:href="#CMMI12-61" transform="scale(0.996264)"/>
      <use xlink:href="#CMMI12-3d" transform="translate(51.207858 0) scale(0.996264)"/>
      <use xlink:href="#CMMI12-15" transform="translate(99.982776 0) scale(0.996264)"/>
      <use xlink:href="#CMR17-3d" transform="translate(184.560857 0) scale(0.996264)"/>
      <use xlink:href="#CMR17-30" transform="translate(283.949654 0) scale(0.996264)"/>
      <use xlink:href="#CMMI12-3a" transform="translate(329.640131 0) scale(0.996264)"/>
      <use xlink:href="#CMR17-30" transform="translate(356.737308 0) scale(0.996264)"/>
      <use xlink:href="#CMR17-35" transform="translate(402.427785 0) scale(0.996264)"/>
     </g>
    </g>
    <g id="patch_14">
     <path d="M 45.902848 29.429979 
L 65.902848 29.429979 
L 65.902848 22.429979 
L 45.902848 22.429979 
z
" style="fill: #ff0000; stroke: #ff0000; stroke-linejoin: miter"/>
    </g>
    <g id="text_21">
     <!-- $a/ \lambda = 0.1$ -->
     <g transform="translate(73.902848 29.429979) scale(0.1 -0.1)">
      <use xlink:href="#CMMI12-61" transform="scale(0.996264)"/>
      <use xlink:href="#CMMI12-3d" transform="translate(51.207858 0) scale(0.996264)"/>
      <use xlink:href="#CMMI12-15" transform="translate(99.982776 0) scale(0.996264)"/>
      <use xlink:href="#CMR17-3d" transform="translate(184.560857 0) scale(0.996264)"/>
      <use xlink:href="#CMR17-30" transform="translate(283.949654 0) scale(0.996264)"/>
      <use xlink:href="#CMMI12-3a" transform="translate(329.640131 0) scale(0.996264)"/>
      <use xlink:href="#CMR17-31" transform="translate(356.737308 0) scale(0.996264)"/>
     </g>
    </g>
    <g id="patch_15">
     <path d="M 45.902848 44.392619 
L 65.902848 44.392619 
L 65.902848 37.392619 
L 45.902848 37.392619 
z
" style="fill: #0000ff; stroke: #0000ff; stroke-linejoin: miter"/>
    </g>
    <g id="text_22">
     <!-- $a/ \lambda = 0.5$ -->
     <g transform="translate(73.902848 44.392619) scale(0.1 -0.1)">
      <use xlink:href="#CMMI12-61" transform="scale(0.996264)"/>
      <use xlink:href="#CMMI12-3d" transform="translate(51.207858 0) scale(0.996264)"/>
      <use xlink:href="#CMMI12-15" transform="translate(99.982776 0) scale(0.996264)"/>
      <use xlink:href="#CMR17-3d" transform="translate(184.560857 0) scale(0.996264)"/>
      <use xlink:href="#CMR17-30" transform="translate(283.949654 0) scale(0.996264)"/>
      <use xlink:href="#CMMI12-3a" transform="translate(329.640131 0) scale(0.996264)"/>
      <use xlink:href="#CMR17-35" transform="translate(356.737308 0) scale(0.996264)"/>
     </g>
    </g>
    <g id="patch_16">
     <path d="M 165.882034 14.467339 
L 185.882034 14.467339 
L 185.882034 7.467339 
L 165.882034 7.467339 
z
" style="fill: #00bfbf; stroke: #00bfbf; stroke-linejoin: miter"/>
    </g>
    <g id="text_23">
     <!-- $a/ \lambda = 1$ -->
     <g transform="translate(193.882034 14.467339) scale(0.1 -0.1)">
      <use xlink:href="#CMMI12-61" transform="scale(0.996264)"/>
      <use xlink:href="#CMMI12-3d" transform="translate(51.207858 0) scale(0.996264)"/>
      <use xlink:href="#CMMI12-15" transform="translate(99.982776 0) scale(0.996264)"/>
      <use xlink:href="#CMR17-3d" transform="translate(184.560857 0) scale(0.996264)"/>
      <use xlink:href="#CMR17-31" transform="translate(283.949654 0) scale(0.996264)"/>
     </g>
    </g>
    <g id="patch_17">
     <path d="M 165.882034 29.429979 
L 185.882034 29.429979 
L 185.882034 22.429979 
L 165.882034 22.429979 
z
" style="fill: #bf00bf; stroke: #bf00bf; stroke-linejoin: miter"/>
    </g>
    <g id="text_24">
     <!-- $a/ \lambda = 2$ -->
     <g transform="translate(193.882034 29.429979) scale(0.1 -0.1)">
      <use xlink:href="#CMMI12-61" transform="scale(0.996264)"/>
      <use xlink:href="#CMMI12-3d" transform="translate(51.207858 0) scale(0.996264)"/>
      <use xlink:href="#CMMI12-15" transform="translate(99.982776 0) scale(0.996264)"/>
      <use xlink:href="#CMR17-3d" transform="translate(184.560857 0) scale(0.996264)"/>
      <use xlink:href="#CMR17-32" transform="translate(283.949654 0) scale(0.996264)"/>
     </g>
    </g>
    <g id="patch_18">
     <path d="M 165.882034 44.392619 
L 185.882034 44.392619 
L 185.882034 37.392619 
L 165.882034 37.392619 
z
" style="fill: #696969; stroke: #696969; stroke-linejoin: miter"/>
    </g>
    <g id="text_25">
     <!-- $a/ \lambda = 4$ -->
     <g transform="translate(193.882034 44.392619) scale(0.1 -0.1)">
      <use xlink:href="#CMMI12-61" transform="scale(0.996264)"/>
      <use xlink:href="#CMMI12-3d" transform="translate(51.207858 0) scale(0.996264)"/>
      <use xlink:href="#CMMI12-15" transform="translate(99.982776 0) scale(0.996264)"/>
      <use xlink:href="#CMR17-3d" transform="translate(184.560857 0) scale(0.996264)"/>
      <use xlink:href="#CMR17-34" transform="translate(283.949654 0) scale(0.996264)"/>
     </g>
    </g>
   </g>
  </g>
 </g>
 <defs>
  <clipPath id="p374773c44c">
   <rect x="37.896788" y="55.910895" width="200.302972" height="251.380814"/>
  </clipPath>
  <clipPath id="pac94f1f35e">
   <rect x="87.972531" y="63.45232" width="142.21511" height="67.87282"/>
  </clipPath>
 </defs>
</svg>
