<?xml version="1.0" encoding="utf-8" standalone="no"?>
<!DOCTYPE svg PUBLIC "-//W3C//DTD SVG 1.1//EN"
  "http://www.w3.org/Graphics/SVG/1.1/DTD/svg11.dtd">
<svg xmlns:xlink="http://www.w3.org/1999/xlink" width="241.2pt" height="144pt" viewBox="0 0 241.2 144" xmlns="http://www.w3.org/2000/svg" version="1.1">
 <metadata>
  <rdf:RDF xmlns:dc="http://purl.org/dc/elements/1.1/" xmlns:cc="http://creativecommons.org/ns#" xmlns:rdf="http://www.w3.org/1999/02/22-rdf-syntax-ns#">
   <cc:Work>
    <dc:type rdf:resource="http://purl.org/dc/dcmitype/StillImage"/>
    <dc:date>2025-11-12T23:27:30.589365</dc:date>
    <dc:format>image/svg+xml</dc:format>
    <dc:creator>
     <cc:Agent>
      <dc:title>Matplotlib v3.6.3, https://matplotlib.org/</dc:title>
     </cc:Agent>
    </dc:creator>
   </cc:Work>
  </rdf:RDF>
 </metadata>
 <defs>
  <style type="text/css">*{stroke-linejoin: round; stroke-linecap: butt}</style>
 </defs>
 <g id="figure_1">
  <g id="patch_1">
   <path d="M 0 144 
L 241.2 144 
L 241.2 0 
L 0 0 
z
" style="fill: #ffffff"/>
  </g>
  <g id="axes_1">
   <g id="patch_2">
    <path d="M 44.123453 109.29171 
L 238.19976 109.29171 
L 238.19976 3.00024 
L 44.123453 3.00024 
z
" style="fill: #ffffff"/>
   </g>
   <g id="matplotlib.axis_1">
    <g id="xtick_1">
     <g id="line2d_1">
      <defs>
       <path id="mdef62f8e4d" d="M 0 0 
L 0 3.5 
" style="stroke: #000000; stroke-width: 0.8"/>
      </defs>
      <g>
       <use xlink:href="#mdef62f8e4d" x="52.945104" y="109.29171" style="stroke: #000000; stroke-width: 0.8"/>
      </g>
     </g>
     <g id="text_1">
      <!-- $0$ -->
      <g transform="translate(50.454436 123.210208) scale(0.1 -0.1)">
       <defs>
        <path id="CMR17-30" d="M 2688 2038 
C 2688 2430 2682 3099 2413 3613 
C 2176 4063 1798 4224 1466 4224 
C 1158 4224 768 4082 525 3620 
C 269 3137 243 2539 243 2038 
C 243 1671 250 1112 448 623 
C 723 -39 1216 -128 1466 -128 
C 1760 -128 2208 -7 2470 604 
C 2662 1048 2688 1568 2688 2038 
z
M 1466 -26 
C 1056 -26 813 328 723 816 
C 653 1196 653 1749 653 2109 
C 653 2604 653 3015 736 3407 
C 858 3954 1216 4121 1466 4121 
C 1728 4121 2067 3947 2189 3420 
C 2272 3054 2278 2623 2278 2109 
C 2278 1691 2278 1176 2202 797 
C 2067 96 1690 -26 1466 -26 
z
" transform="scale(0.015625)"/>
       </defs>
       <use xlink:href="#CMR17-30" transform="scale(0.996264)"/>
      </g>
     </g>
    </g>
    <g id="xtick_2">
     <g id="line2d_2">
      <g>
       <use xlink:href="#mdef62f8e4d" x="82.350605" y="109.29171" style="stroke: #000000; stroke-width: 0.8"/>
      </g>
     </g>
     <g id="text_2">
      <!-- $\frac{\pi}{6}$ -->
      <g transform="translate(79.896072 123.216942) scale(0.1 -0.1)">
       <defs>
        <path id="CMMI12-19" d="M 1658 2406 
L 2381 2406 
C 2208 1691 2099 1225 2099 715 
C 2099 625 2099 -64 2362 -64 
C 2496 -64 2611 57 2611 166 
C 2611 198 2611 210 2566 306 
C 2394 746 2394 1295 2394 1340 
C 2394 1378 2394 1832 2528 2406 
L 3245 2406 
C 3328 2406 3539 2406 3539 2611 
C 3539 2752 3418 2752 3302 2752 
L 1197 2752 
C 1050 2752 832 2752 538 2438 
C 371 2253 166 1915 166 1876 
C 166 1838 198 1825 237 1825 
C 282 1825 288 1844 320 1883 
C 653 2406 986 2406 1146 2406 
L 1510 2406 
C 1370 1927 1210 1372 685 255 
C 634 153 634 140 634 102 
C 634 -32 749 -64 806 -64 
C 992 -64 1043 102 1120 370 
C 1222 695 1222 708 1286 964 
L 1658 2406 
z
" transform="scale(0.015625)"/>
        <path id="CMR17-36" d="M 678 2198 
C 678 3712 1395 4076 1811 4076 
C 1946 4076 2272 4049 2400 3782 
C 2298 3782 2106 3782 2106 3558 
C 2106 3385 2246 3328 2336 3328 
C 2394 3328 2566 3353 2566 3571 
C 2566 3987 2246 4224 1805 4224 
C 1043 4224 243 3411 243 2011 
C 243 257 966 -128 1478 -128 
C 2099 -128 2688 431 2688 1295 
C 2688 2101 2170 2688 1517 2688 
C 1126 2688 838 2430 678 1979 
L 678 2198 
z
M 1478 25 
C 691 25 691 1212 691 1450 
C 691 1914 909 2585 1504 2585 
C 1613 2585 1926 2585 2138 2140 
C 2253 1889 2253 1624 2253 1302 
C 2253 954 2253 696 2118 438 
C 1978 173 1773 25 1478 25 
z
" transform="scale(0.015625)"/>
       </defs>
       <use xlink:href="#CMMI12-19" transform="translate(0 39.226102) scale(0.697382)"/>
       <use xlink:href="#CMR17-36" transform="translate(4.627027 -34.355253) scale(0.697382)"/>
       <path d="M 0 22.914133 
L 41.237221 22.914133 
L 41.237221 26.899083 
L 0 26.899083 
L 0 22.914133 
z
"/>
      </g>
     </g>
    </g>
    <g id="xtick_3">
     <g id="line2d_3">
      <g>
       <use xlink:href="#mdef62f8e4d" x="111.756106" y="109.29171" style="stroke: #000000; stroke-width: 0.8"/>
      </g>
     </g>
     <g id="text_3">
      <!-- $\frac{\pi}{3}$ -->
      <g transform="translate(109.301573 123.216942) scale(0.1 -0.1)">
       <defs>
        <path id="CMR17-33" d="M 1414 2176 
C 1984 2176 2234 1673 2234 1094 
C 2234 322 1824 25 1453 25 
C 1114 25 563 193 390 691 
C 422 678 454 678 486 678 
C 640 678 755 780 755 947 
C 755 1132 614 1216 486 1216 
C 378 1216 211 1164 211 927 
C 211 335 787 -128 1466 -128 
C 2176 -128 2720 432 2720 1087 
C 2720 1718 2208 2176 1600 2246 
C 2086 2347 2554 2776 2554 3353 
C 2554 3856 2048 4224 1472 4224 
C 890 4224 378 3862 378 3347 
C 378 3123 544 3084 627 3084 
C 762 3084 877 3167 877 3334 
C 877 3500 762 3584 627 3584 
C 602 3584 570 3584 544 3571 
C 730 3999 1235 4076 1459 4076 
C 1683 4076 2106 3966 2106 3347 
C 2106 3167 2080 2851 1862 2574 
C 1670 2329 1453 2316 1242 2297 
C 1210 2297 1062 2284 1037 2284 
C 992 2278 966 2272 966 2227 
C 966 2182 973 2176 1101 2176 
L 1414 2176 
z
" transform="scale(0.015625)"/>
       </defs>
       <use xlink:href="#CMMI12-19" transform="translate(0 39.226102) scale(0.697382)"/>
       <use xlink:href="#CMR17-33" transform="translate(4.627027 -34.355253) scale(0.697382)"/>
       <path d="M 0 22.914133 
L 41.237221 22.914133 
L 41.237221 26.899083 
L 0 26.899083 
L 0 22.914133 
z
"/>
      </g>
     </g>
    </g>
    <g id="xtick_4">
     <g id="line2d_4">
      <g>
       <use xlink:href="#mdef62f8e4d" x="141.161607" y="109.29171" style="stroke: #000000; stroke-width: 0.8"/>
      </g>
     </g>
     <g id="text_4">
      <!-- $\frac{\pi}{2}$ -->
      <g transform="translate(138.707074 123.216942) scale(0.1 -0.1)">
       <defs>
        <path id="CMR17-32" d="M 2669 990 
L 2554 990 
C 2490 537 2438 460 2413 422 
C 2381 371 1920 371 1830 371 
L 602 371 
C 832 620 1280 1073 1824 1596 
C 2214 1966 2669 2400 2669 3033 
C 2669 3788 2067 4224 1395 4224 
C 691 4224 262 3603 262 3027 
C 262 2777 448 2745 525 2745 
C 589 2745 781 2783 781 3007 
C 781 3206 614 3264 525 3264 
C 486 3264 448 3257 422 3244 
C 544 3788 915 4057 1306 4057 
C 1862 4057 2227 3616 2227 3033 
C 2227 2477 1901 1998 1536 1583 
L 262 147 
L 262 0 
L 2515 0 
L 2669 990 
z
" transform="scale(0.015625)"/>
       </defs>
       <use xlink:href="#CMMI12-19" transform="translate(0 39.226102) scale(0.697382)"/>
       <use xlink:href="#CMR17-32" transform="translate(4.627027 -34.355253) scale(0.697382)"/>
       <path d="M 0 22.914133 
L 41.237221 22.914133 
L 41.237221 26.899083 
L 0 26.899083 
L 0 22.914133 
z
"/>
      </g>
     </g>
    </g>
    <g id="xtick_5">
     <g id="line2d_5">
      <g>
       <use xlink:href="#mdef62f8e4d" x="170.567108" y="109.29171" style="stroke: #000000; stroke-width: 0.8"/>
      </g>
     </g>
     <g id="text_5">
      <!-- $\frac{2\pi}{3}$ -->
      <g transform="translate(166.126956 124.708572) scale(0.1 -0.1)">
       <use xlink:href="#CMR17-32" transform="translate(0 39.226102) scale(0.697382)"/>
       <use xlink:href="#CMMI12-19" transform="translate(31.983182 39.226102) scale(0.697382)"/>
       <use xlink:href="#CMR17-33" transform="translate(20.618618 -34.355253) scale(0.697382)"/>
       <path d="M 0 22.914133 
L 73.220403 22.914133 
L 73.220403 26.899083 
L 0 26.899083 
L 0 22.914133 
z
"/>
      </g>
     </g>
    </g>
    <g id="xtick_6">
     <g id="line2d_6">
      <g>
       <use xlink:href="#mdef62f8e4d" x="199.972609" y="109.29171" style="stroke: #000000; stroke-width: 0.8"/>
      </g>
     </g>
     <g id="text_6">
      <!-- $\frac{5\pi}{6}$ -->
      <g transform="translate(195.532457 124.708572) scale(0.1 -0.1)">
       <defs>
        <path id="CMR17-35" d="M 730 3750 
C 794 3724 1056 3641 1325 3641 
C 1920 3641 2246 3961 2432 4140 
C 2432 4191 2432 4224 2394 4224 
C 2387 4224 2374 4224 2323 4198 
C 2099 4102 1837 4032 1517 4032 
C 1325 4032 1037 4055 723 4191 
C 653 4224 640 4224 634 4224 
C 602 4224 595 4217 595 4090 
L 595 2231 
C 595 2113 595 2080 659 2080 
C 691 2080 704 2093 736 2139 
C 941 2435 1222 2560 1542 2560 
C 1766 2560 2246 2415 2246 1293 
C 2246 1087 2246 716 2054 422 
C 1894 159 1645 25 1370 25 
C 947 25 518 319 403 812 
C 429 806 480 793 506 793 
C 589 793 749 838 749 1036 
C 749 1209 627 1280 506 1280 
C 358 1280 262 1190 262 1011 
C 262 454 704 -128 1382 -128 
C 2042 -128 2669 441 2669 1267 
C 2669 2054 2170 2662 1549 2662 
C 1222 2662 947 2540 730 2304 
L 730 3750 
z
" transform="scale(0.015625)"/>
       </defs>
       <use xlink:href="#CMR17-35" transform="translate(0 39.226102) scale(0.697382)"/>
       <use xlink:href="#CMMI12-19" transform="translate(31.983182 39.226102) scale(0.697382)"/>
       <use xlink:href="#CMR17-36" transform="translate(20.618618 -34.355253) scale(0.697382)"/>
       <path d="M 0 22.914133 
L 73.220403 22.914133 
L 73.220403 26.899083 
L 0 26.899083 
L 0 22.914133 
z
"/>
      </g>
     </g>
    </g>
    <g id="xtick_7">
     <g id="line2d_7">
      <g>
       <use xlink:href="#mdef62f8e4d" x="229.37811" y="109.29171" style="stroke: #000000; stroke-width: 0.8"/>
      </g>
     </g>
     <g id="text_7">
      <!-- $\pi$ -->
      <g transform="translate(226.538622 123.210208) scale(0.1 -0.1)">
       <use xlink:href="#CMMI12-19" transform="scale(0.996264)"/>
      </g>
     </g>
    </g>
    <g id="text_8">
     <!-- $\phi$ -->
     <g transform="translate(138.193565 139.062582) scale(0.1 -0.1)">
      <defs>
       <path id="CMMI12-1e" d="M 2752 4358 
C 2752 4416 2707 4416 2688 4416 
C 2630 4416 2624 4403 2598 4294 
L 2253 2924 
C 2234 2841 2227 2835 2221 2828 
C 2214 2816 2170 2809 2157 2809 
C 1107 2720 301 1863 301 1071 
C 301 387 832 -32 1498 -71 
C 1446 -266 1402 -467 1350 -662 
C 1261 -995 1210 -1204 1210 -1229 
C 1210 -1242 1210 -1280 1274 -1280 
C 1293 -1280 1318 -1280 1331 -1255 
C 1344 -1242 1382 -1089 1408 -1008 
L 1645 -71 
C 2739 -13 3571 875 3571 1673 
C 3571 2313 3085 2771 2374 2816 
L 2752 4358 
z
M 2336 2688 
C 2758 2662 3181 2428 3181 1806 
C 3181 1090 2675 140 1677 64 
L 2336 2688 
z
M 1530 57 
C 1216 76 691 241 691 938 
C 691 1737 1274 2624 2195 2681 
L 1530 57 
z
" transform="scale(0.015625)"/>
      </defs>
      <use xlink:href="#CMMI12-1e" transform="scale(0.996264)"/>
     </g>
    </g>
   </g>
   <g id="matplotlib.axis_2">
    <g id="ytick_1">
     <g id="line2d_8">
      <defs>
       <path id="m4e3f8c79e6" d="M 0 0 
L -3.5 0 
" style="stroke: #000000; stroke-width: 0.8"/>
      </defs>
      <g>
       <use xlink:href="#m4e3f8c79e6" x="44.123453" y="75.322907" style="stroke: #000000; stroke-width: 0.8"/>
      </g>
     </g>
     <g id="text_9">
      <!-- $\mathdefault{10^{-1}}$ -->
      <g transform="translate(16.96288 78.782157) scale(0.1 -0.1)">
       <defs>
        <path id="CMR17-31" d="M 1702 4083 
C 1702 4217 1696 4224 1606 4224 
C 1357 3927 979 3833 621 3820 
C 602 3820 570 3820 563 3808 
C 557 3795 557 3782 557 3648 
C 755 3648 1088 3686 1344 3839 
L 1344 467 
C 1344 243 1331 166 781 166 
L 589 166 
L 589 0 
C 896 6 1216 12 1523 12 
C 1830 12 2150 6 2458 0 
L 2458 166 
L 2266 166 
C 1715 166 1702 236 1702 467 
L 1702 4083 
z
" transform="scale(0.015625)"/>
        <path id="CMSY10-0" d="M 4218 1472 
C 4326 1472 4442 1472 4442 1600 
C 4442 1728 4326 1728 4218 1728 
L 755 1728 
C 646 1728 531 1728 531 1600 
C 531 1472 646 1472 755 1472 
L 4218 1472 
z
" transform="scale(0.015625)"/>
       </defs>
       <use xlink:href="#CMR17-31" transform="scale(0.996264)"/>
       <use xlink:href="#CMR17-30" transform="translate(45.690477 0) scale(0.996264)"/>
       <use xlink:href="#CMSY10-0" transform="translate(91.380954 36.153639) scale(0.697382)"/>
       <use xlink:href="#CMR17-31" transform="translate(145.621947 36.153639) scale(0.697382)"/>
      </g>
     </g>
    </g>
    <g id="ytick_2">
     <g id="line2d_9">
      <g>
       <use xlink:href="#m4e3f8c79e6" x="44.123453" y="35.362331" style="stroke: #000000; stroke-width: 0.8"/>
      </g>
     </g>
     <g id="text_10">
      <!-- $\mathdefault{10^{1}}$ -->
      <g transform="translate(23.189545 38.82158) scale(0.1 -0.1)">
       <use xlink:href="#CMR17-31" transform="scale(0.996264)"/>
       <use xlink:href="#CMR17-30" transform="translate(45.690477 0) scale(0.996264)"/>
       <use xlink:href="#CMR17-31" transform="translate(91.380954 36.153639) scale(0.697382)"/>
      </g>
     </g>
    </g>
    <g id="text_11">
     <!-- $\sigma / \lambda$ -->
     <g transform="translate(10.47222 64.567534) rotate(-90) scale(0.1 -0.1)">
      <defs>
       <path id="CMMI12-1b" d="M 3251 2406 
C 3334 2406 3546 2406 3546 2611 
C 3546 2752 3424 2752 3309 2752 
L 1894 2752 
C 934 2752 243 1685 243 932 
C 243 389 595 -64 1171 -64 
C 1926 -64 2752 746 2752 1704 
C 2752 1953 2694 2195 2541 2406 
L 3251 2406 
z
M 1178 64 
C 851 64 614 312 614 753 
C 614 1136 845 2406 1786 2406 
C 2061 2406 2368 2272 2368 1780 
C 2368 1557 2266 1021 2042 651 
C 1811 274 1466 64 1178 64 
z
" transform="scale(0.015625)"/>
       <path id="CMMI12-3d" d="M 2746 4563 
C 2746 4569 2784 4665 2784 4678 
C 2784 4755 2720 4800 2669 4800 
C 2637 4800 2579 4800 2528 4659 
L 384 -1364 
C 384 -1370 346 -1466 346 -1479 
C 346 -1556 410 -1600 461 -1600 
C 499 -1600 557 -1594 602 -1460 
L 2746 4563 
z
" transform="scale(0.015625)"/>
       <path id="CMMI12-15" d="M 1978 3963 
C 1818 4416 1312 4416 1229 4416 
C 1190 4416 1120 4416 1120 4351 
C 1120 4300 1158 4294 1190 4287 
C 1286 4275 1363 4262 1466 4078 
C 1530 3957 2189 2055 2189 2042 
C 2189 2036 2182 2029 2131 1978 
L 467 305 
C 390 229 339 178 339 95 
C 339 6 416 -71 518 -71 
C 544 -71 614 -58 653 -20 
C 755 76 1670 1190 2253 1877 
C 2419 1380 2624 795 2822 261 
C 2854 165 2886 76 2976 -7 
C 3040 -64 3053 -64 3232 -64 
L 3354 -64 
C 3379 -64 3424 -64 3424 -13 
C 3424 12 3418 19 3392 44 
C 3334 114 3290 229 3264 305 
L 1978 3963 
z
" transform="scale(0.015625)"/>
      </defs>
      <use xlink:href="#CMMI12-1b" transform="scale(0.996264)"/>
      <use xlink:href="#CMMI12-3d" transform="translate(59.020054 0) scale(0.996264)"/>
      <use xlink:href="#CMMI12-15" transform="translate(107.794972 0) scale(0.996264)"/>
     </g>
    </g>
   </g>
   <g id="line2d_10">
    <path d="M 52.945104 8.430191 
L 53.925287 8.520111 
L 54.905471 8.790849 
L 55.885654 9.245421 
L 56.865837 9.889175 
L 57.846021 10.730298 
L 58.826204 11.780629 
L 59.806387 13.056891 
L 60.786571 14.582544 
L 61.766754 16.390663 
L 62.746937 18.528516 
L 63.727121 21.065286 
L 64.707304 24.105904 
L 65.687488 27.817902 
L 66.667671 32.488844 
L 67.647854 38.663249 
L 68.628038 47.47449 
L 69.608221 59.746267 
L 70.588404 56.765459 
L 71.568588 46.549534 
L 72.548771 40.103916 
L 73.528954 35.905856 
L 74.509138 33.078362 
L 75.489321 31.204569 
L 76.469505 30.070992 
L 77.449688 29.56585 
L 78.429871 29.636866 
L 79.410055 30.273755 
L 80.390238 31.503558 
L 81.370421 33.395703 
L 82.350605 36.078937 
L 83.330788 39.7777 
L 84.310972 44.876825 
L 86.271338 59.640224 
L 87.251522 58.110172 
L 88.231705 50.706503 
L 89.211888 44.99574 
L 90.192072 41.09816 
L 91.172255 38.51005 
L 92.152438 36.919443 
L 93.132622 36.157445 
L 94.112805 36.144484 
L 95.092989 36.865671 
L 96.073172 38.367029 
L 97.053355 40.772282 
L 98.033539 44.334763 
L 99.013722 49.577631 
L 99.993905 57.709253 
L 100.974089 71.167912 
L 101.954272 69.917581 
L 102.934455 57.632942 
L 103.914639 50.515426 
L 104.894822 46.124956 
L 105.875006 43.367965 
L 106.855189 41.771788 
L 107.835372 41.115726 
L 108.815556 41.307676 
L 109.795739 42.343035 
L 110.775922 44.303035 
L 111.756106 47.391928 
L 112.736289 52.056738 
L 113.716472 59.395655 
L 114.696656 73.284656 
L 115.676839 91.549004 
L 116.657023 66.633507 
L 117.637206 57.206703 
L 118.617389 51.931384 
L 119.597573 48.731802 
L 120.577756 46.893398 
L 121.557939 46.109978 
L 122.538123 46.253991 
L 123.518306 47.307197 
L 124.49849 49.35135 
L 125.478673 52.607541 
L 126.458856 57.571857 
L 127.43904 65.478792 
L 128.419223 80.290982 
L 129.399406 84.027871 
L 130.37959 68.091372 
L 131.359773 60.150437 
L 132.339956 55.489954 
L 133.32014 52.653346 
L 134.300323 51.070541 
L 135.280507 50.482796 
L 136.26069 50.777747 
L 137.240873 51.93511 
L 138.221057 54.016933 
L 139.20124 57.191684 
L 140.181423 61.812549 
L 141.161607 68.621872 
L 142.14179 79.025086 
L 143.121973 86.624858 
L 144.102157 76.661234 
L 145.08234 68.967945 
L 146.062524 64.354684 
L 147.042707 61.611987 
L 148.02289 60.15574 
L 149.003074 59.695879 
L 149.983257 60.082022 
L 150.96344 61.239375 
L 151.943624 63.139063 
L 152.923807 65.780704 
L 153.903991 69.173554 
L 154.884174 73.296474 
L 156.844541 82.761802 
L 157.824724 86.607182 
L 158.804907 88.796582 
L 160.765274 90.765462 
L 161.745457 91.794553 
L 162.725641 92.364356 
L 163.705824 91.567888 
L 164.686008 89.339144 
L 168.606741 77.851288 
L 170.567108 71.263156 
L 172.527474 64.533104 
L 173.507658 61.586824 
L 174.487841 59.06943 
L 175.468025 57.032092 
L 176.448208 55.503462 
L 177.428391 54.506145 
L 178.408575 54.068497 
L 179.388758 54.235074 
L 180.368941 55.079838 
L 181.349125 56.728721 
L 182.329308 59.406731 
L 183.309491 63.555641 
L 184.289675 70.208236 
L 185.269858 82.821894 
L 186.250042 104.460279 
L 187.230225 77.396846 
L 188.210408 66.893006 
L 189.190592 60.706661 
L 190.170775 56.556478 
L 191.150958 53.641043 
L 192.131142 51.575009 
L 193.111325 50.130964 
L 194.091509 49.14966 
L 195.071692 48.502314 
L 197.032059 47.76868 
L 200.952792 46.756855 
L 201.932975 46.644934 
L 202.913159 46.722419 
L 203.893342 47.070423 
L 204.873526 47.767409 
L 205.853709 48.890988 
L 206.833892 50.522952 
L 207.814076 52.75459 
L 208.794259 55.685219 
L 209.774442 59.386637 
L 211.734809 67.756979 
L 212.714992 69.213726 
L 213.695176 67.376958 
L 214.675359 64.495236 
L 215.655543 62.130619 
L 216.635726 60.691672 
L 217.615909 60.231125 
L 218.596093 60.766895 
L 219.576276 62.379842 
L 220.556459 65.281446 
L 221.536643 69.958549 
L 222.516826 77.669098 
L 223.49701 93.358673 
L 224.477193 104.213819 
L 225.457376 82.388665 
L 226.43756 73.975838 
L 227.417743 69.490886 
L 228.397926 67.169748 
L 229.37811 66.444301 
L 229.37811 66.444301 
" clip-path="url(#p1b43da136f)" style="fill: none; stroke: #0000ff; stroke-width: 0.75; stroke-linecap: square"/>
   </g>
   <g id="line2d_11">
    <path d="M 52.945104 19.546593 
L 53.925287 19.621414 
L 54.905471 19.511513 
L 55.885654 18.481613 
L 56.865837 16.255948 
L 58.826204 10.845217 
L 59.806387 8.91968 
L 60.786571 7.879704 
L 61.766754 7.837147 
L 62.746937 8.908134 
L 63.727121 11.287786 
L 64.707304 15.360086 
L 65.687488 21.977536 
L 66.667671 33.366144 
L 67.647854 46.306162 
L 68.628038 32.59884 
L 69.608221 24.481339 
L 70.588404 20.647953 
L 71.568588 19.401255 
L 72.548771 20.22274 
L 73.528954 23.14006 
L 74.509138 28.704932 
L 75.489321 38.205223 
L 76.469505 46.494555 
L 77.449688 37.248611 
L 78.429871 30.094886 
L 79.410055 26.691519 
L 80.390238 25.971616 
L 81.370421 27.62428 
L 82.350605 31.855624 
L 83.330788 39.027994 
L 84.310972 44.749578 
L 86.271338 33.270763 
L 87.251522 30.290592 
L 88.231705 29.982279 
L 89.211888 32.241949 
L 90.192072 37.439168 
L 91.172255 45.500737 
L 92.152438 46.9747 
L 93.132622 39.514529 
L 94.112805 34.425674 
L 95.092989 32.377004 
L 96.073172 32.960883 
L 97.053355 36.290707 
L 98.033539 43.157998 
L 99.013722 53.126119 
L 99.993905 49.424698 
L 100.974089 41.006833 
L 101.954272 36.726036 
L 102.934455 35.718847 
L 103.914639 37.700713 
L 104.894822 43.363135 
L 105.875006 55.11312 
L 106.855189 59.239838 
L 107.835372 46.239848 
L 108.815556 39.899483 
L 109.795739 37.773578 
L 110.775922 38.990982 
L 111.756106 44.119293 
L 112.736289 57.02444 
L 113.716472 79.350224 
L 114.696656 50.133092 
L 115.676839 41.729284 
L 116.657023 38.578481 
L 117.637206 38.805831 
L 118.617389 42.329694 
L 119.597573 50.452404 
L 120.577756 64.664307 
L 122.538123 45.654661 
L 123.518306 41.436702 
L 124.49849 40.640993 
L 125.478673 42.775456 
L 126.458856 48.257321 
L 127.43904 58.23863 
L 128.419223 63.085535 
L 129.399406 53.488795 
L 130.37959 47.739333 
L 131.359773 45.749759 
L 132.339956 46.720573 
L 133.32014 50.751586 
L 134.300323 59.222034 
L 135.280507 77.863845 
L 136.26069 71.697516 
L 137.240873 59.495601 
L 138.221057 54.750626 
L 139.20124 53.606572 
L 140.181423 54.993568 
L 141.161607 58.616498 
L 142.14179 64.608062 
L 144.102157 82.599311 
L 145.08234 76.25847 
L 146.062524 67.343144 
L 147.042707 61.398663 
L 148.02289 57.873329 
L 149.003074 56.541467 
L 149.983257 57.575127 
L 150.96344 61.701695 
L 152.923807 80.720103 
L 153.903991 66.358839 
L 154.884174 57.52295 
L 155.864357 53.105167 
L 156.844541 51.554183 
L 157.824724 52.378143 
L 158.804907 55.416133 
L 159.785091 59.732507 
L 160.765274 60.724634 
L 162.725641 51.915618 
L 163.705824 49.368281 
L 164.686008 48.692505 
L 165.666191 49.504453 
L 166.646374 51.002817 
L 167.626558 51.789261 
L 168.606741 51.063061 
L 169.586924 49.836614 
L 170.567108 49.450034 
L 171.547291 50.5021 
L 172.527474 52.793602 
L 173.507658 54.78068 
L 174.487841 54.199776 
L 175.468025 51.963543 
L 176.448208 50.573299 
L 177.428391 51.252465 
L 178.408575 54.655026 
L 179.388758 61.586168 
L 180.368941 70.595291 
L 181.349125 68.055173 
L 182.329308 62.380949 
L 183.309491 60.40545 
L 184.289675 59.483521 
L 185.269858 55.077504 
L 186.250042 48.567429 
L 187.230225 43.349841 
L 188.210408 40.246269 
L 189.190592 39.306125 
L 190.170775 40.641931 
L 191.150958 44.644842 
L 192.131142 51.690304 
L 193.111325 56.107898 
L 195.071692 43.03443 
L 196.051875 39.61098 
L 197.032059 38.346514 
L 198.012242 38.557777 
L 199.972609 40.313899 
L 201.932975 40.826189 
L 202.913159 41.865474 
L 203.893342 44.526415 
L 204.873526 49.732375 
L 205.853709 59.510598 
L 206.833892 83.24588 
L 208.794259 60.216531 
L 209.774442 56.917019 
L 210.754626 57.793311 
L 211.734809 62.205097 
L 212.714992 69.698715 
L 213.695176 73.779869 
L 214.675359 69.880494 
L 215.655543 67.475383 
L 216.635726 67.372163 
L 217.615909 64.530713 
L 219.576276 50.517429 
L 220.556459 45.693053 
L 221.536643 42.770185 
L 222.516826 41.540661 
L 223.49701 41.886519 
L 224.477193 43.785591 
L 225.457376 47.288053 
L 226.43756 52.452098 
L 228.397926 65.939102 
L 229.37811 69.23684 
L 229.37811 69.23684 
" clip-path="url(#p1b43da136f)" style="fill: none; stroke: #00bfbf; stroke-width: 0.75; stroke-linecap: square"/>
   </g>
   <g id="line2d_12">
    <path d="M 52.945104 8.476926 
L 53.925287 8.544607 
L 54.905471 8.773862 
L 55.885654 9.202065 
L 56.865837 9.853723 
L 57.846021 10.728523 
L 58.826204 11.80624 
L 59.806387 13.076452 
L 60.786571 14.563295 
L 61.766754 16.32636 
L 62.746937 18.452827 
L 63.727121 21.034099 
L 64.707304 24.165937 
L 65.687488 27.993522 
L 66.667671 32.781942 
L 67.647854 39.061546 
L 68.628038 47.952503 
L 69.608221 59.844571 
L 70.588404 56.575182 
L 71.568588 46.887702 
L 72.548771 40.588365 
L 73.528954 36.309161 
L 74.509138 33.272931 
L 75.489321 31.158077 
L 76.469505 29.854214 
L 77.449688 29.310411 
L 78.429871 29.466702 
L 79.410055 30.265974 
L 80.390238 31.686 
L 81.370421 33.740933 
L 82.350605 36.493208 
L 83.330788 40.09033 
L 84.310972 44.821325 
L 85.291155 51.170091 
L 86.271338 58.466189 
L 87.251522 57.953733 
L 88.231705 50.541593 
L 89.211888 44.752438 
L 90.192072 41.064491 
L 91.172255 38.804585 
L 92.152438 37.407828 
L 93.132622 36.547338 
L 94.112805 36.199913 
L 95.092989 36.584475 
L 96.073172 37.99739 
L 97.053355 40.667644 
L 98.033539 44.730257 
L 99.013722 50.379976 
L 99.993905 58.355213 
L 100.974089 70.406799 
L 101.954272 69.400338 
L 102.934455 56.93949 
L 103.914639 49.51631 
L 104.894822 45.237802 
L 105.875006 42.886271 
L 106.855189 41.682775 
L 107.835372 41.101448 
L 108.815556 41.015135 
L 109.795739 41.688943 
L 110.775922 43.512293 
L 111.756106 46.843768 
L 112.736289 52.071345 
L 113.716472 60.003289 
L 115.676839 88.514067 
L 116.657023 64.956484 
L 117.637206 55.849604 
L 118.617389 51.147769 
L 119.597573 48.737212 
L 120.577756 47.544384 
L 121.557939 46.799736 
L 122.538123 46.378818 
L 123.518306 46.859919 
L 124.49849 48.848461 
L 125.478673 52.677911 
L 126.458856 58.443724 
L 127.43904 65.795823 
L 128.419223 74.847789 
L 129.399406 85.562123 
L 130.37959 71.504121 
L 131.359773 60.349229 
L 132.339956 54.474077 
L 133.32014 51.665351 
L 134.300323 50.778388 
L 135.280507 50.934543 
L 136.26069 51.344189 
L 137.240873 51.888089 
L 138.221057 53.307366 
L 139.20124 56.443574 
L 140.181423 61.903697 
L 141.161607 70.240972 
L 142.14179 80.554086 
L 143.121973 83.160065 
L 144.102157 77.797315 
L 146.062524 65.61584 
L 147.042707 61.535841 
L 148.02289 59.266052 
L 149.003074 58.624437 
L 149.983257 59.402338 
L 150.96344 61.277096 
L 153.903991 68.680772 
L 154.884174 71.495466 
L 155.864357 75.385348 
L 157.824724 85.153263 
L 158.804907 89.51454 
L 159.785091 94.956088 
L 160.765274 93.267025 
L 161.745457 86.673459 
L 162.725641 83.524955 
L 163.705824 84.573533 
L 164.686008 90.392772 
L 165.666191 89.955782 
L 166.646374 80.066708 
L 167.626558 75.030905 
L 168.606741 74.168494 
L 169.586924 74.896979 
L 170.567108 73.184769 
L 172.527474 63.734384 
L 173.507658 60.358309 
L 174.487841 57.9968 
L 175.468025 56.193786 
L 176.448208 54.861563 
L 177.428391 54.138829 
L 178.408575 54.090318 
L 179.388758 54.558418 
L 180.368941 55.234915 
L 181.349125 56.142355 
L 182.329308 57.853765 
L 183.309491 61.165007 
L 184.289675 67.173189 
L 185.269858 78.813207 
L 186.250042 102.222809 
L 187.230225 77.767615 
L 188.210408 67.195439 
L 189.190592 60.873318 
L 190.170775 56.440936 
L 191.150958 53.285603 
L 192.131142 51.189087 
L 193.111325 50.01169 
L 194.091509 49.516898 
L 195.071692 49.30404 
L 196.051875 48.962476 
L 198.012242 47.669514 
L 198.992425 47.311037 
L 199.972609 47.394851 
L 200.952792 47.653343 
L 201.932975 47.667879 
L 203.893342 46.998216 
L 204.873526 47.181577 
L 205.853709 48.168838 
L 206.833892 49.946601 
L 207.814076 52.346378 
L 208.794259 55.278581 
L 209.774442 58.902377 
L 211.734809 68.442782 
L 212.714992 70.353612 
L 213.695176 67.648393 
L 214.675359 64.129959 
L 215.655543 61.561816 
L 216.635726 60.064542 
L 217.615909 59.60303 
L 218.596093 60.267605 
L 219.576276 62.230125 
L 220.556459 65.685365 
L 221.536643 70.99014 
L 222.516826 79.352191 
L 223.49701 96.817237 
L 224.477193 99.74253 
L 225.457376 80.647602 
L 226.43756 72.631133 
L 227.417743 68.372822 
L 228.397926 66.240468 
L 229.37811 65.599784 
L 229.37811 65.599784 
" clip-path="url(#p1b43da136f)" style="fill: none; stroke-dasharray: 2.775,1.2; stroke-dashoffset: 0; stroke: #0000ff; stroke-width: 0.75"/>
   </g>
   <g id="line2d_13">
    <path d="M 52.945104 20.577016 
L 54.905471 20.026652 
L 55.885654 19.127206 
L 56.865837 16.750197 
L 57.846021 13.82864 
L 58.826204 11.312808 
L 59.806387 9.259467 
L 60.786571 7.971367 
L 61.766754 7.83167 
L 62.746937 8.721258 
L 63.727121 10.824397 
L 64.707304 14.891748 
L 65.687488 21.505675 
L 66.667671 32.651125 
L 67.647854 46.283511 
L 68.628038 32.099551 
L 69.608221 23.904564 
L 70.588404 19.692918 
L 71.568588 18.674403 
L 72.548771 20.111099 
L 73.528954 23.427323 
L 74.509138 29.964398 
L 75.489321 40.777882 
L 76.469505 46.076115 
L 77.449688 36.328088 
L 78.429871 29.628036 
L 79.410055 27.031874 
L 80.390238 26.66694 
L 81.370421 28.386046 
L 82.350605 32.887477 
L 83.330788 40.136226 
L 84.310972 44.90905 
L 85.291155 39.785698 
L 86.271338 33.692518 
L 87.251522 30.389092 
L 88.231705 30.541034 
L 89.211888 33.52543 
L 90.192072 37.709943 
L 91.172255 42.989291 
L 92.152438 44.884114 
L 93.132622 39.601719 
L 94.112805 35.326397 
L 95.092989 32.646232 
L 96.073172 32.637764 
L 97.053355 36.271432 
L 98.033539 42.535755 
L 99.013722 50.145128 
L 99.993905 48.241546 
L 100.974089 40.425485 
L 101.954272 36.681619 
L 102.934455 34.782499 
L 103.914639 35.721915 
L 104.894822 41.877869 
L 105.875006 53.67376 
L 106.855189 57.327439 
L 107.835372 44.309384 
L 108.815556 38.664505 
L 109.795739 36.593987 
L 110.775922 37.131616 
L 111.756106 43.616534 
L 112.736289 57.655949 
L 113.716472 76.730705 
L 114.696656 46.326099 
L 115.676839 39.800826 
L 116.657023 38.42976 
L 117.637206 37.608711 
L 118.617389 43.12732 
L 119.597573 52.398759 
L 120.577756 58.559098 
L 121.557939 52.671457 
L 122.538123 42.837722 
L 123.518306 41.739617 
L 124.49849 40.808966 
L 125.478673 44.296408 
L 126.458856 52.927952 
L 127.43904 56.459036 
L 128.419223 62.742714 
L 129.399406 51.934111 
L 131.359773 48.330092 
L 132.339956 49.199685 
L 133.32014 57.619266 
L 134.300323 60.231899 
L 135.280507 73.111077 
L 136.26069 74.743968 
L 137.240873 64.093443 
L 138.221057 67.500947 
L 139.20124 59.298375 
L 140.181423 56.205448 
L 141.161607 59.808111 
L 142.14179 61.303749 
L 143.121973 63.564418 
L 144.102157 79.507011 
L 145.08234 89.186568 
L 146.062524 80.584239 
L 147.042707 61.283834 
L 148.02289 55.137137 
L 149.003074 54.692045 
L 149.983257 54.086193 
L 150.96344 57.964576 
L 151.943624 72.087957 
L 152.923807 77.474074 
L 153.903991 68.114024 
L 154.884174 60.088558 
L 155.864357 54.411224 
L 156.844541 52.638381 
L 157.824724 54.025019 
L 158.804907 54.805626 
L 159.785091 57.822302 
L 160.765274 70.18998 
L 162.725641 55.572582 
L 164.686008 47.179051 
L 165.666191 47.208611 
L 166.646374 50.176664 
L 167.626558 51.336668 
L 168.606741 52.303359 
L 169.586924 50.796273 
L 170.567108 49.064278 
L 171.547291 47.944704 
L 172.527474 49.070715 
L 173.507658 53.149932 
L 174.487841 52.806667 
L 176.448208 51.147122 
L 177.428391 51.160724 
L 178.408575 54.352553 
L 179.388758 60.470499 
L 180.368941 69.008092 
L 181.349125 64.197183 
L 182.329308 60.234439 
L 183.309491 58.931061 
L 184.289675 60.5145 
L 185.269858 58.017332 
L 187.230225 43.194237 
L 188.210408 38.714173 
L 189.190592 38.174367 
L 190.170775 39.847765 
L 191.150958 43.94333 
L 192.131142 52.195838 
L 193.111325 55.96163 
L 194.091509 47.800685 
L 195.071692 41.088653 
L 196.051875 38.3186 
L 197.032059 38.108912 
L 199.972609 40.065051 
L 200.952792 40.478897 
L 201.932975 39.950237 
L 202.913159 41.16472 
L 203.893342 45.898637 
L 204.873526 52.221579 
L 205.853709 63.937183 
L 206.833892 98.607542 
L 207.814076 67.795787 
L 208.794259 62.719992 
L 209.774442 59.190282 
L 210.754626 60.814935 
L 211.734809 67.102791 
L 212.714992 68.509148 
L 213.695176 65.667919 
L 214.675359 67.530666 
L 215.655543 73.206252 
L 216.635726 73.752689 
L 217.615909 62.710584 
L 218.596093 55.439003 
L 220.556459 46.185626 
L 221.536643 43.784984 
L 222.516826 43.155396 
L 223.49701 43.347191 
L 224.477193 45.42314 
L 226.43756 52.47138 
L 227.417743 57.666945 
L 228.397926 61.976615 
L 229.37811 62.515322 
L 229.37811 62.515322 
" clip-path="url(#p1b43da136f)" style="fill: none; stroke-dasharray: 2.775,1.2; stroke-dashoffset: 0; stroke: #00bfbf; stroke-width: 0.75"/>
   </g>
   <g id="patch_3">
    <path d="M 44.123453 109.29171 
L 44.123453 3.00024 
" style="fill: none; stroke: #000000; stroke-width: 0.8; stroke-linejoin: miter; stroke-linecap: square"/>
   </g>
   <g id="patch_4">
    <path d="M 238.19976 109.29171 
L 238.19976 3.00024 
" style="fill: none; stroke: #000000; stroke-width: 0.8; stroke-linejoin: miter; stroke-linecap: square"/>
   </g>
   <g id="patch_5">
    <path d="M 44.123453 109.29171 
L 238.19976 109.29171 
" style="fill: none; stroke: #000000; stroke-width: 0.8; stroke-linejoin: miter; stroke-linecap: square"/>
   </g>
   <g id="patch_6">
    <path d="M 44.123453 3.00024 
L 238.19976 3.00024 
" style="fill: none; stroke: #000000; stroke-width: 0.8; stroke-linejoin: miter; stroke-linecap: square"/>
   </g>
   <g id="axes_2">
    <g id="patch_7">
     <path d="M 154.746948 26.384363 
L 232.377471 26.384363 
L 232.377471 5.126069 
L 154.746948 5.126069 
z
" style="fill: #ffffff"/>
    </g>
    <g id="matplotlib.axis_3">
     <g id="xtick_8">
      <g id="line2d_14">
       <g>
        <use xlink:href="#mdef62f8e4d" x="158.275608" y="26.384363" style="stroke: #000000; stroke-width: 0.8"/>
       </g>
      </g>
      <g id="text_12">
       <!-- $\mathdefault{2}$ -->
       <g transform="translate(155.784941 40.302862) scale(0.1 -0.1)">
        <use xlink:href="#CMR17-32" transform="scale(0.996264)"/>
       </g>
      </g>
     </g>
     <g id="xtick_9">
      <g id="line2d_15">
       <g>
        <use xlink:href="#mdef62f8e4d" x="205.32441" y="26.384363" style="stroke: #000000; stroke-width: 0.8"/>
       </g>
      </g>
      <g id="text_13">
       <!-- $\mathdefault{4}$ -->
       <g transform="translate(202.833742 40.302862) scale(0.1 -0.1)">
        <defs>
         <path id="CMR17-34" d="M 2150 4147 
C 2150 4281 2144 4288 2029 4288 
L 128 1254 
L 128 1088 
L 1779 1088 
L 1779 460 
C 1779 230 1766 166 1318 166 
L 1197 166 
L 1197 0 
C 1402 12 1747 12 1965 12 
C 2182 12 2528 12 2733 0 
L 2733 166 
L 2611 166 
C 2163 166 2150 230 2150 460 
L 2150 1088 
L 2803 1088 
L 2803 1254 
L 2150 1254 
L 2150 4147 
z
M 1798 3723 
L 1798 1254 
L 256 1254 
L 1798 3723 
z
" transform="scale(0.015625)"/>
        </defs>
        <use xlink:href="#CMR17-34" transform="scale(0.996264)"/>
       </g>
      </g>
     </g>
     <g id="text_14">
      <!-- $r/a$ -->
      <g transform="translate(186.052734 53.71202) scale(0.1 -0.1)">
       <defs>
        <path id="CMMI12-72" d="M 2490 2633 
C 2291 2598 2189 2457 2189 2316 
C 2189 2163 2310 2111 2400 2111 
C 2579 2111 2726 2265 2726 2457 
C 2726 2651 2528 2816 2208 2816 
C 1952 2816 1658 2700 1389 2335 
C 1344 2660 1088 2816 832 2816 
C 582 2816 454 2642 378 2508 
C 269 2278 173 1892 173 1860 
C 173 1834 198 1801 243 1801 
C 294 1801 301 1808 339 1957 
C 435 2342 557 2687 813 2687 
C 966 2687 1011 2604 1011 2419 
C 1011 2278 947 2028 902 1827 
L 723 1130 
C 698 1007 627 716 595 600 
C 550 432 480 128 480 96 
C 480 6 550 -64 646 -64 
C 717 -64 838 -20 877 109 
C 896 160 1133 1136 1171 1285 
C 1203 1427 1242 1562 1274 1705 
C 1299 1795 1325 1898 1344 1982 
C 1363 2040 1536 2355 1696 2495 
C 1773 2566 1939 2687 2202 2687 
C 2304 2687 2406 2674 2490 2633 
z
" transform="scale(0.015625)"/>
        <path id="CMMI12-61" d="M 1926 759 
C 1894 651 1894 638 1805 517 
C 1664 338 1382 64 1082 64 
C 819 64 672 300 672 676 
C 672 1028 870 1743 992 2011 
C 1210 2458 1510 2687 1760 2687 
C 2182 2687 2266 2164 2266 2113 
C 2266 2107 2246 2024 2240 2011 
L 1926 759 
z
M 2336 2394 
C 2266 2560 2093 2816 1760 2816 
C 1037 2816 256 1883 256 938 
C 256 306 627 -64 1062 -64 
C 1414 -64 1715 210 1894 421 
C 1958 44 2259 -64 2451 -64 
C 2643 -64 2797 51 2912 280 
C 3014 496 3104 885 3104 910 
C 3104 942 3078 968 3040 968 
C 2982 968 2976 936 2950 840 
C 2854 465 2733 64 2470 64 
C 2285 64 2272 229 2272 356 
C 2272 503 2291 573 2349 821 
C 2394 980 2426 1120 2477 1305 
C 2714 2260 2771 2489 2771 2528 
C 2771 2617 2701 2688 2605 2688 
C 2400 2688 2349 2464 2336 2388 
L 2336 2394 
z
" transform="scale(0.015625)"/>
       </defs>
       <use xlink:href="#CMMI12-72" transform="scale(0.996264)"/>
       <use xlink:href="#CMMI12-3d" transform="translate(46.670612 0) scale(0.996264)"/>
       <use xlink:href="#CMMI12-61" transform="translate(95.445531 0) scale(0.996264)"/>
      </g>
     </g>
    </g>
    <g id="matplotlib.axis_4">
     <g id="ytick_3">
      <g id="line2d_16">
       <g>
        <use xlink:href="#m4e3f8c79e6" x="154.746948" y="15.768573" style="stroke: #000000; stroke-width: 0.8"/>
       </g>
      </g>
      <g id="text_15">
       <!-- $\mathdefault{10^{0}}$ -->
       <g transform="translate(133.81304 19.227822) scale(0.1 -0.1)">
        <use xlink:href="#CMR17-31" transform="scale(0.996264)"/>
        <use xlink:href="#CMR17-30" transform="translate(45.690477 0) scale(0.996264)"/>
        <use xlink:href="#CMR17-30" transform="translate(91.380954 36.153639) scale(0.697382)"/>
       </g>
      </g>
     </g>
     <g id="ytick_4">
      <g id="line2d_17">
       <defs>
        <path id="mddeeb6619f" d="M 0 0 
L -2 0 
" style="stroke: #000000; stroke-width: 0.6"/>
       </defs>
       <g>
        <use xlink:href="#mddeeb6619f" x="154.746948" y="25.467665" style="stroke: #000000; stroke-width: 0.6"/>
       </g>
      </g>
     </g>
     <g id="ytick_5">
      <g id="line2d_18">
       <g>
        <use xlink:href="#mddeeb6619f" x="154.746948" y="23.024177" style="stroke: #000000; stroke-width: 0.6"/>
       </g>
      </g>
     </g>
     <g id="ytick_6">
      <g id="line2d_19">
       <g>
        <use xlink:href="#mddeeb6619f" x="154.746948" y="21.290494" style="stroke: #000000; stroke-width: 0.6"/>
       </g>
      </g>
     </g>
     <g id="ytick_7">
      <g id="line2d_20">
       <g>
        <use xlink:href="#mddeeb6619f" x="154.746948" y="19.945745" style="stroke: #000000; stroke-width: 0.6"/>
       </g>
      </g>
     </g>
     <g id="ytick_8">
      <g id="line2d_21">
       <g>
        <use xlink:href="#mddeeb6619f" x="154.746948" y="18.847005" style="stroke: #000000; stroke-width: 0.6"/>
       </g>
      </g>
     </g>
     <g id="ytick_9">
      <g id="line2d_22">
       <g>
        <use xlink:href="#mddeeb6619f" x="154.746948" y="17.918033" style="stroke: #000000; stroke-width: 0.6"/>
       </g>
      </g>
     </g>
     <g id="ytick_10">
      <g id="line2d_23">
       <g>
        <use xlink:href="#mddeeb6619f" x="154.746948" y="17.113322" style="stroke: #000000; stroke-width: 0.6"/>
       </g>
      </g>
     </g>
     <g id="ytick_11">
      <g id="line2d_24">
       <g>
        <use xlink:href="#mddeeb6619f" x="154.746948" y="16.403516" style="stroke: #000000; stroke-width: 0.6"/>
       </g>
      </g>
     </g>
     <g id="ytick_12">
      <g id="line2d_25">
       <g>
        <use xlink:href="#mddeeb6619f" x="154.746948" y="11.591401" style="stroke: #000000; stroke-width: 0.6"/>
       </g>
      </g>
     </g>
     <g id="ytick_13">
      <g id="line2d_26">
       <g>
        <use xlink:href="#mddeeb6619f" x="154.746948" y="9.147912" style="stroke: #000000; stroke-width: 0.6"/>
       </g>
      </g>
     </g>
     <g id="ytick_14">
      <g id="line2d_27">
       <g>
        <use xlink:href="#mddeeb6619f" x="154.746948" y="7.414229" style="stroke: #000000; stroke-width: 0.6"/>
       </g>
      </g>
     </g>
     <g id="ytick_15">
      <g id="line2d_28">
       <g>
        <use xlink:href="#mddeeb6619f" x="154.746948" y="6.06948" style="stroke: #000000; stroke-width: 0.6"/>
       </g>
      </g>
     </g>
    </g>
    <g id="line2d_29">
     <path d="M 158.275608 21.701966 
L 160.628048 21.496257 
L 162.980488 21.390396 
L 165.332929 21.35581 
L 167.685369 21.372582 
L 170.037809 21.426412 
L 172.390249 21.50678 
L 174.742689 21.605786 
L 177.095129 21.7174 
L 179.447569 21.836966 
L 181.800009 21.960852 
L 184.152449 22.086214 
L 186.504889 22.210818 
L 188.857329 22.332914 
L 191.209769 22.451142 
L 193.56221 22.564456 
L 195.91465 22.672068 
L 198.26709 22.773405 
L 200.61953 22.868068 
L 202.97197 22.955804 
L 205.32441 23.036484 
L 207.67685 23.110076 
L 210.02929 23.176632 
L 212.38173 23.236269 
L 214.73417 23.289161 
L 217.08661 23.33552 
L 219.43905 23.375593 
L 221.79149 23.409652 
L 224.143931 23.437983 
L 226.496371 23.460886 
L 228.848811 23.478666 
" clip-path="url(#pe990d187a7)" style="fill: none; stroke: #0000ff; stroke-width: 0.75; stroke-linecap: square"/>
    </g>
    <g id="line2d_30">
     <path d="M 158.275608 10.864348 
L 160.628048 8.653069 
L 162.980488 7.325528 
L 165.332929 6.563665 
L 167.685369 6.188879 
L 170.037809 6.092355 
L 172.390249 6.203624 
L 174.742689 6.474956 
L 177.095129 6.872946 
L 179.447569 7.37365 
L 181.800009 7.959615 
L 184.152449 8.617976 
L 186.504889 9.339193 
L 188.857329 10.11617 
L 191.209769 10.943617 
L 193.56221 11.81756 
L 195.91465 12.734926 
L 198.26709 13.693159 
L 200.61953 14.689807 
L 202.97197 15.722036 
L 205.32441 16.785986 
L 207.67685 17.875924 
L 210.02929 18.983078 
L 212.38173 20.094127 
L 214.73417 21.189391 
L 217.08661 22.241038 
L 219.43905 23.212137 
L 221.79149 24.057977 
L 224.143931 24.731318 
L 226.496371 25.191981 
L 228.848811 25.418077 
" clip-path="url(#pe990d187a7)" style="fill: none; stroke: #00bfbf; stroke-width: 0.75; stroke-linecap: square"/>
    </g>
    <g id="line2d_31">
     <defs>
      <path id="mfc52512d9b" d="M 0 1 
C 0.265203 1 0.51958 0.894634 0.707107 0.707107 
C 0.894634 0.51958 1 0.265203 1 0 
C 1 -0.265203 0.894634 -0.51958 0.707107 -0.707107 
C 0.51958 -0.894634 0.265203 -1 0 -1 
C -0.265203 -1 -0.51958 -0.894634 -0.707107 -0.707107 
C -0.894634 -0.51958 -1 -0.265203 -1 0 
C -1 0.265203 -0.894634 0.51958 -0.707107 0.707107 
C -0.51958 0.894634 -0.265203 1 0 1 
z
" style="stroke: #0000ff"/>
     </defs>
     <g clip-path="url(#pe990d187a7)">
      <use xlink:href="#mfc52512d9b" x="158.275608" y="21.445457" style="fill: #0000ff; stroke: #0000ff"/>
      <use xlink:href="#mfc52512d9b" x="181.800009" y="20.179787" style="fill: #0000ff; stroke: #0000ff"/>
      <use xlink:href="#mfc52512d9b" x="205.32441" y="23.614091" style="fill: #0000ff; stroke: #0000ff"/>
      <use xlink:href="#mfc52512d9b" x="228.848811" y="22.89215" style="fill: #0000ff; stroke: #0000ff"/>
     </g>
    </g>
    <g id="line2d_32">
     <defs>
      <path id="m77e38bd750" d="M 0 1 
C 0.265203 1 0.51958 0.894634 0.707107 0.707107 
C 0.894634 0.51958 1 0.265203 1 0 
C 1 -0.265203 0.894634 -0.51958 0.707107 -0.707107 
C 0.51958 -0.894634 0.265203 -1 0 -1 
C -0.265203 -1 -0.51958 -0.894634 -0.707107 -0.707107 
C -0.894634 -0.51958 -1 -0.265203 -1 0 
C -1 0.265203 -0.894634 0.51958 -0.707107 0.707107 
C -0.51958 0.894634 -0.265203 1 0 1 
z
" style="stroke: #00bfbf"/>
     </defs>
     <g clip-path="url(#pe990d187a7)">
      <use xlink:href="#m77e38bd750" x="158.275608" y="9.020744" style="fill: #00bfbf; stroke: #00bfbf"/>
      <use xlink:href="#m77e38bd750" x="181.800009" y="9.366694" style="fill: #00bfbf; stroke: #00bfbf"/>
      <use xlink:href="#m77e38bd750" x="205.32441" y="20.780242" style="fill: #00bfbf; stroke: #00bfbf"/>
      <use xlink:href="#m77e38bd750" x="228.848811" y="20.749998" style="fill: #00bfbf; stroke: #00bfbf"/>
     </g>
    </g>
    <g id="patch_8">
     <path d="M 154.746948 26.384363 
L 154.746948 5.126069 
" style="fill: none; stroke: #000000; stroke-width: 0.8; stroke-linejoin: miter; stroke-linecap: square"/>
    </g>
    <g id="patch_9">
     <path d="M 232.377471 26.384363 
L 232.377471 5.126069 
" style="fill: none; stroke: #000000; stroke-width: 0.8; stroke-linejoin: miter; stroke-linecap: square"/>
    </g>
    <g id="patch_10">
     <path d="M 154.746948 26.384363 
L 232.377471 26.384363 
" style="fill: none; stroke: #000000; stroke-width: 0.8; stroke-linejoin: miter; stroke-linecap: square"/>
    </g>
    <g id="patch_11">
     <path d="M 154.746948 5.126069 
L 232.377471 5.126069 
" style="fill: none; stroke: #000000; stroke-width: 0.8; stroke-linejoin: miter; stroke-linecap: square"/>
    </g>
   </g>
  </g>
 </g>
 <defs>
  <clipPath id="p1b43da136f">
   <rect x="44.123453" y="3.00024" width="194.076307" height="106.29147"/>
  </clipPath>
  <clipPath id="pe990d187a7">
   <rect x="154.746948" y="5.126069" width="77.630523" height="21.258294"/>
  </clipPath>
 </defs>
</svg>
