<?xml version="1.0" encoding="utf-8" standalone="no"?>
<!DOCTYPE svg PUBLIC "-//W3C//DTD SVG 1.1//EN"
  "http://www.w3.org/Graphics/SVG/1.1/DTD/svg11.dtd">
<svg xmlns:xlink="http://www.w3.org/1999/xlink" width="241.2pt" height="144pt" viewBox="0 0 241.2 144" xmlns="http://www.w3.org/2000/svg" version="1.1">
 <metadata>
  <rdf:RDF xmlns:dc="http://purl.org/dc/elements/1.1/" xmlns:cc="http://creativecommons.org/ns#" xmlns:rdf="http://www.w3.org/1999/02/22-rdf-syntax-ns#">
   <cc:Work>
    <dc:type rdf:resource="http://purl.org/dc/dcmitype/StillImage"/>
    <dc:date>2025-11-12T23:27:10.533286</dc:date>
    <dc:format>image/svg+xml</dc:format>
    <dc:creator>
     <cc:Agent>
      <dc:title>Matplotlib v3.6.3, https://matplotlib.org/</dc:title>
     </cc:Agent>
    </dc:creator>
   </cc:Work>
  </rdf:RDF>
 </metadata>
 <defs>
  <style type="text/css">*{stroke-linejoin: round; stroke-linecap: butt}</style>
 </defs>
 <g id="figure_1">
  <g id="patch_1">
   <path d="M 0 144 
L 241.2 144 
L 241.2 0 
L 0 0 
z
" style="fill: #ffffff"/>
  </g>
  <g id="axes_1">
   <g id="patch_2">
    <path d="M 44.123453 109.29171 
L 238.19976 109.29171 
L 238.19976 3.00024 
L 44.123453 3.00024 
z
" style="fill: #ffffff"/>
   </g>
   <g id="matplotlib.axis_1">
    <g id="xtick_1">
     <g id="line2d_1">
      <defs>
       <path id="m9ae226effb" d="M 0 0 
L 0 3.5 
" style="stroke: #000000; stroke-width: 0.8"/>
      </defs>
      <g>
       <use xlink:href="#m9ae226effb" x="52.945104" y="109.29171" style="stroke: #000000; stroke-width: 0.8"/>
      </g>
     </g>
     <g id="text_1">
      <!-- $0$ -->
      <g transform="translate(50.454436 123.210208) scale(0.1 -0.1)">
       <defs>
        <path id="CMR17-30" d="M 2688 2038 
C 2688 2430 2682 3099 2413 3613 
C 2176 4063 1798 4224 1466 4224 
C 1158 4224 768 4082 525 3620 
C 269 3137 243 2539 243 2038 
C 243 1671 250 1112 448 623 
C 723 -39 1216 -128 1466 -128 
C 1760 -128 2208 -7 2470 604 
C 2662 1048 2688 1568 2688 2038 
z
M 1466 -26 
C 1056 -26 813 328 723 816 
C 653 1196 653 1749 653 2109 
C 653 2604 653 3015 736 3407 
C 858 3954 1216 4121 1466 4121 
C 1728 4121 2067 3947 2189 3420 
C 2272 3054 2278 2623 2278 2109 
C 2278 1691 2278 1176 2202 797 
C 2067 96 1690 -26 1466 -26 
z
" transform="scale(0.015625)"/>
       </defs>
       <use xlink:href="#CMR17-30" transform="scale(0.996264)"/>
      </g>
     </g>
    </g>
    <g id="xtick_2">
     <g id="line2d_2">
      <g>
       <use xlink:href="#m9ae226effb" x="82.350605" y="109.29171" style="stroke: #000000; stroke-width: 0.8"/>
      </g>
     </g>
     <g id="text_2">
      <!-- $\frac{\pi}{6}$ -->
      <g transform="translate(79.896072 123.216942) scale(0.1 -0.1)">
       <defs>
        <path id="CMMI12-19" d="M 1658 2406 
L 2381 2406 
C 2208 1691 2099 1225 2099 715 
C 2099 625 2099 -64 2362 -64 
C 2496 -64 2611 57 2611 166 
C 2611 198 2611 210 2566 306 
C 2394 746 2394 1295 2394 1340 
C 2394 1378 2394 1832 2528 2406 
L 3245 2406 
C 3328 2406 3539 2406 3539 2611 
C 3539 2752 3418 2752 3302 2752 
L 1197 2752 
C 1050 2752 832 2752 538 2438 
C 371 2253 166 1915 166 1876 
C 166 1838 198 1825 237 1825 
C 282 1825 288 1844 320 1883 
C 653 2406 986 2406 1146 2406 
L 1510 2406 
C 1370 1927 1210 1372 685 255 
C 634 153 634 140 634 102 
C 634 -32 749 -64 806 -64 
C 992 -64 1043 102 1120 370 
C 1222 695 1222 708 1286 964 
L 1658 2406 
z
" transform="scale(0.015625)"/>
        <path id="CMR17-36" d="M 678 2198 
C 678 3712 1395 4076 1811 4076 
C 1946 4076 2272 4049 2400 3782 
C 2298 3782 2106 3782 2106 3558 
C 2106 3385 2246 3328 2336 3328 
C 2394 3328 2566 3353 2566 3571 
C 2566 3987 2246 4224 1805 4224 
C 1043 4224 243 3411 243 2011 
C 243 257 966 -128 1478 -128 
C 2099 -128 2688 431 2688 1295 
C 2688 2101 2170 2688 1517 2688 
C 1126 2688 838 2430 678 1979 
L 678 2198 
z
M 1478 25 
C 691 25 691 1212 691 1450 
C 691 1914 909 2585 1504 2585 
C 1613 2585 1926 2585 2138 2140 
C 2253 1889 2253 1624 2253 1302 
C 2253 954 2253 696 2118 438 
C 1978 173 1773 25 1478 25 
z
" transform="scale(0.015625)"/>
       </defs>
       <use xlink:href="#CMMI12-19" transform="translate(0 39.226102) scale(0.697382)"/>
       <use xlink:href="#CMR17-36" transform="translate(4.627027 -34.355253) scale(0.697382)"/>
       <path d="M 0 22.914133 
L 41.237221 22.914133 
L 41.237221 26.899083 
L 0 26.899083 
L 0 22.914133 
z
"/>
      </g>
     </g>
    </g>
    <g id="xtick_3">
     <g id="line2d_3">
      <g>
       <use xlink:href="#m9ae226effb" x="111.756106" y="109.29171" style="stroke: #000000; stroke-width: 0.8"/>
      </g>
     </g>
     <g id="text_3">
      <!-- $\frac{\pi}{3}$ -->
      <g transform="translate(109.301573 123.216942) scale(0.1 -0.1)">
       <defs>
        <path id="CMR17-33" d="M 1414 2176 
C 1984 2176 2234 1673 2234 1094 
C 2234 322 1824 25 1453 25 
C 1114 25 563 193 390 691 
C 422 678 454 678 486 678 
C 640 678 755 780 755 947 
C 755 1132 614 1216 486 1216 
C 378 1216 211 1164 211 927 
C 211 335 787 -128 1466 -128 
C 2176 -128 2720 432 2720 1087 
C 2720 1718 2208 2176 1600 2246 
C 2086 2347 2554 2776 2554 3353 
C 2554 3856 2048 4224 1472 4224 
C 890 4224 378 3862 378 3347 
C 378 3123 544 3084 627 3084 
C 762 3084 877 3167 877 3334 
C 877 3500 762 3584 627 3584 
C 602 3584 570 3584 544 3571 
C 730 3999 1235 4076 1459 4076 
C 1683 4076 2106 3966 2106 3347 
C 2106 3167 2080 2851 1862 2574 
C 1670 2329 1453 2316 1242 2297 
C 1210 2297 1062 2284 1037 2284 
C 992 2278 966 2272 966 2227 
C 966 2182 973 2176 1101 2176 
L 1414 2176 
z
" transform="scale(0.015625)"/>
       </defs>
       <use xlink:href="#CMMI12-19" transform="translate(0 39.226102) scale(0.697382)"/>
       <use xlink:href="#CMR17-33" transform="translate(4.627027 -34.355253) scale(0.697382)"/>
       <path d="M 0 22.914133 
L 41.237221 22.914133 
L 41.237221 26.899083 
L 0 26.899083 
L 0 22.914133 
z
"/>
      </g>
     </g>
    </g>
    <g id="xtick_4">
     <g id="line2d_4">
      <g>
       <use xlink:href="#m9ae226effb" x="141.161607" y="109.29171" style="stroke: #000000; stroke-width: 0.8"/>
      </g>
     </g>
     <g id="text_4">
      <!-- $\frac{\pi}{2}$ -->
      <g transform="translate(138.707074 123.216942) scale(0.1 -0.1)">
       <defs>
        <path id="CMR17-32" d="M 2669 990 
L 2554 990 
C 2490 537 2438 460 2413 422 
C 2381 371 1920 371 1830 371 
L 602 371 
C 832 620 1280 1073 1824 1596 
C 2214 1966 2669 2400 2669 3033 
C 2669 3788 2067 4224 1395 4224 
C 691 4224 262 3603 262 3027 
C 262 2777 448 2745 525 2745 
C 589 2745 781 2783 781 3007 
C 781 3206 614 3264 525 3264 
C 486 3264 448 3257 422 3244 
C 544 3788 915 4057 1306 4057 
C 1862 4057 2227 3616 2227 3033 
C 2227 2477 1901 1998 1536 1583 
L 262 147 
L 262 0 
L 2515 0 
L 2669 990 
z
" transform="scale(0.015625)"/>
       </defs>
       <use xlink:href="#CMMI12-19" transform="translate(0 39.226102) scale(0.697382)"/>
       <use xlink:href="#CMR17-32" transform="translate(4.627027 -34.355253) scale(0.697382)"/>
       <path d="M 0 22.914133 
L 41.237221 22.914133 
L 41.237221 26.899083 
L 0 26.899083 
L 0 22.914133 
z
"/>
      </g>
     </g>
    </g>
    <g id="xtick_5">
     <g id="line2d_5">
      <g>
       <use xlink:href="#m9ae226effb" x="170.567108" y="109.29171" style="stroke: #000000; stroke-width: 0.8"/>
      </g>
     </g>
     <g id="text_5">
      <!-- $\frac{2\pi}{3}$ -->
      <g transform="translate(166.126956 124.708572) scale(0.1 -0.1)">
       <use xlink:href="#CMR17-32" transform="translate(0 39.226102) scale(0.697382)"/>
       <use xlink:href="#CMMI12-19" transform="translate(31.983182 39.226102) scale(0.697382)"/>
       <use xlink:href="#CMR17-33" transform="translate(20.618618 -34.355253) scale(0.697382)"/>
       <path d="M 0 22.914133 
L 73.220403 22.914133 
L 73.220403 26.899083 
L 0 26.899083 
L 0 22.914133 
z
"/>
      </g>
     </g>
    </g>
    <g id="xtick_6">
     <g id="line2d_6">
      <g>
       <use xlink:href="#m9ae226effb" x="199.972609" y="109.29171" style="stroke: #000000; stroke-width: 0.8"/>
      </g>
     </g>
     <g id="text_6">
      <!-- $\frac{5\pi}{6}$ -->
      <g transform="translate(195.532457 124.708572) scale(0.1 -0.1)">
       <defs>
        <path id="CMR17-35" d="M 730 3750 
C 794 3724 1056 3641 1325 3641 
C 1920 3641 2246 3961 2432 4140 
C 2432 4191 2432 4224 2394 4224 
C 2387 4224 2374 4224 2323 4198 
C 2099 4102 1837 4032 1517 4032 
C 1325 4032 1037 4055 723 4191 
C 653 4224 640 4224 634 4224 
C 602 4224 595 4217 595 4090 
L 595 2231 
C 595 2113 595 2080 659 2080 
C 691 2080 704 2093 736 2139 
C 941 2435 1222 2560 1542 2560 
C 1766 2560 2246 2415 2246 1293 
C 2246 1087 2246 716 2054 422 
C 1894 159 1645 25 1370 25 
C 947 25 518 319 403 812 
C 429 806 480 793 506 793 
C 589 793 749 838 749 1036 
C 749 1209 627 1280 506 1280 
C 358 1280 262 1190 262 1011 
C 262 454 704 -128 1382 -128 
C 2042 -128 2669 441 2669 1267 
C 2669 2054 2170 2662 1549 2662 
C 1222 2662 947 2540 730 2304 
L 730 3750 
z
" transform="scale(0.015625)"/>
       </defs>
       <use xlink:href="#CMR17-35" transform="translate(0 39.226102) scale(0.697382)"/>
       <use xlink:href="#CMMI12-19" transform="translate(31.983182 39.226102) scale(0.697382)"/>
       <use xlink:href="#CMR17-36" transform="translate(20.618618 -34.355253) scale(0.697382)"/>
       <path d="M 0 22.914133 
L 73.220403 22.914133 
L 73.220403 26.899083 
L 0 26.899083 
L 0 22.914133 
z
"/>
      </g>
     </g>
    </g>
    <g id="xtick_7">
     <g id="line2d_7">
      <g>
       <use xlink:href="#m9ae226effb" x="229.37811" y="109.29171" style="stroke: #000000; stroke-width: 0.8"/>
      </g>
     </g>
     <g id="text_7">
      <!-- $\pi$ -->
      <g transform="translate(226.538622 123.210208) scale(0.1 -0.1)">
       <use xlink:href="#CMMI12-19" transform="scale(0.996264)"/>
      </g>
     </g>
    </g>
    <g id="text_8">
     <!-- $\phi $ -->
     <g transform="translate(138.193565 139.062582) scale(0.1 -0.1)">
      <defs>
       <path id="CMMI12-1e" d="M 2752 4358 
C 2752 4416 2707 4416 2688 4416 
C 2630 4416 2624 4403 2598 4294 
L 2253 2924 
C 2234 2841 2227 2835 2221 2828 
C 2214 2816 2170 2809 2157 2809 
C 1107 2720 301 1863 301 1071 
C 301 387 832 -32 1498 -71 
C 1446 -266 1402 -467 1350 -662 
C 1261 -995 1210 -1204 1210 -1229 
C 1210 -1242 1210 -1280 1274 -1280 
C 1293 -1280 1318 -1280 1331 -1255 
C 1344 -1242 1382 -1089 1408 -1008 
L 1645 -71 
C 2739 -13 3571 875 3571 1673 
C 3571 2313 3085 2771 2374 2816 
L 2752 4358 
z
M 2336 2688 
C 2758 2662 3181 2428 3181 1806 
C 3181 1090 2675 140 1677 64 
L 2336 2688 
z
M 1530 57 
C 1216 76 691 241 691 938 
C 691 1737 1274 2624 2195 2681 
L 1530 57 
z
" transform="scale(0.015625)"/>
      </defs>
      <use xlink:href="#CMMI12-1e" transform="scale(0.996264)"/>
     </g>
    </g>
   </g>
   <g id="matplotlib.axis_2">
    <g id="ytick_1">
     <g id="line2d_8">
      <defs>
       <path id="mbe61040a42" d="M 0 0 
L -3.5 0 
" style="stroke: #000000; stroke-width: 0.8"/>
      </defs>
      <g>
       <use xlink:href="#mbe61040a42" x="44.123453" y="105.978368" style="stroke: #000000; stroke-width: 0.8"/>
      </g>
     </g>
     <g id="text_9">
      <!-- $\mathdefault{10^{-2}}$ -->
      <g transform="translate(16.96288 109.437618) scale(0.1 -0.1)">
       <defs>
        <path id="CMR17-31" d="M 1702 4083 
C 1702 4217 1696 4224 1606 4224 
C 1357 3927 979 3833 621 3820 
C 602 3820 570 3820 563 3808 
C 557 3795 557 3782 557 3648 
C 755 3648 1088 3686 1344 3839 
L 1344 467 
C 1344 243 1331 166 781 166 
L 589 166 
L 589 0 
C 896 6 1216 12 1523 12 
C 1830 12 2150 6 2458 0 
L 2458 166 
L 2266 166 
C 1715 166 1702 236 1702 467 
L 1702 4083 
z
" transform="scale(0.015625)"/>
        <path id="CMSY10-0" d="M 4218 1472 
C 4326 1472 4442 1472 4442 1600 
C 4442 1728 4326 1728 4218 1728 
L 755 1728 
C 646 1728 531 1728 531 1600 
C 531 1472 646 1472 755 1472 
L 4218 1472 
z
" transform="scale(0.015625)"/>
       </defs>
       <use xlink:href="#CMR17-31" transform="scale(0.996264)"/>
       <use xlink:href="#CMR17-30" transform="translate(45.690477 0) scale(0.996264)"/>
       <use xlink:href="#CMSY10-0" transform="translate(91.380954 36.153639) scale(0.697382)"/>
       <use xlink:href="#CMR17-32" transform="translate(145.621947 36.153639) scale(0.697382)"/>
      </g>
     </g>
    </g>
    <g id="ytick_2">
     <g id="line2d_9">
      <g>
       <use xlink:href="#mbe61040a42" x="44.123453" y="80.199232" style="stroke: #000000; stroke-width: 0.8"/>
      </g>
     </g>
     <g id="text_10">
      <!-- $\mathdefault{10^{-1}}$ -->
      <g transform="translate(16.96288 83.658481) scale(0.1 -0.1)">
       <use xlink:href="#CMR17-31" transform="scale(0.996264)"/>
       <use xlink:href="#CMR17-30" transform="translate(45.690477 0) scale(0.996264)"/>
       <use xlink:href="#CMSY10-0" transform="translate(91.380954 36.153639) scale(0.697382)"/>
       <use xlink:href="#CMR17-31" transform="translate(145.621947 36.153639) scale(0.697382)"/>
      </g>
     </g>
    </g>
    <g id="ytick_3">
     <g id="line2d_10">
      <g>
       <use xlink:href="#mbe61040a42" x="44.123453" y="54.420095" style="stroke: #000000; stroke-width: 0.8"/>
      </g>
     </g>
     <g id="text_11">
      <!-- $\mathdefault{10^{0}}$ -->
      <g transform="translate(23.189545 57.879345) scale(0.1 -0.1)">
       <use xlink:href="#CMR17-31" transform="scale(0.996264)"/>
       <use xlink:href="#CMR17-30" transform="translate(45.690477 0) scale(0.996264)"/>
       <use xlink:href="#CMR17-30" transform="translate(91.380954 36.153639) scale(0.697382)"/>
      </g>
     </g>
    </g>
    <g id="ytick_4">
     <g id="line2d_11">
      <g>
       <use xlink:href="#mbe61040a42" x="44.123453" y="28.640959" style="stroke: #000000; stroke-width: 0.8"/>
      </g>
     </g>
     <g id="text_12">
      <!-- $\mathdefault{10^{1}}$ -->
      <g transform="translate(23.189545 32.100208) scale(0.1 -0.1)">
       <use xlink:href="#CMR17-31" transform="scale(0.996264)"/>
       <use xlink:href="#CMR17-30" transform="translate(45.690477 0) scale(0.996264)"/>
       <use xlink:href="#CMR17-31" transform="translate(91.380954 36.153639) scale(0.697382)"/>
      </g>
     </g>
    </g>
    <g id="ytick_5">
     <g id="line2d_12">
      <defs>
       <path id="m8edbc27070" d="M 0 0 
L -2 0 
" style="stroke: #000000; stroke-width: 0.6"/>
      </defs>
      <g>
       <use xlink:href="#m8edbc27070" x="44.123453" y="108.476625" style="stroke: #000000; stroke-width: 0.6"/>
      </g>
     </g>
    </g>
    <g id="ytick_6">
     <g id="line2d_13">
      <g>
       <use xlink:href="#m8edbc27070" x="44.123453" y="107.157957" style="stroke: #000000; stroke-width: 0.6"/>
      </g>
     </g>
    </g>
    <g id="ytick_7">
     <g id="line2d_14">
      <g>
       <use xlink:href="#m8edbc27070" x="44.123453" y="98.218075" style="stroke: #000000; stroke-width: 0.6"/>
      </g>
     </g>
    </g>
    <g id="ytick_8">
     <g id="line2d_15">
      <g>
       <use xlink:href="#m8edbc27070" x="44.123453" y="93.678594" style="stroke: #000000; stroke-width: 0.6"/>
      </g>
     </g>
    </g>
    <g id="ytick_9">
     <g id="line2d_16">
      <g>
       <use xlink:href="#m8edbc27070" x="44.123453" y="90.457782" style="stroke: #000000; stroke-width: 0.6"/>
      </g>
     </g>
    </g>
    <g id="ytick_10">
     <g id="line2d_17">
      <g>
       <use xlink:href="#m8edbc27070" x="44.123453" y="87.959525" style="stroke: #000000; stroke-width: 0.6"/>
      </g>
     </g>
    </g>
    <g id="ytick_11">
     <g id="line2d_18">
      <g>
       <use xlink:href="#m8edbc27070" x="44.123453" y="85.918301" style="stroke: #000000; stroke-width: 0.6"/>
      </g>
     </g>
    </g>
    <g id="ytick_12">
     <g id="line2d_19">
      <g>
       <use xlink:href="#m8edbc27070" x="44.123453" y="84.192471" style="stroke: #000000; stroke-width: 0.6"/>
      </g>
     </g>
    </g>
    <g id="ytick_13">
     <g id="line2d_20">
      <g>
       <use xlink:href="#m8edbc27070" x="44.123453" y="82.697488" style="stroke: #000000; stroke-width: 0.6"/>
      </g>
     </g>
    </g>
    <g id="ytick_14">
     <g id="line2d_21">
      <g>
       <use xlink:href="#m8edbc27070" x="44.123453" y="81.37882" style="stroke: #000000; stroke-width: 0.6"/>
      </g>
     </g>
    </g>
    <g id="ytick_15">
     <g id="line2d_22">
      <g>
       <use xlink:href="#m8edbc27070" x="44.123453" y="72.438939" style="stroke: #000000; stroke-width: 0.6"/>
      </g>
     </g>
    </g>
    <g id="ytick_16">
     <g id="line2d_23">
      <g>
       <use xlink:href="#m8edbc27070" x="44.123453" y="67.899458" style="stroke: #000000; stroke-width: 0.6"/>
      </g>
     </g>
    </g>
    <g id="ytick_17">
     <g id="line2d_24">
      <g>
       <use xlink:href="#m8edbc27070" x="44.123453" y="64.678645" style="stroke: #000000; stroke-width: 0.6"/>
      </g>
     </g>
    </g>
    <g id="ytick_18">
     <g id="line2d_25">
      <g>
       <use xlink:href="#m8edbc27070" x="44.123453" y="62.180389" style="stroke: #000000; stroke-width: 0.6"/>
      </g>
     </g>
    </g>
    <g id="ytick_19">
     <g id="line2d_26">
      <g>
       <use xlink:href="#m8edbc27070" x="44.123453" y="60.139165" style="stroke: #000000; stroke-width: 0.6"/>
      </g>
     </g>
    </g>
    <g id="ytick_20">
     <g id="line2d_27">
      <g>
       <use xlink:href="#m8edbc27070" x="44.123453" y="58.413334" style="stroke: #000000; stroke-width: 0.6"/>
      </g>
     </g>
    </g>
    <g id="ytick_21">
     <g id="line2d_28">
      <g>
       <use xlink:href="#m8edbc27070" x="44.123453" y="56.918352" style="stroke: #000000; stroke-width: 0.6"/>
      </g>
     </g>
    </g>
    <g id="ytick_22">
     <g id="line2d_29">
      <g>
       <use xlink:href="#m8edbc27070" x="44.123453" y="55.599684" style="stroke: #000000; stroke-width: 0.6"/>
      </g>
     </g>
    </g>
    <g id="ytick_23">
     <g id="line2d_30">
      <g>
       <use xlink:href="#m8edbc27070" x="44.123453" y="46.659802" style="stroke: #000000; stroke-width: 0.6"/>
      </g>
     </g>
    </g>
    <g id="ytick_24">
     <g id="line2d_31">
      <g>
       <use xlink:href="#m8edbc27070" x="44.123453" y="42.120321" style="stroke: #000000; stroke-width: 0.6"/>
      </g>
     </g>
    </g>
    <g id="ytick_25">
     <g id="line2d_32">
      <g>
       <use xlink:href="#m8edbc27070" x="44.123453" y="38.899509" style="stroke: #000000; stroke-width: 0.6"/>
      </g>
     </g>
    </g>
    <g id="ytick_26">
     <g id="line2d_33">
      <g>
       <use xlink:href="#m8edbc27070" x="44.123453" y="36.401252" style="stroke: #000000; stroke-width: 0.6"/>
      </g>
     </g>
    </g>
    <g id="ytick_27">
     <g id="line2d_34">
      <g>
       <use xlink:href="#m8edbc27070" x="44.123453" y="34.360028" style="stroke: #000000; stroke-width: 0.6"/>
      </g>
     </g>
    </g>
    <g id="ytick_28">
     <g id="line2d_35">
      <g>
       <use xlink:href="#m8edbc27070" x="44.123453" y="32.634198" style="stroke: #000000; stroke-width: 0.6"/>
      </g>
     </g>
    </g>
    <g id="ytick_29">
     <g id="line2d_36">
      <g>
       <use xlink:href="#m8edbc27070" x="44.123453" y="31.139215" style="stroke: #000000; stroke-width: 0.6"/>
      </g>
     </g>
    </g>
    <g id="ytick_30">
     <g id="line2d_37">
      <g>
       <use xlink:href="#m8edbc27070" x="44.123453" y="29.820547" style="stroke: #000000; stroke-width: 0.6"/>
      </g>
     </g>
    </g>
    <g id="ytick_31">
     <g id="line2d_38">
      <g>
       <use xlink:href="#m8edbc27070" x="44.123453" y="20.880666" style="stroke: #000000; stroke-width: 0.6"/>
      </g>
     </g>
    </g>
    <g id="ytick_32">
     <g id="line2d_39">
      <g>
       <use xlink:href="#m8edbc27070" x="44.123453" y="16.341185" style="stroke: #000000; stroke-width: 0.6"/>
      </g>
     </g>
    </g>
    <g id="ytick_33">
     <g id="line2d_40">
      <g>
       <use xlink:href="#m8edbc27070" x="44.123453" y="13.120372" style="stroke: #000000; stroke-width: 0.6"/>
      </g>
     </g>
    </g>
    <g id="ytick_34">
     <g id="line2d_41">
      <g>
       <use xlink:href="#m8edbc27070" x="44.123453" y="10.622116" style="stroke: #000000; stroke-width: 0.6"/>
      </g>
     </g>
    </g>
    <g id="ytick_35">
     <g id="line2d_42">
      <g>
       <use xlink:href="#m8edbc27070" x="44.123453" y="8.580892" style="stroke: #000000; stroke-width: 0.6"/>
      </g>
     </g>
    </g>
    <g id="ytick_36">
     <g id="line2d_43">
      <g>
       <use xlink:href="#m8edbc27070" x="44.123453" y="6.855061" style="stroke: #000000; stroke-width: 0.6"/>
      </g>
     </g>
    </g>
    <g id="ytick_37">
     <g id="line2d_44">
      <g>
       <use xlink:href="#m8edbc27070" x="44.123453" y="5.360079" style="stroke: #000000; stroke-width: 0.6"/>
      </g>
     </g>
    </g>
    <g id="ytick_38">
     <g id="line2d_45">
      <g>
       <use xlink:href="#m8edbc27070" x="44.123453" y="4.041411" style="stroke: #000000; stroke-width: 0.6"/>
      </g>
     </g>
    </g>
    <g id="text_13">
     <!-- $\sigma / \lambda$ -->
     <g transform="translate(10.47222 64.567534) rotate(-90) scale(0.1 -0.1)">
      <defs>
       <path id="CMMI12-1b" d="M 3251 2406 
C 3334 2406 3546 2406 3546 2611 
C 3546 2752 3424 2752 3309 2752 
L 1894 2752 
C 934 2752 243 1685 243 932 
C 243 389 595 -64 1171 -64 
C 1926 -64 2752 746 2752 1704 
C 2752 1953 2694 2195 2541 2406 
L 3251 2406 
z
M 1178 64 
C 851 64 614 312 614 753 
C 614 1136 845 2406 1786 2406 
C 2061 2406 2368 2272 2368 1780 
C 2368 1557 2266 1021 2042 651 
C 1811 274 1466 64 1178 64 
z
" transform="scale(0.015625)"/>
       <path id="CMMI12-3d" d="M 2746 4563 
C 2746 4569 2784 4665 2784 4678 
C 2784 4755 2720 4800 2669 4800 
C 2637 4800 2579 4800 2528 4659 
L 384 -1364 
C 384 -1370 346 -1466 346 -1479 
C 346 -1556 410 -1600 461 -1600 
C 499 -1600 557 -1594 602 -1460 
L 2746 4563 
z
" transform="scale(0.015625)"/>
       <path id="CMMI12-15" d="M 1978 3963 
C 1818 4416 1312 4416 1229 4416 
C 1190 4416 1120 4416 1120 4351 
C 1120 4300 1158 4294 1190 4287 
C 1286 4275 1363 4262 1466 4078 
C 1530 3957 2189 2055 2189 2042 
C 2189 2036 2182 2029 2131 1978 
L 467 305 
C 390 229 339 178 339 95 
C 339 6 416 -71 518 -71 
C 544 -71 614 -58 653 -20 
C 755 76 1670 1190 2253 1877 
C 2419 1380 2624 795 2822 261 
C 2854 165 2886 76 2976 -7 
C 3040 -64 3053 -64 3232 -64 
L 3354 -64 
C 3379 -64 3424 -64 3424 -13 
C 3424 12 3418 19 3392 44 
C 3334 114 3290 229 3264 305 
L 1978 3963 
z
" transform="scale(0.015625)"/>
      </defs>
      <use xlink:href="#CMMI12-1b" transform="scale(0.996264)"/>
      <use xlink:href="#CMMI12-3d" transform="translate(59.020054 0) scale(0.996264)"/>
      <use xlink:href="#CMMI12-15" transform="translate(107.794972 0) scale(0.996264)"/>
     </g>
    </g>
   </g>
   <g id="line2d_46">
    <path d="M 52.945104 19.384172 
L 55.885654 19.498465 
L 58.826204 19.84247 
L 61.766754 20.419614 
L 64.707304 21.235821 
L 67.647854 22.299833 
L 70.588404 23.623739 
L 73.528954 25.223747 
L 76.469505 27.121327 
L 79.410055 29.344903 
L 82.350605 31.932405 
L 85.291155 34.93519 
L 87.251522 37.201742 
L 89.211888 39.711616 
L 91.172255 42.500319 
L 93.132622 45.613814 
L 95.092989 49.112243 
L 97.053355 53.074487 
L 99.013722 57.601574 
L 100.974089 62.808711 
L 102.934455 68.760828 
L 105.875006 78.144608 
L 106.855189 80.466869 
L 107.835372 81.672129 
L 108.815556 81.531766 
L 109.795739 80.253698 
L 110.775922 78.300939 
L 113.716472 71.813895 
L 115.676839 68.222676 
L 117.637206 65.373918 
L 119.597573 63.166324 
L 121.557939 61.492235 
L 123.518306 60.265025 
L 125.478673 59.419333 
L 127.43904 58.906647 
L 129.399406 58.691118 
L 131.359773 58.746363 
L 133.32014 59.053176 
L 135.280507 59.597879 
L 137.240873 60.371132 
L 139.20124 61.366994 
L 141.161607 62.582118 
L 143.121973 64.01489 
L 145.08234 65.664317 
L 147.042707 67.528324 
L 149.983257 70.711428 
L 152.923807 74.296693 
L 158.804907 81.704335 
L 160.765274 83.650929 
L 161.745457 84.396587 
L 162.725641 84.957528 
L 163.705824 85.320177 
L 164.686008 85.48287 
L 165.666191 85.456026 
L 166.646374 85.260143 
L 168.606741 84.472432 
L 170.567108 83.350601 
L 178.408575 78.445531 
L 182.329308 76.392934 
L 198.012242 68.691766 
L 206.833892 64.054213 
L 210.754626 62.236531 
L 214.675359 60.692096 
L 217.615909 59.745937 
L 220.556459 58.998298 
L 223.49701 58.458648 
L 226.43756 58.132799 
L 229.37811 58.023858 
L 229.37811 58.023858 
" clip-path="url(#p7931edf46f)" style="fill: none; stroke: #0000ff; stroke-width: 0.75; stroke-linecap: square"/>
   </g>
   <g id="line2d_47">
    <path d="M 52.945104 8.187871 
L 53.925287 8.253443 
L 54.905471 8.450653 
L 55.885654 8.781003 
L 56.865837 9.247055 
L 57.846021 9.852513 
L 58.826204 10.602362 
L 59.806387 11.503046 
L 60.786571 12.562721 
L 61.766754 13.791589 
L 62.746937 15.202341 
L 63.727121 16.81074 
L 64.707304 18.636387 
L 65.687488 20.703699 
L 66.667671 23.043121 
L 67.647854 25.692429 
L 68.628038 28.697634 
L 69.608221 32.111684 
L 70.588404 35.985314 
L 73.528954 49.498242 
L 74.509138 52.429019 
L 75.489321 52.415344 
L 76.469505 49.864398 
L 78.429871 42.94691 
L 79.410055 39.957661 
L 80.390238 37.455746 
L 81.370421 35.408577 
L 82.350605 33.765235 
L 83.330788 32.47792 
L 84.310972 31.507052 
L 85.291155 30.821451 
L 86.271338 30.397259 
L 87.251522 30.216752 
L 88.231705 30.267353 
L 89.211888 30.540907 
L 90.192072 31.033216 
L 91.172255 31.743794 
L 92.152438 32.675837 
L 93.132622 33.836407 
L 94.112805 35.236832 
L 95.092989 36.893368 
L 96.073172 38.828124 
L 97.053355 41.070263 
L 98.033539 43.657287 
L 99.013722 46.635714 
L 99.993905 50.058758 
L 100.974089 53.973411 
L 103.914639 67.263204 
L 104.894822 69.454967 
L 105.875006 68.52577 
L 106.855189 65.441344 
L 108.815556 58.381535 
L 109.795739 55.452972 
L 110.775922 53.017893 
L 111.756106 51.031192 
L 112.736289 49.43965 
L 113.716472 48.196431 
L 114.696656 47.263905 
L 115.676839 46.613138 
L 116.657023 46.222692 
L 117.637206 46.077508 
L 118.617389 46.168078 
L 119.597573 46.489952 
L 120.577756 47.043563 
L 121.557939 47.834399 
L 122.538123 48.873568 
L 123.518306 50.178868 
L 124.49849 51.776582 
L 125.478673 53.704394 
L 126.458856 56.016154 
L 127.43904 58.789896 
L 128.419223 62.141928 
L 129.399406 66.252962 
L 130.37959 71.419541 
L 131.359773 78.15778 
L 132.339956 87.351865 
L 133.32014 99.036273 
L 134.300323 99.857321 
L 135.280507 88.54694 
L 136.26069 79.494504 
L 137.240873 72.969042 
L 138.221057 68.065261 
L 139.20124 64.248985 
L 140.181423 61.214949 
L 141.161607 58.77854 
L 142.14179 56.822003 
L 143.121973 55.267224 
L 144.102157 54.061147 
L 145.08234 53.167549 
L 146.062524 52.562219 
L 147.042707 52.230096 
L 148.02289 52.163634 
L 149.003074 52.361999 
L 149.983257 52.830941 
L 150.96344 53.583314 
L 151.943624 54.640348 
L 152.923807 56.033968 
L 153.903991 57.810732 
L 154.884174 60.038536 
L 155.864357 62.818363 
L 156.844541 66.305978 
L 157.824724 70.754739 
L 158.804907 76.606096 
L 159.785091 84.679529 
L 160.765274 96.187635 
L 161.745457 104.460279 
L 163.705824 82.432584 
L 164.686008 74.715654 
L 165.666191 69.011857 
L 166.646374 64.598607 
L 167.626558 61.083132 
L 168.606741 58.236403 
L 169.586924 55.915608 
L 170.567108 54.026986 
L 171.547291 52.506689 
L 172.527474 51.310254 
L 173.507658 50.406501 
L 174.487841 49.773848 
L 175.468025 49.398067 
L 176.448208 49.270921 
L 177.428391 49.389404 
L 178.408575 49.755451 
L 179.388758 50.37604 
L 180.368941 51.263698 
L 181.349125 52.437498 
L 182.329308 53.924671 
L 183.309491 55.763109 
L 184.289675 58.005132 
L 185.269858 60.722989 
L 186.250042 64.016221 
L 187.230225 68.018303 
L 188.210408 72.885188 
L 190.170775 84.704201 
L 191.150958 87.878133 
L 192.131142 85.036278 
L 194.091509 73.658151 
L 195.071692 68.991713 
L 196.051875 65.192679 
L 197.032059 62.104812 
L 198.012242 59.593328 
L 198.992425 57.557159 
L 199.972609 55.922311 
L 200.952792 54.634331 
L 201.932975 53.652558 
L 202.913159 52.946056 
L 203.893342 52.490695 
L 204.873526 52.26697 
L 205.853709 52.258216 
L 206.833892 52.448982 
L 207.814076 52.823338 
L 208.794259 53.362955 
L 210.754626 54.838344 
L 213.695176 57.413859 
L 214.675359 58.115239 
L 215.655543 58.609563 
L 216.635726 58.83385 
L 217.615909 58.757136 
L 218.596093 58.389835 
L 219.576276 57.780132 
L 221.536643 56.126025 
L 223.49701 54.370683 
L 225.457376 52.920728 
L 226.43756 52.382732 
L 227.417743 51.990245 
L 228.397926 51.75174 
L 229.37811 51.671762 
L 229.37811 51.671762 
" clip-path="url(#p7931edf46f)" style="fill: none; stroke: #00bfbf; stroke-width: 0.75; stroke-linecap: square"/>
   </g>
   <g id="line2d_48">
    <path d="M 52.945104 19.252581 
L 55.885654 19.38175 
L 58.826204 19.761704 
L 61.766754 20.383755 
L 64.707304 21.238299 
L 67.647854 22.339657 
L 70.588404 23.701537 
L 73.528954 25.330408 
L 76.469505 27.22604 
L 79.410055 29.392007 
L 82.350605 31.852499 
L 85.291155 34.706562 
L 87.251522 36.914827 
L 89.211888 39.454097 
L 91.172255 42.416207 
L 93.132622 45.90401 
L 95.092989 50.020964 
L 97.053355 54.863726 
L 99.013722 60.510626 
L 100.974089 66.987088 
L 105.875006 84.420445 
L 106.855189 86.158621 
L 107.835372 86.228676 
L 108.815556 84.746878 
L 109.795739 82.280386 
L 112.736289 73.822033 
L 114.696656 69.080578 
L 116.657023 65.3416 
L 117.637206 63.82399 
L 118.617389 62.531834 
L 119.597573 61.440225 
L 120.577756 60.556451 
L 121.557939 59.861517 
L 122.538123 59.348169 
L 123.518306 59.009837 
L 124.49849 58.836109 
L 125.478673 58.813098 
L 126.458856 58.912444 
L 128.419223 59.415178 
L 132.339956 60.706829 
L 134.300323 61.078647 
L 137.240873 61.281904 
L 139.20124 61.450305 
L 141.161607 61.860814 
L 143.121973 62.616904 
L 145.08234 63.797803 
L 147.042707 65.470461 
L 148.02289 66.514934 
L 149.003074 67.721962 
L 150.96344 70.679766 
L 152.923807 74.418502 
L 154.884174 78.937599 
L 158.804907 88.796147 
L 159.785091 90.779744 
L 160.765274 92.257271 
L 161.745457 93.12141 
L 162.725641 93.3317 
L 163.705824 92.942928 
L 164.686008 92.071019 
L 165.666191 90.854955 
L 168.606741 86.423504 
L 170.567108 83.618341 
L 172.527474 81.223635 
L 174.487841 79.224961 
L 176.448208 77.53632 
L 178.408575 76.121636 
L 180.368941 75.007258 
L 182.329308 74.235744 
L 184.289675 73.797445 
L 187.230225 73.571293 
L 189.190592 73.442355 
L 191.150958 73.096793 
L 193.111325 72.39204 
L 195.071692 71.293753 
L 197.032059 69.878935 
L 203.893342 64.477829 
L 205.853709 63.253388 
L 207.814076 62.246238 
L 209.774442 61.447511 
L 212.714992 60.577004 
L 215.655543 59.991857 
L 223.49701 58.835785 
L 227.417743 58.406272 
L 229.37811 58.339727 
L 229.37811 58.339727 
" clip-path="url(#p7931edf46f)" style="fill: none; stroke-dasharray: 2.775,1.2; stroke-dashoffset: 0; stroke: #0000ff; stroke-width: 0.75"/>
   </g>
   <g id="line2d_49">
    <path d="M 52.945104 7.83167 
L 53.925287 7.897579 
L 54.905471 8.098933 
L 55.885654 8.42398 
L 56.865837 8.88893 
L 57.846021 9.501667 
L 58.826204 10.270729 
L 59.806387 11.205902 
L 60.786571 12.316976 
L 61.766754 13.615234 
L 63.727121 16.807316 
L 64.707304 18.706563 
L 66.667671 23.250934 
L 67.647854 25.94923 
L 68.628038 28.977802 
L 69.608221 32.442487 
L 70.588404 36.438218 
L 72.548771 46.017083 
L 73.528954 50.745893 
L 74.509138 53.303641 
L 75.489321 52.258441 
L 78.429871 42.052555 
L 79.410055 39.428677 
L 80.390238 37.348877 
L 81.370421 35.65172 
L 82.350605 34.266709 
L 84.310972 32.102071 
L 85.291155 31.276837 
L 86.271338 30.604573 
L 87.251522 30.155022 
L 88.231705 29.966028 
L 89.211888 30.054945 
L 90.192072 30.497706 
L 91.172255 31.254079 
L 92.152438 32.382563 
L 93.132622 33.807392 
L 95.092989 37.508092 
L 97.053355 42.017185 
L 99.013722 47.140305 
L 100.974089 53.245353 
L 103.914639 63.932756 
L 104.894822 65.304031 
L 105.875006 64.013612 
L 108.815556 55.547671 
L 109.795739 53.603928 
L 110.775922 52.135423 
L 112.736289 50.003271 
L 116.657023 46.018681 
L 117.637206 45.268345 
L 118.617389 44.871097 
L 119.597573 44.87183 
L 120.577756 45.336219 
L 121.557939 46.281653 
L 122.538123 47.692476 
L 123.518306 49.534325 
L 124.49849 51.741962 
L 126.458856 57.00753 
L 128.419223 63.10289 
L 129.399406 66.617622 
L 130.37959 70.801954 
L 131.359773 76.253694 
L 132.339956 83.685843 
L 133.32014 92.844111 
L 134.300323 95.325308 
L 136.26069 78.019503 
L 137.240873 71.665712 
L 138.221057 66.948949 
L 139.20124 63.295558 
L 140.181423 60.418474 
L 141.161607 58.083886 
L 142.14179 56.183208 
L 143.121973 54.631613 
L 144.102157 53.413001 
L 145.08234 52.518392 
L 146.062524 51.941395 
L 147.042707 51.692463 
L 148.02289 51.787665 
L 149.003074 52.20199 
L 149.983257 52.859688 
L 150.96344 53.77844 
L 151.943624 54.875623 
L 152.923807 56.223369 
L 153.903991 57.877676 
L 154.884174 59.952186 
L 155.864357 62.639096 
L 156.844541 66.227195 
L 157.824724 71.183779 
L 158.804907 78.226196 
L 159.785091 88.621917 
L 160.765274 101.369282 
L 161.745457 95.899473 
L 162.725641 84.241353 
L 163.705824 76.383832 
L 164.686008 71.014893 
L 165.666191 67.089504 
L 166.646374 63.983581 
L 168.606741 58.877664 
L 170.567108 54.366232 
L 171.547291 52.349278 
L 172.527474 50.601504 
L 173.507658 49.214637 
L 174.487841 48.263508 
L 175.468025 47.793028 
L 176.448208 47.80003 
L 177.428391 48.226046 
L 178.408575 49.066402 
L 179.388758 50.204891 
L 181.349125 53.228686 
L 183.309491 56.885599 
L 184.289675 59.00668 
L 185.269858 61.486637 
L 186.250042 64.50596 
L 187.230225 68.413918 
L 188.210408 73.535373 
L 190.170775 87.624567 
L 191.150958 90.012146 
L 192.131142 84.402641 
L 193.111325 77.634573 
L 194.091509 72.260607 
L 195.071692 68.203819 
L 196.051875 65.062305 
L 197.032059 62.543736 
L 198.012242 60.406911 
L 199.972609 56.843255 
L 200.952792 55.348861 
L 201.932975 54.076222 
L 202.913159 53.071563 
L 203.893342 52.347788 
L 204.873526 51.979346 
L 205.853709 51.884729 
L 206.833892 52.084539 
L 207.814076 52.503698 
L 209.774442 53.733543 
L 212.714992 56.011219 
L 215.655543 58.364865 
L 216.635726 58.864803 
L 217.615909 59.036351 
L 218.596093 58.740709 
L 219.576276 58.058846 
L 223.49701 53.994323 
L 224.477193 53.366193 
L 225.457376 52.991739 
L 226.43756 52.845221 
L 228.397926 52.887682 
L 229.37811 52.982136 
L 229.37811 52.982136 
" clip-path="url(#p7931edf46f)" style="fill: none; stroke-dasharray: 2.775,1.2; stroke-dashoffset: 0; stroke: #00bfbf; stroke-width: 0.75"/>
   </g>
   <g id="patch_3">
    <path d="M 44.123453 109.29171 
L 44.123453 3.00024 
" style="fill: none; stroke: #000000; stroke-width: 0.8; stroke-linejoin: miter; stroke-linecap: square"/>
   </g>
   <g id="patch_4">
    <path d="M 238.19976 109.29171 
L 238.19976 3.00024 
" style="fill: none; stroke: #000000; stroke-width: 0.8; stroke-linejoin: miter; stroke-linecap: square"/>
   </g>
   <g id="patch_5">
    <path d="M 44.123453 109.29171 
L 238.19976 109.29171 
" style="fill: none; stroke: #000000; stroke-width: 0.8; stroke-linejoin: miter; stroke-linecap: square"/>
   </g>
   <g id="patch_6">
    <path d="M 44.123453 3.00024 
L 238.19976 3.00024 
" style="fill: none; stroke: #000000; stroke-width: 0.8; stroke-linejoin: miter; stroke-linecap: square"/>
   </g>
   <g id="axes_2">
    <g id="patch_7">
     <path d="M 154.746948 26.384363 
L 232.377471 26.384363 
L 232.377471 5.126069 
L 154.746948 5.126069 
z
" style="fill: #ffffff"/>
    </g>
    <g id="matplotlib.axis_3">
     <g id="xtick_8">
      <g id="line2d_50">
       <g>
        <use xlink:href="#m9ae226effb" x="158.275608" y="26.384363" style="stroke: #000000; stroke-width: 0.8"/>
       </g>
      </g>
      <g id="text_14">
       <!-- $\mathdefault{2}$ -->
       <g transform="translate(155.784941 40.302862) scale(0.1 -0.1)">
        <use xlink:href="#CMR17-32" transform="scale(0.996264)"/>
       </g>
      </g>
     </g>
     <g id="xtick_9">
      <g id="line2d_51">
       <g>
        <use xlink:href="#m9ae226effb" x="205.32441" y="26.384363" style="stroke: #000000; stroke-width: 0.8"/>
       </g>
      </g>
      <g id="text_15">
       <!-- $\mathdefault{4}$ -->
       <g transform="translate(202.833742 40.302862) scale(0.1 -0.1)">
        <defs>
         <path id="CMR17-34" d="M 2150 4147 
C 2150 4281 2144 4288 2029 4288 
L 128 1254 
L 128 1088 
L 1779 1088 
L 1779 460 
C 1779 230 1766 166 1318 166 
L 1197 166 
L 1197 0 
C 1402 12 1747 12 1965 12 
C 2182 12 2528 12 2733 0 
L 2733 166 
L 2611 166 
C 2163 166 2150 230 2150 460 
L 2150 1088 
L 2803 1088 
L 2803 1254 
L 2150 1254 
L 2150 4147 
z
M 1798 3723 
L 1798 1254 
L 256 1254 
L 1798 3723 
z
" transform="scale(0.015625)"/>
        </defs>
        <use xlink:href="#CMR17-34" transform="scale(0.996264)"/>
       </g>
      </g>
     </g>
     <g id="text_16">
      <!-- $r/a$ -->
      <g transform="translate(186.052734 53.71202) scale(0.1 -0.1)">
       <defs>
        <path id="CMMI12-72" d="M 2490 2633 
C 2291 2598 2189 2457 2189 2316 
C 2189 2163 2310 2111 2400 2111 
C 2579 2111 2726 2265 2726 2457 
C 2726 2651 2528 2816 2208 2816 
C 1952 2816 1658 2700 1389 2335 
C 1344 2660 1088 2816 832 2816 
C 582 2816 454 2642 378 2508 
C 269 2278 173 1892 173 1860 
C 173 1834 198 1801 243 1801 
C 294 1801 301 1808 339 1957 
C 435 2342 557 2687 813 2687 
C 966 2687 1011 2604 1011 2419 
C 1011 2278 947 2028 902 1827 
L 723 1130 
C 698 1007 627 716 595 600 
C 550 432 480 128 480 96 
C 480 6 550 -64 646 -64 
C 717 -64 838 -20 877 109 
C 896 160 1133 1136 1171 1285 
C 1203 1427 1242 1562 1274 1705 
C 1299 1795 1325 1898 1344 1982 
C 1363 2040 1536 2355 1696 2495 
C 1773 2566 1939 2687 2202 2687 
C 2304 2687 2406 2674 2490 2633 
z
" transform="scale(0.015625)"/>
        <path id="CMMI12-61" d="M 1926 759 
C 1894 651 1894 638 1805 517 
C 1664 338 1382 64 1082 64 
C 819 64 672 300 672 676 
C 672 1028 870 1743 992 2011 
C 1210 2458 1510 2687 1760 2687 
C 2182 2687 2266 2164 2266 2113 
C 2266 2107 2246 2024 2240 2011 
L 1926 759 
z
M 2336 2394 
C 2266 2560 2093 2816 1760 2816 
C 1037 2816 256 1883 256 938 
C 256 306 627 -64 1062 -64 
C 1414 -64 1715 210 1894 421 
C 1958 44 2259 -64 2451 -64 
C 2643 -64 2797 51 2912 280 
C 3014 496 3104 885 3104 910 
C 3104 942 3078 968 3040 968 
C 2982 968 2976 936 2950 840 
C 2854 465 2733 64 2470 64 
C 2285 64 2272 229 2272 356 
C 2272 503 2291 573 2349 821 
C 2394 980 2426 1120 2477 1305 
C 2714 2260 2771 2489 2771 2528 
C 2771 2617 2701 2688 2605 2688 
C 2400 2688 2349 2464 2336 2388 
L 2336 2394 
z
" transform="scale(0.015625)"/>
       </defs>
       <use xlink:href="#CMMI12-72" transform="scale(0.996264)"/>
       <use xlink:href="#CMMI12-3d" transform="translate(46.670612 0) scale(0.996264)"/>
       <use xlink:href="#CMMI12-61" transform="translate(95.445531 0) scale(0.996264)"/>
      </g>
     </g>
    </g>
    <g id="matplotlib.axis_4">
     <g id="ytick_39">
      <g id="line2d_52">
       <g>
        <use xlink:href="#mbe61040a42" x="154.746948" y="23.844198" style="stroke: #000000; stroke-width: 0.8"/>
       </g>
      </g>
      <g id="text_17">
       <!-- $\mathdefault{10^{-1}}$ -->
       <g transform="translate(127.586375 27.303448) scale(0.1 -0.1)">
        <use xlink:href="#CMR17-31" transform="scale(0.996264)"/>
        <use xlink:href="#CMR17-30" transform="translate(45.690477 0) scale(0.996264)"/>
        <use xlink:href="#CMSY10-0" transform="translate(91.380954 36.153639) scale(0.697382)"/>
        <use xlink:href="#CMR17-31" transform="translate(145.621947 36.153639) scale(0.697382)"/>
       </g>
      </g>
     </g>
     <g id="ytick_40">
      <g id="line2d_53">
       <g>
        <use xlink:href="#mbe61040a42" x="154.746948" y="7.802566" style="stroke: #000000; stroke-width: 0.8"/>
       </g>
      </g>
      <g id="text_18">
       <!-- $\mathdefault{10^{0}}$ -->
       <g transform="translate(133.81304 11.261815) scale(0.1 -0.1)">
        <use xlink:href="#CMR17-31" transform="scale(0.996264)"/>
        <use xlink:href="#CMR17-30" transform="translate(45.690477 0) scale(0.996264)"/>
        <use xlink:href="#CMR17-30" transform="translate(91.380954 36.153639) scale(0.697382)"/>
       </g>
      </g>
     </g>
     <g id="ytick_41">
      <g id="line2d_54">
       <g>
        <use xlink:href="#m8edbc27070" x="154.746948" y="26.329079" style="stroke: #000000; stroke-width: 0.6"/>
       </g>
      </g>
     </g>
     <g id="ytick_42">
      <g id="line2d_55">
       <g>
        <use xlink:href="#m8edbc27070" x="154.746948" y="25.398793" style="stroke: #000000; stroke-width: 0.6"/>
       </g>
      </g>
     </g>
     <g id="ytick_43">
      <g id="line2d_56">
       <g>
        <use xlink:href="#m8edbc27070" x="154.746948" y="24.578223" style="stroke: #000000; stroke-width: 0.6"/>
       </g>
      </g>
     </g>
     <g id="ytick_44">
      <g id="line2d_57">
       <g>
        <use xlink:href="#m8edbc27070" x="154.746948" y="19.015186" style="stroke: #000000; stroke-width: 0.6"/>
       </g>
      </g>
     </g>
     <g id="ytick_45">
      <g id="line2d_58">
       <g>
        <use xlink:href="#m8edbc27070" x="154.746948" y="16.190395" style="stroke: #000000; stroke-width: 0.6"/>
       </g>
      </g>
     </g>
     <g id="ytick_46">
      <g id="line2d_59">
       <g>
        <use xlink:href="#m8edbc27070" x="154.746948" y="14.186173" style="stroke: #000000; stroke-width: 0.6"/>
       </g>
      </g>
     </g>
     <g id="ytick_47">
      <g id="line2d_60">
       <g>
        <use xlink:href="#m8edbc27070" x="154.746948" y="12.631579" style="stroke: #000000; stroke-width: 0.6"/>
       </g>
      </g>
     </g>
     <g id="ytick_48">
      <g id="line2d_61">
       <g>
        <use xlink:href="#m8edbc27070" x="154.746948" y="11.361382" style="stroke: #000000; stroke-width: 0.6"/>
       </g>
      </g>
     </g>
     <g id="ytick_49">
      <g id="line2d_62">
       <g>
        <use xlink:href="#m8edbc27070" x="154.746948" y="10.287446" style="stroke: #000000; stroke-width: 0.6"/>
       </g>
      </g>
     </g>
     <g id="ytick_50">
      <g id="line2d_63">
       <g>
        <use xlink:href="#m8edbc27070" x="154.746948" y="9.357161" style="stroke: #000000; stroke-width: 0.6"/>
       </g>
      </g>
     </g>
     <g id="ytick_51">
      <g id="line2d_64">
       <g>
        <use xlink:href="#m8edbc27070" x="154.746948" y="8.536591" style="stroke: #000000; stroke-width: 0.6"/>
       </g>
      </g>
     </g>
    </g>
    <g id="line2d_65">
     <path d="M 158.275608 12.365079 
L 160.628048 12.158012 
L 162.980488 11.973914 
L 165.332929 11.809102 
L 167.685369 11.660648 
L 170.037809 11.526196 
L 172.390249 11.403824 
L 174.742689 11.29195 
L 177.095129 11.18926 
L 179.447569 11.094653 
L 181.800009 11.007196 
L 184.152449 10.9261 
L 186.504889 10.850685 
L 188.857329 10.780368 
L 191.209769 10.714643 
L 193.56221 10.653069 
L 195.91465 10.595261 
L 198.26709 10.540879 
L 200.61953 10.489626 
L 202.97197 10.441235 
L 205.32441 10.395472 
L 207.67685 10.352126 
L 210.02929 10.311009 
L 212.38173 10.271951 
L 214.73417 10.234801 
L 217.08661 10.199421 
L 219.43905 10.165686 
L 221.79149 10.133483 
L 224.143931 10.10271 
L 226.496371 10.073273 
L 228.848811 10.045086 
" clip-path="url(#p4eb7330c07)" style="fill: none; stroke: #0000ff; stroke-width: 0.75; stroke-linecap: square"/>
    </g>
    <g id="line2d_66">
     <path d="M 158.275608 23.398275 
L 160.628048 20.705243 
L 162.980488 18.663446 
L 165.332929 17.047065 
L 167.685369 15.728075 
L 170.037809 14.627154 
L 172.390249 13.69194 
L 174.742689 12.886179 
L 177.095129 12.183812 
L 179.447569 11.565543 
L 181.800009 11.016726 
L 184.152449 10.526013 
L 186.504889 10.084457 
L 188.857329 9.684893 
L 191.209769 9.321513 
L 193.56221 8.989548 
L 195.91465 8.685047 
L 198.26709 8.404701 
L 200.61953 8.145722 
L 202.97197 7.905737 
L 205.32441 7.682717 
L 207.67685 7.474915 
L 210.02929 7.280817 
L 212.38173 7.099105 
L 214.73417 6.928626 
L 217.08661 6.768367 
L 219.43905 6.617434 
L 221.79149 6.475034 
L 224.143931 6.340463 
L 226.496371 6.213091 
L 228.848811 6.092355 
" clip-path="url(#p4eb7330c07)" style="fill: none; stroke: #00bfbf; stroke-width: 0.75; stroke-linecap: square"/>
    </g>
    <g id="line2d_67">
     <defs>
      <path id="m6f47dcc734" d="M 0 1 
C 0.265203 1 0.51958 0.894634 0.707107 0.707107 
C 0.894634 0.51958 1 0.265203 1 0 
C 1 -0.265203 0.894634 -0.51958 0.707107 -0.707107 
C 0.51958 -0.894634 0.265203 -1 0 -1 
C -0.265203 -1 -0.51958 -0.894634 -0.707107 -0.707107 
C -0.894634 -0.51958 -1 -0.265203 -1 0 
C -1 0.265203 -0.894634 0.51958 -0.707107 0.707107 
C -0.51958 0.894634 -0.265203 1 0 1 
z
" style="stroke: #0000ff"/>
     </defs>
     <g clip-path="url(#p4eb7330c07)">
      <use xlink:href="#m6f47dcc734" x="158.275608" y="12.051868" style="fill: #0000ff; stroke: #0000ff"/>
      <use xlink:href="#m6f47dcc734" x="181.800009" y="10.708036" style="fill: #0000ff; stroke: #0000ff"/>
      <use xlink:href="#m6f47dcc734" x="205.32441" y="10.136394" style="fill: #0000ff; stroke: #0000ff"/>
      <use xlink:href="#m6f47dcc734" x="228.848811" y="10.241643" style="fill: #0000ff; stroke: #0000ff"/>
     </g>
    </g>
    <g id="line2d_68">
     <defs>
      <path id="m443dd38f15" d="M 0 1 
C 0.265203 1 0.51958 0.894634 0.707107 0.707107 
C 0.894634 0.51958 1 0.265203 1 0 
C 1 -0.265203 0.894634 -0.51958 0.707107 -0.707107 
C 0.51958 -0.894634 0.265203 -1 0 -1 
C -0.265203 -1 -0.51958 -0.894634 -0.707107 -0.707107 
C -0.894634 -0.51958 -1 -0.265203 -1 0 
C -1 0.265203 -0.894634 0.51958 -0.707107 0.707107 
C -0.51958 0.894634 -0.265203 1 0 1 
z
" style="stroke: #00bfbf"/>
     </defs>
     <g clip-path="url(#p4eb7330c07)">
      <use xlink:href="#m443dd38f15" x="158.275608" y="25.418077" style="fill: #00bfbf; stroke: #00bfbf"/>
      <use xlink:href="#m443dd38f15" x="181.800009" y="12.419114" style="fill: #00bfbf; stroke: #00bfbf"/>
      <use xlink:href="#m443dd38f15" x="205.32441" y="8.516237" style="fill: #00bfbf; stroke: #00bfbf"/>
      <use xlink:href="#m443dd38f15" x="228.848811" y="6.907764" style="fill: #00bfbf; stroke: #00bfbf"/>
     </g>
    </g>
    <g id="patch_8">
     <path d="M 154.746948 26.384363 
L 154.746948 5.126069 
" style="fill: none; stroke: #000000; stroke-width: 0.8; stroke-linejoin: miter; stroke-linecap: square"/>
    </g>
    <g id="patch_9">
     <path d="M 232.377471 26.384363 
L 232.377471 5.126069 
" style="fill: none; stroke: #000000; stroke-width: 0.8; stroke-linejoin: miter; stroke-linecap: square"/>
    </g>
    <g id="patch_10">
     <path d="M 154.746948 26.384363 
L 232.377471 26.384363 
" style="fill: none; stroke: #000000; stroke-width: 0.8; stroke-linejoin: miter; stroke-linecap: square"/>
    </g>
    <g id="patch_11">
     <path d="M 154.746948 5.126069 
L 232.377471 5.126069 
" style="fill: none; stroke: #000000; stroke-width: 0.8; stroke-linejoin: miter; stroke-linecap: square"/>
    </g>
   </g>
  </g>
 </g>
 <defs>
  <clipPath id="p7931edf46f">
   <rect x="44.123453" y="3.00024" width="194.076307" height="106.29147"/>
  </clipPath>
  <clipPath id="p4eb7330c07">
   <rect x="154.746948" y="5.126069" width="77.630523" height="21.258294"/>
  </clipPath>
 </defs>
</svg>
