<?xml version="1.0" encoding="utf-8" standalone="no"?>
<!DOCTYPE svg PUBLIC "-//W3C//DTD SVG 1.1//EN"
  "http://www.w3.org/Graphics/SVG/1.1/DTD/svg11.dtd">
<svg xmlns:xlink="http://www.w3.org/1999/xlink" width="160.56pt" height="108pt" viewBox="0 0 160.56 108" xmlns="http://www.w3.org/2000/svg" version="1.1">
 <metadata>
  <rdf:RDF xmlns:dc="http://purl.org/dc/elements/1.1/" xmlns:cc="http://creativecommons.org/ns#" xmlns:rdf="http://www.w3.org/1999/02/22-rdf-syntax-ns#">
   <cc:Work>
    <dc:type rdf:resource="http://purl.org/dc/dcmitype/StillImage"/>
    <dc:date>2025-11-12T15:44:21.635657</dc:date>
    <dc:format>image/svg+xml</dc:format>
    <dc:creator>
     <cc:Agent>
      <dc:title>Matplotlib v3.6.3, https://matplotlib.org/</dc:title>
     </cc:Agent>
    </dc:creator>
   </cc:Work>
  </rdf:RDF>
 </metadata>
 <defs>
  <style type="text/css">*{stroke-linejoin: round; stroke-linecap: butt}</style>
 </defs>
 <g id="figure_1">
  <g id="patch_1">
   <path d="M 0 108 
L 160.56 108 
L 160.56 0 
L 0 0 
z
" style="fill: #ffffff"/>
  </g>
  <g id="axes_1">
   <g id="patch_2">
    <path d="M 44.123453 76.288407 
L 157.3858 76.288407 
L 157.3858 3.00024 
L 44.123453 3.00024 
z
" style="fill: #ffffff"/>
   </g>
   <g id="matplotlib.axis_1">
    <g id="xtick_1">
     <g id="line2d_1">
      <defs>
       <path id="m30ebf145af" d="M 0 0 
L 0 3.5 
" style="stroke: #000000; stroke-width: 0.8"/>
      </defs>
      <g>
       <use xlink:href="#m30ebf145af" x="49.271742" y="76.288407" style="stroke: #000000; stroke-width: 0.8"/>
      </g>
     </g>
     <g id="text_1">
      <!-- 0 -->
      <g transform="translate(46.781074 90.206905) scale(0.1 -0.1)">
       <defs>
        <path id="CMR17-30" d="M 2688 2038 
C 2688 2430 2682 3099 2413 3613 
C 2176 4063 1798 4224 1466 4224 
C 1158 4224 768 4082 525 3620 
C 269 3137 243 2539 243 2038 
C 243 1671 250 1112 448 623 
C 723 -39 1216 -128 1466 -128 
C 1760 -128 2208 -7 2470 604 
C 2662 1048 2688 1568 2688 2038 
z
M 1466 -26 
C 1056 -26 813 328 723 816 
C 653 1196 653 1749 653 2109 
C 653 2604 653 3015 736 3407 
C 858 3954 1216 4121 1466 4121 
C 1728 4121 2067 3947 2189 3420 
C 2272 3054 2278 2623 2278 2109 
C 2278 1691 2278 1176 2202 797 
C 2067 96 1690 -26 1466 -26 
z
" transform="scale(0.015625)"/>
       </defs>
       <use xlink:href="#CMR17-30" transform="scale(0.996264)"/>
      </g>
     </g>
    </g>
    <g id="xtick_2">
     <g id="line2d_2">
      <g>
       <use xlink:href="#m30ebf145af" x="100.754627" y="76.288407" style="stroke: #000000; stroke-width: 0.8"/>
      </g>
     </g>
     <g id="text_2">
      <!-- $\pi$ -->
      <g transform="translate(97.915139 90.206905) scale(0.1 -0.1)">
       <defs>
        <path id="CMMI12-19" d="M 1658 2406 
L 2381 2406 
C 2208 1691 2099 1225 2099 715 
C 2099 625 2099 -64 2362 -64 
C 2496 -64 2611 57 2611 166 
C 2611 198 2611 210 2566 306 
C 2394 746 2394 1295 2394 1340 
C 2394 1378 2394 1832 2528 2406 
L 3245 2406 
C 3328 2406 3539 2406 3539 2611 
C 3539 2752 3418 2752 3302 2752 
L 1197 2752 
C 1050 2752 832 2752 538 2438 
C 371 2253 166 1915 166 1876 
C 166 1838 198 1825 237 1825 
C 282 1825 288 1844 320 1883 
C 653 2406 986 2406 1146 2406 
L 1510 2406 
C 1370 1927 1210 1372 685 255 
C 634 153 634 140 634 102 
C 634 -32 749 -64 806 -64 
C 992 -64 1043 102 1120 370 
C 1222 695 1222 708 1286 964 
L 1658 2406 
z
" transform="scale(0.015625)"/>
       </defs>
       <use xlink:href="#CMMI12-19" transform="scale(0.996264)"/>
      </g>
     </g>
    </g>
    <g id="xtick_3">
     <g id="line2d_3">
      <g>
       <use xlink:href="#m30ebf145af" x="152.237512" y="76.288407" style="stroke: #000000; stroke-width: 0.8"/>
      </g>
     </g>
     <g id="text_3">
      <!-- $2\pi$ -->
      <g transform="translate(146.907357 90.206905) scale(0.1 -0.1)">
       <defs>
        <path id="CMR17-32" d="M 2669 990 
L 2554 990 
C 2490 537 2438 460 2413 422 
C 2381 371 1920 371 1830 371 
L 602 371 
C 832 620 1280 1073 1824 1596 
C 2214 1966 2669 2400 2669 3033 
C 2669 3788 2067 4224 1395 4224 
C 691 4224 262 3603 262 3027 
C 262 2777 448 2745 525 2745 
C 589 2745 781 2783 781 3007 
C 781 3206 614 3264 525 3264 
C 486 3264 448 3257 422 3244 
C 544 3788 915 4057 1306 4057 
C 1862 4057 2227 3616 2227 3033 
C 2227 2477 1901 1998 1536 1583 
L 262 147 
L 262 0 
L 2515 0 
L 2669 990 
z
" transform="scale(0.015625)"/>
       </defs>
       <use xlink:href="#CMR17-32" transform="scale(0.996264)"/>
       <use xlink:href="#CMMI12-19" transform="translate(45.690477 0) scale(0.996264)"/>
      </g>
     </g>
    </g>
    <g id="text_4">
     <!-- $\theta$ -->
     <g transform="translate(98.416175 103.062582) scale(0.1 -0.1)">
      <defs>
       <path id="CMMI12-12" d="M 2835 3200 
C 2835 3849 2630 4480 2106 4480 
C 1210 4480 256 2615 256 1215 
C 256 922 320 -64 992 -64 
C 1862 -64 2835 1755 2835 3200 
z
M 896 2304 
C 992 2679 1126 3213 1382 3665 
C 1594 4046 1818 4351 2099 4351 
C 2310 4351 2451 4173 2451 3563 
C 2451 3334 2432 3016 2246 2304 
L 896 2304 
z
M 2202 2112 
C 2042 1488 1907 1088 1677 687 
C 1491 362 1267 64 998 64 
C 800 64 640 216 640 846 
C 640 1259 742 1692 845 2112 
L 2202 2112 
z
" transform="scale(0.015625)"/>
      </defs>
      <use xlink:href="#CMMI12-12" transform="scale(0.996264)"/>
     </g>
    </g>
   </g>
   <g id="matplotlib.axis_2">
    <g id="ytick_1">
     <g id="line2d_4">
      <defs>
       <path id="m0c5efa9293" d="M 0 0 
L -3.5 0 
" style="stroke: #000000; stroke-width: 0.8"/>
      </defs>
      <g>
       <use xlink:href="#m0c5efa9293" x="44.123453" y="58.986411" style="stroke: #000000; stroke-width: 0.8"/>
      </g>
     </g>
     <g id="text_5">
      <!-- $\mathdefault{10^{-2}}$ -->
      <g transform="translate(16.96288 62.44566) scale(0.1 -0.1)">
       <defs>
        <path id="CMR17-31" d="M 1702 4083 
C 1702 4217 1696 4224 1606 4224 
C 1357 3927 979 3833 621 3820 
C 602 3820 570 3820 563 3808 
C 557 3795 557 3782 557 3648 
C 755 3648 1088 3686 1344 3839 
L 1344 467 
C 1344 243 1331 166 781 166 
L 589 166 
L 589 0 
C 896 6 1216 12 1523 12 
C 1830 12 2150 6 2458 0 
L 2458 166 
L 2266 166 
C 1715 166 1702 236 1702 467 
L 1702 4083 
z
" transform="scale(0.015625)"/>
        <path id="CMSY10-0" d="M 4218 1472 
C 4326 1472 4442 1472 4442 1600 
C 4442 1728 4326 1728 4218 1728 
L 755 1728 
C 646 1728 531 1728 531 1600 
C 531 1472 646 1472 755 1472 
L 4218 1472 
z
" transform="scale(0.015625)"/>
       </defs>
       <use xlink:href="#CMR17-31" transform="scale(0.996264)"/>
       <use xlink:href="#CMR17-30" transform="translate(45.690477 0) scale(0.996264)"/>
       <use xlink:href="#CMSY10-0" transform="translate(91.380954 36.153639) scale(0.697382)"/>
       <use xlink:href="#CMR17-32" transform="translate(145.621947 36.153639) scale(0.697382)"/>
      </g>
     </g>
    </g>
    <g id="ytick_2">
     <g id="line2d_5">
      <g>
       <use xlink:href="#m0c5efa9293" x="44.123453" y="28.644951" style="stroke: #000000; stroke-width: 0.8"/>
      </g>
     </g>
     <g id="text_6">
      <!-- $\mathdefault{10^{0}}$ -->
      <g transform="translate(23.189545 32.1042) scale(0.1 -0.1)">
       <use xlink:href="#CMR17-31" transform="scale(0.996264)"/>
       <use xlink:href="#CMR17-30" transform="translate(45.690477 0) scale(0.996264)"/>
       <use xlink:href="#CMR17-30" transform="translate(91.380954 36.153639) scale(0.697382)"/>
      </g>
     </g>
    </g>
    <g id="text_7">
     <!-- $\sigma / \lambda$ -->
     <g transform="translate(10.47222 48.065883) rotate(-90) scale(0.1 -0.1)">
      <defs>
       <path id="CMMI12-1b" d="M 3251 2406 
C 3334 2406 3546 2406 3546 2611 
C 3546 2752 3424 2752 3309 2752 
L 1894 2752 
C 934 2752 243 1685 243 932 
C 243 389 595 -64 1171 -64 
C 1926 -64 2752 746 2752 1704 
C 2752 1953 2694 2195 2541 2406 
L 3251 2406 
z
M 1178 64 
C 851 64 614 312 614 753 
C 614 1136 845 2406 1786 2406 
C 2061 2406 2368 2272 2368 1780 
C 2368 1557 2266 1021 2042 651 
C 1811 274 1466 64 1178 64 
z
" transform="scale(0.015625)"/>
       <path id="CMMI12-3d" d="M 2746 4563 
C 2746 4569 2784 4665 2784 4678 
C 2784 4755 2720 4800 2669 4800 
C 2637 4800 2579 4800 2528 4659 
L 384 -1364 
C 384 -1370 346 -1466 346 -1479 
C 346 -1556 410 -1600 461 -1600 
C 499 -1600 557 -1594 602 -1460 
L 2746 4563 
z
" transform="scale(0.015625)"/>
       <path id="CMMI12-15" d="M 1978 3963 
C 1818 4416 1312 4416 1229 4416 
C 1190 4416 1120 4416 1120 4351 
C 1120 4300 1158 4294 1190 4287 
C 1286 4275 1363 4262 1466 4078 
C 1530 3957 2189 2055 2189 2042 
C 2189 2036 2182 2029 2131 1978 
L 467 305 
C 390 229 339 178 339 95 
C 339 6 416 -71 518 -71 
C 544 -71 614 -58 653 -20 
C 755 76 1670 1190 2253 1877 
C 2419 1380 2624 795 2822 261 
C 2854 165 2886 76 2976 -7 
C 3040 -64 3053 -64 3232 -64 
L 3354 -64 
C 3379 -64 3424 -64 3424 -13 
C 3424 12 3418 19 3392 44 
C 3334 114 3290 229 3264 305 
L 1978 3963 
z
" transform="scale(0.015625)"/>
      </defs>
      <use xlink:href="#CMMI12-1b" transform="scale(0.996264)"/>
      <use xlink:href="#CMMI12-3d" transform="translate(59.020054 0) scale(0.996264)"/>
      <use xlink:href="#CMMI12-15" transform="translate(107.794972 0) scale(0.996264)"/>
     </g>
    </g>
   </g>
   <g id="line2d_6">
    <path d="M 49.271742 11.565046 
L 49.843774 11.304765 
L 50.415806 11.264274 
L 51.273854 11.51997 
L 52.417918 12.219864 
L 54.42003 13.758313 
L 55.278079 14.602119 
L 56.136127 15.784466 
L 56.994175 17.528417 
L 57.852223 20.073575 
L 58.710271 23.624864 
L 59.854335 29.119299 
L 60.140351 29.950939 
L 60.426367 30.208443 
L 60.712383 29.855563 
L 61.284415 27.93313 
L 62.428479 23.61026 
L 63.000511 22.123804 
L 63.572543 21.138337 
L 64.144575 20.609849 
L 64.716607 20.493484 
L 65.28864 20.747936 
L 65.860672 21.329396 
L 66.71872 22.677135 
L 68.1488 25.112258 
L 68.720832 25.564893 
L 69.006848 25.597687 
L 69.57888 25.299562 
L 70.436928 24.283297 
L 71.580992 22.84796 
L 72.43904 22.147401 
L 73.011072 21.906015 
L 73.86912 21.845151 
L 74.727168 22.03934 
L 76.443265 22.50518 
L 77.301313 22.455246 
L 78.159361 22.146801 
L 79.589441 21.306572 
L 81.019521 20.511812 
L 82.163585 20.09193 
L 83.593665 19.825991 
L 85.595777 19.71845 
L 87.311874 19.8108 
L 88.455938 20.067592 
L 89.600002 20.583293 
L 90.45805 21.188722 
L 91.316098 22.015259 
L 92.174146 23.093564 
L 93.032194 24.460108 
L 93.890242 26.162717 
L 94.74829 28.263352 
L 95.892354 31.785731 
L 97.608451 37.610829 
L 97.894467 38.120065 
L 98.180483 38.292508 
L 98.466499 38.095095 
L 98.752515 37.555442 
L 99.324547 35.76628 
L 101.326659 28.549959 
L 102.470723 25.501887 
L 103.328771 23.746384 
L 104.186819 22.388002 
L 105.044867 21.392143 
L 105.902915 20.740817 
L 106.760964 20.430679 
L 107.332996 20.418035 
L 107.905028 20.568 
L 108.47706 20.890515 
L 109.049092 21.399576 
L 109.90714 22.55698 
L 110.765188 24.278099 
L 111.623236 26.730508 
L 112.195268 28.914833 
L 112.7673 31.719783 
L 113.339332 35.446879 
L 113.911364 40.755277 
L 114.483396 49.628152 
L 114.769412 57.791611 
L 115.055428 72.957126 
L 115.62746 51.767559 
L 116.199492 42.999557 
L 116.771524 38.240064 
L 117.343557 35.181422 
L 117.915589 33.087808 
L 118.487621 31.617427 
L 119.345669 30.15757 
L 120.203717 29.206172 
L 121.633797 28.026797 
L 122.777861 27.340963 
L 123.349893 27.217421 
L 123.921925 27.349239 
L 124.493957 27.831902 
L 125.065989 28.777773 
L 125.638021 30.33356 
L 126.210053 32.710806 
L 126.782085 36.210589 
L 127.640134 43.121901 
L 127.92615 43.881623 
L 128.212166 42.482009 
L 129.642246 30.087189 
L 130.214278 26.992336 
L 130.78631 24.74874 
L 131.358342 23.175003 
L 131.930374 22.163919 
L 132.502406 21.656131 
L 132.788422 21.58184 
L 133.074438 21.625994 
L 133.64647 22.075988 
L 134.218502 23.037203 
L 134.790534 24.574935 
L 135.362566 26.796471 
L 135.934598 29.836909 
L 137.078662 36.817576 
L 137.364678 36.917319 
L 137.650694 35.731401 
L 139.366791 24.635495 
L 140.224839 21.369758 
L 140.796871 19.914855 
L 141.368903 18.94428 
L 141.940935 18.419129 
L 142.512967 18.330273 
L 143.084999 18.697605 
L 143.657031 19.576273 
L 144.229063 21.074797 
L 144.801095 23.400248 
L 145.373127 26.982804 
L 145.945159 32.918806 
L 146.231175 37.752518 
L 146.517191 45.632029 
L 146.803207 57.856168 
L 147.375239 37.557482 
L 147.947271 28.415216 
L 148.519304 23.101237 
L 149.091336 19.478099 
L 149.663368 16.851481 
L 150.521416 14.138076 
L 151.093448 12.926848 
L 151.66548 12.089402 
L 152.237512 11.565046 
L 152.237512 11.565046 
" clip-path="url(#pa62b8503c0)" style="fill: none; stroke: #000000; stroke-width: 0.75; stroke-linecap: square"/>
   </g>
   <g id="line2d_7">
    <path d="M 49.271742 11.674568 
L 49.843774 11.364867 
L 50.415806 11.268164 
L 51.273854 11.434552 
L 52.131902 11.860791 
L 53.561982 12.88134 
L 54.992063 14.184002 
L 55.850111 15.275166 
L 56.708159 16.860418 
L 57.566207 19.16977 
L 58.424255 22.428148 
L 60.140351 30.112174 
L 60.426367 30.350991 
L 60.712383 29.979381 
L 61.284415 28.03265 
L 62.428479 23.671173 
L 63.000511 22.163408 
L 63.572543 21.158287 
L 64.144575 20.615246 
L 64.716607 20.495305 
L 65.28864 20.758956 
L 65.860672 21.351396 
L 66.71872 22.678392 
L 68.1488 25.079524 
L 68.720832 25.596737 
L 69.006848 25.662508 
L 69.292864 25.589703 
L 69.864896 25.088694 
L 72.153024 22.264925 
L 72.725056 21.964085 
L 73.297088 21.856312 
L 74.155136 21.941373 
L 77.015297 22.530264 
L 77.587329 22.360145 
L 79.017409 21.539042 
L 81.877569 20.014024 
L 84.165697 19.514972 
L 86.453826 19.409166 
L 87.59789 19.524154 
L 89.02797 19.926292 
L 89.886018 20.37014 
L 91.030082 21.317531 
L 92.174146 22.609789 
L 93.032194 23.903526 
L 93.890242 25.514221 
L 94.74829 27.535524 
L 95.606338 30.153256 
L 96.750403 34.586164 
L 97.608451 37.882327 
L 97.894467 38.642058 
L 98.180483 39.061698 
L 98.466499 39.067503 
L 98.752515 38.655905 
L 99.324547 36.901709 
L 101.326659 29.389936 
L 102.470723 26.218962 
L 103.328771 24.314192 
L 104.186819 22.875255 
L 105.044867 21.876576 
L 105.902915 21.167364 
L 106.760964 20.739415 
L 107.332996 20.682472 
L 107.905028 20.814507 
L 108.763076 21.266392 
L 109.621124 22.028883 
L 110.193156 22.844431 
L 111.051204 24.649053 
L 111.909252 27.066666 
L 112.481284 29.115752 
L 113.053316 31.801631 
L 113.625348 35.461254 
L 114.19738 40.514733 
L 114.769412 47.859001 
L 115.341444 57.534325 
L 115.62746 56.378536 
L 116.199492 46.870338 
L 116.771524 40.816549 
L 117.343557 37.134335 
L 117.915589 34.69985 
L 118.773637 32.067964 
L 119.631685 30.08977 
L 120.489733 28.770055 
L 122.205829 26.864621 
L 122.777861 26.371183 
L 123.349893 26.137828 
L 123.921925 26.261882 
L 124.493957 26.801391 
L 125.065989 27.817462 
L 125.638021 29.42789 
L 126.210053 31.868787 
L 126.782085 35.594789 
L 127.354118 41.384799 
L 127.92615 47.492235 
L 128.212166 46.018013 
L 129.070214 35.082298 
L 129.642246 30.286146 
L 130.214278 26.964417 
L 130.78631 24.612001 
L 131.358342 22.966138 
L 131.930374 21.896745 
L 132.502406 21.347318 
L 132.788422 21.260278 
L 133.074438 21.296525 
L 133.64647 21.737314 
L 134.218502 22.681102 
L 134.790534 24.187054 
L 135.362566 26.400165 
L 135.934598 29.571167 
L 136.792646 36.478859 
L 137.078662 38.656737 
L 137.364678 39.456347 
L 137.650694 38.28369 
L 139.080775 26.868439 
L 139.652807 23.911964 
L 140.224839 21.755389 
L 140.796871 20.219247 
L 141.368903 19.186736 
L 141.940935 18.608334 
L 142.512967 18.487074 
L 142.798983 18.605104 
L 143.371015 19.215736 
L 143.943047 20.366415 
L 144.515079 22.177959 
L 145.087111 24.944892 
L 145.659143 29.338405 
L 145.945159 32.617764 
L 146.231175 37.241694 
L 146.517191 44.476602 
L 146.803207 54.702422 
L 147.661255 32.698011 
L 148.233288 25.89341 
L 148.80532 21.488229 
L 149.377352 18.340729 
L 149.949384 16.020269 
L 150.521416 14.312517 
L 151.093448 13.080813 
L 151.66548 12.224864 
L 152.237512 11.666441 
L 152.237512 11.666441 
" clip-path="url(#pa62b8503c0)" style="fill: none; stroke-dasharray: 2.775,1.2; stroke-dashoffset: 0; stroke: #000000; stroke-width: 0.75"/>
   </g>
   <g id="line2d_8">
    <path d="M 49.271742 6.379096 
L 49.843774 6.348953 
L 50.415806 6.580209 
L 50.987838 7.078148 
L 51.55987 7.852168 
L 52.131902 8.915803 
L 52.98995 11.093059 
L 53.847998 14.025748 
L 54.706047 17.726933 
L 56.136127 24.426865 
L 56.708159 26.058186 
L 56.994175 26.432588 
L 57.280191 26.547708 
L 57.852223 26.305165 
L 58.710271 25.780553 
L 59.282303 25.71318 
L 60.140351 26.005299 
L 60.712383 26.16293 
L 60.998399 26.11683 
L 61.284415 25.940887 
L 61.856447 25.145634 
L 62.714495 23.106856 
L 63.858559 20.191325 
L 64.716607 18.617684 
L 65.28864 17.989494 
L 65.860672 17.73122 
L 66.432704 17.867015 
L 67.004736 18.428933 
L 67.576768 19.465252 
L 68.1488 21.049208 
L 68.720832 23.286508 
L 69.292864 26.298958 
L 70.436928 33.279486 
L 70.722944 33.646459 
L 71.00896 32.822188 
L 73.011072 21.753626 
L 73.583104 20.020717 
L 74.155136 18.864253 
L 74.727168 18.202883 
L 75.2992 17.983419 
L 75.871233 18.17219 
L 76.443265 18.74696 
L 77.015297 19.687324 
L 77.873345 21.696103 
L 79.303425 25.378685 
L 79.589441 25.791514 
L 79.875457 25.982456 
L 80.161473 25.938615 
L 80.447489 25.680013 
L 81.019521 24.711225 
L 82.449601 21.849542 
L 83.307649 20.742852 
L 83.879681 20.34087 
L 84.451713 20.189362 
L 85.023745 20.259284 
L 85.881794 20.696112 
L 87.311874 21.883229 
L 88.169922 22.518025 
L 88.741954 22.775193 
L 89.313986 22.853643 
L 89.886018 22.748648 
L 90.744066 22.307503 
L 92.460162 20.976277 
L 93.890242 20.01518 
L 95.034306 19.549861 
L 96.178371 19.383556 
L 97.322435 19.492672 
L 98.466499 19.844352 
L 99.610563 20.419051 
L 101.040643 21.438195 
L 104.186819 23.972628 
L 104.758851 24.107357 
L 105.330883 24.011896 
L 105.902915 23.674342 
L 106.760964 22.786659 
L 109.90714 18.923827 
L 110.765188 18.419389 
L 111.33722 18.301222 
L 111.909252 18.376519 
L 112.481284 18.660578 
L 113.053316 19.168173 
L 113.625348 19.91234 
L 114.483396 21.484219 
L 115.62746 24.279524 
L 116.485508 26.303104 
L 117.057541 27.036753 
L 117.343557 27.098282 
L 117.629573 26.944824 
L 118.201605 26.110549 
L 120.489733 21.650166 
L 121.061765 21.074654 
L 121.633797 20.788064 
L 122.205829 20.781154 
L 122.777861 21.035293 
L 123.349893 21.521312 
L 124.207941 22.58222 
L 125.924037 24.877802 
L 126.496069 25.339802 
L 127.068101 25.576772 
L 127.92615 25.636529 
L 129.35623 25.642276 
L 132.21639 25.970241 
L 133.360454 25.53266 
L 134.218502 25.22546 
L 134.790534 25.183454 
L 135.362566 25.344124 
L 135.934598 25.740423 
L 136.792646 26.757887 
L 138.222727 28.683486 
L 138.508743 28.852826 
L 138.794759 28.879642 
L 139.080775 28.754422 
L 139.652807 28.100539 
L 141.654919 24.980036 
L 142.226951 24.657935 
L 142.798983 24.7469 
L 143.371015 25.256803 
L 144.229063 26.606464 
L 144.801095 27.365653 
L 145.087111 27.424123 
L 145.373127 27.128805 
L 145.659143 26.43688 
L 146.231175 24.077081 
L 148.233288 14.377481 
L 149.091336 11.38793 
L 149.949384 9.155169 
L 150.807432 7.600784 
L 151.379464 6.913001 
L 151.951496 6.491661 
L 152.237512 6.379096 
L 152.237512 6.379096 
" clip-path="url(#pa62b8503c0)" style="fill: none; stroke: #ff0000; stroke-width: 0.75; stroke-linecap: square"/>
   </g>
   <g id="line2d_9">
    <path d="M 49.271742 6.564869 
L 49.843774 6.496661 
L 50.415806 6.682477 
L 50.987838 7.130908 
L 51.55987 7.855693 
L 52.131902 8.871775 
L 52.98995 10.976813 
L 53.847998 13.824779 
L 54.706047 17.428198 
L 56.422143 25.29956 
L 56.994175 26.662142 
L 57.280191 26.922219 
L 57.566207 26.965079 
L 58.138239 26.702463 
L 58.996287 26.248112 
L 59.568319 26.156572 
L 60.712383 26.188555 
L 60.998399 26.070783 
L 61.570431 25.455235 
L 62.142463 24.312975 
L 64.430591 18.828088 
L 65.002623 18.03833 
L 65.574656 17.600419 
L 66.146688 17.528924 
L 66.71872 17.847803 
L 67.290752 18.603688 
L 67.862784 19.868587 
L 68.434816 21.739296 
L 69.006848 24.335276 
L 69.864896 29.684045 
L 70.436928 33.03363 
L 70.722944 33.512068 
L 71.00896 32.789928 
L 71.580992 29.328574 
L 72.43904 24.234819 
L 73.011072 21.81085 
L 73.583104 20.070395 
L 74.155136 18.892307 
L 74.727168 18.196398 
L 75.2992 17.940243 
L 75.871233 18.10402 
L 76.443265 18.670429 
L 77.015297 19.605503 
L 77.873345 21.554779 
L 79.303425 25.121347 
L 79.589441 25.56252 
L 79.875457 25.789578 
L 80.161473 25.77455 
L 80.447489 25.528765 
L 81.019521 24.554222 
L 82.449601 21.778321 
L 83.307649 20.683881 
L 83.879681 20.259241 
L 84.451713 20.104381 
L 85.023745 20.195423 
L 85.881794 20.63458 
L 87.025858 21.50882 
L 88.169922 22.452119 
L 88.741954 22.721134 
L 89.313986 22.777983 
L 90.172034 22.562453 
L 91.030082 22.103212 
L 94.462274 19.80044 
L 95.320322 19.562321 
L 96.178371 19.523835 
L 97.322435 19.711079 
L 98.752515 20.152194 
L 99.896579 20.775782 
L 101.326659 21.947745 
L 103.328771 23.584697 
L 104.186819 24.113477 
L 104.758851 24.245656 
L 105.330883 24.096801 
L 105.902915 23.662552 
L 106.760964 22.664859 
L 109.90714 18.727384 
L 110.479172 18.354821 
L 111.051204 18.163062 
L 111.623236 18.139846 
L 112.195268 18.300967 
L 112.7673 18.687219 
L 113.339332 19.325772 
L 114.19738 20.737755 
L 115.055428 22.645212 
L 116.485508 26.190324 
L 117.057541 26.916416 
L 117.343557 26.973461 
L 117.629573 26.819352 
L 118.201605 25.976641 
L 120.203717 21.773077 
L 120.775749 21.096875 
L 121.347781 20.698098 
L 121.919813 20.543728 
L 122.491845 20.636783 
L 123.063877 20.994848 
L 123.635909 21.60499 
L 125.065989 23.679112 
L 125.924037 24.765046 
L 126.782085 25.458825 
L 127.354118 25.661921 
L 128.212166 25.66319 
L 129.35623 25.638643 
L 130.214278 25.889122 
L 131.358342 26.252824 
L 132.21639 26.219059 
L 133.074438 25.889003 
L 134.504518 25.225192 
L 135.07655 25.230508 
L 135.648582 25.468115 
L 136.50663 26.174297 
L 137.364678 27.239632 
L 138.508743 28.775023 
L 138.794759 28.945313 
L 139.080775 28.958316 
L 139.366791 28.814573 
L 139.938823 28.166035 
L 141.654919 25.672321 
L 142.226951 25.307742 
L 142.798983 25.368126 
L 143.371015 25.821179 
L 144.801095 27.496363 
L 145.087111 27.500095 
L 145.373127 27.187084 
L 145.659143 26.50497 
L 146.231175 24.192472 
L 148.233288 14.684153 
L 149.091336 11.685498 
L 149.949384 9.409102 
L 150.807432 7.827162 
L 151.379464 7.127548 
L 151.951496 6.6885 
L 152.237512 6.560545 
L 152.237512 6.560545 
" clip-path="url(#pa62b8503c0)" style="fill: none; stroke-dasharray: 2.775,1.2; stroke-dashoffset: 0; stroke: #ff0000; stroke-width: 0.75"/>
   </g>
   <g id="patch_3">
    <path d="M 44.123453 76.288407 
L 44.123453 3.00024 
" style="fill: none; stroke: #000000; stroke-width: 0.8; stroke-linejoin: miter; stroke-linecap: square"/>
   </g>
   <g id="patch_4">
    <path d="M 157.3858 76.288407 
L 157.3858 3.00024 
" style="fill: none; stroke: #000000; stroke-width: 0.8; stroke-linejoin: miter; stroke-linecap: square"/>
   </g>
   <g id="patch_5">
    <path d="M 44.123453 76.288407 
L 157.3858 76.288407 
" style="fill: none; stroke: #000000; stroke-width: 0.8; stroke-linejoin: miter; stroke-linecap: square"/>
   </g>
   <g id="patch_6">
    <path d="M 44.123453 3.00024 
L 157.3858 3.00024 
" style="fill: none; stroke: #000000; stroke-width: 0.8; stroke-linejoin: miter; stroke-linecap: square"/>
   </g>
   <g id="legend_1">
    <g id="patch_7">
     <path d="M 50.423453 71.788407 
L 115.925502 71.788407 
Q 117.725502 71.788407 117.725502 69.988407 
L 117.725502 48.478568 
Q 117.725502 46.678568 115.925502 46.678568 
L 50.423453 46.678568 
Q 48.623453 46.678568 48.623453 48.478568 
L 48.623453 69.988407 
Q 48.623453 71.788407 50.423453 71.788407 
z
" style="fill: #ffffff; opacity: 0.5; stroke: #cccccc; stroke-linejoin: miter"/>
    </g>
    <g id="line2d_10">
     <defs>
      <path id="m85b3c0f324" d="M 0 2.5 
C 0.663008 2.5 1.29895 2.236584 1.767767 1.767767 
C 2.236584 1.29895 2.5 0.663008 2.5 0 
C 2.5 -0.663008 2.236584 -1.29895 1.767767 -1.767767 
C 1.29895 -2.236584 0.663008 -2.5 0 -2.5 
C -0.663008 -2.5 -1.29895 -2.236584 -1.767767 -1.767767 
C -2.236584 -1.29895 -2.5 -0.663008 -2.5 0 
C -2.5 0.663008 -2.236584 1.29895 -1.767767 1.767767 
C -1.29895 2.236584 -0.663008 2.5 0 2.5 
z
" style="stroke: #000000"/>
     </defs>
     <g>
      <use xlink:href="#m85b3c0f324" x="61.223453" y="53.428568" style="stroke: #000000"/>
     </g>
    </g>
    <g id="text_8">
     <!-- $\phi_0 = 0$ -->
     <g transform="translate(70.223453 56.578568) scale(0.09 -0.09)">
      <defs>
       <path id="CMMI12-1e" d="M 2752 4358 
C 2752 4416 2707 4416 2688 4416 
C 2630 4416 2624 4403 2598 4294 
L 2253 2924 
C 2234 2841 2227 2835 2221 2828 
C 2214 2816 2170 2809 2157 2809 
C 1107 2720 301 1863 301 1071 
C 301 387 832 -32 1498 -71 
C 1446 -266 1402 -467 1350 -662 
C 1261 -995 1210 -1204 1210 -1229 
C 1210 -1242 1210 -1280 1274 -1280 
C 1293 -1280 1318 -1280 1331 -1255 
C 1344 -1242 1382 -1089 1408 -1008 
L 1645 -71 
C 2739 -13 3571 875 3571 1673 
C 3571 2313 3085 2771 2374 2816 
L 2752 4358 
z
M 2336 2688 
C 2758 2662 3181 2428 3181 1806 
C 3181 1090 2675 140 1677 64 
L 2336 2688 
z
M 1530 57 
C 1216 76 691 241 691 938 
C 691 1737 1274 2624 2195 2681 
L 1530 57 
z
" transform="scale(0.015625)"/>
       <path id="CMR17-3d" d="M 4115 2048 
C 4211 2048 4307 2048 4307 2156 
C 4307 2272 4198 2272 4090 2272 
L 512 2272 
C 403 2272 294 2272 294 2156 
C 294 2048 390 2048 486 2048 
L 4115 2048 
z
M 4090 927 
C 4198 927 4307 927 4307 1043 
C 4307 1152 4211 1152 4115 1152 
L 486 1152 
C 390 1152 294 1152 294 1043 
C 294 927 403 927 512 927 
L 4090 927 
z
" transform="scale(0.015625)"/>
      </defs>
      <use xlink:href="#CMMI12-1e" transform="scale(0.996264)"/>
      <use xlink:href="#CMR17-30" transform="translate(57.73418 -14.943915) scale(0.697382)"/>
      <use xlink:href="#CMR17-3d" transform="translate(117.889503 0) scale(0.996264)"/>
      <use xlink:href="#CMR17-30" transform="translate(217.2783 0) scale(0.996264)"/>
     </g>
    </g>
    <g id="line2d_11">
     <defs>
      <path id="m184916091f" d="M 0 2.5 
C 0.663008 2.5 1.29895 2.236584 1.767767 1.767767 
C 2.236584 1.29895 2.5 0.663008 2.5 0 
C 2.5 -0.663008 2.236584 -1.29895 1.767767 -1.767767 
C 1.29895 -2.236584 0.663008 -2.5 0 -2.5 
C -0.663008 -2.5 -1.29895 -2.236584 -1.767767 -1.767767 
C -2.236584 -1.29895 -2.5 -0.663008 -2.5 0 
C -2.5 0.663008 -2.236584 1.29895 -1.767767 1.767767 
C -1.29895 2.236584 -0.663008 2.5 0 2.5 
z
" style="stroke: #ff0000"/>
     </defs>
     <g>
      <use xlink:href="#m184916091f" x="61.223453" y="62.796813" style="fill: #ff0000; stroke: #ff0000"/>
     </g>
    </g>
    <g id="text_9">
     <!-- $\phi_0 = - \pi / 4$ -->
     <g transform="translate(70.223453 65.946813) scale(0.09 -0.09)">
      <defs>
       <path id="CMR17-34" d="M 2150 4147 
C 2150 4281 2144 4288 2029 4288 
L 128 1254 
L 128 1088 
L 1779 1088 
L 1779 460 
C 1779 230 1766 166 1318 166 
L 1197 166 
L 1197 0 
C 1402 12 1747 12 1965 12 
C 2182 12 2528 12 2733 0 
L 2733 166 
L 2611 166 
C 2163 166 2150 230 2150 460 
L 2150 1088 
L 2803 1088 
L 2803 1254 
L 2150 1254 
L 2150 4147 
z
M 1798 3723 
L 1798 1254 
L 256 1254 
L 1798 3723 
z
" transform="scale(0.015625)"/>
      </defs>
      <use xlink:href="#CMMI12-1e" transform="scale(0.996264)"/>
      <use xlink:href="#CMR17-30" transform="translate(57.73418 -14.943915) scale(0.697382)"/>
      <use xlink:href="#CMR17-3d" transform="translate(117.889503 0) scale(0.996264)"/>
      <use xlink:href="#CMSY10-0" transform="translate(217.2783 0) scale(0.996264)"/>
      <use xlink:href="#CMMI12-19" transform="translate(294.765768 0) scale(0.996264)"/>
      <use xlink:href="#CMMI12-3d" transform="translate(353.676369 0) scale(0.996264)"/>
      <use xlink:href="#CMR17-34" transform="translate(402.451287 0) scale(0.996264)"/>
     </g>
    </g>
   </g>
  </g>
 </g>
 <defs>
  <clipPath id="pa62b8503c0">
   <rect x="44.123453" y="3.00024" width="113.262347" height="73.288167"/>
  </clipPath>
 </defs>
</svg>
