<?xml version="1.0" encoding="utf-8" standalone="no"?>
<!DOCTYPE svg PUBLIC "-//W3C//DTD SVG 1.1//EN"
  "http://www.w3.org/Graphics/SVG/1.1/DTD/svg11.dtd">
<svg xmlns:xlink="http://www.w3.org/1999/xlink" width="160.56pt" height="160.56pt" viewBox="0 0 160.56 160.56" xmlns="http://www.w3.org/2000/svg" version="1.1">
 <metadata>
  <rdf:RDF xmlns:dc="http://purl.org/dc/elements/1.1/" xmlns:cc="http://creativecommons.org/ns#" xmlns:rdf="http://www.w3.org/1999/02/22-rdf-syntax-ns#">
   <cc:Work>
    <dc:type rdf:resource="http://purl.org/dc/dcmitype/StillImage"/>
    <dc:date>2025-08-18T17:31:49.869527</dc:date>
    <dc:format>image/svg+xml</dc:format>
    <dc:creator>
     <cc:Agent>
      <dc:title>Matplotlib v3.6.3, https://matplotlib.org/</dc:title>
     </cc:Agent>
    </dc:creator>
   </cc:Work>
  </rdf:RDF>
 </metadata>
 <defs>
  <style type="text/css">*{stroke-linejoin: round; stroke-linecap: butt}</style>
 </defs>
 <g id="figure_1">
  <g id="patch_1">
   <path d="M 0 160.56 
L 160.56 160.56 
L 160.56 0 
L 0 0 
z
" style="fill: #ffffff"/>
  </g>
  <g id="axes_1">
   <g id="patch_2">
    <path d="M 157.55976 80.28 
C 157.55976 70.131715 155.560769 60.082109 151.677189 50.706316 
C 147.793608 41.330523 142.100964 32.810879 134.925042 25.634958 
C 127.749121 18.459036 119.229477 12.766392 109.853684 8.882811 
C 100.477891 4.999231 90.428285 3.00024 80.28 3.00024 
C 70.131715 3.00024 60.082109 4.999231 50.706316 8.882811 
C 41.330523 12.766392 32.810879 18.459036 25.634958 25.634958 
C 18.459036 32.810879 12.766392 41.330523 8.882811 50.706316 
C 4.999231 60.082109 3.00024 70.131715 3.00024 80.28 
C 3.00024 90.428285 4.999231 100.477891 8.882811 109.853684 
C 12.766392 119.229477 18.459036 127.749121 25.634958 134.925042 
C 32.810879 142.100964 41.330523 147.793608 50.706316 151.677189 
C 60.082109 155.560769 70.131715 157.55976 80.28 157.55976 
C 90.428285 157.55976 100.477891 155.560769 109.853684 151.677189 
C 119.229477 147.793608 127.749121 142.100964 134.925042 134.925042 
C 142.100964 127.749121 147.793608 119.229477 151.677189 109.853684 
C 155.560769 100.477891 157.55976 90.428285 157.55976 80.28 
M 80.28 80.28 
C 80.28 80.28 80.28 80.28 80.28 80.28 
C 80.28 80.28 80.28 80.28 80.28 80.28 
C 80.28 80.28 80.28 80.28 80.28 80.28 
C 80.28 80.28 80.28 80.28 80.28 80.28 
C 80.28 80.28 80.28 80.28 80.28 80.28 
C 80.28 80.28 80.28 80.28 80.28 80.28 
C 80.28 80.28 80.28 80.28 80.28 80.28 
C 80.28 80.28 80.28 80.28 80.28 80.28 
C 80.28 80.28 80.28 80.28 80.28 80.28 
C 80.28 80.28 80.28 80.28 80.28 80.28 
C 80.28 80.28 80.28 80.28 80.28 80.28 
C 80.28 80.28 80.28 80.28 80.28 80.28 
C 80.28 80.28 80.28 80.28 80.28 80.28 
C 80.28 80.28 80.28 80.28 80.28 80.28 
C 80.28 80.28 80.28 80.28 80.28 80.28 
C 80.28 80.28 80.28 80.28 80.28 80.28 
M 157.55976 80.28 
z
" style="fill: #ffffff"/>
   </g>
   <g id="matplotlib.axis_1">
    <g id="xtick_1">
     <g id="line2d_1">
      <path d="M 80.28 80.28 
L 134.925042 25.634958 
" clip-path="url(#pda3d95bbd8)" style="fill: none; stroke: #b0b0b0; stroke-width: 0.8; stroke-linecap: square"/>
     </g>
     <g id="text_1">
      <!-- $\pi/4$ -->
      <g transform="translate(136.824995 18.226123) scale(0.1 -0.1)">
       <defs>
        <path id="CMMI12-19" d="M 1658 2406 
L 2381 2406 
C 2208 1691 2099 1225 2099 715 
C 2099 625 2099 -64 2362 -64 
C 2496 -64 2611 57 2611 166 
C 2611 198 2611 210 2566 306 
C 2394 746 2394 1295 2394 1340 
C 2394 1378 2394 1832 2528 2406 
L 3245 2406 
C 3328 2406 3539 2406 3539 2611 
C 3539 2752 3418 2752 3302 2752 
L 1197 2752 
C 1050 2752 832 2752 538 2438 
C 371 2253 166 1915 166 1876 
C 166 1838 198 1825 237 1825 
C 282 1825 288 1844 320 1883 
C 653 2406 986 2406 1146 2406 
L 1510 2406 
C 1370 1927 1210 1372 685 255 
C 634 153 634 140 634 102 
C 634 -32 749 -64 806 -64 
C 992 -64 1043 102 1120 370 
C 1222 695 1222 708 1286 964 
L 1658 2406 
z
" transform="scale(0.015625)"/>
        <path id="CMMI12-3d" d="M 2746 4563 
C 2746 4569 2784 4665 2784 4678 
C 2784 4755 2720 4800 2669 4800 
C 2637 4800 2579 4800 2528 4659 
L 384 -1364 
C 384 -1370 346 -1466 346 -1479 
C 346 -1556 410 -1600 461 -1600 
C 499 -1600 557 -1594 602 -1460 
L 2746 4563 
z
" transform="scale(0.015625)"/>
        <path id="CMR17-34" d="M 2150 4147 
C 2150 4281 2144 4288 2029 4288 
L 128 1254 
L 128 1088 
L 1779 1088 
L 1779 460 
C 1779 230 1766 166 1318 166 
L 1197 166 
L 1197 0 
C 1402 12 1747 12 1965 12 
C 2182 12 2528 12 2733 0 
L 2733 166 
L 2611 166 
C 2163 166 2150 230 2150 460 
L 2150 1088 
L 2803 1088 
L 2803 1254 
L 2150 1254 
L 2150 4147 
z
M 1798 3723 
L 1798 1254 
L 256 1254 
L 1798 3723 
z
" transform="scale(0.015625)"/>
       </defs>
       <use xlink:href="#CMMI12-19" transform="scale(0.996264)"/>
       <use xlink:href="#CMMI12-3d" transform="translate(58.910601 0) scale(0.996264)"/>
       <use xlink:href="#CMR17-34" transform="translate(107.68552 0) scale(0.996264)"/>
      </g>
     </g>
    </g>
    <g id="xtick_2">
     <g id="line2d_2">
      <path d="M 80.28 80.28 
L 25.634958 25.634958 
" clip-path="url(#pda3d95bbd8)" style="fill: none; stroke: #b0b0b0; stroke-width: 0.8; stroke-linecap: square"/>
     </g>
     <g id="text_2">
      <!-- $3\pi/4$ -->
      <g transform="translate(5.245252 18.226123) scale(0.1 -0.1)">
       <defs>
        <path id="CMR17-33" d="M 1414 2176 
C 1984 2176 2234 1673 2234 1094 
C 2234 322 1824 25 1453 25 
C 1114 25 563 193 390 691 
C 422 678 454 678 486 678 
C 640 678 755 780 755 947 
C 755 1132 614 1216 486 1216 
C 378 1216 211 1164 211 927 
C 211 335 787 -128 1466 -128 
C 2176 -128 2720 432 2720 1087 
C 2720 1718 2208 2176 1600 2246 
C 2086 2347 2554 2776 2554 3353 
C 2554 3856 2048 4224 1472 4224 
C 890 4224 378 3862 378 3347 
C 378 3123 544 3084 627 3084 
C 762 3084 877 3167 877 3334 
C 877 3500 762 3584 627 3584 
C 602 3584 570 3584 544 3571 
C 730 3999 1235 4076 1459 4076 
C 1683 4076 2106 3966 2106 3347 
C 2106 3167 2080 2851 1862 2574 
C 1670 2329 1453 2316 1242 2297 
C 1210 2297 1062 2284 1037 2284 
C 992 2278 966 2272 966 2227 
C 966 2182 973 2176 1101 2176 
L 1414 2176 
z
" transform="scale(0.015625)"/>
       </defs>
       <use xlink:href="#CMR17-33" transform="scale(0.996264)"/>
       <use xlink:href="#CMMI12-19" transform="translate(45.690477 0) scale(0.996264)"/>
       <use xlink:href="#CMMI12-3d" transform="translate(104.601078 0) scale(0.996264)"/>
       <use xlink:href="#CMR17-34" transform="translate(153.375997 0) scale(0.996264)"/>
      </g>
     </g>
    </g>
    <g id="xtick_3">
     <g id="line2d_3">
      <path d="M 80.28 80.28 
L 25.634958 134.925042 
" clip-path="url(#pda3d95bbd8)" style="fill: none; stroke: #b0b0b0; stroke-width: 0.8; stroke-linecap: square"/>
     </g>
     <g id="text_3">
      <!-- $5\pi/4$ -->
      <g transform="translate(5.245252 147.315197) scale(0.1 -0.1)">
       <defs>
        <path id="CMR17-35" d="M 730 3750 
C 794 3724 1056 3641 1325 3641 
C 1920 3641 2246 3961 2432 4140 
C 2432 4191 2432 4224 2394 4224 
C 2387 4224 2374 4224 2323 4198 
C 2099 4102 1837 4032 1517 4032 
C 1325 4032 1037 4055 723 4191 
C 653 4224 640 4224 634 4224 
C 602 4224 595 4217 595 4090 
L 595 2231 
C 595 2113 595 2080 659 2080 
C 691 2080 704 2093 736 2139 
C 941 2435 1222 2560 1542 2560 
C 1766 2560 2246 2415 2246 1293 
C 2246 1087 2246 716 2054 422 
C 1894 159 1645 25 1370 25 
C 947 25 518 319 403 812 
C 429 806 480 793 506 793 
C 589 793 749 838 749 1036 
C 749 1209 627 1280 506 1280 
C 358 1280 262 1190 262 1011 
C 262 454 704 -128 1382 -128 
C 2042 -128 2669 441 2669 1267 
C 2669 2054 2170 2662 1549 2662 
C 1222 2662 947 2540 730 2304 
L 730 3750 
z
" transform="scale(0.015625)"/>
       </defs>
       <use xlink:href="#CMR17-35" transform="scale(0.996264)"/>
       <use xlink:href="#CMMI12-19" transform="translate(45.690477 0) scale(0.996264)"/>
       <use xlink:href="#CMMI12-3d" transform="translate(104.601078 0) scale(0.996264)"/>
       <use xlink:href="#CMR17-34" transform="translate(153.375997 0) scale(0.996264)"/>
      </g>
     </g>
    </g>
    <g id="xtick_4">
     <g id="line2d_4">
      <path d="M 80.28 80.28 
L 134.925042 134.925042 
" clip-path="url(#pda3d95bbd8)" style="fill: none; stroke: #b0b0b0; stroke-width: 0.8; stroke-linecap: square"/>
     </g>
     <g id="text_4">
      <!-- $7\pi/4$ -->
      <g transform="translate(134.334327 147.315197) scale(0.1 -0.1)">
       <defs>
        <path id="CMR17-37" d="M 2886 3955 
L 2886 4096 
L 1382 4096 
C 634 4096 621 4166 595 4288 
L 480 4288 
L 294 3104 
L 410 3104 
C 429 3226 474 3552 550 3673 
C 589 3724 1062 3724 1171 3724 
L 2579 3724 
L 1869 2670 
C 1395 1961 1069 1003 1069 166 
C 1069 89 1069 -128 1299 -128 
C 1530 -128 1530 89 1530 172 
L 1530 466 
C 1530 1514 1709 2204 2003 2644 
L 2886 3955 
z
" transform="scale(0.015625)"/>
       </defs>
       <use xlink:href="#CMR17-37" transform="scale(0.996264)"/>
       <use xlink:href="#CMMI12-19" transform="translate(45.690477 0) scale(0.996264)"/>
       <use xlink:href="#CMMI12-3d" transform="translate(104.601078 0) scale(0.996264)"/>
       <use xlink:href="#CMR17-34" transform="translate(153.375997 0) scale(0.996264)"/>
      </g>
     </g>
    </g>
   </g>
   <g id="matplotlib.axis_2">
    <g id="ytick_1">
     <g id="line2d_5">
      <path d="M 90.225371 80.28 
C 90.225371 78.973986 89.968115 77.680671 89.468325 76.474071 
C 88.968535 75.267472 88.235931 74.171052 87.312439 73.247561 
C 86.388948 72.324069 85.292528 71.591465 84.085929 71.091675 
C 82.879329 70.591885 81.586014 70.334629 80.28 70.334629 
C 78.973986 70.334629 77.680671 70.591885 76.474071 71.091675 
C 75.267472 71.591465 74.171052 72.324069 73.247561 73.247561 
C 72.324069 74.171052 71.591465 75.267472 71.091675 76.474071 
C 70.591885 77.680671 70.334629 78.973986 70.334629 80.28 
C 70.334629 81.586014 70.591885 82.879329 71.091675 84.085929 
C 71.591465 85.292528 72.324069 86.388948 73.247561 87.312439 
C 74.171052 88.235931 75.267472 88.968535 76.474071 89.468325 
C 77.680671 89.968115 78.973986 90.225371 80.28 90.225371 
C 81.586014 90.225371 82.879329 89.968115 84.085929 89.468325 
C 85.292528 88.968535 86.388948 88.235931 87.312439 87.312439 
C 88.235931 86.388948 88.968535 85.292528 89.468325 84.085929 
C 89.968115 82.879329 90.225371 81.586014 90.225371 80.28 
" clip-path="url(#pda3d95bbd8)" style="fill: none; stroke: #b0b0b0; stroke-width: 0.8; stroke-linecap: square"/>
     </g>
     <g id="text_5">
      <!-- $\mathdefault{10^{0}}$ -->
      <g transform="translate(74.57557 86.489593) scale(0.1 -0.1)">
       <defs>
        <path id="CMR17-31" d="M 1702 4083 
C 1702 4217 1696 4224 1606 4224 
C 1357 3927 979 3833 621 3820 
C 602 3820 570 3820 563 3808 
C 557 3795 557 3782 557 3648 
C 755 3648 1088 3686 1344 3839 
L 1344 467 
C 1344 243 1331 166 781 166 
L 589 166 
L 589 0 
C 896 6 1216 12 1523 12 
C 1830 12 2150 6 2458 0 
L 2458 166 
L 2266 166 
C 1715 166 1702 236 1702 467 
L 1702 4083 
z
" transform="scale(0.015625)"/>
        <path id="CMR17-30" d="M 2688 2038 
C 2688 2430 2682 3099 2413 3613 
C 2176 4063 1798 4224 1466 4224 
C 1158 4224 768 4082 525 3620 
C 269 3137 243 2539 243 2038 
C 243 1671 250 1112 448 623 
C 723 -39 1216 -128 1466 -128 
C 1760 -128 2208 -7 2470 604 
C 2662 1048 2688 1568 2688 2038 
z
M 1466 -26 
C 1056 -26 813 328 723 816 
C 653 1196 653 1749 653 2109 
C 653 2604 653 3015 736 3407 
C 858 3954 1216 4121 1466 4121 
C 1728 4121 2067 3947 2189 3420 
C 2272 3054 2278 2623 2278 2109 
C 2278 1691 2278 1176 2202 797 
C 2067 96 1690 -26 1466 -26 
z
" transform="scale(0.015625)"/>
       </defs>
       <use xlink:href="#CMR17-31" transform="scale(0.996264)"/>
       <use xlink:href="#CMR17-30" transform="translate(45.690477 0) scale(0.996264)"/>
       <use xlink:href="#CMR17-30" transform="translate(91.380954 36.153639) scale(0.697382)"/>
      </g>
     </g>
    </g>
    <g id="ytick_2">
     <g id="line2d_6">
      <path d="M 112.68347 80.28 
C 112.68347 76.024815 111.845292 71.811007 110.216903 67.879729 
C 108.588514 63.948451 106.201584 60.376156 103.192714 57.367286 
C 100.183844 54.358416 96.611549 51.971486 92.680271 50.343097 
C 88.748993 48.714708 84.535185 47.87653 80.28 47.87653 
C 76.024815 47.87653 71.811007 48.714708 67.879729 50.343097 
C 63.948451 51.971486 60.376156 54.358416 57.367286 57.367286 
C 54.358416 60.376156 51.971486 63.948451 50.343097 67.879729 
C 48.714708 71.811007 47.87653 76.024815 47.87653 80.28 
C 47.87653 84.535185 48.714708 88.748993 50.343097 92.680271 
C 51.971486 96.611549 54.358416 100.183844 57.367286 103.192714 
C 60.376156 106.201584 63.948451 108.588514 67.879729 110.216903 
C 71.811007 111.845292 76.024815 112.68347 80.28 112.68347 
C 84.535185 112.68347 88.748993 111.845292 92.680271 110.216903 
C 96.611549 108.588514 100.183844 106.201584 103.192714 103.192714 
C 106.201584 100.183844 108.588514 96.611549 110.216903 92.680271 
C 111.845292 88.748993 112.68347 84.535185 112.68347 80.28 
" clip-path="url(#pda3d95bbd8)" style="fill: none; stroke: #b0b0b0; stroke-width: 0.8; stroke-linecap: square"/>
     </g>
     <g id="text_6">
      <!-- $\mathdefault{10^{1}}$ -->
      <g transform="translate(61.694133 104.886191) scale(0.1 -0.1)">
       <use xlink:href="#CMR17-31" transform="scale(0.996264)"/>
       <use xlink:href="#CMR17-30" transform="translate(45.690477 0) scale(0.996264)"/>
       <use xlink:href="#CMR17-31" transform="translate(91.380954 36.153639) scale(0.697382)"/>
      </g>
     </g>
    </g>
    <g id="ytick_3">
     <g id="line2d_7">
      <path d="M 130.585138 80.28 
C 130.585138 73.67399 129.283898 67.132215 126.755887 61.029057 
C 124.227877 54.925899 120.522259 49.38005 115.851104 44.708896 
C 111.17995 40.037741 105.634101 36.332123 99.530943 33.804113 
C 93.427785 31.276102 86.88601 29.974862 80.28 29.974862 
C 73.67399 29.974862 67.132215 31.276102 61.029057 33.804113 
C 54.925899 36.332123 49.38005 40.037741 44.708896 44.708896 
C 40.037741 49.38005 36.332123 54.925899 33.804113 61.029057 
C 31.276102 67.132215 29.974862 73.67399 29.974862 80.28 
C 29.974862 86.88601 31.276102 93.427785 33.804113 99.530943 
C 36.332123 105.634101 40.037741 111.17995 44.708896 115.851104 
C 49.38005 120.522259 54.925899 124.227877 61.029057 126.755887 
C 67.132215 129.283898 73.67399 130.585138 80.28 130.585138 
C 86.88601 130.585138 93.427785 129.283898 99.530943 126.755887 
C 105.634101 124.227877 111.17995 120.522259 115.851104 115.851104 
C 120.522259 111.17995 124.227877 105.634101 126.755887 99.530943 
C 129.283898 93.427785 130.585138 86.88601 130.585138 80.28 
" clip-path="url(#pda3d95bbd8)" style="fill: none; stroke: #b0b0b0; stroke-width: 0.8; stroke-linecap: square"/>
     </g>
     <g id="text_7">
      <!-- $\mathdefault{10^{2}}$ -->
      <g transform="translate(51.426158 119.550378) scale(0.1 -0.1)">
       <defs>
        <path id="CMR17-32" d="M 2669 990 
L 2554 990 
C 2490 537 2438 460 2413 422 
C 2381 371 1920 371 1830 371 
L 602 371 
C 832 620 1280 1073 1824 1596 
C 2214 1966 2669 2400 2669 3033 
C 2669 3788 2067 4224 1395 4224 
C 691 4224 262 3603 262 3027 
C 262 2777 448 2745 525 2745 
C 589 2745 781 2783 781 3007 
C 781 3206 614 3264 525 3264 
C 486 3264 448 3257 422 3244 
C 544 3788 915 4057 1306 4057 
C 1862 4057 2227 3616 2227 3033 
C 2227 2477 1901 1998 1536 1583 
L 262 147 
L 262 0 
L 2515 0 
L 2669 990 
z
" transform="scale(0.015625)"/>
       </defs>
       <use xlink:href="#CMR17-31" transform="scale(0.996264)"/>
       <use xlink:href="#CMR17-30" transform="translate(45.690477 0) scale(0.996264)"/>
       <use xlink:href="#CMR17-32" transform="translate(91.380954 36.153639) scale(0.697382)"/>
      </g>
     </g>
    </g>
    <g id="ytick_4">
     <g id="line2d_8">
      <path d="M 148.486806 80.28 
C 148.486806 71.323164 146.722504 62.453423 143.294872 54.178385 
C 139.867239 45.903348 134.842934 38.383944 128.509495 32.050505 
C 122.176056 25.717066 114.656652 20.692761 106.381615 17.265128 
C 98.106577 13.837496 89.236836 12.073194 80.28 12.073194 
C 71.323164 12.073194 62.453423 13.837496 54.178385 17.265128 
C 45.903348 20.692761 38.383944 25.717066 32.050505 32.050505 
C 25.717066 38.383944 20.692761 45.903348 17.265128 54.178385 
C 13.837496 62.453423 12.073194 71.323164 12.073194 80.28 
C 12.073194 89.236836 13.837496 98.106577 17.265128 106.381615 
C 20.692761 114.656652 25.717066 122.176056 32.050505 128.509495 
C 38.383944 134.842934 45.903348 139.867239 54.178385 143.294872 
C 62.453423 146.722504 71.323164 148.486806 80.28 148.486806 
C 89.236836 148.486806 98.106577 146.722504 106.381615 143.294872 
C 114.656652 139.867239 122.176056 134.842934 128.509495 128.509495 
C 134.842934 122.176056 139.867239 114.656652 143.294872 106.381615 
C 146.722504 98.106577 148.486806 89.236836 148.486806 80.28 
" clip-path="url(#pda3d95bbd8)" style="fill: none; stroke: #b0b0b0; stroke-width: 0.8; stroke-linecap: square"/>
     </g>
     <g id="text_8">
      <!-- $\mathdefault{10^{3}}$ -->
      <g transform="translate(41.158183 134.214566) scale(0.1 -0.1)">
       <use xlink:href="#CMR17-31" transform="scale(0.996264)"/>
       <use xlink:href="#CMR17-30" transform="translate(45.690477 0) scale(0.996264)"/>
       <use xlink:href="#CMR17-33" transform="translate(91.380954 36.153639) scale(0.697382)"/>
      </g>
     </g>
    </g>
    <g id="ytick_5"/>
   </g>
   <g id="line2d_9">
    <path d="M 153.879771 80.28 
L 150.361863 79.056717 
L 138.894525 78.233136 
L 136.834451 77.316107 
L 140.2508 76.086433 
L 133.988321 75.581131 
L 126.997956 75.369745 
L 132.40862 73.87941 
L 132.868574 72.889158 
L 130.096803 72.389794 
L 124.887479 72.414498 
L 126.503566 71.295049 
L 132.484285 69.183637 
L 132.362015 68.255919 
L 126.474428 68.762435 
L 124.394031 68.459681 
L 128.209781 66.536356 
L 127.533782 65.833069 
L 122.134104 66.680777 
L 122.2861 65.81614 
L 127.408209 63.126735 
L 126.821499 62.414392 
L 121.526991 63.615134 
L 126.015475 59.917255 
L 118.441544 61.667371 
L 123.074015 58.47536 
L 122.236251 57.971465 
L 115.358471 60.835686 
L 120.393991 56.177082 
L 115.554549 58.238015 
L 113.542103 58.679338 
L 118.719675 54.352112 
L 116.239736 55.100722 
L 109.225852 59.249607 
L 115.468178 53.763806 
L 115.47553 52.782238 
L 108.314655 57.577984 
L 112.151062 53.537003 
L 113.451889 51.444117 
L 106.078835 57.050624 
L 111.69556 49.942347 
L 105.638179 54.921821 
L 103.688819 56.039458 
L 108.657317 49.849053 
L 104.5691 53.304221 
L 100.475856 57.047325 
L 105.764134 49.909192 
L 102.631137 52.678644 
L 97.011708 58.864391 
L 103.607771 49.323002 
L 101.928919 50.482819 
L 92.541518 62.768738 
L 100.584969 50.176645 
L 100.774534 48.721184 
L 92.335725 60.986807 
L 97.03723 52.391285 
L 98.595245 48.557065 
L 91.697775 59.681789 
L 94.42451 53.678046 
L 96.511429 48.424027 
L 89.802961 60.755036 
L 92.584342 53.893254 
L 94.988973 47.243105 
L 89.313704 58.997927 
L 90.392531 55.250608 
L 93.287873 46.393333 
L 87.209886 60.154151 
L 90.918697 47.537456 
L 88.44621 53.569532 
L 81.938319 74.496755 
L 88.095341 51.112751 
L 86.910249 53.687524 
L 81.255767 76.053489 
L 85.34718 56.440793 
L 85.513768 53.3546 
L 82.827435 65.83278 
L 82.303152 67.506323 
L 84.188698 52.46817 
L 83.110219 57.229719 
L 80.589053 77.339554 
L 82.751109 52.035095 
L 82.084256 54.477935 
L 80.399365 78.002374 
L 81.269121 51.955285 
L 80.749363 53.390211 
L 80.28 78.138135 
L 79.815567 53.672633 
L 79.374737 54.356661 
L 80.241514 79.545651 
L 78.847482 59.794031 
L 78.51853 60.146304 
L 80.022193 77.827126 
L 79.632055 75.002908 
L 79.874843 77.397156 
L 77.248869 61.142194 
L 77.219776 62.92461 
L 78.972991 73.55602 
L 74.677278 53.921266 
L 74.074041 53.399037 
L 74.731817 58.027455 
L 72.631304 51.734676 
L 72.027724 51.500895 
L 73 56.468192 
L 71.574522 53.487292 
L 71.205225 53.924941 
L 73.563608 61.826864 
L 73.763912 63.305011 
L 74.19706 65.224196 
L 80.2615 80.238447 
L 79.223532 78.014396 
L 74.274224 67.966334 
L 73.247987 66.478898 
L 75.055861 70.454823 
L 69.802955 61.37891 
L 68.962714 60.677886 
L 72.501668 67.334681 
L 72.084028 67.163703 
L 69.907352 64.307523 
L 73.946087 70.889588 
L 77.401368 76.168888 
L 73.221842 70.913507 
L 74.430311 73.056236 
L 71.058526 69.290275 
L 70.011012 68.466881 
L 73.253887 72.476711 
L 72.772173 72.228841 
L 69.195559 68.801726 
L 71.654167 71.654167 
L 77.314458 77.416209 
L 66.668292 68.023963 
L 64.06484 66.184377 
L 71.692168 73.073954 
L 79.089711 79.316123 
L 62.580423 66.451575 
L 58.072372 63.545352 
L 59.583703 65.24326 
L 65.778838 70.126177 
L 64.548397 69.6689 
L 55.618376 64.264554 
L 50.034939 61.380788 
L 49.457976 61.76026 
L 53.449752 64.789549 
L 53.14225 65.237299 
L 48.722873 63.500778 
L 46.222596 62.926886 
L 44.714724 62.933656 
L 46.390316 64.476981 
L 58.020559 70.831428 
L 55.403135 70.229094 
L 60.492784 72.684399 
L 74.826307 78.295018 
L 51.515046 70.9337 
L 46.238451 69.872454 
L 47.992659 71.021754 
L 51.994978 72.701051 
L 54.078545 73.747243 
L 75.146392 79.188818 
L 68.034461 77.899708 
L 79.665378 80.171626 
L 56.034888 76.439952 
L 53.462167 76.510999 
L 56.574831 77.369371 
L 52.479636 77.358064 
L 53.795282 77.962887 
L 57.531179 78.689247 
L 53.031963 78.851991 
L 54.09911 79.365743 
L 52.321539 79.791983 
L 48.983376 80.28 
L 52.321539 80.768017 
L 54.09911 81.194257 
L 53.031963 81.708009 
L 57.531179 81.870753 
L 53.795282 82.597113 
L 52.479636 83.201936 
L 56.574831 83.190629 
L 53.462167 84.049001 
L 56.034888 84.120048 
L 79.665378 80.388374 
L 68.034461 82.660292 
L 75.146392 81.371182 
L 54.078545 86.812757 
L 51.994978 87.858949 
L 47.992659 89.538246 
L 46.238451 90.687546 
L 51.515046 89.6263 
L 74.826307 82.264982 
L 60.492784 87.875601 
L 55.403135 90.330906 
L 58.020559 89.728572 
L 53.96607 91.995717 
L 46.390316 96.083019 
L 44.714724 97.626344 
L 46.222596 97.633114 
L 48.722873 97.059222 
L 53.14225 95.322701 
L 53.449752 95.770451 
L 49.457976 98.79974 
L 50.034939 99.179212 
L 55.618376 96.295446 
L 64.548397 90.8911 
L 65.778838 90.433823 
L 59.583703 95.31674 
L 58.072372 97.014648 
L 62.580423 94.108425 
L 79.089711 81.243877 
L 71.692168 87.486046 
L 64.06484 94.375623 
L 66.668292 92.536037 
L 77.314458 83.143791 
L 71.654167 88.905833 
L 69.195559 91.758274 
L 72.772173 88.331159 
L 73.253887 88.083289 
L 70.011012 92.093119 
L 71.058526 91.269725 
L 74.430311 87.503764 
L 73.221842 89.646493 
L 77.401368 84.391112 
L 73.946087 89.670412 
L 69.907352 96.252477 
L 72.084028 93.396297 
L 72.501668 93.225319 
L 68.962714 99.882114 
L 69.802955 99.18109 
L 75.055861 90.105177 
L 73.247987 94.081102 
L 74.274224 92.593666 
L 80.2615 80.321553 
L 79.137621 82.971277 
L 74.19706 95.335804 
L 73.763912 97.254989 
L 73.563608 98.733136 
L 71.205225 106.635059 
L 71.574522 107.072708 
L 73 104.091808 
L 72.027724 109.059105 
L 72.631304 108.825324 
L 74.731817 102.532545 
L 74.074041 107.160963 
L 74.677278 106.638734 
L 78.972991 87.00398 
L 77.219776 97.63539 
L 77.248869 99.417806 
L 79.874843 83.162844 
L 79.632055 85.557092 
L 80.022193 82.732874 
L 78.51853 100.413696 
L 78.847482 100.765969 
L 80.241514 81.014349 
L 79.374737 106.203339 
L 79.815567 106.887367 
L 80.28 82.421865 
L 80.749363 107.169789 
L 81.269121 108.604715 
L 80.399365 82.557626 
L 82.084256 106.082065 
L 82.751109 108.524905 
L 80.589053 83.220446 
L 83.110219 103.330281 
L 84.188698 108.09183 
L 82.303152 93.053677 
L 82.827435 94.72722 
L 85.513768 107.2054 
L 85.34718 104.119207 
L 81.255767 84.506511 
L 86.910249 106.872476 
L 88.095341 109.447249 
L 81.938319 86.063245 
L 88.44621 106.990468 
L 90.918697 113.022544 
L 87.209886 100.405849 
L 93.287873 114.166667 
L 90.392531 105.309392 
L 89.313704 101.562073 
L 94.988973 113.316895 
L 92.584342 106.666746 
L 89.802961 99.804964 
L 96.511429 112.135973 
L 94.42451 106.881954 
L 91.697775 100.878211 
L 98.595245 112.002935 
L 97.03723 108.168715 
L 92.335725 99.573193 
L 100.774534 111.838816 
L 100.584969 110.383355 
L 92.541518 97.791262 
L 101.928919 110.077181 
L 103.607771 111.236998 
L 97.011708 101.695609 
L 102.631137 107.881356 
L 105.764134 110.650808 
L 100.475856 103.512675 
L 104.5691 107.255779 
L 108.657317 110.710947 
L 103.688819 104.520542 
L 105.638179 105.638179 
L 111.69556 110.617653 
L 106.078835 103.509376 
L 113.451889 109.115883 
L 112.151062 107.022997 
L 108.314655 102.982016 
L 115.47553 107.777762 
L 115.468178 106.796194 
L 109.225852 101.310393 
L 116.239736 105.459278 
L 118.719675 106.207888 
L 113.542103 101.880662 
L 115.554549 102.321985 
L 120.393991 104.382918 
L 115.358471 99.724314 
L 122.236251 102.588535 
L 123.074015 102.08464 
L 118.441544 98.892629 
L 126.015475 100.642745 
L 121.526991 96.944866 
L 126.821499 98.145608 
L 127.408209 97.433265 
L 122.2861 94.74386 
L 122.134104 93.879223 
L 127.533782 94.726931 
L 128.209781 94.023644 
L 124.394031 92.100319 
L 126.474428 91.797565 
L 132.362015 92.304081 
L 132.484285 91.376363 
L 126.503566 89.264951 
L 124.887479 88.145502 
L 130.096803 88.170206 
L 132.868574 87.670842 
L 132.40862 86.68059 
L 126.997956 85.190255 
L 133.988321 84.978869 
L 140.2508 84.473567 
L 136.834451 83.243893 
L 138.894525 82.326864 
L 150.361863 81.503283 
L 153.879771 80.28 
L 153.879771 80.28 
" clip-path="url(#pda3d95bbd8)" style="fill: none; stroke: #000000; stroke-width: 0.75; stroke-linecap: square"/>
   </g>
   <g id="line2d_10">
    <path d="M 153.774595 80.28 
L 150.23257 79.058973 
L 138.588996 78.243805 
L 136.733409 77.321402 
L 140.368379 76.078211 
L 134.306206 75.553319 
L 127.011067 75.368367 
L 132.162964 73.909573 
L 132.707938 72.911734 
L 130.14736 72.381786 
L 125.219063 72.356031 
L 126.393714 71.316402 
L 132.317566 69.219074 
L 132.394145 68.248502 
L 126.721895 68.700735 
L 124.300836 68.484653 
L 128.026343 66.588957 
L 127.528279 65.834751 
L 122.315746 66.621758 
L 122.034631 65.902728 
L 127.266605 63.178274 
L 126.960404 62.361072 
L 121.686076 63.55086 
L 123.484289 61.940867 
L 126.281636 59.798752 
L 122.396149 60.640917 
L 118.325487 61.723976 
L 123.284729 58.367996 
L 122.563004 57.797728 
L 115.189176 60.929528 
L 120.650514 56.022948 
L 115.68296 58.157775 
L 113.00034 59.031163 
L 118.69038 54.371872 
L 116.258643 55.087483 
L 108.826004 59.540114 
L 115.586436 53.674692 
L 115.581081 52.699773 
L 108.109389 57.744205 
L 112.420237 53.311139 
L 113.575315 51.336824 
L 105.788314 57.312211 
L 108.952632 53.542338 
L 111.871015 49.772912 
L 105.477006 55.082994 
L 104.376826 55.327006 
L 108.909067 49.579084 
L 104.55591 53.31887 
L 100.675111 56.818108 
L 105.731361 49.948249 
L 102.36457 53.007828 
L 96.728584 59.226773 
L 103.441786 49.543272 
L 101.726118 50.761951 
L 91.795878 63.833622 
L 100.372454 50.491712 
L 100.692287 48.847834 
L 91.915987 61.658527 
L 96.942836 52.548384 
L 98.722228 48.337124 
L 91.810928 59.477655 
L 94.368315 53.783733 
L 96.702766 48.048507 
L 90.134716 60.074838 
L 92.639115 53.775792 
L 95.154171 46.872065 
L 89.60715 58.306611 
L 90.31741 55.436537 
L 93.319769 46.310241 
L 87.038545 60.651761 
L 90.815194 47.856006 
L 88.316401 53.994118 
L 82.010731 74.244224 
L 88.100671 51.092859 
L 86.970268 53.446802 
L 81.306816 75.83237 
L 85.397559 56.203776 
L 85.628209 52.765852 
L 82.939688 65.196159 
L 82.405488 66.860196 
L 84.246676 52.055634 
L 83.135868 57.02082 
L 80.61539 77.088981 
L 82.767561 51.847053 
L 82.095906 54.311328 
L 80.354413 78.860121 
L 81.267791 51.99338 
L 80.755944 53.013179 
L 80.28 78.997553 
L 79.824242 54.169638 
L 79.374173 54.340497 
L 80.226922 79.267202 
L 78.945996 61.202855 
L 78.689951 62.105654 
L 80.06294 78.214814 
L 79.652812 75.17196 
L 79.96024 78.004787 
L 77.093609 60.161922 
L 76.834293 60.738425 
L 78.897539 73.167852 
L 74.591482 53.517625 
L 74.006307 53.105649 
L 74.766131 58.165079 
L 72.619085 51.689076 
L 71.921319 51.129814 
L 73.209822 57.15449 
L 71.664073 53.762903 
L 71.170895 53.825237 
L 74.764549 65.126423 
L 75.207398 67.065419 
L 74.437649 65.819674 
L 80.088575 79.850053 
L 79.493221 78.592748 
L 73.596684 66.577171 
L 72.429274 64.872084 
L 76.150642 72.513806 
L 70.353695 62.372471 
L 69.386722 61.412289 
L 74.35348 70.416614 
L 73.237675 69.009924 
L 68.670717 62.403272 
L 70.607305 65.939639 
L 77.228191 75.921565 
L 71.499694 68.628141 
L 73.928847 72.150895 
L 77.249468 76.537604 
L 74.297705 73.150578 
L 70.63492 69.184604 
L 75.5462 75.203621 
L 69.367569 68.979847 
L 68.520208 68.520208 
L 76.792963 77.028286 
L 68.005537 69.228024 
L 64.335094 66.419305 
L 72.370458 73.643106 
L 79.228236 79.428298 
L 62.142379 66.109338 
L 57.673932 63.245106 
L 58.667764 64.577791 
L 63.276043 68.373701 
L 63.89829 69.230397 
L 55.063044 63.903917 
L 49.471926 61.028979 
L 49.434598 61.746213 
L 52.761633 64.392264 
L 52.489292 64.875359 
L 49.157479 63.731862 
L 46.086893 62.857742 
L 43.948068 62.559733 
L 46.197578 64.387105 
L 54.955366 69.004747 
L 55.535398 69.77654 
L 54.844467 70.003378 
L 61.332018 73.006551 
L 74.400364 78.255479 
L 50.984501 70.761315 
L 45.517976 69.652183 
L 47.92962 71.003678 
L 52.112588 72.732565 
L 53.223351 73.53402 
L 67.569907 77.345644 
L 75.383463 79.239209 
L 67.857903 77.865389 
L 79.303807 80.107871 
L 56.271159 76.477373 
L 53.971501 76.582582 
L 56.212201 77.324846 
L 52.133961 77.321732 
L 54.132057 77.992351 
L 57.885427 78.714019 
L 52.865209 78.843252 
L 54.512359 79.380174 
L 52.897927 79.802044 
L 49.23293 80.28 
L 52.977296 80.75657 
L 54.528272 81.17927 
L 52.814137 81.719425 
L 57.9175 81.843738 
L 54.226205 82.559412 
L 52.096241 83.242232 
L 56.161912 83.241329 
L 53.967417 83.977992 
L 56.225811 84.089809 
L 79.289758 80.454606 
L 67.912474 82.684004 
L 75.421484 81.312709 
L 67.813022 83.158229 
L 53.211052 87.029047 
L 52.087804 87.834076 
L 47.988011 89.539579 
L 45.57348 90.890848 
L 51.044965 89.779039 
L 74.298255 82.33968 
L 61.221074 87.596036 
L 54.807633 90.571504 
L 55.529503 90.785963 
L 54.876352 91.590433 
L 46.204608 96.169616 
L 43.933713 98.007269 
L 46.080713 97.705407 
L 49.163181 96.825106 
L 52.534162 95.659769 
L 52.763522 96.166646 
L 49.42501 98.819549 
L 49.448906 99.545406 
L 55.026458 96.679842 
L 64.063781 91.217978 
L 63.312487 92.160781 
L 58.60897 96.024925 
L 57.683122 97.307969 
L 62.164818 94.433131 
L 79.266928 81.10037 
L 72.364207 86.922139 
L 64.324478 94.149924 
L 67.617701 91.681185 
L 76.500742 83.804215 
L 75.911378 84.49873 
L 68.46225 92.09775 
L 69.259807 91.691744 
L 75.507228 85.398171 
L 70.168233 91.912258 
L 74.056926 87.69637 
L 77.201953 84.081072 
L 73.756979 88.629087 
L 71.354977 92.123906 
L 77.334789 84.486197 
L 70.741556 94.421325 
L 68.711569 98.093821 
L 73.423097 91.253338 
L 74.488788 89.918196 
L 69.350622 99.210239 
L 70.234451 98.40265 
L 76.004684 88.3207 
L 72.418146 95.709758 
L 73.49696 94.187294 
L 80.091893 80.702495 
L 78.618045 84.195321 
L 74.438746 94.737612 
L 75.165456 93.603843 
L 74.579095 95.943107 
L 71.14552 106.808455 
L 71.648 106.846563 
L 73.149596 103.6025 
L 71.907747 109.477516 
L 72.617367 108.877335 
L 74.742496 102.489716 
L 73.973376 107.596991 
L 74.581856 107.08766 
L 78.9025 87.366621 
L 76.82316 99.884714 
L 77.087811 100.434691 
L 79.941326 82.689794 
L 79.646164 85.44218 
L 80.049633 82.471792 
L 78.687598 98.481238 
L 78.931538 99.563901 
L 80.231027 81.214467 
L 79.377929 106.111929 
L 79.825442 106.321607 
L 80.28 81.610139 
L 80.754641 107.472193 
L 81.26378 108.451779 
L 80.348735 81.591539 
L 82.096114 106.251641 
L 82.765673 108.691377 
L 80.622908 83.542554 
L 83.128171 103.476495 
L 84.240876 108.463098 
L 82.374408 93.503573 
L 82.966951 95.518457 
L 85.614914 107.725751 
L 85.380732 104.277056 
L 81.299724 84.696911 
L 86.963219 107.084926 
L 88.102351 109.473412 
L 82.050734 86.455284 
L 88.308408 106.539738 
L 90.819179 112.716259 
L 87.034879 99.897593 
L 93.295522 114.186594 
L 90.281634 105.034914 
L 89.646324 102.345677 
L 95.164508 113.711153 
L 92.595801 106.691321 
L 90.183559 100.585305 
L 96.721304 112.547877 
L 94.389112 106.815381 
L 91.888316 101.221956 
L 98.756423 112.282103 
L 96.952369 108.027481 
L 91.937722 98.936254 
L 100.721552 111.75723 
L 100.4063 110.118466 
L 91.780638 96.704613 
L 101.714131 109.78155 
L 103.434002 111.006399 
L 96.759536 101.372844 
L 102.402166 107.598599 
L 105.734908 110.615978 
L 100.643934 103.706026 
L 104.524981 107.20678 
L 108.898438 110.969517 
L 104.368982 105.224872 
L 105.527844 105.527844 
L 111.880747 110.796487 
L 108.978969 107.042222 
L 105.800851 103.259077 
L 113.556521 109.206838 
L 112.377839 107.213285 
L 108.097161 102.805893 
L 115.586105 107.864152 
L 115.582282 106.882178 
L 108.797277 100.999014 
L 116.246456 105.463983 
L 118.684714 106.184307 
L 112.999087 101.528024 
L 115.679415 102.40001 
L 120.627815 104.523413 
L 115.229634 99.652898 
L 122.58638 102.774701 
L 123.275291 102.187195 
L 118.305758 98.826401 
L 122.403245 99.922392 
L 126.292544 100.766104 
L 123.474034 98.61478 
L 121.663452 97 
L 126.963844 98.200249 
L 127.281831 97.387268 
L 122.029116 94.655373 
L 122.293984 93.931171 
L 127.539645 94.728723 
L 128.051837 93.978354 
L 124.295629 92.073952 
L 126.71448 91.857416 
L 132.40773 92.314635 
L 132.334795 91.344588 
L 126.379825 89.240898 
L 125.199756 88.200565 
L 130.155524 88.179507 
L 132.717452 87.649603 
L 132.148075 86.648599 
L 126.998606 85.190323 
L 134.310485 85.007055 
L 140.368683 84.48181 
L 136.720823 83.237938 
L 138.584605 82.316042 
L 150.233372 81.501041 
L 153.774555 80.28 
L 153.774555 80.28 
" clip-path="url(#pda3d95bbd8)" style="fill: none; stroke-dasharray: 2.775,1.2; stroke-dashoffset: 0; stroke: #ff0000; stroke-width: 0.75"/>
   </g>
   <g id="line2d_11">
    <path d="M 53.042679 103.134826 
L 54.885956 105.16689 
L 56.880426 107.05078 
L 59.014213 108.775281 
L 61.274614 110.330126 
L 63.64817 111.706056 
L 66.12075 112.89488 
L 68.677631 113.889519 
L 71.303592 114.684053 
L 73.982997 115.273749 
L 76.699893 115.655098 
L 79.438105 115.825829 
L 82.181329 115.784925 
L 84.913233 115.53263 
L 87.617552 115.070445 
L 90.278184 114.401124 
L 92.879288 113.52865 
L 95.405377 112.458218 
L 97.841412 111.196202 
L 98.057899 111.072224 
L 98.057899 111.072224 
" clip-path="url(#pda3d95bbd8)" style="fill: none; stroke-dasharray: 1.2,1.98; stroke-dashoffset: 0; stroke: #808080; stroke-width: 1.2"/>
   </g>
   <g id="line2d_12">
    <path d="M 80.28 80.28 
L 53.042679 103.134826 
" clip-path="url(#pda3d95bbd8)" style="fill: none; stroke-dasharray: 1.2,1.98; stroke-dashoffset: 0; stroke: #808080; stroke-width: 1.2"/>
   </g>
   <g id="line2d_13">
    <path d="M 80.28 80.28 
L 98.057899 111.072224 
" clip-path="url(#pda3d95bbd8)" style="fill: none; stroke-dasharray: 1.2,1.98; stroke-dashoffset: 0; stroke: #808080; stroke-width: 1.2"/>
   </g>
   <g id="patch_3">
    <path d="M 157.55976 80.28 
C 157.55976 70.131715 155.560769 60.082109 151.677189 50.706316 
C 147.793608 41.330523 142.100964 32.810879 134.925042 25.634958 
C 127.749121 18.459036 119.229477 12.766392 109.853684 8.882811 
C 100.477891 4.999231 90.428285 3.00024 80.28 3.00024 
C 70.131715 3.00024 60.082109 4.999231 50.706316 8.882811 
C 41.330523 12.766392 32.810879 18.459036 25.634958 25.634958 
C 18.459036 32.810879 12.766392 41.330523 8.882811 50.706316 
C 4.999231 60.082109 3.00024 70.131715 3.00024 80.28 
C 3.00024 90.428285 4.999231 100.477891 8.882811 109.853684 
C 12.766392 119.229477 18.459036 127.749121 25.634958 134.925042 
C 32.810879 142.100964 41.330523 147.793608 50.706316 151.677189 
C 60.082109 155.560769 70.131715 157.55976 80.28 157.55976 
C 90.428285 157.55976 100.477891 155.560769 109.853684 151.677189 
C 119.229477 147.793608 127.749121 142.100964 134.925042 134.925042 
C 142.100964 127.749121 147.793608 119.229477 151.677189 109.853684 
C 155.560769 100.477891 157.55976 90.428285 157.55976 80.28 
" style="fill: none; stroke: #000000; stroke-width: 0.8; stroke-linejoin: miter; stroke-linecap: square"/>
   </g>
  </g>
  <g id="axes_2">
   <g id="patch_4">
    <path d="M 32.366549 146.833331 
L 109.646309 146.833331 
L 109.646309 115.921427 
L 32.366549 115.921427 
z
" style="fill: #ffffff"/>
   </g>
   <g id="matplotlib.axis_3">
    <g id="xtick_5">
     <g id="line2d_14">
      <path d="M 35.879265 146.833331 
L 35.879265 115.921427 
" clip-path="url(#pf2175dc15e)" style="fill: none; stroke: #b0b0b0; stroke-width: 0.8; stroke-linecap: square"/>
     </g>
     <g id="line2d_15">
      <defs>
       <path id="m8b32ba3918" d="M 0 0 
L 0 3.5 
" style="stroke: #000000; stroke-width: 0.8"/>
      </defs>
      <g>
       <use xlink:href="#m8b32ba3918" x="35.879265" y="146.833331" style="stroke: #000000; stroke-width: 0.8"/>
      </g>
     </g>
     <g id="text_9">
      <!-- $11\pi/9$ -->
      <g transform="translate(25.426915 159.063717) scale(0.07 -0.07)">
       <defs>
        <path id="CMR17-39" d="M 2253 1871 
C 2253 448 1670 25 1190 25 
C 1043 25 685 43 538 281 
C 704 256 826 345 826 505 
C 826 678 685 736 595 736 
C 538 736 365 710 365 492 
C 365 68 742 -128 1203 -128 
C 1939 -128 2688 665 2688 2090 
C 2688 3857 1971 4224 1485 4224 
C 851 4224 243 3664 243 2800 
C 243 2000 762 1408 1414 1408 
C 1952 1408 2189 1910 2253 2122 
L 2253 1871 
z
M 1427 1510 
C 1254 1510 1011 1542 813 1929 
C 678 2181 678 2477 678 2793 
C 678 3174 678 3438 858 3722 
C 947 3857 1114 4076 1485 4076 
C 2240 4076 2240 2909 2240 2651 
C 2240 2193 2035 1510 1427 1510 
z
" transform="scale(0.015625)"/>
       </defs>
       <use xlink:href="#CMR17-31" transform="scale(0.996264)"/>
       <use xlink:href="#CMR17-31" transform="translate(45.690477 0) scale(0.996264)"/>
       <use xlink:href="#CMMI12-19" transform="translate(91.380954 0) scale(0.996264)"/>
       <use xlink:href="#CMMI12-3d" transform="translate(150.291555 0) scale(0.996264)"/>
       <use xlink:href="#CMR17-39" transform="translate(199.066474 0) scale(0.996264)"/>
      </g>
     </g>
    </g>
    <g id="xtick_6">
     <g id="line2d_16">
      <path d="M 106.133592 146.833331 
L 106.133592 115.921427 
" clip-path="url(#pf2175dc15e)" style="fill: none; stroke: #b0b0b0; stroke-width: 0.8; stroke-linecap: square"/>
     </g>
     <g id="line2d_17">
      <g>
       <use xlink:href="#m8b32ba3918" x="106.133592" y="146.833331" style="stroke: #000000; stroke-width: 0.8"/>
      </g>
     </g>
     <g id="text_10">
      <!-- $5\pi/3$ -->
      <g transform="translate(97.666861 159.063717) scale(0.07 -0.07)">
       <use xlink:href="#CMR17-35" transform="scale(0.996264)"/>
       <use xlink:href="#CMMI12-19" transform="translate(45.690477 0) scale(0.996264)"/>
       <use xlink:href="#CMMI12-3d" transform="translate(104.601078 0) scale(0.996264)"/>
       <use xlink:href="#CMR17-33" transform="translate(153.375997 0) scale(0.996264)"/>
      </g>
     </g>
    </g>
   </g>
   <g id="matplotlib.axis_4">
    <g id="ytick_6">
     <g id="line2d_18">
      <path d="M 32.366549 145.435743 
L 109.646309 145.435743 
" clip-path="url(#pf2175dc15e)" style="fill: none; stroke: #b0b0b0; stroke-width: 0.8; stroke-linecap: square"/>
     </g>
     <g id="line2d_19">
      <defs>
       <path id="ma0410f8512" d="M 0 0 
L -3.5 0 
" style="stroke: #000000; stroke-width: 0.8"/>
      </defs>
      <g>
       <use xlink:href="#ma0410f8512" x="32.366549" y="145.435743" style="stroke: #000000; stroke-width: 0.8"/>
      </g>
     </g>
    </g>
    <g id="ytick_7">
     <g id="line2d_20">
      <path d="M 32.366549 129.040808 
L 109.646309 129.040808 
" clip-path="url(#pf2175dc15e)" style="fill: none; stroke: #b0b0b0; stroke-width: 0.8; stroke-linecap: square"/>
     </g>
     <g id="line2d_21">
      <g>
       <use xlink:href="#ma0410f8512" x="32.366549" y="129.040808" style="stroke: #000000; stroke-width: 0.8"/>
      </g>
     </g>
    </g>
   </g>
   <g id="line2d_22">
    <path d="M 35.879265 143.587673 
L 36.76856 141.410309 
L 37.657856 142.416292 
L 38.547151 144.401649 
L 39.436446 144.756134 
L 40.325742 143.424777 
L 41.215037 142.805286 
L 42.104332 143.620981 
L 42.993627 143.704759 
L 43.882923 142.855424 
L 44.772218 143.070795 
L 45.661513 143.903422 
L 46.550809 143.72741 
L 47.440104 143.502363 
L 48.329399 144.208164 
L 49.218694 144.608404 
L 50.10799 143.568507 
L 50.997285 142.296177 
L 51.88658 142.886099 
L 52.775876 142.946107 
L 53.665171 140.76902 
L 54.554466 141.344886 
L 55.443761 143.601342 
L 56.333057 142.882327 
L 57.222352 143.177265 
L 58.111647 145.023648 
L 59.000942 145.428245 
L 59.890238 144.953772 
L 60.779533 142.758876 
L 61.668828 142.438331 
L 62.558124 142.198516 
L 63.447419 136.280476 
L 64.336714 135.922909 
L 65.226009 139.190491 
L 66.115305 133.494864 
L 67.0046 134.074106 
L 67.893895 140.585921 
L 68.783191 136.610707 
L 69.672486 137.30854 
L 70.561781 144.306549 
L 71.451076 142.530572 
L 72.340372 142.241551 
L 73.229667 144.955836 
L 74.118962 144.559282 
L 75.008258 145.029159 
L 75.897553 142.019038 
L 76.786848 141.873005 
L 77.676143 145.314519 
L 78.565439 138.297232 
L 79.454734 137.652481 
L 80.344029 145.082657 
L 81.233325 137.364502 
L 82.12262 135.712034 
L 83.011915 145.059761 
L 83.90121 138.364919 
L 84.790506 135.698498 
L 85.679801 144.948341 
L 86.569096 140.401856 
L 87.458392 136.028002 
L 88.347687 143.303755 
L 89.236982 143.01738 
L 90.126277 136.78901 
L 91.015573 139.600563 
L 91.904868 144.720676 
L 92.794163 136.814316 
L 93.683458 133.093115 
L 94.572754 144.443955 
L 95.462049 136.212798 
L 96.351344 124.16532 
L 97.24064 141.512432 
L 98.129935 137.705373 
L 99.01923 118.381533 
L 99.908525 137.258771 
L 100.797821 140.468351 
L 101.687116 118.844345 
L 102.576411 134.696136 
L 103.465707 141.285059 
L 104.355002 120.212245 
L 105.244297 133.199939 
L 106.133592 140.185165 
" clip-path="url(#pf2175dc15e)" style="fill: none; stroke: #000000; stroke-width: 0.75; stroke-linecap: square"/>
   </g>
   <g id="line2d_23">
    <path d="M 35.879265 143.732294 
L 36.76856 141.58455 
L 37.657856 142.626898 
L 38.547151 144.583884 
L 39.436446 144.434593 
L 40.325742 142.680636 
L 41.215037 142.820532 
L 42.104332 144.282088 
L 42.993627 143.806359 
L 43.882923 142.894929 
L 44.772218 143.839768 
L 45.661513 144.629451 
L 46.550809 143.689134 
L 47.440104 142.990989 
L 48.329399 144.083039 
L 49.218694 144.589268 
L 50.10799 142.623812 
L 50.997285 141.535059 
L 51.88658 143.302664 
L 52.775876 143.582131 
L 53.665171 141.212224 
L 54.554466 141.787393 
L 55.443761 143.934511 
L 56.333057 142.581 
L 57.222352 142.884974 
L 58.111647 145.113924 
L 59.000942 145.359503 
L 59.890238 144.734562 
L 60.779533 142.865232 
L 61.668828 143.083043 
L 62.558124 142.68797 
L 63.447419 136.061955 
L 64.336714 136.209451 
L 65.226009 139.588274 
L 66.115305 132.807268 
L 67.0046 133.995143 
L 67.893895 140.613378 
L 68.783191 136.087845 
L 69.672486 136.814326 
L 70.561781 144.245649 
L 71.451076 142.149829 
L 72.340372 141.932115 
L 73.229667 145.034585 
L 74.118962 144.578367 
L 75.008258 145.072436 
L 75.897553 142.423809 
L 76.786848 142.249031 
L 77.676143 145.281485 
L 78.565439 138.380723 
L 79.454734 138.198835 
L 80.344029 145.21647 
L 81.233325 137.044324 
L 82.12262 135.901556 
L 83.011915 145.219239 
L 83.90121 138.208614 
L 84.790506 135.486938 
L 85.679801 144.894949 
L 86.569096 140.305565 
L 87.458392 135.563212 
L 88.347687 143.228665 
L 89.236982 142.884932 
L 90.126277 136.178892 
L 91.015573 139.478178 
L 91.904868 144.688463 
L 92.794163 136.568061 
L 93.683458 133.050039 
L 94.572754 144.376723 
L 95.462049 136.755316 
L 96.351344 125.028406 
L 97.24064 141.774528 
L 98.129935 137.506381 
L 99.01923 118.307156 
L 99.908525 137.564273 
L 100.797821 139.893554 
L 101.687116 117.326514 
L 102.576411 134.658614 
L 103.465707 140.79467 
L 104.355002 118.666924 
L 105.244297 133.318029 
L 106.133592 139.912915 
" clip-path="url(#pf2175dc15e)" style="fill: none; stroke-dasharray: 2.775,1.2; stroke-dashoffset: 0; stroke: #ff0000; stroke-width: 0.75"/>
   </g>
   <g id="patch_5">
    <path d="M 32.366549 146.833331 
L 32.366549 115.921427 
" style="fill: none; stroke: #000000; stroke-width: 0.8; stroke-linejoin: miter; stroke-linecap: square"/>
   </g>
   <g id="patch_6">
    <path d="M 109.646309 146.833331 
L 109.646309 115.921427 
" style="fill: none; stroke: #000000; stroke-width: 0.8; stroke-linejoin: miter; stroke-linecap: square"/>
   </g>
   <g id="patch_7">
    <path d="M 32.366549 146.833331 
L 109.646309 146.833331 
" style="fill: none; stroke: #000000; stroke-width: 0.8; stroke-linejoin: miter; stroke-linecap: square"/>
   </g>
   <g id="patch_8">
    <path d="M 32.366549 115.921427 
L 109.646309 115.921427 
" style="fill: none; stroke: #000000; stroke-width: 0.8; stroke-linejoin: miter; stroke-linecap: square"/>
   </g>
  </g>
 </g>
 <defs>
  <clipPath id="pda3d95bbd8">
   <path d="M 157.55976 80.28 
C 157.55976 70.131715 155.560769 60.082109 151.677189 50.706316 
C 147.793608 41.330523 142.100964 32.810879 134.925042 25.634958 
C 127.749121 18.459036 119.229477 12.766392 109.853684 8.882811 
C 100.477891 4.999231 90.428285 3.00024 80.28 3.00024 
C 70.131715 3.00024 60.082109 4.999231 50.706316 8.882811 
C 41.330523 12.766392 32.810879 18.459036 25.634958 25.634958 
C 18.459036 32.810879 12.766392 41.330523 8.882811 50.706316 
C 4.999231 60.082109 3.00024 70.131715 3.00024 80.28 
C 3.00024 90.428285 4.999231 100.477891 8.882811 109.853684 
C 12.766392 119.229477 18.459036 127.749121 25.634958 134.925042 
C 32.810879 142.100964 41.330523 147.793608 50.706316 151.677189 
C 60.082109 155.560769 70.131715 157.55976 80.28 157.55976 
C 90.428285 157.55976 100.477891 155.560769 109.853684 151.677189 
C 119.229477 147.793608 127.749121 142.100964 134.925042 134.925042 
C 142.100964 127.749121 147.793608 119.229477 151.677189 109.853684 
C 155.560769 100.477891 157.55976 90.428285 157.55976 80.28 
M 80.28 80.28 
C 80.28 80.28 80.28 80.28 80.28 80.28 
C 80.28 80.28 80.28 80.28 80.28 80.28 
C 80.28 80.28 80.28 80.28 80.28 80.28 
C 80.28 80.28 80.28 80.28 80.28 80.28 
C 80.28 80.28 80.28 80.28 80.28 80.28 
C 80.28 80.28 80.28 80.28 80.28 80.28 
C 80.28 80.28 80.28 80.28 80.28 80.28 
C 80.28 80.28 80.28 80.28 80.28 80.28 
C 80.28 80.28 80.28 80.28 80.28 80.28 
C 80.28 80.28 80.28 80.28 80.28 80.28 
C 80.28 80.28 80.28 80.28 80.28 80.28 
C 80.28 80.28 80.28 80.28 80.28 80.28 
C 80.28 80.28 80.28 80.28 80.28 80.28 
C 80.28 80.28 80.28 80.28 80.28 80.28 
C 80.28 80.28 80.28 80.28 80.28 80.28 
C 80.28 80.28 80.28 80.28 80.28 80.28 
M 157.55976 80.28 
z
"/>
  </clipPath>
  <clipPath id="pf2175dc15e">
   <rect x="32.366549" y="115.921427" width="77.27976" height="30.911904"/>
  </clipPath>
 </defs>
</svg>
