<?xml version="1.0" encoding="utf-8" standalone="no"?>
<!DOCTYPE svg PUBLIC "-//W3C//DTD SVG 1.1//EN"
  "http://www.w3.org/Graphics/SVG/1.1/DTD/svg11.dtd">
<svg xmlns:xlink="http://www.w3.org/1999/xlink" width="160.56pt" height="160.56pt" viewBox="0 0 160.56 160.56" xmlns="http://www.w3.org/2000/svg" version="1.1">
 <metadata>
  <rdf:RDF xmlns:dc="http://purl.org/dc/elements/1.1/" xmlns:cc="http://creativecommons.org/ns#" xmlns:rdf="http://www.w3.org/1999/02/22-rdf-syntax-ns#">
   <cc:Work>
    <dc:type rdf:resource="http://purl.org/dc/dcmitype/StillImage"/>
    <dc:date>2025-09-22T21:52:08.949481</dc:date>
    <dc:format>image/svg+xml</dc:format>
    <dc:creator>
     <cc:Agent>
      <dc:title>Matplotlib v3.6.3, https://matplotlib.org/</dc:title>
     </cc:Agent>
    </dc:creator>
   </cc:Work>
  </rdf:RDF>
 </metadata>
 <defs>
  <style type="text/css">*{stroke-linejoin: round; stroke-linecap: butt}</style>
 </defs>
 <g id="figure_1">
  <g id="patch_1">
   <path d="M 0 160.56 
L 160.56 160.56 
L 160.56 0 
L 0 0 
z
" style="fill: #ffffff"/>
  </g>
  <g id="axes_1">
   <g id="patch_2">
    <path d="M 157.55976 80.28 
C 157.55976 70.131715 155.560769 60.082109 151.677189 50.706316 
C 147.793608 41.330523 142.100964 32.810879 134.925042 25.634958 
C 127.749121 18.459036 119.229477 12.766392 109.853684 8.882811 
C 100.477891 4.999231 90.428285 3.00024 80.28 3.00024 
C 70.131715 3.00024 60.082109 4.999231 50.706316 8.882811 
C 41.330523 12.766392 32.810879 18.459036 25.634958 25.634958 
C 18.459036 32.810879 12.766392 41.330523 8.882811 50.706316 
C 4.999231 60.082109 3.00024 70.131715 3.00024 80.28 
C 3.00024 90.428285 4.999231 100.477891 8.882811 109.853684 
C 12.766392 119.229477 18.459036 127.749121 25.634958 134.925042 
C 32.810879 142.100964 41.330523 147.793608 50.706316 151.677189 
C 60.082109 155.560769 70.131715 157.55976 80.28 157.55976 
C 90.428285 157.55976 100.477891 155.560769 109.853684 151.677189 
C 119.229477 147.793608 127.749121 142.100964 134.925042 134.925042 
C 142.100964 127.749121 147.793608 119.229477 151.677189 109.853684 
C 155.560769 100.477891 157.55976 90.428285 157.55976 80.28 
M 80.28 80.28 
C 80.28 80.28 80.28 80.28 80.28 80.28 
C 80.28 80.28 80.28 80.28 80.28 80.28 
C 80.28 80.28 80.28 80.28 80.28 80.28 
C 80.28 80.28 80.28 80.28 80.28 80.28 
C 80.28 80.28 80.28 80.28 80.28 80.28 
C 80.28 80.28 80.28 80.28 80.28 80.28 
C 80.28 80.28 80.28 80.28 80.28 80.28 
C 80.28 80.28 80.28 80.28 80.28 80.28 
C 80.28 80.28 80.28 80.28 80.28 80.28 
C 80.28 80.28 80.28 80.28 80.28 80.28 
C 80.28 80.28 80.28 80.28 80.28 80.28 
C 80.28 80.28 80.28 80.28 80.28 80.28 
C 80.28 80.28 80.28 80.28 80.28 80.28 
C 80.28 80.28 80.28 80.28 80.28 80.28 
C 80.28 80.28 80.28 80.28 80.28 80.28 
C 80.28 80.28 80.28 80.28 80.28 80.28 
M 157.55976 80.28 
z
" style="fill: #ffffff"/>
   </g>
   <g id="matplotlib.axis_1">
    <g id="xtick_1">
     <g id="line2d_1">
      <path d="M 80.28 80.28 
L 134.925042 25.634958 
" clip-path="url(#p46f1354599)" style="fill: none; stroke: #b0b0b0; stroke-width: 0.8; stroke-linecap: square"/>
     </g>
     <g id="text_1">
      <!-- $\pi/4$ -->
      <g transform="translate(136.824995 18.226123) scale(0.1 -0.1)">
       <defs>
        <path id="CMMI12-19" d="M 1658 2406 
L 2381 2406 
C 2208 1691 2099 1225 2099 715 
C 2099 625 2099 -64 2362 -64 
C 2496 -64 2611 57 2611 166 
C 2611 198 2611 210 2566 306 
C 2394 746 2394 1295 2394 1340 
C 2394 1378 2394 1832 2528 2406 
L 3245 2406 
C 3328 2406 3539 2406 3539 2611 
C 3539 2752 3418 2752 3302 2752 
L 1197 2752 
C 1050 2752 832 2752 538 2438 
C 371 2253 166 1915 166 1876 
C 166 1838 198 1825 237 1825 
C 282 1825 288 1844 320 1883 
C 653 2406 986 2406 1146 2406 
L 1510 2406 
C 1370 1927 1210 1372 685 255 
C 634 153 634 140 634 102 
C 634 -32 749 -64 806 -64 
C 992 -64 1043 102 1120 370 
C 1222 695 1222 708 1286 964 
L 1658 2406 
z
" transform="scale(0.015625)"/>
        <path id="CMMI12-3d" d="M 2746 4563 
C 2746 4569 2784 4665 2784 4678 
C 2784 4755 2720 4800 2669 4800 
C 2637 4800 2579 4800 2528 4659 
L 384 -1364 
C 384 -1370 346 -1466 346 -1479 
C 346 -1556 410 -1600 461 -1600 
C 499 -1600 557 -1594 602 -1460 
L 2746 4563 
z
" transform="scale(0.015625)"/>
        <path id="CMR17-34" d="M 2150 4147 
C 2150 4281 2144 4288 2029 4288 
L 128 1254 
L 128 1088 
L 1779 1088 
L 1779 460 
C 1779 230 1766 166 1318 166 
L 1197 166 
L 1197 0 
C 1402 12 1747 12 1965 12 
C 2182 12 2528 12 2733 0 
L 2733 166 
L 2611 166 
C 2163 166 2150 230 2150 460 
L 2150 1088 
L 2803 1088 
L 2803 1254 
L 2150 1254 
L 2150 4147 
z
M 1798 3723 
L 1798 1254 
L 256 1254 
L 1798 3723 
z
" transform="scale(0.015625)"/>
       </defs>
       <use xlink:href="#CMMI12-19" transform="scale(0.996264)"/>
       <use xlink:href="#CMMI12-3d" transform="translate(58.910601 0) scale(0.996264)"/>
       <use xlink:href="#CMR17-34" transform="translate(107.68552 0) scale(0.996264)"/>
      </g>
     </g>
    </g>
    <g id="xtick_2">
     <g id="line2d_2">
      <path d="M 80.28 80.28 
L 25.634958 25.634958 
" clip-path="url(#p46f1354599)" style="fill: none; stroke: #b0b0b0; stroke-width: 0.8; stroke-linecap: square"/>
     </g>
     <g id="text_2">
      <!-- $3\pi/4$ -->
      <g transform="translate(5.245252 18.226123) scale(0.1 -0.1)">
       <defs>
        <path id="CMR17-33" d="M 1414 2176 
C 1984 2176 2234 1673 2234 1094 
C 2234 322 1824 25 1453 25 
C 1114 25 563 193 390 691 
C 422 678 454 678 486 678 
C 640 678 755 780 755 947 
C 755 1132 614 1216 486 1216 
C 378 1216 211 1164 211 927 
C 211 335 787 -128 1466 -128 
C 2176 -128 2720 432 2720 1087 
C 2720 1718 2208 2176 1600 2246 
C 2086 2347 2554 2776 2554 3353 
C 2554 3856 2048 4224 1472 4224 
C 890 4224 378 3862 378 3347 
C 378 3123 544 3084 627 3084 
C 762 3084 877 3167 877 3334 
C 877 3500 762 3584 627 3584 
C 602 3584 570 3584 544 3571 
C 730 3999 1235 4076 1459 4076 
C 1683 4076 2106 3966 2106 3347 
C 2106 3167 2080 2851 1862 2574 
C 1670 2329 1453 2316 1242 2297 
C 1210 2297 1062 2284 1037 2284 
C 992 2278 966 2272 966 2227 
C 966 2182 973 2176 1101 2176 
L 1414 2176 
z
" transform="scale(0.015625)"/>
       </defs>
       <use xlink:href="#CMR17-33" transform="scale(0.996264)"/>
       <use xlink:href="#CMMI12-19" transform="translate(45.690477 0) scale(0.996264)"/>
       <use xlink:href="#CMMI12-3d" transform="translate(104.601078 0) scale(0.996264)"/>
       <use xlink:href="#CMR17-34" transform="translate(153.375997 0) scale(0.996264)"/>
      </g>
     </g>
    </g>
    <g id="xtick_3">
     <g id="line2d_3">
      <path d="M 80.28 80.28 
L 25.634958 134.925042 
" clip-path="url(#p46f1354599)" style="fill: none; stroke: #b0b0b0; stroke-width: 0.8; stroke-linecap: square"/>
     </g>
     <g id="text_3">
      <!-- $5\pi/4$ -->
      <g transform="translate(5.245252 147.315197) scale(0.1 -0.1)">
       <defs>
        <path id="CMR17-35" d="M 730 3750 
C 794 3724 1056 3641 1325 3641 
C 1920 3641 2246 3961 2432 4140 
C 2432 4191 2432 4224 2394 4224 
C 2387 4224 2374 4224 2323 4198 
C 2099 4102 1837 4032 1517 4032 
C 1325 4032 1037 4055 723 4191 
C 653 4224 640 4224 634 4224 
C 602 4224 595 4217 595 4090 
L 595 2231 
C 595 2113 595 2080 659 2080 
C 691 2080 704 2093 736 2139 
C 941 2435 1222 2560 1542 2560 
C 1766 2560 2246 2415 2246 1293 
C 2246 1087 2246 716 2054 422 
C 1894 159 1645 25 1370 25 
C 947 25 518 319 403 812 
C 429 806 480 793 506 793 
C 589 793 749 838 749 1036 
C 749 1209 627 1280 506 1280 
C 358 1280 262 1190 262 1011 
C 262 454 704 -128 1382 -128 
C 2042 -128 2669 441 2669 1267 
C 2669 2054 2170 2662 1549 2662 
C 1222 2662 947 2540 730 2304 
L 730 3750 
z
" transform="scale(0.015625)"/>
       </defs>
       <use xlink:href="#CMR17-35" transform="scale(0.996264)"/>
       <use xlink:href="#CMMI12-19" transform="translate(45.690477 0) scale(0.996264)"/>
       <use xlink:href="#CMMI12-3d" transform="translate(104.601078 0) scale(0.996264)"/>
       <use xlink:href="#CMR17-34" transform="translate(153.375997 0) scale(0.996264)"/>
      </g>
     </g>
    </g>
    <g id="xtick_4">
     <g id="line2d_4">
      <path d="M 80.28 80.28 
L 134.925042 134.925042 
" clip-path="url(#p46f1354599)" style="fill: none; stroke: #b0b0b0; stroke-width: 0.8; stroke-linecap: square"/>
     </g>
     <g id="text_4">
      <!-- $7\pi/4$ -->
      <g transform="translate(134.334327 147.315197) scale(0.1 -0.1)">
       <defs>
        <path id="CMR17-37" d="M 2886 3955 
L 2886 4096 
L 1382 4096 
C 634 4096 621 4166 595 4288 
L 480 4288 
L 294 3104 
L 410 3104 
C 429 3226 474 3552 550 3673 
C 589 3724 1062 3724 1171 3724 
L 2579 3724 
L 1869 2670 
C 1395 1961 1069 1003 1069 166 
C 1069 89 1069 -128 1299 -128 
C 1530 -128 1530 89 1530 172 
L 1530 466 
C 1530 1514 1709 2204 2003 2644 
L 2886 3955 
z
" transform="scale(0.015625)"/>
       </defs>
       <use xlink:href="#CMR17-37" transform="scale(0.996264)"/>
       <use xlink:href="#CMMI12-19" transform="translate(45.690477 0) scale(0.996264)"/>
       <use xlink:href="#CMMI12-3d" transform="translate(104.601078 0) scale(0.996264)"/>
       <use xlink:href="#CMR17-34" transform="translate(153.375997 0) scale(0.996264)"/>
      </g>
     </g>
    </g>
   </g>
   <g id="matplotlib.axis_2">
    <g id="ytick_1">
     <g id="line2d_5">
      <path d="M 89.36801 80.28 
C 89.36801 79.086573 89.132931 77.904751 88.676227 76.802169 
C 88.219522 75.699587 87.550074 74.697686 86.706194 73.853806 
C 85.862314 73.009926 84.860413 72.340478 83.757831 71.883773 
C 82.655249 71.427069 81.473427 71.19199 80.28 71.19199 
C 79.086573 71.19199 77.904751 71.427069 76.802169 71.883773 
C 75.699587 72.340478 74.697686 73.009926 73.853806 73.853806 
C 73.009926 74.697686 72.340478 75.699587 71.883773 76.802169 
C 71.427069 77.904751 71.19199 79.086573 71.19199 80.28 
C 71.19199 81.473427 71.427069 82.655249 71.883773 83.757831 
C 72.340478 84.860413 73.009926 85.862314 73.853806 86.706194 
C 74.697686 87.550074 75.699587 88.219522 76.802169 88.676227 
C 77.904751 89.132931 79.086573 89.36801 80.28 89.36801 
C 81.473427 89.36801 82.655249 89.132931 83.757831 88.676227 
C 84.860413 88.219522 85.862314 87.550074 86.706194 86.706194 
C 87.550074 85.862314 88.219522 84.860413 88.676227 83.757831 
C 89.132931 82.655249 89.36801 81.473427 89.36801 80.28 
" clip-path="url(#p46f1354599)" style="fill: none; stroke: #b0b0b0; stroke-width: 0.8; stroke-linecap: square"/>
     </g>
     <g id="text_5">
      <!-- $\mathdefault{10^{0}}$ -->
      <g transform="translate(75.067331 85.787284) scale(0.1 -0.1)">
       <defs>
        <path id="CMR17-31" d="M 1702 4083 
C 1702 4217 1696 4224 1606 4224 
C 1357 3927 979 3833 621 3820 
C 602 3820 570 3820 563 3808 
C 557 3795 557 3782 557 3648 
C 755 3648 1088 3686 1344 3839 
L 1344 467 
C 1344 243 1331 166 781 166 
L 589 166 
L 589 0 
C 896 6 1216 12 1523 12 
C 1830 12 2150 6 2458 0 
L 2458 166 
L 2266 166 
C 1715 166 1702 236 1702 467 
L 1702 4083 
z
" transform="scale(0.015625)"/>
        <path id="CMR17-30" d="M 2688 2038 
C 2688 2430 2682 3099 2413 3613 
C 2176 4063 1798 4224 1466 4224 
C 1158 4224 768 4082 525 3620 
C 269 3137 243 2539 243 2038 
C 243 1671 250 1112 448 623 
C 723 -39 1216 -128 1466 -128 
C 1760 -128 2208 -7 2470 604 
C 2662 1048 2688 1568 2688 2038 
z
M 1466 -26 
C 1056 -26 813 328 723 816 
C 653 1196 653 1749 653 2109 
C 653 2604 653 3015 736 3407 
C 858 3954 1216 4121 1466 4121 
C 1728 4121 2067 3947 2189 3420 
C 2272 3054 2278 2623 2278 2109 
C 2278 1691 2278 1176 2202 797 
C 2067 96 1690 -26 1466 -26 
z
" transform="scale(0.015625)"/>
       </defs>
       <use xlink:href="#CMR17-31" transform="scale(0.996264)"/>
       <use xlink:href="#CMR17-30" transform="translate(45.690477 0) scale(0.996264)"/>
       <use xlink:href="#CMR17-30" transform="translate(91.380954 36.153639) scale(0.697382)"/>
      </g>
     </g>
    </g>
    <g id="ytick_2">
     <g id="line2d_6">
      <path d="M 109.890064 80.28 
C 109.890064 76.391642 109.124143 72.541093 107.636133 68.948719 
C 106.148122 65.356344 103.966962 62.092007 101.217477 59.342523 
C 98.467993 56.593038 95.203656 54.411878 91.611281 52.923867 
C 88.018907 51.435857 84.168358 50.669936 80.28 50.669936 
C 76.391642 50.669936 72.541093 51.435857 68.948719 52.923867 
C 65.356344 54.411878 62.092007 56.593038 59.342523 59.342523 
C 56.593038 62.092007 54.411878 65.356344 52.923867 68.948719 
C 51.435857 72.541093 50.669936 76.391642 50.669936 80.28 
C 50.669936 84.168358 51.435857 88.018907 52.923867 91.611281 
C 54.411878 95.203656 56.593038 98.467993 59.342523 101.217477 
C 62.092007 103.966962 65.356344 106.148122 68.948719 107.636133 
C 72.541093 109.124143 76.391642 109.890064 80.28 109.890064 
C 84.168358 109.890064 88.018907 109.124143 91.611281 107.636133 
C 95.203656 106.148122 98.467993 103.966962 101.217477 101.217477 
C 103.966962 98.467993 106.148122 95.203656 107.636133 91.611281 
C 109.124143 88.018907 109.890064 84.168358 109.890064 80.28 
" clip-path="url(#p46f1354599)" style="fill: none; stroke: #b0b0b0; stroke-width: 0.8; stroke-linecap: square"/>
     </g>
     <g id="text_6">
      <!-- $\mathdefault{10^{1}}$ -->
      <g transform="translate(63.296365 102.597967) scale(0.1 -0.1)">
       <use xlink:href="#CMR17-31" transform="scale(0.996264)"/>
       <use xlink:href="#CMR17-30" transform="translate(45.690477 0) scale(0.996264)"/>
       <use xlink:href="#CMR17-31" transform="translate(91.380954 36.153639) scale(0.697382)"/>
      </g>
     </g>
    </g>
    <g id="ytick_3">
     <g id="line2d_7">
      <path d="M 126.248483 80.28 
C 126.248483 74.243474 125.059419 68.265646 122.749341 62.688623 
C 120.439262 57.1116 117.053094 52.043842 112.784626 47.775374 
C 108.516158 43.506906 103.4484 40.120738 97.871377 37.810659 
C 92.294354 35.500581 86.316526 34.311517 80.28 34.311517 
C 74.243474 34.311517 68.265646 35.500581 62.688623 37.810659 
C 57.1116 40.120738 52.043842 43.506906 47.775374 47.775374 
C 43.506906 52.043842 40.120738 57.1116 37.810659 62.688623 
C 35.500581 68.265646 34.311517 74.243474 34.311517 80.28 
C 34.311517 86.316526 35.500581 92.294354 37.810659 97.871377 
C 40.120738 103.4484 43.506906 108.516158 47.775374 112.784626 
C 52.043842 117.053094 57.1116 120.439262 62.688623 122.749341 
C 68.265646 125.059419 74.243474 126.248483 80.28 126.248483 
C 86.316526 126.248483 92.294354 125.059419 97.871377 122.749341 
C 103.4484 120.439262 108.516158 117.053094 112.784626 112.784626 
C 117.053094 108.516158 120.439262 103.4484 122.749341 97.871377 
C 125.059419 92.294354 126.248483 86.316526 126.248483 80.28 
" clip-path="url(#p46f1354599)" style="fill: none; stroke: #b0b0b0; stroke-width: 0.8; stroke-linecap: square"/>
     </g>
     <g id="text_7">
      <!-- $\mathdefault{10^{2}}$ -->
      <g transform="translate(53.913561 115.997999) scale(0.1 -0.1)">
       <defs>
        <path id="CMR17-32" d="M 2669 990 
L 2554 990 
C 2490 537 2438 460 2413 422 
C 2381 371 1920 371 1830 371 
L 602 371 
C 832 620 1280 1073 1824 1596 
C 2214 1966 2669 2400 2669 3033 
C 2669 3788 2067 4224 1395 4224 
C 691 4224 262 3603 262 3027 
C 262 2777 448 2745 525 2745 
C 589 2745 781 2783 781 3007 
C 781 3206 614 3264 525 3264 
C 486 3264 448 3257 422 3244 
C 544 3788 915 4057 1306 4057 
C 1862 4057 2227 3616 2227 3033 
C 2227 2477 1901 1998 1536 1583 
L 262 147 
L 262 0 
L 2515 0 
L 2669 990 
z
" transform="scale(0.015625)"/>
       </defs>
       <use xlink:href="#CMR17-31" transform="scale(0.996264)"/>
       <use xlink:href="#CMR17-30" transform="translate(45.690477 0) scale(0.996264)"/>
       <use xlink:href="#CMR17-32" transform="translate(91.380954 36.153639) scale(0.697382)"/>
      </g>
     </g>
    </g>
    <g id="ytick_4">
     <g id="line2d_8">
      <path d="M 142.606902 80.28 
C 142.606902 72.095306 140.994695 63.990198 137.862549 56.428527 
C 134.730402 48.866856 130.139227 41.995678 124.351775 36.208225 
C 118.564322 30.420773 111.693144 25.829598 104.131473 22.697451 
C 96.569802 19.565305 88.464694 17.953098 80.28 17.953098 
C 72.095306 17.953098 63.990198 19.565305 56.428527 22.697451 
C 48.866856 25.829598 41.995678 30.420773 36.208225 36.208225 
C 30.420773 41.995678 25.829598 48.866856 22.697451 56.428527 
C 19.565305 63.990198 17.953098 72.095306 17.953098 80.28 
C 17.953098 88.464694 19.565305 96.569802 22.697451 104.131473 
C 25.829598 111.693144 30.420773 118.564322 36.208225 124.351775 
C 41.995678 130.139227 48.866856 134.730402 56.428527 137.862549 
C 63.990198 140.994695 72.095306 142.606902 80.28 142.606902 
C 88.464694 142.606902 96.569802 140.994695 104.131473 137.862549 
C 111.693144 134.730402 118.564322 130.139227 124.351775 124.351775 
C 130.139227 118.564322 134.730402 111.693144 137.862549 104.131473 
C 140.994695 96.569802 142.606902 88.464694 142.606902 80.28 
" clip-path="url(#p46f1354599)" style="fill: none; stroke: #b0b0b0; stroke-width: 0.8; stroke-linecap: square"/>
     </g>
     <g id="text_8">
      <!-- $\mathdefault{10^{3}}$ -->
      <g transform="translate(44.530758 129.39803) scale(0.1 -0.1)">
       <use xlink:href="#CMR17-31" transform="scale(0.996264)"/>
       <use xlink:href="#CMR17-30" transform="translate(45.690477 0) scale(0.996264)"/>
       <use xlink:href="#CMR17-33" transform="translate(91.380954 36.153639) scale(0.697382)"/>
      </g>
     </g>
    </g>
    <g id="ytick_5"/>
   </g>
   <g id="line2d_9">
    <path d="M 153.87986 80.28 
L 153.778841 80.007144 
L 153.403628 79.69182 
L 152.628515 79.339902 
L 151.117161 78.921136 
L 148.702276 78.501538 
L 145.04785 78.115215 
L 140.120202 77.835002 
L 133.611517 77.704178 
L 125.342917 77.76805 
L 113.207076 77.892197 
L 110.985916 77.900426 
L 105.946877 78.16307 
L 97.644138 78.782935 
L 82.747397 80.05804 
L 93.08774 79.087899 
L 108.460468 77.516294 
L 116.095325 76.521259 
L 119.379769 75.907323 
L 120.051795 75.63273 
L 119.980854 75.566304 
L 119.478027 75.502986 
L 117.631663 75.540255 
L 113.373387 75.872388 
L 108.059709 76.352444 
L 108.694094 76.208943 
L 121.453991 73.703175 
L 123.792853 72.997869 
L 124.251071 72.697251 
L 124.181441 72.597327 
L 123.711957 72.513204 
L 122.387737 72.534727 
L 119.483038 72.81796 
L 114.193828 73.585231 
L 106.235802 74.989127 
L 96.046009 76.995046 
L 85.376787 79.198292 
L 93.307569 77.456097 
L 103.670138 75.058142 
L 106.714064 74.172191 
L 106.865688 74.067807 
L 106.775688 74.036948 
L 105.916956 74.105186 
L 104.463485 74.249056 
L 104.546589 74.180464 
L 105.815968 73.726846 
L 110.765396 71.992575 
L 111.312085 71.637414 
L 111.160582 71.576576 
L 110.350902 71.623738 
L 109.408987 71.660177 
L 109.425897 71.635557 
L 109.886355 71.399249 
L 112.847001 70.269078 
L 119.251197 67.770599 
L 122.174745 66.401988 
L 123.289574 65.677435 
L 123.515162 65.331821 
L 123.391861 65.165095 
L 122.895478 65.042394 
L 121.926303 64.834395 
L 121.935133 64.654967 
L 122.234038 64.335234 
L 123.492825 63.427018 
L 125.339989 62.028622 
L 125.754623 61.466453 
L 125.717287 61.217955 
L 125.450871 61.066234 
L 124.73369 60.980276 
L 123.367456 60.840109 
L 123.255794 60.633889 
L 123.37929 60.31893 
L 124.291131 58.659624 
L 124.080573 58.493277 
L 123.603625 58.428737 
L 122.536839 58.538692 
L 119.100685 59.013156 
L 117.835336 58.88306 
L 116.801739 59.141405 
L 115.023751 59.824621 
L 112.127326 61.183286 
L 107.608471 63.569412 
L 101.151197 67.250196 
L 96.883548 69.684613 
L 97.041202 69.540174 
L 100.00123 67.120889 
L 99.960665 67.11273 
L 99.528384 67.263563 
L 98.141642 67.876486 
L 98.208405 67.764243 
L 99.033964 67.031989 
L 103.483247 63.190444 
L 103.978902 62.529602 
L 103.866273 62.476897 
L 103.382345 62.661992 
L 101.850694 63.553933 
L 98.90048 65.37471 
L 98.958012 65.271687 
L 99.768243 64.44125 
L 102.403055 61.747632 
L 102.523508 61.482189 
L 102.480901 61.471053 
L 102.126139 61.631859 
L 100.857432 62.515815 
L 97.641831 65.084344 
L 92.357448 69.603377 
L 80.543486 80.043272 
L 86.754295 74.397718 
L 97.276735 64.644392 
L 101.628308 60.321902 
L 103.304914 58.404775 
L 103.417446 58.10641 
L 103.39157 58.103759 
L 103.103188 58.244452 
L 102.055932 59.046302 
L 99.499336 61.305843 
L 94.711404 65.855292 
L 86.823239 73.691056 
L 81.945911 78.587857 
L 88.224861 72.129734 
L 97.335119 62.565977 
L 101.316211 58.076375 
L 102.763981 56.162651 
L 102.829363 55.91177 
L 102.774278 55.910875 
L 102.379508 56.159499 
L 101.105823 57.293985 
L 98.177934 60.253315 
L 93.430373 65.381028 
L 86.138686 73.592409 
L 82.56097 77.653447 
L 86.754009 72.759587 
L 95.368281 62.509788 
L 98.572414 58.353974 
L 99.253129 57.191687 
L 99.166776 57.180458 
L 98.672227 57.585441 
L 97.212461 59.120363 
L 93.988799 62.863474 
L 89.777171 67.981026 
L 90.921807 66.410216 
L 94.285683 61.718733 
L 97.088436 57.510117 
L 98.017179 55.779309 
L 98.075091 55.343763 
L 97.908768 55.349168 
L 97.451257 55.674638 
L 96.302532 56.829396 
L 94.500289 58.701939 
L 94.485497 58.666221 
L 94.593013 58.325491 
L 95.602431 56.260725 
L 96.566146 54.075625 
L 96.571713 53.774932 
L 96.551776 53.770614 
L 96.329371 53.913903 
L 95.644034 54.720402 
L 94.014318 57.042592 
L 90.18817 62.933141 
L 90.705752 61.842011 
L 93.656312 55.817882 
L 93.970155 54.796261 
L 93.86764 54.836242 
L 93.450012 55.359121 
L 92.101717 57.502636 
L 90.323386 60.420888 
L 90.392933 60.190867 
L 91.627754 57.350675 
L 93.686626 52.414081 
L 94.202526 50.688374 
L 94.151969 50.509427 
L 94.103641 50.516996 
L 93.827961 50.776751 
L 92.868126 52.135582 
L 92.48188 52.539904 
L 92.469239 52.522054 
L 92.485776 52.249158 
L 92.922356 50.647396 
L 93.621172 47.905258 
L 93.57711 47.378266 
L 93.441379 47.421875 
L 93.085465 47.846244 
L 92.231514 49.28147 
L 90.944597 51.401582 
L 90.882333 51.294565 
L 90.935563 50.522825 
L 90.922943 49.604618 
L 90.810229 49.623559 
L 90.539848 49.984273 
L 89.914202 51.241557 
L 88.600008 54.456358 
L 86.694899 59.30748 
L 86.694178 59.122773 
L 86.980122 56.936612 
L 86.862405 57.076279 
L 86.430602 58.129367 
L 85.275748 61.664412 
L 83.8948 66.364042 
L 84.329543 64.408226 
L 85.532244 58.866668 
L 85.950243 56.131678 
L 85.912134 55.956082 
L 85.853364 56.00495 
L 85.617625 56.561165 
L 84.938094 58.838785 
L 83.938862 62.429246 
L 83.977474 61.952812 
L 84.825819 54.927656 
L 84.775816 54.844318 
L 84.716573 54.904776 
L 84.473202 55.576615 
L 83.853349 58.150971 
L 82.859083 62.874107 
L 82.902782 62.114318 
L 83.115211 57.456646 
L 83.02115 57.641572 
L 82.756101 58.830288 
L 82.231352 62.198549 
L 81.046675 72.297285 
L 81.259044 69.377644 
L 81.843835 60.380082 
L 81.765927 59.202053 
L 81.752145 59.21173 
L 81.650304 59.563482 
L 81.395043 61.480575 
L 81.109733 65.185004 
L 80.689863 71.18061 
L 80.708843 69.581407 
L 80.824967 60.152658 
L 80.67417 58.868473 
L 80.660839 58.872901 
L 80.591444 59.087355 
L 80.448396 60.48672 
L 80.328067 63.925022 
L 80.206626 73.782261 
L 80.109364 71.164198 
L 79.73478 63.091721 
L 79.630768 62.274061 
L 79.587437 62.592067 
L 79.598085 65.447028 
L 79.8115 73.026782 
L 79.61006 71.216651 
L 79.240976 68.421503 
L 79.22211 68.540405 
L 79.29081 70.209638 
L 79.531979 73.852492 
L 79.357986 72.876538 
L 77.72952 63.176642 
L 77.364878 61.828468 
L 77.331299 61.838073 
L 77.316131 61.889209 
L 77.328539 62.457943 
L 78.084057 67.604646 
L 79.814407 77.759729 
L 80.254643 80.147339 
L 79.174142 74.754542 
L 76.390597 61.684992 
L 75.305493 57.618994 
L 75.059085 57.113252 
L 75.039286 57.15884 
L 75.078693 57.785065 
L 75.546299 60.424081 
L 76.472203 64.609057 
L 79.412192 76.874317 
L 78.045108 71.730664 
L 74.78278 59.921631 
L 73.421575 55.786109 
L 72.988566 54.96509 
L 72.965836 55.178412 
L 73.172296 56.383237 
L 74.022512 59.79946 
L 75.627194 65.34956 
L 78.604475 75.085013 
L 77.366762 71.453553 
L 74.074779 62.123504 
L 73.661427 61.298632 
L 73.644749 61.363815 
L 73.803953 62.07057 
L 74.491129 64.223394 
L 78.407678 75.243571 
L 80.215614 80.112231 
L 78.535784 75.890094 
L 76.503654 71.203824 
L 75.600837 69.844367 
L 75.797699 70.430696 
L 77.373638 74.047707 
L 80.211349 80.138765 
L 78.216822 76.172051 
L 75.943223 71.93048 
L 76.003267 72.095664 
L 77.304844 74.712968 
L 78.379548 76.807074 
L 77.354203 75.033983 
L 73.571045 68.659749 
L 73.330707 68.329008 
L 73.584239 68.878937 
L 75.754007 72.724116 
L 78.798451 77.887945 
L 77.130514 75.312449 
L 74.804315 71.897946 
L 74.849328 72.011617 
L 76.010334 73.908945 
L 76.724071 75.065153 
L 76.072216 74.190484 
L 70.731092 66.977615 
L 70.2912 66.491269 
L 70.435718 66.778876 
L 71.990896 69.072784 
L 76.45373 75.231945 
L 80.240928 80.231329 
L 78.35906 77.955641 
L 71.829257 70.3209 
L 67.621349 65.676118 
L 66.970469 65.210106 
L 66.712459 65.277184 
L 65.853008 64.54344 
L 61.651056 60.823215 
L 61.266202 60.665658 
L 61.258358 60.681844 
L 61.331978 60.902157 
L 61.911294 61.725674 
L 63.98991 64.187766 
L 64.83926 65.270267 
L 64.790542 65.260144 
L 64.232121 64.852949 
L 60.506262 62.01056 
L 60.324372 62.002079 
L 60.328133 62.050875 
L 60.535547 62.396663 
L 61.560484 63.576311 
L 64.655016 66.715079 
L 65.496497 67.668519 
L 65.447714 67.674395 
L 64.841531 67.371639 
L 64.581526 67.302089 
L 64.593046 67.360555 
L 64.944811 67.777137 
L 66.280111 69.009293 
L 74.19386 75.47883 
L 79.754107 79.87663 
L 76.453241 77.419311 
L 71.628423 74.018764 
L 71.529085 73.979814 
L 71.78633 74.212765 
L 74.287807 76.088594 
L 79.989893 80.086035 
L 80.273577 80.275757 
L 78.665417 79.313879 
L 70.931015 74.864994 
L 64.372885 71.314532 
L 63.999092 71.222945 
L 64.040123 71.285203 
L 64.415894 71.570134 
L 68.739936 74.064435 
L 77.081857 78.613213 
L 79.878279 80.079095 
L 77.649079 79.03671 
L 67.078153 74.249797 
L 61.312013 71.813806 
L 59.265673 71.164283 
L 59.176861 71.187747 
L 59.235443 71.274673 
L 59.912509 71.698269 
L 62.261856 72.858239 
L 65.946262 74.458682 
L 75.554034 78.575326 
L 75.217441 78.475127 
L 58.681122 73.117761 
L 55.874416 72.471006 
L 55.531173 72.496011 
L 55.53748 72.531628 
L 55.767849 72.703577 
L 56.932714 73.237343 
L 60.284819 74.624495 
L 60.08852 74.636377 
L 58.419509 74.503968 
L 58.543077 74.6085 
L 59.427379 74.94933 
L 62.358334 75.828309 
L 69.998883 77.7869 
L 73.63666 78.708152 
L 70.429425 78.000733 
L 58.626705 75.466987 
L 53.574613 74.603595 
L 51.741727 74.471907 
L 51.652605 74.527517 
L 51.707592 74.593723 
L 52.245106 74.826818 
L 54.315391 75.41268 
L 59.063715 76.479187 
L 65.179049 77.651803 
L 76.309868 79.631978 
L 72.472486 79.070014 
L 67.138129 78.401234 
L 67.219959 78.429421 
L 69.087591 78.757588 
L 76.599001 79.830246 
L 78.259274 80.054647 
L 76.237545 79.887337 
L 60.363642 78.593925 
L 52.448836 78.201145 
L 47.272233 78.142834 
L 44.265006 78.305937 
L 43.041754 78.562277 
L 42.807744 78.783764 
L 42.916782 78.973319 
L 43.408502 79.264545 
L 44.940409 80.094141 
L 45.00909 80.356381 
L 44.844772 80.597918 
L 44.280452 80.937154 
L 42.8887 81.703493 
L 42.912995 81.887833 
L 43.22828 82.058046 
L 44.117449 82.239709 
L 46.045084 82.390287 
L 49.719237 82.429685 
L 55.279283 82.256354 
L 62.846341 81.79936 
L 78.38138 80.492925 
L 75.368086 80.898667 
L 67.828337 82.036515 
L 67.582521 82.103253 
L 68.227983 82.056258 
L 73.252921 81.377943 
L 76.162312 80.952106 
L 72.850211 81.539965 
L 59.227814 84.051415 
L 53.695956 85.314536 
L 51.786059 85.932335 
L 51.668431 86.047723 
L 51.736315 86.089194 
L 52.305418 86.099662 
L 54.183164 85.877703 
L 58.389595 85.145717 
L 64.131369 83.963943 
L 73.548645 81.872672 
L 70.323127 82.694473 
L 60.36509 85.318482 
L 58.41389 86.028579 
L 58.391439 86.092435 
L 58.479889 86.112288 
L 59.311512 86.043007 
L 60.108712 85.998797 
L 60.056864 86.054073 
L 59.244876 86.412798 
L 55.635547 87.94746 
L 55.550268 88.074801 
L 55.592951 88.094945 
L 56.033426 88.071205 
L 57.682157 87.711471 
L 61.577629 86.610457 
L 66.68571 84.956578 
L 75.511478 82.003359 
L 75.237633 82.223194 
L 74.873753 82.390361 
L 60.460737 88.587452 
L 59.307796 89.300459 
L 59.351659 89.343036 
L 59.385511 89.343734 
L 59.987782 89.202078 
L 62.031762 88.465594 
L 65.667624 86.932648 
L 77.310159 81.681206 
L 79.82628 80.50691 
L 77.667787 81.637308 
L 69.573085 86.038281 
L 64.307124 89.114003 
L 64.237815 89.217255 
L 64.348569 89.207291 
L 64.853908 88.974357 
L 68.882204 86.825307 
L 76.841651 82.314367 
L 80.278452 80.281022 
L 78.742544 81.324541 
L 73.235835 85.246284 
L 71.64276 86.506463 
L 71.957133 86.326917 
L 74.469854 84.578702 
L 79.798572 80.649265 
L 76.652582 83.119777 
L 68.037529 90.086048 
L 64.907932 92.81293 
L 64.577194 93.261492 
L 64.60713 93.269427 
L 64.972285 93.111254 
L 65.555882 92.840821 
L 65.528343 92.911697 
L 65.017024 93.481037 
L 60.355572 98.393785 
L 60.299041 98.626643 
L 60.320239 98.629953 
L 60.642896 98.490882 
L 61.729813 97.719234 
L 64.835027 95.293848 
L 64.623025 95.613392 
L 61.141053 100.023443 
L 61.155724 100.03275 
L 61.36236 99.965033 
L 62.131663 99.399914 
L 64.331568 97.440162 
L 66.734411 95.352008 
L 66.767416 95.484741 
L 66.815233 95.563739 
L 66.881264 95.545821 
L 67.338272 95.191807 
L 68.75812 93.739794 
L 75.240264 86.294306 
L 80.238035 80.33221 
L 78.295771 82.861141 
L 73.05978 89.966616 
L 70.020815 94.386786 
L 69.992559 94.480981 
L 70.180018 94.295086 
L 71.628967 92.442426 
L 76.346745 85.987305 
L 76.765189 85.434546 
L 76.045063 86.590788 
L 74.538858 89.06841 
L 74.847591 88.674995 
L 77.119553 85.271666 
L 78.829827 82.624635 
L 77.334721 85.142216 
L 73.320616 92.129941 
L 72.971289 92.849099 
L 73.245134 92.482174 
L 75.21307 89.234422 
L 78.214421 84.060234 
L 77.12379 86.194615 
L 75.839697 88.828836 
L 76.297264 88.053408 
L 78.869044 83.111128 
L 80.167361 80.511733 
L 78.391727 84.283779 
L 75.677635 90.409748 
L 75.544482 90.823839 
L 75.781102 90.448119 
L 77.804106 86.444627 
L 80.202076 80.483422 
L 78.671769 84.597861 
L 74.568789 96.121198 
L 73.666429 99.059942 
L 73.655033 99.279707 
L 73.744362 99.1738 
L 74.264939 97.987425 
L 75.363837 94.930801 
L 78.446395 85.965116 
L 77.300383 89.717835 
L 73.997342 100.842919 
L 73.019727 104.912648 
L 72.97999 105.683771 
L 72.99883 105.677399 
L 73.147744 105.451663 
L 73.650429 104.184265 
L 74.852916 100.428154 
L 76.654744 94.009067 
L 79.316751 84.070037 
L 78.169415 88.804992 
L 75.537976 100.170831 
L 75.026787 103.258378 
L 75.064647 103.489015 
L 75.127397 103.410395 
L 75.431346 102.565131 
L 76.18716 99.727512 
L 77.312344 94.690511 
L 80.245099 80.462591 
L 79.174799 86.41102 
L 77.585732 96.242501 
L 77.354684 98.648561 
L 77.425413 98.568541 
L 77.593622 97.99404 
L 78.52019 92.881841 
L 79.543578 86.642121 
L 79.475779 87.841626 
L 79.277211 91.724937 
L 79.3031 91.672625 
L 79.471516 90.527433 
L 79.812607 87.516083 
L 79.790855 88.748509 
L 79.59432 97.519308 
L 79.632979 97.921491 
L 79.698554 97.595973 
L 79.879452 94.906241 
L 80.207778 86.675717 
L 80.243682 89.671609 
L 80.434126 99.817001 
L 80.658969 101.582009 
L 80.710209 101.507994 
L 80.796074 100.744072 
L 80.856641 98.283075 
L 80.684916 89.269567 
L 80.846359 91.467503 
L 81.5186 100.123713 
L 81.760056 101.274661 
L 81.772469 101.265636 
L 81.824334 100.912175 
L 81.801538 98.903823 
L 81.568572 95.362163 
L 81.049671 88.293907 
L 81.308006 90.454266 
L 82.569876 100.670031 
L 83.063111 103.029043 
L 83.12615 103.076111 
L 83.156586 102.977113 
L 83.159859 102.031193 
L 82.856337 97.969196 
L 82.839445 97.627379 
L 82.96474 98.169867 
L 84.666348 105.552257 
L 84.770526 105.685756 
L 84.808373 105.625308 
L 84.820584 105.072973 
L 84.582941 102.829226 
L 83.936337 98.118435 
L 84.1247 98.689705 
L 85.832926 104.534829 
L 85.911446 104.600947 
L 85.939172 104.515901 
L 85.875536 103.718813 
L 85.391028 101.006704 
L 84.199591 95.602858 
L 83.957114 94.471927 
L 84.257454 95.437808 
L 86.14374 101.653808 
L 86.934564 103.682926 
L 87.014978 103.744827 
L 87.040235 103.669018 
L 86.97752 103.029291 
L 86.72997 101.367179 
L 86.842629 101.547178 
L 87.592319 103.466502 
L 89.87531 109.261204 
L 90.689471 110.830767 
L 90.911021 110.982348 
L 90.927128 110.967442 
L 90.976852 110.684878 
L 90.924821 109.159843 
L 91.066226 109.266817 
L 91.542723 110.039286 
L 93.334757 113.04802 
L 93.589671 113.154249 
L 93.629937 112.904992 
L 93.494787 112.06852 
L 92.824999 109.634073 
L 92.441727 107.975294 
L 92.534468 107.99993 
L 92.925503 108.505831 
L 94.094226 110.022733 
L 94.17741 109.961139 
L 94.13976 109.596832 
L 93.701442 108.220952 
L 92.374533 104.94821 
L 90.304421 100.101612 
L 90.492923 100.350845 
L 93.926392 105.720019 
L 93.939408 105.706504 
L 93.90842 105.461645 
L 93.438405 104.273039 
L 91.84751 100.975618 
L 90.247007 97.729869 
L 90.496667 98.064619 
L 96.128419 106.425114 
L 96.518962 106.699248 
L 96.537127 106.546306 
L 96.308226 105.857101 
L 95.327337 103.771754 
L 94.52829 101.929693 
L 94.651098 101.969878 
L 95.23871 102.556165 
L 97.531454 104.902765 
L 97.974568 105.107849 
L 98.02014 104.977286 
L 97.881231 104.529673 
L 97.213782 103.279195 
L 95.453644 100.545159 
L 91.921625 95.530882 
L 89.509466 92.232293 
L 90.740005 93.739576 
L 94.845171 98.714008 
L 98.19949 102.503455 
L 99.194049 103.383712 
L 99.240679 103.353161 
L 99.225036 103.276054 
L 98.855809 102.629922 
L 97.319258 100.525042 
L 94.012497 96.392724 
L 88.71387 90.101605 
L 82.37881 82.696795 
L 87.456701 88.461863 
L 96.231702 98.240492 
L 100.531364 102.715524 
L 102.495545 104.497051 
L 102.841597 104.66145 
L 102.854527 104.614946 
L 102.716539 104.316627 
L 101.952285 103.268688 
L 99.837376 100.769829 
L 95.692511 96.228599 
L 89.402632 89.650079 
L 81.737038 81.759981 
L 86.813966 86.859606 
L 97.035219 96.944753 
L 101.463406 101.012773 
L 103.23855 102.391412 
L 103.412632 102.421535 
L 103.408777 102.363069 
L 103.14294 101.947573 
L 101.973942 100.61159 
L 98.928472 97.520476 
L 94.180147 92.987832 
L 81.614416 81.484881 
L 80.516226 80.492236 
L 87.955266 87.090458 
L 97.662642 95.49387 
L 101.371262 98.41955 
L 102.437088 99.051828 
L 102.479339 98.993444 
L 102.468255 98.960629 
L 102.166539 98.545213 
L 100.762626 97.095954 
L 98.82903 95.128095 
L 98.910667 95.136787 
L 99.683928 95.596909 
L 103.494431 97.938095 
L 103.913544 98.004281 
L 103.835121 97.809218 
L 103.22816 97.137919 
L 101.313654 95.432975 
L 98.137926 92.680933 
L 98.226687 92.693258 
L 99.162865 93.134569 
L 100.038943 93.464275 
L 100.044875 93.450567 
L 99.944984 93.296333 
L 99.183549 92.641507 
L 96.775386 90.792008 
L 97.39151 91.110356 
L 111.540808 99.077651 
L 115.161672 100.787528 
L 117.191702 101.522521 
L 118.228603 101.683825 
L 118.992374 101.549833 
L 119.685591 101.519876 
L 121.053 101.738759 
L 123.546886 102.136237 
L 124.155653 102.036383 
L 124.315437 101.810945 
L 124.232645 101.468019 
L 123.768258 100.781829 
L 123.262055 99.961134 
L 123.348321 99.743338 
L 123.677402 99.633951 
L 124.947867 99.574249 
L 125.612214 99.430041 
L 125.762649 99.228835 
L 125.695855 98.97058 
L 125.32697 98.526104 
L 124.294957 97.697304 
L 121.939673 95.877339 
L 122.00316 95.695404 
L 122.370468 95.594762 
L 123.502206 95.34356 
L 123.516496 95.138849 
L 123.253515 94.840675 
L 122.445591 94.305659 
L 120.64921 93.403655 
L 117.281755 91.980702 
L 109.554936 88.923316 
L 109.760227 88.904664 
L 111.397318 88.946324 
L 111.376334 88.899029 
L 111.033585 88.681214 
L 109.517868 88.073076 
L 104.330818 86.27786 
L 104.891023 86.304464 
L 106.747436 86.464562 
L 106.741809 86.445983 
L 106.506944 86.322861 
L 105.098067 85.885163 
L 100.491635 84.726657 
L 90.850007 82.564347 
L 85.149372 81.313443 
L 92.708509 82.877588 
L 107.235077 85.757198 
L 115.903491 87.24359 
L 121.114105 87.921677 
L 123.577388 88.05038 
L 124.225077 87.914275 
L 124.195835 87.797275 
L 123.775183 87.559174 
L 122.456592 87.124062 
L 119.38324 86.377276 
L 113.790143 85.271786 
L 108.177428 84.2242 
L 108.557408 84.224399 
L 119.644338 85.052567 
L 120.06728 84.92908 
L 119.885372 84.808494 
L 119.0045 84.562197 
L 116.51456 84.105407 
L 111.144377 83.364773 
L 101.763026 82.319797 
L 83.833639 80.604108 
L 82.556242 80.484764 
L 98.025743 81.809965 
L 109.093933 82.584707 
L 113.14147 82.683486 
L 117.770861 82.625917 
L 133.606491 82.855579 
L 140.580811 82.706446 
L 145.734111 82.386639 
L 149.440974 81.949206 
L 151.794467 81.474808 
L 153.155772 81.001468 
L 153.741826 80.598172 
L 153.87986 80.28 
L 153.87986 80.28 
" clip-path="url(#p46f1354599)" style="fill: none; stroke: #000000; stroke-width: 0.75; stroke-linecap: square"/>
   </g>
   <g id="line2d_10">
    <path d="M 153.678178 80.28 
L 151.401674 79.038567 
L 143.980244 78.055538 
L 129.411715 77.705116 
L 115.874922 77.790961 
L 91.96099 79.258046 
L 115.970237 76.528805 
L 119.452338 75.470242 
L 109.56771 76.163881 
L 120.6133 73.891833 
L 123.842981 72.598671 
L 116.676401 73.205256 
L 85.043991 79.267382 
L 105.976938 74.347395 
L 103.373455 74.522155 
L 109.627257 72.416426 
L 112.538603 70.417555 
L 120.476666 67.219312 
L 123.401643 65.432028 
L 122.343592 64.970105 
L 122.551549 64.053473 
L 125.094058 62.173945 
L 125.500131 61.085193 
L 123.869342 60.872774 
L 123.464714 60.142637 
L 124.141926 58.887109 
L 123.092176 58.466107 
L 120.63336 58.823738 
L 118.910273 58.86689 
L 116.895542 59.140007 
L 111.745628 61.373543 
L 101.78861 66.839929 
L 98.127327 68.68981 
L 99.707587 67.175927 
L 99.45336 66.854669 
L 102.359417 64.238364 
L 103.686047 62.642279 
L 101.325631 63.837351 
L 99.792259 64.479284 
L 102.462736 61.666474 
L 99.895384 63.228607 
L 80.91961 79.704092 
L 100.718401 61.220883 
L 103.129749 58.214254 
L 95.422074 65.137926 
L 95.411571 64.6108 
L 102.614075 56.329637 
L 100.12943 58.234975 
L 83.444308 76.63988 
L 97.760532 59.447513 
L 98.556113 57.710881 
L 92.331449 64.854849 
L 97.850591 56.096156 
L 97.155712 56.178985 
L 95.401046 57.862128 
L 95.019339 57.583408 
L 96.120738 54.929521 
L 95.229587 55.39971 
L 91.369925 61.071687 
L 92.704902 57.864884 
L 93.504295 55.408718 
L 90.857602 59.520287 
L 92.928125 54.3475 
L 94.009088 50.837876 
L 92.477026 52.88503 
L 93.485873 47.594316 
L 90.693513 51.669108 
L 90.654063 50.151533 
L 88.932221 53.651201 
L 86.782932 59.009868 
L 86.933015 57.078179 
L 84.955233 62.831793 
L 84.765295 62.290464 
L 85.649666 57.02142 
L 84.110771 62.257639 
L 84.077759 60.742225 
L 84.539021 56.125891 
L 83.382094 60.694151 
L 83.037875 60.656701 
L 83.115966 57.182913 
L 81.796942 65.847257 
L 81.456934 66.827585 
L 81.741797 59.375331 
L 80.887586 68.686561 
L 80.837227 64.323095 
L 80.653901 58.85923 
L 80.078507 68.736492 
L 79.617166 61.298924 
L 79.683752 71.753259 
L 79.021472 65.894964 
L 79.397897 73.095844 
L 78.53186 67.841338 
L 77.246722 61.128636 
L 78.032023 67.531091 
L 80.242909 80.089181 
L 76.009772 60.190156 
L 75.041811 57.590912 
L 78.89235 74.71444 
L 75.184462 61.263195 
L 73.064972 55.118209 
L 74.323576 60.797415 
L 78.665234 75.31026 
L 73.657248 61.046132 
L 75.517477 67.195076 
L 80.228091 80.144774 
L 77.621084 73.698952 
L 76.121185 70.939149 
L 77.960888 75.306649 
L 80.002175 79.710373 
L 75.559832 71.01615 
L 78.29266 76.694744 
L 73.046008 67.750359 
L 75.874039 72.94725 
L 78.744579 77.822812 
L 75.4224 72.799952 
L 77.392601 75.999255 
L 74.212938 71.615337 
L 70.220848 66.434765 
L 77.158735 76.137941 
L 80.216865 80.199191 
L 79.488389 79.302442 
L 74.955217 73.934171 
L 67.994957 66.147675 
L 68.071946 66.721582 
L 64.463069 63.318418 
L 61.33919 60.666218 
L 62.93808 62.93808 
L 64.686084 65.22113 
L 60.678156 62.000985 
L 60.622054 62.579906 
L 64.715904 66.750338 
L 64.765385 67.261692 
L 64.967631 67.880288 
L 77.581843 78.246793 
L 70.209985 72.963706 
L 72.42024 74.776537 
L 79.847668 79.99924 
L 79.627456 79.887912 
L 69.99936 74.34447 
L 63.95906 71.233155 
L 72.766753 76.285136 
L 80.000123 80.137395 
L 79.573853 79.935589 
L 75.864342 78.220945 
L 61.390915 71.870037 
L 59.351935 71.396563 
L 68.261159 75.424073 
L 78.359959 79.542965 
L 77.503092 79.269288 
L 68.557435 76.243597 
L 56.351755 72.505242 
L 54.921151 72.527022 
L 58.098963 73.91969 
L 58.024854 74.316752 
L 60.786796 75.419798 
L 69.237015 77.730526 
L 54.372366 74.773162 
L 52.934517 74.964577 
L 61.241087 76.922926 
L 71.071701 78.821549 
L 66.06366 78.282024 
L 79.950813 80.245401 
L 68.532227 79.252203 
L 50.346871 78.186872 
L 44.236085 78.391018 
L 42.891721 78.974373 
L 43.265092 79.633902 
L 43.374975 80.28 
L 43.252528 80.926317 
L 42.904248 81.58519 
L 44.242885 82.168625 
L 50.335519 82.373922 
L 68.589849 81.302756 
L 79.934362 80.316328 
L 77.492368 80.622278 
L 66.189864 82.26024 
L 71.233251 81.712864 
L 61.328911 83.621588 
L 52.989614 85.584714 
L 54.343615 85.792949 
L 69.348902 82.803643 
L 60.794252 85.138343 
L 58.068113 86.231657 
L 58.080542 86.645592 
L 54.913096 88.035441 
L 56.312461 88.067526 
L 68.234685 84.427535 
L 78.369232 81.013475 
L 68.540675 85.022995 
L 59.491456 89.104213 
L 61.431672 88.671816 
L 79.969555 80.43818 
L 72.683674 84.319038 
L 63.987556 89.311049 
L 69.90797 86.268295 
L 79.841513 80.564757 
L 79.313258 80.932076 
L 72.682238 85.60001 
L 70.479807 87.400257 
L 77.644873 82.265711 
L 77.088674 82.773338 
L 64.965977 92.681051 
L 64.792896 93.275223 
L 64.772237 93.760692 
L 60.598697 98.001124 
L 60.606511 98.625826 
L 64.700852 95.324609 
L 61.2736 99.961704 
L 64.315844 97.399462 
L 68.205659 93.689914 
L 68.167251 94.214124 
L 75.104766 86.447603 
L 80.235653 80.336761 
L 76.744431 84.971858 
L 69.534101 95.070461 
L 73.646444 89.7537 
L 77.321446 84.666236 
L 75.612529 87.467275 
L 78.92528 82.448005 
L 76.18659 87.092577 
L 73.401248 92.194349 
L 78.356461 83.750156 
L 76.767601 86.885863 
L 75.360151 89.935747 
L 79.969563 80.916491 
L 78.036546 85.091103 
L 76.071522 89.732397 
L 77.595126 86.925296 
L 80.222015 80.431055 
L 75.38287 93.734753 
L 73.621025 99.619066 
L 78.623374 85.37857 
L 74.339053 99.711964 
L 73.078438 105.394831 
L 75.207866 99.209463 
L 78.893785 85.839804 
L 75.043398 102.962216 
L 76.008876 100.374057 
L 80.239793 80.486849 
L 78.034535 93.014665 
L 77.235941 99.49943 
L 78.503279 92.922025 
L 79.407092 87.389268 
L 79.021379 94.666104 
L 79.682553 88.823891 
L 79.715002 91.060806 
L 79.62198 99.123221 
L 80.076113 91.960675 
L 80.28 93.955647 
L 80.652997 101.648971 
L 80.903455 92.176233 
L 81.745702 101.24052 
L 81.461498 93.784579 
L 81.795688 94.700811 
L 83.10918 103.32182 
L 83.029624 99.844588 
L 83.369481 99.786214 
L 84.533669 104.403756 
L 84.087599 99.868399 
L 84.153804 98.504813 
L 85.670368 103.628248 
L 84.774334 98.305791 
L 84.939892 97.670954 
L 86.923277 103.447862 
L 86.802411 101.613846 
L 88.969441 107.02335 
L 90.683525 110.494032 
L 90.706549 108.926708 
L 93.488949 112.973296 
L 92.498415 107.723009 
L 94.02774 109.762124 
L 92.929032 106.214358 
L 90.84711 101.019122 
L 93.528631 105.197051 
L 92.715428 102.714106 
L 91.333704 99.425577 
L 95.205689 105.120518 
L 96.087224 105.576847 
L 95.010638 102.963194 
L 95.429491 102.740044 
L 97.123845 104.335503 
L 97.789039 104.379124 
L 92.404838 95.799085 
L 98.59505 102.897203 
L 97.785301 101.142006 
L 83.26761 83.716852 
L 100.057711 102.245373 
L 102.642762 104.261127 
L 95.502238 96.043089 
L 95.40259 95.40259 
L 103.129877 102.345869 
L 100.829599 99.442811 
L 80.918839 80.855214 
L 99.842561 97.285475 
L 102.443711 98.877562 
L 99.819195 96.102528 
L 101.349588 96.741366 
L 103.709951 97.935734 
L 102.324627 96.296359 
L 99.387553 93.659253 
L 99.669033 93.358068 
L 98.068865 91.832224 
L 101.82544 93.743085 
L 111.790953 99.213691 
L 116.89026 101.416944 
L 118.885533 101.679396 
L 120.634121 101.736667 
L 123.113134 102.104572 
L 124.153978 101.678769 
L 123.453837 100.412291 
L 123.843156 99.675567 
L 125.495543 99.472859 
L 125.108661 98.391955 
L 122.576119 96.515959 
L 122.328428 95.584376 
L 123.385951 95.122569 
L 120.469547 93.338375 
L 112.550353 90.146037 
L 109.651237 88.149999 
L 103.30311 86.020306 
L 106.057073 86.231106 
L 85.275351 81.341795 
L 116.696282 87.358608 
L 123.842563 87.961255 
L 120.614171 86.668305 
L 109.573006 84.396863 
L 119.501978 85.095853 
L 115.99449 84.033744 
L 92.465289 81.346075 
L 115.907363 82.771308 
L 129.431598 82.855926 
L 143.980409 82.504467 
L 151.39509 81.521319 
L 153.67817 80.28 
L 153.67817 80.28 
" clip-path="url(#p46f1354599)" style="fill: none; stroke-dasharray: 2.775,1.2; stroke-dashoffset: 0; stroke: #ff0000; stroke-width: 0.75"/>
   </g>
   <g id="patch_3">
    <path d="M 157.55976 80.28 
C 157.55976 70.131715 155.560769 60.082109 151.677189 50.706316 
C 147.793608 41.330523 142.100964 32.810879 134.925042 25.634958 
C 127.749121 18.459036 119.229477 12.766392 109.853684 8.882811 
C 100.477891 4.999231 90.428285 3.00024 80.28 3.00024 
C 70.131715 3.00024 60.082109 4.999231 50.706316 8.882811 
C 41.330523 12.766392 32.810879 18.459036 25.634958 25.634958 
C 18.459036 32.810879 12.766392 41.330523 8.882811 50.706316 
C 4.999231 60.082109 3.00024 70.131715 3.00024 80.28 
C 3.00024 90.428285 4.999231 100.477891 8.882811 109.853684 
C 12.766392 119.229477 18.459036 127.749121 25.634958 134.925042 
C 32.810879 142.100964 41.330523 147.793608 50.706316 151.677189 
C 60.082109 155.560769 70.131715 157.55976 80.28 157.55976 
C 90.428285 157.55976 100.477891 155.560769 109.853684 151.677189 
C 119.229477 147.793608 127.749121 142.100964 134.925042 134.925042 
C 142.100964 127.749121 147.793608 119.229477 151.677189 109.853684 
C 155.560769 100.477891 157.55976 90.428285 157.55976 80.28 
" style="fill: none; stroke: #000000; stroke-width: 0.8; stroke-linejoin: miter; stroke-linecap: square"/>
   </g>
  </g>
 </g>
 <defs>
  <clipPath id="p46f1354599">
   <path d="M 157.55976 80.28 
C 157.55976 70.131715 155.560769 60.082109 151.677189 50.706316 
C 147.793608 41.330523 142.100964 32.810879 134.925042 25.634958 
C 127.749121 18.459036 119.229477 12.766392 109.853684 8.882811 
C 100.477891 4.999231 90.428285 3.00024 80.28 3.00024 
C 70.131715 3.00024 60.082109 4.999231 50.706316 8.882811 
C 41.330523 12.766392 32.810879 18.459036 25.634958 25.634958 
C 18.459036 32.810879 12.766392 41.330523 8.882811 50.706316 
C 4.999231 60.082109 3.00024 70.131715 3.00024 80.28 
C 3.00024 90.428285 4.999231 100.477891 8.882811 109.853684 
C 12.766392 119.229477 18.459036 127.749121 25.634958 134.925042 
C 32.810879 142.100964 41.330523 147.793608 50.706316 151.677189 
C 60.082109 155.560769 70.131715 157.55976 80.28 157.55976 
C 90.428285 157.55976 100.477891 155.560769 109.853684 151.677189 
C 119.229477 147.793608 127.749121 142.100964 134.925042 134.925042 
C 142.100964 127.749121 147.793608 119.229477 151.677189 109.853684 
C 155.560769 100.477891 157.55976 90.428285 157.55976 80.28 
M 80.28 80.28 
C 80.28 80.28 80.28 80.28 80.28 80.28 
C 80.28 80.28 80.28 80.28 80.28 80.28 
C 80.28 80.28 80.28 80.28 80.28 80.28 
C 80.28 80.28 80.28 80.28 80.28 80.28 
C 80.28 80.28 80.28 80.28 80.28 80.28 
C 80.28 80.28 80.28 80.28 80.28 80.28 
C 80.28 80.28 80.28 80.28 80.28 80.28 
C 80.28 80.28 80.28 80.28 80.28 80.28 
C 80.28 80.28 80.28 80.28 80.28 80.28 
C 80.28 80.28 80.28 80.28 80.28 80.28 
C 80.28 80.28 80.28 80.28 80.28 80.28 
C 80.28 80.28 80.28 80.28 80.28 80.28 
C 80.28 80.28 80.28 80.28 80.28 80.28 
C 80.28 80.28 80.28 80.28 80.28 80.28 
C 80.28 80.28 80.28 80.28 80.28 80.28 
C 80.28 80.28 80.28 80.28 80.28 80.28 
M 157.55976 80.28 
z
"/>
  </clipPath>
 </defs>
</svg>
