<?xml version="1.0" encoding="utf-8" standalone="no"?>
<!DOCTYPE svg PUBLIC "-//W3C//DTD SVG 1.1//EN"
  "http://www.w3.org/Graphics/SVG/1.1/DTD/svg11.dtd">
<svg xmlns:xlink="http://www.w3.org/1999/xlink" width="160.56pt" height="160.56pt" viewBox="0 0 160.56 160.56" xmlns="http://www.w3.org/2000/svg" version="1.1">
 <metadata>
  <rdf:RDF xmlns:dc="http://purl.org/dc/elements/1.1/" xmlns:cc="http://creativecommons.org/ns#" xmlns:rdf="http://www.w3.org/1999/02/22-rdf-syntax-ns#">
   <cc:Work>
    <dc:type rdf:resource="http://purl.org/dc/dcmitype/StillImage"/>
    <dc:date>2025-09-21T18:40:08.723338</dc:date>
    <dc:format>image/svg+xml</dc:format>
    <dc:creator>
     <cc:Agent>
      <dc:title>Matplotlib v3.6.3, https://matplotlib.org/</dc:title>
     </cc:Agent>
    </dc:creator>
   </cc:Work>
  </rdf:RDF>
 </metadata>
 <defs>
  <style type="text/css">*{stroke-linejoin: round; stroke-linecap: butt}</style>
 </defs>
 <g id="figure_1">
  <g id="patch_1">
   <path d="M 0 160.56 
L 160.56 160.56 
L 160.56 0 
L 0 0 
z
" style="fill: #ffffff"/>
  </g>
  <g id="axes_1">
   <g id="patch_2">
    <path d="M 157.55976 80.28 
C 157.55976 70.131715 155.560769 60.082109 151.677189 50.706316 
C 147.793608 41.330523 142.100964 32.810879 134.925042 25.634958 
C 127.749121 18.459036 119.229477 12.766392 109.853684 8.882811 
C 100.477891 4.999231 90.428285 3.00024 80.28 3.00024 
C 70.131715 3.00024 60.082109 4.999231 50.706316 8.882811 
C 41.330523 12.766392 32.810879 18.459036 25.634958 25.634958 
C 18.459036 32.810879 12.766392 41.330523 8.882811 50.706316 
C 4.999231 60.082109 3.00024 70.131715 3.00024 80.28 
C 3.00024 90.428285 4.999231 100.477891 8.882811 109.853684 
C 12.766392 119.229477 18.459036 127.749121 25.634958 134.925042 
C 32.810879 142.100964 41.330523 147.793608 50.706316 151.677189 
C 60.082109 155.560769 70.131715 157.55976 80.28 157.55976 
C 90.428285 157.55976 100.477891 155.560769 109.853684 151.677189 
C 119.229477 147.793608 127.749121 142.100964 134.925042 134.925042 
C 142.100964 127.749121 147.793608 119.229477 151.677189 109.853684 
C 155.560769 100.477891 157.55976 90.428285 157.55976 80.28 
M 80.28 80.28 
C 80.28 80.28 80.28 80.28 80.28 80.28 
C 80.28 80.28 80.28 80.28 80.28 80.28 
C 80.28 80.28 80.28 80.28 80.28 80.28 
C 80.28 80.28 80.28 80.28 80.28 80.28 
C 80.28 80.28 80.28 80.28 80.28 80.28 
C 80.28 80.28 80.28 80.28 80.28 80.28 
C 80.28 80.28 80.28 80.28 80.28 80.28 
C 80.28 80.28 80.28 80.28 80.28 80.28 
C 80.28 80.28 80.28 80.28 80.28 80.28 
C 80.28 80.28 80.28 80.28 80.28 80.28 
C 80.28 80.28 80.28 80.28 80.28 80.28 
C 80.28 80.28 80.28 80.28 80.28 80.28 
C 80.28 80.28 80.28 80.28 80.28 80.28 
C 80.28 80.28 80.28 80.28 80.28 80.28 
C 80.28 80.28 80.28 80.28 80.28 80.28 
C 80.28 80.28 80.28 80.28 80.28 80.28 
M 157.55976 80.28 
z
" style="fill: #ffffff"/>
   </g>
   <g id="matplotlib.axis_1">
    <g id="xtick_1">
     <g id="line2d_1">
      <path d="M 80.28 80.28 
L 134.925042 25.634958 
" clip-path="url(#pc3f67fa128)" style="fill: none; stroke: #b0b0b0; stroke-width: 0.8; stroke-linecap: square"/>
     </g>
     <g id="text_1">
      <!-- $\pi/4$ -->
      <g transform="translate(136.824995 18.226123) scale(0.1 -0.1)">
       <defs>
        <path id="CMMI12-19" d="M 1658 2406 
L 2381 2406 
C 2208 1691 2099 1225 2099 715 
C 2099 625 2099 -64 2362 -64 
C 2496 -64 2611 57 2611 166 
C 2611 198 2611 210 2566 306 
C 2394 746 2394 1295 2394 1340 
C 2394 1378 2394 1832 2528 2406 
L 3245 2406 
C 3328 2406 3539 2406 3539 2611 
C 3539 2752 3418 2752 3302 2752 
L 1197 2752 
C 1050 2752 832 2752 538 2438 
C 371 2253 166 1915 166 1876 
C 166 1838 198 1825 237 1825 
C 282 1825 288 1844 320 1883 
C 653 2406 986 2406 1146 2406 
L 1510 2406 
C 1370 1927 1210 1372 685 255 
C 634 153 634 140 634 102 
C 634 -32 749 -64 806 -64 
C 992 -64 1043 102 1120 370 
C 1222 695 1222 708 1286 964 
L 1658 2406 
z
" transform="scale(0.015625)"/>
        <path id="CMMI12-3d" d="M 2746 4563 
C 2746 4569 2784 4665 2784 4678 
C 2784 4755 2720 4800 2669 4800 
C 2637 4800 2579 4800 2528 4659 
L 384 -1364 
C 384 -1370 346 -1466 346 -1479 
C 346 -1556 410 -1600 461 -1600 
C 499 -1600 557 -1594 602 -1460 
L 2746 4563 
z
" transform="scale(0.015625)"/>
        <path id="CMR17-34" d="M 2150 4147 
C 2150 4281 2144 4288 2029 4288 
L 128 1254 
L 128 1088 
L 1779 1088 
L 1779 460 
C 1779 230 1766 166 1318 166 
L 1197 166 
L 1197 0 
C 1402 12 1747 12 1965 12 
C 2182 12 2528 12 2733 0 
L 2733 166 
L 2611 166 
C 2163 166 2150 230 2150 460 
L 2150 1088 
L 2803 1088 
L 2803 1254 
L 2150 1254 
L 2150 4147 
z
M 1798 3723 
L 1798 1254 
L 256 1254 
L 1798 3723 
z
" transform="scale(0.015625)"/>
       </defs>
       <use xlink:href="#CMMI12-19" transform="scale(0.996264)"/>
       <use xlink:href="#CMMI12-3d" transform="translate(58.910601 0) scale(0.996264)"/>
       <use xlink:href="#CMR17-34" transform="translate(107.68552 0) scale(0.996264)"/>
      </g>
     </g>
    </g>
    <g id="xtick_2">
     <g id="line2d_2">
      <path d="M 80.28 80.28 
L 25.634958 25.634958 
" clip-path="url(#pc3f67fa128)" style="fill: none; stroke: #b0b0b0; stroke-width: 0.8; stroke-linecap: square"/>
     </g>
     <g id="text_2">
      <!-- $3\pi/4$ -->
      <g transform="translate(5.245252 18.226123) scale(0.1 -0.1)">
       <defs>
        <path id="CMR17-33" d="M 1414 2176 
C 1984 2176 2234 1673 2234 1094 
C 2234 322 1824 25 1453 25 
C 1114 25 563 193 390 691 
C 422 678 454 678 486 678 
C 640 678 755 780 755 947 
C 755 1132 614 1216 486 1216 
C 378 1216 211 1164 211 927 
C 211 335 787 -128 1466 -128 
C 2176 -128 2720 432 2720 1087 
C 2720 1718 2208 2176 1600 2246 
C 2086 2347 2554 2776 2554 3353 
C 2554 3856 2048 4224 1472 4224 
C 890 4224 378 3862 378 3347 
C 378 3123 544 3084 627 3084 
C 762 3084 877 3167 877 3334 
C 877 3500 762 3584 627 3584 
C 602 3584 570 3584 544 3571 
C 730 3999 1235 4076 1459 4076 
C 1683 4076 2106 3966 2106 3347 
C 2106 3167 2080 2851 1862 2574 
C 1670 2329 1453 2316 1242 2297 
C 1210 2297 1062 2284 1037 2284 
C 992 2278 966 2272 966 2227 
C 966 2182 973 2176 1101 2176 
L 1414 2176 
z
" transform="scale(0.015625)"/>
       </defs>
       <use xlink:href="#CMR17-33" transform="scale(0.996264)"/>
       <use xlink:href="#CMMI12-19" transform="translate(45.690477 0) scale(0.996264)"/>
       <use xlink:href="#CMMI12-3d" transform="translate(104.601078 0) scale(0.996264)"/>
       <use xlink:href="#CMR17-34" transform="translate(153.375997 0) scale(0.996264)"/>
      </g>
     </g>
    </g>
    <g id="xtick_3">
     <g id="line2d_3">
      <path d="M 80.28 80.28 
L 25.634958 134.925042 
" clip-path="url(#pc3f67fa128)" style="fill: none; stroke: #b0b0b0; stroke-width: 0.8; stroke-linecap: square"/>
     </g>
     <g id="text_3">
      <!-- $5\pi/4$ -->
      <g transform="translate(5.245252 147.315197) scale(0.1 -0.1)">
       <defs>
        <path id="CMR17-35" d="M 730 3750 
C 794 3724 1056 3641 1325 3641 
C 1920 3641 2246 3961 2432 4140 
C 2432 4191 2432 4224 2394 4224 
C 2387 4224 2374 4224 2323 4198 
C 2099 4102 1837 4032 1517 4032 
C 1325 4032 1037 4055 723 4191 
C 653 4224 640 4224 634 4224 
C 602 4224 595 4217 595 4090 
L 595 2231 
C 595 2113 595 2080 659 2080 
C 691 2080 704 2093 736 2139 
C 941 2435 1222 2560 1542 2560 
C 1766 2560 2246 2415 2246 1293 
C 2246 1087 2246 716 2054 422 
C 1894 159 1645 25 1370 25 
C 947 25 518 319 403 812 
C 429 806 480 793 506 793 
C 589 793 749 838 749 1036 
C 749 1209 627 1280 506 1280 
C 358 1280 262 1190 262 1011 
C 262 454 704 -128 1382 -128 
C 2042 -128 2669 441 2669 1267 
C 2669 2054 2170 2662 1549 2662 
C 1222 2662 947 2540 730 2304 
L 730 3750 
z
" transform="scale(0.015625)"/>
       </defs>
       <use xlink:href="#CMR17-35" transform="scale(0.996264)"/>
       <use xlink:href="#CMMI12-19" transform="translate(45.690477 0) scale(0.996264)"/>
       <use xlink:href="#CMMI12-3d" transform="translate(104.601078 0) scale(0.996264)"/>
       <use xlink:href="#CMR17-34" transform="translate(153.375997 0) scale(0.996264)"/>
      </g>
     </g>
    </g>
    <g id="xtick_4">
     <g id="line2d_4">
      <path d="M 80.28 80.28 
L 134.925042 134.925042 
" clip-path="url(#pc3f67fa128)" style="fill: none; stroke: #b0b0b0; stroke-width: 0.8; stroke-linecap: square"/>
     </g>
     <g id="text_4">
      <!-- $7\pi/4$ -->
      <g transform="translate(134.334327 147.315197) scale(0.1 -0.1)">
       <defs>
        <path id="CMR17-37" d="M 2886 3955 
L 2886 4096 
L 1382 4096 
C 634 4096 621 4166 595 4288 
L 480 4288 
L 294 3104 
L 410 3104 
C 429 3226 474 3552 550 3673 
C 589 3724 1062 3724 1171 3724 
L 2579 3724 
L 1869 2670 
C 1395 1961 1069 1003 1069 166 
C 1069 89 1069 -128 1299 -128 
C 1530 -128 1530 89 1530 172 
L 1530 466 
C 1530 1514 1709 2204 2003 2644 
L 2886 3955 
z
" transform="scale(0.015625)"/>
       </defs>
       <use xlink:href="#CMR17-37" transform="scale(0.996264)"/>
       <use xlink:href="#CMMI12-19" transform="translate(45.690477 0) scale(0.996264)"/>
       <use xlink:href="#CMMI12-3d" transform="translate(104.601078 0) scale(0.996264)"/>
       <use xlink:href="#CMR17-34" transform="translate(153.375997 0) scale(0.996264)"/>
      </g>
     </g>
    </g>
   </g>
   <g id="matplotlib.axis_2">
    <g id="ytick_1">
     <g id="line2d_5">
      <path d="M 89.367711 80.28 
C 89.367711 79.086613 89.13264 77.90483 88.675951 76.802283 
C 88.219261 75.699737 87.549835 74.69787 86.705982 73.854018 
C 85.86213 73.010165 84.860263 72.340739 83.757717 71.884049 
C 82.65517 71.42736 81.473387 71.192289 80.28 71.192289 
C 79.086613 71.192289 77.90483 71.42736 76.802283 71.884049 
C 75.699737 72.340739 74.69787 73.010165 73.854018 73.854018 
C 73.010165 74.69787 72.340739 75.699737 71.884049 76.802283 
C 71.42736 77.90483 71.192289 79.086613 71.192289 80.28 
C 71.192289 81.473387 71.42736 82.65517 71.884049 83.757717 
C 72.340739 84.860263 73.010165 85.86213 73.854018 86.705982 
C 74.69787 87.549835 75.699737 88.219261 76.802283 88.675951 
C 77.90483 89.13264 79.086613 89.367711 80.28 89.367711 
C 81.473387 89.367711 82.65517 89.13264 83.757717 88.675951 
C 84.860263 88.219261 85.86213 87.549835 86.705982 86.705982 
C 87.549835 85.86213 88.219261 84.860263 88.675951 83.757717 
C 89.13264 82.65517 89.367711 81.473387 89.367711 80.28 
" clip-path="url(#pc3f67fa128)" style="fill: none; stroke: #b0b0b0; stroke-width: 0.8; stroke-linecap: square"/>
     </g>
     <g id="text_5">
      <!-- $\mathdefault{10^{0}}$ -->
      <g transform="translate(75.067503 85.787039) scale(0.1 -0.1)">
       <defs>
        <path id="CMR17-31" d="M 1702 4083 
C 1702 4217 1696 4224 1606 4224 
C 1357 3927 979 3833 621 3820 
C 602 3820 570 3820 563 3808 
C 557 3795 557 3782 557 3648 
C 755 3648 1088 3686 1344 3839 
L 1344 467 
C 1344 243 1331 166 781 166 
L 589 166 
L 589 0 
C 896 6 1216 12 1523 12 
C 1830 12 2150 6 2458 0 
L 2458 166 
L 2266 166 
C 1715 166 1702 236 1702 467 
L 1702 4083 
z
" transform="scale(0.015625)"/>
        <path id="CMR17-30" d="M 2688 2038 
C 2688 2430 2682 3099 2413 3613 
C 2176 4063 1798 4224 1466 4224 
C 1158 4224 768 4082 525 3620 
C 269 3137 243 2539 243 2038 
C 243 1671 250 1112 448 623 
C 723 -39 1216 -128 1466 -128 
C 1760 -128 2208 -7 2470 604 
C 2662 1048 2688 1568 2688 2038 
z
M 1466 -26 
C 1056 -26 813 328 723 816 
C 653 1196 653 1749 653 2109 
C 653 2604 653 3015 736 3407 
C 858 3954 1216 4121 1466 4121 
C 1728 4121 2067 3947 2189 3420 
C 2272 3054 2278 2623 2278 2109 
C 2278 1691 2278 1176 2202 797 
C 2067 96 1690 -26 1466 -26 
z
" transform="scale(0.015625)"/>
       </defs>
       <use xlink:href="#CMR17-31" transform="scale(0.996264)"/>
       <use xlink:href="#CMR17-30" transform="translate(45.690477 0) scale(0.996264)"/>
       <use xlink:href="#CMR17-30" transform="translate(91.380954 36.153639) scale(0.697382)"/>
      </g>
     </g>
    </g>
    <g id="ytick_2">
     <g id="line2d_6">
      <path d="M 109.88909 80.28 
C 109.88909 76.39177 109.123194 72.541348 107.635233 68.949092 
C 106.147271 65.356835 103.966183 62.092605 101.216789 59.343211 
C 98.467395 56.593817 95.203165 54.412729 91.610908 52.924767 
C 88.018652 51.436806 84.16823 50.67091 80.28 50.67091 
C 76.39177 50.67091 72.541348 51.436806 68.949092 52.924767 
C 65.356835 54.412729 62.092605 56.593817 59.343211 59.343211 
C 56.593817 62.092605 54.412729 65.356835 52.924767 68.949092 
C 51.436806 72.541348 50.67091 76.39177 50.67091 80.28 
C 50.67091 84.16823 51.436806 88.018652 52.924767 91.610908 
C 54.412729 95.203165 56.593817 98.467395 59.343211 101.216789 
C 62.092605 103.966183 65.356835 106.147271 68.949092 107.635233 
C 72.541348 109.123194 76.39177 109.88909 80.28 109.88909 
C 84.16823 109.88909 88.018652 109.123194 91.610908 107.635233 
C 95.203165 106.147271 98.467395 103.966183 101.216789 101.216789 
C 103.966183 98.467395 106.147271 95.203165 107.635233 91.610908 
C 109.123194 88.018652 109.88909 84.16823 109.88909 80.28 
" clip-path="url(#pc3f67fa128)" style="fill: none; stroke: #b0b0b0; stroke-width: 0.8; stroke-linecap: square"/>
     </g>
     <g id="text_6">
      <!-- $\mathdefault{10^{1}}$ -->
      <g transform="translate(63.296923 102.597169) scale(0.1 -0.1)">
       <use xlink:href="#CMR17-31" transform="scale(0.996264)"/>
       <use xlink:href="#CMR17-30" transform="translate(45.690477 0) scale(0.996264)"/>
       <use xlink:href="#CMR17-31" transform="translate(91.380954 36.153639) scale(0.697382)"/>
      </g>
     </g>
    </g>
    <g id="ytick_3">
     <g id="line2d_7">
      <path d="M 126.246971 80.28 
C 126.246971 74.243673 125.057946 68.266041 122.747944 62.689202 
C 120.437941 57.112363 117.051885 52.044771 112.783557 47.776443 
C 108.515229 43.508115 103.447637 40.122059 97.870798 37.812056 
C 92.293959 35.502054 86.316327 34.313029 80.28 34.313029 
C 74.243673 34.313029 68.266041 35.502054 62.689202 37.812056 
C 57.112363 40.122059 52.044771 43.508115 47.776443 47.776443 
C 43.508115 52.044771 40.122059 57.112363 37.812056 62.689202 
C 35.502054 68.266041 34.313029 74.243673 34.313029 80.28 
C 34.313029 86.316327 35.502054 92.293959 37.812056 97.870798 
C 40.122059 103.447637 43.508115 108.515229 47.776443 112.783557 
C 52.044771 117.051885 57.112363 120.437941 62.689202 122.747944 
C 68.266041 125.057946 74.243673 126.246971 80.28 126.246971 
C 86.316327 126.246971 92.293959 125.057946 97.870798 122.747944 
C 103.447637 120.437941 108.515229 117.051885 112.783557 112.783557 
C 117.051885 108.515229 120.437941 103.447637 122.747944 97.870798 
C 125.057946 92.293959 126.246971 86.316327 126.246971 80.28 
" clip-path="url(#pc3f67fa128)" style="fill: none; stroke: #b0b0b0; stroke-width: 0.8; stroke-linecap: square"/>
     </g>
     <g id="text_7">
      <!-- $\mathdefault{10^{2}}$ -->
      <g transform="translate(53.914429 115.99676) scale(0.1 -0.1)">
       <defs>
        <path id="CMR17-32" d="M 2669 990 
L 2554 990 
C 2490 537 2438 460 2413 422 
C 2381 371 1920 371 1830 371 
L 602 371 
C 832 620 1280 1073 1824 1596 
C 2214 1966 2669 2400 2669 3033 
C 2669 3788 2067 4224 1395 4224 
C 691 4224 262 3603 262 3027 
C 262 2777 448 2745 525 2745 
C 589 2745 781 2783 781 3007 
C 781 3206 614 3264 525 3264 
C 486 3264 448 3257 422 3244 
C 544 3788 915 4057 1306 4057 
C 1862 4057 2227 3616 2227 3033 
C 2227 2477 1901 1998 1536 1583 
L 262 147 
L 262 0 
L 2515 0 
L 2669 990 
z
" transform="scale(0.015625)"/>
       </defs>
       <use xlink:href="#CMR17-31" transform="scale(0.996264)"/>
       <use xlink:href="#CMR17-30" transform="translate(45.690477 0) scale(0.996264)"/>
       <use xlink:href="#CMR17-32" transform="translate(91.380954 36.153639) scale(0.697382)"/>
      </g>
     </g>
    </g>
    <g id="ytick_4">
     <g id="line2d_8">
      <path d="M 142.604851 80.28 
C 142.604851 72.095576 140.992698 63.990734 137.860655 56.429312 
C 134.728611 48.86789 130.137587 41.996937 124.350325 36.209675 
C 118.563063 30.422413 111.69211 25.831389 104.130688 22.699345 
C 96.569266 19.567302 88.464424 17.955149 80.28 17.955149 
C 72.095576 17.955149 63.990734 19.567302 56.429312 22.699345 
C 48.86789 25.831389 41.996937 30.422413 36.209675 36.209675 
C 30.422413 41.996937 25.831389 48.86789 22.699345 56.429312 
C 19.567302 63.990734 17.955149 72.095576 17.955149 80.28 
C 17.955149 88.464424 19.567302 96.569266 22.699345 104.130688 
C 25.831389 111.69211 30.422413 118.563063 36.209675 124.350325 
C 41.996937 130.137587 48.86789 134.728611 56.429312 137.860655 
C 63.990734 140.992698 72.095576 142.604851 80.28 142.604851 
C 88.464424 142.604851 96.569266 140.992698 104.130688 137.860655 
C 111.69211 134.728611 118.563063 130.137587 124.350325 124.350325 
C 130.137587 118.563063 134.728611 111.69211 137.860655 104.130688 
C 140.992698 96.569266 142.604851 88.464424 142.604851 80.28 
" clip-path="url(#pc3f67fa128)" style="fill: none; stroke: #b0b0b0; stroke-width: 0.8; stroke-linecap: square"/>
     </g>
     <g id="text_8">
      <!-- $\mathdefault{10^{3}}$ -->
      <g transform="translate(44.531934 129.396351) scale(0.1 -0.1)">
       <use xlink:href="#CMR17-31" transform="scale(0.996264)"/>
       <use xlink:href="#CMR17-30" transform="translate(45.690477 0) scale(0.996264)"/>
       <use xlink:href="#CMR17-33" transform="translate(91.380954 36.153639) scale(0.697382)"/>
      </g>
     </g>
    </g>
    <g id="ytick_5"/>
   </g>
   <g id="line2d_9">
    <path d="M 153.87999 80.28 
L 153.78255 80.00713 
L 153.419099 79.691695 
L 152.547836 79.296228 
L 151.02116 78.879191 
L 148.602938 78.461818 
L 144.954496 78.078273 
L 140.020884 77.802034 
L 133.410954 77.680914 
L 125.424548 77.7635 
L 111.501659 77.977028 
L 111.225794 77.920357 
L 109.54373 77.921092 
L 104.198554 78.21784 
L 95.819641 78.853017 
L 100.316846 78.377517 
L 111.544378 77.07708 
L 117.089426 76.232626 
L 118.948867 75.761605 
L 119.026869 75.655258 
L 118.999599 75.634213 
L 118.585369 75.56366 
L 116.953434 75.580199 
L 112.502135 75.907239 
L 109.994011 76.078968 
L 110.101629 76.026105 
L 112.053549 75.627255 
L 120.403613 73.947309 
L 123.61667 73.082472 
L 124.525145 72.649988 
L 124.51946 72.509961 
L 124.213473 72.42352 
L 123.081126 72.407185 
L 120.430307 72.637653 
L 115.478283 73.331673 
L 108.24339 74.579897 
L 99.575824 76.19726 
L 101.218724 75.795474 
L 110.115183 73.599901 
L 112.71902 72.76355 
L 112.882932 72.619217 
L 112.815376 72.592594 
L 112.170018 72.619971 
L 109.9343 72.982099 
L 104.961094 74.027546 
L 98.310277 75.533894 
L 99.591601 75.132676 
L 106.893699 72.850209 
L 108.009493 72.334885 
L 107.885588 72.296403 
L 106.989031 72.412221 
L 105.60249 72.61588 
L 105.67907 72.55838 
L 106.834729 72.099232 
L 117.946292 67.931882 
L 120.909888 66.56944 
L 122.098433 65.821643 
L 122.30463 65.487854 
L 122.169448 65.360431 
L 121.661169 65.281279 
L 120.40453 65.144087 
L 120.443965 64.987111 
L 120.840076 64.634815 
L 122.569079 63.515379 
L 124.62153 62.095682 
L 125.185634 61.473662 
L 125.191294 61.209454 
L 124.965832 61.076334 
L 124.328613 61.026438 
L 122.040177 61.001854 
L 122.082661 60.793659 
L 122.503589 60.278501 
L 123.724945 58.870986 
L 123.739714 58.562102 
L 123.523715 58.435468 
L 122.948111 58.42716 
L 121.710134 58.671416 
L 117.463589 59.670053 
L 117.349947 59.462359 
L 117.218735 59.113098 
L 116.943076 59.0596 
L 116.219122 59.210581 
L 114.783428 59.764358 
L 112.214813 60.996258 
L 107.752755 63.411045 
L 101.160865 67.262109 
L 91.900024 72.955534 
L 86.090496 76.58725 
L 90.891078 73.471633 
L 99.665156 67.654865 
L 102.411957 65.611066 
L 102.554077 65.417486 
L 102.434808 65.437562 
L 101.586877 65.871537 
L 98.702529 67.638466 
L 93.74478 70.85548 
L 95.394057 69.631272 
L 103.455158 63.453214 
L 105.529985 61.610597 
L 105.759859 61.244845 
L 105.743703 61.232354 
L 105.517055 61.27985 
L 104.653346 61.740374 
L 102.224199 63.329444 
L 97.269077 66.783789 
L 97.734508 66.308045 
L 102.951117 61.431304 
L 103.14726 61.076011 
L 103.129347 61.066934 
L 102.897305 61.142295 
L 101.859464 61.813286 
L 99.358475 63.727258 
L 94.553395 67.709253 
L 87.571789 73.801743 
L 84.45376 76.534769 
L 87.961816 73.317946 
L 96.712917 65.144276 
L 100.203374 61.58462 
L 101.529179 59.966401 
L 101.607572 59.688453 
L 101.589731 59.680188 
L 101.355099 59.755106 
L 100.578648 60.28984 
L 98.632985 61.935529 
L 95.052365 65.275026 
L 89.866783 70.40877 
L 89.180045 71.070388 
L 90.28205 69.87866 
L 96.727054 62.877127 
L 100.536933 58.44338 
L 102.035065 56.417139 
L 102.133344 56.099814 
L 102.112407 56.092913 
L 101.872121 56.20982 
L 100.98031 56.97291 
L 98.772541 59.19741 
L 94.609925 63.737686 
L 88.10055 71.184025 
L 81.350367 79.022534 
L 87.388041 71.845243 
L 96.236455 61.105762 
L 99.871826 56.348375 
L 100.932695 54.66687 
L 100.917577 54.555585 
L 100.843791 54.582473 
L 100.348998 55.009051 
L 98.733264 56.776018 
L 95.138466 61.111728 
L 89.084115 68.820024 
L 81.654002 78.473072 
L 87.162237 71.159199 
L 95.784389 59.492802 
L 99.746131 53.772769 
L 101.35992 51.123959 
L 101.556058 50.504869 
L 101.392854 50.57814 
L 100.722331 51.256057 
L 99.014379 53.36387 
L 95.881916 57.595988 
L 90.460968 65.319578 
L 81.055635 79.129561 
L 86.908244 70.369676 
L 95.038179 57.975953 
L 98.90616 51.709622 
L 100.716388 48.418334 
L 101.095052 47.38183 
L 101.009694 47.336572 
L 100.719596 47.573561 
L 99.814738 48.674444 
L 97.801217 51.535994 
L 94.155984 57.163542 
L 91.453347 61.428853 
L 91.915558 60.5378 
L 97.620691 50.050981 
L 99.243804 46.596657 
L 99.501921 45.638551 
L 99.399163 45.621836 
L 99.028678 45.993091 
L 98.105002 47.295465 
L 96.098409 50.570562 
L 93.039425 55.990724 
L 88.564363 64.318194 
L 84.988764 71.138382 
L 88.305701 64.603681 
L 93.301971 54.451924 
L 96.068353 48.377983 
L 97.163163 45.518936 
L 97.29684 44.741486 
L 97.200628 44.716726 
L 96.88796 45.037241 
L 96.038659 46.350803 
L 94.309662 49.527288 
L 91.584595 55.04719 
L 86.860502 65.218672 
L 88.372391 61.537445 
L 91.46475 53.700157 
L 92.434901 50.732072 
L 92.461056 50.139777 
L 92.297905 50.276622 
L 91.766436 51.134308 
L 90.435429 53.793594 
L 88.810608 56.958401 
L 88.270582 57.612272 
L 87.56214 59.207047 
L 86.028384 63.271291 
L 80.799868 78.690058 
L 80.433386 79.80593 
L 82.595637 72.921518 
L 86.198107 60.888778 
L 86.739227 58.390113 
L 86.7154 58.371018 
L 86.671397 58.420826 
L 86.359788 59.147188 
L 85.338111 62.237174 
L 83.667928 68.019967 
L 80.964762 77.702919 
L 82.234701 72.716504 
L 85.241068 60.373499 
L 85.982758 56.392049 
L 85.976265 55.539847 
L 85.866348 55.598546 
L 85.428568 56.149676 
L 85.389357 56.039629 
L 85.398247 55.230459 
L 85.490143 52.126054 
L 85.39672 52.045485 
L 85.354473 52.079769 
L 85.162191 52.457522 
L 84.719619 53.927293 
L 83.911744 57.520988 
L 82.7942 63.59687 
L 81.732445 70.041097 
L 81.859802 68.732554 
L 82.524343 61.934827 
L 82.504139 61.911426 
L 82.460938 61.983683 
L 82.323688 62.671792 
L 81.578826 68.314335 
L 80.410303 78.905395 
L 80.338467 79.633418 
L 80.700688 74.883962 
L 80.897625 70.85407 
L 80.834581 71.305714 
L 80.505637 75.710947 
L 80.446527 76.531324 
L 80.497408 74.301715 
L 80.66437 63.826675 
L 80.564536 60.918322 
L 80.506122 60.789503 
L 80.456986 60.887488 
L 80.345861 61.767785 
L 80.277481 63.994907 
L 80.204948 73.633647 
L 80.25547 79.363544 
L 80.10767 77.802722 
L 79.645966 73.47944 
L 79.639185 73.585994 
L 79.782952 75.606546 
L 80.134915 79.132389 
L 79.785899 76.880115 
L 79.441749 75.15937 
L 79.560996 76.204781 
L 80.174665 79.748567 
L 79.580448 76.956012 
L 77.677404 68.73151 
L 76.927575 66.022578 
L 76.929854 66.188877 
L 77.352246 68.295521 
L 79.008718 75.316573 
L 79.819985 78.555198 
L 78.830743 75.041826 
L 75.980013 65.420167 
L 74.866278 62.201433 
L 74.82326 62.1801 
L 74.81061 62.259245 
L 74.947937 63.019608 
L 76.858476 69.558089 
L 79.537332 78.098133 
L 78.639879 75.783185 
L 78.658568 75.885178 
L 79.440975 78.209491 
L 80.252322 80.215291 
L 79.09673 77.605649 
L 75.372513 69.601729 
L 73.738543 66.454267 
L 73.739913 66.479256 
L 74.050547 67.280538 
L 75.966235 71.474683 
L 79.820362 79.377391 
L 80.237602 80.198001 
L 78.476769 76.965284 
L 78.3333 76.743372 
L 79.303159 78.573463 
L 80.225746 80.190058 
L 79.099957 78.421313 
L 77.574089 76.187804 
L 80.210992 80.181958 
L 79.298283 78.914175 
L 75.20556 73.472153 
L 74.266514 72.366679 
L 74.5167 72.77333 
L 76.655489 75.678122 
L 78.263681 77.790447 
L 77.190119 76.550617 
L 74.912146 74.024988 
L 75.016662 74.192652 
L 76.579999 76.132186 
L 75.463748 74.960868 
L 66.781907 65.792343 
L 63.575357 62.768072 
L 62.381222 61.884343 
L 62.265438 61.902341 
L 62.265125 61.947457 
L 62.445232 62.30954 
L 63.340865 63.505137 
L 64.75977 65.378651 
L 64.72413 65.381383 
L 64.319038 65.144167 
L 61.972601 63.636296 
L 61.947695 63.758108 
L 62.24446 64.226677 
L 63.428305 65.795759 
L 63.274513 65.754805 
L 62.28107 65.13594 
L 59.563866 63.453941 
L 59.225531 63.415665 
L 59.285727 63.591445 
L 59.799984 64.206008 
L 61.460047 65.770601 
L 64.830924 68.611413 
L 68.796173 71.695278 
L 75.542297 76.851275 
L 74.304591 76.045033 
L 73.490676 75.556 
L 74.085454 76.032123 
L 77.80198 78.636479 
L 78.779231 79.303243 
L 76.661501 77.991318 
L 69.894343 73.951515 
L 63.927293 70.618252 
L 61.367383 69.496892 
L 60.612786 69.339146 
L 60.60023 69.459369 
L 60.939871 69.816902 
L 62.255016 70.800602 
L 66.781765 73.83975 
L 72.066244 76.589457 
L 70.776335 76.108446 
L 63.819528 73.452152 
L 63.305949 73.374142 
L 63.309683 73.400126 
L 63.463234 73.534958 
L 65.688234 74.57361 
L 71.394048 76.956243 
L 74.343605 78.159452 
L 73.474345 77.910492 
L 68.605215 76.496613 
L 68.604799 76.504458 
L 68.903895 76.647774 
L 71.403637 77.530401 
L 76.448279 79.16286 
L 74.255921 78.584177 
L 64.780975 76.154017 
L 61.377039 75.43527 
L 59.959471 75.352411 
L 59.244371 75.494891 
L 59.284477 75.613194 
L 59.725109 75.831105 
L 61.346612 76.32899 
L 64.029397 76.962214 
L 75.405315 79.334935 
L 80.160659 80.25801 
L 74.621976 79.29166 
L 62.170592 77.301094 
L 59.625391 77.092093 
L 59.585063 77.125186 
L 59.674761 77.177985 
L 60.568536 77.412245 
L 62.886193 77.837289 
L 75.187278 79.616141 
L 79.498835 80.185046 
L 74.535579 79.63578 
L 63.723613 78.599385 
L 60.51973 78.434614 
L 46.80778 78.715241 
L 43.765497 79.048239 
L 41.693774 79.480093 
L 40.6366 79.899797 
L 40.329749 80.218204 
L 40.37229 80.465192 
L 40.700193 80.733069 
L 41.526315 81.05939 
L 43.107202 81.418849 
L 45.645538 81.748788 
L 49.187951 81.96493 
L 54.308955 82.026112 
L 64.526739 81.888939 
L 74.27824 80.95308 
L 79.626254 80.359876 
L 74.564029 81.032297 
L 62.151937 82.848706 
L 59.56549 83.424684 
L 59.520413 83.47096 
L 59.60609 83.497083 
L 60.492402 83.459559 
L 63.415577 83.086272 
L 75.982909 81.038835 
L 80.148115 80.304385 
L 75.022849 81.30259 
L 63.218705 83.774298 
L 60.237404 84.540185 
L 59.157254 84.988802 
L 59.176437 85.080563 
L 59.215966 85.098993 
L 59.77202 85.172507 
L 61.151828 85.14463 
L 62.794583 84.888467 
L 70.413455 82.998301 
L 76.479656 81.390543 
L 74.228481 82.117689 
L 68.921468 83.937617 
L 68.794849 84.009788 
L 69.10095 83.963981 
L 71.716445 83.20227 
L 74.483843 82.354499 
L 73.569319 82.742884 
L 65.063811 86.26317 
L 63.160534 87.232677 
L 63.177043 87.287687 
L 63.24433 87.297076 
L 63.66767 87.207008 
L 67.103354 85.928161 
L 71.941927 84.038808 
L 71.235905 84.431376 
L 65.448618 87.526059 
L 63.275071 89.049072 
L 60.396084 91.180855 
L 60.346574 91.368948 
L 60.380677 91.382243 
L 60.712167 91.340627 
L 61.858967 90.919188 
L 64.428619 89.711826 
L 66.568693 88.519065 
L 74.339482 83.980984 
L 78.939852 81.152219 
L 76.750171 82.646363 
L 73.58891 84.93565 
L 73.679895 84.896627 
L 75.183939 83.920241 
L 75.98799 83.39022 
L 74.892546 84.240238 
L 64.265156 92.422659 
L 60.633911 95.542933 
L 59.275515 96.955475 
L 59.191462 97.214505 
L 59.20736 97.223195 
L 59.452747 97.174935 
L 60.36736 96.679631 
L 63.451986 94.743887 
L 63.349404 94.960035 
L 61.752417 97.102953 
L 61.869208 97.101115 
L 62.422331 96.79963 
L 64.744148 95.214832 
L 64.60018 95.484446 
L 63.070749 97.364591 
L 62.054295 98.80415 
L 62.060832 98.935533 
L 62.102606 98.938895 
L 62.409701 98.783327 
L 63.416135 97.98076 
L 65.67549 95.87761 
L 68.639596 92.882781 
L 76.385083 84.640887 
L 75.139459 86.158839 
L 74.36941 87.167447 
L 74.868048 86.665925 
L 77.841542 83.249221 
L 78.429956 82.567145 
L 77.213581 84.158461 
L 74.090074 88.415051 
L 74.06056 88.4854 
L 74.296802 88.245151 
L 76.198341 85.827238 
L 80.194624 80.401616 
L 78.117256 83.485687 
L 77.389801 84.668582 
L 80.212027 80.392685 
L 79.813842 81.078257 
L 78.315657 83.84868 
L 80.20683 80.42173 
L 79.424958 81.972002 
L 75.743842 89.582937 
L 73.873631 93.841918 
L 73.879577 93.851064 
L 73.922867 93.802623 
L 74.490331 92.755553 
L 76.899977 87.756207 
L 80.266091 80.312629 
L 79.214306 83.056869 
L 78.703281 84.619656 
L 79.425146 82.786371 
L 79.428458 82.781726 
L 79.348354 83.05074 
L 75.716122 94.861531 
L 74.823921 98.337274 
L 74.845973 98.385603 
L 74.921232 98.296679 
L 75.190019 97.668239 
L 77.158151 91.297849 
L 79.73213 82.344465 
L 78.793099 86.130419 
L 77.067895 93.679923 
L 76.969188 94.39965 
L 77.136954 93.911664 
L 78.027506 90.421165 
L 79.873613 82.253359 
L 80.146419 80.956133 
L 79.635621 83.893047 
L 79.475707 85.174197 
L 79.79163 83.611476 
L 80.142255 81.369554 
L 79.932418 83.401136 
L 79.702573 86.473394 
L 79.818402 85.702576 
L 80.260359 81.013809 
L 80.231377 83.061528 
L 80.223854 92.796324 
L 80.394462 99.253652 
L 80.50501 99.674621 
L 80.540162 99.611206 
L 80.623452 98.936505 
L 80.6535 97.162762 
L 80.529205 87.77063 
L 80.433837 83.792025 
L 80.605134 86.331671 
L 80.880003 89.436989 
L 80.859297 88.425501 
L 80.453986 82.361985 
L 80.331686 80.855566 
L 80.788226 85.341263 
L 81.985694 95.553426 
L 82.499269 98.703871 
L 82.510383 98.700138 
L 82.539806 98.471365 
L 82.44961 97.314356 
L 81.700197 90.33631 
L 82.112102 92.751032 
L 83.734158 102.187379 
L 84.729839 106.693373 
L 85.271606 108.318207 
L 85.415396 108.419072 
L 85.430376 108.402619 
L 85.497669 108.089781 
L 85.471735 106.773949 
L 85.419174 104.366299 
L 85.532425 104.456925 
L 85.953808 104.992539 
L 85.987927 104.931251 
L 85.994226 104.48102 
L 85.763839 102.879145 
L 84.932406 98.850018 
L 83.478221 92.847559 
L 80.940249 82.771034 
L 82.30482 87.714694 
L 85.678397 99.445383 
L 86.671924 102.191298 
L 86.73368 102.251214 
L 86.750274 102.157447 
L 86.602014 101.320637 
L 85.718966 97.944564 
L 82.769389 88.207747 
L 80.506416 80.981262 
L 82.36918 86.590058 
L 86.784613 99.370397 
L 88.162094 102.728526 
L 88.641393 103.449548 
L 88.947384 103.794972 
L 89.603287 105.05356 
L 92.179579 110.14847 
L 92.466059 110.432601 
L 92.482754 110.420218 
L 92.494183 110.182172 
L 92.226059 109.117184 
L 91.245399 106.293536 
L 88.98816 100.552034 
L 86.520416 94.587067 
L 87.896532 97.595637 
L 92.738098 107.904092 
L 95.350012 112.991007 
L 96.784077 115.358583 
L 97.21104 115.751949 
L 97.253662 115.616015 
L 97.135281 115.038365 
L 96.483599 113.225926 
L 94.851411 109.450152 
L 92.001033 103.420813 
L 87.916234 95.195587 
L 85.024482 89.49096 
L 88.783285 96.663613 
L 94.28322 106.817244 
L 97.41997 112.185446 
L 98.986652 114.490054 
L 99.408192 114.853306 
L 99.446573 114.721177 
L 99.28291 114.130721 
L 98.48603 112.292273 
L 96.624214 108.609245 
L 93.05717 102.082363 
L 91.296437 98.892662 
L 91.875333 99.760573 
L 98.016915 109.337395 
L 100.290056 112.476138 
L 100.989493 113.146195 
L 101.040153 113.046516 
L 100.864958 112.504762 
L 100.111099 110.988518 
L 98.071126 107.459126 
L 94.433378 101.641279 
L 88.997308 93.331289 
L 81.012695 81.366748 
L 87.908788 91.505047 
L 95.306847 102.156883 
L 99.406223 107.686708 
L 101.166957 109.7412 
L 101.48533 109.917367 
L 101.492249 109.88831 
L 101.382047 109.542844 
L 100.674258 108.268267 
L 98.656482 105.174067 
L 94.576779 99.398707 
L 88.534558 91.23358 
L 81.472117 81.847735 
L 87.277894 89.400563 
L 95.611163 100.032827 
L 99.382305 104.517905 
L 100.815956 105.942742 
L 100.908534 105.960574 
L 100.915025 105.903646 
L 100.666457 105.403488 
L 99.468936 103.660403 
L 96.576667 99.887718 
L 92.118231 94.38087 
L 81.163214 81.3176 
L 86.621622 87.665093 
L 96.222982 98.615529 
L 100.333196 102.971346 
L 102.005965 104.469258 
L 102.211173 104.51614 
L 102.214068 104.489215 
L 102.047445 104.126788 
L 101.196139 102.939452 
L 98.809681 100.057423 
L 94.292165 94.996653 
L 88.145835 88.41943 
L 91.30813 91.579255 
L 96.558849 96.713179 
L 100.081035 99.876879 
L 101.419695 100.842334 
L 101.606816 100.845336 
L 101.608632 100.821635 
L 101.486707 100.552997 
L 100.740983 99.599235 
L 98.737543 97.450172 
L 94.924077 93.701256 
L 89.052376 88.250226 
L 84.245262 83.83814 
L 87.666514 86.842415 
L 97.320344 95.17567 
L 101.487547 98.473954 
L 102.959607 99.422314 
L 103.08765 99.409876 
L 103.073263 99.349811 
L 102.727573 98.895912 
L 101.254786 97.434935 
L 97.207717 93.727466 
L 97.879248 94.15468 
L 104.81121 98.89183 
L 105.611147 99.22849 
L 105.609979 99.130029 
L 105.217255 98.670491 
L 103.719092 97.342756 
L 100.243522 94.587118 
L 93.609363 89.609736 
L 95.613417 90.92786 
L 101.618816 94.710061 
L 102.550349 95.140026 
L 102.553118 95.121965 
L 102.304076 94.857826 
L 100.877011 93.767105 
L 96.651469 90.856037 
L 89.227772 86.013331 
L 85.81064 83.794893 
L 89.999718 86.41505 
L 101.908363 93.745333 
L 109.070697 97.884698 
L 113.506275 100.203578 
L 115.947948 101.249793 
L 116.939046 101.467798 
L 117.213812 101.353111 
L 117.286594 101.031956 
L 117.433328 100.843134 
L 117.774316 100.82023 
L 118.697429 101.017936 
L 123.177057 102.149681 
L 123.665019 102.061306 
L 123.759133 101.873289 
L 123.632299 101.543439 
L 123.074712 100.877198 
L 122.024597 99.645033 
L 122.090151 99.48715 
L 122.413178 99.414989 
L 123.565922 99.487987 
L 124.870811 99.508236 
L 125.186491 99.348506 
L 125.188735 99.120305 
L 124.913294 98.745476 
L 124.063689 98.04596 
L 122.012848 96.704715 
L 120.474069 95.612833 
L 120.439509 95.400731 
L 120.690585 95.324217 
L 122.34411 95.056798 
L 122.222153 94.839262 
L 121.669188 94.41815 
L 120.266669 93.663364 
L 117.3831 92.392659 
L 112.644386 90.558344 
L 105.903664 88.035273 
L 106.040967 88.024662 
L 108.212798 88.283367 
L 108.0572 88.164447 
L 107.076912 87.760939 
L 103.92503 86.723592 
L 98.350549 85.024753 
L 99.686443 85.311393 
L 109.444448 87.476489 
L 112.439427 87.941631 
L 112.748739 87.888056 
L 112.734303 87.863494 
L 112.364832 87.672557 
L 110.622593 87.113149 
L 105.85734 85.873964 
L 99.186595 84.280385 
L 100.745837 84.557408 
L 113.596583 86.921145 
L 119.673587 87.828836 
L 123.224498 88.15172 
L 124.384543 88.082616 
L 124.496262 87.933206 
L 124.257777 87.751875 
L 123.223223 87.357588 
L 120.685094 86.682742 
L 115.607297 85.609524 
L 110.162048 84.50479 
L 110.376276 84.497097 
L 113.496452 84.745843 
L 117.990443 85.017864 
L 119.063798 84.90915 
L 119.025174 84.831613 
L 118.578672 84.659086 
L 116.776904 84.270158 
L 112.74263 83.646275 
L 105.510564 82.754404 
L 94.797052 81.613081 
L 99.431969 81.99091 
L 109.254061 82.633603 
L 111.659295 82.614121 
L 112.293859 82.442338 
L 115.571035 82.510189 
L 130.022434 82.867602 
L 137.482396 82.829964 
L 143.452222 82.587125 
L 147.783952 82.201783 
L 150.825659 81.720604 
L 152.662044 81.220534 
L 153.547717 80.778669 
L 153.855056 80.416569 
L 153.87999 80.28 
L 153.87999 80.28 
" clip-path="url(#pc3f67fa128)" style="fill: none; stroke: #000000; stroke-width: 0.75; stroke-linecap: square"/>
   </g>
   <g id="line2d_10">
    <path d="M 153.663829 80.28 
L 151.447762 79.037762 
L 144.212412 78.047431 
L 129.679305 77.691092 
L 114.516513 77.88595 
L 101.108697 78.457725 
L 114.564677 76.676535 
L 119.625475 75.448983 
L 111.856823 75.842167 
L 120.557032 73.900745 
L 124.483215 72.48578 
L 118.343377 72.881229 
L 99.385403 76.219021 
L 111.673375 73.032268 
L 107.354875 73.529476 
L 101.223838 74.668115 
L 108.911958 72.069918 
L 107.570946 71.93632 
L 116.601914 68.478295 
L 121.945277 65.933495 
L 121.71268 65.199738 
L 120.635558 64.788953 
L 123.520533 62.809691 
L 125.071144 61.267287 
L 122.054794 60.800094 
L 123.189825 59.35148 
L 123.014992 58.505434 
L 117.499928 59.648657 
L 116.83621 59.174262 
L 113.147301 60.531333 
L 101.06888 67.289666 
L 98.406114 68.508764 
L 101.868635 65.718282 
L 95.791536 69.418706 
L 103.258058 63.585464 
L 105.212683 61.491876 
L 100.201443 64.715663 
L 100.014708 64.299148 
L 103.155159 61.085462 
L 99.469257 63.599034 
L 87.84179 73.471334 
L 98.434654 63.350512 
L 101.409597 59.875385 
L 99.377231 61.182769 
L 90.333553 69.869241 
L 99.270669 59.915 
L 102.147315 55.993886 
L 92.530424 65.680513 
L 100.890649 54.827968 
L 97.803505 57.850937 
L 88.741409 69.051332 
L 101.089354 51.638381 
L 100.070102 52.016806 
L 81.259185 78.828298 
L 99.573055 50.571301 
L 100.683392 47.627748 
L 94.086341 57.30239 
L 96.606512 52.001652 
L 99.415222 45.759146 
L 95.716147 51.24883 
L 90.314098 60.586973 
L 96.909148 46.185194 
L 96.123469 46.30357 
L 89.832333 58.825109 
L 90.432956 56.361135 
L 92.300934 50.527144 
L 90.327814 54.104548 
L 86.877347 61.119912 
L 80.775579 78.754764 
L 86.169214 61.01725 
L 86.170799 59.736342 
L 80.900485 77.964317 
L 84.863361 61.897144 
L 85.811065 56.322324 
L 85.24709 56.911681 
L 85.256739 54.676899 
L 84.964448 53.713176 
L 83.624053 59.166482 
L 81.709812 70.10636 
L 82.51686 62.062236 
L 81.286617 70.702679 
L 80.340254 79.591291 
L 80.784253 73.068848 
L 80.571602 74.715906 
L 80.514511 73.564476 
L 80.5977 62.079001 
L 80.28 64.507471 
L 80.239488 79.119886 
L 80.187643 78.517715 
L 79.693542 73.576752 
L 79.706002 74.818771 
L 80.0932 78.950848 
L 79.414142 75.369475 
L 80.033965 79.014262 
L 79.419308 76.230761 
L 77.07343 66.39082 
L 77.831374 70.459098 
L 79.537834 77.5102 
L 77.060365 69.051799 
L 75.58604 64.926747 
L 79.492816 77.993851 
L 78.728934 76.01848 
L 79.154965 77.349183 
L 80.270969 80.258724 
L 78.786623 76.92582 
L 75.948002 70.990001 
L 77.605461 74.796383 
L 79.969445 79.670502 
L 79.317261 78.469352 
L 79.009555 77.988056 
L 80.244728 80.221298 
L 79.94367 79.74176 
L 78.801111 78.00271 
L 80.023026 79.913003 
L 76.979724 75.73756 
L 74.879594 73.113419 
L 77.946636 77.398536 
L 75.013789 74.003974 
L 77.393111 77.073785 
L 66.372654 65.366197 
L 62.700261 62.075647 
L 63.620752 63.620752 
L 65.83062 66.326396 
L 63.053239 64.215786 
L 61.936982 63.763872 
L 63.901088 66.042029 
L 62.120764 65.042592 
L 59.02689 63.069571 
L 59.816705 64.292321 
L 65.286514 68.981598 
L 74.157949 75.832069 
L 70.053292 73.119182 
L 74.370357 76.293896 
L 78.353935 79.029199 
L 72.209029 75.236697 
L 64.952382 71.070238 
L 61.848822 69.638754 
L 59.961987 69.017541 
L 60.819785 69.93282 
L 62.481021 71.210967 
L 62.466942 71.591991 
L 64.912097 73.113829 
L 70.736551 76.030983 
L 65.602844 74.049917 
L 62.051002 72.915007 
L 63.305003 73.763909 
L 73.598162 77.979259 
L 72.92291 77.889537 
L 77.131472 79.377174 
L 65.777411 76.394043 
L 60.256788 75.287653 
L 59.179765 75.408627 
L 60.760059 76.130908 
L 76.417394 79.529185 
L 74.723696 79.300274 
L 60.104067 77.084446 
L 65.962964 78.267872 
L 78.63005 80.077412 
L 63.165107 78.481152 
L 54.683423 78.490113 
L 47.960205 78.586191 
L 43.870944 79.008568 
L 41.582696 79.604536 
L 40.778581 80.28 
L 41.592312 80.955296 
L 43.849232 81.55219 
L 47.921572 81.975833 
L 63.147347 82.080714 
L 78.66572 80.478209 
L 66.307937 82.243645 
L 60.185534 83.462651 
L 76.392625 81.035629 
L 60.788963 84.422948 
L 59.292364 85.125378 
L 60.320332 85.256504 
L 65.93119 84.124752 
L 77.198214 81.163688 
L 77.051221 81.267137 
L 72.857351 82.691765 
L 73.575479 82.588552 
L 71.340365 83.533761 
L 63.309599 86.794326 
L 62.054667 87.643512 
L 65.201141 86.680596 
L 70.580754 84.598383 
L 65.280241 87.274502 
L 62.605401 88.900478 
L 62.663652 89.255977 
L 60.881322 90.59446 
L 59.860422 91.598757 
L 61.776012 90.963282 
L 64.95942 89.485533 
L 72.313641 85.257934 
L 78.545652 81.406298 
L 74.738993 84.017457 
L 70.470069 87.148988 
L 74.363972 84.578246 
L 65.412168 91.483715 
L 59.845691 96.245032 
L 59.005951 97.507385 
L 63.879068 94.537113 
L 61.903033 96.826695 
L 62.972783 96.419241 
L 65.800864 94.262339 
L 63.655612 96.904388 
L 62.712781 98.471387 
L 66.271512 95.302264 
L 77.172197 83.731565 
L 75.423707 86.067504 
L 78.06004 83.021422 
L 74.367326 88.126384 
L 76.61229 85.328169 
L 80.030731 80.635993 
L 79.528592 81.394007 
L 78.878511 82.438104 
L 80.258515 80.315756 
L 79.997877 80.768651 
L 78.965267 82.651841 
L 80.011656 80.806654 
L 77.77832 85.409204 
L 76.028562 89.397238 
L 80.278205 80.28423 
L 79.757042 81.574367 
L 78.651947 84.753038 
L 79.398672 82.839562 
L 78.331982 86.275382 
L 75.597567 95.595549 
L 77.021369 91.644195 
L 79.483452 83.252758 
L 77.777054 90.318766 
L 77.036718 94.328199 
L 80.034484 81.543072 
L 79.426691 85.119358 
L 80.116186 81.614154 
L 79.702316 86.882963 
L 80.244713 81.290479 
L 80.210811 84.243845 
L 80.28 96.046724 
L 80.594743 98.311607 
L 80.581147 86.02622 
L 80.794937 87.643944 
L 80.344508 81.017335 
L 81.296009 89.946682 
L 82.517825 98.505626 
L 81.695416 90.351208 
L 83.618183 101.356456 
L 84.965261 106.851433 
L 85.266996 105.935872 
L 85.277908 103.79331 
L 85.839742 104.361887 
L 84.888138 98.762231 
L 80.892389 82.565468 
L 86.171845 100.827305 
L 86.195482 99.628669 
L 80.829443 81.971011 
L 86.92179 99.569158 
L 90.349347 106.511547 
L 92.329546 110.103674 
L 90.509732 104.379738 
L 89.820523 101.708366 
L 96.123143 114.25573 
L 96.916568 114.39002 
L 90.369252 100.081272 
L 95.689516 109.261084 
L 99.431615 114.830427 
L 96.627836 108.595283 
L 94.057863 103.210214 
L 100.670983 112.912394 
L 99.600382 110.030779 
L 81.231837 81.691157 
L 100.054759 108.521282 
L 101.073942 108.900406 
L 88.958421 91.796654 
L 97.769757 102.665868 
L 100.907842 105.753263 
L 92.539661 94.890495 
L 96.591344 99.044055 
L 102.134342 104.551706 
L 99.319479 100.697341 
L 90.411626 90.771606 
L 99.402754 99.402754 
L 101.459006 100.732328 
L 98.522697 97.29159 
L 87.450627 86.736462 
L 99.475339 96.966254 
L 103.216382 99.52591 
L 100.115141 96.342181 
L 100.236058 95.871381 
L 105.228608 99.080124 
L 103.246405 96.96607 
L 95.761679 91.120388 
L 101.836757 94.820216 
L 98.352401 92.016355 
L 101.082917 93.279105 
L 113.18624 100.052064 
L 116.833907 101.384408 
L 117.471294 100.895471 
L 123.04405 102.069372 
L 123.199262 101.213123 
L 122.025454 99.746225 
L 125.0925 99.301778 
L 123.549009 97.761815 
L 120.624863 95.766942 
L 121.677173 95.347339 
L 121.951052 94.628494 
L 116.634491 92.09229 
L 107.548287 88.616752 
L 108.837121 88.468623 
L 101.290768 85.909818 
L 107.315172 87.020625 
L 111.748149 87.544995 
L 99.489135 84.363028 
L 118.352593 87.680562 
L 124.490994 88.075591 
L 120.558367 86.659467 
L 111.853749 84.717401 
L 119.653949 85.114513 
L 114.580884 83.885168 
L 101.218992 82.111924 
L 114.550967 82.676459 
L 129.700536 82.870021 
L 144.217341 82.512741 
L 151.445296 81.522195 
L 153.663825 80.28 
L 153.663825 80.28 
" clip-path="url(#pc3f67fa128)" style="fill: none; stroke-dasharray: 2.775,1.2; stroke-dashoffset: 0; stroke: #ff0000; stroke-width: 0.75"/>
   </g>
   <g id="patch_3">
    <path d="M 157.55976 80.28 
C 157.55976 70.131715 155.560769 60.082109 151.677189 50.706316 
C 147.793608 41.330523 142.100964 32.810879 134.925042 25.634958 
C 127.749121 18.459036 119.229477 12.766392 109.853684 8.882811 
C 100.477891 4.999231 90.428285 3.00024 80.28 3.00024 
C 70.131715 3.00024 60.082109 4.999231 50.706316 8.882811 
C 41.330523 12.766392 32.810879 18.459036 25.634958 25.634958 
C 18.459036 32.810879 12.766392 41.330523 8.882811 50.706316 
C 4.999231 60.082109 3.00024 70.131715 3.00024 80.28 
C 3.00024 90.428285 4.999231 100.477891 8.882811 109.853684 
C 12.766392 119.229477 18.459036 127.749121 25.634958 134.925042 
C 32.810879 142.100964 41.330523 147.793608 50.706316 151.677189 
C 60.082109 155.560769 70.131715 157.55976 80.28 157.55976 
C 90.428285 157.55976 100.477891 155.560769 109.853684 151.677189 
C 119.229477 147.793608 127.749121 142.100964 134.925042 134.925042 
C 142.100964 127.749121 147.793608 119.229477 151.677189 109.853684 
C 155.560769 100.477891 157.55976 90.428285 157.55976 80.28 
" style="fill: none; stroke: #000000; stroke-width: 0.8; stroke-linejoin: miter; stroke-linecap: square"/>
   </g>
  </g>
 </g>
 <defs>
  <clipPath id="pc3f67fa128">
   <path d="M 157.55976 80.28 
C 157.55976 70.131715 155.560769 60.082109 151.677189 50.706316 
C 147.793608 41.330523 142.100964 32.810879 134.925042 25.634958 
C 127.749121 18.459036 119.229477 12.766392 109.853684 8.882811 
C 100.477891 4.999231 90.428285 3.00024 80.28 3.00024 
C 70.131715 3.00024 60.082109 4.999231 50.706316 8.882811 
C 41.330523 12.766392 32.810879 18.459036 25.634958 25.634958 
C 18.459036 32.810879 12.766392 41.330523 8.882811 50.706316 
C 4.999231 60.082109 3.00024 70.131715 3.00024 80.28 
C 3.00024 90.428285 4.999231 100.477891 8.882811 109.853684 
C 12.766392 119.229477 18.459036 127.749121 25.634958 134.925042 
C 32.810879 142.100964 41.330523 147.793608 50.706316 151.677189 
C 60.082109 155.560769 70.131715 157.55976 80.28 157.55976 
C 90.428285 157.55976 100.477891 155.560769 109.853684 151.677189 
C 119.229477 147.793608 127.749121 142.100964 134.925042 134.925042 
C 142.100964 127.749121 147.793608 119.229477 151.677189 109.853684 
C 155.560769 100.477891 157.55976 90.428285 157.55976 80.28 
M 80.28 80.28 
C 80.28 80.28 80.28 80.28 80.28 80.28 
C 80.28 80.28 80.28 80.28 80.28 80.28 
C 80.28 80.28 80.28 80.28 80.28 80.28 
C 80.28 80.28 80.28 80.28 80.28 80.28 
C 80.28 80.28 80.28 80.28 80.28 80.28 
C 80.28 80.28 80.28 80.28 80.28 80.28 
C 80.28 80.28 80.28 80.28 80.28 80.28 
C 80.28 80.28 80.28 80.28 80.28 80.28 
C 80.28 80.28 80.28 80.28 80.28 80.28 
C 80.28 80.28 80.28 80.28 80.28 80.28 
C 80.28 80.28 80.28 80.28 80.28 80.28 
C 80.28 80.28 80.28 80.28 80.28 80.28 
C 80.28 80.28 80.28 80.28 80.28 80.28 
C 80.28 80.28 80.28 80.28 80.28 80.28 
C 80.28 80.28 80.28 80.28 80.28 80.28 
C 80.28 80.28 80.28 80.28 80.28 80.28 
M 157.55976 80.28 
z
"/>
  </clipPath>
 </defs>
</svg>
