<?xml version="1.0" encoding="utf-8" standalone="no"?>
<!DOCTYPE svg PUBLIC "-//W3C//DTD SVG 1.1//EN"
  "http://www.w3.org/Graphics/SVG/1.1/DTD/svg11.dtd">
<svg xmlns:xlink="http://www.w3.org/1999/xlink" width="160.56pt" height="160.56pt" viewBox="0 0 160.56 160.56" xmlns="http://www.w3.org/2000/svg" version="1.1">
 <metadata>
  <rdf:RDF xmlns:dc="http://purl.org/dc/elements/1.1/" xmlns:cc="http://creativecommons.org/ns#" xmlns:rdf="http://www.w3.org/1999/02/22-rdf-syntax-ns#">
   <cc:Work>
    <dc:type rdf:resource="http://purl.org/dc/dcmitype/StillImage"/>
    <dc:date>2025-09-23T15:33:54.480936</dc:date>
    <dc:format>image/svg+xml</dc:format>
    <dc:creator>
     <cc:Agent>
      <dc:title>Matplotlib v3.6.3, https://matplotlib.org/</dc:title>
     </cc:Agent>
    </dc:creator>
   </cc:Work>
  </rdf:RDF>
 </metadata>
 <defs>
  <style type="text/css">*{stroke-linejoin: round; stroke-linecap: butt}</style>
 </defs>
 <g id="figure_1">
  <g id="patch_1">
   <path d="M 0 160.56 
L 160.56 160.56 
L 160.56 0 
L 0 0 
z
" style="fill: #ffffff"/>
  </g>
  <g id="axes_1">
   <g id="patch_2">
    <path d="M 157.55976 80.28 
C 157.55976 70.131715 155.560769 60.082109 151.677189 50.706316 
C 147.793608 41.330523 142.100964 32.810879 134.925042 25.634958 
C 127.749121 18.459036 119.229477 12.766392 109.853684 8.882811 
C 100.477891 4.999231 90.428285 3.00024 80.28 3.00024 
C 70.131715 3.00024 60.082109 4.999231 50.706316 8.882811 
C 41.330523 12.766392 32.810879 18.459036 25.634958 25.634958 
C 18.459036 32.810879 12.766392 41.330523 8.882811 50.706316 
C 4.999231 60.082109 3.00024 70.131715 3.00024 80.28 
C 3.00024 90.428285 4.999231 100.477891 8.882811 109.853684 
C 12.766392 119.229477 18.459036 127.749121 25.634958 134.925042 
C 32.810879 142.100964 41.330523 147.793608 50.706316 151.677189 
C 60.082109 155.560769 70.131715 157.55976 80.28 157.55976 
C 90.428285 157.55976 100.477891 155.560769 109.853684 151.677189 
C 119.229477 147.793608 127.749121 142.100964 134.925042 134.925042 
C 142.100964 127.749121 147.793608 119.229477 151.677189 109.853684 
C 155.560769 100.477891 157.55976 90.428285 157.55976 80.28 
M 80.28 80.28 
C 80.28 80.28 80.28 80.28 80.28 80.28 
C 80.28 80.28 80.28 80.28 80.28 80.28 
C 80.28 80.28 80.28 80.28 80.28 80.28 
C 80.28 80.28 80.28 80.28 80.28 80.28 
C 80.28 80.28 80.28 80.28 80.28 80.28 
C 80.28 80.28 80.28 80.28 80.28 80.28 
C 80.28 80.28 80.28 80.28 80.28 80.28 
C 80.28 80.28 80.28 80.28 80.28 80.28 
C 80.28 80.28 80.28 80.28 80.28 80.28 
C 80.28 80.28 80.28 80.28 80.28 80.28 
C 80.28 80.28 80.28 80.28 80.28 80.28 
C 80.28 80.28 80.28 80.28 80.28 80.28 
C 80.28 80.28 80.28 80.28 80.28 80.28 
C 80.28 80.28 80.28 80.28 80.28 80.28 
C 80.28 80.28 80.28 80.28 80.28 80.28 
C 80.28 80.28 80.28 80.28 80.28 80.28 
M 157.55976 80.28 
z
" style="fill: #ffffff"/>
   </g>
   <g id="matplotlib.axis_1">
    <g id="xtick_1">
     <g id="line2d_1">
      <path d="M 80.28 80.28 
L 134.925042 25.634958 
" clip-path="url(#p6c6558cdd0)" style="fill: none; stroke: #b0b0b0; stroke-width: 0.8; stroke-linecap: square"/>
     </g>
     <g id="text_1">
      <!-- $\pi/4$ -->
      <g transform="translate(136.824995 18.226123) scale(0.1 -0.1)">
       <defs>
        <path id="CMMI12-19" d="M 1658 2406 
L 2381 2406 
C 2208 1691 2099 1225 2099 715 
C 2099 625 2099 -64 2362 -64 
C 2496 -64 2611 57 2611 166 
C 2611 198 2611 210 2566 306 
C 2394 746 2394 1295 2394 1340 
C 2394 1378 2394 1832 2528 2406 
L 3245 2406 
C 3328 2406 3539 2406 3539 2611 
C 3539 2752 3418 2752 3302 2752 
L 1197 2752 
C 1050 2752 832 2752 538 2438 
C 371 2253 166 1915 166 1876 
C 166 1838 198 1825 237 1825 
C 282 1825 288 1844 320 1883 
C 653 2406 986 2406 1146 2406 
L 1510 2406 
C 1370 1927 1210 1372 685 255 
C 634 153 634 140 634 102 
C 634 -32 749 -64 806 -64 
C 992 -64 1043 102 1120 370 
C 1222 695 1222 708 1286 964 
L 1658 2406 
z
" transform="scale(0.015625)"/>
        <path id="CMMI12-3d" d="M 2746 4563 
C 2746 4569 2784 4665 2784 4678 
C 2784 4755 2720 4800 2669 4800 
C 2637 4800 2579 4800 2528 4659 
L 384 -1364 
C 384 -1370 346 -1466 346 -1479 
C 346 -1556 410 -1600 461 -1600 
C 499 -1600 557 -1594 602 -1460 
L 2746 4563 
z
" transform="scale(0.015625)"/>
        <path id="CMR17-34" d="M 2150 4147 
C 2150 4281 2144 4288 2029 4288 
L 128 1254 
L 128 1088 
L 1779 1088 
L 1779 460 
C 1779 230 1766 166 1318 166 
L 1197 166 
L 1197 0 
C 1402 12 1747 12 1965 12 
C 2182 12 2528 12 2733 0 
L 2733 166 
L 2611 166 
C 2163 166 2150 230 2150 460 
L 2150 1088 
L 2803 1088 
L 2803 1254 
L 2150 1254 
L 2150 4147 
z
M 1798 3723 
L 1798 1254 
L 256 1254 
L 1798 3723 
z
" transform="scale(0.015625)"/>
       </defs>
       <use xlink:href="#CMMI12-19" transform="scale(0.996264)"/>
       <use xlink:href="#CMMI12-3d" transform="translate(58.910601 0) scale(0.996264)"/>
       <use xlink:href="#CMR17-34" transform="translate(107.68552 0) scale(0.996264)"/>
      </g>
     </g>
    </g>
    <g id="xtick_2">
     <g id="line2d_2">
      <path d="M 80.28 80.28 
L 25.634958 25.634958 
" clip-path="url(#p6c6558cdd0)" style="fill: none; stroke: #b0b0b0; stroke-width: 0.8; stroke-linecap: square"/>
     </g>
     <g id="text_2">
      <!-- $3\pi/4$ -->
      <g transform="translate(5.245252 18.226123) scale(0.1 -0.1)">
       <defs>
        <path id="CMR17-33" d="M 1414 2176 
C 1984 2176 2234 1673 2234 1094 
C 2234 322 1824 25 1453 25 
C 1114 25 563 193 390 691 
C 422 678 454 678 486 678 
C 640 678 755 780 755 947 
C 755 1132 614 1216 486 1216 
C 378 1216 211 1164 211 927 
C 211 335 787 -128 1466 -128 
C 2176 -128 2720 432 2720 1087 
C 2720 1718 2208 2176 1600 2246 
C 2086 2347 2554 2776 2554 3353 
C 2554 3856 2048 4224 1472 4224 
C 890 4224 378 3862 378 3347 
C 378 3123 544 3084 627 3084 
C 762 3084 877 3167 877 3334 
C 877 3500 762 3584 627 3584 
C 602 3584 570 3584 544 3571 
C 730 3999 1235 4076 1459 4076 
C 1683 4076 2106 3966 2106 3347 
C 2106 3167 2080 2851 1862 2574 
C 1670 2329 1453 2316 1242 2297 
C 1210 2297 1062 2284 1037 2284 
C 992 2278 966 2272 966 2227 
C 966 2182 973 2176 1101 2176 
L 1414 2176 
z
" transform="scale(0.015625)"/>
       </defs>
       <use xlink:href="#CMR17-33" transform="scale(0.996264)"/>
       <use xlink:href="#CMMI12-19" transform="translate(45.690477 0) scale(0.996264)"/>
       <use xlink:href="#CMMI12-3d" transform="translate(104.601078 0) scale(0.996264)"/>
       <use xlink:href="#CMR17-34" transform="translate(153.375997 0) scale(0.996264)"/>
      </g>
     </g>
    </g>
    <g id="xtick_3">
     <g id="line2d_3">
      <path d="M 80.28 80.28 
L 25.634958 134.925042 
" clip-path="url(#p6c6558cdd0)" style="fill: none; stroke: #b0b0b0; stroke-width: 0.8; stroke-linecap: square"/>
     </g>
     <g id="text_3">
      <!-- $5\pi/4$ -->
      <g transform="translate(5.245252 147.315197) scale(0.1 -0.1)">
       <defs>
        <path id="CMR17-35" d="M 730 3750 
C 794 3724 1056 3641 1325 3641 
C 1920 3641 2246 3961 2432 4140 
C 2432 4191 2432 4224 2394 4224 
C 2387 4224 2374 4224 2323 4198 
C 2099 4102 1837 4032 1517 4032 
C 1325 4032 1037 4055 723 4191 
C 653 4224 640 4224 634 4224 
C 602 4224 595 4217 595 4090 
L 595 2231 
C 595 2113 595 2080 659 2080 
C 691 2080 704 2093 736 2139 
C 941 2435 1222 2560 1542 2560 
C 1766 2560 2246 2415 2246 1293 
C 2246 1087 2246 716 2054 422 
C 1894 159 1645 25 1370 25 
C 947 25 518 319 403 812 
C 429 806 480 793 506 793 
C 589 793 749 838 749 1036 
C 749 1209 627 1280 506 1280 
C 358 1280 262 1190 262 1011 
C 262 454 704 -128 1382 -128 
C 2042 -128 2669 441 2669 1267 
C 2669 2054 2170 2662 1549 2662 
C 1222 2662 947 2540 730 2304 
L 730 3750 
z
" transform="scale(0.015625)"/>
       </defs>
       <use xlink:href="#CMR17-35" transform="scale(0.996264)"/>
       <use xlink:href="#CMMI12-19" transform="translate(45.690477 0) scale(0.996264)"/>
       <use xlink:href="#CMMI12-3d" transform="translate(104.601078 0) scale(0.996264)"/>
       <use xlink:href="#CMR17-34" transform="translate(153.375997 0) scale(0.996264)"/>
      </g>
     </g>
    </g>
    <g id="xtick_4">
     <g id="line2d_4">
      <path d="M 80.28 80.28 
L 134.925042 134.925042 
" clip-path="url(#p6c6558cdd0)" style="fill: none; stroke: #b0b0b0; stroke-width: 0.8; stroke-linecap: square"/>
     </g>
     <g id="text_4">
      <!-- $7\pi/4$ -->
      <g transform="translate(134.334327 147.315197) scale(0.1 -0.1)">
       <defs>
        <path id="CMR17-37" d="M 2886 3955 
L 2886 4096 
L 1382 4096 
C 634 4096 621 4166 595 4288 
L 480 4288 
L 294 3104 
L 410 3104 
C 429 3226 474 3552 550 3673 
C 589 3724 1062 3724 1171 3724 
L 2579 3724 
L 1869 2670 
C 1395 1961 1069 1003 1069 166 
C 1069 89 1069 -128 1299 -128 
C 1530 -128 1530 89 1530 172 
L 1530 466 
C 1530 1514 1709 2204 2003 2644 
L 2886 3955 
z
" transform="scale(0.015625)"/>
       </defs>
       <use xlink:href="#CMR17-37" transform="scale(0.996264)"/>
       <use xlink:href="#CMMI12-19" transform="translate(45.690477 0) scale(0.996264)"/>
       <use xlink:href="#CMMI12-3d" transform="translate(104.601078 0) scale(0.996264)"/>
       <use xlink:href="#CMR17-34" transform="translate(153.375997 0) scale(0.996264)"/>
      </g>
     </g>
    </g>
   </g>
   <g id="matplotlib.axis_2">
    <g id="ytick_1">
     <g id="line2d_5">
      <path d="M 157.55976 80.28 
C 157.55976 70.131715 155.560769 60.082109 151.677189 50.706316 
C 147.793608 41.330523 142.100964 32.810879 134.925042 25.634958 
C 127.749121 18.459036 119.229477 12.766392 109.853684 8.882811 
C 100.477891 4.999231 90.428285 3.00024 80.28 3.00024 
C 70.131715 3.00024 60.082109 4.999231 50.706316 8.882811 
C 41.330523 12.766392 32.810879 18.459036 25.634958 25.634958 
C 18.459036 32.810879 12.766392 41.330523 8.882811 50.706316 
C 4.999231 60.082109 3.00024 70.131715 3.00024 80.28 
C 3.00024 90.428285 4.999231 100.477891 8.882811 109.853684 
C 12.766392 119.229477 18.459036 127.749121 25.634958 134.925042 
C 32.810879 142.100964 41.330523 147.793608 50.706316 151.677189 
C 60.082109 155.560769 70.131715 157.55976 80.28 157.55976 
C 90.428285 157.55976 100.477891 155.560769 109.853684 151.677189 
C 119.229477 147.793608 127.749121 142.100964 134.925042 134.925042 
C 142.100964 127.749121 147.793608 119.229477 151.677189 109.853684 
C 155.560769 100.477891 157.55976 90.428285 157.55976 80.28 
" clip-path="url(#p6c6558cdd0)" style="fill: none; stroke: #b0b0b0; stroke-width: 0.8; stroke-linecap: square"/>
     </g>
     <g id="text_5">
      <!-- $\mathdefault{1.37292\times10^{-2}}$ -->
      <g transform="translate(35.954151 141.646695) scale(0.1 -0.1)">
       <defs>
        <path id="CMR17-31" d="M 1702 4083 
C 1702 4217 1696 4224 1606 4224 
C 1357 3927 979 3833 621 3820 
C 602 3820 570 3820 563 3808 
C 557 3795 557 3782 557 3648 
C 755 3648 1088 3686 1344 3839 
L 1344 467 
C 1344 243 1331 166 781 166 
L 589 166 
L 589 0 
C 896 6 1216 12 1523 12 
C 1830 12 2150 6 2458 0 
L 2458 166 
L 2266 166 
C 1715 166 1702 236 1702 467 
L 1702 4083 
z
" transform="scale(0.015625)"/>
        <path id="CMMI12-3a" d="M 1178 307 
C 1178 492 1024 620 870 620 
C 685 620 557 467 557 313 
C 557 128 710 0 864 0 
C 1050 0 1178 153 1178 307 
z
" transform="scale(0.015625)"/>
        <path id="CMR17-32" d="M 2669 990 
L 2554 990 
C 2490 537 2438 460 2413 422 
C 2381 371 1920 371 1830 371 
L 602 371 
C 832 620 1280 1073 1824 1596 
C 2214 1966 2669 2400 2669 3033 
C 2669 3788 2067 4224 1395 4224 
C 691 4224 262 3603 262 3027 
C 262 2777 448 2745 525 2745 
C 589 2745 781 2783 781 3007 
C 781 3206 614 3264 525 3264 
C 486 3264 448 3257 422 3244 
C 544 3788 915 4057 1306 4057 
C 1862 4057 2227 3616 2227 3033 
C 2227 2477 1901 1998 1536 1583 
L 262 147 
L 262 0 
L 2515 0 
L 2669 990 
z
" transform="scale(0.015625)"/>
        <path id="CMR17-39" d="M 2253 1871 
C 2253 448 1670 25 1190 25 
C 1043 25 685 43 538 281 
C 704 256 826 345 826 505 
C 826 678 685 736 595 736 
C 538 736 365 710 365 492 
C 365 68 742 -128 1203 -128 
C 1939 -128 2688 665 2688 2090 
C 2688 3857 1971 4224 1485 4224 
C 851 4224 243 3664 243 2800 
C 243 2000 762 1408 1414 1408 
C 1952 1408 2189 1910 2253 2122 
L 2253 1871 
z
M 1427 1510 
C 1254 1510 1011 1542 813 1929 
C 678 2181 678 2477 678 2793 
C 678 3174 678 3438 858 3722 
C 947 3857 1114 4076 1485 4076 
C 2240 4076 2240 2909 2240 2651 
C 2240 2193 2035 1510 1427 1510 
z
" transform="scale(0.015625)"/>
        <path id="CMSY10-2" d="M 2490 1775 
L 1210 3046 
C 1133 3123 1120 3136 1069 3136 
C 1005 3136 941 3078 941 3008 
C 941 2963 954 2950 1024 2880 
L 2304 1596 
L 1024 313 
C 954 243 941 230 941 185 
C 941 115 1005 57 1069 57 
C 1120 57 1133 70 1210 147 
L 2483 1418 
L 3808 95 
C 3821 89 3866 57 3904 57 
C 3981 57 4032 115 4032 185 
C 4032 198 4032 223 4013 255 
C 4006 268 2989 1271 2669 1596 
L 3840 2765 
C 3872 2803 3968 2886 4000 2925 
C 4006 2937 4032 2963 4032 3008 
C 4032 3078 3981 3136 3904 3136 
C 3853 3136 3827 3110 3757 3040 
L 2490 1775 
z
" transform="scale(0.015625)"/>
        <path id="CMR17-30" d="M 2688 2038 
C 2688 2430 2682 3099 2413 3613 
C 2176 4063 1798 4224 1466 4224 
C 1158 4224 768 4082 525 3620 
C 269 3137 243 2539 243 2038 
C 243 1671 250 1112 448 623 
C 723 -39 1216 -128 1466 -128 
C 1760 -128 2208 -7 2470 604 
C 2662 1048 2688 1568 2688 2038 
z
M 1466 -26 
C 1056 -26 813 328 723 816 
C 653 1196 653 1749 653 2109 
C 653 2604 653 3015 736 3407 
C 858 3954 1216 4121 1466 4121 
C 1728 4121 2067 3947 2189 3420 
C 2272 3054 2278 2623 2278 2109 
C 2278 1691 2278 1176 2202 797 
C 2067 96 1690 -26 1466 -26 
z
" transform="scale(0.015625)"/>
        <path id="CMSY10-0" d="M 4218 1472 
C 4326 1472 4442 1472 4442 1600 
C 4442 1728 4326 1728 4218 1728 
L 755 1728 
C 646 1728 531 1728 531 1600 
C 531 1472 646 1472 755 1472 
L 4218 1472 
z
" transform="scale(0.015625)"/>
       </defs>
       <use xlink:href="#CMR17-31" transform="scale(0.996264)"/>
       <use xlink:href="#CMMI12-3a" transform="translate(45.690477 0) scale(0.996264)"/>
       <use xlink:href="#CMR17-33" transform="translate(72.787654 0) scale(0.996264)"/>
       <use xlink:href="#CMR17-37" transform="translate(118.478131 0) scale(0.996264)"/>
       <use xlink:href="#CMR17-32" transform="translate(164.168608 0) scale(0.996264)"/>
       <use xlink:href="#CMR17-39" transform="translate(209.859086 0) scale(0.996264)"/>
       <use xlink:href="#CMR17-32" transform="translate(255.549563 0) scale(0.996264)"/>
       <use xlink:href="#CMSY10-2" transform="translate(323.379247 0) scale(0.996264)"/>
       <use xlink:href="#CMR17-31" transform="translate(423.005921 0) scale(0.996264)"/>
       <use xlink:href="#CMR17-30" transform="translate(468.696399 0) scale(0.996264)"/>
       <use xlink:href="#CMSY10-0" transform="translate(514.386876 36.153639) scale(0.697382)"/>
       <use xlink:href="#CMR17-32" transform="translate(568.627869 36.153639) scale(0.697382)"/>
      </g>
     </g>
    </g>
    <g id="ytick_2"/>
   </g>
   <g id="line2d_6">
    <path d="M 152.746175 80.28 
L 152.67736 78.495772 
L 152.471232 76.719542 
L 152.128737 74.959259 
L 151.651445 73.222781 
L 151.041541 71.517822 
L 150.301812 69.851915 
L 149.435628 68.232358 
L 148.446925 66.666182 
L 147.340176 65.160102 
L 146.12037 63.720482 
L 144.792977 62.3533 
L 143.363916 61.064109 
L 141.839523 59.858013 
L 140.226508 58.739633 
L 138.531918 57.713087 
L 136.763095 56.781963 
L 134.927633 55.949306 
L 133.03333 55.217602 
L 131.088148 54.588763 
L 127.07752 53.644445 
L 122.960905 53.120056 
L 118.803082 53.010075 
L 114.667011 53.300033 
L 110.612465 53.967015 
L 106.694773 54.98036 
L 102.963695 56.302529 
L 99.462457 57.890141 
L 96.226976 59.695112 
L 93.285276 61.665897 
L 90.657114 63.748776 
L 88.353813 65.889172 
L 86.378309 68.032945 
L 84.725387 70.127648 
L 83.382117 72.12371 
L 81.902194 74.834376 
L 80.978798 77.089193 
L 80.405181 79.215326 
L 80.279964 80.274177 
L 80.232006 79.823368 
L 79.87783 78.328918 
L 79.244893 76.641976 
L 78.196984 74.593318 
L 76.673583 72.312309 
L 75.377416 70.730959 
L 73.854139 69.150082 
L 72.108242 67.611342 
L 70.150029 66.155131 
L 67.995321 64.819759 
L 65.665045 63.640701 
L 63.184737 62.649926 
L 60.583969 61.875313 
L 57.895705 61.340156 
L 55.15561 61.062778 
L 52.401328 61.05624 
L 49.671725 61.328159 
L 47.006139 61.88063 
L 44.443626 62.710253 
L 42.022224 63.808255 
L 39.778252 65.16071 
L 37.745646 66.748848 
L 35.955345 68.549446 
L 34.434739 70.535289 
L 33.207185 72.675705 
L 32.291593 74.937144 
L 31.702101 77.283818 
L 31.447823 79.678359 
L 31.532692 82.082517 
L 31.955395 84.457867 
L 32.709395 86.766512 
L 33.78304 88.971788 
L 35.15977 91.038946 
L 36.818406 92.935797 
L 38.733518 94.633329 
L 40.875875 96.106261 
L 43.212968 97.333541 
L 45.709589 98.298778 
L 48.328474 98.99059 
L 51.030985 99.402869 
L 53.777833 99.534951 
L 56.529821 99.391698 
L 59.2486 98.983463 
L 61.897422 98.325969 
L 64.441884 97.440066 
L 66.850635 96.351397 
L 69.096044 95.089952 
L 71.154811 93.689532 
L 73.008507 92.187119 
L 74.644025 90.622162 
L 76.053935 89.035795 
L 77.744158 86.707931 
L 78.945282 84.566835 
L 79.708053 82.745821 
L 80.183886 81.018852 
L 80.279964 80.285823 
L 80.308624 80.701786 
L 80.614491 82.272553 
L 81.23166 84.164793 
L 82.328453 86.584489 
L 83.382117 88.43629 
L 84.725387 90.432352 
L 86.378309 92.527055 
L 88.353813 94.670828 
L 90.657114 96.811224 
L 93.285276 98.894103 
L 96.226976 100.864888 
L 99.462457 102.669859 
L 102.963695 104.257471 
L 106.694773 105.57964 
L 110.612465 106.592985 
L 114.667011 107.259967 
L 118.803082 107.549925 
L 122.960905 107.439944 
L 127.07752 106.915555 
L 131.088148 105.971237 
L 133.03333 105.342398 
L 134.927633 104.610694 
L 136.763095 103.778037 
L 138.531918 102.846913 
L 140.226508 101.820367 
L 141.839523 100.701987 
L 143.363916 99.495891 
L 144.792977 98.2067 
L 146.12037 96.839518 
L 147.340176 95.399898 
L 148.446925 93.893818 
L 149.435628 92.327642 
L 150.301812 90.708085 
L 151.041541 89.042178 
L 151.651445 87.337219 
L 152.128737 85.600741 
L 152.471232 83.840458 
L 152.67736 82.064228 
L 152.746175 80.28 
L 152.746175 80.28 
" clip-path="url(#p6c6558cdd0)" style="fill: none; stroke: #000000; stroke-width: 0.75; stroke-linecap: square"/>
   </g>
   <g id="line2d_7">
    <path d="M 153.879807 80.28 
L 153.740904 77.714689 
L 153.323113 75.172328 
L 152.63023 72.675684 
L 151.668552 70.246993 
L 150.44681 67.907698 
L 148.976065 65.678201 
L 147.269576 63.577623 
L 145.34264 61.623588 
L 143.212412 59.83202 
L 140.897699 58.216962 
L 138.418737 56.790426 
L 135.796954 55.56226 
L 133.054716 54.540051 
L 130.215068 53.729053 
L 127.301468 53.132143 
L 124.337515 52.749809 
L 121.346683 52.580173 
L 118.352058 52.619031 
L 115.376083 52.859935 
L 112.440313 53.294293 
L 109.565185 53.911501 
L 106.769808 54.69909 
L 104.071767 55.642904 
L 101.486953 56.727293 
L 99.029415 57.935317 
L 96.711239 59.248974 
L 93.516626 61.376139 
L 90.682444 63.632609 
L 88.222491 65.951367 
L 86.139602 68.266035 
L 84.426001 70.512635 
L 83.063926 72.631226 
L 81.747045 75.163807 
L 80.92123 77.263251 
L 80.418326 79.153421 
L 80.279982 80.278982 
L 80.228259 79.787717 
L 79.92761 78.467112 
L 79.376581 76.908395 
L 78.46379 75.005343 
L 77.133449 72.867191 
L 75.84162 71.179971 
L 74.29223 69.477776 
L 72.488763 67.811415 
L 70.442235 66.230215 
L 68.170776 64.7809 
L 65.699073 63.506562 
L 63.057675 62.445761 
L 60.282197 61.631747 
L 57.412436 61.091835 
L 54.491424 60.846914 
L 51.564446 60.911114 
L 48.678031 61.291622 
L 45.878947 61.988636 
L 44.084192 62.626125 
L 42.361992 63.397815 
L 40.725142 64.2988 
L 39.185868 65.322959 
L 37.755715 66.463022 
L 36.445446 67.710644 
L 35.264953 69.056488 
L 34.223166 70.490318 
L 33.327978 72.001092 
L 32.58618 73.577071 
L 32.003403 75.205925 
L 31.58407 76.874849 
L 31.331359 78.570676 
L 31.247179 80.28 
L 31.332152 81.989297 
L 31.585611 83.685043 
L 32.005605 85.353843 
L 32.588917 86.982545 
L 33.331092 88.558359 
L 34.226471 90.06898 
L 35.268248 91.50269 
L 36.448518 92.848475 
L 37.758352 94.096121 
L 39.187869 95.236312 
L 40.726325 96.260722 
L 42.3622 97.162092 
L 44.083302 97.934309 
L 45.876875 98.572466 
L 48.674125 99.270726 
L 51.558762 99.65272 
L 54.484163 99.718558 
L 57.403923 99.475308 
L 60.272853 98.936966 
L 63.047973 98.124286 
L 65.689497 97.064453 
L 68.161778 95.790617 
L 70.434193 94.341269 
L 72.481954 92.759482 
L 74.286807 91.092006 
L 75.837608 89.388253 
L 77.130754 87.699158 
L 78.462534 85.558305 
L 79.376275 83.652748 
L 80.017702 81.767568 
L 80.279982 80.281039 
L 80.334744 80.905728 
L 80.662133 82.447184 
L 81.282799 84.302006 
L 82.344915 86.635154 
L 83.489493 88.641015 
L 84.968783 90.811179 
L 86.806536 93.089047 
L 89.017062 95.413035 
L 91.604447 97.718119 
L 94.562032 99.937531 
L 96.731167 101.336533 
L 99.049294 102.648373 
L 101.506369 103.854271 
L 104.0903 104.936288 
L 106.787049 105.87756 
L 109.580749 106.662513 
L 112.453854 107.277069 
L 115.387311 107.708837 
L 118.360748 107.947283 
L 121.352686 107.983876 
L 124.340766 107.812222 
L 127.301991 107.428159 
L 130.212975 106.829834 
L 133.050204 106.017748 
L 135.790303 104.994779 
L 138.410298 103.766165 
L 140.88788 102.339464 
L 143.201667 100.724489 
L 145.33145 98.933203 
L 147.258431 96.979598 
L 148.965447 94.879542 
L 150.437172 92.650602 
L 151.660304 90.311848 
L 152.62372 87.883631 
L 153.318615 85.387358 
L 153.738607 82.845231 
L 153.87982 80.28 
L 153.87982 80.28 
" clip-path="url(#p6c6558cdd0)" style="fill: none; stroke-dasharray: 2.775,1.2; stroke-dashoffset: 0; stroke: #ff0000; stroke-width: 0.75"/>
   </g>
   <g id="patch_3">
    <path d="M 157.55976 80.28 
C 157.55976 70.131715 155.560769 60.082109 151.677189 50.706316 
C 147.793608 41.330523 142.100964 32.810879 134.925042 25.634958 
C 127.749121 18.459036 119.229477 12.766392 109.853684 8.882811 
C 100.477891 4.999231 90.428285 3.00024 80.28 3.00024 
C 70.131715 3.00024 60.082109 4.999231 50.706316 8.882811 
C 41.330523 12.766392 32.810879 18.459036 25.634958 25.634958 
C 18.459036 32.810879 12.766392 41.330523 8.882811 50.706316 
C 4.999231 60.082109 3.00024 70.131715 3.00024 80.28 
C 3.00024 90.428285 4.999231 100.477891 8.882811 109.853684 
C 12.766392 119.229477 18.459036 127.749121 25.634958 134.925042 
C 32.810879 142.100964 41.330523 147.793608 50.706316 151.677189 
C 60.082109 155.560769 70.131715 157.55976 80.28 157.55976 
C 90.428285 157.55976 100.477891 155.560769 109.853684 151.677189 
C 119.229477 147.793608 127.749121 142.100964 134.925042 134.925042 
C 142.100964 127.749121 147.793608 119.229477 151.677189 109.853684 
C 155.560769 100.477891 157.55976 90.428285 157.55976 80.28 
" style="fill: none; stroke: #000000; stroke-width: 0.8; stroke-linejoin: miter; stroke-linecap: square"/>
   </g>
  </g>
 </g>
 <defs>
  <clipPath id="p6c6558cdd0">
   <path d="M 157.55976 80.28 
C 157.55976 70.131715 155.560769 60.082109 151.677189 50.706316 
C 147.793608 41.330523 142.100964 32.810879 134.925042 25.634958 
C 127.749121 18.459036 119.229477 12.766392 109.853684 8.882811 
C 100.477891 4.999231 90.428285 3.00024 80.28 3.00024 
C 70.131715 3.00024 60.082109 4.999231 50.706316 8.882811 
C 41.330523 12.766392 32.810879 18.459036 25.634958 25.634958 
C 18.459036 32.810879 12.766392 41.330523 8.882811 50.706316 
C 4.999231 60.082109 3.00024 70.131715 3.00024 80.28 
C 3.00024 90.428285 4.999231 100.477891 8.882811 109.853684 
C 12.766392 119.229477 18.459036 127.749121 25.634958 134.925042 
C 32.810879 142.100964 41.330523 147.793608 50.706316 151.677189 
C 60.082109 155.560769 70.131715 157.55976 80.28 157.55976 
C 90.428285 157.55976 100.477891 155.560769 109.853684 151.677189 
C 119.229477 147.793608 127.749121 142.100964 134.925042 134.925042 
C 142.100964 127.749121 147.793608 119.229477 151.677189 109.853684 
C 155.560769 100.477891 157.55976 90.428285 157.55976 80.28 
M 80.28 80.28 
C 80.28 80.28 80.28 80.28 80.28 80.28 
C 80.28 80.28 80.28 80.28 80.28 80.28 
C 80.28 80.28 80.28 80.28 80.28 80.28 
C 80.28 80.28 80.28 80.28 80.28 80.28 
C 80.28 80.28 80.28 80.28 80.28 80.28 
C 80.28 80.28 80.28 80.28 80.28 80.28 
C 80.28 80.28 80.28 80.28 80.28 80.28 
C 80.28 80.28 80.28 80.28 80.28 80.28 
C 80.28 80.28 80.28 80.28 80.28 80.28 
C 80.28 80.28 80.28 80.28 80.28 80.28 
C 80.28 80.28 80.28 80.28 80.28 80.28 
C 80.28 80.28 80.28 80.28 80.28 80.28 
C 80.28 80.28 80.28 80.28 80.28 80.28 
C 80.28 80.28 80.28 80.28 80.28 80.28 
C 80.28 80.28 80.28 80.28 80.28 80.28 
C 80.28 80.28 80.28 80.28 80.28 80.28 
M 157.55976 80.28 
z
"/>
  </clipPath>
 </defs>
</svg>
