<?xml version="1.0" encoding="utf-8" standalone="no"?>
<!DOCTYPE svg PUBLIC "-//W3C//DTD SVG 1.1//EN"
  "http://www.w3.org/Graphics/SVG/1.1/DTD/svg11.dtd">
<svg xmlns:xlink="http://www.w3.org/1999/xlink" width="160.56pt" height="160.56pt" viewBox="0 0 160.56 160.56" xmlns="http://www.w3.org/2000/svg" version="1.1">
 <metadata>
  <rdf:RDF xmlns:dc="http://purl.org/dc/elements/1.1/" xmlns:cc="http://creativecommons.org/ns#" xmlns:rdf="http://www.w3.org/1999/02/22-rdf-syntax-ns#">
   <cc:Work>
    <dc:type rdf:resource="http://purl.org/dc/dcmitype/StillImage"/>
    <dc:date>2025-09-21T18:25:49.077339</dc:date>
    <dc:format>image/svg+xml</dc:format>
    <dc:creator>
     <cc:Agent>
      <dc:title>Matplotlib v3.6.3, https://matplotlib.org/</dc:title>
     </cc:Agent>
    </dc:creator>
   </cc:Work>
  </rdf:RDF>
 </metadata>
 <defs>
  <style type="text/css">*{stroke-linejoin: round; stroke-linecap: butt}</style>
 </defs>
 <g id="figure_1">
  <g id="patch_1">
   <path d="M 0 160.56 
L 160.56 160.56 
L 160.56 0 
L 0 0 
z
" style="fill: #ffffff"/>
  </g>
  <g id="axes_1">
   <g id="patch_2">
    <path d="M 157.55976 80.28 
C 157.55976 70.131715 155.560769 60.082109 151.677189 50.706316 
C 147.793608 41.330523 142.100964 32.810879 134.925042 25.634958 
C 127.749121 18.459036 119.229477 12.766392 109.853684 8.882811 
C 100.477891 4.999231 90.428285 3.00024 80.28 3.00024 
C 70.131715 3.00024 60.082109 4.999231 50.706316 8.882811 
C 41.330523 12.766392 32.810879 18.459036 25.634958 25.634958 
C 18.459036 32.810879 12.766392 41.330523 8.882811 50.706316 
C 4.999231 60.082109 3.00024 70.131715 3.00024 80.28 
C 3.00024 90.428285 4.999231 100.477891 8.882811 109.853684 
C 12.766392 119.229477 18.459036 127.749121 25.634958 134.925042 
C 32.810879 142.100964 41.330523 147.793608 50.706316 151.677189 
C 60.082109 155.560769 70.131715 157.55976 80.28 157.55976 
C 90.428285 157.55976 100.477891 155.560769 109.853684 151.677189 
C 119.229477 147.793608 127.749121 142.100964 134.925042 134.925042 
C 142.100964 127.749121 147.793608 119.229477 151.677189 109.853684 
C 155.560769 100.477891 157.55976 90.428285 157.55976 80.28 
M 80.28 80.28 
C 80.28 80.28 80.28 80.28 80.28 80.28 
C 80.28 80.28 80.28 80.28 80.28 80.28 
C 80.28 80.28 80.28 80.28 80.28 80.28 
C 80.28 80.28 80.28 80.28 80.28 80.28 
C 80.28 80.28 80.28 80.28 80.28 80.28 
C 80.28 80.28 80.28 80.28 80.28 80.28 
C 80.28 80.28 80.28 80.28 80.28 80.28 
C 80.28 80.28 80.28 80.28 80.28 80.28 
C 80.28 80.28 80.28 80.28 80.28 80.28 
C 80.28 80.28 80.28 80.28 80.28 80.28 
C 80.28 80.28 80.28 80.28 80.28 80.28 
C 80.28 80.28 80.28 80.28 80.28 80.28 
C 80.28 80.28 80.28 80.28 80.28 80.28 
C 80.28 80.28 80.28 80.28 80.28 80.28 
C 80.28 80.28 80.28 80.28 80.28 80.28 
C 80.28 80.28 80.28 80.28 80.28 80.28 
M 157.55976 80.28 
z
" style="fill: #ffffff"/>
   </g>
   <g id="matplotlib.axis_1">
    <g id="xtick_1">
     <g id="line2d_1">
      <path d="M 80.28 80.28 
L 134.925042 25.634958 
" clip-path="url(#p4189f68a9e)" style="fill: none; stroke: #b0b0b0; stroke-width: 0.8; stroke-linecap: square"/>
     </g>
     <g id="text_1">
      <!-- $\pi/4$ -->
      <g transform="translate(136.824995 18.226123) scale(0.1 -0.1)">
       <defs>
        <path id="CMMI12-19" d="M 1658 2406 
L 2381 2406 
C 2208 1691 2099 1225 2099 715 
C 2099 625 2099 -64 2362 -64 
C 2496 -64 2611 57 2611 166 
C 2611 198 2611 210 2566 306 
C 2394 746 2394 1295 2394 1340 
C 2394 1378 2394 1832 2528 2406 
L 3245 2406 
C 3328 2406 3539 2406 3539 2611 
C 3539 2752 3418 2752 3302 2752 
L 1197 2752 
C 1050 2752 832 2752 538 2438 
C 371 2253 166 1915 166 1876 
C 166 1838 198 1825 237 1825 
C 282 1825 288 1844 320 1883 
C 653 2406 986 2406 1146 2406 
L 1510 2406 
C 1370 1927 1210 1372 685 255 
C 634 153 634 140 634 102 
C 634 -32 749 -64 806 -64 
C 992 -64 1043 102 1120 370 
C 1222 695 1222 708 1286 964 
L 1658 2406 
z
" transform="scale(0.015625)"/>
        <path id="CMMI12-3d" d="M 2746 4563 
C 2746 4569 2784 4665 2784 4678 
C 2784 4755 2720 4800 2669 4800 
C 2637 4800 2579 4800 2528 4659 
L 384 -1364 
C 384 -1370 346 -1466 346 -1479 
C 346 -1556 410 -1600 461 -1600 
C 499 -1600 557 -1594 602 -1460 
L 2746 4563 
z
" transform="scale(0.015625)"/>
        <path id="CMR17-34" d="M 2150 4147 
C 2150 4281 2144 4288 2029 4288 
L 128 1254 
L 128 1088 
L 1779 1088 
L 1779 460 
C 1779 230 1766 166 1318 166 
L 1197 166 
L 1197 0 
C 1402 12 1747 12 1965 12 
C 2182 12 2528 12 2733 0 
L 2733 166 
L 2611 166 
C 2163 166 2150 230 2150 460 
L 2150 1088 
L 2803 1088 
L 2803 1254 
L 2150 1254 
L 2150 4147 
z
M 1798 3723 
L 1798 1254 
L 256 1254 
L 1798 3723 
z
" transform="scale(0.015625)"/>
       </defs>
       <use xlink:href="#CMMI12-19" transform="scale(0.996264)"/>
       <use xlink:href="#CMMI12-3d" transform="translate(58.910601 0) scale(0.996264)"/>
       <use xlink:href="#CMR17-34" transform="translate(107.68552 0) scale(0.996264)"/>
      </g>
     </g>
    </g>
    <g id="xtick_2">
     <g id="line2d_2">
      <path d="M 80.28 80.28 
L 25.634958 25.634958 
" clip-path="url(#p4189f68a9e)" style="fill: none; stroke: #b0b0b0; stroke-width: 0.8; stroke-linecap: square"/>
     </g>
     <g id="text_2">
      <!-- $3\pi/4$ -->
      <g transform="translate(5.245252 18.226123) scale(0.1 -0.1)">
       <defs>
        <path id="CMR17-33" d="M 1414 2176 
C 1984 2176 2234 1673 2234 1094 
C 2234 322 1824 25 1453 25 
C 1114 25 563 193 390 691 
C 422 678 454 678 486 678 
C 640 678 755 780 755 947 
C 755 1132 614 1216 486 1216 
C 378 1216 211 1164 211 927 
C 211 335 787 -128 1466 -128 
C 2176 -128 2720 432 2720 1087 
C 2720 1718 2208 2176 1600 2246 
C 2086 2347 2554 2776 2554 3353 
C 2554 3856 2048 4224 1472 4224 
C 890 4224 378 3862 378 3347 
C 378 3123 544 3084 627 3084 
C 762 3084 877 3167 877 3334 
C 877 3500 762 3584 627 3584 
C 602 3584 570 3584 544 3571 
C 730 3999 1235 4076 1459 4076 
C 1683 4076 2106 3966 2106 3347 
C 2106 3167 2080 2851 1862 2574 
C 1670 2329 1453 2316 1242 2297 
C 1210 2297 1062 2284 1037 2284 
C 992 2278 966 2272 966 2227 
C 966 2182 973 2176 1101 2176 
L 1414 2176 
z
" transform="scale(0.015625)"/>
       </defs>
       <use xlink:href="#CMR17-33" transform="scale(0.996264)"/>
       <use xlink:href="#CMMI12-19" transform="translate(45.690477 0) scale(0.996264)"/>
       <use xlink:href="#CMMI12-3d" transform="translate(104.601078 0) scale(0.996264)"/>
       <use xlink:href="#CMR17-34" transform="translate(153.375997 0) scale(0.996264)"/>
      </g>
     </g>
    </g>
    <g id="xtick_3">
     <g id="line2d_3">
      <path d="M 80.28 80.28 
L 25.634958 134.925042 
" clip-path="url(#p4189f68a9e)" style="fill: none; stroke: #b0b0b0; stroke-width: 0.8; stroke-linecap: square"/>
     </g>
     <g id="text_3">
      <!-- $5\pi/4$ -->
      <g transform="translate(5.245252 147.315197) scale(0.1 -0.1)">
       <defs>
        <path id="CMR17-35" d="M 730 3750 
C 794 3724 1056 3641 1325 3641 
C 1920 3641 2246 3961 2432 4140 
C 2432 4191 2432 4224 2394 4224 
C 2387 4224 2374 4224 2323 4198 
C 2099 4102 1837 4032 1517 4032 
C 1325 4032 1037 4055 723 4191 
C 653 4224 640 4224 634 4224 
C 602 4224 595 4217 595 4090 
L 595 2231 
C 595 2113 595 2080 659 2080 
C 691 2080 704 2093 736 2139 
C 941 2435 1222 2560 1542 2560 
C 1766 2560 2246 2415 2246 1293 
C 2246 1087 2246 716 2054 422 
C 1894 159 1645 25 1370 25 
C 947 25 518 319 403 812 
C 429 806 480 793 506 793 
C 589 793 749 838 749 1036 
C 749 1209 627 1280 506 1280 
C 358 1280 262 1190 262 1011 
C 262 454 704 -128 1382 -128 
C 2042 -128 2669 441 2669 1267 
C 2669 2054 2170 2662 1549 2662 
C 1222 2662 947 2540 730 2304 
L 730 3750 
z
" transform="scale(0.015625)"/>
       </defs>
       <use xlink:href="#CMR17-35" transform="scale(0.996264)"/>
       <use xlink:href="#CMMI12-19" transform="translate(45.690477 0) scale(0.996264)"/>
       <use xlink:href="#CMMI12-3d" transform="translate(104.601078 0) scale(0.996264)"/>
       <use xlink:href="#CMR17-34" transform="translate(153.375997 0) scale(0.996264)"/>
      </g>
     </g>
    </g>
    <g id="xtick_4">
     <g id="line2d_4">
      <path d="M 80.28 80.28 
L 134.925042 134.925042 
" clip-path="url(#p4189f68a9e)" style="fill: none; stroke: #b0b0b0; stroke-width: 0.8; stroke-linecap: square"/>
     </g>
     <g id="text_4">
      <!-- $7\pi/4$ -->
      <g transform="translate(134.334327 147.315197) scale(0.1 -0.1)">
       <defs>
        <path id="CMR17-37" d="M 2886 3955 
L 2886 4096 
L 1382 4096 
C 634 4096 621 4166 595 4288 
L 480 4288 
L 294 3104 
L 410 3104 
C 429 3226 474 3552 550 3673 
C 589 3724 1062 3724 1171 3724 
L 2579 3724 
L 1869 2670 
C 1395 1961 1069 1003 1069 166 
C 1069 89 1069 -128 1299 -128 
C 1530 -128 1530 89 1530 172 
L 1530 466 
C 1530 1514 1709 2204 2003 2644 
L 2886 3955 
z
" transform="scale(0.015625)"/>
       </defs>
       <use xlink:href="#CMR17-37" transform="scale(0.996264)"/>
       <use xlink:href="#CMMI12-19" transform="translate(45.690477 0) scale(0.996264)"/>
       <use xlink:href="#CMMI12-3d" transform="translate(104.601078 0) scale(0.996264)"/>
       <use xlink:href="#CMR17-34" transform="translate(153.375997 0) scale(0.996264)"/>
      </g>
     </g>
    </g>
   </g>
   <g id="matplotlib.axis_2">
    <g id="ytick_1">
     <g id="line2d_5">
      <path d="M 95.298397 80.28 
C 95.298397 78.307802 94.909917 76.354781 94.15519 74.532708 
C 93.400463 72.710635 92.294165 71.054944 90.899611 69.660389 
C 89.505056 68.265835 87.849365 67.159537 86.027292 66.40481 
C 84.205219 65.650083 82.252198 65.261603 80.28 65.261603 
C 78.307802 65.261603 76.354781 65.650083 74.532708 66.40481 
C 72.710635 67.159537 71.054944 68.265835 69.660389 69.660389 
C 68.265835 71.054944 67.159537 72.710635 66.40481 74.532708 
C 65.650083 76.354781 65.261603 78.307802 65.261603 80.28 
C 65.261603 82.252198 65.650083 84.205219 66.40481 86.027292 
C 67.159537 87.849365 68.265835 89.505056 69.660389 90.899611 
C 71.054944 92.294165 72.710635 93.400463 74.532708 94.15519 
C 76.354781 94.909917 78.307802 95.298397 80.28 95.298397 
C 82.252198 95.298397 84.205219 94.909917 86.027292 94.15519 
C 87.849365 93.400463 89.505056 92.294165 90.899611 90.899611 
C 92.294165 89.505056 93.400463 87.849365 94.15519 86.027292 
C 94.909917 84.205219 95.298397 82.252198 95.298397 80.28 
" clip-path="url(#p4189f68a9e)" style="fill: none; stroke: #b0b0b0; stroke-width: 0.8; stroke-linecap: square"/>
     </g>
     <g id="text_5">
      <!-- $\mathdefault{10^{0}}$ -->
      <g transform="translate(71.665801 90.645173) scale(0.1 -0.1)">
       <defs>
        <path id="CMR17-31" d="M 1702 4083 
C 1702 4217 1696 4224 1606 4224 
C 1357 3927 979 3833 621 3820 
C 602 3820 570 3820 563 3808 
C 557 3795 557 3782 557 3648 
C 755 3648 1088 3686 1344 3839 
L 1344 467 
C 1344 243 1331 166 781 166 
L 589 166 
L 589 0 
C 896 6 1216 12 1523 12 
C 1830 12 2150 6 2458 0 
L 2458 166 
L 2266 166 
C 1715 166 1702 236 1702 467 
L 1702 4083 
z
" transform="scale(0.015625)"/>
        <path id="CMR17-30" d="M 2688 2038 
C 2688 2430 2682 3099 2413 3613 
C 2176 4063 1798 4224 1466 4224 
C 1158 4224 768 4082 525 3620 
C 269 3137 243 2539 243 2038 
C 243 1671 250 1112 448 623 
C 723 -39 1216 -128 1466 -128 
C 1760 -128 2208 -7 2470 604 
C 2662 1048 2688 1568 2688 2038 
z
M 1466 -26 
C 1056 -26 813 328 723 816 
C 653 1196 653 1749 653 2109 
C 653 2604 653 3015 736 3407 
C 858 3954 1216 4121 1466 4121 
C 1728 4121 2067 3947 2189 3420 
C 2272 3054 2278 2623 2278 2109 
C 2278 1691 2278 1176 2202 797 
C 2067 96 1690 -26 1466 -26 
z
" transform="scale(0.015625)"/>
       </defs>
       <use xlink:href="#CMR17-31" transform="scale(0.996264)"/>
       <use xlink:href="#CMR17-30" transform="translate(45.690477 0) scale(0.996264)"/>
       <use xlink:href="#CMR17-30" transform="translate(91.380954 36.153639) scale(0.697382)"/>
      </g>
     </g>
    </g>
    <g id="ytick_2">
     <g id="line2d_6">
      <path d="M 129.212131 80.28 
C 129.212131 73.854291 127.946407 67.491065 125.487395 61.554484 
C 123.028383 55.617903 119.423904 50.22342 114.880242 45.679758 
C 110.33658 41.136096 104.942097 37.531617 99.005516 35.072605 
C 93.068935 32.613593 86.705709 31.347869 80.28 31.347869 
C 73.854291 31.347869 67.491065 32.613593 61.554484 35.072605 
C 55.617903 37.531617 50.22342 41.136096 45.679758 45.679758 
C 41.136096 50.22342 37.531617 55.617903 35.072605 61.554484 
C 32.613593 67.491065 31.347869 73.854291 31.347869 80.28 
C 31.347869 86.705709 32.613593 93.068935 35.072605 99.005516 
C 37.531617 104.942097 41.136096 110.33658 45.679758 114.880242 
C 50.22342 119.423904 55.617903 123.028383 61.554484 125.487395 
C 67.491065 127.946407 73.854291 129.212131 80.28 129.212131 
C 86.705709 129.212131 93.068935 127.946407 99.005516 125.487395 
C 104.942097 123.028383 110.33658 119.423904 114.880242 114.880242 
C 119.423904 110.33658 123.028383 104.942097 125.487395 99.005516 
C 127.946407 93.068935 129.212131 86.705709 129.212131 80.28 
" clip-path="url(#p4189f68a9e)" style="fill: none; stroke: #b0b0b0; stroke-width: 0.8; stroke-linecap: square"/>
     </g>
     <g id="text_6">
      <!-- $\mathdefault{10^{1}}$ -->
      <g transform="translate(52.213682 118.425677) scale(0.1 -0.1)">
       <use xlink:href="#CMR17-31" transform="scale(0.996264)"/>
       <use xlink:href="#CMR17-30" transform="translate(45.690477 0) scale(0.996264)"/>
       <use xlink:href="#CMR17-31" transform="translate(91.380954 36.153639) scale(0.697382)"/>
      </g>
     </g>
    </g>
    <g id="ytick_3">
     <g id="line2d_7">
      <path d="M 156.245247 80.28 
C 156.245247 70.304335 154.280258 60.425671 150.462737 51.209359 
C 146.645215 41.993046 141.049401 33.618319 133.995541 26.564459 
C 126.941681 19.510599 118.566954 13.914785 109.350641 10.097263 
C 100.134329 6.279742 90.255665 4.314753 80.28 4.314753 
C 70.304335 4.314753 60.425671 6.279742 51.209359 10.097263 
C 41.993046 13.914785 33.618319 19.510599 26.564459 26.564459 
C 19.510599 33.618319 13.914785 41.993046 10.097263 51.209359 
C 6.279742 60.425671 4.314753 70.304335 4.314753 80.28 
C 4.314753 90.255665 6.279742 100.134329 10.097263 109.350641 
C 13.914785 118.566954 19.510599 126.941681 26.564459 133.995541 
C 33.618319 141.049401 41.993046 146.645215 51.209359 150.462737 
C 60.425671 154.280258 70.304335 156.245247 80.28 156.245247 
C 90.255665 156.245247 100.134329 154.280258 109.350641 150.462737 
C 118.566954 146.645215 126.941681 141.049401 133.995541 133.995541 
C 141.049401 126.941681 146.645215 118.566954 150.462737 109.350641 
C 154.280258 100.134329 156.245247 90.255665 156.245247 80.28 
" clip-path="url(#p4189f68a9e)" style="fill: none; stroke: #b0b0b0; stroke-width: 0.8; stroke-linecap: square"/>
     </g>
     <g id="text_7">
      <!-- $\mathdefault{10^{2}}$ -->
      <g transform="translate(36.708124 140.569909) scale(0.1 -0.1)">
       <defs>
        <path id="CMR17-32" d="M 2669 990 
L 2554 990 
C 2490 537 2438 460 2413 422 
C 2381 371 1920 371 1830 371 
L 602 371 
C 832 620 1280 1073 1824 1596 
C 2214 1966 2669 2400 2669 3033 
C 2669 3788 2067 4224 1395 4224 
C 691 4224 262 3603 262 3027 
C 262 2777 448 2745 525 2745 
C 589 2745 781 2783 781 3007 
C 781 3206 614 3264 525 3264 
C 486 3264 448 3257 422 3244 
C 544 3788 915 4057 1306 4057 
C 1862 4057 2227 3616 2227 3033 
C 2227 2477 1901 1998 1536 1583 
L 262 147 
L 262 0 
L 2515 0 
L 2669 990 
z
" transform="scale(0.015625)"/>
       </defs>
       <use xlink:href="#CMR17-31" transform="scale(0.996264)"/>
       <use xlink:href="#CMR17-30" transform="translate(45.690477 0) scale(0.996264)"/>
       <use xlink:href="#CMR17-32" transform="translate(91.380954 36.153639) scale(0.697382)"/>
      </g>
     </g>
    </g>
    <g id="ytick_4"/>
   </g>
   <g id="line2d_8">
    <path d="M 153.88646 80.28 
L 153.71291 77.943047 
L 153.191602 75.634569 
L 152.320519 73.383443 
L 151.096153 71.219373 
L 149.5133 69.173365 
L 147.564766 67.278284 
L 145.24106 65.569498 
L 142.530159 64.085607 
L 139.417694 62.869151 
L 135.888372 61.966943 
L 133.963407 61.649269 
L 131.930806 61.428936 
L 129.791951 61.311784 
L 125.217878 61.403873 
L 120.35523 61.925701 
L 115.527928 62.759476 
L 111.429579 63.54051 
L 109.952081 63.720914 
L 108.976303 63.661424 
L 108.504591 63.329441 
L 108.457545 62.741887 
L 108.706343 61.95336 
L 110.351285 58.064383 
L 110.699499 56.274672 
L 110.67924 55.49593 
L 110.526641 54.808821 
L 110.243889 54.221164 
L 109.834631 53.739744 
L 109.303063 53.370981 
L 108.653368 53.121413 
L 107.889353 52.99808 
L 107.014206 53.008869 
L 106.030297 53.162851 
L 104.93899 53.470683 
L 103.74042 53.945088 
L 102.433213 54.601496 
L 101.014078 55.458928 
L 99.477222 56.541252 
L 96.448634 59.622746 
L 93.195148 63.227401 
L 87.709662 69.7931 
L 83.766478 75.011242 
L 80.737614 79.511109 
L 80.34796 80.157077 
L 80.877906 79.112289 
L 81.949364 76.74702 
L 83.204113 73.544831 
L 84.347268 70.031076 
L 85.173582 66.704494 
L 85.576059 63.980406 
L 85.539013 62.151454 
L 85.371341 61.625481 
L 85.119574 61.368675 
L 84.798102 61.377985 
L 84.422608 61.642622 
L 84.00927 62.144961 
L 83.131973 63.764485 
L 82.280343 66.001041 
L 81.54068 68.583796 
L 80.964103 71.243145 
L 80.430646 74.869656 
L 80.20663 78.230874 
L 80.2033 79.61787 
L 80.116257 79.284635 
L 79.694735 77.914828 
L 79.220991 76.930287 
L 78.821461 76.51769 
L 78.700775 76.561864 
L 78.652139 76.904619 
L 78.838319 77.720635 
L 79.348515 78.89638 
L 79.922992 79.872774 
L 79.623513 79.620897 
L 78.091297 78.466413 
L 76.465641 77.508706 
L 74.649105 76.712804 
L 73.359141 76.345168 
L 72.269334 76.218405 
L 71.460561 76.325283 
L 70.959538 76.624025 
L 70.740199 77.054009 
L 70.737641 77.552896 
L 70.992089 78.40851 
L 71.441656 79.787427 
L 71.462557 80.630828 
L 71.238545 81.509979 
L 70.719388 83.177585 
L 70.785438 83.659916 
L 71.092983 84.053325 
L 71.696117 84.29428 
L 72.60432 84.326494 
L 73.772271 84.118188 
L 75.103193 83.676108 
L 76.902268 82.817123 
L 78.743698 81.637693 
L 79.922992 80.687226 
L 79.759923 80.955457 
L 79.124022 82.120888 
L 78.711646 83.283864 
L 78.66615 83.917736 
L 78.821461 84.04231 
L 79.106973 83.794838 
L 79.579766 82.928382 
L 80.05861 81.503918 
L 80.2033 80.94213 
L 80.207189 81.149853 
L 80.266161 83.759938 
L 80.566213 86.818781 
L 81.230237 90.640192 
L 81.892461 93.293581 
L 82.696781 95.737818 
L 83.574032 97.698406 
L 84.422608 98.917378 
L 84.798102 99.182015 
L 85.119574 99.191325 
L 85.371341 98.934519 
L 85.539013 98.408546 
L 85.610338 97.618801 
L 85.430749 95.31435 
L 84.809007 92.24408 
L 83.804753 88.765636 
L 82.574138 85.342155 
L 80.877906 81.447711 
L 80.34796 80.402923 
L 80.737614 81.048891 
L 82.387874 83.578237 
L 85.538991 87.959107 
L 90.269473 93.914973 
L 93.195148 97.332599 
L 96.448634 100.937254 
L 99.477222 104.018748 
L 101.014078 105.101072 
L 102.433213 105.958504 
L 103.74042 106.614912 
L 104.93899 107.089317 
L 106.030297 107.397149 
L 107.014206 107.551131 
L 107.889353 107.56192 
L 108.653368 107.438587 
L 109.303063 107.189019 
L 109.834631 106.820256 
L 110.243889 106.338836 
L 110.526641 105.751179 
L 110.67924 105.06407 
L 110.699499 104.285328 
L 110.588167 103.42477 
L 110.003854 101.516516 
L 108.457545 97.818113 
L 108.504591 97.230559 
L 108.976303 96.898576 
L 109.952081 96.839086 
L 111.429579 97.01949 
L 120.35523 98.634299 
L 125.217878 99.156127 
L 129.791951 99.248216 
L 133.963407 98.910731 
L 137.70604 98.184314 
L 141.025088 97.118878 
L 143.934859 95.763119 
L 146.4505 94.161724 
L 148.585278 92.355185 
L 150.349937 90.380393 
L 151.752779 88.271375 
L 152.799965 86.059995 
L 153.495819 83.776542 
L 153.843083 81.450252 
L 153.88646 80.28 
L 153.88646 80.28 
" clip-path="url(#p4189f68a9e)" style="fill: none; stroke: #000000; stroke-width: 0.75; stroke-linecap: square"/>
   </g>
   <g id="line2d_9">
    <path d="M 153.765285 80.28 
L 153.548248 77.721416 
L 152.918218 75.200641 
L 151.872147 72.755362 
L 150.404548 70.424637 
L 149.510249 69.315006 
L 148.507302 68.249686 
L 147.394234 67.234314 
L 146.16937 66.274782 
L 144.830827 65.377267 
L 143.376525 64.548269 
L 141.804203 63.794639 
L 140.11148 63.123599 
L 138.295962 62.542741 
L 136.355452 62.059981 
L 134.288319 61.683444 
L 132.094138 61.421196 
L 129.774777 61.280735 
L 127.336218 61.268054 
L 124.791538 61.385973 
L 119.502016 61.990473 
L 110.414132 63.576378 
L 109.212004 63.5761 
L 108.599055 63.264195 
L 108.490663 62.652021 
L 108.729433 61.804722 
L 110.015436 58.675941 
L 110.315159 57.646884 
L 110.475717 56.68852 
L 110.483028 55.82207 
L 110.33275 55.062748 
L 110.025898 54.422285 
L 109.56615 53.910632 
L 108.958236 53.537112 
L 108.206967 53.311241 
L 107.31663 53.24337 
L 106.290562 53.345275 
L 105.130802 53.630778 
L 103.837723 54.116498 
L 102.409563 54.82285 
L 100.841767 55.77544 
L 99.03807 57.115713 
L 95.257165 61.110104 
L 91.823574 64.96116 
L 88.803169 68.548865 
L 84.154426 74.535928 
L 81.404814 78.479921 
L 80.348766 80.155943 
L 80.606907 79.665177 
L 81.662854 77.44473 
L 83.032646 74.097457 
L 84.307327 70.312016 
L 85.206399 66.744831 
L 85.592412 63.930077 
L 85.58651 62.923187 
L 85.45835 62.220946 
L 85.222222 61.835376 
L 84.896031 61.766113 
L 84.499945 62.00141 
L 84.055111 62.5195 
L 83.101784 64.276867 
L 82.184369 66.729708 
L 81.410319 69.525737 
L 80.836221 72.325671 
L 80.355747 75.940486 
L 80.207205 78.890996 
L 80.202898 79.652051 
L 80.146327 79.436022 
L 79.749237 78.151226 
L 79.274841 77.186439 
L 78.863673 76.774469 
L 78.738393 76.817494 
L 78.691371 77.16214 
L 78.896097 77.976798 
L 79.484652 79.224538 
L 79.666419 79.574155 
L 79.586002 79.535778 
L 77.791961 78.265226 
L 76.173357 77.404498 
L 74.374433 76.731577 
L 73.081471 76.452474 
L 71.973164 76.406459 
L 71.147791 76.590348 
L 70.652988 76.965154 
L 70.470141 77.467068 
L 70.521333 78.027034 
L 71.008002 80.28 
L 70.751766 81.113612 
L 70.352874 82.390076 
L 70.369009 82.935642 
L 70.591107 83.428112 
L 71.060539 83.81902 
L 71.79654 84.05708 
L 72.791565 84.095548 
L 74.003329 83.903838 
L 75.347979 83.482892 
L 77.128479 82.654842 
L 78.847667 81.569678 
L 79.63432 80.9971 
L 79.569113 81.157873 
L 78.969498 82.377242 
L 78.697845 83.385154 
L 78.788053 83.794807 
L 78.940663 83.769091 
L 79.264866 83.40426 
L 79.746663 82.4191 
L 80.203244 80.905127 
L 80.207477 81.317127 
L 80.28 83.731829 
L 80.633523 87.025628 
L 81.107621 89.739757 
L 81.793338 92.605151 
L 82.660342 95.308887 
L 83.626504 97.496269 
L 84.560515 98.820948 
L 84.964553 99.068714 
L 85.297562 99.005797 
L 85.538544 98.618721 
L 85.668741 97.905778 
L 85.673103 96.878265 
L 85.541767 95.561282 
L 84.866868 92.229201 
L 83.718292 88.380108 
L 82.319681 84.654109 
L 80.596006 80.87432 
L 80.365575 80.434381 
L 80.807896 81.158566 
L 82.822237 84.194702 
L 86.688513 89.432305 
L 89.331981 92.738983 
L 92.417684 96.38725 
L 95.895489 100.266914 
L 99.380036 103.866581 
L 101.052094 105.035218 
L 102.579415 105.932543 
L 103.97008 106.5905 
L 105.228627 107.034127 
L 106.35694 107.283462 
L 107.35484 107.35484 
L 108.220491 107.261819 
L 108.950726 107.015884 
L 109.541349 106.627037 
L 109.987513 106.104347 
L 110.284272 105.456573 
L 110.427485 104.692952 
L 110.415339 103.824307 
L 110.250932 102.864717 
L 109.530326 100.761299 
L 108.342661 97.815497 
L 108.410442 97.182475 
L 108.984319 96.852446 
L 110.160108 96.842814 
L 114.137065 97.531036 
L 119.321966 98.485568 
L 124.690211 99.131016 
L 127.271162 99.265662 
L 129.742317 99.266805 
L 132.090209 99.137374 
L 134.308781 98.883601 
L 136.396266 98.51328 
L 138.35328 98.034783 
L 140.181698 97.456535 
L 141.883984 96.786738 
L 143.462813 96.033245 
L 144.920855 95.203517 
L 146.260652 94.304621 
L 147.484567 93.343244 
L 148.594748 92.325733 
L 150.481418 90.146166 
L 151.93355 87.811092 
L 152.960829 85.362339 
L 153.570032 82.839344 
L 153.765286 80.28 
L 153.765286 80.28 
" clip-path="url(#p4189f68a9e)" style="fill: none; stroke-dasharray: 2.775,1.2; stroke-dashoffset: 0; stroke: #ff0000; stroke-width: 0.75"/>
   </g>
   <g id="patch_3">
    <path d="M 157.55976 80.28 
C 157.55976 70.131715 155.560769 60.082109 151.677189 50.706316 
C 147.793608 41.330523 142.100964 32.810879 134.925042 25.634958 
C 127.749121 18.459036 119.229477 12.766392 109.853684 8.882811 
C 100.477891 4.999231 90.428285 3.00024 80.28 3.00024 
C 70.131715 3.00024 60.082109 4.999231 50.706316 8.882811 
C 41.330523 12.766392 32.810879 18.459036 25.634958 25.634958 
C 18.459036 32.810879 12.766392 41.330523 8.882811 50.706316 
C 4.999231 60.082109 3.00024 70.131715 3.00024 80.28 
C 3.00024 90.428285 4.999231 100.477891 8.882811 109.853684 
C 12.766392 119.229477 18.459036 127.749121 25.634958 134.925042 
C 32.810879 142.100964 41.330523 147.793608 50.706316 151.677189 
C 60.082109 155.560769 70.131715 157.55976 80.28 157.55976 
C 90.428285 157.55976 100.477891 155.560769 109.853684 151.677189 
C 119.229477 147.793608 127.749121 142.100964 134.925042 134.925042 
C 142.100964 127.749121 147.793608 119.229477 151.677189 109.853684 
C 155.560769 100.477891 157.55976 90.428285 157.55976 80.28 
" style="fill: none; stroke: #000000; stroke-width: 0.8; stroke-linejoin: miter; stroke-linecap: square"/>
   </g>
  </g>
 </g>
 <defs>
  <clipPath id="p4189f68a9e">
   <path d="M 157.55976 80.28 
C 157.55976 70.131715 155.560769 60.082109 151.677189 50.706316 
C 147.793608 41.330523 142.100964 32.810879 134.925042 25.634958 
C 127.749121 18.459036 119.229477 12.766392 109.853684 8.882811 
C 100.477891 4.999231 90.428285 3.00024 80.28 3.00024 
C 70.131715 3.00024 60.082109 4.999231 50.706316 8.882811 
C 41.330523 12.766392 32.810879 18.459036 25.634958 25.634958 
C 18.459036 32.810879 12.766392 41.330523 8.882811 50.706316 
C 4.999231 60.082109 3.00024 70.131715 3.00024 80.28 
C 3.00024 90.428285 4.999231 100.477891 8.882811 109.853684 
C 12.766392 119.229477 18.459036 127.749121 25.634958 134.925042 
C 32.810879 142.100964 41.330523 147.793608 50.706316 151.677189 
C 60.082109 155.560769 70.131715 157.55976 80.28 157.55976 
C 90.428285 157.55976 100.477891 155.560769 109.853684 151.677189 
C 119.229477 147.793608 127.749121 142.100964 134.925042 134.925042 
C 142.100964 127.749121 147.793608 119.229477 151.677189 109.853684 
C 155.560769 100.477891 157.55976 90.428285 157.55976 80.28 
M 80.28 80.28 
C 80.28 80.28 80.28 80.28 80.28 80.28 
C 80.28 80.28 80.28 80.28 80.28 80.28 
C 80.28 80.28 80.28 80.28 80.28 80.28 
C 80.28 80.28 80.28 80.28 80.28 80.28 
C 80.28 80.28 80.28 80.28 80.28 80.28 
C 80.28 80.28 80.28 80.28 80.28 80.28 
C 80.28 80.28 80.28 80.28 80.28 80.28 
C 80.28 80.28 80.28 80.28 80.28 80.28 
C 80.28 80.28 80.28 80.28 80.28 80.28 
C 80.28 80.28 80.28 80.28 80.28 80.28 
C 80.28 80.28 80.28 80.28 80.28 80.28 
C 80.28 80.28 80.28 80.28 80.28 80.28 
C 80.28 80.28 80.28 80.28 80.28 80.28 
C 80.28 80.28 80.28 80.28 80.28 80.28 
C 80.28 80.28 80.28 80.28 80.28 80.28 
C 80.28 80.28 80.28 80.28 80.28 80.28 
M 157.55976 80.28 
z
"/>
  </clipPath>
 </defs>
</svg>
